<?xml version="1.0" encoding="UTF-8" standalone="no"?>
<!DOCTYPE svg PUBLIC "-//W3C//DTD SVG 1.1//EN"
 "http://www.w3.org/Graphics/SVG/1.1/DTD/svg11.dtd">
<!-- Generated by graphviz version 2.43.0 (0)
 -->
<!-- Title: arg_router::policy::alias_t&lt; AliasedPolicies &gt; Pages: 1 -->
<svg width="159pt" height="106pt"
 viewBox="0.00 0.00 159.00 106.00" xmlns="http://www.w3.org/2000/svg" xmlns:xlink="http://www.w3.org/1999/xlink">
<g id="graph0" class="graph" transform="scale(1 1) rotate(0) translate(4 102)">
<title>arg_router::policy::alias_t&lt; AliasedPolicies &gt;</title>
<polygon fill="white" stroke="transparent" points="-4,4 -4,-102 155,-102 155,4 -4,4"/>
<!-- Node1 -->
<g id="node1" class="node">
<title>Node1</title>
<g id="a_node1"><a xlink:title=" ">
<polygon fill="#bfbfbf" stroke="black" points="0,-0.5 0,-30.5 151,-30.5 151,-0.5 0,-0.5"/>
<text text-anchor="start" x="8" y="-18.5" font-family="Helvetica,sans-Serif" font-size="10.00">arg_router::policy</text>
<text text-anchor="middle" x="75.5" y="-7.5" font-family="Helvetica,sans-Serif" font-size="10.00">::alias_t&lt; AliasedPolicies &gt;</text>
</a>
</g>
</g>
<!-- Node2 -->
<g id="node2" class="node">
<title>Node2</title>
<g id="a_node2"><a xlink:href="structarg__router_1_1policy_1_1no__result__value.html" target="_top" xlink:title=" ">
<polygon fill="white" stroke="black" points="17.5,-67.5 17.5,-97.5 133.5,-97.5 133.5,-67.5 17.5,-67.5"/>
<text text-anchor="start" x="25.5" y="-85.5" font-family="Helvetica,sans-Serif" font-size="10.00">arg_router::policy</text>
<text text-anchor="middle" x="75.5" y="-74.5" font-family="Helvetica,sans-Serif" font-size="10.00">::no_result_value&lt;&gt;</text>
</a>
</g>
</g>
<!-- Node2&#45;&gt;Node1 -->
<g id="edge1" class="edge">
<title>Node2&#45;&gt;Node1</title>
<path fill="none" stroke="midnightblue" d="M75.5,-57.11C75.5,-48.15 75.5,-38.32 75.5,-30.58"/>
<polygon fill="midnightblue" stroke="midnightblue" points="72,-57.4 75.5,-67.4 79,-57.4 72,-57.4"/>
</g>
</g>
</svg>
