<?xml version="1.0" encoding="UTF-8" standalone="no"?>
<!DOCTYPE svg PUBLIC "-//W3C//DTD SVG 1.1//EN"
 "http://www.w3.org/Graphics/SVG/1.1/DTD/svg11.dtd">
<!-- Generated by graphviz version 2.43.0 (0)
 -->
<!-- Title: arg_router::mode_t&lt; Params &gt; Pages: 1 -->
<svg width="450pt" height="105pt"
 viewBox="0.00 0.00 450.00 104.50" xmlns="http://www.w3.org/2000/svg" xmlns:xlink="http://www.w3.org/1999/xlink">
<g id="graph0" class="graph" transform="scale(1 1) rotate(0) translate(4 100.5)">
<title>arg_router::mode_t&lt; Params &gt;</title>
<polygon fill="white" stroke="transparent" points="-4,4 -4,-100.5 446,-100.5 446,4 -4,4"/>
<!-- Node1 -->
<g id="node1" class="node">
<title>Node1</title>
<g id="a_node1"><a xlink:title=" ">
<polygon fill="#bfbfbf" stroke="black" points="332,-41 332,-71 442,-71 442,-41 332,-41"/>
<text text-anchor="start" x="340" y="-59" font-family="Helvetica,sans-Serif" font-size="10.00">arg_router::mode_t</text>
<text text-anchor="middle" x="387" y="-48" font-family="Helvetica,sans-Serif" font-size="10.00">&lt; Params &gt;</text>
</a>
</g>
</g>
<!-- Node2 -->
<g id="node2" class="node">
<title>Node2</title>
<g id="a_node2"><a xlink:href="structarg__router_1_1policy_1_1no__result__value.html" target="_top" xlink:title=" ">
<polygon fill="white" stroke="black" points="184,-66 184,-96 286,-96 286,-66 184,-66"/>
<text text-anchor="start" x="192" y="-84" font-family="Helvetica,sans-Serif" font-size="10.00">arg_router::policy</text>
<text text-anchor="middle" x="235" y="-73" font-family="Helvetica,sans-Serif" font-size="10.00">::no_result_value</text>
</a>
</g>
</g>
<!-- Node2&#45;&gt;Node1 -->
<g id="edge1" class="edge">
<title>Node2&#45;&gt;Node1</title>
<path fill="none" stroke="midnightblue" d="M296.5,-70.92C308.21,-68.96 320.42,-66.93 331.91,-65.02"/>
<polygon fill="midnightblue" stroke="midnightblue" points="295.65,-67.51 286.37,-72.61 296.8,-74.41 295.65,-67.51"/>
</g>
<!-- Node3 -->
<g id="node3" class="node">
<title>Node3</title>
<g id="a_node3"><a xlink:href="classarg__router_1_1tree__node.html" target="_top" xlink:title=" ">
<polygon fill="white" stroke="black" points="174,-17 174,-47 296,-47 296,-17 174,-17"/>
<text text-anchor="start" x="182" y="-35" font-family="Helvetica,sans-Serif" font-size="10.00">arg_router::tree_node</text>
<text text-anchor="middle" x="235" y="-24" font-family="Helvetica,sans-Serif" font-size="10.00">&lt; Params... &gt;</text>
</a>
</g>
</g>
<!-- Node3&#45;&gt;Node1 -->
<g id="edge2" class="edge">
<title>Node3&#45;&gt;Node1</title>
<path fill="none" stroke="midnightblue" d="M306.14,-43.22C314.71,-44.59 323.37,-45.98 331.66,-47.31"/>
<polygon fill="midnightblue" stroke="midnightblue" points="306.57,-39.75 296.15,-41.62 305.47,-46.66 306.57,-39.75"/>
</g>
<!-- Node4 -->
<g id="node4" class="node">
<title>Node4</title>
<g id="a_node4"><a xlink:href="classarg__router_1_1traits_1_1unpack__and__derive.html" target="_top" xlink:title=" ">
<polygon fill="white" stroke="black" points="0,-0.5 0,-63.5 138,-63.5 138,-0.5 0,-0.5"/>
<text text-anchor="start" x="8" y="-51.5" font-family="Helvetica,sans-Serif" font-size="10.00">arg_router::traits</text>
<text text-anchor="start" x="8" y="-40.5" font-family="Helvetica,sans-Serif" font-size="10.00">::unpack_and_derive</text>
<text text-anchor="start" x="8" y="-29.5" font-family="Helvetica,sans-Serif" font-size="10.00">&lt; boost::mp11::mp_filter</text>
<text text-anchor="start" x="8" y="-18.5" font-family="Helvetica,sans-Serif" font-size="10.00">&lt; policy::is_policy, std</text>
<text text-anchor="middle" x="69" y="-7.5" font-family="Helvetica,sans-Serif" font-size="10.00">::tuple&lt; Params... &gt; &gt; &gt;</text>
</a>
</g>
</g>
<!-- Node4&#45;&gt;Node3 -->
<g id="edge3" class="edge">
<title>Node4&#45;&gt;Node3</title>
<path fill="none" stroke="midnightblue" d="M148.22,-32C156.86,-32 165.56,-32 173.93,-32"/>
<polygon fill="midnightblue" stroke="midnightblue" points="148.13,-28.5 138.13,-32 148.13,-35.5 148.13,-28.5"/>
</g>
</g>
</svg>
