<?xml version="1.0" encoding="UTF-8" standalone="no"?>
<!DOCTYPE svg PUBLIC "-//W3C//DTD SVG 1.1//EN"
 "http://www.w3.org/Graphics/SVG/1.1/DTD/svg11.dtd">
<!-- Generated by graphviz version 2.43.0 (0)
 -->
<!-- Title: arg_router::counting_flag_t&lt; T, Policies &gt; Pages: 1 -->
<svg width="513pt" height="83pt"
 viewBox="0.00 0.00 513.00 83.00" xmlns="http://www.w3.org/2000/svg" xmlns:xlink="http://www.w3.org/1999/xlink">
<g id="graph0" class="graph" transform="scale(1 1) rotate(0) translate(4 79)">
<title>arg_router::counting_flag_t&lt; T, Policies &gt;</title>
<polygon fill="white" stroke="transparent" points="-4,4 -4,-79 509,-79 509,4 -4,4"/>
<!-- Node1 -->
<g id="node1" class="node">
<title>Node1</title>
<g id="a_node1"><a xlink:title=" ">
<polygon fill="#bfbfbf" stroke="black" points="384,-22.5 384,-52.5 505,-52.5 505,-22.5 384,-22.5"/>
<text text-anchor="start" x="392" y="-40.5" font-family="Helvetica,sans-Serif" font-size="10.00">arg_router::counting</text>
<text text-anchor="middle" x="444.5" y="-29.5" font-family="Helvetica,sans-Serif" font-size="10.00">_flag_t&lt; T, Policies &gt;</text>
</a>
</g>
</g>
<!-- Node2 -->
<g id="node2" class="node">
<title>Node2</title>
<g id="a_node2"><a xlink:href="classarg__router_1_1tree__node.html" target="_top" xlink:title=" ">
<polygon fill="white" stroke="black" points="201,-0.5 201,-74.5 348,-74.5 348,-0.5 201,-0.5"/>
<text text-anchor="start" x="209" y="-62.5" font-family="Helvetica,sans-Serif" font-size="10.00">arg_router::tree_node</text>
<text text-anchor="start" x="209" y="-51.5" font-family="Helvetica,sans-Serif" font-size="10.00">&lt; policy::multi_stage</text>
<text text-anchor="start" x="209" y="-40.5" font-family="Helvetica,sans-Serif" font-size="10.00">_value&lt; T, bool &gt;, std</text>
<text text-anchor="start" x="209" y="-29.5" font-family="Helvetica,sans-Serif" font-size="10.00">::decay_t&lt; decltype(policy</text>
<text text-anchor="start" x="209" y="-18.5" font-family="Helvetica,sans-Serif" font-size="10.00">::fixed_count&lt; 0 &gt;)&gt;, std</text>
<text text-anchor="middle" x="274.5" y="-7.5" font-family="Helvetica,sans-Serif" font-size="10.00">::decay_t&lt; Policies &gt;... &gt;</text>
</a>
</g>
</g>
<!-- Node2&#45;&gt;Node1 -->
<g id="edge1" class="edge">
<title>Node2&#45;&gt;Node1</title>
<path fill="none" stroke="midnightblue" d="M358.29,-37.5C366.9,-37.5 375.52,-37.5 383.81,-37.5"/>
<polygon fill="midnightblue" stroke="midnightblue" points="358.21,-34 348.21,-37.5 358.21,-41 358.21,-34"/>
</g>
<!-- Node3 -->
<g id="node3" class="node">
<title>Node3</title>
<g id="a_node3"><a xlink:href="classarg__router_1_1traits_1_1unpack__and__derive.html" target="_top" xlink:title=" ">
<polygon fill="white" stroke="black" points="0,-0.5 0,-74.5 165,-74.5 165,-0.5 0,-0.5"/>
<text text-anchor="start" x="8" y="-62.5" font-family="Helvetica,sans-Serif" font-size="10.00">arg_router::traits</text>
<text text-anchor="start" x="8" y="-51.5" font-family="Helvetica,sans-Serif" font-size="10.00">::unpack_and_derive</text>
<text text-anchor="start" x="8" y="-40.5" font-family="Helvetica,sans-Serif" font-size="10.00">&lt; boost::mp11::mp_filter</text>
<text text-anchor="start" x="8" y="-29.5" font-family="Helvetica,sans-Serif" font-size="10.00">&lt; policy::is_policy, std</text>
<text text-anchor="start" x="8" y="-18.5" font-family="Helvetica,sans-Serif" font-size="10.00">::tuple&lt; std::decay_t&lt; Params</text>
<text text-anchor="middle" x="82.5" y="-7.5" font-family="Helvetica,sans-Serif" font-size="10.00"> &gt;... &gt; &gt; &gt;</text>
</a>
</g>
</g>
<!-- Node3&#45;&gt;Node2 -->
<g id="edge2" class="edge">
<title>Node3&#45;&gt;Node2</title>
<path fill="none" stroke="midnightblue" d="M175.24,-37.5C183.85,-37.5 192.48,-37.5 200.87,-37.5"/>
<polygon fill="midnightblue" stroke="midnightblue" points="175.18,-34 165.18,-37.5 175.18,-41 175.18,-34"/>
</g>
</g>
</svg>
