<?xml version="1.0" encoding="UTF-8" standalone="no"?>
<!DOCTYPE svg PUBLIC "-//W3C//DTD SVG 1.1//EN"
 "http://www.w3.org/Graphics/SVG/1.1/DTD/svg11.dtd">
<!-- Generated by graphviz version 2.43.0 (0)
 -->
<!-- Title: arg_router/utility/compile_time_string.hpp Pages: 1 -->
<svg width="1215pt" height="341pt"
 viewBox="0.00 0.00 1215.00 341.00" xmlns="http://www.w3.org/2000/svg" xmlns:xlink="http://www.w3.org/1999/xlink">
<g id="graph0" class="graph" transform="scale(1 1) rotate(0) translate(4 337)">
<title>arg_router/utility/compile_time_string.hpp</title>
<polygon fill="white" stroke="transparent" points="-4,4 -4,-337 1211,-337 1211,4 -4,4"/>
<!-- Node1 -->
<g id="node1" class="node">
<title>Node1</title>
<g id="a_node1"><a xlink:title=" ">
<polygon fill="#bfbfbf" stroke="black" points="424.5,-302.5 424.5,-332.5 564.5,-332.5 564.5,-302.5 424.5,-302.5"/>
<text text-anchor="start" x="432.5" y="-320.5" font-family="Helvetica,sans-Serif" font-size="10.00">arg_router/utility</text>
<text text-anchor="middle" x="494.5" y="-309.5" font-family="Helvetica,sans-Serif" font-size="10.00">/compile_time_string.hpp</text>
</a>
</g>
</g>
<!-- Node2 -->
<g id="node2" class="node">
<title>Node2</title>
<g id="a_node2"><a xlink:href="tree__node_8hpp_source.html" target="_top" xlink:title=" ">
<polygon fill="white" stroke="black" points="424.5,-246.5 424.5,-265.5 564.5,-265.5 564.5,-246.5 424.5,-246.5"/>
<text text-anchor="middle" x="494.5" y="-253.5" font-family="Helvetica,sans-Serif" font-size="10.00">arg_router/tree_node.hpp</text>
</a>
</g>
</g>
<!-- Node1&#45;&gt;Node2 -->
<g id="edge1" class="edge">
<title>Node1&#45;&gt;Node2</title>
<path fill="none" stroke="midnightblue" d="M494.5,-292.29C494.5,-282.86 494.5,-272.65 494.5,-265.66"/>
<polygon fill="midnightblue" stroke="midnightblue" points="491,-292.4 494.5,-302.4 498,-292.4 491,-292.4"/>
</g>
<!-- Node3 -->
<g id="node3" class="node">
<title>Node3</title>
<g id="a_node3"><a xlink:href="arg_8hpp_source.html" target="_top" xlink:title=" ">
<polygon fill="white" stroke="black" points="0,-118 0,-137 107,-137 107,-118 0,-118"/>
<text text-anchor="middle" x="53.5" y="-125" font-family="Helvetica,sans-Serif" font-size="10.00">arg_router/arg.hpp</text>
</a>
</g>
</g>
<!-- Node2&#45;&gt;Node3 -->
<g id="edge2" class="edge">
<title>Node2&#45;&gt;Node3</title>
<path fill="none" stroke="midnightblue" d="M413.97,-249.54C355.49,-243.86 275.11,-232.49 207.5,-210 151.53,-191.38 91.47,-153.84 66.03,-137.01"/>
<polygon fill="midnightblue" stroke="midnightblue" points="413.98,-253.05 424.26,-250.5 414.63,-246.08 413.98,-253.05"/>
</g>
<!-- Node6 -->
<g id="node6" class="node">
<title>Node6</title>
<g id="a_node6"><a xlink:href="counting__flag_8hpp_source.html" target="_top" xlink:title=" ">
<polygon fill="white" stroke="black" points="125.5,-112.5 125.5,-142.5 237.5,-142.5 237.5,-112.5 125.5,-112.5"/>
<text text-anchor="start" x="133.5" y="-130.5" font-family="Helvetica,sans-Serif" font-size="10.00">arg_router/counting</text>
<text text-anchor="middle" x="181.5" y="-119.5" font-family="Helvetica,sans-Serif" font-size="10.00">_flag.hpp</text>
</a>
</g>
</g>
<!-- Node2&#45;&gt;Node6 -->
<g id="edge5" class="edge">
<title>Node2&#45;&gt;Node6</title>
<path fill="none" stroke="midnightblue" d="M414,-246.97C351.75,-239.58 271.58,-227.18 243.5,-210 216.81,-193.67 197.51,-161.27 188.06,-142.62"/>
<polygon fill="midnightblue" stroke="midnightblue" points="413.89,-250.47 424.22,-248.15 414.69,-243.52 413.89,-250.47"/>
</g>
<!-- Node7 -->
<g id="node7" class="node">
<title>Node7</title>
<g id="a_node7"><a xlink:href="detail_8hpp_source.html" target="_top" xlink:title=" ">
<polygon fill="white" stroke="black" points="253,-179.5 253,-209.5 382,-209.5 382,-179.5 253,-179.5"/>
<text text-anchor="start" x="261" y="-197.5" font-family="Helvetica,sans-Serif" font-size="10.00">arg_router/dependency</text>
<text text-anchor="middle" x="317.5" y="-186.5" font-family="Helvetica,sans-Serif" font-size="10.00">/detail.hpp</text>
</a>
</g>
</g>
<!-- Node2&#45;&gt;Node7 -->
<g id="edge7" class="edge">
<title>Node2&#45;&gt;Node7</title>
<path fill="none" stroke="midnightblue" d="M459.49,-243.23C430.67,-233.54 389.73,-219.78 359.22,-209.52"/>
<polygon fill="midnightblue" stroke="midnightblue" points="458.55,-246.61 469.14,-246.48 460.78,-239.97 458.55,-246.61"/>
</g>
<!-- Node10 -->
<g id="node10" class="node">
<title>Node10</title>
<g id="a_node10"><a xlink:href="flag_8hpp_source.html" target="_top" xlink:title=" ">
<polygon fill="white" stroke="black" points="550,-118 550,-137 659,-137 659,-118 550,-118"/>
<text text-anchor="middle" x="604.5" y="-125" font-family="Helvetica,sans-Serif" font-size="10.00">arg_router/flag.hpp</text>
</a>
</g>
</g>
<!-- Node2&#45;&gt;Node10 -->
<g id="edge12" class="edge">
<title>Node2&#45;&gt;Node10</title>
<path fill="none" stroke="midnightblue" d="M463.48,-241.67C450.51,-234.35 436.78,-223.89 429.5,-210 423.11,-197.8 421.22,-190.01 429.5,-179 437.84,-167.91 516.99,-148.29 565.94,-137.05"/>
<polygon fill="midnightblue" stroke="midnightblue" points="462.2,-244.95 472.69,-246.45 465.43,-238.73 462.2,-244.95"/>
</g>
<!-- Node11 -->
<g id="node11" class="node">
<title>Node11</title>
<g id="a_node11"><a xlink:href="help_8hpp_source.html" target="_top" xlink:title=" ">
<polygon fill="white" stroke="black" points="438.5,-185 438.5,-204 550.5,-204 550.5,-185 438.5,-185"/>
<text text-anchor="middle" x="494.5" y="-192" font-family="Helvetica,sans-Serif" font-size="10.00">arg_router/help.hpp</text>
</a>
</g>
</g>
<!-- Node2&#45;&gt;Node11 -->
<g id="edge14" class="edge">
<title>Node2&#45;&gt;Node11</title>
<path fill="none" stroke="midnightblue" d="M494.5,-236.32C494.5,-225.5 494.5,-212.4 494.5,-204.01"/>
<polygon fill="midnightblue" stroke="midnightblue" points="491,-236.48 494.5,-246.48 498,-236.48 491,-236.48"/>
</g>
<!-- Node12 -->
<g id="node12" class="node">
<title>Node12</title>
<g id="a_node12"><a xlink:href="mode_8hpp_source.html" target="_top" xlink:title=" ">
<polygon fill="white" stroke="black" points="569,-185 569,-204 688,-204 688,-185 569,-185"/>
<text text-anchor="middle" x="628.5" y="-192" font-family="Helvetica,sans-Serif" font-size="10.00">arg_router/mode.hpp</text>
</a>
</g>
</g>
<!-- Node2&#45;&gt;Node12 -->
<g id="edge16" class="edge">
<title>Node2&#45;&gt;Node12</title>
<path fill="none" stroke="midnightblue" d="M523.04,-242.33C549.05,-230.78 586.76,-214.03 609.34,-204.01"/>
<polygon fill="midnightblue" stroke="midnightblue" points="521.42,-239.22 513.7,-246.48 524.26,-245.62 521.42,-239.22"/>
</g>
<!-- Node13 -->
<g id="node13" class="node">
<title>Node13</title>
<g id="a_node13"><a xlink:href="positional__arg_8hpp_source.html" target="_top" xlink:title=" ">
<polygon fill="white" stroke="black" points="706.5,-179.5 706.5,-209.5 824.5,-209.5 824.5,-179.5 706.5,-179.5"/>
<text text-anchor="start" x="714.5" y="-197.5" font-family="Helvetica,sans-Serif" font-size="10.00">arg_router/positional</text>
<text text-anchor="middle" x="765.5" y="-186.5" font-family="Helvetica,sans-Serif" font-size="10.00">_arg.hpp</text>
</a>
</g>
</g>
<!-- Node2&#45;&gt;Node13 -->
<g id="edge18" class="edge">
<title>Node2&#45;&gt;Node13</title>
<path fill="none" stroke="midnightblue" d="M543.29,-244.29C589.01,-234.25 657.45,-219.22 706.28,-208.5"/>
<polygon fill="midnightblue" stroke="midnightblue" points="542.34,-240.91 533.33,-246.48 543.85,-247.75 542.34,-240.91"/>
</g>
<!-- Node14 -->
<g id="node14" class="node">
<title>Node14</title>
<g id="a_node14"><a xlink:href="root_8hpp_source.html" target="_top" xlink:title=" ">
<polygon fill="white" stroke="black" points="842.5,-185 842.5,-204 952.5,-204 952.5,-185 842.5,-185"/>
<text text-anchor="middle" x="897.5" y="-192" font-family="Helvetica,sans-Serif" font-size="10.00">arg_router/root.hpp</text>
</a>
</g>
</g>
<!-- Node2&#45;&gt;Node14 -->
<g id="edge20" class="edge">
<title>Node2&#45;&gt;Node14</title>
<path fill="none" stroke="midnightblue" d="M574.93,-246.41C643.81,-238.55 745.54,-225.77 833.5,-210 842.92,-208.31 853.05,-206.17 862.41,-204.05"/>
<polygon fill="midnightblue" stroke="midnightblue" points="574.12,-242.98 564.58,-247.58 574.91,-249.93 574.12,-242.98"/>
</g>
<!-- Node15 -->
<g id="node15" class="node">
<title>Node15</title>
<g id="a_node15"><a xlink:href="tree__recursor_8hpp_source.html" target="_top" xlink:title=" ">
<polygon fill="white" stroke="black" points="970.5,-179.5 970.5,-209.5 1074.5,-209.5 1074.5,-179.5 970.5,-179.5"/>
<text text-anchor="start" x="978.5" y="-197.5" font-family="Helvetica,sans-Serif" font-size="10.00">arg_router/utility</text>
<text text-anchor="middle" x="1022.5" y="-186.5" font-family="Helvetica,sans-Serif" font-size="10.00">/tree_recursor.hpp</text>
</a>
</g>
</g>
<!-- Node2&#45;&gt;Node15 -->
<g id="edge22" class="edge">
<title>Node2&#45;&gt;Node15</title>
<path fill="none" stroke="midnightblue" d="M574.74,-250.63C668.12,-244.76 826.74,-232.4 961.5,-210 964.4,-209.52 967.37,-208.98 970.35,-208.39"/>
<polygon fill="midnightblue" stroke="midnightblue" points="574.28,-247.15 564.51,-251.26 574.71,-254.14 574.28,-247.15"/>
</g>
<!-- Node4 -->
<g id="node4" class="node">
<title>Node4</title>
<g id="a_node4"><a xlink:href="validator_8hpp_source.html" target="_top" xlink:title=" ">
<polygon fill="white" stroke="black" points="623.5,-56.5 623.5,-75.5 789.5,-75.5 789.5,-56.5 623.5,-56.5"/>
<text text-anchor="middle" x="706.5" y="-63.5" font-family="Helvetica,sans-Serif" font-size="10.00">arg_router/policy/validator.hpp</text>
</a>
</g>
</g>
<!-- Node3&#45;&gt;Node4 -->
<g id="edge3" class="edge">
<title>Node3&#45;&gt;Node4</title>
<path fill="none" stroke="midnightblue" d="M96.58,-115.68C103.22,-114.28 110.02,-112.99 116.5,-112 296,-84.66 508.89,-73.62 623.49,-69.41"/>
<polygon fill="midnightblue" stroke="midnightblue" points="95.35,-112.37 86.34,-117.96 96.87,-119.21 95.35,-112.37"/>
</g>
<!-- Node5 -->
<g id="node5" class="node">
<title>Node5</title>
<g id="a_node5"><a xlink:href="arg__router_8hpp_source.html" target="_top" xlink:title=" ">
<polygon fill="white" stroke="black" points="636.5,-0.5 636.5,-19.5 776.5,-19.5 776.5,-0.5 636.5,-0.5"/>
<text text-anchor="middle" x="706.5" y="-7.5" font-family="Helvetica,sans-Serif" font-size="10.00">arg_router/arg_router.hpp</text>
</a>
</g>
</g>
<!-- Node4&#45;&gt;Node5 -->
<g id="edge4" class="edge">
<title>Node4&#45;&gt;Node5</title>
<path fill="none" stroke="midnightblue" d="M706.5,-45.8C706.5,-36.91 706.5,-26.78 706.5,-19.75"/>
<polygon fill="midnightblue" stroke="midnightblue" points="703,-46.08 706.5,-56.08 710,-46.08 703,-46.08"/>
</g>
<!-- Node6&#45;&gt;Node4 -->
<g id="edge6" class="edge">
<title>Node6&#45;&gt;Node4</title>
<path fill="none" stroke="midnightblue" d="M248.04,-111.88C384.9,-90.46 533.26,-78.26 623.43,-72.07"/>
<polygon fill="midnightblue" stroke="midnightblue" points="247.12,-108.48 237.79,-113.5 248.21,-115.39 247.12,-108.48"/>
</g>
<!-- Node8 -->
<g id="node8" class="node">
<title>Node8</title>
<g id="a_node8"><a xlink:href="alias__group_8hpp_source.html" target="_top" xlink:title=" ">
<polygon fill="white" stroke="black" points="256,-112.5 256,-142.5 385,-142.5 385,-112.5 256,-112.5"/>
<text text-anchor="start" x="264" y="-130.5" font-family="Helvetica,sans-Serif" font-size="10.00">arg_router/dependency</text>
<text text-anchor="middle" x="320.5" y="-119.5" font-family="Helvetica,sans-Serif" font-size="10.00">/alias_group.hpp</text>
</a>
</g>
</g>
<!-- Node7&#45;&gt;Node8 -->
<g id="edge8" class="edge">
<title>Node7&#45;&gt;Node8</title>
<path fill="none" stroke="midnightblue" d="M318.61,-169.4C319.03,-160.37 319.49,-150.41 319.85,-142.58"/>
<polygon fill="midnightblue" stroke="midnightblue" points="315.12,-169.25 318.15,-179.4 322.11,-169.57 315.12,-169.25"/>
</g>
<!-- Node9 -->
<g id="node9" class="node">
<title>Node9</title>
<g id="a_node9"><a xlink:href="one__of_8hpp_source.html" target="_top" xlink:title=" ">
<polygon fill="white" stroke="black" points="403,-112.5 403,-142.5 532,-142.5 532,-112.5 403,-112.5"/>
<text text-anchor="start" x="411" y="-130.5" font-family="Helvetica,sans-Serif" font-size="10.00">arg_router/dependency</text>
<text text-anchor="middle" x="467.5" y="-119.5" font-family="Helvetica,sans-Serif" font-size="10.00">/one_of.hpp</text>
</a>
</g>
</g>
<!-- Node7&#45;&gt;Node9 -->
<g id="edge10" class="edge">
<title>Node7&#45;&gt;Node9</title>
<path fill="none" stroke="midnightblue" d="M359.25,-175.41C383.2,-165.03 412.82,-152.2 435.02,-142.58"/>
<polygon fill="midnightblue" stroke="midnightblue" points="357.83,-172.21 350.05,-179.4 360.61,-178.63 357.83,-172.21"/>
</g>
<!-- Node8&#45;&gt;Node4 -->
<g id="edge9" class="edge">
<title>Node8&#45;&gt;Node4</title>
<path fill="none" stroke="midnightblue" d="M395.44,-111.71C485.38,-96.51 578.91,-83.57 640.09,-75.5"/>
<polygon fill="midnightblue" stroke="midnightblue" points="394.62,-108.3 385.35,-113.43 395.79,-115.21 394.62,-108.3"/>
</g>
<!-- Node9&#45;&gt;Node4 -->
<g id="edge11" class="edge">
<title>Node9&#45;&gt;Node4</title>
<path fill="none" stroke="midnightblue" d="M533.81,-109.99C578.76,-98.8 636.34,-84.47 672.33,-75.51"/>
<polygon fill="midnightblue" stroke="midnightblue" points="532.7,-106.66 523.84,-112.47 534.39,-113.46 532.7,-106.66"/>
</g>
<!-- Node10&#45;&gt;Node4 -->
<g id="edge13" class="edge">
<title>Node10&#45;&gt;Node4</title>
<path fill="none" stroke="midnightblue" d="M627.81,-112.9C647.54,-101.4 675.19,-85.27 691.91,-75.51"/>
<polygon fill="midnightblue" stroke="midnightblue" points="625.99,-109.91 619.11,-117.98 629.52,-115.96 625.99,-109.91"/>
</g>
<!-- Node11&#45;&gt;Node4 -->
<g id="edge15" class="edge">
<title>Node11&#45;&gt;Node4</title>
<path fill="none" stroke="midnightblue" d="M538.94,-182.47C586.78,-170.3 657.42,-151.32 667.5,-143 689.34,-124.96 700.3,-91.53 704.46,-75.72"/>
<polygon fill="midnightblue" stroke="midnightblue" points="537.94,-179.12 529.11,-184.96 539.66,-185.9 537.94,-179.12"/>
</g>
<!-- Node12&#45;&gt;Node4 -->
<g id="edge17" class="edge">
<title>Node12&#45;&gt;Node4</title>
<path fill="none" stroke="midnightblue" d="M659.42,-180.2C674.83,-171.87 692.12,-159.54 701.5,-143 713.76,-121.37 710.71,-90.52 708.22,-75.66"/>
<polygon fill="midnightblue" stroke="midnightblue" points="657.51,-177.25 650.16,-184.88 660.67,-183.5 657.51,-177.25"/>
</g>
<!-- Node13&#45;&gt;Node4 -->
<g id="edge19" class="edge">
<title>Node13&#45;&gt;Node4</title>
<path fill="none" stroke="midnightblue" d="M760.01,-169.39C755.69,-152.73 748.84,-130.35 739.5,-112 732.56,-98.36 721.61,-84.41 714.25,-75.74"/>
<polygon fill="midnightblue" stroke="midnightblue" points="756.68,-170.54 762.48,-179.41 763.48,-168.86 756.68,-170.54"/>
</g>
<!-- Node14&#45;&gt;Node4 -->
<g id="edge21" class="edge">
<title>Node14&#45;&gt;Node4</title>
<path fill="none" stroke="midnightblue" d="M875.89,-179.19C835.96,-152.74 751.75,-96.97 719.47,-75.59"/>
<polygon fill="midnightblue" stroke="midnightblue" points="874.1,-182.2 884.37,-184.81 877.97,-176.37 874.1,-182.2"/>
</g>
<!-- Node15&#45;&gt;Node4 -->
<g id="edge27" class="edge">
<title>Node15&#45;&gt;Node4</title>
<path fill="none" stroke="midnightblue" d="M961.34,-176.76C922.78,-165.8 876.92,-151.92 858.5,-143 836.64,-132.42 834.81,-123.66 813.5,-112 786.27,-97.1 753.08,-83.84 730.96,-75.64"/>
<polygon fill="midnightblue" stroke="midnightblue" points="960.39,-180.13 970.97,-179.48 962.3,-173.39 960.39,-180.13"/>
</g>
<!-- Node16 -->
<g id="node16" class="node">
<title>Node16</title>
<g id="a_node16"><a xlink:href="alias_8hpp_source.html" target="_top" xlink:title=" ">
<polygon fill="white" stroke="black" points="867.5,-118 867.5,-137 1013.5,-137 1013.5,-118 867.5,-118"/>
<text text-anchor="middle" x="940.5" y="-125" font-family="Helvetica,sans-Serif" font-size="10.00">arg_router/policy/alias.hpp</text>
</a>
</g>
</g>
<!-- Node15&#45;&gt;Node16 -->
<g id="edge23" class="edge">
<title>Node15&#45;&gt;Node16</title>
<path fill="none" stroke="midnightblue" d="M996.65,-173.01C981.43,-160.94 962.96,-146.3 951.47,-137.19"/>
<polygon fill="midnightblue" stroke="midnightblue" points="994.7,-175.93 1004.71,-179.4 999.04,-170.44 994.7,-175.93"/>
</g>
<!-- Node17 -->
<g id="node17" class="node">
<title>Node17</title>
<g id="a_node17"><a xlink:href="dependent_8hpp_source.html" target="_top" xlink:title=" ">
<polygon fill="white" stroke="black" points="1032,-118 1032,-137 1207,-137 1207,-118 1032,-118"/>
<text text-anchor="middle" x="1119.5" y="-125" font-family="Helvetica,sans-Serif" font-size="10.00">arg_router/policy/dependent.hpp</text>
</a>
</g>
</g>
<!-- Node15&#45;&gt;Node17 -->
<g id="edge25" class="edge">
<title>Node15&#45;&gt;Node17</title>
<path fill="none" stroke="midnightblue" d="M1052.14,-173.64C1070.44,-161.37 1092.99,-146.26 1106.8,-137.01"/>
<polygon fill="midnightblue" stroke="midnightblue" points="1049.91,-170.92 1043.55,-179.4 1053.8,-176.74 1049.91,-170.92"/>
</g>
<!-- Node16&#45;&gt;Node4 -->
<g id="edge24" class="edge">
<title>Node16&#45;&gt;Node4</title>
<path fill="none" stroke="midnightblue" d="M897.12,-115.47C851.68,-103.91 781.29,-86.02 739.96,-75.51"/>
<polygon fill="midnightblue" stroke="midnightblue" points="896.42,-118.9 906.97,-117.98 898.14,-112.12 896.42,-118.9"/>
</g>
<!-- Node17&#45;&gt;Node4 -->
<g id="edge26" class="edge">
<title>Node17&#45;&gt;Node4</title>
<path fill="none" stroke="midnightblue" d="M1052.98,-116.49C1042.77,-114.98 1032.36,-113.44 1022.5,-112 933.67,-99.04 830.72,-84.46 767.1,-75.5"/>
<polygon fill="midnightblue" stroke="midnightblue" points="1052.68,-119.99 1063.09,-118 1053.71,-113.06 1052.68,-119.99"/>
</g>
</g>
</svg>
