<?xml version="1.0" encoding="UTF-8" standalone="no"?>
<!DOCTYPE svg PUBLIC "-//W3C//DTD SVG 1.1//EN"
 "http://www.w3.org/Graphics/SVG/1.1/DTD/svg11.dtd">
<!-- Generated by graphviz version 2.43.0 (0)
 -->
<!-- Title: arg_router/utility/compile_time_string.hpp Pages: 1 -->
<svg width="1725pt" height="687pt"
 viewBox="0.00 0.00 1724.50 687.00" xmlns="http://www.w3.org/2000/svg" xmlns:xlink="http://www.w3.org/1999/xlink">
<g id="graph0" class="graph" transform="scale(1 1) rotate(0) translate(4 683)">
<title>arg_router/utility/compile_time_string.hpp</title>
<!-- Node1 -->
<g id="node1" class="node">
<title>Node1</title>
<g id="a_node1"><a xlink:title=" ">
<polygon fill="#bfbfbf" stroke="black" points="1152.5,-648.5 1152.5,-678.5 1292.5,-678.5 1292.5,-648.5 1152.5,-648.5"/>
<text text-anchor="start" x="1160.5" y="-666.5" font-family="Helvetica,sans-Serif" font-size="10.00">arg_router/utility</text>
<text text-anchor="middle" x="1222.5" y="-655.5" font-family="Helvetica,sans-Serif" font-size="10.00">/compile_time_string.hpp</text>
</a>
</g>
</g>
<!-- Node2 -->
<g id="node2" class="node">
<title>Node2</title>
<g id="a_node2"><a xlink:href="exception_8hpp_source.html" target="_top" xlink:title=" ">
<polygon fill="none" stroke="black" points="614,-592.5 614,-611.5 753,-611.5 753,-592.5 614,-592.5"/>
<text text-anchor="middle" x="683.5" y="-599.5" font-family="Helvetica,sans-Serif" font-size="10.00">arg_router/exception.hpp</text>
</a>
</g>
</g>
<!-- Node1&#45;&gt;Node2 -->
<g id="edge1" class="edge">
<title>Node1&#45;&gt;Node2</title>
<path fill="none" stroke="midnightblue" d="M1142.35,-653.65C1036.88,-642.01 853.2,-621.73 753.21,-610.7"/>
<polygon fill="midnightblue" stroke="midnightblue" points="1141.99,-657.13 1152.31,-654.75 1142.76,-650.18 1141.99,-657.13"/>
</g>
<!-- Node4 -->
<g id="node4" class="node">
<title>Node4</title>
<g id="a_node4"><a xlink:href="tree__node_8hpp_source.html" target="_top" xlink:title=" ">
<polygon fill="none" stroke="black" points="673.5,-330 673.5,-349 813.5,-349 813.5,-330 673.5,-330"/>
<text text-anchor="middle" x="743.5" y="-337" font-family="Helvetica,sans-Serif" font-size="10.00">arg_router/tree_node.hpp</text>
</a>
</g>
</g>
<!-- Node1&#45;&gt;Node4 -->
<g id="edge76" class="edge">
<title>Node1&#45;&gt;Node4</title>
<path fill="none" stroke="midnightblue" d="M1142.49,-659.93C919.35,-651.94 302.64,-623.86 244.5,-556 178.27,-478.7 578.1,-378.63 705.46,-349.07"/>
<polygon fill="midnightblue" stroke="midnightblue" points="1142.38,-663.43 1152.5,-660.29 1142.63,-656.44 1142.38,-663.43"/>
</g>
<!-- Node29 -->
<g id="node29" class="node">
<title>Node29</title>
<g id="a_node29"><a xlink:href="value__separator_8hpp_source.html" target="_top" xlink:title=" ">
<polygon fill="none" stroke="black" points="1270,-391.5 1270,-421.5 1399,-421.5 1399,-391.5 1270,-391.5"/>
<text text-anchor="start" x="1278" y="-409.5" font-family="Helvetica,sans-Serif" font-size="10.00">arg_router/policy/value</text>
<text text-anchor="middle" x="1334.5" y="-398.5" font-family="Helvetica,sans-Serif" font-size="10.00">_separator.hpp</text>
</a>
</g>
</g>
<!-- Node1&#45;&gt;Node29 -->
<g id="edge75" class="edge">
<title>Node1&#45;&gt;Node29</title>
<path fill="none" stroke="midnightblue" d="M1238.6,-640.09C1244.35,-631.54 1250.61,-621.55 1255.5,-612 1290.66,-543.42 1319.63,-455.38 1330.2,-421.57"/>
<polygon fill="midnightblue" stroke="midnightblue" points="1235.66,-638.18 1232.87,-648.4 1241.42,-642.15 1235.66,-638.18"/>
</g>
<!-- Node30 -->
<g id="node30" class="node">
<title>Node30</title>
<g id="a_node30"><a xlink:href="literals_8hpp_source.html" target="_top" xlink:title=" ">
<polygon fill="none" stroke="black" points="1441,-464 1441,-483 1566,-483 1566,-464 1441,-464"/>
<text text-anchor="middle" x="1503.5" y="-471" font-family="Helvetica,sans-Serif" font-size="10.00">arg_router/literals.hpp</text>
</a>
</g>
</g>
<!-- Node1&#45;&gt;Node30 -->
<g id="edge61" class="edge">
<title>Node1&#45;&gt;Node30</title>
<path fill="none" stroke="midnightblue" d="M1262.83,-643.92C1281.14,-634.98 1302.84,-623.68 1321.5,-612 1390.65,-568.71 1466.36,-506.06 1493.3,-483.23"/>
<polygon fill="midnightblue" stroke="midnightblue" points="1261.08,-640.88 1253.59,-648.37 1264.12,-647.19 1261.08,-640.88"/>
</g>
<!-- Node31 -->
<g id="node31" class="node">
<title>Node31</title>
<g id="a_node31"><a xlink:href="string__selector_8hpp.html" target="_top" xlink:title=" ">
<polygon fill="none" stroke="black" points="1594.5,-123.5 1594.5,-153.5 1716.5,-153.5 1716.5,-123.5 1594.5,-123.5"/>
<text text-anchor="start" x="1602.5" y="-141.5" font-family="Helvetica,sans-Serif" font-size="10.00">arg_router/multi_lang</text>
<text text-anchor="middle" x="1655.5" y="-130.5" font-family="Helvetica,sans-Serif" font-size="10.00">/string_selector.hpp</text>
</a>
</g>
</g>
<!-- Node1&#45;&gt;Node31 -->
<g id="edge63" class="edge">
<title>Node1&#45;&gt;Node31</title>
<path fill="none" stroke="midnightblue" d="M1303.07,-655.03C1421.71,-641.77 1629.5,-608.92 1629.5,-541.5 1629.5,-541.5 1629.5,-541.5 1629.5,-271.5 1629.5,-227.82 1643.37,-177.52 1650.85,-153.58"/>
<polygon fill="midnightblue" stroke="midnightblue" points="1302.49,-651.57 1292.93,-656.14 1303.25,-658.53 1302.49,-651.57"/>
</g>
<!-- Node32 -->
<g id="node32" class="node">
<title>Node32</title>
<g id="a_node32"><a xlink:href="default__help__formatter_8hpp_source.html" target="_top" xlink:title=" ">
<polygon fill="none" stroke="black" points="1363,-324.5 1363,-354.5 1500,-354.5 1500,-324.5 1363,-324.5"/>
<text text-anchor="start" x="1371" y="-342.5" font-family="Helvetica,sans-Serif" font-size="10.00">arg_router/policy/default</text>
<text text-anchor="middle" x="1431.5" y="-331.5" font-family="Helvetica,sans-Serif" font-size="10.00">_help_formatter.hpp</text>
</a>
</g>
</g>
<!-- Node1&#45;&gt;Node32 -->
<g id="edge65" class="edge">
<title>Node1&#45;&gt;Node32</title>
<path fill="none" stroke="midnightblue" d="M1228.48,-638.7C1234.05,-614.42 1241.5,-575.58 1241.5,-541.5 1241.5,-541.5 1241.5,-541.5 1241.5,-472.5 1241.5,-435.2 1235.77,-418 1261.5,-391 1275.78,-376.01 1321.99,-362.83 1362.62,-353.7"/>
<polygon fill="midnightblue" stroke="midnightblue" points="1225.07,-637.92 1226.16,-648.45 1231.88,-639.54 1225.07,-637.92"/>
</g>
<!-- Node34 -->
<g id="node34" class="node">
<title>Node34</title>
<g id="a_node34"><a xlink:href="short__name_8hpp_source.html" target="_top" xlink:title=" ">
<polygon fill="none" stroke="black" points="1140,-324.5 1140,-354.5 1267,-354.5 1267,-324.5 1140,-324.5"/>
<text text-anchor="start" x="1148" y="-342.5" font-family="Helvetica,sans-Serif" font-size="10.00">arg_router/policy/short</text>
<text text-anchor="middle" x="1203.5" y="-331.5" font-family="Helvetica,sans-Serif" font-size="10.00">_name.hpp</text>
</a>
</g>
</g>
<!-- Node1&#45;&gt;Node34 -->
<g id="edge69" class="edge">
<title>Node1&#45;&gt;Node34</title>
<path fill="none" stroke="midnightblue" d="M1216.52,-638.7C1210.95,-614.42 1203.5,-575.58 1203.5,-541.5 1203.5,-541.5 1203.5,-541.5 1203.5,-472.5 1203.5,-429.65 1203.5,-378.97 1203.5,-354.76"/>
<polygon fill="midnightblue" stroke="midnightblue" points="1213.12,-639.54 1218.84,-648.45 1219.93,-637.92 1213.12,-639.54"/>
</g>
<!-- Node35 -->
<g id="node35" class="node">
<title>Node35</title>
<g id="a_node35"><a xlink:href="string__to__policy_8hpp_source.html" target="_top" xlink:title=" ">
<polygon fill="none" stroke="black" points="967.5,-324.5 967.5,-354.5 1083.5,-354.5 1083.5,-324.5 967.5,-324.5"/>
<text text-anchor="start" x="975.5" y="-342.5" font-family="Helvetica,sans-Serif" font-size="10.00">arg_router/utility</text>
<text text-anchor="middle" x="1025.5" y="-331.5" font-family="Helvetica,sans-Serif" font-size="10.00">/string_to_policy.hpp</text>
</a>
</g>
</g>
<!-- Node1&#45;&gt;Node35 -->
<g id="edge77" class="edge">
<title>Node1&#45;&gt;Node35</title>
<path fill="none" stroke="midnightblue" d="M1193.6,-642.19C1166.62,-620.62 1130.5,-583.83 1130.5,-541.5 1130.5,-541.5 1130.5,-541.5 1130.5,-472.5 1130.5,-419.79 1078.59,-375.95 1047.77,-354.56"/>
<polygon fill="midnightblue" stroke="midnightblue" points="1191.57,-645.05 1201.62,-648.39 1195.85,-639.51 1191.57,-645.05"/>
</g>
<!-- Node3 -->
<g id="node3" class="node">
<title>Node3</title>
<g id="a_node3"><a xlink:href="global__parser_8hpp_source.html" target="_top" xlink:title=" ">
<polygon fill="none" stroke="black" points="568.5,-458.5 568.5,-488.5 674.5,-488.5 674.5,-458.5 568.5,-458.5"/>
<text text-anchor="start" x="576.5" y="-476.5" font-family="Helvetica,sans-Serif" font-size="10.00">arg_router/parsing</text>
<text text-anchor="middle" x="621.5" y="-465.5" font-family="Helvetica,sans-Serif" font-size="10.00">/global_parser.hpp</text>
</a>
</g>
</g>
<!-- Node2&#45;&gt;Node3 -->
<g id="edge2" class="edge">
<title>Node2&#45;&gt;Node3</title>
<path fill="none" stroke="midnightblue" d="M674.74,-583.13C662.35,-557.84 639.94,-512.12 628.55,-488.89"/>
<polygon fill="midnightblue" stroke="midnightblue" points="671.69,-584.87 679.24,-592.31 677.98,-581.79 671.69,-584.87"/>
</g>
<!-- Node21 -->
<g id="node21" class="node">
<title>Node21</title>
<g id="a_node21"><a xlink:href="exception__translator_8hpp_source.html" target="_top" xlink:title=" ">
<polygon fill="none" stroke="black" points="440.5,-525.5 440.5,-555.5 590.5,-555.5 590.5,-525.5 440.5,-525.5"/>
<text text-anchor="start" x="448.5" y="-543.5" font-family="Helvetica,sans-Serif" font-size="10.00">arg_router/policy/exception</text>
<text text-anchor="middle" x="515.5" y="-532.5" font-family="Helvetica,sans-Serif" font-size="10.00">_translator.hpp</text>
</a>
</g>
</g>
<!-- Node2&#45;&gt;Node21 -->
<g id="edge33" class="edge">
<title>Node2&#45;&gt;Node21</title>
<path fill="none" stroke="midnightblue" d="M649.91,-589.1C622.57,-579.42 583.93,-565.74 555.09,-555.52"/>
<polygon fill="midnightblue" stroke="midnightblue" points="648.83,-592.44 659.43,-592.48 651.17,-585.84 648.83,-592.44"/>
</g>
<!-- Node22 -->
<g id="node22" class="node">
<title>Node22</title>
<g id="a_node22"><a xlink:href="min__max__count_8hpp_source.html" target="_top" xlink:title=" ">
<polygon fill="none" stroke="black" points="772,-391.5 772,-421.5 893,-421.5 893,-391.5 772,-391.5"/>
<text text-anchor="start" x="780" y="-409.5" font-family="Helvetica,sans-Serif" font-size="10.00">arg_router/policy/min</text>
<text text-anchor="middle" x="832.5" y="-398.5" font-family="Helvetica,sans-Serif" font-size="10.00">_max_count.hpp</text>
</a>
</g>
</g>
<!-- Node2&#45;&gt;Node22 -->
<g id="edge35" class="edge">
<title>Node2&#45;&gt;Node22</title>
<path fill="none" stroke="midnightblue" d="M736.81,-589.32C756.43,-582.57 777.31,-572.1 791.5,-556 826.17,-516.68 831.79,-450.52 832.51,-421.67"/>
<polygon fill="midnightblue" stroke="midnightblue" points="735.48,-586.07 727.01,-592.43 737.6,-592.74 735.48,-586.07"/>
</g>
<!-- Node23 -->
<g id="node23" class="node">
<title>Node23</title>
<g id="a_node23"><a xlink:href="min__max__value_8hpp_source.html" target="_top" xlink:title=" ">
<polygon fill="none" stroke="black" points="0,-391.5 0,-421.5 121,-421.5 121,-391.5 0,-391.5"/>
<text text-anchor="start" x="8" y="-409.5" font-family="Helvetica,sans-Serif" font-size="10.00">arg_router/policy/min</text>
<text text-anchor="middle" x="60.5" y="-398.5" font-family="Helvetica,sans-Serif" font-size="10.00">_max_value.hpp</text>
</a>
</g>
</g>
<!-- Node2&#45;&gt;Node23 -->
<g id="edge42" class="edge">
<title>Node2&#45;&gt;Node23</title>
<path fill="none" stroke="midnightblue" d="M603.65,-598.24C495.18,-593.58 307.55,-581.96 244.5,-556 168.96,-524.9 99.68,-452.42 72.57,-421.68"/>
<polygon fill="midnightblue" stroke="midnightblue" points="603.75,-601.75 613.89,-598.67 604.04,-594.76 603.75,-601.75"/>
</g>
<!-- Node24 -->
<g id="node24" class="node">
<title>Node24</title>
<g id="a_node24"><a xlink:href="router_8hpp_source.html" target="_top" xlink:title=" ">
<polygon fill="none" stroke="black" points="253.5,-531 253.5,-550 405.5,-550 405.5,-531 253.5,-531"/>
<text text-anchor="middle" x="329.5" y="-538" font-family="Helvetica,sans-Serif" font-size="10.00">arg_router/policy/router.hpp</text>
</a>
</g>
</g>
<!-- Node2&#45;&gt;Node24 -->
<g id="edge44" class="edge">
<title>Node2&#45;&gt;Node24</title>
<path fill="none" stroke="midnightblue" d="M622.57,-590.76C554.07,-579.25 444.09,-560.76 380.13,-550.01"/>
<polygon fill="midnightblue" stroke="midnightblue" points="622.34,-594.27 632.78,-592.48 623.5,-587.37 622.34,-594.27"/>
</g>
<!-- Node25 -->
<g id="node25" class="node">
<title>Node25</title>
<g id="a_node25"><a xlink:href="required_8hpp_source.html" target="_top" xlink:title=" ">
<polygon fill="none" stroke="black" points="911.5,-397 911.5,-416 1075.5,-416 1075.5,-397 911.5,-397"/>
<text text-anchor="middle" x="993.5" y="-404" font-family="Helvetica,sans-Serif" font-size="10.00">arg_router/policy/required.hpp</text>
</a>
</g>
</g>
<!-- Node2&#45;&gt;Node25 -->
<g id="edge46" class="edge">
<title>Node2&#45;&gt;Node25</title>
<path fill="none" stroke="midnightblue" d="M729.41,-589.65C755.36,-582.17 787.85,-570.97 814.5,-556 888.43,-514.48 961.52,-441.15 985.4,-416.14"/>
<polygon fill="midnightblue" stroke="midnightblue" points="728.13,-586.37 719.45,-592.43 730.02,-593.11 728.13,-586.37"/>
</g>
<!-- Node26 -->
<g id="node26" class="node">
<title>Node26</title>
<g id="a_node26"><a xlink:href="result_8hpp_source.html" target="_top" xlink:title=" ">
<polygon fill="none" stroke="black" points="684.5,-525.5 684.5,-555.5 782.5,-555.5 782.5,-525.5 684.5,-525.5"/>
<text text-anchor="start" x="692.5" y="-543.5" font-family="Helvetica,sans-Serif" font-size="10.00">arg_router/utility</text>
<text text-anchor="middle" x="733.5" y="-532.5" font-family="Helvetica,sans-Serif" font-size="10.00">/result.hpp</text>
</a>
</g>
</g>
<!-- Node2&#45;&gt;Node26 -->
<g id="edge48" class="edge">
<title>Node2&#45;&gt;Node26</title>
<path fill="none" stroke="midnightblue" d="M697.1,-584.81C704.8,-575.65 714.34,-564.3 721.72,-555.52"/>
<polygon fill="midnightblue" stroke="midnightblue" points="694.42,-582.57 690.66,-592.48 699.78,-587.07 694.42,-582.57"/>
</g>
<!-- Node3&#45;&gt;Node4 -->
<g id="edge3" class="edge">
<title>Node3&#45;&gt;Node4</title>
<path fill="none" stroke="midnightblue" d="M641.35,-451.02C668.69,-421.44 716.68,-369.52 735.55,-349.1"/>
<polygon fill="midnightblue" stroke="midnightblue" points="638.77,-448.65 634.56,-458.37 643.91,-453.41 638.77,-448.65"/>
</g>
<!-- Node5 -->
<g id="node5" class="node">
<title>Node5</title>
<g id="a_node5"><a xlink:href="arg_8hpp_source.html" target="_top" xlink:title=" ">
<polygon fill="none" stroke="black" points="1149,-263 1149,-282 1256,-282 1256,-263 1149,-263"/>
<text text-anchor="middle" x="1202.5" y="-270" font-family="Helvetica,sans-Serif" font-size="10.00">arg_router/arg.hpp</text>
</a>
</g>
</g>
<!-- Node4&#45;&gt;Node5 -->
<g id="edge4" class="edge">
<title>Node4&#45;&gt;Node5</title>
<path fill="none" stroke="midnightblue" d="M823.6,-330.65C903.84,-322.23 1030.72,-307.4 1139.5,-288 1148.89,-286.32 1158.99,-284.16 1168.3,-282.02"/>
<polygon fill="midnightblue" stroke="midnightblue" points="823.15,-327.18 813.56,-331.69 823.87,-334.14 823.15,-327.18"/>
</g>
<!-- Node9 -->
<g id="node9" class="node">
<title>Node9</title>
<g id="a_node9"><a xlink:href="counting__flag_8hpp_source.html" target="_top" xlink:title=" ">
<polygon fill="none" stroke="black" points="696.5,-257.5 696.5,-287.5 808.5,-287.5 808.5,-257.5 696.5,-257.5"/>
<text text-anchor="start" x="704.5" y="-275.5" font-family="Helvetica,sans-Serif" font-size="10.00">arg_router/counting</text>
<text text-anchor="middle" x="752.5" y="-264.5" font-family="Helvetica,sans-Serif" font-size="10.00">_flag.hpp</text>
</a>
</g>
</g>
<!-- Node4&#45;&gt;Node9 -->
<g id="edge9" class="edge">
<title>Node4&#45;&gt;Node9</title>
<path fill="none" stroke="midnightblue" d="M746.1,-319.74C747.52,-309.49 749.25,-297 750.55,-287.59"/>
<polygon fill="midnightblue" stroke="midnightblue" points="742.62,-319.35 744.71,-329.73 749.55,-320.31 742.62,-319.35"/>
</g>
<!-- Node10 -->
<g id="node10" class="node">
<title>Node10</title>
<g id="a_node10"><a xlink:href="detail_8hpp_source.html" target="_top" xlink:title=" ">
<polygon fill="none" stroke="black" points="865,-257.5 865,-287.5 994,-287.5 994,-257.5 865,-257.5"/>
<text text-anchor="start" x="873" y="-275.5" font-family="Helvetica,sans-Serif" font-size="10.00">arg_router/dependency</text>
<text text-anchor="middle" x="929.5" y="-264.5" font-family="Helvetica,sans-Serif" font-size="10.00">/detail.hpp</text>
</a>
</g>
</g>
<!-- Node4&#45;&gt;Node10 -->
<g id="edge11" class="edge">
<title>Node4&#45;&gt;Node10</title>
<path fill="none" stroke="midnightblue" d="M777.87,-326.49C809.4,-315.47 856.12,-299.14 889.36,-287.53"/>
<polygon fill="midnightblue" stroke="midnightblue" points="776.48,-323.27 768.2,-329.87 778.79,-329.87 776.48,-323.27"/>
</g>
<!-- Node13 -->
<g id="node13" class="node">
<title>Node13</title>
<g id="a_node13"><a xlink:href="flag_8hpp_source.html" target="_top" xlink:title=" ">
<polygon fill="none" stroke="black" points="531,-263 531,-282 640,-282 640,-263 531,-263"/>
<text text-anchor="middle" x="585.5" y="-270" font-family="Helvetica,sans-Serif" font-size="10.00">arg_router/flag.hpp</text>
</a>
</g>
</g>
<!-- Node4&#45;&gt;Node13 -->
<g id="edge16" class="edge">
<title>Node4&#45;&gt;Node13</title>
<path fill="none" stroke="midnightblue" d="M712.99,-325.95C681.71,-313.08 633.88,-293.4 606.57,-282.17"/>
<polygon fill="midnightblue" stroke="midnightblue" points="711.94,-329.3 722.52,-329.87 714.6,-322.83 711.94,-329.3"/>
</g>
<!-- Node14 -->
<g id="node14" class="node">
<title>Node14</title>
<g id="a_node14"><a xlink:href="help_8hpp_source.html" target="_top" xlink:title=" ">
<polygon fill="none" stroke="black" points="1274.5,-263 1274.5,-282 1386.5,-282 1386.5,-263 1274.5,-263"/>
<text text-anchor="middle" x="1330.5" y="-270" font-family="Helvetica,sans-Serif" font-size="10.00">arg_router/help.hpp</text>
</a>
</g>
</g>
<!-- Node4&#45;&gt;Node14 -->
<g id="edge18" class="edge">
<title>Node4&#45;&gt;Node14</title>
<path fill="none" stroke="midnightblue" d="M823.5,-333.83C926.27,-327.13 1109.96,-312.78 1265.5,-288 1275.43,-286.42 1286.12,-284.24 1295.91,-282.05"/>
<polygon fill="midnightblue" stroke="midnightblue" points="823.26,-330.34 813.51,-334.47 823.71,-337.32 823.26,-330.34"/>
</g>
<!-- Node15 -->
<g id="node15" class="node">
<title>Node15</title>
<g id="a_node15"><a xlink:href="mode_8hpp_source.html" target="_top" xlink:title=" ">
<polygon fill="none" stroke="black" points="659,-196 659,-215 778,-215 778,-196 659,-196"/>
<text text-anchor="middle" x="718.5" y="-203" font-family="Helvetica,sans-Serif" font-size="10.00">arg_router/mode.hpp</text>
</a>
</g>
</g>
<!-- Node4&#45;&gt;Node15 -->
<g id="edge20" class="edge">
<title>Node4&#45;&gt;Node15</title>
<path fill="none" stroke="midnightblue" d="M719.89,-324.22C707.77,-315.45 694.18,-303.02 687.5,-288 675.93,-262 698.07,-230.23 710.65,-215.19"/>
<polygon fill="midnightblue" stroke="midnightblue" points="718.1,-327.23 728.34,-329.95 722.03,-321.44 718.1,-327.23"/>
</g>
<!-- Node16 -->
<g id="node16" class="node">
<title>Node16</title>
<g id="a_node16"><a xlink:href="positional__arg_8hpp_source.html" target="_top" xlink:title=" ">
<polygon fill="none" stroke="black" points="1012.5,-257.5 1012.5,-287.5 1130.5,-287.5 1130.5,-257.5 1012.5,-257.5"/>
<text text-anchor="start" x="1020.5" y="-275.5" font-family="Helvetica,sans-Serif" font-size="10.00">arg_router/positional</text>
<text text-anchor="middle" x="1071.5" y="-264.5" font-family="Helvetica,sans-Serif" font-size="10.00">_arg.hpp</text>
</a>
</g>
</g>
<!-- Node4&#45;&gt;Node16 -->
<g id="edge22" class="edge">
<title>Node4&#45;&gt;Node16</title>
<path fill="none" stroke="midnightblue" d="M798.78,-328.07C851.45,-318.05 932.96,-302.37 1003.5,-288 1006.34,-287.42 1009.24,-286.82 1012.18,-286.22"/>
<polygon fill="midnightblue" stroke="midnightblue" points="797.81,-324.69 788.64,-329.99 799.12,-331.56 797.81,-324.69"/>
</g>
<!-- Node17 -->
<g id="node17" class="node">
<title>Node17</title>
<g id="a_node17"><a xlink:href="root_8hpp_source.html" target="_top" xlink:title=" ">
<polygon fill="none" stroke="black" points="242.5,-263 242.5,-282 352.5,-282 352.5,-263 242.5,-263"/>
<text text-anchor="middle" x="297.5" y="-270" font-family="Helvetica,sans-Serif" font-size="10.00">arg_router/root.hpp</text>
</a>
</g>
</g>
<!-- Node4&#45;&gt;Node17 -->
<g id="edge24" class="edge">
<title>Node4&#45;&gt;Node17</title>
<path fill="none" stroke="midnightblue" d="M674.78,-328.49C586.2,-315.57 433.91,-293.38 352.54,-281.52"/>
<polygon fill="midnightblue" stroke="midnightblue" points="674.33,-331.96 684.73,-329.94 675.34,-325.03 674.33,-331.96"/>
</g>
<!-- Node18 -->
<g id="node18" class="node">
<title>Node18</title>
<g id="a_node18"><a xlink:href="tree__recursor_8hpp_source.html" target="_top" xlink:title=" ">
<polygon fill="none" stroke="black" points="408.5,-257.5 408.5,-287.5 512.5,-287.5 512.5,-257.5 408.5,-257.5"/>
<text text-anchor="start" x="416.5" y="-275.5" font-family="Helvetica,sans-Serif" font-size="10.00">arg_router/utility</text>
<text text-anchor="middle" x="460.5" y="-264.5" font-family="Helvetica,sans-Serif" font-size="10.00">/tree_recursor.hpp</text>
</a>
</g>
</g>
<!-- Node4&#45;&gt;Node18 -->
<g id="edge26" class="edge">
<title>Node4&#45;&gt;Node18</title>
<path fill="none" stroke="midnightblue" d="M695.94,-327.71C651.18,-317.53 582.27,-301.82 522.5,-288 519.27,-287.25 515.94,-286.48 512.59,-285.7"/>
<polygon fill="midnightblue" stroke="midnightblue" points="695.42,-331.18 705.95,-329.98 696.97,-324.35 695.42,-331.18"/>
</g>
<!-- Node6 -->
<g id="node6" class="node">
<title>Node6</title>
<g id="a_node6"><a xlink:href="validator_8hpp_source.html" target="_top" xlink:title=" ">
<polygon fill="none" stroke="black" points="816.5,-129 816.5,-148 982.5,-148 982.5,-129 816.5,-129"/>
<text text-anchor="middle" x="899.5" y="-136" font-family="Helvetica,sans-Serif" font-size="10.00">arg_router/policy/validator.hpp</text>
</a>
</g>
</g>
<!-- Node5&#45;&gt;Node6 -->
<g id="edge5" class="edge">
<title>Node5&#45;&gt;Node6</title>
<path fill="none" stroke="midnightblue" d="M1193.33,-254.24C1182.38,-235.4 1162.27,-205.8 1136.5,-190 1090.32,-161.69 1030.65,-149.08 982.73,-143.54"/>
<polygon fill="midnightblue" stroke="midnightblue" points="1190.28,-255.95 1198.2,-262.98 1196.39,-252.54 1190.28,-255.95"/>
</g>
<!-- Node7 -->
<g id="node7" class="node">
<title>Node7</title>
<g id="a_node7"><a xlink:href="arg__router_8hpp_source.html" target="_top" xlink:title=" ">
<polygon fill="none" stroke="black" points="1276.5,-0.5 1276.5,-19.5 1416.5,-19.5 1416.5,-0.5 1276.5,-0.5"/>
<text text-anchor="middle" x="1346.5" y="-7.5" font-family="Helvetica,sans-Serif" font-size="10.00">arg_router/arg_router.hpp</text>
</a>
</g>
</g>
<!-- Node6&#45;&gt;Node7 -->
<g id="edge6" class="edge">
<title>Node6&#45;&gt;Node7</title>
<path fill="none" stroke="midnightblue" d="M920.5,-123.22C948.9,-104.64 1001.73,-72.59 1051.5,-56 1125.96,-31.18 1215.61,-19.98 1276.39,-14.97"/>
<polygon fill="midnightblue" stroke="midnightblue" points="918.24,-120.52 911.84,-128.97 922.11,-126.35 918.24,-120.52"/>
</g>
<!-- Node8 -->
<g id="node8" class="node">
<title>Node8</title>
<g id="a_node8"><a xlink:href="validator__rule__utilities_8hpp_source.html" target="_top" xlink:title=" ">
<polygon fill="none" stroke="black" points="1060.5,-56.5 1060.5,-86.5 1206.5,-86.5 1206.5,-56.5 1060.5,-56.5"/>
<text text-anchor="start" x="1068.5" y="-74.5" font-family="Helvetica,sans-Serif" font-size="10.00">arg_router/policy/validator</text>
<text text-anchor="middle" x="1133.5" y="-63.5" font-family="Helvetica,sans-Serif" font-size="10.00">_rule_utilities.hpp</text>
</a>
</g>
</g>
<!-- Node6&#45;&gt;Node8 -->
<g id="edge7" class="edge">
<title>Node6&#45;&gt;Node8</title>
<path fill="none" stroke="midnightblue" d="M940.44,-126.13C980.11,-115.11 1040.37,-98.37 1083,-86.53"/>
<polygon fill="midnightblue" stroke="midnightblue" points="939.27,-122.82 930.57,-128.87 941.15,-129.56 939.27,-122.82"/>
</g>
<!-- Node8&#45;&gt;Node7 -->
<g id="edge8" class="edge">
<title>Node8&#45;&gt;Node7</title>
<path fill="none" stroke="midnightblue" d="M1193.35,-53.78C1233.31,-42.62 1284.18,-28.41 1316.05,-19.51"/>
<polygon fill="midnightblue" stroke="midnightblue" points="1192.4,-50.41 1183.71,-56.47 1194.28,-57.16 1192.4,-50.41"/>
</g>
<!-- Node9&#45;&gt;Node6 -->
<g id="edge10" class="edge">
<title>Node9&#45;&gt;Node6</title>
<path fill="none" stroke="midnightblue" d="M770.09,-249.51C784.37,-232.34 805.5,-208.4 826.5,-190 845.39,-173.45 869.82,-157.5 885.08,-148.1"/>
<polygon fill="midnightblue" stroke="midnightblue" points="767.31,-247.38 763.67,-257.33 772.72,-251.83 767.31,-247.38"/>
</g>
<!-- Node11 -->
<g id="node11" class="node">
<title>Node11</title>
<g id="a_node11"><a xlink:href="alias__group_8hpp_source.html" target="_top" xlink:title=" ">
<polygon fill="none" stroke="black" points="982,-190.5 982,-220.5 1111,-220.5 1111,-190.5 982,-190.5"/>
<text text-anchor="start" x="990" y="-208.5" font-family="Helvetica,sans-Serif" font-size="10.00">arg_router/dependency</text>
<text text-anchor="middle" x="1046.5" y="-197.5" font-family="Helvetica,sans-Serif" font-size="10.00">/alias_group.hpp</text>
</a>
</g>
</g>
<!-- Node10&#45;&gt;Node11 -->
<g id="edge12" class="edge">
<title>Node10&#45;&gt;Node11</title>
<path fill="none" stroke="midnightblue" d="M963.82,-252.44C982.17,-242.24 1004.38,-229.9 1021.16,-220.58"/>
<polygon fill="midnightblue" stroke="midnightblue" points="961.93,-249.48 954.89,-257.4 965.33,-255.6 961.93,-249.48"/>
</g>
<!-- Node12 -->
<g id="node12" class="node">
<title>Node12</title>
<g id="a_node12"><a xlink:href="one__of_8hpp_source.html" target="_top" xlink:title=" ">
<polygon fill="none" stroke="black" points="835,-190.5 835,-220.5 964,-220.5 964,-190.5 835,-190.5"/>
<text text-anchor="start" x="843" y="-208.5" font-family="Helvetica,sans-Serif" font-size="10.00">arg_router/dependency</text>
<text text-anchor="middle" x="899.5" y="-197.5" font-family="Helvetica,sans-Serif" font-size="10.00">/one_of.hpp</text>
</a>
</g>
</g>
<!-- Node10&#45;&gt;Node12 -->
<g id="edge14" class="edge">
<title>Node10&#45;&gt;Node12</title>
<path fill="none" stroke="midnightblue" d="M918.78,-248.28C914.51,-239.02 909.73,-228.66 906,-220.58"/>
<polygon fill="midnightblue" stroke="midnightblue" points="915.62,-249.78 922.99,-257.4 921.98,-246.85 915.62,-249.78"/>
</g>
<!-- Node11&#45;&gt;Node6 -->
<g id="edge13" class="edge">
<title>Node11&#45;&gt;Node6</title>
<path fill="none" stroke="midnightblue" d="M1005.33,-186.3C976.98,-173.76 940.62,-157.68 918.74,-148.01"/>
<polygon fill="midnightblue" stroke="midnightblue" points="1004.04,-189.55 1014.6,-190.4 1006.87,-183.15 1004.04,-189.55"/>
</g>
<!-- Node12&#45;&gt;Node6 -->
<g id="edge15" class="edge">
<title>Node12&#45;&gt;Node6</title>
<path fill="none" stroke="midnightblue" d="M899.5,-180.25C899.5,-169.02 899.5,-156.38 899.5,-148.19"/>
<polygon fill="midnightblue" stroke="midnightblue" points="896,-180.4 899.5,-190.4 903,-180.4 896,-180.4"/>
</g>
<!-- Node13&#45;&gt;Node6 -->
<g id="edge17" class="edge">
<title>Node13&#45;&gt;Node6</title>
<path fill="none" stroke="midnightblue" d="M594.59,-253.93C605.32,-235.04 624.98,-205.61 650.5,-190 700.36,-159.51 765.31,-147.05 816.38,-142.13"/>
<polygon fill="midnightblue" stroke="midnightblue" points="591.38,-252.5 589.68,-262.96 597.53,-255.84 591.38,-252.5"/>
</g>
<!-- Node14&#45;&gt;Node6 -->
<g id="edge19" class="edge">
<title>Node14&#45;&gt;Node6</title>
<path fill="none" stroke="midnightblue" d="M1307.9,-257.76C1277.05,-239.59 1219.49,-207.8 1166.5,-190 1103.22,-168.74 1028.32,-155.56 973.98,-148.01"/>
<polygon fill="midnightblue" stroke="midnightblue" points="1306.21,-260.82 1316.59,-262.93 1309.79,-254.81 1306.21,-260.82"/>
</g>
<!-- Node15&#45;&gt;Node6 -->
<g id="edge21" class="edge">
<title>Node15&#45;&gt;Node6</title>
<path fill="none" stroke="midnightblue" d="M752.09,-192.44C788,-179.54 844.02,-159.42 875.65,-148.06"/>
<polygon fill="midnightblue" stroke="midnightblue" points="750.76,-189.19 742.54,-195.87 753.13,-195.78 750.76,-189.19"/>
</g>
<!-- Node16&#45;&gt;Node6 -->
<g id="edge23" class="edge">
<title>Node16&#45;&gt;Node6</title>
<path fill="none" stroke="midnightblue" d="M1098.48,-250.38C1117.01,-233.32 1135.72,-209.09 1120.5,-190 1103.2,-168.3 1037.92,-155.19 982.75,-147.78"/>
<polygon fill="midnightblue" stroke="midnightblue" points="1095.89,-248 1090.66,-257.22 1100.49,-253.28 1095.89,-248"/>
</g>
<!-- Node17&#45;&gt;Node6 -->
<g id="edge25" class="edge">
<title>Node17&#45;&gt;Node6</title>
<path fill="none" stroke="midnightblue" d="M308.41,-254.47C321.84,-235.13 346.59,-204.4 376.5,-190 452.07,-153.63 688.9,-143.45 816.35,-140.61"/>
<polygon fill="midnightblue" stroke="midnightblue" points="305.4,-252.67 302.75,-262.93 311.22,-256.56 305.4,-252.67"/>
</g>
<!-- Node18&#45;&gt;Node6 -->
<g id="edge32" class="edge">
<title>Node18&#45;&gt;Node6</title>
<path fill="none" stroke="midnightblue" d="M507.37,-253.67C528.23,-244.96 552.72,-233.63 573.5,-221 592.42,-209.5 592.31,-199.09 612.5,-190 677.2,-160.88 757.15,-148.51 816.22,-143.28"/>
<polygon fill="midnightblue" stroke="midnightblue" points="505.99,-250.45 498.07,-257.49 508.65,-256.93 505.99,-250.45"/>
</g>
<!-- Node18&#45;&gt;Node15 -->
<g id="edge27" class="edge">
<title>Node18&#45;&gt;Node15</title>
<path fill="none" stroke="midnightblue" d="M522.6,-255.85C573.4,-243.06 643.35,-225.43 684.46,-215.08"/>
<polygon fill="midnightblue" stroke="midnightblue" points="521.55,-252.51 512.71,-258.35 523.26,-259.3 521.55,-252.51"/>
</g>
<!-- Node19 -->
<g id="node19" class="node">
<title>Node19</title>
<g id="a_node19"><a xlink:href="alias_8hpp_source.html" target="_top" xlink:title=" ">
<polygon fill="none" stroke="black" points="418.5,-196 418.5,-215 564.5,-215 564.5,-196 418.5,-196"/>
<text text-anchor="middle" x="491.5" y="-203" font-family="Helvetica,sans-Serif" font-size="10.00">arg_router/policy/alias.hpp</text>
</a>
</g>
</g>
<!-- Node18&#45;&gt;Node19 -->
<g id="edge28" class="edge">
<title>Node18&#45;&gt;Node19</title>
<path fill="none" stroke="midnightblue" d="M471.57,-248.29C477.05,-236.8 483.33,-223.63 487.35,-215.19"/>
<polygon fill="midnightblue" stroke="midnightblue" points="468.37,-246.86 467.23,-257.4 474.69,-249.88 468.37,-246.86"/>
</g>
<!-- Node20 -->
<g id="node20" class="node">
<title>Node20</title>
<g id="a_node20"><a xlink:href="dependent_8hpp_source.html" target="_top" xlink:title=" ">
<polygon fill="none" stroke="black" points="149,-196 149,-215 324,-215 324,-196 149,-196"/>
<text text-anchor="middle" x="236.5" y="-203" font-family="Helvetica,sans-Serif" font-size="10.00">arg_router/policy/dependent.hpp</text>
</a>
</g>
</g>
<!-- Node18&#45;&gt;Node20 -->
<g id="edge30" class="edge">
<title>Node18&#45;&gt;Node20</title>
<path fill="none" stroke="midnightblue" d="M402.5,-254.67C358.72,-241.97 300.47,-225.06 265.89,-215.03"/>
<polygon fill="midnightblue" stroke="midnightblue" points="401.59,-258.05 412.17,-257.48 403.54,-251.33 401.59,-258.05"/>
</g>
<!-- Node19&#45;&gt;Node6 -->
<g id="edge29" class="edge">
<title>Node19&#45;&gt;Node6</title>
<path fill="none" stroke="midnightblue" d="M552.02,-194.34C560.9,-192.87 569.93,-191.39 578.5,-190 671.78,-174.89 780.41,-157.93 844.38,-148.02"/>
<polygon fill="midnightblue" stroke="midnightblue" points="551.38,-190.9 542.09,-195.99 552.53,-197.8 551.38,-190.9"/>
</g>
<!-- Node20&#45;&gt;Node7 -->
<g id="edge31" class="edge">
<title>Node20&#45;&gt;Node7</title>
<path fill="none" stroke="midnightblue" d="M283.77,-193.72C400.82,-167.31 713.76,-98.45 977.5,-56 1081.04,-39.34 1201.81,-25.7 1276.22,-17.96"/>
<polygon fill="midnightblue" stroke="midnightblue" points="282.7,-190.37 273.71,-195.99 284.24,-197.2 282.7,-190.37"/>
</g>
<!-- Node21&#45;&gt;Node17 -->
<g id="edge34" class="edge">
<title>Node21&#45;&gt;Node17</title>
<path fill="none" stroke="midnightblue" d="M497.36,-517.37C451.87,-461.86 334.41,-318.53 304.51,-282.05"/>
<polygon fill="midnightblue" stroke="midnightblue" points="494.73,-519.68 503.78,-525.2 500.15,-515.25 494.73,-519.68"/>
</g>
<!-- Node22&#45;&gt;Node4 -->
<g id="edge41" class="edge">
<title>Node22&#45;&gt;Node4</title>
<path fill="none" stroke="midnightblue" d="M804.85,-385.31C788.14,-373.1 767.7,-358.18 755.15,-349.01"/>
<polygon fill="midnightblue" stroke="midnightblue" points="803.05,-388.32 813.19,-391.4 807.18,-382.67 803.05,-388.32"/>
</g>
<!-- Node22&#45;&gt;Node5 -->
<g id="edge36" class="edge">
<title>Node22&#45;&gt;Node5</title>
<path fill="none" stroke="midnightblue" d="M903.09,-390.98C988.86,-375.41 1017.18,-389.49 1092.5,-355 1112.63,-345.78 1113.81,-337.31 1131.5,-324 1151.69,-308.81 1175.75,-291.95 1190.04,-282.06"/>
<polygon fill="midnightblue" stroke="midnightblue" points="902.36,-387.56 893.19,-392.86 903.67,-394.43 902.36,-387.56"/>
</g>
<!-- Node22&#45;&gt;Node9 -->
<g id="edge37" class="edge">
<title>Node22&#45;&gt;Node9</title>
<path fill="none" stroke="midnightblue" d="M834.46,-381.15C834.7,-364.03 832.68,-341.21 822.5,-324 813.2,-308.26 796.86,-296.06 782.31,-287.59"/>
<polygon fill="midnightblue" stroke="midnightblue" points="830.95,-381.31 834.03,-391.45 837.94,-381.61 830.95,-381.31"/>
</g>
<!-- Node22&#45;&gt;Node13 -->
<g id="edge38" class="edge">
<title>Node22&#45;&gt;Node13</title>
<path fill="none" stroke="midnightblue" d="M761.9,-392.72C730.53,-384.97 694.08,-373 664.5,-355 631.84,-335.13 603.31,-298.57 591.41,-282.03"/>
<polygon fill="midnightblue" stroke="midnightblue" points="761.36,-396.18 771.89,-395.09 762.97,-389.37 761.36,-396.18"/>
</g>
<!-- Node22&#45;&gt;Node14 -->
<g id="edge39" class="edge">
<title>Node22&#45;&gt;Node14</title>
<path fill="none" stroke="midnightblue" d="M903.29,-391.16C1000.33,-379.81 1207.44,-396.47 1276.5,-355 1305.02,-337.87 1321.52,-299.2 1327.69,-282.01"/>
<polygon fill="midnightblue" stroke="midnightblue" points="902.58,-387.73 893.13,-392.52 903.51,-394.67 902.58,-387.73"/>
</g>
<!-- Node22&#45;&gt;Node16 -->
<g id="edge40" class="edge">
<title>Node22&#45;&gt;Node16</title>
<path fill="none" stroke="midnightblue" d="M860.72,-385.45C885.77,-368.1 923.68,-342.9 958.5,-324 983.9,-310.21 1013.8,-296.98 1036.47,-287.51"/>
<polygon fill="midnightblue" stroke="midnightblue" points="858.63,-382.65 852.43,-391.24 862.63,-388.39 858.63,-382.65"/>
</g>
<!-- Node23&#45;&gt;Node7 -->
<g id="edge43" class="edge">
<title>Node23&#45;&gt;Node7</title>
<path fill="none" stroke="midnightblue" d="M61.98,-381C63.46,-354.51 65.5,-311.02 65.5,-273.5 65.5,-273.5 65.5,-273.5 65.5,-137.5 65.5,-14.8 1008.33,-9.53 1276.26,-10.5"/>
<polygon fill="midnightblue" stroke="midnightblue" points="58.47,-381.06 61.39,-391.25 65.46,-381.46 58.47,-381.06"/>
</g>
<!-- Node24&#45;&gt;Node6 -->
<g id="edge45" class="edge">
<title>Node24&#45;&gt;Node6</title>
<path fill="none" stroke="midnightblue" d="M309.84,-524.75C243.46,-473.32 37.44,-299.07 139.5,-190 184.96,-141.42 628.63,-138.01 816.32,-138.78"/>
<polygon fill="midnightblue" stroke="midnightblue" points="307.82,-527.62 317.89,-530.92 312.08,-522.06 307.82,-527.62"/>
</g>
<!-- Node25&#45;&gt;Node6 -->
<g id="edge47" class="edge">
<title>Node25&#45;&gt;Node6</title>
<path fill="none" stroke="midnightblue" d="M1085.99,-400.05C1149.17,-394.03 1233.89,-381.43 1304.5,-355 1304.6,-354.96 1412.45,-288.1 1412.5,-288 1419.2,-275.96 1418.96,-269.17 1412.5,-257 1387.59,-210.07 1363.26,-208.63 1313.5,-190 1254.76,-168.01 1085.91,-152.66 982.89,-145.03"/>
<polygon fill="midnightblue" stroke="midnightblue" points="1085.29,-396.59 1075.65,-400.99 1085.92,-403.57 1085.29,-396.59"/>
</g>
<!-- Node27 -->
<g id="node27" class="node">
<title>Node27</title>
<g id="a_node27"><a xlink:href="parsing_8hpp_source.html" target="_top" xlink:title=" ">
<polygon fill="none" stroke="black" points="692.5,-458.5 692.5,-488.5 798.5,-488.5 798.5,-458.5 692.5,-458.5"/>
<text text-anchor="start" x="700.5" y="-476.5" font-family="Helvetica,sans-Serif" font-size="10.00">arg_router/parsing</text>
<text text-anchor="middle" x="745.5" y="-465.5" font-family="Helvetica,sans-Serif" font-size="10.00">/parsing.hpp</text>
</a>
</g>
</g>
<!-- Node26&#45;&gt;Node27 -->
<g id="edge49" class="edge">
<title>Node26&#45;&gt;Node27</title>
<path fill="none" stroke="midnightblue" d="M737.95,-515.4C739.62,-506.37 741.46,-496.41 742.9,-488.58"/>
<polygon fill="midnightblue" stroke="midnightblue" points="734.48,-514.93 736.1,-525.4 741.36,-516.2 734.48,-514.93"/>
</g>
<!-- Node27&#45;&gt;Node4 -->
<g id="edge60" class="edge">
<title>Node27&#45;&gt;Node4</title>
<path fill="none" stroke="midnightblue" d="M745.13,-448.32C744.68,-418.38 743.93,-368.91 743.63,-349.1"/>
<polygon fill="midnightblue" stroke="midnightblue" points="741.63,-448.43 745.29,-458.37 748.63,-448.32 741.63,-448.43"/>
</g>
<!-- Node27&#45;&gt;Node20 -->
<g id="edge50" class="edge">
<title>Node27&#45;&gt;Node20</title>
<path fill="none" stroke="midnightblue" d="M687.16,-455.59C558.72,-417.78 260.7,-326.71 233.5,-288 217.87,-265.76 227.37,-231.03 233.1,-215.06"/>
<polygon fill="midnightblue" stroke="midnightblue" points="686.27,-458.97 696.85,-458.43 688.24,-452.25 686.27,-458.97"/>
</g>
<!-- Node27&#45;&gt;Node22 -->
<g id="edge51" class="edge">
<title>Node27&#45;&gt;Node22</title>
<path fill="none" stroke="midnightblue" d="M772.71,-452.17C786.02,-442.23 801.7,-430.51 813.66,-421.58"/>
<polygon fill="midnightblue" stroke="midnightblue" points="770.29,-449.61 764.38,-458.4 774.48,-455.21 770.29,-449.61"/>
</g>
<!-- Node27&#45;&gt;Node23 -->
<g id="edge52" class="edge">
<title>Node27&#45;&gt;Node23</title>
<path fill="none" stroke="midnightblue" d="M682.2,-457.99C558.85,-440.04 252.26,-419.57 121.25,-411.27"/>
<polygon fill="midnightblue" stroke="midnightblue" points="681.75,-461.46 692.16,-459.49 682.8,-454.54 681.75,-461.46"/>
</g>
<!-- Node27&#45;&gt;Node25 -->
<g id="edge53" class="edge">
<title>Node27&#45;&gt;Node25</title>
<path fill="none" stroke="midnightblue" d="M808.49,-455.99C857.06,-443.26 922.26,-426.17 960.88,-416.05"/>
<polygon fill="midnightblue" stroke="midnightblue" points="807.49,-452.63 798.7,-458.56 809.26,-459.41 807.49,-452.63"/>
</g>
<!-- Node28 -->
<g id="node28" class="node">
<title>Node28</title>
<g id="a_node28"><a xlink:href="short__form__expander_8hpp_source.html" target="_top" xlink:title=" ">
<polygon fill="none" stroke="black" points="490,-324.5 490,-354.5 617,-354.5 617,-324.5 490,-324.5"/>
<text text-anchor="start" x="498" y="-342.5" font-family="Helvetica,sans-Serif" font-size="10.00">arg_router/policy/short</text>
<text text-anchor="middle" x="553.5" y="-331.5" font-family="Helvetica,sans-Serif" font-size="10.00">_form_expander.hpp</text>
</a>
</g>
</g>
<!-- Node27&#45;&gt;Node28 -->
<g id="edge54" class="edge">
<title>Node27&#45;&gt;Node28</title>
<path fill="none" stroke="midnightblue" d="M716.59,-452.62C677.33,-425.64 608.16,-378.08 573.9,-354.52"/>
<polygon fill="midnightblue" stroke="midnightblue" points="714.73,-455.59 724.95,-458.37 718.7,-449.82 714.73,-455.59"/>
</g>
<!-- Node27&#45;&gt;Node29 -->
<g id="edge58" class="edge">
<title>Node27&#45;&gt;Node29</title>
<path fill="none" stroke="midnightblue" d="M808.74,-465.52C921.47,-453.08 1155.94,-427.21 1269.74,-414.65"/>
<polygon fill="midnightblue" stroke="midnightblue" points="808.1,-462.07 798.55,-466.65 808.87,-469.03 808.1,-462.07"/>
</g>
<!-- Node28&#45;&gt;Node6 -->
<g id="edge57" class="edge">
<title>Node28&#45;&gt;Node6</title>
<path fill="none" stroke="midnightblue" d="M479.57,-332.74C449.69,-326.34 417.96,-313.49 399.5,-288 386.21,-269.66 395.82,-203.07 409.5,-190 438.27,-162.51 684.22,-148.3 816.34,-142.59"/>
<polygon fill="midnightblue" stroke="midnightblue" points="479.13,-336.22 489.61,-334.67 480.45,-329.34 479.13,-336.22"/>
</g>
<!-- Node28&#45;&gt;Node9 -->
<g id="edge55" class="edge">
<title>Node28&#45;&gt;Node9</title>
<path fill="none" stroke="midnightblue" d="M606.38,-321.23C638.57,-310.71 679.17,-297.45 709.4,-287.58"/>
<polygon fill="midnightblue" stroke="midnightblue" points="605.1,-317.96 596.68,-324.4 607.27,-324.62 605.1,-317.96"/>
</g>
<!-- Node28&#45;&gt;Node13 -->
<g id="edge56" class="edge">
<title>Node28&#45;&gt;Node13</title>
<path fill="none" stroke="midnightblue" d="M564.93,-315.29C570.58,-303.8 577.07,-290.63 581.22,-282.19"/>
<polygon fill="midnightblue" stroke="midnightblue" points="561.72,-313.88 560.44,-324.4 568,-316.97 561.72,-313.88"/>
</g>
<!-- Node29&#45;&gt;Node7 -->
<g id="edge59" class="edge">
<title>Node29&#45;&gt;Node7</title>
<path fill="none" stroke="midnightblue" d="M1409.55,-400.94C1444.41,-394.97 1483.74,-382.13 1509.5,-355 1535.11,-328.03 1528.5,-310.69 1528.5,-273.5 1528.5,-273.5 1528.5,-273.5 1528.5,-137.5 1528.5,-68.24 1438.52,-33.83 1385.1,-19.51"/>
<polygon fill="midnightblue" stroke="midnightblue" points="1408.73,-397.52 1399.38,-402.51 1409.8,-404.44 1408.73,-397.52"/>
</g>
<!-- Node30&#45;&gt;Node7 -->
<g id="edge62" class="edge">
<title>Node30&#45;&gt;Node7</title>
<path fill="none" stroke="midnightblue" d="M1517.41,-455.89C1535.96,-431.98 1566.5,-385.76 1566.5,-340.5 1566.5,-340.5 1566.5,-340.5 1566.5,-137.5 1566.5,-63.81 1472.6,-32.41 1407.49,-19.5"/>
<polygon fill="midnightblue" stroke="midnightblue" points="1514.5,-453.92 1510.97,-463.91 1519.96,-458.3 1514.5,-453.92"/>
</g>
<!-- Node31&#45;&gt;Node7 -->
<g id="edge64" class="edge">
<title>Node31&#45;&gt;Node7</title>
<path fill="none" stroke="midnightblue" d="M1641.05,-115.1C1627.67,-96.27 1606.02,-70.22 1580.5,-56 1530.18,-27.96 1465.37,-17.11 1416.72,-13.04"/>
<polygon fill="midnightblue" stroke="midnightblue" points="1638.22,-117.16 1646.77,-123.42 1643.99,-113.2 1638.22,-117.16"/>
</g>
<!-- Node32&#45;&gt;Node14 -->
<g id="edge66" class="edge">
<title>Node32&#45;&gt;Node14</title>
<path fill="none" stroke="midnightblue" d="M1401.16,-318.97C1382.01,-306.65 1358.23,-291.35 1343.72,-282.01"/>
<polygon fill="midnightblue" stroke="midnightblue" points="1399.28,-321.93 1409.58,-324.4 1403.07,-316.04 1399.28,-321.93"/>
</g>
<!-- Node33 -->
<g id="node33" class="node">
<title>Node33</title>
<g id="a_node33"><a xlink:href="colour__help__formatter_8hpp_source.html" target="_top" xlink:title=" ">
<polygon fill="none" stroke="black" points="1315.5,-56.5 1315.5,-86.5 1447.5,-86.5 1447.5,-56.5 1315.5,-56.5"/>
<text text-anchor="start" x="1323.5" y="-74.5" font-family="Helvetica,sans-Serif" font-size="10.00">arg_router/policy/colour</text>
<text text-anchor="middle" x="1381.5" y="-63.5" font-family="Helvetica,sans-Serif" font-size="10.00">_help_formatter.hpp</text>
</a>
</g>
</g>
<!-- Node32&#45;&gt;Node33 -->
<g id="edge67" class="edge">
<title>Node32&#45;&gt;Node33</title>
<path fill="none" stroke="midnightblue" d="M1451.21,-316.3C1457.35,-308.01 1463.33,-298.13 1466.5,-288 1479.5,-246.43 1479.92,-231.44 1466.5,-190 1452.7,-147.36 1416.99,-107.21 1396.52,-86.7"/>
<polygon fill="midnightblue" stroke="midnightblue" points="1448.32,-314.31 1444.86,-324.32 1453.81,-318.65 1448.32,-314.31"/>
</g>
<!-- Node33&#45;&gt;Node7 -->
<g id="edge68" class="edge">
<title>Node33&#45;&gt;Node7</title>
<path fill="none" stroke="midnightblue" d="M1367.97,-47.5C1362.23,-37.74 1355.89,-26.96 1351.59,-19.66"/>
<polygon fill="midnightblue" stroke="midnightblue" points="1365.12,-49.55 1373.21,-56.4 1371.15,-46.01 1365.12,-49.55"/>
</g>
<!-- Node34&#45;&gt;Node5 -->
<g id="edge70" class="edge">
<title>Node34&#45;&gt;Node5</title>
<path fill="none" stroke="midnightblue" d="M1203.13,-314.25C1202.95,-303.02 1202.76,-290.38 1202.63,-282.19"/>
<polygon fill="midnightblue" stroke="midnightblue" points="1199.63,-314.45 1203.28,-324.4 1206.63,-314.34 1199.63,-314.45"/>
</g>
<!-- Node34&#45;&gt;Node6 -->
<g id="edge74" class="edge">
<title>Node34&#45;&gt;Node6</title>
<path fill="none" stroke="midnightblue" d="M1277.4,-328.49C1325.07,-320.34 1380.81,-307.05 1395.5,-288 1403.91,-277.09 1403.37,-268.31 1395.5,-257 1348.8,-189.91 1111.17,-158.46 982.52,-146.15"/>
<polygon fill="midnightblue" stroke="midnightblue" points="1276.67,-325.06 1267.37,-330.15 1277.81,-331.97 1276.67,-325.06"/>
</g>
<!-- Node34&#45;&gt;Node9 -->
<g id="edge71" class="edge">
<title>Node34&#45;&gt;Node9</title>
<path fill="none" stroke="midnightblue" d="M1129.72,-327.87C1039.8,-314.91 889.84,-293.29 808.73,-281.6"/>
<polygon fill="midnightblue" stroke="midnightblue" points="1129.44,-331.36 1139.84,-329.32 1130.44,-324.43 1129.44,-331.36"/>
</g>
<!-- Node34&#45;&gt;Node13 -->
<g id="edge72" class="edge">
<title>Node34&#45;&gt;Node13</title>
<path fill="none" stroke="midnightblue" d="M1129.58,-328.41C1117.21,-326.85 1104.5,-325.32 1092.5,-324 912.87,-304.29 867.02,-308.72 687.5,-288 672.13,-286.23 655.5,-283.99 640.22,-281.82"/>
<polygon fill="midnightblue" stroke="midnightblue" points="1129.5,-331.93 1139.87,-329.73 1130.39,-324.99 1129.5,-331.93"/>
</g>
<!-- Node34&#45;&gt;Node14 -->
<g id="edge73" class="edge">
<title>Node34&#45;&gt;Node14</title>
<path fill="none" stroke="midnightblue" d="M1240.03,-319.8C1264.38,-307.34 1295.22,-291.56 1313.88,-282.01"/>
<polygon fill="midnightblue" stroke="midnightblue" points="1238.36,-316.72 1231.06,-324.4 1241.55,-322.96 1238.36,-316.72"/>
</g>
<!-- Node35&#45;&gt;Node5 -->
<g id="edge78" class="edge">
<title>Node35&#45;&gt;Node5</title>
<path fill="none" stroke="midnightblue" d="M1073.3,-320.95C1107.68,-308.32 1152.53,-291.85 1179.33,-282.01"/>
<polygon fill="midnightblue" stroke="midnightblue" points="1072.09,-317.66 1063.91,-324.4 1074.5,-324.23 1072.09,-317.66"/>
</g>
<!-- Node35&#45;&gt;Node9 -->
<g id="edge79" class="edge">
<title>Node35&#45;&gt;Node9</title>
<path fill="none" stroke="midnightblue" d="M957.42,-322.29C911.6,-311.38 851.9,-297.17 808.77,-286.9"/>
<polygon fill="midnightblue" stroke="midnightblue" points="956.73,-325.72 967.27,-324.64 958.35,-318.91 956.73,-325.72"/>
</g>
<!-- Node35&#45;&gt;Node13 -->
<g id="edge80" class="edge">
<title>Node35&#45;&gt;Node13</title>
<path fill="none" stroke="midnightblue" d="M956.99,-328.38C869.57,-315.46 720.12,-293.39 640.01,-281.55"/>
<polygon fill="midnightblue" stroke="midnightblue" points="956.67,-331.87 967.07,-329.87 957.69,-324.94 956.67,-331.87"/>
</g>
<!-- Node35&#45;&gt;Node14 -->
<g id="edge81" class="edge">
<title>Node35&#45;&gt;Node14</title>
<path fill="none" stroke="midnightblue" d="M1093.71,-324.38C1141.77,-314.37 1207.61,-300.55 1265.5,-288 1274.31,-286.09 1283.79,-284 1292.71,-282.01"/>
<polygon fill="midnightblue" stroke="midnightblue" points="1092.82,-320.99 1083.74,-326.45 1094.24,-327.84 1092.82,-320.99"/>
</g>
<!-- Node35&#45;&gt;Node15 -->
<g id="edge82" class="edge">
<title>Node35&#45;&gt;Node15</title>
<path fill="none" stroke="midnightblue" d="M957.37,-324.44C925.61,-316.33 887.98,-304.43 856.5,-288 836.87,-277.76 836.12,-268.98 817.5,-257 791.21,-240.09 758.55,-224.36 738.11,-215.09"/>
<polygon fill="midnightblue" stroke="midnightblue" points="956.91,-327.94 967.45,-326.95 958.59,-321.14 956.91,-327.94"/>
</g>
<!-- Node35&#45;&gt;Node16 -->
<g id="edge83" class="edge">
<title>Node35&#45;&gt;Node16</title>
<path fill="none" stroke="midnightblue" d="M1041.31,-316.16C1048.02,-306.68 1055.63,-295.92 1061.54,-287.58"/>
<polygon fill="midnightblue" stroke="midnightblue" points="1038.4,-314.21 1035.48,-324.4 1044.12,-318.26 1038.4,-314.21"/>
</g>
</g>
</svg>
