<?xml version="1.0" encoding="UTF-8" standalone="no"?>
<!DOCTYPE svg PUBLIC "-//W3C//DTD SVG 1.1//EN"
 "http://www.w3.org/Graphics/SVG/1.1/DTD/svg11.dtd">
<!-- Generated by graphviz version 2.43.0 (0)
 -->
<!-- Title: arg_router/utility/compile_time_string.hpp Pages: 1 -->
<svg width="1774pt" height="676pt"
 viewBox="0.00 0.00 1774.00 676.00" xmlns="http://www.w3.org/2000/svg" xmlns:xlink="http://www.w3.org/1999/xlink">
<g id="graph0" class="graph" transform="scale(1 1) rotate(0) translate(4 672)">
<title>arg_router/utility/compile_time_string.hpp</title>
<!-- Node1 -->
<g id="node1" class="node">
<title>Node1</title>
<g id="a_node1"><a xlink:title=" ">
<polygon fill="#bfbfbf" stroke="black" points="770.5,-637.5 770.5,-667.5 910.5,-667.5 910.5,-637.5 770.5,-637.5"/>
<text text-anchor="start" x="778.5" y="-655.5" font-family="Helvetica,sans-Serif" font-size="10.00">arg_router/utility</text>
<text text-anchor="middle" x="840.5" y="-644.5" font-family="Helvetica,sans-Serif" font-size="10.00">/compile_time_string.hpp</text>
</a>
</g>
</g>
<!-- Node2 -->
<g id="node2" class="node">
<title>Node2</title>
<g id="a_node2"><a xlink:href="exception_8hpp_source.html" target="_top" xlink:title=" ">
<polygon fill="none" stroke="black" points="933,-581.5 933,-600.5 1072,-600.5 1072,-581.5 933,-581.5"/>
<text text-anchor="middle" x="1002.5" y="-588.5" font-family="Helvetica,sans-Serif" font-size="10.00">arg_router/exception.hpp</text>
</a>
</g>
</g>
<!-- Node1&#45;&gt;Node2 -->
<g id="edge1" class="edge">
<title>Node1&#45;&gt;Node2</title>
<path fill="none" stroke="midnightblue" d="M888.3,-633.94C918.15,-622.98 955.27,-609.35 978.93,-600.66"/>
<polygon fill="midnightblue" stroke="midnightblue" points="887.07,-630.67 878.89,-637.4 889.49,-637.24 887.07,-630.67"/>
</g>
<!-- Node4 -->
<g id="node4" class="node">
<title>Node4</title>
<g id="a_node4"><a xlink:href="tree__node_8hpp_source.html" target="_top" xlink:title=" ">
<polygon fill="none" stroke="black" points="659.5,-319 659.5,-338 799.5,-338 799.5,-319 659.5,-319"/>
<text text-anchor="middle" x="729.5" y="-326" font-family="Helvetica,sans-Serif" font-size="10.00">arg_router/tree_node.hpp</text>
</a>
</g>
</g>
<!-- Node1&#45;&gt;Node4 -->
<g id="edge83" class="edge">
<title>Node1&#45;&gt;Node4</title>
<path fill="none" stroke="midnightblue" d="M804.8,-632.09C772.34,-611.55 729.5,-575.84 729.5,-530.5 729.5,-530.5 729.5,-530.5 729.5,-461.5 729.5,-414.98 729.5,-359.24 729.5,-338.15"/>
<polygon fill="midnightblue" stroke="midnightblue" points="803.27,-635.26 813.63,-637.48 806.91,-629.28 803.27,-635.26"/>
</g>
<!-- Node29 -->
<g id="node29" class="node">
<title>Node29</title>
<g id="a_node29"><a xlink:href="value__separator_8hpp_source.html" target="_top" xlink:title=" ">
<polygon fill="none" stroke="black" points="1455,-380.5 1455,-410.5 1584,-410.5 1584,-380.5 1455,-380.5"/>
<text text-anchor="start" x="1463" y="-398.5" font-family="Helvetica,sans-Serif" font-size="10.00">arg_router/policy/value</text>
<text text-anchor="middle" x="1519.5" y="-387.5" font-family="Helvetica,sans-Serif" font-size="10.00">_separator.hpp</text>
</a>
</g>
</g>
<!-- Node1&#45;&gt;Node29 -->
<g id="edge75" class="edge">
<title>Node1&#45;&gt;Node29</title>
<path fill="none" stroke="midnightblue" d="M920.75,-651.01C1031.47,-647.09 1234.17,-627.94 1382.5,-545 1443.12,-511.1 1491.92,-440.81 1510.92,-410.69"/>
<polygon fill="midnightblue" stroke="midnightblue" points="920.54,-647.52 910.66,-651.34 920.77,-654.52 920.54,-647.52"/>
</g>
<!-- Node30 -->
<g id="node30" class="node">
<title>Node30</title>
<g id="a_node30"><a xlink:href="string__selector_8hpp.html" target="_top" xlink:title=" ">
<polygon fill="none" stroke="black" points="1549.5,-447.5 1549.5,-477.5 1671.5,-477.5 1671.5,-447.5 1549.5,-447.5"/>
<text text-anchor="start" x="1557.5" y="-465.5" font-family="Helvetica,sans-Serif" font-size="10.00">arg_router/multi_lang</text>
<text text-anchor="middle" x="1610.5" y="-454.5" font-family="Helvetica,sans-Serif" font-size="10.00">/string_selector.hpp</text>
</a>
</g>
</g>
<!-- Node1&#45;&gt;Node30 -->
<g id="edge61" class="edge">
<title>Node1&#45;&gt;Node30</title>
<path fill="none" stroke="midnightblue" d="M920.63,-652.31C1069.97,-652.66 1384.5,-647.61 1481.5,-601 1539.62,-573.07 1584.68,-506.7 1602.36,-477.59"/>
<polygon fill="midnightblue" stroke="midnightblue" points="920.62,-648.81 910.6,-652.28 920.59,-655.81 920.62,-648.81"/>
</g>
<!-- Node31 -->
<g id="node31" class="node">
<title>Node31</title>
<g id="a_node31"><a xlink:href="literals_8hpp_source.html" target="_top" xlink:title=" ">
<polygon fill="none" stroke="black" points="1641,-123.5 1641,-142.5 1766,-142.5 1766,-123.5 1641,-123.5"/>
<text text-anchor="middle" x="1703.5" y="-130.5" font-family="Helvetica,sans-Serif" font-size="10.00">arg_router/literals.hpp</text>
</a>
</g>
</g>
<!-- Node1&#45;&gt;Node31 -->
<g id="edge63" class="edge">
<title>Node1&#45;&gt;Node31</title>
<path fill="none" stroke="midnightblue" d="M920.96,-648.24C1073.69,-641.59 1400.2,-625.02 1510.5,-601 1598.91,-581.75 1701.5,-620.99 1701.5,-530.5 1701.5,-530.5 1701.5,-530.5 1701.5,-260.5 1701.5,-216.13 1702.75,-163.02 1703.27,-142.59"/>
<polygon fill="midnightblue" stroke="midnightblue" points="920.55,-644.75 910.71,-648.68 920.86,-651.75 920.55,-644.75"/>
</g>
<!-- Node32 -->
<g id="node32" class="node">
<title>Node32</title>
<g id="a_node32"><a xlink:href="default__help__formatter_8hpp_source.html" target="_top" xlink:title=" ">
<polygon fill="none" stroke="black" points="0,-313.5 0,-343.5 137,-343.5 137,-313.5 0,-313.5"/>
<text text-anchor="start" x="8" y="-331.5" font-family="Helvetica,sans-Serif" font-size="10.00">arg_router/policy/default</text>
<text text-anchor="middle" x="68.5" y="-320.5" font-family="Helvetica,sans-Serif" font-size="10.00">_help_formatter.hpp</text>
</a>
</g>
</g>
<!-- Node1&#45;&gt;Node32 -->
<g id="edge65" class="edge">
<title>Node1&#45;&gt;Node32</title>
<path fill="none" stroke="midnightblue" d="M760.3,-646.92C566.49,-634.77 88.5,-597.97 88.5,-530.5 88.5,-530.5 88.5,-530.5 88.5,-461.5 88.5,-418.16 77.83,-367.7 72.08,-343.65"/>
<polygon fill="midnightblue" stroke="midnightblue" points="760.23,-650.42 770.43,-647.54 760.66,-643.43 760.23,-650.42"/>
</g>
<!-- Node34 -->
<g id="node34" class="node">
<title>Node34</title>
<g id="a_node34"><a xlink:href="short__name_8hpp_source.html" target="_top" xlink:title=" ">
<polygon fill="none" stroke="black" points="194,-313.5 194,-343.5 321,-343.5 321,-313.5 194,-313.5"/>
<text text-anchor="start" x="202" y="-331.5" font-family="Helvetica,sans-Serif" font-size="10.00">arg_router/policy/short</text>
<text text-anchor="middle" x="257.5" y="-320.5" font-family="Helvetica,sans-Serif" font-size="10.00">_name.hpp</text>
</a>
</g>
</g>
<!-- Node1&#45;&gt;Node34 -->
<g id="edge69" class="edge">
<title>Node1&#45;&gt;Node34</title>
<path fill="none" stroke="midnightblue" d="M760.22,-649.1C615.68,-642.57 326.5,-618.52 326.5,-530.5 326.5,-530.5 326.5,-530.5 326.5,-461.5 326.5,-413.92 290.85,-366.54 270.8,-343.66"/>
<polygon fill="midnightblue" stroke="midnightblue" points="760.23,-652.6 770.38,-649.54 760.54,-645.61 760.23,-652.6"/>
</g>
<!-- Node35 -->
<g id="node35" class="node">
<title>Node35</title>
<g id="a_node35"><a xlink:href="string__to__policy_8hpp_source.html" target="_top" xlink:title=" ">
<polygon fill="none" stroke="black" points="339.5,-313.5 339.5,-343.5 455.5,-343.5 455.5,-313.5 339.5,-313.5"/>
<text text-anchor="start" x="347.5" y="-331.5" font-family="Helvetica,sans-Serif" font-size="10.00">arg_router/utility</text>
<text text-anchor="middle" x="397.5" y="-320.5" font-family="Helvetica,sans-Serif" font-size="10.00">/string_to_policy.hpp</text>
</a>
</g>
</g>
<!-- Node1&#45;&gt;Node35 -->
<g id="edge76" class="edge">
<title>Node1&#45;&gt;Node35</title>
<path fill="none" stroke="midnightblue" d="M760.1,-642.07C649.65,-626.83 464.5,-592.09 464.5,-530.5 464.5,-530.5 464.5,-530.5 464.5,-461.5 464.5,-414.21 429.89,-366.71 410.42,-343.73"/>
<polygon fill="midnightblue" stroke="midnightblue" points="759.84,-645.56 770.22,-643.44 760.78,-638.63 759.84,-645.56"/>
</g>
<!-- Node3 -->
<g id="node3" class="node">
<title>Node3</title>
<g id="a_node3"><a xlink:href="global__parser_8hpp_source.html" target="_top" xlink:title=" ">
<polygon fill="none" stroke="black" points="795.5,-447.5 795.5,-477.5 901.5,-477.5 901.5,-447.5 795.5,-447.5"/>
<text text-anchor="start" x="803.5" y="-465.5" font-family="Helvetica,sans-Serif" font-size="10.00">arg_router/parsing</text>
<text text-anchor="middle" x="848.5" y="-454.5" font-family="Helvetica,sans-Serif" font-size="10.00">/global_parser.hpp</text>
</a>
</g>
</g>
<!-- Node2&#45;&gt;Node3 -->
<g id="edge2" class="edge">
<title>Node2&#45;&gt;Node3</title>
<path fill="none" stroke="midnightblue" d="M925.15,-578.64C903.9,-572.02 882.58,-561.55 867.5,-545 850.57,-526.42 847.84,-495.73 847.86,-477.79"/>
<polygon fill="midnightblue" stroke="midnightblue" points="924.31,-582.04 934.89,-581.42 926.24,-575.31 924.31,-582.04"/>
</g>
<!-- Node21 -->
<g id="node21" class="node">
<title>Node21</title>
<g id="a_node21"><a xlink:href="exception__translator_8hpp_source.html" target="_top" xlink:title=" ">
<polygon fill="none" stroke="black" points="876.5,-514.5 876.5,-544.5 1026.5,-544.5 1026.5,-514.5 876.5,-514.5"/>
<text text-anchor="start" x="884.5" y="-532.5" font-family="Helvetica,sans-Serif" font-size="10.00">arg_router/policy/exception</text>
<text text-anchor="middle" x="951.5" y="-521.5" font-family="Helvetica,sans-Serif" font-size="10.00">_translator.hpp</text>
</a>
</g>
</g>
<!-- Node2&#45;&gt;Node21 -->
<g id="edge33" class="edge">
<title>Node2&#45;&gt;Node21</title>
<path fill="none" stroke="midnightblue" d="M988.62,-573.81C980.77,-564.65 971.05,-553.3 963.52,-544.52"/>
<polygon fill="midnightblue" stroke="midnightblue" points="986.03,-576.16 995.19,-581.48 991.34,-571.6 986.03,-576.16"/>
</g>
<!-- Node22 -->
<g id="node22" class="node">
<title>Node22</title>
<g id="a_node22"><a xlink:href="min__max__count_8hpp_source.html" target="_top" xlink:title=" ">
<polygon fill="none" stroke="black" points="543,-380.5 543,-410.5 664,-410.5 664,-380.5 543,-380.5"/>
<text text-anchor="start" x="551" y="-398.5" font-family="Helvetica,sans-Serif" font-size="10.00">arg_router/policy/min</text>
<text text-anchor="middle" x="603.5" y="-387.5" font-family="Helvetica,sans-Serif" font-size="10.00">_max_count.hpp</text>
</a>
</g>
</g>
<!-- Node2&#45;&gt;Node22 -->
<g id="edge35" class="edge">
<title>Node2&#45;&gt;Node22</title>
<path fill="none" stroke="midnightblue" d="M952.51,-579.05C921.55,-571.41 881.37,-559.91 847.5,-545 758.54,-505.84 662.77,-439.6 622.77,-410.7"/>
<polygon fill="midnightblue" stroke="midnightblue" points="952.09,-582.55 962.63,-581.5 953.73,-575.75 952.09,-582.55"/>
</g>
<!-- Node23 -->
<g id="node23" class="node">
<title>Node23</title>
<g id="a_node23"><a xlink:href="min__max__value_8hpp_source.html" target="_top" xlink:title=" ">
<polygon fill="none" stroke="black" points="1316,-380.5 1316,-410.5 1437,-410.5 1437,-380.5 1316,-380.5"/>
<text text-anchor="start" x="1324" y="-398.5" font-family="Helvetica,sans-Serif" font-size="10.00">arg_router/policy/min</text>
<text text-anchor="middle" x="1376.5" y="-387.5" font-family="Helvetica,sans-Serif" font-size="10.00">_max_value.hpp</text>
</a>
</g>
</g>
<!-- Node2&#45;&gt;Node23 -->
<g id="edge42" class="edge">
<title>Node2&#45;&gt;Node23</title>
<path fill="none" stroke="midnightblue" d="M1082.17,-585.11C1181.41,-578.25 1340.34,-564.38 1359.5,-545 1395.44,-508.65 1386.13,-440.3 1379.93,-410.73"/>
<polygon fill="midnightblue" stroke="midnightblue" points="1081.91,-581.62 1072.17,-585.8 1082.38,-588.61 1081.91,-581.62"/>
</g>
<!-- Node24 -->
<g id="node24" class="node">
<title>Node24</title>
<g id="a_node24"><a xlink:href="required_8hpp_source.html" target="_top" xlink:title=" ">
<polygon fill="none" stroke="black" points="979.5,-386 979.5,-405 1143.5,-405 1143.5,-386 979.5,-386"/>
<text text-anchor="middle" x="1061.5" y="-393" font-family="Helvetica,sans-Serif" font-size="10.00">arg_router/policy/required.hpp</text>
</a>
</g>
</g>
<!-- Node2&#45;&gt;Node24 -->
<g id="edge44" class="edge">
<title>Node2&#45;&gt;Node24</title>
<path fill="none" stroke="midnightblue" d="M1017.35,-573.63C1023.9,-565.55 1031.09,-555.34 1035.5,-545 1056.75,-495.16 1060.63,-428.83 1061.34,-405.26"/>
<polygon fill="midnightblue" stroke="midnightblue" points="1014.5,-571.58 1010.67,-581.46 1019.82,-576.13 1014.5,-571.58"/>
</g>
<!-- Node25 -->
<g id="node25" class="node">
<title>Node25</title>
<g id="a_node25"><a xlink:href="router_8hpp_source.html" target="_top" xlink:title=" ">
<polygon fill="none" stroke="black" points="1198.5,-520 1198.5,-539 1350.5,-539 1350.5,-520 1198.5,-520"/>
<text text-anchor="middle" x="1274.5" y="-527" font-family="Helvetica,sans-Serif" font-size="10.00">arg_router/policy/router.hpp</text>
</a>
</g>
</g>
<!-- Node2&#45;&gt;Node25 -->
<g id="edge46" class="edge">
<title>Node2&#45;&gt;Node25</title>
<path fill="none" stroke="midnightblue" d="M1051.28,-579.33C1104.02,-567.79 1187.06,-549.63 1235.6,-539.01"/>
<polygon fill="midnightblue" stroke="midnightblue" points="1050.49,-575.92 1041.47,-581.48 1051.99,-582.76 1050.49,-575.92"/>
</g>
<!-- Node26 -->
<g id="node26" class="node">
<title>Node26</title>
<g id="a_node26"><a xlink:href="result_8hpp_source.html" target="_top" xlink:title=" ">
<polygon fill="none" stroke="black" points="1082.5,-514.5 1082.5,-544.5 1180.5,-544.5 1180.5,-514.5 1082.5,-514.5"/>
<text text-anchor="start" x="1090.5" y="-532.5" font-family="Helvetica,sans-Serif" font-size="10.00">arg_router/utility</text>
<text text-anchor="middle" x="1131.5" y="-521.5" font-family="Helvetica,sans-Serif" font-size="10.00">/result.hpp</text>
</a>
</g>
</g>
<!-- Node2&#45;&gt;Node26 -->
<g id="edge48" class="edge">
<title>Node2&#45;&gt;Node26</title>
<path fill="none" stroke="midnightblue" d="M1030.25,-577.2C1051.1,-567.58 1079.63,-554.42 1101.1,-544.52"/>
<polygon fill="midnightblue" stroke="midnightblue" points="1028.6,-574.11 1020.98,-581.48 1031.53,-580.46 1028.6,-574.11"/>
</g>
<!-- Node3&#45;&gt;Node4 -->
<g id="edge3" class="edge">
<title>Node3&#45;&gt;Node4</title>
<path fill="none" stroke="midnightblue" d="M828.79,-439.64C802.07,-410 755.58,-358.43 737.25,-338.1"/>
<polygon fill="midnightblue" stroke="midnightblue" points="826.47,-442.29 835.76,-447.37 831.67,-437.6 826.47,-442.29"/>
</g>
<!-- Node5 -->
<g id="node5" class="node">
<title>Node5</title>
<g id="a_node5"><a xlink:href="arg_8hpp_source.html" target="_top" xlink:title=" ">
<polygon fill="none" stroke="black" points="202,-252 202,-271 309,-271 309,-252 202,-252"/>
<text text-anchor="middle" x="255.5" y="-259" font-family="Helvetica,sans-Serif" font-size="10.00">arg_router/arg.hpp</text>
</a>
</g>
</g>
<!-- Node4&#45;&gt;Node5 -->
<g id="edge4" class="edge">
<title>Node4&#45;&gt;Node5</title>
<path fill="none" stroke="midnightblue" d="M649.02,-320.23C565.69,-312.09 431.93,-297.33 317.5,-277 308.25,-275.36 298.31,-273.21 289.15,-271.07"/>
<polygon fill="midnightblue" stroke="midnightblue" points="648.88,-323.73 659.17,-321.21 649.56,-316.76 648.88,-323.73"/>
</g>
<!-- Node9 -->
<g id="node9" class="node">
<title>Node9</title>
<g id="a_node9"><a xlink:href="counting__flag_8hpp_source.html" target="_top" xlink:title=" ">
<polygon fill="none" stroke="black" points="590.5,-246.5 590.5,-276.5 702.5,-276.5 702.5,-246.5 590.5,-246.5"/>
<text text-anchor="start" x="598.5" y="-264.5" font-family="Helvetica,sans-Serif" font-size="10.00">arg_router/counting</text>
<text text-anchor="middle" x="646.5" y="-253.5" font-family="Helvetica,sans-Serif" font-size="10.00">_flag.hpp</text>
</a>
</g>
</g>
<!-- Node4&#45;&gt;Node9 -->
<g id="edge9" class="edge">
<title>Node4&#45;&gt;Node9</title>
<path fill="none" stroke="midnightblue" d="M710.4,-312.54C696.59,-301.73 678.04,-287.2 664.49,-276.59"/>
<polygon fill="midnightblue" stroke="midnightblue" points="708.28,-315.32 718.31,-318.73 712.59,-309.81 708.28,-315.32"/>
</g>
<!-- Node10 -->
<g id="node10" class="node">
<title>Node10</title>
<g id="a_node10"><a xlink:href="flag_8hpp_source.html" target="_top" xlink:title=" ">
<polygon fill="none" stroke="black" points="327,-252 327,-271 436,-271 436,-252 327,-252"/>
<text text-anchor="middle" x="381.5" y="-259" font-family="Helvetica,sans-Serif" font-size="10.00">arg_router/flag.hpp</text>
</a>
</g>
</g>
<!-- Node4&#45;&gt;Node10 -->
<g id="edge11" class="edge">
<title>Node4&#45;&gt;Node10</title>
<path fill="none" stroke="midnightblue" d="M667.23,-317.29C609.59,-307.63 521.56,-292.37 445.5,-277 436.45,-275.17 426.73,-273.05 417.65,-271"/>
<polygon fill="midnightblue" stroke="midnightblue" points="666.84,-320.77 677.28,-318.97 667.99,-313.87 666.84,-320.77"/>
</g>
<!-- Node11 -->
<g id="node11" class="node">
<title>Node11</title>
<g id="a_node11"><a xlink:href="help_8hpp_source.html" target="_top" xlink:title=" ">
<polygon fill="none" stroke="black" points="33.5,-252 33.5,-271 145.5,-271 145.5,-252 33.5,-252"/>
<text text-anchor="middle" x="89.5" y="-259" font-family="Helvetica,sans-Serif" font-size="10.00">arg_router/help.hpp</text>
</a>
</g>
</g>
<!-- Node4&#45;&gt;Node11 -->
<g id="edge13" class="edge">
<title>Node4&#45;&gt;Node11</title>
<path fill="none" stroke="midnightblue" d="M649.24,-321.11C544.16,-312.49 354.28,-295.98 192.5,-277 177.26,-275.21 160.78,-273.01 145.57,-270.87"/>
<polygon fill="midnightblue" stroke="midnightblue" points="649.2,-324.62 659.45,-321.95 649.77,-317.65 649.2,-324.62"/>
</g>
<!-- Node12 -->
<g id="node12" class="node">
<title>Node12</title>
<g id="a_node12"><a xlink:href="detail_8hpp_source.html" target="_top" xlink:title=" ">
<polygon fill="none" stroke="black" points="881,-246.5 881,-276.5 1010,-276.5 1010,-246.5 881,-246.5"/>
<text text-anchor="start" x="889" y="-264.5" font-family="Helvetica,sans-Serif" font-size="10.00">arg_router/dependency</text>
<text text-anchor="middle" x="945.5" y="-253.5" font-family="Helvetica,sans-Serif" font-size="10.00">/detail.hpp</text>
</a>
</g>
</g>
<!-- Node4&#45;&gt;Node12 -->
<g id="edge15" class="edge">
<title>Node4&#45;&gt;Node12</title>
<path fill="none" stroke="midnightblue" d="M767.99,-315.92C804.62,-304.9 859.79,-288.29 898.88,-276.53"/>
<polygon fill="midnightblue" stroke="midnightblue" points="766.75,-312.64 758.18,-318.87 768.77,-319.34 766.75,-312.64"/>
</g>
<!-- Node15 -->
<g id="node15" class="node">
<title>Node15</title>
<g id="a_node15"><a xlink:href="mode_8hpp_source.html" target="_top" xlink:title=" ">
<polygon fill="none" stroke="black" points="484,-185 484,-204 603,-204 603,-185 484,-185"/>
<text text-anchor="middle" x="543.5" y="-192" font-family="Helvetica,sans-Serif" font-size="10.00">arg_router/mode.hpp</text>
</a>
</g>
</g>
<!-- Node4&#45;&gt;Node15 -->
<g id="edge20" class="edge">
<title>Node4&#45;&gt;Node15</title>
<path fill="none" stroke="midnightblue" d="M730.46,-308.54C730.32,-290.24 727.17,-262.89 711.5,-246 694.98,-228.2 633.83,-212.97 590.08,-204.03"/>
<polygon fill="midnightblue" stroke="midnightblue" points="726.96,-308.52 730.24,-318.59 733.95,-308.67 726.96,-308.52"/>
</g>
<!-- Node16 -->
<g id="node16" class="node">
<title>Node16</title>
<g id="a_node16"><a xlink:href="positional__arg_8hpp_source.html" target="_top" xlink:title=" ">
<polygon fill="none" stroke="black" points="454.5,-246.5 454.5,-276.5 572.5,-276.5 572.5,-246.5 454.5,-246.5"/>
<text text-anchor="start" x="462.5" y="-264.5" font-family="Helvetica,sans-Serif" font-size="10.00">arg_router/positional</text>
<text text-anchor="middle" x="513.5" y="-253.5" font-family="Helvetica,sans-Serif" font-size="10.00">_arg.hpp</text>
</a>
</g>
</g>
<!-- Node4&#45;&gt;Node16 -->
<g id="edge22" class="edge">
<title>Node4&#45;&gt;Node16</title>
<path fill="none" stroke="midnightblue" d="M691.01,-315.92C654.38,-304.9 599.21,-288.29 560.12,-276.53"/>
<polygon fill="midnightblue" stroke="midnightblue" points="690.23,-319.34 700.82,-318.87 692.25,-312.64 690.23,-319.34"/>
</g>
<!-- Node17 -->
<g id="node17" class="node">
<title>Node17</title>
<g id="a_node17"><a xlink:href="root_8hpp_source.html" target="_top" xlink:title=" ">
<polygon fill="none" stroke="black" points="1028.5,-252 1028.5,-271 1138.5,-271 1138.5,-252 1028.5,-252"/>
<text text-anchor="middle" x="1083.5" y="-259" font-family="Helvetica,sans-Serif" font-size="10.00">arg_router/root.hpp</text>
</a>
</g>
</g>
<!-- Node4&#45;&gt;Node17 -->
<g id="edge24" class="edge">
<title>Node4&#45;&gt;Node17</title>
<path fill="none" stroke="midnightblue" d="M793,-317.39C851.86,-307.79 941.81,-292.55 1019.5,-277 1028.55,-275.19 1038.28,-273.07 1047.35,-271.02"/>
<polygon fill="midnightblue" stroke="midnightblue" points="792.41,-313.94 783.1,-319 793.53,-320.85 792.41,-313.94"/>
</g>
<!-- Node18 -->
<g id="node18" class="node">
<title>Node18</title>
<g id="a_node18"><a xlink:href="tree__recursor_8hpp_source.html" target="_top" xlink:title=" ">
<polygon fill="none" stroke="black" points="758.5,-246.5 758.5,-276.5 862.5,-276.5 862.5,-246.5 758.5,-246.5"/>
<text text-anchor="start" x="766.5" y="-264.5" font-family="Helvetica,sans-Serif" font-size="10.00">arg_router/utility</text>
<text text-anchor="middle" x="810.5" y="-253.5" font-family="Helvetica,sans-Serif" font-size="10.00">/tree_recursor.hpp</text>
</a>
</g>
</g>
<!-- Node4&#45;&gt;Node18 -->
<g id="edge26" class="edge">
<title>Node4&#45;&gt;Node18</title>
<path fill="none" stroke="midnightblue" d="M748.52,-312.24C761.96,-301.45 779.84,-287.1 792.94,-276.59"/>
<polygon fill="midnightblue" stroke="midnightblue" points="746.03,-309.75 740.42,-318.73 750.41,-315.2 746.03,-309.75"/>
</g>
<!-- Node6 -->
<g id="node6" class="node">
<title>Node6</title>
<g id="a_node6"><a xlink:href="validator_8hpp_source.html" target="_top" xlink:title=" ">
<polygon fill="none" stroke="black" points="649.5,-123.5 649.5,-142.5 815.5,-142.5 815.5,-123.5 649.5,-123.5"/>
<text text-anchor="middle" x="732.5" y="-130.5" font-family="Helvetica,sans-Serif" font-size="10.00">arg_router/policy/validator.hpp</text>
</a>
</g>
</g>
<!-- Node5&#45;&gt;Node6 -->
<g id="edge5" class="edge">
<title>Node5&#45;&gt;Node6</title>
<path fill="none" stroke="midnightblue" d="M277.3,-246.43C307.2,-227.84 363.2,-195.53 415.5,-179 492.62,-154.63 584.48,-143.43 649.41,-138.29"/>
<polygon fill="midnightblue" stroke="midnightblue" points="275.15,-243.65 268.55,-251.94 278.88,-249.57 275.15,-243.65"/>
</g>
<!-- Node7 -->
<g id="node7" class="node">
<title>Node7</title>
<g id="a_node7"><a xlink:href="arg__router_8hpp_source.html" target="_top" xlink:title=" ">
<polygon fill="none" stroke="black" points="1365.5,-0.5 1365.5,-19.5 1505.5,-19.5 1505.5,-0.5 1365.5,-0.5"/>
<text text-anchor="middle" x="1435.5" y="-7.5" font-family="Helvetica,sans-Serif" font-size="10.00">arg_router/arg_router.hpp</text>
</a>
</g>
</g>
<!-- Node6&#45;&gt;Node7 -->
<g id="edge6" class="edge">
<title>Node6&#45;&gt;Node7</title>
<path fill="none" stroke="midnightblue" d="M776.78,-120.96C842.5,-104.89 969.89,-74.89 1079.5,-56 1178.19,-38.99 1293.31,-25.6 1365.31,-17.99"/>
<polygon fill="midnightblue" stroke="midnightblue" points="775.65,-117.63 766.77,-123.42 777.32,-124.43 775.65,-117.63"/>
</g>
<!-- Node8 -->
<g id="node8" class="node">
<title>Node8</title>
<g id="a_node8"><a xlink:href="validator__rule__utilities_8hpp_source.html" target="_top" xlink:title=" ">
<polygon fill="none" stroke="black" points="1088.5,-56.5 1088.5,-86.5 1234.5,-86.5 1234.5,-56.5 1088.5,-56.5"/>
<text text-anchor="start" x="1096.5" y="-74.5" font-family="Helvetica,sans-Serif" font-size="10.00">arg_router/policy/validator</text>
<text text-anchor="middle" x="1161.5" y="-63.5" font-family="Helvetica,sans-Serif" font-size="10.00">_rule_utilities.hpp</text>
</a>
</g>
</g>
<!-- Node6&#45;&gt;Node8 -->
<g id="edge7" class="edge">
<title>Node6&#45;&gt;Node8</title>
<path fill="none" stroke="midnightblue" d="M804.29,-122.04C883.09,-111.11 1008.93,-93.66 1088.29,-82.65"/>
<polygon fill="midnightblue" stroke="midnightblue" points="803.39,-118.63 793.97,-123.48 804.35,-125.57 803.39,-118.63"/>
</g>
<!-- Node8&#45;&gt;Node7 -->
<g id="edge8" class="edge">
<title>Node8&#45;&gt;Node7</title>
<path fill="none" stroke="midnightblue" d="M1235.9,-54.34C1287.67,-43.1 1354.63,-28.56 1396.33,-19.51"/>
<polygon fill="midnightblue" stroke="midnightblue" points="1235.12,-50.93 1226.09,-56.47 1236.6,-57.77 1235.12,-50.93"/>
</g>
<!-- Node9&#45;&gt;Node6 -->
<g id="edge10" class="edge">
<title>Node9&#45;&gt;Node6</title>
<path fill="none" stroke="midnightblue" d="M580.34,-245.1C534.75,-233.81 481.21,-218.97 474.5,-210 466.24,-198.97 465.63,-189.55 474.5,-179 496.63,-152.68 582.67,-141.75 649.37,-137.22"/>
<polygon fill="midnightblue" stroke="midnightblue" points="579.68,-248.54 590.22,-247.52 581.34,-241.74 579.68,-248.54"/>
</g>
<!-- Node10&#45;&gt;Node6 -->
<g id="edge12" class="edge">
<title>Node10&#45;&gt;Node6</title>
<path fill="none" stroke="midnightblue" d="M391.98,-243.26C404.56,-224.2 427.48,-194.21 455.5,-179 488.15,-161.28 580.2,-148.7 649.29,-141.43"/>
<polygon fill="midnightblue" stroke="midnightblue" points="388.93,-241.53 386.52,-251.85 394.84,-245.29 388.93,-241.53"/>
</g>
<!-- Node11&#45;&gt;Node6 -->
<g id="edge14" class="edge">
<title>Node11&#45;&gt;Node6</title>
<path fill="none" stroke="midnightblue" d="M120.35,-248.2C167.02,-230.13 258.68,-196.61 339.5,-179 445.01,-156.01 569.19,-144.28 649.28,-138.66"/>
<polygon fill="midnightblue" stroke="midnightblue" points="118.87,-245.03 110.83,-251.92 121.42,-251.55 118.87,-245.03"/>
</g>
<!-- Node13 -->
<g id="node13" class="node">
<title>Node13</title>
<g id="a_node13"><a xlink:href="alias__group_8hpp_source.html" target="_top" xlink:title=" ">
<polygon fill="none" stroke="black" points="824,-179.5 824,-209.5 953,-209.5 953,-179.5 824,-179.5"/>
<text text-anchor="start" x="832" y="-197.5" font-family="Helvetica,sans-Serif" font-size="10.00">arg_router/dependency</text>
<text text-anchor="middle" x="888.5" y="-186.5" font-family="Helvetica,sans-Serif" font-size="10.00">/alias_group.hpp</text>
</a>
</g>
</g>
<!-- Node12&#45;&gt;Node13 -->
<g id="edge16" class="edge">
<title>Node12&#45;&gt;Node13</title>
<path fill="none" stroke="midnightblue" d="M926.41,-238.74C917.98,-229.12 908.31,-218.09 900.84,-209.58"/>
<polygon fill="midnightblue" stroke="midnightblue" points="923.91,-241.18 933.13,-246.4 929.17,-236.57 923.91,-241.18"/>
</g>
<!-- Node14 -->
<g id="node14" class="node">
<title>Node14</title>
<g id="a_node14"><a xlink:href="one__of_8hpp_source.html" target="_top" xlink:title=" ">
<polygon fill="none" stroke="black" points="971,-179.5 971,-209.5 1100,-209.5 1100,-179.5 971,-179.5"/>
<text text-anchor="start" x="979" y="-197.5" font-family="Helvetica,sans-Serif" font-size="10.00">arg_router/dependency</text>
<text text-anchor="middle" x="1035.5" y="-186.5" font-family="Helvetica,sans-Serif" font-size="10.00">/one_of.hpp</text>
</a>
</g>
</g>
<!-- Node12&#45;&gt;Node14 -->
<g id="edge18" class="edge">
<title>Node12&#45;&gt;Node14</title>
<path fill="none" stroke="midnightblue" d="M973.26,-240.45C987.11,-230.45 1003.52,-218.6 1016.01,-209.58"/>
<polygon fill="midnightblue" stroke="midnightblue" points="971.09,-237.7 965.03,-246.4 975.18,-243.38 971.09,-237.7"/>
</g>
<!-- Node13&#45;&gt;Node6 -->
<g id="edge17" class="edge">
<title>Node13&#45;&gt;Node6</title>
<path fill="none" stroke="midnightblue" d="M842.1,-175.8C813.42,-164.86 777.88,-151.31 755.2,-142.66"/>
<polygon fill="midnightblue" stroke="midnightblue" points="840.94,-179.11 851.53,-179.4 843.43,-172.57 840.94,-179.11"/>
</g>
<!-- Node14&#45;&gt;Node6 -->
<g id="edge19" class="edge">
<title>Node14&#45;&gt;Node6</title>
<path fill="none" stroke="midnightblue" d="M960.78,-178.66C890.93,-164.9 820.36,-151.12 776.17,-142.51"/>
<polygon fill="midnightblue" stroke="midnightblue" points="960.14,-182.1 970.62,-180.6 961.49,-175.24 960.14,-182.1"/>
</g>
<!-- Node15&#45;&gt;Node6 -->
<g id="edge21" class="edge">
<title>Node15&#45;&gt;Node6</title>
<path fill="none" stroke="midnightblue" d="M580.41,-181.88C617.15,-170.32 672.65,-152.84 705.47,-142.51"/>
<polygon fill="midnightblue" stroke="midnightblue" points="579.07,-178.63 570.58,-184.98 581.17,-185.31 579.07,-178.63"/>
</g>
<!-- Node16&#45;&gt;Node6 -->
<g id="edge23" class="edge">
<title>Node16&#45;&gt;Node6</title>
<path fill="none" stroke="midnightblue" d="M486.8,-239.67C467.92,-222.44 448.57,-197.83 464.5,-179 487.89,-151.36 579.58,-140.69 649.26,-136.57"/>
<polygon fill="midnightblue" stroke="midnightblue" points="484.64,-242.43 494.49,-246.34 489.23,-237.14 484.64,-242.43"/>
</g>
<!-- Node17&#45;&gt;Node6 -->
<g id="edge25" class="edge">
<title>Node17&#45;&gt;Node6</title>
<path fill="none" stroke="midnightblue" d="M1097.54,-243.38C1110.54,-225.37 1125.62,-197.16 1109.5,-179 1090.33,-157.4 920.73,-144.29 815.64,-138.16"/>
<polygon fill="midnightblue" stroke="midnightblue" points="1094.42,-241.7 1091.11,-251.76 1099.98,-245.96 1094.42,-241.7"/>
</g>
<!-- Node18&#45;&gt;Node6 -->
<g id="edge32" class="edge">
<title>Node18&#45;&gt;Node6</title>
<path fill="none" stroke="midnightblue" d="M748.39,-244.66C706.09,-233.24 656.67,-218.42 650.5,-210 642.35,-198.89 643.48,-190.86 650.5,-179 661.34,-160.69 682.55,-149.34 700.69,-142.62"/>
<polygon fill="midnightblue" stroke="midnightblue" points="747.56,-248.06 758.13,-247.26 749.37,-241.3 747.56,-248.06"/>
</g>
<!-- Node18&#45;&gt;Node15 -->
<g id="edge27" class="edge">
<title>Node18&#45;&gt;Node15</title>
<path fill="none" stroke="midnightblue" d="M748.45,-245.39C695.6,-232.53 621.58,-214.51 578.47,-204.01"/>
<polygon fill="midnightblue" stroke="midnightblue" points="747.84,-248.85 758.39,-247.81 749.5,-242.05 747.84,-248.85"/>
</g>
<!-- Node19 -->
<g id="node19" class="node">
<title>Node19</title>
<g id="a_node19"><a xlink:href="alias_8hpp_source.html" target="_top" xlink:title=" ">
<polygon fill="none" stroke="black" points="659.5,-185 659.5,-204 805.5,-204 805.5,-185 659.5,-185"/>
<text text-anchor="middle" x="732.5" y="-192" font-family="Helvetica,sans-Serif" font-size="10.00">arg_router/policy/alias.hpp</text>
</a>
</g>
</g>
<!-- Node18&#45;&gt;Node19 -->
<g id="edge28" class="edge">
<title>Node18&#45;&gt;Node19</title>
<path fill="none" stroke="midnightblue" d="M785.51,-239.67C771.1,-227.67 753.76,-213.22 742.93,-204.19"/>
<polygon fill="midnightblue" stroke="midnightblue" points="783.65,-242.68 793.58,-246.4 788.13,-237.31 783.65,-242.68"/>
</g>
<!-- Node20 -->
<g id="node20" class="node">
<title>Node20</title>
<g id="a_node20"><a xlink:href="dependent_8hpp_source.html" target="_top" xlink:title=" ">
<polygon fill="none" stroke="black" points="1233,-185 1233,-204 1408,-204 1408,-185 1233,-185"/>
<text text-anchor="middle" x="1320.5" y="-192" font-family="Helvetica,sans-Serif" font-size="10.00">arg_router/policy/dependent.hpp</text>
</a>
</g>
</g>
<!-- Node18&#45;&gt;Node20 -->
<g id="edge30" class="edge">
<title>Node18&#45;&gt;Node20</title>
<path fill="none" stroke="midnightblue" d="M872.19,-246.05C872.3,-246.04 872.4,-246.02 872.5,-246 996.87,-224.52 1142.31,-210.07 1232.93,-202.31"/>
<polygon fill="midnightblue" stroke="midnightblue" points="871.69,-242.59 862.5,-247.87 872.98,-249.47 871.69,-242.59"/>
</g>
<!-- Node19&#45;&gt;Node6 -->
<g id="edge29" class="edge">
<title>Node19&#45;&gt;Node6</title>
<path fill="none" stroke="midnightblue" d="M732.5,-174.82C732.5,-164 732.5,-150.9 732.5,-142.51"/>
<polygon fill="midnightblue" stroke="midnightblue" points="729,-174.98 732.5,-184.98 736,-174.98 729,-174.98"/>
</g>
<!-- Node20&#45;&gt;Node7 -->
<g id="edge31" class="edge">
<title>Node20&#45;&gt;Node7</title>
<path fill="none" stroke="midnightblue" d="M1331.4,-176.2C1355.41,-138.1 1412.14,-48.07 1430.01,-19.71"/>
<polygon fill="midnightblue" stroke="midnightblue" points="1328.42,-174.37 1326.05,-184.7 1334.34,-178.1 1328.42,-174.37"/>
</g>
<!-- Node21&#45;&gt;Node17 -->
<g id="edge34" class="edge">
<title>Node21&#45;&gt;Node17</title>
<path fill="none" stroke="midnightblue" d="M950.06,-503.99C949.26,-473.43 951.21,-420.3 970.5,-380 994.21,-330.48 1046.88,-288.54 1071,-271.12"/>
<polygon fill="midnightblue" stroke="midnightblue" points="946.57,-504.31 950.45,-514.17 953.56,-504.04 946.57,-504.31"/>
</g>
<!-- Node22&#45;&gt;Node4 -->
<g id="edge41" class="edge">
<title>Node22&#45;&gt;Node4</title>
<path fill="none" stroke="midnightblue" d="M639.74,-375.8C663.9,-363.34 694.5,-347.56 713.01,-338.01"/>
<polygon fill="midnightblue" stroke="midnightblue" points="638.12,-372.7 630.84,-380.4 641.33,-378.92 638.12,-372.7"/>
</g>
<!-- Node22&#45;&gt;Node5 -->
<g id="edge36" class="edge">
<title>Node22&#45;&gt;Node5</title>
<path fill="none" stroke="midnightblue" d="M558.18,-376.19C539.06,-367.6 517,-356.49 498.5,-344 481.55,-332.56 482.56,-322.59 464.5,-313 460.65,-310.95 350.9,-284.95 292.03,-271.08"/>
<polygon fill="midnightblue" stroke="midnightblue" points="557.02,-379.5 567.58,-380.33 559.84,-373.1 557.02,-379.5"/>
</g>
<!-- Node22&#45;&gt;Node9 -->
<g id="edge37" class="edge">
<title>Node22&#45;&gt;Node9</title>
<path fill="none" stroke="midnightblue" d="M611.24,-370.75C620.18,-343.29 634.61,-298.99 641.93,-276.52"/>
<polygon fill="midnightblue" stroke="midnightblue" points="607.87,-369.78 608.1,-380.37 614.53,-371.95 607.87,-369.78"/>
</g>
<!-- Node22&#45;&gt;Node10 -->
<g id="edge38" class="edge">
<title>Node22&#45;&gt;Node10</title>
<path fill="none" stroke="midnightblue" d="M580.48,-373.86C559.99,-356.18 528.67,-330.83 498.5,-313 468.22,-295.1 430.42,-279.96 406.12,-271.05"/>
<polygon fill="midnightblue" stroke="midnightblue" points="578.21,-376.52 588.04,-380.46 582.81,-371.24 578.21,-376.52"/>
</g>
<!-- Node22&#45;&gt;Node11 -->
<g id="edge39" class="edge">
<title>Node22&#45;&gt;Node11</title>
<path fill="none" stroke="midnightblue" d="M532.37,-390.92C429.58,-384.9 245.2,-370.71 184.5,-344 174.46,-339.58 121.11,-291.39 99.06,-271.26"/>
<polygon fill="midnightblue" stroke="midnightblue" points="532.48,-394.43 542.66,-391.51 532.88,-387.44 532.48,-394.43"/>
</g>
<!-- Node22&#45;&gt;Node16 -->
<g id="edge40" class="edge">
<title>Node22&#45;&gt;Node16</title>
<path fill="none" stroke="midnightblue" d="M588.05,-371.83C569.39,-344.47 538.58,-299.28 523.06,-276.52"/>
<polygon fill="midnightblue" stroke="midnightblue" points="585.34,-374.08 593.87,-380.37 591.13,-370.14 585.34,-374.08"/>
</g>
<!-- Node23&#45;&gt;Node7 -->
<g id="edge43" class="edge">
<title>Node23&#45;&gt;Node7</title>
<path fill="none" stroke="midnightblue" d="M1404.98,-374.06C1433.92,-350.69 1474.5,-309.52 1474.5,-262.5 1474.5,-262.5 1474.5,-262.5 1474.5,-132 1474.5,-87.86 1450.7,-38.84 1440.28,-19.5"/>
<polygon fill="midnightblue" stroke="midnightblue" points="1402.53,-371.54 1396.81,-380.45 1406.84,-377.05 1402.53,-371.54"/>
</g>
<!-- Node24&#45;&gt;Node6 -->
<g id="edge45" class="edge">
<title>Node24&#45;&gt;Node6</title>
<path fill="none" stroke="midnightblue" d="M1070.53,-376.59C1079.55,-359.48 1094.36,-333.36 1110.5,-313 1124.75,-295.02 1138.57,-298.14 1147.5,-277 1164.83,-235.96 1160.84,-207.37 1126.5,-179 1080.65,-141.13 917.27,-133.88 815.85,-133.17"/>
<polygon fill="midnightblue" stroke="midnightblue" points="1067.18,-375.45 1065.71,-385.94 1073.4,-378.66 1067.18,-375.45"/>
</g>
<!-- Node25&#45;&gt;Node6 -->
<g id="edge47" class="edge">
<title>Node25&#45;&gt;Node6</title>
<path fill="none" stroke="midnightblue" d="M1276.53,-509.53C1280.1,-480.65 1288.94,-424.32 1307.5,-380 1346.83,-286.06 1487.11,-253.33 1417.5,-179 1377.15,-135.91 988.97,-132.56 815.51,-133.25"/>
<polygon fill="midnightblue" stroke="midnightblue" points="1273.01,-509.47 1275.34,-519.8 1279.97,-510.27 1273.01,-509.47"/>
</g>
<!-- Node27 -->
<g id="node27" class="node">
<title>Node27</title>
<g id="a_node27"><a xlink:href="parsing_8hpp_source.html" target="_top" xlink:title=" ">
<polygon fill="none" stroke="black" points="1136.5,-447.5 1136.5,-477.5 1242.5,-477.5 1242.5,-447.5 1136.5,-447.5"/>
<text text-anchor="start" x="1144.5" y="-465.5" font-family="Helvetica,sans-Serif" font-size="10.00">arg_router/parsing</text>
<text text-anchor="middle" x="1189.5" y="-454.5" font-family="Helvetica,sans-Serif" font-size="10.00">/parsing.hpp</text>
</a>
</g>
</g>
<!-- Node26&#45;&gt;Node27 -->
<g id="edge49" class="edge">
<title>Node26&#45;&gt;Node27</title>
<path fill="none" stroke="midnightblue" d="M1150.92,-506.74C1159.5,-497.12 1169.34,-486.09 1176.94,-477.58"/>
<polygon fill="midnightblue" stroke="midnightblue" points="1148.13,-504.6 1144.09,-514.4 1153.35,-509.26 1148.13,-504.6"/>
</g>
<!-- Node27&#45;&gt;Node4 -->
<g id="edge60" class="edge">
<title>Node27&#45;&gt;Node4</title>
<path fill="none" stroke="midnightblue" d="M1185.19,-437.4C1180.5,-418.64 1171.04,-393.56 1152.5,-380 1097.89,-340.04 905.2,-331.4 799.75,-329.73"/>
<polygon fill="midnightblue" stroke="midnightblue" points="1181.81,-438.32 1187.38,-447.33 1188.65,-436.81 1181.81,-438.32"/>
</g>
<!-- Node27&#45;&gt;Node20 -->
<g id="edge50" class="edge">
<title>Node27&#45;&gt;Node20</title>
<path fill="none" stroke="midnightblue" d="M1203.35,-438.44C1217.21,-415.01 1238.81,-377.5 1255.5,-344 1281.48,-291.86 1307.94,-226.95 1317.12,-204.01"/>
<polygon fill="midnightblue" stroke="midnightblue" points="1200.2,-436.89 1198.1,-447.28 1206.22,-440.47 1200.2,-436.89"/>
</g>
<!-- Node27&#45;&gt;Node22 -->
<g id="edge51" class="edge">
<title>Node27&#45;&gt;Node22</title>
<path fill="none" stroke="midnightblue" d="M1126.2,-454.48C1012.67,-441.89 775.89,-415.62 664.24,-403.24"/>
<polygon fill="midnightblue" stroke="midnightblue" points="1126.14,-457.99 1136.46,-455.62 1126.91,-451.04 1126.14,-457.99"/>
</g>
<!-- Node27&#45;&gt;Node23 -->
<g id="edge52" class="edge">
<title>Node27&#45;&gt;Node23</title>
<path fill="none" stroke="midnightblue" d="M1239.58,-444.09C1269.77,-433.6 1307.72,-420.41 1336,-410.58"/>
<polygon fill="midnightblue" stroke="midnightblue" points="1238.37,-440.81 1230.08,-447.4 1240.67,-447.42 1238.37,-440.81"/>
</g>
<!-- Node27&#45;&gt;Node24 -->
<g id="edge53" class="edge">
<title>Node27&#45;&gt;Node24</title>
<path fill="none" stroke="midnightblue" d="M1152.68,-442.8C1128.14,-430.34 1097.06,-414.56 1078.25,-405.01"/>
<polygon fill="midnightblue" stroke="midnightblue" points="1151.22,-445.99 1161.73,-447.4 1154.39,-439.75 1151.22,-445.99"/>
</g>
<!-- Node28 -->
<g id="node28" class="node">
<title>Node28</title>
<g id="a_node28"><a xlink:href="short__form__expander_8hpp_source.html" target="_top" xlink:title=" ">
<polygon fill="none" stroke="black" points="1119,-313.5 1119,-343.5 1246,-343.5 1246,-313.5 1119,-313.5"/>
<text text-anchor="start" x="1127" y="-331.5" font-family="Helvetica,sans-Serif" font-size="10.00">arg_router/policy/short</text>
<text text-anchor="middle" x="1182.5" y="-320.5" font-family="Helvetica,sans-Serif" font-size="10.00">_form_expander.hpp</text>
</a>
</g>
</g>
<!-- Node27&#45;&gt;Node28 -->
<g id="edge54" class="edge">
<title>Node27&#45;&gt;Node28</title>
<path fill="none" stroke="midnightblue" d="M1188.37,-437.13C1187.6,-420.94 1186.54,-399.19 1185.5,-380 1184.83,-367.72 1184,-353.77 1183.38,-343.65"/>
<polygon fill="midnightblue" stroke="midnightblue" points="1184.88,-437.54 1188.85,-447.36 1191.88,-437.21 1184.88,-437.54"/>
</g>
<!-- Node27&#45;&gt;Node29 -->
<g id="edge58" class="edge">
<title>Node27&#45;&gt;Node29</title>
<path fill="none" stroke="midnightblue" d="M1252.74,-449.11C1304.77,-438.91 1380.42,-424.05 1446.5,-411 1449.16,-410.47 1451.88,-409.94 1454.62,-409.39"/>
<polygon fill="midnightblue" stroke="midnightblue" points="1251.8,-445.73 1242.66,-451.09 1253.15,-452.6 1251.8,-445.73"/>
</g>
<!-- Node28&#45;&gt;Node6 -->
<g id="edge57" class="edge">
<title>Node28&#45;&gt;Node6</title>
<path fill="none" stroke="midnightblue" d="M1190.73,-303.83C1200.4,-271.25 1211.48,-212.78 1180.5,-179 1156.36,-152.68 938.38,-141 815.62,-136.48"/>
<polygon fill="midnightblue" stroke="midnightblue" points="1187.37,-302.85 1187.7,-313.44 1194.05,-304.96 1187.37,-302.85"/>
</g>
<!-- Node28&#45;&gt;Node9 -->
<g id="edge55" class="edge">
<title>Node28&#45;&gt;Node9</title>
<path fill="none" stroke="midnightblue" d="M1109.03,-319.47C1022.84,-309.92 875.68,-293.24 749.5,-277 734.28,-275.04 717.81,-272.78 702.6,-270.64"/>
<polygon fill="midnightblue" stroke="midnightblue" points="1108.65,-322.95 1118.98,-320.57 1109.42,-315.99 1108.65,-322.95"/>
</g>
<!-- Node28&#45;&gt;Node10 -->
<g id="edge56" class="edge">
<title>Node28&#45;&gt;Node10</title>
<path fill="none" stroke="midnightblue" d="M1108.54,-323.89C948.01,-315.81 571.92,-295.54 445.5,-277 435.36,-275.51 424.43,-273.28 414.53,-271.01"/>
<polygon fill="midnightblue" stroke="midnightblue" points="1108.64,-327.4 1118.8,-324.4 1108.99,-320.41 1108.64,-327.4"/>
</g>
<!-- Node29&#45;&gt;Node7 -->
<g id="edge59" class="edge">
<title>Node29&#45;&gt;Node7</title>
<path fill="none" stroke="midnightblue" d="M1518.31,-370C1517.13,-343.5 1515.5,-300.01 1515.5,-262.5 1515.5,-262.5 1515.5,-262.5 1515.5,-132 1515.5,-82.64 1468.61,-37.93 1446.62,-19.69"/>
<polygon fill="midnightblue" stroke="midnightblue" points="1514.83,-370.42 1518.78,-380.25 1521.82,-370.09 1514.83,-370.42"/>
</g>
<!-- Node30&#45;&gt;Node7 -->
<g id="edge62" class="edge">
<title>Node30&#45;&gt;Node7</title>
<path fill="none" stroke="midnightblue" d="M1611.09,-436.99C1611.68,-410.49 1612.5,-367 1612.5,-329.5 1612.5,-329.5 1612.5,-329.5 1612.5,-132 1612.5,-65.93 1527.41,-33.31 1475.22,-19.52"/>
<polygon fill="midnightblue" stroke="midnightblue" points="1607.59,-437.16 1610.86,-447.24 1614.59,-437.32 1607.59,-437.16"/>
</g>
<!-- Node31&#45;&gt;Node7 -->
<g id="edge64" class="edge">
<title>Node31&#45;&gt;Node7</title>
<path fill="none" stroke="midnightblue" d="M1691.13,-115.22C1677.33,-97.74 1653.37,-70.86 1626.5,-56 1589.38,-35.48 1543.19,-24.27 1505.53,-18.18"/>
<polygon fill="midnightblue" stroke="midnightblue" points="1688.53,-117.58 1697.39,-123.4 1694.09,-113.33 1688.53,-117.58"/>
</g>
<!-- Node32&#45;&gt;Node11 -->
<g id="edge66" class="edge">
<title>Node32&#45;&gt;Node11</title>
<path fill="none" stroke="midnightblue" d="M76.22,-303.6C79.88,-292.28 84.02,-279.46 86.69,-271.19"/>
<polygon fill="midnightblue" stroke="midnightblue" points="72.8,-302.8 73.06,-313.4 79.46,-304.96 72.8,-302.8"/>
</g>
<!-- Node33 -->
<g id="node33" class="node">
<title>Node33</title>
<g id="a_node33"><a xlink:href="colour__help__formatter_8hpp_source.html" target="_top" xlink:title=" ">
<polygon fill="none" stroke="black" points="179.5,-56.5 179.5,-86.5 311.5,-86.5 311.5,-56.5 179.5,-56.5"/>
<text text-anchor="start" x="187.5" y="-74.5" font-family="Helvetica,sans-Serif" font-size="10.00">arg_router/policy/colour</text>
<text text-anchor="middle" x="245.5" y="-63.5" font-family="Helvetica,sans-Serif" font-size="10.00">_help_formatter.hpp</text>
</a>
</g>
</g>
<!-- Node32&#45;&gt;Node33 -->
<g id="edge67" class="edge">
<title>Node32&#45;&gt;Node33</title>
<path fill="none" stroke="midnightblue" d="M38.25,-307.02C28.82,-298.9 19.57,-288.68 14.5,-277 9.02,-264.36 9.74,-258.93 14.5,-246 45.84,-160.8 148.34,-109.35 205.71,-86.51"/>
<polygon fill="midnightblue" stroke="midnightblue" points="36.14,-309.81 46.13,-313.35 40.52,-304.36 36.14,-309.81"/>
</g>
<!-- Node33&#45;&gt;Node7 -->
<g id="edge68" class="edge">
<title>Node33&#45;&gt;Node7</title>
<path fill="none" stroke="midnightblue" d="M321.61,-66.69C538.26,-55.86 1156.11,-24.97 1365.28,-14.51"/>
<polygon fill="midnightblue" stroke="midnightblue" points="321.41,-63.2 311.6,-67.19 321.76,-70.19 321.41,-63.2"/>
</g>
<!-- Node34&#45;&gt;Node5 -->
<g id="edge70" class="edge">
<title>Node34&#45;&gt;Node5</title>
<path fill="none" stroke="midnightblue" d="M256.75,-303.25C256.41,-292.02 256.02,-279.38 255.77,-271.19"/>
<polygon fill="midnightblue" stroke="midnightblue" points="253.26,-303.51 257.07,-313.4 260.26,-303.29 253.26,-303.51"/>
</g>
<!-- Node34&#45;&gt;Node6 -->
<g id="edge74" class="edge">
<title>Node34&#45;&gt;Node6</title>
<path fill="none" stroke="midnightblue" d="M183.73,-316.23C119.35,-305.65 34.66,-289.6 24.5,-277 15.85,-266.28 16.45,-257.18 24.5,-246 96.23,-146.32 478.21,-133.77 649.4,-133.25"/>
<polygon fill="midnightblue" stroke="midnightblue" points="183.44,-319.73 193.87,-317.88 184.56,-312.82 183.44,-319.73"/>
</g>
<!-- Node34&#45;&gt;Node9 -->
<g id="edge71" class="edge">
<title>Node34&#45;&gt;Node9</title>
<path fill="none" stroke="midnightblue" d="M331.18,-312.95C443.3,-294.18 473.78,-296.71 581.5,-277 584.34,-276.48 587.25,-275.92 590.18,-275.34"/>
<polygon fill="midnightblue" stroke="midnightblue" points="330.44,-309.52 321.16,-314.65 331.61,-316.43 330.44,-309.52"/>
</g>
<!-- Node34&#45;&gt;Node10 -->
<g id="edge72" class="edge">
<title>Node34&#45;&gt;Node10</title>
<path fill="none" stroke="midnightblue" d="M293.48,-308.64C317.21,-296.2 347.14,-280.51 365.27,-271.01"/>
<polygon fill="midnightblue" stroke="midnightblue" points="291.64,-305.65 284.41,-313.4 294.89,-311.85 291.64,-305.65"/>
</g>
<!-- Node34&#45;&gt;Node11 -->
<g id="edge73" class="edge">
<title>Node34&#45;&gt;Node11</title>
<path fill="none" stroke="midnightblue" d="M211.71,-309.78C179.14,-297.18 136.82,-280.81 111.49,-271.01"/>
<polygon fill="midnightblue" stroke="midnightblue" points="210.46,-313.05 221.05,-313.4 212.98,-306.52 210.46,-313.05"/>
</g>
<!-- Node35&#45;&gt;Node5 -->
<g id="edge77" class="edge">
<title>Node35&#45;&gt;Node5</title>
<path fill="none" stroke="midnightblue" d="M357.37,-309.13C330.04,-296.62 295.13,-280.64 274.08,-271.01"/>
<polygon fill="midnightblue" stroke="midnightblue" points="356.14,-312.42 366.69,-313.4 359.05,-306.05 356.14,-312.42"/>
</g>
<!-- Node35&#45;&gt;Node9 -->
<g id="edge78" class="edge">
<title>Node35&#45;&gt;Node9</title>
<path fill="none" stroke="midnightblue" d="M461.03,-310.92C501.66,-300.31 553.8,-286.7 592.44,-276.61"/>
<polygon fill="midnightblue" stroke="midnightblue" points="460.01,-307.56 451.22,-313.48 461.78,-314.34 460.01,-307.56"/>
</g>
<!-- Node35&#45;&gt;Node10 -->
<g id="edge79" class="edge">
<title>Node35&#45;&gt;Node10</title>
<path fill="none" stroke="midnightblue" d="M391.62,-303.6C388.83,-292.28 385.68,-279.46 383.64,-271.19"/>
<polygon fill="midnightblue" stroke="midnightblue" points="388.24,-304.52 394.03,-313.4 395.04,-302.85 388.24,-304.52"/>
</g>
<!-- Node35&#45;&gt;Node11 -->
<g id="edge80" class="edge">
<title>Node35&#45;&gt;Node11</title>
<path fill="none" stroke="midnightblue" d="M329.45,-312.99C252.89,-296.78 176.07,-280.65 130.27,-271.04"/>
<polygon fill="midnightblue" stroke="midnightblue" points="328.76,-316.42 339.26,-315.07 330.21,-309.58 328.76,-316.42"/>
</g>
<!-- Node35&#45;&gt;Node15 -->
<g id="edge81" class="edge">
<title>Node35&#45;&gt;Node15</title>
<path fill="none" stroke="midnightblue" d="M329.56,-312.86C271.59,-300.04 196.89,-282.61 192.5,-277 184,-266.15 183.48,-256.41 192.5,-246 229.49,-203.31 393.79,-195.87 483.89,-195.08"/>
<polygon fill="midnightblue" stroke="midnightblue" points="328.92,-316.3 339.44,-315.03 330.42,-309.46 328.92,-316.3"/>
</g>
<!-- Node35&#45;&gt;Node16 -->
<g id="edge82" class="edge">
<title>Node35&#45;&gt;Node16</title>
<path fill="none" stroke="midnightblue" d="M431.77,-308.3C449.92,-298.12 471.82,-285.85 488.38,-276.58"/>
<polygon fill="midnightblue" stroke="midnightblue" points="429.68,-305.45 422.67,-313.4 433.1,-311.56 429.68,-305.45"/>
</g>
</g>
</svg>
