<?xml version="1.0" encoding="UTF-8" standalone="no"?>
<!DOCTYPE svg PUBLIC "-//W3C//DTD SVG 1.1//EN"
 "http://www.w3.org/Graphics/SVG/1.1/DTD/svg11.dtd">
<!-- Generated by graphviz version 2.43.0 (0)
 -->
<!-- Title: arg_router/utility/compile_time_string.hpp Pages: 1 -->
<!--zoomable 698 -->
<svg id="main" version="1.1" xmlns="http://www.w3.org/2000/svg" xmlns:xlink="http://www.w3.org/1999/xlink" xml:space="preserve" onload="init(evt)">
<style type="text/css"><![CDATA[
.edge:hover path { stroke: red; }
.edge:hover polygon { stroke: red; fill: red; }
]]></style>
<script type="text/javascript"><![CDATA[
var edges = document.getElementsByTagName('g');
if (edges && edges.length) {
  for (var i=0;i<edges.length;i++) {
    if (edges[i].id.substr(0,4)=='edge') {
      edges[i].setAttribute('class','edge');
    }
  }
}
]]></script>
        <defs>
                <circle id="rim" cx="0" cy="0" r="7"/>
                <circle id="rim2" cx="0" cy="0" r="3.5"/>
                <g id="zoomPlus">
                        <use xlink:href="#rim" fill="#404040">
                                <set attributeName="fill" to="#808080" begin="zoomplus.mouseover" end="zoomplus.mouseout"/>
                        </use>
                        <path d="M-4,0h8M0,-4v8" fill="none" stroke="white" stroke-width="1.5" pointer-events="none"/>
                </g>
                <g id="zoomMin">
                        <use xlink:href="#rim" fill="#404040">
                                <set attributeName="fill" to="#808080" begin="zoomminus.mouseover" end="zoomminus.mouseout"/>
                        </use>
                        <path d="M-4,0h8" fill="none" stroke="white" stroke-width="1.5" pointer-events="none"/>
                </g>
                <g id="dirArrow">
                        <path fill="none" stroke="white" stroke-width="1.5" d="M0,-3.0v7 M-2.5,-0.5L0,-3.0L2.5,-0.5"/>
                </g>
               <g id="resetDef">
                       <use xlink:href="#rim2" fill="#404040">
                               <set attributeName="fill" to="#808080" begin="reset.mouseover" end="reset.mouseout"/>
                       </use>
               </g>
        </defs>

<script type="text/javascript">
var viewWidth = 1777;
var viewHeight = 698;
var sectionId = 'dynsection-1';
</script>
<script xlink:href="svgpan.js"/>
<svg id="graph" class="graph">
<g id="viewport">
<title>arg_router/utility/compile_time_string.hpp</title>
<!-- Node1 -->
<g id="node1" class="node">
<title>Node1</title>
<g id="a_node1"><a xlink:title=" ">
<polygon fill="#bfbfbf" stroke="black" points="1370,-659.5 1370,-689.5 1510,-689.5 1510,-659.5 1370,-659.5"/>
<text text-anchor="start" x="1378" y="-677.5" font-family="Helvetica,sans-Serif" font-size="10.00">arg_router/utility</text>
<text text-anchor="middle" x="1440" y="-666.5" font-family="Helvetica,sans-Serif" font-size="10.00">/compile_time_string.hpp</text>
</a>
</g>
</g>
<!-- Node2 -->
<g id="node2" class="node">
<title>Node2</title>
<g id="a_node2"><a xlink:href="exception_8hpp_source.html" target="_top" xlink:title=" ">
<polygon fill="none" stroke="black" points="754.5,-598 754.5,-617 893.5,-617 893.5,-598 754.5,-598"/>
<text text-anchor="middle" x="824" y="-605" font-family="Helvetica,sans-Serif" font-size="10.00">arg_router/exception.hpp</text>
</a>
</g>
</g>
<!-- Node1&#45;&gt;Node2 -->
<g id="edge1" class="edge">
<title>Node1&#45;&gt;Node2</title>
<path fill="none" stroke="midnightblue" d="M1359.93,-665.05C1238.21,-652.21 1008.65,-627.98 893.53,-615.84"/>
<polygon fill="midnightblue" stroke="midnightblue" points="1359.62,-668.54 1369.94,-666.11 1360.36,-661.58 1359.62,-668.54"/>
</g>
<!-- Node4 -->
<g id="node4" class="node">
<title>Node4</title>
<g id="a_node4"><a xlink:href="tree__node_8hpp_source.html" target="_top" xlink:title=" ">
<polygon fill="none" stroke="black" points="534,-330 534,-349 674,-349 674,-330 534,-330"/>
<text text-anchor="middle" x="604" y="-337" font-family="Helvetica,sans-Serif" font-size="10.00">arg_router/tree_node.hpp</text>
</a>
</g>
</g>
<!-- Node1&#45;&gt;Node4 -->
<g id="edge72" class="edge">
<title>Node1&#45;&gt;Node4</title>
<path fill="none" stroke="midnightblue" d="M1359.53,-670.38C1056.33,-658.08 0,-610.31 0,-541.5 0,-541.5 0,-541.5 0,-472.5 0,-364.29 374.67,-344.65 533.83,-341.19"/>
<polygon fill="midnightblue" stroke="midnightblue" points="1359.44,-673.87 1369.57,-670.78 1359.72,-666.88 1359.44,-673.87"/>
</g>
<!-- Node29 -->
<g id="node29" class="node">
<title>Node29</title>
<g id="a_node29"><a xlink:href="value__separator_8hpp_source.html" target="_top" xlink:title=" ">
<polygon fill="none" stroke="black" points="1190.5,-391.5 1190.5,-421.5 1319.5,-421.5 1319.5,-391.5 1190.5,-391.5"/>
<text text-anchor="start" x="1198.5" y="-409.5" font-family="Helvetica,sans-Serif" font-size="10.00">arg_router/policy/value</text>
<text text-anchor="middle" x="1255" y="-398.5" font-family="Helvetica,sans-Serif" font-size="10.00">_separator.hpp</text>
</a>
</g>
</g>
<!-- Node1&#45;&gt;Node29 -->
<g id="edge71" class="edge">
<title>Node1&#45;&gt;Node29</title>
<path fill="none" stroke="midnightblue" d="M1482.26,-654.08C1494.41,-646.25 1506.21,-635.96 1513,-623 1519.4,-610.8 1519.3,-604.25 1513,-592 1466.66,-501.9 1353.65,-446 1293.75,-421.69"/>
<polygon fill="midnightblue" stroke="midnightblue" points="1480.21,-651.22 1473.41,-659.34 1483.79,-657.23 1480.21,-651.22"/>
</g>
<!-- Node30 -->
<g id="node30" class="node">
<title>Node30</title>
<g id="a_node30"><a xlink:href="literals_8hpp_source.html" target="_top" xlink:title=" ">
<polygon fill="none" stroke="black" points="1555.5,-464 1555.5,-483 1680.5,-483 1680.5,-464 1555.5,-464"/>
<text text-anchor="middle" x="1618" y="-471" font-family="Helvetica,sans-Serif" font-size="10.00">arg_router/literals.hpp</text>
</a>
</g>
</g>
<!-- Node1&#45;&gt;Node30 -->
<g id="edge61" class="edge">
<title>Node1&#45;&gt;Node30</title>
<path fill="none" stroke="midnightblue" d="M1495.62,-655.39C1513.34,-647.57 1531.97,-636.94 1546,-623 1588.69,-580.6 1609.79,-507.84 1616,-483.05"/>
<polygon fill="midnightblue" stroke="midnightblue" points="1493.79,-652.36 1485.91,-659.45 1496.49,-658.82 1493.79,-652.36"/>
</g>
<!-- Node31 -->
<g id="node31" class="node">
<title>Node31</title>
<g id="a_node31"><a xlink:href="string__selector_8hpp.html" target="_top" xlink:title=" ">
<polygon fill="none" stroke="black" points="1647,-123.5 1647,-153.5 1769,-153.5 1769,-123.5 1647,-123.5"/>
<text text-anchor="start" x="1655" y="-141.5" font-family="Helvetica,sans-Serif" font-size="10.00">arg_router/multi_lang</text>
<text text-anchor="middle" x="1708" y="-130.5" font-family="Helvetica,sans-Serif" font-size="10.00">/string_selector.hpp</text>
</a>
</g>
</g>
<!-- Node1&#45;&gt;Node31 -->
<g id="edge63" class="edge">
<title>Node1&#45;&gt;Node31</title>
<path fill="none" stroke="midnightblue" d="M1520.32,-667.52C1599.59,-656.72 1709,-626.43 1709,-541.5 1709,-541.5 1709,-541.5 1709,-271.5 1709,-228.64 1708.47,-177.97 1708.18,-153.76"/>
<polygon fill="midnightblue" stroke="midnightblue" points="1519.8,-664.06 1510.33,-668.8 1520.69,-671 1519.8,-664.06"/>
</g>
<!-- Node32 -->
<g id="node32" class="node">
<title>Node32</title>
<g id="a_node32"><a xlink:href="default__help__formatter_8hpp_source.html" target="_top" xlink:title=" ">
<polygon fill="none" stroke="black" points="1323.5,-324.5 1323.5,-354.5 1460.5,-354.5 1460.5,-324.5 1323.5,-324.5"/>
<text text-anchor="start" x="1331.5" y="-342.5" font-family="Helvetica,sans-Serif" font-size="10.00">arg_router/policy/default</text>
<text text-anchor="middle" x="1392" y="-331.5" font-family="Helvetica,sans-Serif" font-size="10.00">_help_formatter.hpp</text>
</a>
</g>
</g>
<!-- Node1&#45;&gt;Node32 -->
<g id="edge65" class="edge">
<title>Node1&#45;&gt;Node32</title>
<path fill="none" stroke="midnightblue" d="M1401.59,-653.89C1389.23,-645.85 1376.53,-635.47 1368,-623 1346.94,-592.22 1348,-578.8 1348,-541.5 1348,-541.5 1348,-541.5 1348,-472.5 1348,-427.57 1371.23,-378.25 1383.93,-354.63"/>
<polygon fill="midnightblue" stroke="midnightblue" points="1400.12,-657.09 1410.48,-659.32 1403.77,-651.12 1400.12,-657.09"/>
</g>
<!-- Node34 -->
<g id="node34" class="node">
<title>Node34</title>
<g id="a_node34"><a xlink:href="short__name_8hpp_source.html" target="_top" xlink:title=" ">
<polygon fill="none" stroke="black" points="1376.5,-592.5 1376.5,-622.5 1503.5,-622.5 1503.5,-592.5 1376.5,-592.5"/>
<text text-anchor="start" x="1384.5" y="-610.5" font-family="Helvetica,sans-Serif" font-size="10.00">arg_router/policy/short</text>
<text text-anchor="middle" x="1440" y="-599.5" font-family="Helvetica,sans-Serif" font-size="10.00">_name.hpp</text>
</a>
</g>
</g>
<!-- Node1&#45;&gt;Node34 -->
<g id="edge69" class="edge">
<title>Node1&#45;&gt;Node34</title>
<path fill="none" stroke="midnightblue" d="M1440,-649.11C1440,-640.15 1440,-630.32 1440,-622.58"/>
<polygon fill="midnightblue" stroke="midnightblue" points="1436.5,-649.4 1440,-659.4 1443.5,-649.4 1436.5,-649.4"/>
</g>
<!-- Node3 -->
<g id="node3" class="node">
<title>Node3</title>
<g id="a_node3"><a xlink:href="global__parser_8hpp_source.html" target="_top" xlink:title=" ">
<polygon fill="none" stroke="black" points="482,-458.5 482,-488.5 588,-488.5 588,-458.5 482,-458.5"/>
<text text-anchor="start" x="490" y="-476.5" font-family="Helvetica,sans-Serif" font-size="10.00">arg_router/parsing</text>
<text text-anchor="middle" x="535" y="-465.5" font-family="Helvetica,sans-Serif" font-size="10.00">/global_parser.hpp</text>
</a>
</g>
</g>
<!-- Node2&#45;&gt;Node3 -->
<g id="edge2" class="edge">
<title>Node2&#45;&gt;Node3</title>
<path fill="none" stroke="midnightblue" d="M795.64,-593.55C741.14,-568.65 622.18,-514.32 565.81,-488.57"/>
<polygon fill="midnightblue" stroke="midnightblue" points="794.49,-596.87 805.04,-597.84 797.4,-590.5 794.49,-596.87"/>
</g>
<!-- Node21 -->
<g id="node21" class="node">
<title>Node21</title>
<g id="a_node21"><a xlink:href="exception__translator_8hpp_source.html" target="_top" xlink:title=" ">
<polygon fill="none" stroke="black" points="971,-525.5 971,-555.5 1121,-555.5 1121,-525.5 971,-525.5"/>
<text text-anchor="start" x="979" y="-543.5" font-family="Helvetica,sans-Serif" font-size="10.00">arg_router/policy/exception</text>
<text text-anchor="middle" x="1046" y="-532.5" font-family="Helvetica,sans-Serif" font-size="10.00">_translator.hpp</text>
</a>
</g>
</g>
<!-- Node2&#45;&gt;Node21 -->
<g id="edge33" class="edge">
<title>Node2&#45;&gt;Node21</title>
<path fill="none" stroke="midnightblue" d="M863.08,-595.06C900.72,-584.04 957.73,-567.34 998.09,-555.53"/>
<polygon fill="midnightblue" stroke="midnightblue" points="862.09,-591.7 853.48,-597.87 864.06,-598.42 862.09,-591.7"/>
</g>
<!-- Node22 -->
<g id="node22" class="node">
<title>Node22</title>
<g id="a_node22"><a xlink:href="min__max__count_8hpp_source.html" target="_top" xlink:title=" ">
<polygon fill="none" stroke="black" points="809.5,-391.5 809.5,-421.5 930.5,-421.5 930.5,-391.5 809.5,-391.5"/>
<text text-anchor="start" x="817.5" y="-409.5" font-family="Helvetica,sans-Serif" font-size="10.00">arg_router/policy/min</text>
<text text-anchor="middle" x="870" y="-398.5" font-family="Helvetica,sans-Serif" font-size="10.00">_max_count.hpp</text>
</a>
</g>
</g>
<!-- Node2&#45;&gt;Node22 -->
<g id="edge35" class="edge">
<title>Node2&#45;&gt;Node22</title>
<path fill="none" stroke="midnightblue" d="M833.55,-588.71C838.26,-579.24 843.64,-567.25 847,-556 861.35,-508.01 867.11,-448.47 869.1,-421.7"/>
<polygon fill="midnightblue" stroke="midnightblue" points="830.31,-587.35 828.83,-597.85 836.53,-590.57 830.31,-587.35"/>
</g>
<!-- Node23 -->
<g id="node23" class="node">
<title>Node23</title>
<g id="a_node23"><a xlink:href="min__max__value_8hpp_source.html" target="_top" xlink:title=" ">
<polygon fill="none" stroke="black" points="365.5,-391.5 365.5,-421.5 486.5,-421.5 486.5,-391.5 365.5,-391.5"/>
<text text-anchor="start" x="373.5" y="-409.5" font-family="Helvetica,sans-Serif" font-size="10.00">arg_router/policy/min</text>
<text text-anchor="middle" x="426" y="-398.5" font-family="Helvetica,sans-Serif" font-size="10.00">_max_value.hpp</text>
</a>
</g>
</g>
<!-- Node2&#45;&gt;Node23 -->
<g id="edge42" class="edge">
<title>Node2&#45;&gt;Node23</title>
<path fill="none" stroke="midnightblue" d="M744.31,-597.19C667.14,-584.5 550.71,-555.21 473,-489 451.37,-470.57 437.43,-439.54 430.72,-421.56"/>
<polygon fill="midnightblue" stroke="midnightblue" points="744.04,-600.69 754.46,-598.8 745.13,-593.77 744.04,-600.69"/>
</g>
<!-- Node24 -->
<g id="node24" class="node">
<title>Node24</title>
<g id="a_node24"><a xlink:href="required_8hpp_source.html" target="_top" xlink:title=" ">
<polygon fill="none" stroke="black" points="970,-397 970,-416 1134,-416 1134,-397 970,-397"/>
<text text-anchor="middle" x="1052" y="-404" font-family="Helvetica,sans-Serif" font-size="10.00">arg_router/policy/required.hpp</text>
</a>
</g>
</g>
<!-- Node2&#45;&gt;Node24 -->
<g id="edge44" class="edge">
<title>Node2&#45;&gt;Node24</title>
<path fill="none" stroke="midnightblue" d="M903.82,-604.63C984.59,-600.85 1101.52,-589.56 1130,-556 1169.19,-509.81 1093.2,-440.65 1063.33,-416.33"/>
<polygon fill="midnightblue" stroke="midnightblue" points="903.5,-601.14 893.66,-605.08 903.8,-608.14 903.5,-601.14"/>
</g>
<!-- Node25 -->
<g id="node25" class="node">
<title>Node25</title>
<g id="a_node25"><a xlink:href="router_8hpp_source.html" target="_top" xlink:title=" ">
<polygon fill="none" stroke="black" points="118,-531 118,-550 270,-550 270,-531 118,-531"/>
<text text-anchor="middle" x="194" y="-538" font-family="Helvetica,sans-Serif" font-size="10.00">arg_router/policy/router.hpp</text>
</a>
</g>
</g>
<!-- Node2&#45;&gt;Node25 -->
<g id="edge46" class="edge">
<title>Node2&#45;&gt;Node25</title>
<path fill="none" stroke="midnightblue" d="M744.44,-598.29C622.29,-585.69 390.13,-561.74 270.1,-549.35"/>
<polygon fill="midnightblue" stroke="midnightblue" points="744.17,-601.78 754.47,-599.33 744.89,-594.82 744.17,-601.78"/>
</g>
<!-- Node26 -->
<g id="node26" class="node">
<title>Node26</title>
<g id="a_node26"><a xlink:href="result_8hpp_source.html" target="_top" xlink:title=" ">
<polygon fill="none" stroke="black" points="740,-525.5 740,-555.5 838,-555.5 838,-525.5 740,-525.5"/>
<text text-anchor="start" x="748" y="-543.5" font-family="Helvetica,sans-Serif" font-size="10.00">arg_router/utility</text>
<text text-anchor="middle" x="789" y="-532.5" font-family="Helvetica,sans-Serif" font-size="10.00">/result.hpp</text>
</a>
</g>
</g>
<!-- Node2&#45;&gt;Node26 -->
<g id="edge48" class="edge">
<title>Node2&#45;&gt;Node26</title>
<path fill="none" stroke="midnightblue" d="M814.42,-588.71C808.81,-578.29 801.82,-565.3 796.59,-555.59"/>
<polygon fill="midnightblue" stroke="midnightblue" points="811.46,-590.59 819.28,-597.73 817.62,-587.27 811.46,-590.59"/>
</g>
<!-- Node3&#45;&gt;Node4 -->
<g id="edge3" class="edge">
<title>Node3&#45;&gt;Node4</title>
<path fill="none" stroke="midnightblue" d="M547.03,-449.49C562.61,-419.68 589.01,-369.17 599.51,-349.1"/>
<polygon fill="midnightblue" stroke="midnightblue" points="543.92,-447.89 542.38,-458.37 550.12,-451.13 543.92,-447.89"/>
</g>
<!-- Node5 -->
<g id="node5" class="node">
<title>Node5</title>
<g id="a_node5"><a xlink:href="arg_8hpp_source.html" target="_top" xlink:title=" ">
<polygon fill="none" stroke="black" points="550.5,-263 550.5,-282 657.5,-282 657.5,-263 550.5,-263"/>
<text text-anchor="middle" x="604" y="-270" font-family="Helvetica,sans-Serif" font-size="10.00">arg_router/arg.hpp</text>
</a>
</g>
</g>
<!-- Node4&#45;&gt;Node5 -->
<g id="edge4" class="edge">
<title>Node4&#45;&gt;Node5</title>
<path fill="none" stroke="midnightblue" d="M604,-319.54C604,-307.17 604,-291.62 604,-282.13"/>
<polygon fill="midnightblue" stroke="midnightblue" points="600.5,-319.73 604,-329.73 607.5,-319.73 600.5,-319.73"/>
</g>
<!-- Node9 -->
<g id="node9" class="node">
<title>Node9</title>
<g id="a_node9"><a xlink:href="counting__flag_8hpp_source.html" target="_top" xlink:title=" ">
<polygon fill="none" stroke="black" points="803,-257.5 803,-287.5 915,-287.5 915,-257.5 803,-257.5"/>
<text text-anchor="start" x="811" y="-275.5" font-family="Helvetica,sans-Serif" font-size="10.00">arg_router/counting</text>
<text text-anchor="middle" x="859" y="-264.5" font-family="Helvetica,sans-Serif" font-size="10.00">_flag.hpp</text>
</a>
</g>
</g>
<!-- Node4&#45;&gt;Node9 -->
<g id="edge9" class="edge">
<title>Node4&#45;&gt;Node9</title>
<path fill="none" stroke="midnightblue" d="M647.51,-327.41C690.69,-316.4 757,-299.5 803.84,-287.56"/>
<polygon fill="midnightblue" stroke="midnightblue" points="646.42,-324.07 637.6,-329.94 648.15,-330.86 646.42,-324.07"/>
</g>
<!-- Node10 -->
<g id="node10" class="node">
<title>Node10</title>
<g id="a_node10"><a xlink:href="detail_8hpp_source.html" target="_top" xlink:title=" ">
<polygon fill="none" stroke="black" points="403.5,-257.5 403.5,-287.5 532.5,-287.5 532.5,-257.5 403.5,-257.5"/>
<text text-anchor="start" x="411.5" y="-275.5" font-family="Helvetica,sans-Serif" font-size="10.00">arg_router/dependency</text>
<text text-anchor="middle" x="468" y="-264.5" font-family="Helvetica,sans-Serif" font-size="10.00">/detail.hpp</text>
</a>
</g>
</g>
<!-- Node4&#45;&gt;Node10 -->
<g id="edge11" class="edge">
<title>Node4&#45;&gt;Node10</title>
<path fill="none" stroke="midnightblue" d="M576.75,-325.47C553.75,-314.49 520.92,-298.79 497.35,-287.53"/>
<polygon fill="midnightblue" stroke="midnightblue" points="575.41,-328.71 585.94,-329.87 578.43,-322.4 575.41,-328.71"/>
</g>
<!-- Node13 -->
<g id="node13" class="node">
<title>Node13</title>
<g id="a_node13"><a xlink:href="flag_8hpp_source.html" target="_top" xlink:title=" ">
<polygon fill="none" stroke="black" points="675.5,-263 675.5,-282 784.5,-282 784.5,-263 675.5,-263"/>
<text text-anchor="middle" x="730" y="-270" font-family="Helvetica,sans-Serif" font-size="10.00">arg_router/flag.hpp</text>
</a>
</g>
</g>
<!-- Node4&#45;&gt;Node13 -->
<g id="edge16" class="edge">
<title>Node4&#45;&gt;Node13</title>
<path fill="none" stroke="midnightblue" d="M629.64,-325.27C654.59,-312.4 691.8,-293.21 713.2,-282.17"/>
<polygon fill="midnightblue" stroke="midnightblue" points="628.01,-322.17 620.73,-329.87 631.22,-328.39 628.01,-322.17"/>
</g>
<!-- Node14 -->
<g id="node14" class="node">
<title>Node14</title>
<g id="a_node14"><a xlink:href="mode_8hpp_source.html" target="_top" xlink:title=" ">
<polygon fill="none" stroke="black" points="297.5,-196 297.5,-215 416.5,-215 416.5,-196 297.5,-196"/>
<text text-anchor="middle" x="357" y="-203" font-family="Helvetica,sans-Serif" font-size="10.00">arg_router/mode.hpp</text>
</a>
</g>
</g>
<!-- Node4&#45;&gt;Node14 -->
<g id="edge18" class="edge">
<title>Node4&#45;&gt;Node14</title>
<path fill="none" stroke="midnightblue" d="M523.62,-331.72C430.66,-323.06 288.23,-306.89 272,-288 247.28,-259.24 303.02,-229.37 335.59,-215.09"/>
<polygon fill="midnightblue" stroke="midnightblue" points="523.58,-335.23 533.86,-332.67 524.22,-328.26 523.58,-335.23"/>
</g>
<!-- Node15 -->
<g id="node15" class="node">
<title>Node15</title>
<g id="a_node15"><a xlink:href="help_8hpp_source.html" target="_top" xlink:title=" ">
<polygon fill="none" stroke="black" points="1235,-263 1235,-282 1347,-282 1347,-263 1235,-263"/>
<text text-anchor="middle" x="1291" y="-270" font-family="Helvetica,sans-Serif" font-size="10.00">arg_router/help.hpp</text>
</a>
</g>
</g>
<!-- Node4&#45;&gt;Node15 -->
<g id="edge20" class="edge">
<title>Node4&#45;&gt;Node15</title>
<path fill="none" stroke="midnightblue" d="M684.49,-330.78C708.75,-328.51 735.46,-326.09 760,-324 966.98,-306.39 1020.55,-318.69 1226,-288 1236.18,-286.48 1247.13,-284.26 1257.1,-282.02"/>
<polygon fill="midnightblue" stroke="midnightblue" points="683.89,-327.32 674.26,-331.74 684.54,-334.29 683.89,-327.32"/>
</g>
<!-- Node16 -->
<g id="node16" class="node">
<title>Node16</title>
<g id="a_node16"><a xlink:href="positional__arg_8hpp_source.html" target="_top" xlink:title=" ">
<polygon fill="none" stroke="black" points="971,-257.5 971,-287.5 1089,-287.5 1089,-257.5 971,-257.5"/>
<text text-anchor="start" x="979" y="-275.5" font-family="Helvetica,sans-Serif" font-size="10.00">arg_router/positional</text>
<text text-anchor="middle" x="1030" y="-264.5" font-family="Helvetica,sans-Serif" font-size="10.00">_arg.hpp</text>
</a>
</g>
</g>
<!-- Node4&#45;&gt;Node16 -->
<g id="edge22" class="edge">
<title>Node4&#45;&gt;Node16</title>
<path fill="none" stroke="midnightblue" d="M670.12,-328.41C752.4,-315.86 891.67,-294.61 970.66,-282.55"/>
<polygon fill="midnightblue" stroke="midnightblue" points="669.49,-324.97 660.13,-329.94 670.54,-331.89 669.49,-324.97"/>
</g>
<!-- Node17 -->
<g id="node17" class="node">
<title>Node17</title>
<g id="a_node17"><a xlink:href="root_8hpp_source.html" target="_top" xlink:title=" ">
<polygon fill="none" stroke="black" points="1107,-263 1107,-282 1217,-282 1217,-263 1107,-263"/>
<text text-anchor="middle" x="1162" y="-270" font-family="Helvetica,sans-Serif" font-size="10.00">arg_router/root.hpp</text>
</a>
</g>
</g>
<!-- Node4&#45;&gt;Node17 -->
<g id="edge24" class="edge">
<title>Node4&#45;&gt;Node17</title>
<path fill="none" stroke="midnightblue" d="M684.28,-330.83C813.77,-318.38 1058.29,-294.5 1098,-288 1107.78,-286.4 1118.31,-284.21 1127.94,-282.02"/>
<polygon fill="midnightblue" stroke="midnightblue" points="683.64,-327.38 674.02,-331.82 684.31,-334.34 683.64,-327.38"/>
</g>
<!-- Node18 -->
<g id="node18" class="node">
<title>Node18</title>
<g id="a_node18"><a xlink:href="tree__recursor_8hpp_source.html" target="_top" xlink:title=" ">
<polygon fill="none" stroke="black" points="281,-257.5 281,-287.5 385,-287.5 385,-257.5 281,-257.5"/>
<text text-anchor="start" x="289" y="-275.5" font-family="Helvetica,sans-Serif" font-size="10.00">arg_router/utility</text>
<text text-anchor="middle" x="333" y="-264.5" font-family="Helvetica,sans-Serif" font-size="10.00">/tree_recursor.hpp</text>
</a>
</g>
</g>
<!-- Node4&#45;&gt;Node18 -->
<g id="edge26" class="edge">
<title>Node4&#45;&gt;Node18</title>
<path fill="none" stroke="midnightblue" d="M558.5,-327.59C510.6,-316.1 435.29,-298.03 385.04,-285.98"/>
<polygon fill="midnightblue" stroke="midnightblue" points="557.75,-331.01 568.29,-329.94 559.38,-324.2 557.75,-331.01"/>
</g>
<!-- Node6 -->
<g id="node6" class="node">
<title>Node6</title>
<g id="a_node6"><a xlink:href="validator_8hpp_source.html" target="_top" xlink:title=" ">
<polygon fill="none" stroke="black" points="935,-129 935,-148 1101,-148 1101,-129 935,-129"/>
<text text-anchor="middle" x="1018" y="-136" font-family="Helvetica,sans-Serif" font-size="10.00">arg_router/policy/validator.hpp</text>
</a>
</g>
</g>
<!-- Node5&#45;&gt;Node6 -->
<g id="edge5" class="edge">
<title>Node5&#45;&gt;Node6</title>
<path fill="none" stroke="midnightblue" d="M648.71,-260.71C654.84,-259.38 661.06,-258.1 667,-257 779.98,-236.1 819.39,-270.66 923,-221 941.15,-212.3 940.86,-203.25 956,-190 973.34,-174.82 994.26,-158.1 1006.83,-148.21"/>
<polygon fill="midnightblue" stroke="midnightblue" points="647.54,-257.38 638.55,-262.98 649.07,-264.21 647.54,-257.38"/>
</g>
<!-- Node7 -->
<g id="node7" class="node">
<title>Node7</title>
<g id="a_node7"><a xlink:href="arg__router_8hpp_source.html" target="_top" xlink:title=" ">
<polygon fill="none" stroke="black" points="1286,-0.5 1286,-19.5 1426,-19.5 1426,-0.5 1286,-0.5"/>
<text text-anchor="middle" x="1356" y="-7.5" font-family="Helvetica,sans-Serif" font-size="10.00">arg_router/arg_router.hpp</text>
</a>
</g>
</g>
<!-- Node6&#45;&gt;Node7 -->
<g id="edge6" class="edge">
<title>Node6&#45;&gt;Node7</title>
<path fill="none" stroke="midnightblue" d="M1035.56,-122.4C1058.02,-103.9 1098.85,-72.91 1139,-56 1185.81,-36.29 1242.04,-24.94 1285.53,-18.57"/>
<polygon fill="midnightblue" stroke="midnightblue" points="1033.3,-119.73 1027.89,-128.83 1037.8,-125.09 1033.3,-119.73"/>
</g>
<!-- Node8 -->
<g id="node8" class="node">
<title>Node8</title>
<g id="a_node8"><a xlink:href="validator__rule__utilities_8hpp_source.html" target="_top" xlink:title=" ">
<polygon fill="none" stroke="black" points="1148,-56.5 1148,-86.5 1294,-86.5 1294,-56.5 1148,-56.5"/>
<text text-anchor="start" x="1156" y="-74.5" font-family="Helvetica,sans-Serif" font-size="10.00">arg_router/policy/validator</text>
<text text-anchor="middle" x="1221" y="-63.5" font-family="Helvetica,sans-Serif" font-size="10.00">_rule_utilities.hpp</text>
</a>
</g>
</g>
<!-- Node6&#45;&gt;Node8 -->
<g id="edge7" class="edge">
<title>Node6&#45;&gt;Node8</title>
<path fill="none" stroke="midnightblue" d="M1054.62,-125.77C1089.04,-114.75 1140.6,-98.24 1177.19,-86.53"/>
<polygon fill="midnightblue" stroke="midnightblue" points="1053.41,-122.49 1044.96,-128.87 1055.55,-129.15 1053.41,-122.49"/>
</g>
<!-- Node8&#45;&gt;Node7 -->
<g id="edge8" class="edge">
<title>Node8&#45;&gt;Node7</title>
<path fill="none" stroke="midnightblue" d="M1262.46,-52.23C1287.04,-41.39 1317.07,-28.16 1336.36,-19.66"/>
<polygon fill="midnightblue" stroke="midnightblue" points="1260.73,-49.16 1252.99,-56.4 1263.56,-55.57 1260.73,-49.16"/>
</g>
<!-- Node9&#45;&gt;Node6 -->
<g id="edge10" class="edge">
<title>Node9&#45;&gt;Node6</title>
<path fill="none" stroke="midnightblue" d="M920.19,-254.45C950.69,-244.84 983.31,-232.49 994,-221 1013.3,-200.27 1017.15,-164.79 1017.87,-148.35"/>
<polygon fill="midnightblue" stroke="midnightblue" points="918.92,-251.18 910.39,-257.47 920.98,-257.87 918.92,-251.18"/>
</g>
<!-- Node11 -->
<g id="node11" class="node">
<title>Node11</title>
<g id="a_node11"><a xlink:href="alias__group_8hpp_source.html" target="_top" xlink:title=" ">
<polygon fill="none" stroke="black" points="784.5,-190.5 784.5,-220.5 913.5,-220.5 913.5,-190.5 784.5,-190.5"/>
<text text-anchor="start" x="792.5" y="-208.5" font-family="Helvetica,sans-Serif" font-size="10.00">arg_router/dependency</text>
<text text-anchor="middle" x="849" y="-197.5" font-family="Helvetica,sans-Serif" font-size="10.00">/alias_group.hpp</text>
</a>
</g>
</g>
<!-- Node10&#45;&gt;Node11 -->
<g id="edge12" class="edge">
<title>Node10&#45;&gt;Node11</title>
<path fill="none" stroke="midnightblue" d="M542.58,-256.95C647.34,-238.89 675.51,-238.7 776,-221 778.67,-220.53 781.4,-220.04 784.15,-219.53"/>
<polygon fill="midnightblue" stroke="midnightblue" points="541.8,-253.53 532.55,-258.69 543,-260.43 541.8,-253.53"/>
</g>
<!-- Node12 -->
<g id="node12" class="node">
<title>Node12</title>
<g id="a_node12"><a xlink:href="one__of_8hpp_source.html" target="_top" xlink:title=" ">
<polygon fill="none" stroke="black" points="637.5,-190.5 637.5,-220.5 766.5,-220.5 766.5,-190.5 637.5,-190.5"/>
<text text-anchor="start" x="645.5" y="-208.5" font-family="Helvetica,sans-Serif" font-size="10.00">arg_router/dependency</text>
<text text-anchor="middle" x="702" y="-197.5" font-family="Helvetica,sans-Serif" font-size="10.00">/one_of.hpp</text>
</a>
</g>
</g>
<!-- Node10&#45;&gt;Node12 -->
<g id="edge14" class="edge">
<title>Node10&#45;&gt;Node12</title>
<path fill="none" stroke="midnightblue" d="M528.43,-254.71C566.51,-244.14 615.11,-230.63 651.2,-220.61"/>
<polygon fill="midnightblue" stroke="midnightblue" points="527.18,-251.43 518.49,-257.48 529.06,-258.17 527.18,-251.43"/>
</g>
<!-- Node11&#45;&gt;Node6 -->
<g id="edge13" class="edge">
<title>Node11&#45;&gt;Node6</title>
<path fill="none" stroke="midnightblue" d="M895.06,-186.78C927.83,-174.18 970.4,-157.81 995.88,-148.01"/>
<polygon fill="midnightblue" stroke="midnightblue" points="893.75,-183.54 885.67,-190.4 896.26,-190.07 893.75,-183.54"/>
</g>
<!-- Node12&#45;&gt;Node6 -->
<g id="edge15" class="edge">
<title>Node12&#45;&gt;Node6</title>
<path fill="none" stroke="midnightblue" d="M776.51,-189.17C838.94,-176.33 925.77,-158.47 976.51,-148.03"/>
<polygon fill="midnightblue" stroke="midnightblue" points="775.8,-185.75 766.71,-191.19 777.21,-192.6 775.8,-185.75"/>
</g>
<!-- Node13&#45;&gt;Node6 -->
<g id="edge17" class="edge">
<title>Node13&#45;&gt;Node6</title>
<path fill="none" stroke="midnightblue" d="M777.48,-260.72C783.05,-259.46 788.65,-258.2 794,-257 865.97,-240.85 893.89,-260.77 956,-221 985.05,-202.4 1005.67,-165.19 1013.96,-148.25"/>
<polygon fill="midnightblue" stroke="midnightblue" points="776.54,-257.34 767.56,-262.96 778.08,-264.17 776.54,-257.34"/>
</g>
<!-- Node14&#45;&gt;Node6 -->
<g id="edge19" class="edge">
<title>Node14&#45;&gt;Node6</title>
<path fill="none" stroke="midnightblue" d="M406.29,-194.08C414.52,-192.56 422.98,-191.13 431,-190 609.52,-164.9 820.47,-150.43 934.57,-143.84"/>
<polygon fill="midnightblue" stroke="midnightblue" points="405.59,-190.65 396.42,-195.96 406.9,-197.52 405.59,-190.65"/>
</g>
<!-- Node15&#45;&gt;Node6 -->
<g id="edge21" class="edge">
<title>Node15&#45;&gt;Node6</title>
<path fill="none" stroke="midnightblue" d="M1263.84,-258.37C1208.08,-231.41 1082.07,-170.48 1035.62,-148.02"/>
<polygon fill="midnightblue" stroke="midnightblue" points="1262.56,-261.64 1273.09,-262.84 1265.61,-255.34 1262.56,-261.64"/>
</g>
<!-- Node16&#45;&gt;Node6 -->
<g id="edge23" class="edge">
<title>Node16&#45;&gt;Node6</title>
<path fill="none" stroke="midnightblue" d="M1052.57,-249.62C1059.55,-241.38 1066.36,-231.46 1070,-221 1074.53,-207.99 1075.37,-202.69 1070,-190 1062.35,-171.92 1044.72,-157.12 1032.11,-148.32"/>
<polygon fill="midnightblue" stroke="midnightblue" points="1049.78,-247.49 1045.65,-257.25 1054.96,-252.19 1049.78,-247.49"/>
</g>
<!-- Node17&#45;&gt;Node6 -->
<g id="edge25" class="edge">
<title>Node17&#45;&gt;Node6</title>
<path fill="none" stroke="midnightblue" d="M1147.93,-255.04C1133.03,-238.01 1108.47,-211 1085,-190 1067.09,-173.98 1044.43,-157.63 1030.59,-148.03"/>
<polygon fill="midnightblue" stroke="midnightblue" points="1145.59,-257.69 1154.78,-262.96 1150.88,-253.11 1145.59,-257.69"/>
</g>
<!-- Node18&#45;&gt;Node6 -->
<g id="edge32" class="edge">
<title>Node18&#45;&gt;Node6</title>
<path fill="none" stroke="midnightblue" d="M371.47,-252.67C388.6,-243.77 408.75,-232.57 426,-221 444.1,-208.86 443.82,-198.24 464,-190 547.1,-156.07 801.59,-144.79 934.77,-141.16"/>
<polygon fill="midnightblue" stroke="midnightblue" points="369.61,-249.69 362.3,-257.37 372.8,-255.92 369.61,-249.69"/>
</g>
<!-- Node18&#45;&gt;Node14 -->
<g id="edge27" class="edge">
<title>Node18&#45;&gt;Node14</title>
<path fill="none" stroke="midnightblue" d="M341.7,-247.94C345.91,-236.54 350.71,-223.55 353.79,-215.19"/>
<polygon fill="midnightblue" stroke="midnightblue" points="338.39,-246.8 338.21,-257.4 344.95,-249.23 338.39,-246.8"/>
</g>
<!-- Node19 -->
<g id="node19" class="node">
<title>Node19</title>
<g id="a_node19"><a xlink:href="alias_8hpp_source.html" target="_top" xlink:title=" ">
<polygon fill="none" stroke="black" points="473,-196 473,-215 619,-215 619,-196 473,-196"/>
<text text-anchor="middle" x="546" y="-203" font-family="Helvetica,sans-Serif" font-size="10.00">arg_router/policy/alias.hpp</text>
</a>
</g>
</g>
<!-- Node18&#45;&gt;Node19 -->
<g id="edge28" class="edge">
<title>Node18&#45;&gt;Node19</title>
<path fill="none" stroke="midnightblue" d="M388.67,-254.51C430.24,-241.83 485.31,-225.02 518.05,-215.03"/>
<polygon fill="midnightblue" stroke="midnightblue" points="387.5,-251.21 378.96,-257.48 389.54,-257.9 387.5,-251.21"/>
</g>
<!-- Node20 -->
<g id="node20" class="node">
<title>Node20</title>
<g id="a_node20"><a xlink:href="dependent_8hpp_source.html" target="_top" xlink:title=" ">
<polygon fill="none" stroke="black" points="104.5,-196 104.5,-215 279.5,-215 279.5,-196 104.5,-196"/>
<text text-anchor="middle" x="192" y="-203" font-family="Helvetica,sans-Serif" font-size="10.00">arg_router/policy/dependent.hpp</text>
</a>
</g>
</g>
<!-- Node18&#45;&gt;Node20 -->
<g id="edge30" class="edge">
<title>Node18&#45;&gt;Node20</title>
<path fill="none" stroke="midnightblue" d="M293.15,-253.13C266.02,-240.62 231.35,-224.64 210.45,-215.01"/>
<polygon fill="midnightblue" stroke="midnightblue" points="291.86,-256.39 302.41,-257.4 294.79,-250.03 291.86,-256.39"/>
</g>
<!-- Node19&#45;&gt;Node6 -->
<g id="edge29" class="edge">
<title>Node19&#45;&gt;Node6</title>
<path fill="none" stroke="midnightblue" d="M603,-194.2C611.7,-192.73 620.58,-191.28 629,-190 738.74,-173.3 866.44,-157.39 944.74,-148.04"/>
<polygon fill="midnightblue" stroke="midnightblue" points="602.17,-190.79 592.91,-195.94 603.36,-197.69 602.17,-190.79"/>
</g>
<!-- Node20&#45;&gt;Node7 -->
<g id="edge31" class="edge">
<title>Node20&#45;&gt;Node7</title>
<path fill="none" stroke="midnightblue" d="M252.41,-194.28C395.81,-170.05 767.96,-107.3 1079,-56 1157,-43.14 1247.39,-28.5 1303.14,-19.51"/>
<polygon fill="midnightblue" stroke="midnightblue" points="251.77,-190.84 242.49,-195.96 252.93,-197.74 251.77,-190.84"/>
</g>
<!-- Node21&#45;&gt;Node17 -->
<g id="edge34" class="edge">
<title>Node21&#45;&gt;Node17</title>
<path fill="none" stroke="midnightblue" d="M1069.93,-518.39C1092.82,-496.68 1126.26,-460.65 1143,-422 1164.38,-372.63 1163.61,-306.01 1162.53,-282.31"/>
<polygon fill="midnightblue" stroke="midnightblue" points="1067.27,-516.09 1062.32,-525.46 1072.03,-521.22 1067.27,-516.09"/>
</g>
<!-- Node22&#45;&gt;Node4 -->
<g id="edge41" class="edge">
<title>Node22&#45;&gt;Node4</title>
<path fill="none" stroke="midnightblue" d="M802.76,-389.07C750.6,-376.32 680.4,-359.17 638.9,-349.03"/>
<polygon fill="midnightblue" stroke="midnightblue" points="802.06,-392.5 812.61,-391.48 803.73,-385.7 802.06,-392.5"/>
</g>
<!-- Node22&#45;&gt;Node5 -->
<g id="edge36" class="edge">
<title>Node22&#45;&gt;Node5</title>
<path fill="none" stroke="midnightblue" d="M817.31,-388.06C792.48,-379.2 762.74,-367.63 737,-355 712.81,-343.13 645.86,-300.47 617.25,-282.06"/>
<polygon fill="midnightblue" stroke="midnightblue" points="816.32,-391.42 826.91,-391.44 818.64,-384.82 816.32,-391.42"/>
</g>
<!-- Node22&#45;&gt;Node9 -->
<g id="edge37" class="edge">
<title>Node22&#45;&gt;Node9</title>
<path fill="none" stroke="midnightblue" d="M889.71,-383.3C895.85,-375.01 901.83,-365.13 905,-355 909.11,-341.85 909.97,-336.85 905,-324 899.43,-309.62 887.66,-296.82 877.42,-287.71"/>
<polygon fill="midnightblue" stroke="midnightblue" points="886.82,-381.31 883.36,-391.32 892.31,-385.65 886.82,-381.31"/>
</g>
<!-- Node22&#45;&gt;Node13 -->
<g id="edge38" class="edge">
<title>Node22&#45;&gt;Node13</title>
<path fill="none" stroke="midnightblue" d="M808.8,-387.45C791.18,-379.79 773.18,-369.25 760,-355 740.34,-333.75 733.3,-298.53 731,-282.25"/>
<polygon fill="midnightblue" stroke="midnightblue" points="807.93,-390.87 818.51,-391.41 810.57,-384.39 807.93,-390.87"/>
</g>
<!-- Node22&#45;&gt;Node15 -->
<g id="edge39" class="edge">
<title>Node22&#45;&gt;Node15</title>
<path fill="none" stroke="midnightblue" d="M918.85,-388.02C967.17,-370.95 1043.33,-344.6 1110,-324 1161.43,-308.11 1221.75,-291.72 1258.14,-282.08"/>
<polygon fill="midnightblue" stroke="midnightblue" points="917.54,-384.78 909.28,-391.42 919.87,-391.38 917.54,-384.78"/>
</g>
<!-- Node22&#45;&gt;Node16 -->
<g id="edge40" class="edge">
<title>Node22&#45;&gt;Node16</title>
<path fill="none" stroke="midnightblue" d="M894.92,-384.94C927.77,-357.84 984.69,-310.88 1013,-287.52"/>
<polygon fill="midnightblue" stroke="midnightblue" points="892.61,-382.31 887.12,-391.37 897.06,-387.71 892.61,-382.31"/>
</g>
<!-- Node23&#45;&gt;Node7 -->
<g id="edge43" class="edge">
<title>Node23&#45;&gt;Node7</title>
<path fill="none" stroke="midnightblue" d="M355.48,-393.66C253.26,-374.47 76,-332.66 76,-273.5 76,-273.5 76,-273.5 76,-137.5 76,-14.89 1018.09,-9.55 1285.82,-10.51"/>
<polygon fill="midnightblue" stroke="midnightblue" points="354.96,-397.12 365.43,-395.5 356.24,-390.24 354.96,-397.12"/>
</g>
<!-- Node24&#45;&gt;Node6 -->
<g id="edge45" class="edge">
<title>Node24&#45;&gt;Node6</title>
<path fill="none" stroke="midnightblue" d="M1086.15,-393.47C1163.87,-365.93 1347.93,-299.77 1356,-288 1363.79,-276.64 1363.94,-268.26 1356,-257 1298.8,-175.89 1181.37,-150.26 1101.15,-142.44"/>
<polygon fill="midnightblue" stroke="midnightblue" points="1084.61,-390.3 1076.35,-396.94 1086.94,-396.9 1084.61,-390.3"/>
</g>
<!-- Node25&#45;&gt;Node6 -->
<g id="edge47" class="edge">
<title>Node25&#45;&gt;Node6</title>
<path fill="none" stroke="midnightblue" d="M158.17,-527.32C112.11,-509.12 38,-470.1 38,-407.5 38,-407.5 38,-407.5 38,-271.5 38,-227.3 56.37,-211.48 95,-190 167.27,-149.8 721.55,-141.6 934.78,-139.93"/>
<polygon fill="midnightblue" stroke="midnightblue" points="156.95,-530.6 167.54,-530.89 159.44,-524.06 156.95,-530.6"/>
</g>
<!-- Node27 -->
<g id="node27" class="node">
<title>Node27</title>
<g id="a_node27"><a xlink:href="parsing_8hpp_source.html" target="_top" xlink:title=" ">
<polygon fill="none" stroke="black" points="732,-458.5 732,-488.5 838,-488.5 838,-458.5 732,-458.5"/>
<text text-anchor="start" x="740" y="-476.5" font-family="Helvetica,sans-Serif" font-size="10.00">arg_router/parsing</text>
<text text-anchor="middle" x="785" y="-465.5" font-family="Helvetica,sans-Serif" font-size="10.00">/parsing.hpp</text>
</a>
</g>
</g>
<!-- Node26&#45;&gt;Node27 -->
<g id="edge49" class="edge">
<title>Node26&#45;&gt;Node27</title>
<path fill="none" stroke="midnightblue" d="M787.52,-515.4C786.96,-506.37 786.35,-496.41 785.87,-488.58"/>
<polygon fill="midnightblue" stroke="midnightblue" points="784.02,-515.63 788.13,-525.4 791.01,-515.2 784.02,-515.63"/>
</g>
<!-- Node27&#45;&gt;Node4 -->
<g id="edge60" class="edge">
<title>Node27&#45;&gt;Node4</title>
<path fill="none" stroke="midnightblue" d="M757.34,-452.32C717.12,-422.99 644.21,-369.82 615.79,-349.1"/>
<polygon fill="midnightblue" stroke="midnightblue" points="755.49,-455.31 765.63,-458.37 759.61,-449.65 755.49,-455.31"/>
</g>
<!-- Node27&#45;&gt;Node20 -->
<g id="edge50" class="edge">
<title>Node27&#45;&gt;Node20</title>
<path fill="none" stroke="midnightblue" d="M725.09,-455.62C605.05,-421.12 339.86,-341.29 262,-288 232.45,-267.77 207.85,-232.04 197.4,-215.44"/>
<polygon fill="midnightblue" stroke="midnightblue" points="724.29,-459.03 734.87,-458.42 726.22,-452.3 724.29,-459.03"/>
</g>
<!-- Node27&#45;&gt;Node22 -->
<g id="edge51" class="edge">
<title>Node27&#45;&gt;Node22</title>
<path fill="none" stroke="midnightblue" d="M811.59,-452.17C824.59,-442.23 839.9,-430.51 851.59,-421.58"/>
<polygon fill="midnightblue" stroke="midnightblue" points="809.26,-449.54 803.44,-458.4 813.51,-455.1 809.26,-449.54"/>
</g>
<!-- Node27&#45;&gt;Node23 -->
<g id="edge52" class="edge">
<title>Node27&#45;&gt;Node23</title>
<path fill="none" stroke="midnightblue" d="M721.73,-461.04C655.38,-449.03 551.87,-430.29 486.56,-418.46"/>
<polygon fill="midnightblue" stroke="midnightblue" points="721.18,-464.5 731.64,-462.84 722.43,-457.61 721.18,-464.5"/>
</g>
<!-- Node27&#45;&gt;Node24 -->
<g id="edge53" class="edge">
<title>Node27&#45;&gt;Node24</title>
<path fill="none" stroke="midnightblue" d="M847.99,-457.16C900.72,-444.33 974.03,-426.48 1016.9,-416.05"/>
<polygon fill="midnightblue" stroke="midnightblue" points="846.96,-453.81 838.07,-459.58 848.61,-460.62 846.96,-453.81"/>
</g>
<!-- Node28 -->
<g id="node28" class="node">
<title>Node28</title>
<g id="a_node28"><a xlink:href="short__form__expander_8hpp_source.html" target="_top" xlink:title=" ">
<polygon fill="none" stroke="black" points="768.5,-324.5 768.5,-354.5 895.5,-354.5 895.5,-324.5 768.5,-324.5"/>
<text text-anchor="start" x="776.5" y="-342.5" font-family="Helvetica,sans-Serif" font-size="10.00">arg_router/policy/short</text>
<text text-anchor="middle" x="832" y="-331.5" font-family="Helvetica,sans-Serif" font-size="10.00">_form_expander.hpp</text>
</a>
</g>
</g>
<!-- Node27&#45;&gt;Node28 -->
<g id="edge54" class="edge">
<title>Node27&#45;&gt;Node28</title>
<path fill="none" stroke="midnightblue" d="M787.46,-448.26C789.69,-431.71 793.77,-409.51 801,-391 806.09,-377.97 814.52,-364.53 821.31,-354.79"/>
<polygon fill="midnightblue" stroke="midnightblue" points="783.98,-447.88 786.25,-458.23 790.93,-448.72 783.98,-447.88"/>
</g>
<!-- Node27&#45;&gt;Node29 -->
<g id="edge58" class="edge">
<title>Node27&#45;&gt;Node29</title>
<path fill="none" stroke="midnightblue" d="M847.99,-463.79C937.31,-451.44 1099.91,-428.95 1190.2,-416.46"/>
<polygon fill="midnightblue" stroke="midnightblue" points="847.43,-460.33 838,-465.17 848.39,-467.27 847.43,-460.33"/>
</g>
<!-- Node28&#45;&gt;Node6 -->
<g id="edge57" class="edge">
<title>Node28&#45;&gt;Node6</title>
<path fill="none" stroke="midnightblue" d="M870.04,-319.62C886.98,-310.71 906.92,-299.52 924,-288 942.07,-275.82 944.47,-269.95 962,-257 985.2,-239.86 1002.08,-246.26 1016,-221 1029.05,-197.32 1023.74,-163.61 1020.2,-148.02"/>
<polygon fill="midnightblue" stroke="midnightblue" points="868.24,-316.61 860.97,-324.32 871.46,-322.82 868.24,-316.61"/>
</g>
<!-- Node28&#45;&gt;Node9 -->
<g id="edge55" class="edge">
<title>Node28&#45;&gt;Node9</title>
<path fill="none" stroke="midnightblue" d="M841.77,-314.99C845.58,-305.8 849.83,-295.58 853.15,-287.58"/>
<polygon fill="midnightblue" stroke="midnightblue" points="838.46,-313.82 837.86,-324.4 844.93,-316.5 838.46,-313.82"/>
</g>
<!-- Node28&#45;&gt;Node13 -->
<g id="edge56" class="edge">
<title>Node28&#45;&gt;Node13</title>
<path fill="none" stroke="midnightblue" d="M801.36,-318.97C782.02,-306.65 758,-291.35 743.35,-282.01"/>
<polygon fill="midnightblue" stroke="midnightblue" points="799.55,-321.97 809.87,-324.4 803.32,-316.07 799.55,-321.97"/>
</g>
<!-- Node29&#45;&gt;Node7 -->
<g id="edge59" class="edge">
<title>Node29&#45;&gt;Node7</title>
<path fill="none" stroke="midnightblue" d="M1268.71,-382.35C1279.75,-364.97 1296.45,-341.28 1315,-324 1336.93,-303.58 1351.87,-310.19 1372,-288 1399.24,-257.97 1413,-247.05 1413,-206.5 1413,-206.5 1413,-206.5 1413,-137.5 1413,-89.32 1378.21,-39.21 1362.99,-19.6"/>
<polygon fill="midnightblue" stroke="midnightblue" points="1265.47,-380.94 1263.18,-391.28 1271.42,-384.62 1265.47,-380.94"/>
</g>
<!-- Node30&#45;&gt;Node7 -->
<g id="edge62" class="edge">
<title>Node30&#45;&gt;Node7</title>
<path fill="none" stroke="midnightblue" d="M1616.15,-453.74C1613.78,-428.17 1610,-380.92 1610,-340.5 1610,-340.5 1610,-340.5 1610,-137.5 1610,-99.2 1610.84,-81.2 1582,-56 1559.11,-35.99 1483.72,-23.88 1426.26,-17.34"/>
<polygon fill="midnightblue" stroke="midnightblue" points="1612.68,-454.24 1617.11,-463.86 1619.65,-453.57 1612.68,-454.24"/>
</g>
<!-- Node31&#45;&gt;Node7 -->
<g id="edge64" class="edge">
<title>Node31&#45;&gt;Node7</title>
<path fill="none" stroke="midnightblue" d="M1691.51,-115.21C1676.21,-96.27 1651.67,-70 1624,-56 1561.9,-24.59 1482.39,-14.43 1426.15,-11.47"/>
<polygon fill="midnightblue" stroke="midnightblue" points="1688.94,-117.61 1697.87,-123.33 1694.45,-113.3 1688.94,-117.61"/>
</g>
<!-- Node32&#45;&gt;Node15 -->
<g id="edge66" class="edge">
<title>Node32&#45;&gt;Node15</title>
<path fill="none" stroke="midnightblue" d="M1361.66,-318.97C1342.51,-306.65 1318.73,-291.35 1304.22,-282.01"/>
<polygon fill="midnightblue" stroke="midnightblue" points="1359.78,-321.93 1370.08,-324.4 1363.57,-316.04 1359.78,-321.93"/>
</g>
<!-- Node33 -->
<g id="node33" class="node">
<title>Node33</title>
<g id="a_node33"><a xlink:href="colour__help__formatter_8hpp_source.html" target="_top" xlink:title=" ">
<polygon fill="none" stroke="black" points="1441,-56.5 1441,-86.5 1573,-86.5 1573,-56.5 1441,-56.5"/>
<text text-anchor="start" x="1449" y="-74.5" font-family="Helvetica,sans-Serif" font-size="10.00">arg_router/policy/colour</text>
<text text-anchor="middle" x="1507" y="-63.5" font-family="Helvetica,sans-Serif" font-size="10.00">_help_formatter.hpp</text>
</a>
</g>
</g>
<!-- Node32&#45;&gt;Node33 -->
<g id="edge67" class="edge">
<title>Node32&#45;&gt;Node33</title>
<path fill="none" stroke="midnightblue" d="M1409.49,-315.87C1415.53,-307.42 1422.02,-297.55 1427,-288 1464.65,-215.82 1493.1,-121.83 1503.1,-86.63"/>
<polygon fill="midnightblue" stroke="midnightblue" points="1406.54,-313.96 1403.44,-324.09 1412.18,-318.11 1406.54,-313.96"/>
</g>
<!-- Node33&#45;&gt;Node7 -->
<g id="edge68" class="edge">
<title>Node33&#45;&gt;Node7</title>
<path fill="none" stroke="midnightblue" d="M1461.72,-52.66C1434.03,-41.75 1399.83,-28.27 1377.97,-19.66"/>
<polygon fill="midnightblue" stroke="midnightblue" points="1460.63,-55.99 1471.22,-56.4 1463.19,-49.48 1460.63,-55.99"/>
</g>
<!-- Node34&#45;&gt;Node6 -->
<g id="edge70" class="edge">
<title>Node34&#45;&gt;Node6</title>
<path fill="none" stroke="midnightblue" d="M1454.19,-583.58C1468.66,-557.97 1489,-514.82 1489,-474.5 1489,-474.5 1489,-474.5 1489,-271.5 1489,-191.89 1236.34,-158.08 1101.12,-145.69"/>
<polygon fill="midnightblue" stroke="midnightblue" points="1451.01,-582.09 1448.99,-592.49 1457.05,-585.62 1451.01,-582.09"/>
</g>
</g>
</svg>
        <g id="navigator" transform="translate(0 0)" fill="#404254">
                <rect fill="#f2f5e9" fill-opacity="0.5" stroke="#606060" stroke-width=".5" x="0" y="0" width="60" height="60"/>
                <use id="zoomplus" xlink:href="#zoomPlus" x="17" y="9" onmousedown="handleZoom(evt,'in')"/>
                <use id="zoomminus" xlink:href="#zoomMin" x="42" y="9" onmousedown="handleZoom(evt,'out')"/>
                <use id="reset" xlink:href="#resetDef" x="30" y="36" onmousedown="handleReset()"/>
                <g id="arrowUp" xlink:href="#dirArrow" transform="translate(30 24)" onmousedown="handlePan(0,-1)">
                  <use xlink:href="#rim" fill="#404040">
                        <set attributeName="fill" to="#808080" begin="arrowUp.mouseover" end="arrowUp.mouseout"/>
                  </use>
                  <path fill="none" stroke="white" stroke-width="1.5" d="M0,-3.0v7 M-2.5,-0.5L0,-3.0L2.5,-0.5"/>
                </g>
                <g id="arrowRight" xlink:href="#dirArrow" transform="rotate(90) translate(36 -43)" onmousedown="handlePan(1,0)">
                  <use xlink:href="#rim" fill="#404040">
                        <set attributeName="fill" to="#808080" begin="arrowRight.mouseover" end="arrowRight.mouseout"/>
                  </use>
                  <path fill="none" stroke="white" stroke-width="1.5" d="M0,-3.0v7 M-2.5,-0.5L0,-3.0L2.5,-0.5"/>
                </g>
                <g id="arrowDown" xlink:href="#dirArrow" transform="rotate(180) translate(-30 -48)" onmousedown="handlePan(0,1)">
                  <use xlink:href="#rim" fill="#404040">
                        <set attributeName="fill" to="#808080" begin="arrowDown.mouseover" end="arrowDown.mouseout"/>
                  </use>
                  <path fill="none" stroke="white" stroke-width="1.5" d="M0,-3.0v7 M-2.5,-0.5L0,-3.0L2.5,-0.5"/>
                </g>
                <g id="arrowLeft" xlink:href="#dirArrow" transform="rotate(270) translate(-36 17)" onmousedown="handlePan(-1,0)">
                  <use xlink:href="#rim" fill="#404040">
                        <set attributeName="fill" to="#808080" begin="arrowLeft.mouseover" end="arrowLeft.mouseout"/>
                  </use>
                  <path fill="none" stroke="white" stroke-width="1.5" d="M0,-3.0v7 M-2.5,-0.5L0,-3.0L2.5,-0.5"/>
                </g>
        </g>
        <svg viewBox="0 0 15 15" width="100%" height="30px" preserveAspectRatio="xMaxYMin meet">
         <g id="arrow_out" transform="scale(0.3 0.3)">
          <a xlink:href="compile__time__string_8hpp__dep__incl_org.svg" target="_base">
           <rect id="button" ry="5" rx="5" y="6" x="6" height="38" width="38"
                fill="#f2f5e9" fill-opacity="0.5" stroke="#606060" stroke-width="1.0"/>
           <path id="arrow"
             d="M 11.500037,31.436501 C 11.940474,20.09759 22.043105,11.32322 32.158766,21.979434 L 37.068811,17.246167 C 37.068811,17.246167 37.088388,32 37.088388,32 L 22.160133,31.978069 C 22.160133,31.978069 26.997745,27.140456 26.997745,27.140456 C 18.528582,18.264221 13.291696,25.230495 11.500037,31.436501 z"
             style="fill:#404040;"/>
          </a>
         </g>
        </svg>
</svg>
