<?xml version="1.0" encoding="UTF-8" standalone="no"?>
<!DOCTYPE svg PUBLIC "-//W3C//DTD SVG 1.1//EN"
 "http://www.w3.org/Graphics/SVG/1.1/DTD/svg11.dtd">
<!-- Generated by graphviz version 2.43.0 (0)
 -->
<!-- Title: arg_router/utility/compile_time_string.hpp Pages: 1 -->
<!--zoomable 341 -->
<svg id="main" version="1.1" xmlns="http://www.w3.org/2000/svg" xmlns:xlink="http://www.w3.org/1999/xlink" xml:space="preserve" onload="init(evt)">
<style type="text/css"><![CDATA[
.edge:hover path { stroke: red; }
.edge:hover polygon { stroke: red; fill: red; }
]]></style>
<script type="text/javascript"><![CDATA[
var edges = document.getElementsByTagName('g');
if (edges && edges.length) {
  for (var i=0;i<edges.length;i++) {
    if (edges[i].id.substr(0,4)=='edge') {
      edges[i].setAttribute('class','edge');
    }
  }
}
]]></script>
        <defs>
                <circle id="rim" cx="0" cy="0" r="7"/>
                <circle id="rim2" cx="0" cy="0" r="3.5"/>
                <g id="zoomPlus">
                        <use xlink:href="#rim" fill="#404040">
                                <set attributeName="fill" to="#808080" begin="zoomplus.mouseover" end="zoomplus.mouseout"/>
                        </use>
                        <path d="M-4,0h8M0,-4v8" fill="none" stroke="white" stroke-width="1.5" pointer-events="none"/>
                </g>
                <g id="zoomMin">
                        <use xlink:href="#rim" fill="#404040">
                                <set attributeName="fill" to="#808080" begin="zoomminus.mouseover" end="zoomminus.mouseout"/>
                        </use>
                        <path d="M-4,0h8" fill="none" stroke="white" stroke-width="1.5" pointer-events="none"/>
                </g>
                <g id="dirArrow">
                        <path fill="none" stroke="white" stroke-width="1.5" d="M0,-3.0v7 M-2.5,-0.5L0,-3.0L2.5,-0.5"/>
                </g>
               <g id="resetDef">
                       <use xlink:href="#rim2" fill="#404040">
                               <set attributeName="fill" to="#808080" begin="reset.mouseover" end="reset.mouseout"/>
                       </use>
               </g>
        </defs>

<script type="text/javascript">
var viewWidth = 1226;
var viewHeight = 341;
var sectionId = 'dynsection-1';
</script>
<script xlink:href="svgpan.js"/>
<svg id="graph" class="graph">
<g id="viewport">
<title>arg_router/utility/compile_time_string.hpp</title>
<polygon fill="white" stroke="transparent" points="-4,4 -4,-337 1222,-337 1222,4 -4,4"/>
<!-- Node1 -->
<g id="node1" class="node">
<title>Node1</title>
<g id="a_node1"><a xlink:title=" ">
<polygon fill="#bfbfbf" stroke="black" points="453.5,-302.5 453.5,-332.5 593.5,-332.5 593.5,-302.5 453.5,-302.5"/>
<text text-anchor="start" x="461.5" y="-320.5" font-family="Helvetica,sans-Serif" font-size="10.00">arg_router/utility</text>
<text text-anchor="middle" x="523.5" y="-309.5" font-family="Helvetica,sans-Serif" font-size="10.00">/compile_time_string.hpp</text>
</a>
</g>
</g>
<!-- Node2 -->
<g id="node2" class="node">
<title>Node2</title>
<g id="a_node2"><a xlink:href="tree__node_8hpp_source.html" target="_top" xlink:title=" ">
<polygon fill="white" stroke="black" points="453.5,-246.5 453.5,-265.5 593.5,-265.5 593.5,-246.5 453.5,-246.5"/>
<text text-anchor="middle" x="523.5" y="-253.5" font-family="Helvetica,sans-Serif" font-size="10.00">arg_router/tree_node.hpp</text>
</a>
</g>
</g>
<!-- Node1&#45;&gt;Node2 -->
<g id="edge1" class="edge">
<title>Node1&#45;&gt;Node2</title>
<path fill="none" stroke="midnightblue" d="M523.5,-292.29C523.5,-282.86 523.5,-272.65 523.5,-265.66"/>
<polygon fill="midnightblue" stroke="midnightblue" points="520,-292.4 523.5,-302.4 527,-292.4 520,-292.4"/>
</g>
<!-- Node3 -->
<g id="node3" class="node">
<title>Node3</title>
<g id="a_node3"><a xlink:href="arg_8hpp_source.html" target="_top" xlink:title=" ">
<polygon fill="white" stroke="black" points="0,-118 0,-137 107,-137 107,-118 0,-118"/>
<text text-anchor="middle" x="53.5" y="-125" font-family="Helvetica,sans-Serif" font-size="10.00">arg_router/arg.hpp</text>
</a>
</g>
</g>
<!-- Node2&#45;&gt;Node3 -->
<g id="edge2" class="edge">
<title>Node2&#45;&gt;Node3</title>
<path fill="none" stroke="midnightblue" d="M443.39,-249.39C354.46,-242.36 217.07,-228.91 168.5,-210 124.03,-192.69 80.58,-154.46 62.4,-137.23"/>
<polygon fill="midnightblue" stroke="midnightblue" points="443.21,-252.88 453.45,-250.17 443.75,-245.91 443.21,-252.88"/>
</g>
<!-- Node6 -->
<g id="node6" class="node">
<title>Node6</title>
<g id="a_node6"><a xlink:href="counting__flag_8hpp_source.html" target="_top" xlink:title=" ">
<polygon fill="white" stroke="black" points="125.5,-112.5 125.5,-142.5 237.5,-142.5 237.5,-112.5 125.5,-112.5"/>
<text text-anchor="start" x="133.5" y="-130.5" font-family="Helvetica,sans-Serif" font-size="10.00">arg_router/counting</text>
<text text-anchor="middle" x="181.5" y="-119.5" font-family="Helvetica,sans-Serif" font-size="10.00">_flag.hpp</text>
</a>
</g>
</g>
<!-- Node2&#45;&gt;Node6 -->
<g id="edge5" class="edge">
<title>Node2&#45;&gt;Node6</title>
<path fill="none" stroke="midnightblue" d="M443.18,-255.79C353.99,-254.77 218.1,-246.96 184.5,-210 167.93,-191.77 172.5,-160.67 177.13,-142.62"/>
<polygon fill="midnightblue" stroke="midnightblue" points="443.25,-259.29 453.28,-255.88 443.31,-252.29 443.25,-259.29"/>
</g>
<!-- Node7 -->
<g id="node7" class="node">
<title>Node7</title>
<g id="a_node7"><a xlink:href="detail_8hpp_source.html" target="_top" xlink:title=" ">
<polygon fill="white" stroke="black" points="193,-179.5 193,-209.5 322,-209.5 322,-179.5 193,-179.5"/>
<text text-anchor="start" x="201" y="-197.5" font-family="Helvetica,sans-Serif" font-size="10.00">arg_router/dependency</text>
<text text-anchor="middle" x="257.5" y="-186.5" font-family="Helvetica,sans-Serif" font-size="10.00">/detail.hpp</text>
</a>
</g>
</g>
<!-- Node2&#45;&gt;Node7 -->
<g id="edge7" class="edge">
<title>Node2&#45;&gt;Node7</title>
<path fill="none" stroke="midnightblue" d="M475.63,-244.29C432.16,-234.57 367.76,-220.16 320.19,-209.52"/>
<polygon fill="midnightblue" stroke="midnightblue" points="474.87,-247.71 485.39,-246.48 476.39,-240.88 474.87,-247.71"/>
</g>
<!-- Node10 -->
<g id="node10" class="node">
<title>Node10</title>
<g id="a_node10"><a xlink:href="flag_8hpp_source.html" target="_top" xlink:title=" ">
<polygon fill="white" stroke="black" points="340,-185 340,-204 449,-204 449,-185 340,-185"/>
<text text-anchor="middle" x="394.5" y="-192" font-family="Helvetica,sans-Serif" font-size="10.00">arg_router/flag.hpp</text>
</a>
</g>
</g>
<!-- Node2&#45;&gt;Node10 -->
<g id="edge12" class="edge">
<title>Node2&#45;&gt;Node10</title>
<path fill="none" stroke="midnightblue" d="M495.69,-242.17C470.66,-230.63 434.58,-213.99 412.95,-204.01"/>
<polygon fill="midnightblue" stroke="midnightblue" points="494.47,-245.46 505.02,-246.48 497.4,-239.11 494.47,-245.46"/>
</g>
<!-- Node11 -->
<g id="node11" class="node">
<title>Node11</title>
<g id="a_node11"><a xlink:href="help_8hpp_source.html" target="_top" xlink:title=" ">
<polygon fill="white" stroke="black" points="467.5,-185 467.5,-204 579.5,-204 579.5,-185 467.5,-185"/>
<text text-anchor="middle" x="523.5" y="-192" font-family="Helvetica,sans-Serif" font-size="10.00">arg_router/help.hpp</text>
</a>
</g>
</g>
<!-- Node2&#45;&gt;Node11 -->
<g id="edge14" class="edge">
<title>Node2&#45;&gt;Node11</title>
<path fill="none" stroke="midnightblue" d="M523.5,-236.32C523.5,-225.5 523.5,-212.4 523.5,-204.01"/>
<polygon fill="midnightblue" stroke="midnightblue" points="520,-236.48 523.5,-246.48 527,-236.48 520,-236.48"/>
</g>
<!-- Node12 -->
<g id="node12" class="node">
<title>Node12</title>
<g id="a_node12"><a xlink:href="mode_8hpp_source.html" target="_top" xlink:title=" ">
<polygon fill="white" stroke="black" points="703,-118 703,-137 822,-137 822,-118 703,-118"/>
<text text-anchor="middle" x="762.5" y="-125" font-family="Helvetica,sans-Serif" font-size="10.00">arg_router/mode.hpp</text>
</a>
</g>
</g>
<!-- Node2&#45;&gt;Node12 -->
<g id="edge16" class="edge">
<title>Node2&#45;&gt;Node12</title>
<path fill="none" stroke="midnightblue" d="M603.84,-255.61C690.66,-254.36 820.87,-246.25 852.5,-210 878.14,-180.62 819.72,-151.14 785.34,-137.05"/>
<polygon fill="midnightblue" stroke="midnightblue" points="603.7,-252.12 593.74,-255.73 603.78,-259.12 603.7,-252.12"/>
</g>
<!-- Node13 -->
<g id="node13" class="node">
<title>Node13</title>
<g id="a_node13"><a xlink:href="positional__arg_8hpp_source.html" target="_top" xlink:title=" ">
<polygon fill="white" stroke="black" points="597.5,-179.5 597.5,-209.5 715.5,-209.5 715.5,-179.5 597.5,-179.5"/>
<text text-anchor="start" x="605.5" y="-197.5" font-family="Helvetica,sans-Serif" font-size="10.00">arg_router/positional</text>
<text text-anchor="middle" x="656.5" y="-186.5" font-family="Helvetica,sans-Serif" font-size="10.00">_arg.hpp</text>
</a>
</g>
</g>
<!-- Node2&#45;&gt;Node13 -->
<g id="edge18" class="edge">
<title>Node2&#45;&gt;Node13</title>
<path fill="none" stroke="midnightblue" d="M551.82,-242.33C573.34,-232.7 602.92,-219.47 625.15,-209.52"/>
<polygon fill="midnightblue" stroke="midnightblue" points="550.25,-239.2 542.56,-246.48 553.11,-245.59 550.25,-239.2"/>
</g>
<!-- Node14 -->
<g id="node14" class="node">
<title>Node14</title>
<g id="a_node14"><a xlink:href="root_8hpp_source.html" target="_top" xlink:title=" ">
<polygon fill="white" stroke="black" points="733.5,-185 733.5,-204 843.5,-204 843.5,-185 733.5,-185"/>
<text text-anchor="middle" x="788.5" y="-192" font-family="Helvetica,sans-Serif" font-size="10.00">arg_router/root.hpp</text>
</a>
</g>
</g>
<!-- Node2&#45;&gt;Node14 -->
<g id="edge20" class="edge">
<title>Node2&#45;&gt;Node14</title>
<path fill="none" stroke="midnightblue" d="M571.59,-244.27C612.31,-235.17 672.24,-221.77 724.5,-210 733.06,-208.07 742.26,-205.99 750.94,-204.03"/>
<polygon fill="midnightblue" stroke="midnightblue" points="570.66,-240.89 561.67,-246.49 572.19,-247.72 570.66,-240.89"/>
</g>
<!-- Node15 -->
<g id="node15" class="node">
<title>Node15</title>
<g id="a_node15"><a xlink:href="tree__recursor_8hpp_source.html" target="_top" xlink:title=" ">
<polygon fill="white" stroke="black" points="899.5,-179.5 899.5,-209.5 1003.5,-209.5 1003.5,-179.5 899.5,-179.5"/>
<text text-anchor="start" x="907.5" y="-197.5" font-family="Helvetica,sans-Serif" font-size="10.00">arg_router/utility</text>
<text text-anchor="middle" x="951.5" y="-186.5" font-family="Helvetica,sans-Serif" font-size="10.00">/tree_recursor.hpp</text>
</a>
</g>
</g>
<!-- Node2&#45;&gt;Node15 -->
<g id="edge22" class="edge">
<title>Node2&#45;&gt;Node15</title>
<path fill="none" stroke="midnightblue" d="M603.64,-247.19C677.2,-239.51 789.07,-226.55 885.5,-210 890.01,-209.23 894.68,-208.35 899.35,-207.42"/>
<polygon fill="midnightblue" stroke="midnightblue" points="603.1,-243.73 593.52,-248.24 603.82,-250.69 603.1,-243.73"/>
</g>
<!-- Node4 -->
<g id="node4" class="node">
<title>Node4</title>
<g id="a_node4"><a xlink:href="validator_8hpp_source.html" target="_top" xlink:title=" ">
<polygon fill="white" stroke="black" points="534.5,-56.5 534.5,-75.5 700.5,-75.5 700.5,-56.5 534.5,-56.5"/>
<text text-anchor="middle" x="617.5" y="-63.5" font-family="Helvetica,sans-Serif" font-size="10.00">arg_router/policy/validator.hpp</text>
</a>
</g>
</g>
<!-- Node3&#45;&gt;Node4 -->
<g id="edge3" class="edge">
<title>Node3&#45;&gt;Node4</title>
<path fill="none" stroke="midnightblue" d="M96.81,-115.71C103.38,-114.32 110.1,-113.02 116.5,-112 262.47,-88.76 434.41,-76.58 534.18,-70.99"/>
<polygon fill="midnightblue" stroke="midnightblue" points="95.68,-112.38 86.68,-117.97 97.2,-119.21 95.68,-112.38"/>
</g>
<!-- Node5 -->
<g id="node5" class="node">
<title>Node5</title>
<g id="a_node5"><a xlink:href="arg__router_8hpp_source.html" target="_top" xlink:title=" ">
<polygon fill="white" stroke="black" points="547.5,-0.5 547.5,-19.5 687.5,-19.5 687.5,-0.5 547.5,-0.5"/>
<text text-anchor="middle" x="617.5" y="-7.5" font-family="Helvetica,sans-Serif" font-size="10.00">arg_router/arg_router.hpp</text>
</a>
</g>
</g>
<!-- Node4&#45;&gt;Node5 -->
<g id="edge4" class="edge">
<title>Node4&#45;&gt;Node5</title>
<path fill="none" stroke="midnightblue" d="M617.5,-45.8C617.5,-36.91 617.5,-26.78 617.5,-19.75"/>
<polygon fill="midnightblue" stroke="midnightblue" points="614,-46.08 617.5,-56.08 621,-46.08 614,-46.08"/>
</g>
<!-- Node6&#45;&gt;Node4 -->
<g id="edge6" class="edge">
<title>Node6&#45;&gt;Node4</title>
<path fill="none" stroke="midnightblue" d="M247.2,-112.05C247.3,-112.03 247.4,-112.02 247.5,-112 345.42,-95.33 458.94,-82.47 534.15,-74.85"/>
<polygon fill="midnightblue" stroke="midnightblue" points="246.81,-108.56 237.6,-113.79 248.06,-115.45 246.81,-108.56"/>
</g>
<!-- Node8 -->
<g id="node8" class="node">
<title>Node8</title>
<g id="a_node8"><a xlink:href="alias__group_8hpp_source.html" target="_top" xlink:title=" ">
<polygon fill="white" stroke="black" points="256,-112.5 256,-142.5 385,-142.5 385,-112.5 256,-112.5"/>
<text text-anchor="start" x="264" y="-130.5" font-family="Helvetica,sans-Serif" font-size="10.00">arg_router/dependency</text>
<text text-anchor="middle" x="320.5" y="-119.5" font-family="Helvetica,sans-Serif" font-size="10.00">/alias_group.hpp</text>
</a>
</g>
</g>
<!-- Node7&#45;&gt;Node8 -->
<g id="edge8" class="edge">
<title>Node7&#45;&gt;Node8</title>
<path fill="none" stroke="midnightblue" d="M278.31,-172.02C287.7,-162.34 298.52,-151.17 306.86,-142.58"/>
<polygon fill="midnightblue" stroke="midnightblue" points="275.62,-169.78 271.17,-179.4 280.64,-174.65 275.62,-169.78"/>
</g>
<!-- Node9 -->
<g id="node9" class="node">
<title>Node9</title>
<g id="a_node9"><a xlink:href="one__of_8hpp_source.html" target="_top" xlink:title=" ">
<polygon fill="white" stroke="black" points="403,-112.5 403,-142.5 532,-142.5 532,-112.5 403,-112.5"/>
<text text-anchor="start" x="411" y="-130.5" font-family="Helvetica,sans-Serif" font-size="10.00">arg_router/dependency</text>
<text text-anchor="middle" x="467.5" y="-119.5" font-family="Helvetica,sans-Serif" font-size="10.00">/one_of.hpp</text>
</a>
</g>
</g>
<!-- Node7&#45;&gt;Node9 -->
<g id="edge10" class="edge">
<title>Node7&#45;&gt;Node9</title>
<path fill="none" stroke="midnightblue" d="M312.6,-176.44C346.64,-165.91 389.8,-152.55 421.91,-142.61"/>
<polygon fill="midnightblue" stroke="midnightblue" points="311.33,-173.18 302.81,-179.48 313.4,-179.86 311.33,-173.18"/>
</g>
<!-- Node8&#45;&gt;Node4 -->
<g id="edge9" class="edge">
<title>Node8&#45;&gt;Node4</title>
<path fill="none" stroke="midnightblue" d="M395.31,-111.51C452.06,-100.14 528.03,-84.92 574.83,-75.55"/>
<polygon fill="midnightblue" stroke="midnightblue" points="394.43,-108.12 385.31,-113.52 395.8,-114.98 394.43,-108.12"/>
</g>
<!-- Node9&#45;&gt;Node4 -->
<g id="edge11" class="edge">
<title>Node9&#45;&gt;Node4</title>
<path fill="none" stroke="midnightblue" d="M512.48,-108.66C539.99,-97.75 573.96,-84.27 595.67,-75.66"/>
<polygon fill="midnightblue" stroke="midnightblue" points="511.05,-105.46 503.05,-112.4 513.63,-111.97 511.05,-105.46"/>
</g>
<!-- Node10&#45;&gt;Node4 -->
<g id="edge13" class="edge">
<title>Node10&#45;&gt;Node4</title>
<path fill="none" stroke="midnightblue" d="M444.47,-182.39C474.14,-174.37 511.68,-161.62 541.5,-143 549.41,-138.06 591.35,-94.45 609.32,-75.61"/>
<polygon fill="midnightblue" stroke="midnightblue" points="443.52,-179.03 434.72,-184.94 445.28,-185.8 443.52,-179.03"/>
</g>
<!-- Node11&#45;&gt;Node4 -->
<g id="edge15" class="edge">
<title>Node11&#45;&gt;Node4</title>
<path fill="none" stroke="midnightblue" d="M541.4,-178.06C551.78,-168.57 564.71,-155.81 574.5,-143 591.62,-120.6 606.56,-90.63 613.45,-75.91"/>
<polygon fill="midnightblue" stroke="midnightblue" points="538.85,-175.64 533.72,-184.91 543.51,-180.87 538.85,-175.64"/>
</g>
<!-- Node12&#45;&gt;Node4 -->
<g id="edge17" class="edge">
<title>Node12&#45;&gt;Node4</title>
<path fill="none" stroke="midnightblue" d="M732.36,-114.13C704.19,-102.57 662.88,-85.62 638.24,-75.51"/>
<polygon fill="midnightblue" stroke="midnightblue" points="731.14,-117.42 741.73,-117.98 733.8,-110.94 731.14,-117.42"/>
</g>
<!-- Node13&#45;&gt;Node4 -->
<g id="edge19" class="edge">
<title>Node13&#45;&gt;Node4</title>
<path fill="none" stroke="midnightblue" d="M649.22,-169.89C640.45,-141.43 626.14,-95.03 620.21,-75.79"/>
<polygon fill="midnightblue" stroke="midnightblue" points="645.89,-170.95 652.18,-179.48 652.58,-168.89 645.89,-170.95"/>
</g>
<!-- Node14&#45;&gt;Node4 -->
<g id="edge21" class="edge">
<title>Node14&#45;&gt;Node4</title>
<path fill="none" stroke="midnightblue" d="M759.63,-180.65C740.36,-171.45 714.9,-158.06 694.5,-143 666.09,-122.03 637.88,-90.87 624.9,-75.8"/>
<polygon fill="midnightblue" stroke="midnightblue" points="758.28,-183.88 768.82,-184.95 761.24,-177.54 758.28,-183.88"/>
</g>
<!-- Node15&#45;&gt;Node4 -->
<g id="edge28" class="edge">
<title>Node15&#45;&gt;Node4</title>
<path fill="none" stroke="midnightblue" d="M917.59,-173.99C902.56,-165 884.85,-153.91 869.5,-143 851.74,-130.37 851.17,-121.4 831.5,-112 790.74,-92.52 741.63,-81.43 700.74,-75.13"/>
<polygon fill="midnightblue" stroke="midnightblue" points="916.17,-177.22 926.55,-179.3 919.73,-171.19 916.17,-177.22"/>
</g>
<!-- Node15&#45;&gt;Node12 -->
<g id="edge23" class="edge">
<title>Node15&#45;&gt;Node12</title>
<path fill="none" stroke="midnightblue" d="M900.93,-176.11C864.16,-163.46 815.98,-146.89 787.24,-137.01"/>
<polygon fill="midnightblue" stroke="midnightblue" points="899.9,-179.45 910.49,-179.4 902.17,-172.83 899.9,-179.45"/>
</g>
<!-- Node16 -->
<g id="node16" class="node">
<title>Node16</title>
<g id="a_node16"><a xlink:href="alias_8hpp_source.html" target="_top" xlink:title=" ">
<polygon fill="white" stroke="black" points="878.5,-118 878.5,-137 1024.5,-137 1024.5,-118 878.5,-118"/>
<text text-anchor="middle" x="951.5" y="-125" font-family="Helvetica,sans-Serif" font-size="10.00">arg_router/policy/alias.hpp</text>
</a>
</g>
</g>
<!-- Node15&#45;&gt;Node16 -->
<g id="edge24" class="edge">
<title>Node15&#45;&gt;Node16</title>
<path fill="none" stroke="midnightblue" d="M951.5,-169.25C951.5,-158.02 951.5,-145.38 951.5,-137.19"/>
<polygon fill="midnightblue" stroke="midnightblue" points="948,-169.4 951.5,-179.4 955,-169.4 948,-169.4"/>
</g>
<!-- Node17 -->
<g id="node17" class="node">
<title>Node17</title>
<g id="a_node17"><a xlink:href="dependent_8hpp_source.html" target="_top" xlink:title=" ">
<polygon fill="white" stroke="black" points="1043,-118 1043,-137 1218,-137 1218,-118 1043,-118"/>
<text text-anchor="middle" x="1130.5" y="-125" font-family="Helvetica,sans-Serif" font-size="10.00">arg_router/policy/dependent.hpp</text>
</a>
</g>
</g>
<!-- Node15&#45;&gt;Node17 -->
<g id="edge26" class="edge">
<title>Node15&#45;&gt;Node17</title>
<path fill="none" stroke="midnightblue" d="M999.84,-175.95C1034.61,-163.32 1079.97,-146.85 1107.07,-137.01"/>
<polygon fill="midnightblue" stroke="midnightblue" points="998.55,-172.69 990.34,-179.4 1000.93,-179.27 998.55,-172.69"/>
</g>
<!-- Node16&#45;&gt;Node4 -->
<g id="edge25" class="edge">
<title>Node16&#45;&gt;Node4</title>
<path fill="none" stroke="midnightblue" d="M893.61,-116.19C828.96,-104.67 725.49,-86.24 665.27,-75.51"/>
<polygon fill="midnightblue" stroke="midnightblue" points="893.19,-119.67 903.65,-117.98 894.41,-112.78 893.19,-119.67"/>
</g>
<!-- Node17&#45;&gt;Node4 -->
<g id="edge27" class="edge">
<title>Node17&#45;&gt;Node4</title>
<path fill="none" stroke="midnightblue" d="M1066.26,-116.52C1055.34,-114.93 1044.1,-113.37 1033.5,-112 918.4,-97.18 784.96,-83.33 700.89,-75.01"/>
<polygon fill="midnightblue" stroke="midnightblue" points="1065.77,-119.99 1076.17,-117.98 1066.79,-113.06 1065.77,-119.99"/>
</g>
</g>
</svg>
        <g id="navigator" transform="translate(0 0)" fill="#404254">
                <rect fill="#f2f5e9" fill-opacity="0.5" stroke="#606060" stroke-width=".5" x="0" y="0" width="60" height="60"/>
                <use id="zoomplus" xlink:href="#zoomPlus" x="17" y="9" onmousedown="handleZoom(evt,'in')"/>
                <use id="zoomminus" xlink:href="#zoomMin" x="42" y="9" onmousedown="handleZoom(evt,'out')"/>
                <use id="reset" xlink:href="#resetDef" x="30" y="36" onmousedown="handleReset()"/>
                <g id="arrowUp" xlink:href="#dirArrow" transform="translate(30 24)" onmousedown="handlePan(0,-1)">
                  <use xlink:href="#rim" fill="#404040">
                        <set attributeName="fill" to="#808080" begin="arrowUp.mouseover" end="arrowUp.mouseout"/>
                  </use>
                  <path fill="none" stroke="white" stroke-width="1.5" d="M0,-3.0v7 M-2.5,-0.5L0,-3.0L2.5,-0.5"/>
                </g>
                <g id="arrowRight" xlink:href="#dirArrow" transform="rotate(90) translate(36 -43)" onmousedown="handlePan(1,0)">
                  <use xlink:href="#rim" fill="#404040">
                        <set attributeName="fill" to="#808080" begin="arrowRight.mouseover" end="arrowRight.mouseout"/>
                  </use>
                  <path fill="none" stroke="white" stroke-width="1.5" d="M0,-3.0v7 M-2.5,-0.5L0,-3.0L2.5,-0.5"/>
                </g>
                <g id="arrowDown" xlink:href="#dirArrow" transform="rotate(180) translate(-30 -48)" onmousedown="handlePan(0,1)">
                  <use xlink:href="#rim" fill="#404040">
                        <set attributeName="fill" to="#808080" begin="arrowDown.mouseover" end="arrowDown.mouseout"/>
                  </use>
                  <path fill="none" stroke="white" stroke-width="1.5" d="M0,-3.0v7 M-2.5,-0.5L0,-3.0L2.5,-0.5"/>
                </g>
                <g id="arrowLeft" xlink:href="#dirArrow" transform="rotate(270) translate(-36 17)" onmousedown="handlePan(-1,0)">
                  <use xlink:href="#rim" fill="#404040">
                        <set attributeName="fill" to="#808080" begin="arrowLeft.mouseover" end="arrowLeft.mouseout"/>
                  </use>
                  <path fill="none" stroke="white" stroke-width="1.5" d="M0,-3.0v7 M-2.5,-0.5L0,-3.0L2.5,-0.5"/>
                </g>
        </g>
        <svg viewBox="0 0 15 15" width="100%" height="30px" preserveAspectRatio="xMaxYMin meet">
         <g id="arrow_out" transform="scale(0.3 0.3)">
          <a xlink:href="compile__time__string_8hpp__dep__incl_org.svg" target="_base">
           <rect id="button" ry="5" rx="5" y="6" x="6" height="38" width="38"
                fill="#f2f5e9" fill-opacity="0.5" stroke="#606060" stroke-width="1.0"/>
           <path id="arrow"
             d="M 11.500037,31.436501 C 11.940474,20.09759 22.043105,11.32322 32.158766,21.979434 L 37.068811,17.246167 C 37.068811,17.246167 37.088388,32 37.088388,32 L 22.160133,31.978069 C 22.160133,31.978069 26.997745,27.140456 26.997745,27.140456 C 18.528582,18.264221 13.291696,25.230495 11.500037,31.436501 z"
             style="fill:#404040;"/>
          </a>
         </g>
        </svg>
</svg>
