<?xml version="1.0" encoding="UTF-8" standalone="no"?>
<!DOCTYPE svg PUBLIC "-//W3C//DTD SVG 1.1//EN"
 "http://www.w3.org/Graphics/SVG/1.1/DTD/svg11.dtd">
<!-- Generated by graphviz version 2.43.0 (0)
 -->
<!-- Title: arg_router/utility/compile_time_string.hpp Pages: 1 -->
<svg width="1802pt" height="687pt"
 viewBox="0.00 0.00 1801.50 687.00" xmlns="http://www.w3.org/2000/svg" xmlns:xlink="http://www.w3.org/1999/xlink">
<g id="graph0" class="graph" transform="scale(1 1) rotate(0) translate(4 683)">
<title>arg_router/utility/compile_time_string.hpp</title>
<!-- Node1 -->
<g id="node1" class="node">
<title>Node1</title>
<g id="a_node1"><a xlink:title=" ">
<polygon fill="#bfbfbf" stroke="black" points="775.5,-648.5 775.5,-678.5 915.5,-678.5 915.5,-648.5 775.5,-648.5"/>
<text text-anchor="start" x="783.5" y="-666.5" font-family="Helvetica,sans-Serif" font-size="10.00">arg_router/utility</text>
<text text-anchor="middle" x="845.5" y="-655.5" font-family="Helvetica,sans-Serif" font-size="10.00">/compile_time_string.hpp</text>
</a>
</g>
</g>
<!-- Node2 -->
<g id="node2" class="node">
<title>Node2</title>
<g id="a_node2"><a xlink:href="exception_8hpp_source.html" target="_top" xlink:title=" ">
<polygon fill="none" stroke="black" points="958,-592.5 958,-611.5 1097,-611.5 1097,-592.5 958,-592.5"/>
<text text-anchor="middle" x="1027.5" y="-599.5" font-family="Helvetica,sans-Serif" font-size="10.00">arg_router/exception.hpp</text>
</a>
</g>
</g>
<!-- Node1&#45;&gt;Node2 -->
<g id="edge1" class="edge">
<title>Node1&#45;&gt;Node2</title>
<path fill="none" stroke="midnightblue" d="M898.36,-645.22C932.15,-634.17 974.49,-620.33 1001.28,-611.57"/>
<polygon fill="midnightblue" stroke="midnightblue" points="897.05,-641.97 888.63,-648.4 899.22,-648.62 897.05,-641.97"/>
</g>
<!-- Node4 -->
<g id="node4" class="node">
<title>Node4</title>
<g id="a_node4"><a xlink:href="tree__node_8hpp_source.html" target="_top" xlink:title=" ">
<polygon fill="none" stroke="black" points="664.5,-330 664.5,-349 804.5,-349 804.5,-330 664.5,-330"/>
<text text-anchor="middle" x="734.5" y="-337" font-family="Helvetica,sans-Serif" font-size="10.00">arg_router/tree_node.hpp</text>
</a>
</g>
</g>
<!-- Node1&#45;&gt;Node4 -->
<g id="edge76" class="edge">
<title>Node1&#45;&gt;Node4</title>
<path fill="none" stroke="midnightblue" d="M809.8,-643.09C777.34,-622.55 734.5,-586.84 734.5,-541.5 734.5,-541.5 734.5,-541.5 734.5,-472.5 734.5,-425.98 734.5,-370.24 734.5,-349.15"/>
<polygon fill="midnightblue" stroke="midnightblue" points="808.27,-646.26 818.63,-648.48 811.91,-640.28 808.27,-646.26"/>
</g>
<!-- Node29 -->
<g id="node29" class="node">
<title>Node29</title>
<g id="a_node29"><a xlink:href="value__separator_8hpp_source.html" target="_top" xlink:title=" ">
<polygon fill="none" stroke="black" points="1486,-391.5 1486,-421.5 1615,-421.5 1615,-391.5 1486,-391.5"/>
<text text-anchor="start" x="1494" y="-409.5" font-family="Helvetica,sans-Serif" font-size="10.00">arg_router/policy/value</text>
<text text-anchor="middle" x="1550.5" y="-398.5" font-family="Helvetica,sans-Serif" font-size="10.00">_separator.hpp</text>
</a>
</g>
</g>
<!-- Node1&#45;&gt;Node29 -->
<g id="edge75" class="edge">
<title>Node1&#45;&gt;Node29</title>
<path fill="none" stroke="midnightblue" d="M926.12,-661.19C1038.01,-656.3 1243.91,-636.06 1397.5,-556 1462.49,-522.12 1518.48,-451.81 1540.51,-421.7"/>
<polygon fill="midnightblue" stroke="midnightblue" points="925.77,-657.7 915.92,-661.6 926.06,-664.69 925.77,-657.7"/>
</g>
<!-- Node30 -->
<g id="node30" class="node">
<title>Node30</title>
<g id="a_node30"><a xlink:href="literals_8hpp_source.html" target="_top" xlink:title=" ">
<polygon fill="none" stroke="black" points="1537,-464 1537,-483 1662,-483 1662,-464 1537,-464"/>
<text text-anchor="middle" x="1599.5" y="-471" font-family="Helvetica,sans-Serif" font-size="10.00">arg_router/literals.hpp</text>
</a>
</g>
</g>
<!-- Node1&#45;&gt;Node30 -->
<g id="edge61" class="edge">
<title>Node1&#45;&gt;Node30</title>
<path fill="none" stroke="midnightblue" d="M926.1,-659.78C1088.07,-653.8 1441.81,-637.93 1490.5,-612 1546.96,-581.93 1584.14,-508.67 1595.68,-483.31"/>
<polygon fill="midnightblue" stroke="midnightblue" points="925.57,-656.3 915.71,-660.16 925.83,-663.29 925.57,-656.3"/>
</g>
<!-- Node31 -->
<g id="node31" class="node">
<title>Node31</title>
<g id="a_node31"><a xlink:href="string__selector_8hpp.html" target="_top" xlink:title=" ">
<polygon fill="none" stroke="black" points="1671.5,-123.5 1671.5,-153.5 1793.5,-153.5 1793.5,-123.5 1671.5,-123.5"/>
<text text-anchor="start" x="1679.5" y="-141.5" font-family="Helvetica,sans-Serif" font-size="10.00">arg_router/multi_lang</text>
<text text-anchor="middle" x="1732.5" y="-130.5" font-family="Helvetica,sans-Serif" font-size="10.00">/string_selector.hpp</text>
</a>
</g>
</g>
<!-- Node1&#45;&gt;Node31 -->
<g id="edge63" class="edge">
<title>Node1&#45;&gt;Node31</title>
<path fill="none" stroke="midnightblue" d="M925.92,-659.3C1078.99,-652.73 1406.84,-636.28 1517.5,-612 1605.07,-592.78 1706.5,-631.15 1706.5,-541.5 1706.5,-541.5 1706.5,-541.5 1706.5,-271.5 1706.5,-227.82 1720.37,-177.52 1727.85,-153.58"/>
<polygon fill="midnightblue" stroke="midnightblue" points="925.49,-655.81 915.65,-659.73 925.79,-662.8 925.49,-655.81"/>
</g>
<!-- Node32 -->
<g id="node32" class="node">
<title>Node32</title>
<g id="a_node32"><a xlink:href="default__help__formatter_8hpp_source.html" target="_top" xlink:title=" ">
<polygon fill="none" stroke="black" points="0,-324.5 0,-354.5 137,-354.5 137,-324.5 0,-324.5"/>
<text text-anchor="start" x="8" y="-342.5" font-family="Helvetica,sans-Serif" font-size="10.00">arg_router/policy/default</text>
<text text-anchor="middle" x="68.5" y="-331.5" font-family="Helvetica,sans-Serif" font-size="10.00">_help_formatter.hpp</text>
</a>
</g>
</g>
<!-- Node1&#45;&gt;Node32 -->
<g id="edge65" class="edge">
<title>Node1&#45;&gt;Node32</title>
<path fill="none" stroke="midnightblue" d="M765.25,-656.9C581.8,-643.01 147.5,-603.59 147.5,-541.5 147.5,-541.5 147.5,-541.5 147.5,-472.5 147.5,-423.63 107.13,-377.17 84.11,-354.66"/>
<polygon fill="midnightblue" stroke="midnightblue" points="765.14,-660.4 775.38,-657.66 765.67,-653.42 765.14,-660.4"/>
</g>
<!-- Node34 -->
<g id="node34" class="node">
<title>Node34</title>
<g id="a_node34"><a xlink:href="short__name_8hpp_source.html" target="_top" xlink:title=" ">
<polygon fill="none" stroke="black" points="194,-324.5 194,-354.5 321,-354.5 321,-324.5 194,-324.5"/>
<text text-anchor="start" x="202" y="-342.5" font-family="Helvetica,sans-Serif" font-size="10.00">arg_router/policy/short</text>
<text text-anchor="middle" x="257.5" y="-331.5" font-family="Helvetica,sans-Serif" font-size="10.00">_name.hpp</text>
</a>
</g>
</g>
<!-- Node1&#45;&gt;Node34 -->
<g id="edge69" class="edge">
<title>Node1&#45;&gt;Node34</title>
<path fill="none" stroke="midnightblue" d="M765.1,-658.64C628.92,-649.89 367.5,-622.53 367.5,-541.5 367.5,-541.5 367.5,-541.5 367.5,-472.5 367.5,-419.1 313.72,-375.84 281.37,-354.65"/>
<polygon fill="midnightblue" stroke="midnightblue" points="765.28,-662.16 775.48,-659.29 765.72,-655.17 765.28,-662.16"/>
</g>
<!-- Node35 -->
<g id="node35" class="node">
<title>Node35</title>
<g id="a_node35"><a xlink:href="string__to__policy_8hpp_source.html" target="_top" xlink:title=" ">
<polygon fill="none" stroke="black" points="377.5,-324.5 377.5,-354.5 493.5,-354.5 493.5,-324.5 377.5,-324.5"/>
<text text-anchor="start" x="385.5" y="-342.5" font-family="Helvetica,sans-Serif" font-size="10.00">arg_router/utility</text>
<text text-anchor="middle" x="435.5" y="-331.5" font-family="Helvetica,sans-Serif" font-size="10.00">/string_to_policy.hpp</text>
</a>
</g>
</g>
<!-- Node1&#45;&gt;Node35 -->
<g id="edge77" class="edge">
<title>Node1&#45;&gt;Node35</title>
<path fill="none" stroke="midnightblue" d="M765.22,-651.08C662.16,-634.12 496.5,-598.05 496.5,-541.5 496.5,-541.5 496.5,-541.5 496.5,-472.5 496.5,-425.8 464.64,-377.66 446.97,-354.55"/>
<polygon fill="midnightblue" stroke="midnightblue" points="764.86,-654.57 775.29,-652.71 765.98,-647.66 764.86,-654.57"/>
</g>
<!-- Node3 -->
<g id="node3" class="node">
<title>Node3</title>
<g id="a_node3"><a xlink:href="global__parser_8hpp_source.html" target="_top" xlink:title=" ">
<polygon fill="none" stroke="black" points="800.5,-458.5 800.5,-488.5 906.5,-488.5 906.5,-458.5 800.5,-458.5"/>
<text text-anchor="start" x="808.5" y="-476.5" font-family="Helvetica,sans-Serif" font-size="10.00">arg_router/parsing</text>
<text text-anchor="middle" x="853.5" y="-465.5" font-family="Helvetica,sans-Serif" font-size="10.00">/global_parser.hpp</text>
</a>
</g>
</g>
<!-- Node2&#45;&gt;Node3 -->
<g id="edge2" class="edge">
<title>Node2&#45;&gt;Node3</title>
<path fill="none" stroke="midnightblue" d="M947.68,-594.17C920.5,-588 892.07,-576.65 872.5,-556 855.11,-537.65 852.58,-506.6 852.75,-488.58"/>
<polygon fill="midnightblue" stroke="midnightblue" points="947.12,-597.63 957.62,-596.22 948.53,-590.78 947.12,-597.63"/>
</g>
<!-- Node21 -->
<g id="node21" class="node">
<title>Node21</title>
<g id="a_node21"><a xlink:href="exception__translator_8hpp_source.html" target="_top" xlink:title=" ">
<polygon fill="none" stroke="black" points="881.5,-525.5 881.5,-555.5 1031.5,-555.5 1031.5,-525.5 881.5,-525.5"/>
<text text-anchor="start" x="889.5" y="-543.5" font-family="Helvetica,sans-Serif" font-size="10.00">arg_router/policy/exception</text>
<text text-anchor="middle" x="956.5" y="-532.5" font-family="Helvetica,sans-Serif" font-size="10.00">_translator.hpp</text>
</a>
</g>
</g>
<!-- Node2&#45;&gt;Node21 -->
<g id="edge33" class="edge">
<title>Node2&#45;&gt;Node21</title>
<path fill="none" stroke="midnightblue" d="M1009.51,-585.92C998.36,-576.58 984.14,-564.66 973.23,-555.52"/>
<polygon fill="midnightblue" stroke="midnightblue" points="1007.41,-588.73 1017.33,-592.48 1011.91,-583.37 1007.41,-588.73"/>
</g>
<!-- Node22 -->
<g id="node22" class="node">
<title>Node22</title>
<g id="a_node22"><a xlink:href="min__max__count_8hpp_source.html" target="_top" xlink:title=" ">
<polygon fill="none" stroke="black" points="552,-391.5 552,-421.5 673,-421.5 673,-391.5 552,-391.5"/>
<text text-anchor="start" x="560" y="-409.5" font-family="Helvetica,sans-Serif" font-size="10.00">arg_router/policy/min</text>
<text text-anchor="middle" x="612.5" y="-398.5" font-family="Helvetica,sans-Serif" font-size="10.00">_max_count.hpp</text>
</a>
</g>
</g>
<!-- Node2&#45;&gt;Node22 -->
<g id="edge35" class="edge">
<title>Node2&#45;&gt;Node22</title>
<path fill="none" stroke="midnightblue" d="M968.34,-590.44C933.73,-583.13 889.67,-571.84 852.5,-556 763.93,-518.25 669.93,-450.96 631.01,-421.72"/>
<polygon fill="midnightblue" stroke="midnightblue" points="967.8,-593.9 978.3,-592.49 969.21,-587.05 967.8,-593.9"/>
</g>
<!-- Node23 -->
<g id="node23" class="node">
<title>Node23</title>
<g id="a_node23"><a xlink:href="min__max__value_8hpp_source.html" target="_top" xlink:title=" ">
<polygon fill="none" stroke="black" points="1347,-391.5 1347,-421.5 1468,-421.5 1468,-391.5 1347,-391.5"/>
<text text-anchor="start" x="1355" y="-409.5" font-family="Helvetica,sans-Serif" font-size="10.00">arg_router/policy/min</text>
<text text-anchor="middle" x="1407.5" y="-398.5" font-family="Helvetica,sans-Serif" font-size="10.00">_max_value.hpp</text>
</a>
</g>
</g>
<!-- Node2&#45;&gt;Node23 -->
<g id="edge42" class="edge">
<title>Node2&#45;&gt;Node23</title>
<path fill="none" stroke="midnightblue" d="M1107.5,-600.86C1197.38,-598.98 1335.67,-590.37 1373.5,-556 1412.06,-520.96 1411.41,-451.91 1409.06,-421.94"/>
<polygon fill="midnightblue" stroke="midnightblue" points="1107.27,-597.36 1097.33,-601.05 1107.4,-604.36 1107.27,-597.36"/>
</g>
<!-- Node24 -->
<g id="node24" class="node">
<title>Node24</title>
<g id="a_node24"><a xlink:href="required_8hpp_source.html" target="_top" xlink:title=" ">
<polygon fill="none" stroke="black" points="1126.5,-397 1126.5,-416 1290.5,-416 1290.5,-397 1126.5,-397"/>
<text text-anchor="middle" x="1208.5" y="-404" font-family="Helvetica,sans-Serif" font-size="10.00">arg_router/policy/required.hpp</text>
</a>
</g>
</g>
<!-- Node2&#45;&gt;Node24 -->
<g id="edge44" class="edge">
<title>Node2&#45;&gt;Node24</title>
<path fill="none" stroke="midnightblue" d="M1094.59,-589.77C1116.69,-583.15 1139.83,-572.65 1156.5,-556 1197.09,-515.46 1206.08,-441.5 1208,-416.23"/>
<polygon fill="midnightblue" stroke="midnightblue" points="1093.58,-586.42 1084.88,-592.46 1095.45,-593.16 1093.58,-586.42"/>
</g>
<!-- Node25 -->
<g id="node25" class="node">
<title>Node25</title>
<g id="a_node25"><a xlink:href="router_8hpp_source.html" target="_top" xlink:title=" ">
<polygon fill="none" stroke="black" points="1212.5,-531 1212.5,-550 1364.5,-550 1364.5,-531 1212.5,-531"/>
<text text-anchor="middle" x="1288.5" y="-538" font-family="Helvetica,sans-Serif" font-size="10.00">arg_router/policy/router.hpp</text>
</a>
</g>
</g>
<!-- Node2&#45;&gt;Node25 -->
<g id="edge46" class="edge">
<title>Node2&#45;&gt;Node25</title>
<path fill="none" stroke="midnightblue" d="M1074.94,-590.19C1125.58,-578.64 1204.79,-560.58 1251.17,-550.01"/>
<polygon fill="midnightblue" stroke="midnightblue" points="1073.87,-586.84 1064.89,-592.48 1075.42,-593.66 1073.87,-586.84"/>
</g>
<!-- Node26 -->
<g id="node26" class="node">
<title>Node26</title>
<g id="a_node26"><a xlink:href="result_8hpp_source.html" target="_top" xlink:title=" ">
<polygon fill="none" stroke="black" points="1049.5,-525.5 1049.5,-555.5 1147.5,-555.5 1147.5,-525.5 1049.5,-525.5"/>
<text text-anchor="start" x="1057.5" y="-543.5" font-family="Helvetica,sans-Serif" font-size="10.00">arg_router/utility</text>
<text text-anchor="middle" x="1098.5" y="-532.5" font-family="Helvetica,sans-Serif" font-size="10.00">/result.hpp</text>
</a>
</g>
</g>
<!-- Node2&#45;&gt;Node26 -->
<g id="edge48" class="edge">
<title>Node2&#45;&gt;Node26</title>
<path fill="none" stroke="midnightblue" d="M1045.49,-585.92C1056.64,-576.58 1070.86,-564.66 1081.77,-555.52"/>
<polygon fill="midnightblue" stroke="midnightblue" points="1043.09,-583.37 1037.67,-592.48 1047.59,-588.73 1043.09,-583.37"/>
</g>
<!-- Node3&#45;&gt;Node4 -->
<g id="edge3" class="edge">
<title>Node3&#45;&gt;Node4</title>
<path fill="none" stroke="midnightblue" d="M833.79,-450.64C807.07,-421 760.58,-369.43 742.25,-349.1"/>
<polygon fill="midnightblue" stroke="midnightblue" points="831.47,-453.29 840.76,-458.37 836.67,-448.6 831.47,-453.29"/>
</g>
<!-- Node5 -->
<g id="node5" class="node">
<title>Node5</title>
<g id="a_node5"><a xlink:href="arg_8hpp_source.html" target="_top" xlink:title=" ">
<polygon fill="none" stroke="black" points="203,-263 203,-282 310,-282 310,-263 203,-263"/>
<text text-anchor="middle" x="256.5" y="-270" font-family="Helvetica,sans-Serif" font-size="10.00">arg_router/arg.hpp</text>
</a>
</g>
</g>
<!-- Node4&#45;&gt;Node5 -->
<g id="edge4" class="edge">
<title>Node4&#45;&gt;Node5</title>
<path fill="none" stroke="midnightblue" d="M659.46,-328.66C583.35,-318.63 462.2,-302.53 357.5,-288 342.15,-285.87 325.49,-283.5 310.21,-281.31"/>
<polygon fill="midnightblue" stroke="midnightblue" points="659.06,-332.14 669.43,-329.97 659.97,-325.2 659.06,-332.14"/>
</g>
<!-- Node9 -->
<g id="node9" class="node">
<title>Node9</title>
<g id="a_node9"><a xlink:href="counting__flag_8hpp_source.html" target="_top" xlink:title=" ">
<polygon fill="none" stroke="black" points="502.5,-257.5 502.5,-287.5 614.5,-287.5 614.5,-257.5 502.5,-257.5"/>
<text text-anchor="start" x="510.5" y="-275.5" font-family="Helvetica,sans-Serif" font-size="10.00">arg_router/counting</text>
<text text-anchor="middle" x="558.5" y="-264.5" font-family="Helvetica,sans-Serif" font-size="10.00">_flag.hpp</text>
</a>
</g>
</g>
<!-- Node4&#45;&gt;Node9 -->
<g id="edge9" class="edge">
<title>Node4&#45;&gt;Node9</title>
<path fill="none" stroke="midnightblue" d="M701.59,-326.35C671.76,-315.33 627.8,-299.09 596.48,-287.53"/>
<polygon fill="midnightblue" stroke="midnightblue" points="700.54,-329.69 711.13,-329.87 702.96,-323.12 700.54,-329.69"/>
</g>
<!-- Node10 -->
<g id="node10" class="node">
<title>Node10</title>
<g id="a_node10"><a xlink:href="flag_8hpp_source.html" target="_top" xlink:title=" ">
<polygon fill="none" stroke="black" points="633,-263 633,-282 742,-282 742,-263 633,-263"/>
<text text-anchor="middle" x="687.5" y="-270" font-family="Helvetica,sans-Serif" font-size="10.00">arg_router/flag.hpp</text>
</a>
</g>
</g>
<!-- Node4&#45;&gt;Node10 -->
<g id="edge11" class="edge">
<title>Node4&#45;&gt;Node10</title>
<path fill="none" stroke="midnightblue" d="M722.14,-321.4C713.01,-308.77 700.95,-292.1 693.74,-282.13"/>
<polygon fill="midnightblue" stroke="midnightblue" points="719.47,-323.68 728.16,-329.73 725.14,-319.58 719.47,-323.68"/>
</g>
<!-- Node11 -->
<g id="node11" class="node">
<title>Node11</title>
<g id="a_node11"><a xlink:href="help_8hpp_source.html" target="_top" xlink:title=" ">
<polygon fill="none" stroke="black" points="72.5,-263 72.5,-282 184.5,-282 184.5,-263 72.5,-263"/>
<text text-anchor="middle" x="128.5" y="-270" font-family="Helvetica,sans-Serif" font-size="10.00">arg_router/help.hpp</text>
</a>
</g>
</g>
<!-- Node4&#45;&gt;Node11 -->
<g id="edge13" class="edge">
<title>Node4&#45;&gt;Node11</title>
<path fill="none" stroke="midnightblue" d="M654.13,-334.18C548.12,-327.76 355.99,-313.6 193.5,-288 183.56,-286.43 172.87,-284.26 163.09,-282.07"/>
<polygon fill="midnightblue" stroke="midnightblue" points="653.92,-337.67 664.12,-334.78 654.34,-330.69 653.92,-337.67"/>
</g>
<!-- Node12 -->
<g id="node12" class="node">
<title>Node12</title>
<g id="a_node12"><a xlink:href="mode_8hpp_source.html" target="_top" xlink:title=" ">
<polygon fill="none" stroke="black" points="524,-196 524,-215 643,-215 643,-196 524,-196"/>
<text text-anchor="middle" x="583.5" y="-203" font-family="Helvetica,sans-Serif" font-size="10.00">arg_router/mode.hpp</text>
</a>
</g>
</g>
<!-- Node4&#45;&gt;Node12 -->
<g id="edge15" class="edge">
<title>Node4&#45;&gt;Node12</title>
<path fill="none" stroke="midnightblue" d="M745.34,-321.2C754.95,-303.44 765.47,-275.79 751.5,-257 737.42,-238.06 678.8,-223.54 634.74,-215.03"/>
<polygon fill="midnightblue" stroke="midnightblue" points="742.27,-319.54 740.26,-329.94 748.32,-323.06 742.27,-319.54"/>
</g>
<!-- Node13 -->
<g id="node13" class="node">
<title>Node13</title>
<g id="a_node13"><a xlink:href="detail_8hpp_source.html" target="_top" xlink:title=" ">
<polygon fill="none" stroke="black" points="1049,-257.5 1049,-287.5 1178,-287.5 1178,-257.5 1049,-257.5"/>
<text text-anchor="start" x="1057" y="-275.5" font-family="Helvetica,sans-Serif" font-size="10.00">arg_router/dependency</text>
<text text-anchor="middle" x="1113.5" y="-264.5" font-family="Helvetica,sans-Serif" font-size="10.00">/detail.hpp</text>
</a>
</g>
</g>
<!-- Node4&#45;&gt;Node13 -->
<g id="edge17" class="edge">
<title>Node4&#45;&gt;Node13</title>
<path fill="none" stroke="midnightblue" d="M798.85,-328.41C860.64,-318.59 956.57,-302.99 1039.5,-288 1042.59,-287.44 1045.75,-286.86 1048.95,-286.26"/>
<polygon fill="midnightblue" stroke="midnightblue" points="798.18,-324.97 788.85,-330 799.28,-331.88 798.18,-324.97"/>
</g>
<!-- Node16 -->
<g id="node16" class="node">
<title>Node16</title>
<g id="a_node16"><a xlink:href="positional__arg_8hpp_source.html" target="_top" xlink:title=" ">
<polygon fill="none" stroke="black" points="366.5,-257.5 366.5,-287.5 484.5,-287.5 484.5,-257.5 366.5,-257.5"/>
<text text-anchor="start" x="374.5" y="-275.5" font-family="Helvetica,sans-Serif" font-size="10.00">arg_router/positional</text>
<text text-anchor="middle" x="425.5" y="-264.5" font-family="Helvetica,sans-Serif" font-size="10.00">_arg.hpp</text>
</a>
</g>
</g>
<!-- Node4&#45;&gt;Node16 -->
<g id="edge22" class="edge">
<title>Node4&#45;&gt;Node16</title>
<path fill="none" stroke="midnightblue" d="M683.57,-327.88C634.78,-317.7 559.1,-301.87 493.5,-288 490.67,-287.4 487.77,-286.79 484.84,-286.17"/>
<polygon fill="midnightblue" stroke="midnightblue" points="683.05,-331.35 693.55,-329.97 684.48,-324.5 683.05,-331.35"/>
</g>
<!-- Node17 -->
<g id="node17" class="node">
<title>Node17</title>
<g id="a_node17"><a xlink:href="root_8hpp_source.html" target="_top" xlink:title=" ">
<polygon fill="none" stroke="black" points="798.5,-263 798.5,-282 908.5,-282 908.5,-263 798.5,-263"/>
<text text-anchor="middle" x="853.5" y="-270" font-family="Helvetica,sans-Serif" font-size="10.00">arg_router/root.hpp</text>
</a>
</g>
</g>
<!-- Node4&#45;&gt;Node17 -->
<g id="edge24" class="edge">
<title>Node4&#45;&gt;Node17</title>
<path fill="none" stroke="midnightblue" d="M759.61,-324.79C783.19,-311.9 817.76,-293.02 837.71,-282.13"/>
<polygon fill="midnightblue" stroke="midnightblue" points="757.65,-321.87 750.55,-329.73 761,-328.01 757.65,-321.87"/>
</g>
<!-- Node18 -->
<g id="node18" class="node">
<title>Node18</title>
<g id="a_node18"><a xlink:href="tree__recursor_8hpp_source.html" target="_top" xlink:title=" ">
<polygon fill="none" stroke="black" points="926.5,-257.5 926.5,-287.5 1030.5,-287.5 1030.5,-257.5 926.5,-257.5"/>
<text text-anchor="start" x="934.5" y="-275.5" font-family="Helvetica,sans-Serif" font-size="10.00">arg_router/utility</text>
<text text-anchor="middle" x="978.5" y="-264.5" font-family="Helvetica,sans-Serif" font-size="10.00">/tree_recursor.hpp</text>
</a>
</g>
</g>
<!-- Node4&#45;&gt;Node18 -->
<g id="edge26" class="edge">
<title>Node4&#45;&gt;Node18</title>
<path fill="none" stroke="midnightblue" d="M776.43,-327.33C817.89,-316.28 881.45,-299.35 926.19,-287.44"/>
<polygon fill="midnightblue" stroke="midnightblue" points="775.41,-323.98 766.65,-329.94 777.21,-330.74 775.41,-323.98"/>
</g>
<!-- Node6 -->
<g id="node6" class="node">
<title>Node6</title>
<g id="a_node6"><a xlink:href="validator_8hpp_source.html" target="_top" xlink:title=" ">
<polygon fill="none" stroke="black" points="689.5,-129 689.5,-148 855.5,-148 855.5,-129 689.5,-129"/>
<text text-anchor="middle" x="772.5" y="-136" font-family="Helvetica,sans-Serif" font-size="10.00">arg_router/policy/validator.hpp</text>
</a>
</g>
</g>
<!-- Node5&#45;&gt;Node6 -->
<g id="edge5" class="edge">
<title>Node5&#45;&gt;Node6</title>
<path fill="none" stroke="midnightblue" d="M282.93,-258.45C320.57,-240.39 392.2,-207.98 456.5,-190 533.95,-168.34 624.84,-155.03 689.21,-147.55"/>
<polygon fill="midnightblue" stroke="midnightblue" points="281.16,-255.41 273.68,-262.92 284.21,-261.71 281.16,-255.41"/>
</g>
<!-- Node7 -->
<g id="node7" class="node">
<title>Node7</title>
<g id="a_node7"><a xlink:href="arg__router_8hpp_source.html" target="_top" xlink:title=" ">
<polygon fill="none" stroke="black" points="1396.5,-0.5 1396.5,-19.5 1536.5,-19.5 1536.5,-0.5 1396.5,-0.5"/>
<text text-anchor="middle" x="1466.5" y="-7.5" font-family="Helvetica,sans-Serif" font-size="10.00">arg_router/arg_router.hpp</text>
</a>
</g>
</g>
<!-- Node6&#45;&gt;Node7 -->
<g id="edge6" class="edge">
<title>Node6&#45;&gt;Node7</title>
<path fill="none" stroke="midnightblue" d="M811.63,-126.14C872.78,-108.76 994.96,-75.53 1100.5,-56 1202.64,-37.1 1322.33,-24.08 1396.29,-17.08"/>
<polygon fill="midnightblue" stroke="midnightblue" points="810.3,-122.88 801.64,-128.99 812.22,-129.61 810.3,-122.88"/>
</g>
<!-- Node8 -->
<g id="node8" class="node">
<title>Node8</title>
<g id="a_node8"><a xlink:href="validator__rule__utilities_8hpp_source.html" target="_top" xlink:title=" ">
<polygon fill="none" stroke="black" points="1109.5,-56.5 1109.5,-86.5 1255.5,-86.5 1255.5,-56.5 1109.5,-56.5"/>
<text text-anchor="start" x="1117.5" y="-74.5" font-family="Helvetica,sans-Serif" font-size="10.00">arg_router/policy/validator</text>
<text text-anchor="middle" x="1182.5" y="-63.5" font-family="Helvetica,sans-Serif" font-size="10.00">_rule_utilities.hpp</text>
</a>
</g>
</g>
<!-- Node6&#45;&gt;Node8 -->
<g id="edge7" class="edge">
<title>Node6&#45;&gt;Node8</title>
<path fill="none" stroke="midnightblue" d="M836.63,-127.33C910.54,-115.62 1031.77,-96.4 1109.31,-84.1"/>
<polygon fill="midnightblue" stroke="midnightblue" points="835.85,-123.91 826.52,-128.94 836.95,-130.83 835.85,-123.91"/>
</g>
<!-- Node8&#45;&gt;Node7 -->
<g id="edge8" class="edge">
<title>Node8&#45;&gt;Node7</title>
<path fill="none" stroke="midnightblue" d="M1259.28,-54.41C1312.98,-43.16 1382.59,-28.58 1425.9,-19.51"/>
<polygon fill="midnightblue" stroke="midnightblue" points="1258.51,-51 1249.44,-56.47 1259.95,-57.85 1258.51,-51"/>
</g>
<!-- Node9&#45;&gt;Node6 -->
<g id="edge10" class="edge">
<title>Node9&#45;&gt;Node6</title>
<path fill="none" stroke="midnightblue" d="M529.7,-250.96C509.35,-233.95 488.34,-209.49 504.5,-190 527.69,-162.03 619.43,-149.44 689.17,-143.85"/>
<polygon fill="midnightblue" stroke="midnightblue" points="527.68,-253.82 537.69,-257.31 532.04,-248.34 527.68,-253.82"/>
</g>
<!-- Node10&#45;&gt;Node6 -->
<g id="edge12" class="edge">
<title>Node10&#45;&gt;Node6</title>
<path fill="none" stroke="midnightblue" d="M639.37,-260.57C590.9,-249.07 522.19,-231.25 514.5,-221 506.23,-209.98 505.74,-200.64 514.5,-190 536.44,-163.35 622.51,-150.56 689.28,-144.56"/>
<polygon fill="midnightblue" stroke="midnightblue" points="638.85,-264.04 649.38,-262.92 640.45,-257.22 638.85,-264.04"/>
</g>
<!-- Node11&#45;&gt;Node6 -->
<g id="edge14" class="edge">
<title>Node11&#45;&gt;Node6</title>
<path fill="none" stroke="midnightblue" d="M158.5,-259.16C203.54,-241.14 291.65,-207.85 369.5,-190 478.61,-164.98 607.37,-151.57 689.45,-145"/>
<polygon fill="midnightblue" stroke="midnightblue" points="157.01,-255.99 149.05,-262.97 159.63,-262.48 157.01,-255.99"/>
</g>
<!-- Node12&#45;&gt;Node6 -->
<g id="edge16" class="edge">
<title>Node12&#45;&gt;Node6</title>
<path fill="none" stroke="midnightblue" d="M618.1,-192.6C655.57,-179.71 714.43,-159.47 747.6,-148.06"/>
<polygon fill="midnightblue" stroke="midnightblue" points="616.92,-189.31 608.6,-195.87 619.19,-195.93 616.92,-189.31"/>
</g>
<!-- Node14 -->
<g id="node14" class="node">
<title>Node14</title>
<g id="a_node14"><a xlink:href="alias__group_8hpp_source.html" target="_top" xlink:title=" ">
<polygon fill="none" stroke="black" points="1049,-190.5 1049,-220.5 1178,-220.5 1178,-190.5 1049,-190.5"/>
<text text-anchor="start" x="1057" y="-208.5" font-family="Helvetica,sans-Serif" font-size="10.00">arg_router/dependency</text>
<text text-anchor="middle" x="1113.5" y="-197.5" font-family="Helvetica,sans-Serif" font-size="10.00">/alias_group.hpp</text>
</a>
</g>
</g>
<!-- Node13&#45;&gt;Node14 -->
<g id="edge18" class="edge">
<title>Node13&#45;&gt;Node14</title>
<path fill="none" stroke="midnightblue" d="M1113.5,-247.11C1113.5,-238.15 1113.5,-228.32 1113.5,-220.58"/>
<polygon fill="midnightblue" stroke="midnightblue" points="1110,-247.4 1113.5,-257.4 1117,-247.4 1110,-247.4"/>
</g>
<!-- Node15 -->
<g id="node15" class="node">
<title>Node15</title>
<g id="a_node15"><a xlink:href="one__of_8hpp_source.html" target="_top" xlink:title=" ">
<polygon fill="none" stroke="black" points="902,-190.5 902,-220.5 1031,-220.5 1031,-190.5 902,-190.5"/>
<text text-anchor="start" x="910" y="-208.5" font-family="Helvetica,sans-Serif" font-size="10.00">arg_router/dependency</text>
<text text-anchor="middle" x="966.5" y="-197.5" font-family="Helvetica,sans-Serif" font-size="10.00">/one_of.hpp</text>
</a>
</g>
</g>
<!-- Node13&#45;&gt;Node15 -->
<g id="edge20" class="edge">
<title>Node13&#45;&gt;Node15</title>
<path fill="none" stroke="midnightblue" d="M1072.27,-253.27C1048.86,-242.92 1019.99,-230.15 998.33,-220.58"/>
<polygon fill="midnightblue" stroke="midnightblue" points="1071.04,-256.55 1081.6,-257.4 1073.87,-250.15 1071.04,-256.55"/>
</g>
<!-- Node14&#45;&gt;Node6 -->
<g id="edge19" class="edge">
<title>Node14&#45;&gt;Node6</title>
<path fill="none" stroke="midnightblue" d="M1038.78,-189.68C955.78,-173.65 869.9,-157.58 818.53,-148.03"/>
<polygon fill="midnightblue" stroke="midnightblue" points="1038.15,-193.12 1048.63,-191.58 1039.47,-186.25 1038.15,-193.12"/>
</g>
<!-- Node15&#45;&gt;Node6 -->
<g id="edge21" class="edge">
<title>Node15&#45;&gt;Node6</title>
<path fill="none" stroke="midnightblue" d="M914.59,-187.11C876.85,-174.46 827.39,-157.89 797.89,-148.01"/>
<polygon fill="midnightblue" stroke="midnightblue" points="913.81,-190.54 924.4,-190.4 916.03,-183.9 913.81,-190.54"/>
</g>
<!-- Node16&#45;&gt;Node6 -->
<g id="edge23" class="edge">
<title>Node16&#45;&gt;Node6</title>
<path fill="none" stroke="midnightblue" d="M438.78,-248.78C451.04,-229.94 471.03,-204.04 495.5,-190 554.65,-156.07 631.59,-144.13 689.37,-140.28"/>
<polygon fill="midnightblue" stroke="midnightblue" points="435.73,-247.05 433.39,-257.38 441.67,-250.76 435.73,-247.05"/>
</g>
<!-- Node17&#45;&gt;Node6 -->
<g id="edge25" class="edge">
<title>Node17&#45;&gt;Node6</title>
<path fill="none" stroke="midnightblue" d="M808.63,-260.5C762.92,-248.85 697.73,-230.8 690.5,-221 682.33,-209.91 683.78,-202.03 690.5,-190 702.16,-169.13 726.38,-155.82 745.49,-148.13"/>
<polygon fill="midnightblue" stroke="midnightblue" points="807.8,-263.9 818.35,-262.96 809.51,-257.11 807.8,-263.9"/>
</g>
<!-- Node18&#45;&gt;Node6 -->
<g id="edge32" class="edge">
<title>Node18&#45;&gt;Node6</title>
<path fill="none" stroke="midnightblue" d="M943.79,-252.31C928.12,-243.28 909.56,-232.08 893.5,-221 875.27,-208.43 872.63,-202.72 854.5,-190 831.92,-174.16 804.38,-157.76 787.66,-148.1"/>
<polygon fill="midnightblue" stroke="midnightblue" points="942.23,-255.44 952.65,-257.35 945.69,-249.36 942.23,-255.44"/>
</g>
<!-- Node18&#45;&gt;Node12 -->
<g id="edge27" class="edge">
<title>Node18&#45;&gt;Node12</title>
<path fill="none" stroke="midnightblue" d="M916.15,-256.86C851.4,-244.9 720.11,-225.86 643.01,-214.89"/>
<polygon fill="midnightblue" stroke="midnightblue" points="915.84,-260.37 926.32,-258.79 917.15,-253.49 915.84,-260.37"/>
</g>
<!-- Node19 -->
<g id="node19" class="node">
<title>Node19</title>
<g id="a_node19"><a xlink:href="alias_8hpp_source.html" target="_top" xlink:title=" ">
<polygon fill="none" stroke="black" points="699.5,-196 699.5,-215 845.5,-215 845.5,-196 699.5,-196"/>
<text text-anchor="middle" x="772.5" y="-203" font-family="Helvetica,sans-Serif" font-size="10.00">arg_router/policy/alias.hpp</text>
</a>
</g>
</g>
<!-- Node18&#45;&gt;Node19 -->
<g id="edge28" class="edge">
<title>Node18&#45;&gt;Node19</title>
<path fill="none" stroke="midnightblue" d="M924.4,-254.43C884.23,-241.75 831.13,-225 799.53,-215.03"/>
<polygon fill="midnightblue" stroke="midnightblue" points="923.46,-257.8 934.05,-257.48 925.57,-251.13 923.46,-257.8"/>
</g>
<!-- Node20 -->
<g id="node20" class="node">
<title>Node20</title>
<g id="a_node20"><a xlink:href="dependent_8hpp_source.html" target="_top" xlink:title=" ">
<polygon fill="none" stroke="black" points="1235,-196 1235,-215 1410,-215 1410,-196 1235,-196"/>
<text text-anchor="middle" x="1322.5" y="-203" font-family="Helvetica,sans-Serif" font-size="10.00">arg_router/policy/dependent.hpp</text>
</a>
</g>
</g>
<!-- Node18&#45;&gt;Node20 -->
<g id="edge30" class="edge">
<title>Node18&#45;&gt;Node20</title>
<path fill="none" stroke="midnightblue" d="M1040.2,-257.06C1040.3,-257.04 1040.4,-257.02 1040.5,-257 1120.26,-240.54 1213.37,-224.48 1270.11,-215.04"/>
<polygon fill="midnightblue" stroke="midnightblue" points="1039.6,-253.61 1030.55,-259.12 1041.06,-260.46 1039.6,-253.61"/>
</g>
<!-- Node19&#45;&gt;Node6 -->
<g id="edge29" class="edge">
<title>Node19&#45;&gt;Node6</title>
<path fill="none" stroke="midnightblue" d="M772.5,-185.54C772.5,-173.17 772.5,-157.62 772.5,-148.13"/>
<polygon fill="midnightblue" stroke="midnightblue" points="769,-185.73 772.5,-195.73 776,-185.73 769,-185.73"/>
</g>
<!-- Node20&#45;&gt;Node7 -->
<g id="edge31" class="edge">
<title>Node20&#45;&gt;Node7</title>
<path fill="none" stroke="midnightblue" d="M1335.09,-187.58C1364.62,-147.9 1437.51,-49.95 1459.87,-19.91"/>
<polygon fill="midnightblue" stroke="midnightblue" points="1332.04,-185.82 1328.87,-195.94 1337.65,-190 1332.04,-185.82"/>
</g>
<!-- Node21&#45;&gt;Node17 -->
<g id="edge34" class="edge">
<title>Node21&#45;&gt;Node17</title>
<path fill="none" stroke="midnightblue" d="M947.26,-515.63C925.3,-458.93 870.79,-318.16 856.81,-282.05"/>
<polygon fill="midnightblue" stroke="midnightblue" points="944.09,-517.14 950.96,-525.2 950.62,-514.61 944.09,-517.14"/>
</g>
<!-- Node22&#45;&gt;Node4 -->
<g id="edge41" class="edge">
<title>Node22&#45;&gt;Node4</title>
<path fill="none" stroke="midnightblue" d="M647.9,-386.64C671.24,-374.2 700.69,-358.51 718.53,-349.01"/>
<polygon fill="midnightblue" stroke="midnightblue" points="646.15,-383.6 638.97,-391.4 649.44,-389.78 646.15,-383.6"/>
</g>
<!-- Node22&#45;&gt;Node5 -->
<g id="edge36" class="edge">
<title>Node22&#45;&gt;Node5</title>
<path fill="none" stroke="midnightblue" d="M541.75,-399.65C491.5,-393.43 423.48,-380.74 368.5,-355 348.45,-345.61 347.28,-337.19 329.5,-324 308.83,-308.66 284.06,-291.85 269.34,-282.01"/>
<polygon fill="midnightblue" stroke="midnightblue" points="541.53,-403.15 551.87,-400.85 542.35,-396.2 541.53,-403.15"/>
</g>
<!-- Node22&#45;&gt;Node9 -->
<g id="edge37" class="edge">
<title>Node22&#45;&gt;Node9</title>
<path fill="none" stroke="midnightblue" d="M602.93,-382.12C591.71,-354.68 573.47,-310.09 564.24,-287.52"/>
<polygon fill="midnightblue" stroke="midnightblue" points="599.7,-383.44 606.72,-391.37 606.17,-380.79 599.7,-383.44"/>
</g>
<!-- Node22&#45;&gt;Node10 -->
<g id="edge38" class="edge">
<title>Node22&#45;&gt;Node10</title>
<path fill="none" stroke="midnightblue" d="M624.23,-382.09C632.61,-365.65 644.34,-343.26 655.5,-324 664.14,-309.09 675.03,-292.28 681.62,-282.31"/>
<polygon fill="midnightblue" stroke="midnightblue" points="620.87,-380.97 619.47,-391.47 627.12,-384.13 620.87,-380.97"/>
</g>
<!-- Node22&#45;&gt;Node11 -->
<g id="edge39" class="edge">
<title>Node22&#45;&gt;Node11</title>
<path fill="none" stroke="midnightblue" d="M541.66,-404.14C435.93,-400.95 243,-390.32 184.5,-355 155.84,-337.7 138.35,-299.47 131.64,-282.23"/>
<polygon fill="midnightblue" stroke="midnightblue" points="541.83,-407.64 551.93,-404.43 542.03,-400.65 541.83,-407.64"/>
</g>
<!-- Node22&#45;&gt;Node16 -->
<g id="edge40" class="edge">
<title>Node22&#45;&gt;Node16</title>
<path fill="none" stroke="midnightblue" d="M585.83,-385.07C563.74,-368.32 531.41,-344.17 502.5,-324 484.27,-311.29 463.14,-297.49 447.63,-287.54"/>
<polygon fill="midnightblue" stroke="midnightblue" points="583.97,-388.06 594.05,-391.33 588.21,-382.49 583.97,-388.06"/>
</g>
<!-- Node23&#45;&gt;Node7 -->
<g id="edge43" class="edge">
<title>Node23&#45;&gt;Node7</title>
<path fill="none" stroke="midnightblue" d="M1451.62,-386.62C1465.77,-378.67 1480.38,-368.16 1490.5,-355 1513.51,-325.06 1514.5,-311.26 1514.5,-273.5 1514.5,-273.5 1514.5,-273.5 1514.5,-137.5 1514.5,-90.52 1485.2,-39.74 1472.39,-19.77"/>
<polygon fill="midnightblue" stroke="midnightblue" points="1449.65,-383.7 1442.44,-391.47 1452.92,-389.89 1449.65,-383.7"/>
</g>
<!-- Node24&#45;&gt;Node6 -->
<g id="edge45" class="edge">
<title>Node24&#45;&gt;Node6</title>
<path fill="none" stroke="midnightblue" d="M1238.66,-392.77C1312.74,-359.84 1492.49,-268.91 1419.5,-190 1381.96,-149.42 1021.75,-141.38 855.65,-139.84"/>
<polygon fill="midnightblue" stroke="midnightblue" points="1237.1,-389.63 1229.35,-396.85 1239.91,-396.04 1237.1,-389.63"/>
</g>
<!-- Node25&#45;&gt;Node6 -->
<g id="edge47" class="edge">
<title>Node25&#45;&gt;Node6</title>
<path fill="none" stroke="midnightblue" d="M1292.18,-520.94C1298.51,-491.78 1313.26,-434.11 1338.5,-391 1389.21,-304.37 1509.76,-263.6 1441.5,-190 1402.42,-147.86 1025.92,-140.68 855.54,-139.6"/>
<polygon fill="midnightblue" stroke="midnightblue" points="1288.71,-520.44 1290.1,-530.95 1295.56,-521.87 1288.71,-520.44"/>
</g>
<!-- Node27 -->
<g id="node27" class="node">
<title>Node27</title>
<g id="a_node27"><a xlink:href="parsing_8hpp_source.html" target="_top" xlink:title=" ">
<polygon fill="none" stroke="black" points="1045.5,-458.5 1045.5,-488.5 1151.5,-488.5 1151.5,-458.5 1045.5,-458.5"/>
<text text-anchor="start" x="1053.5" y="-476.5" font-family="Helvetica,sans-Serif" font-size="10.00">arg_router/parsing</text>
<text text-anchor="middle" x="1098.5" y="-465.5" font-family="Helvetica,sans-Serif" font-size="10.00">/parsing.hpp</text>
</a>
</g>
</g>
<!-- Node26&#45;&gt;Node27 -->
<g id="edge49" class="edge">
<title>Node26&#45;&gt;Node27</title>
<path fill="none" stroke="midnightblue" d="M1098.5,-515.11C1098.5,-506.15 1098.5,-496.32 1098.5,-488.58"/>
<polygon fill="midnightblue" stroke="midnightblue" points="1095,-515.4 1098.5,-525.4 1102,-515.4 1095,-515.4"/>
</g>
<!-- Node27&#45;&gt;Node4 -->
<g id="edge60" class="edge">
<title>Node27&#45;&gt;Node4</title>
<path fill="none" stroke="midnightblue" d="M1050.18,-454.98C971.17,-426.32 817.22,-370.5 758.26,-349.12"/>
<polygon fill="midnightblue" stroke="midnightblue" points="1049.3,-458.38 1059.89,-458.5 1051.68,-451.8 1049.3,-458.38"/>
</g>
<!-- Node27&#45;&gt;Node20 -->
<g id="edge50" class="edge">
<title>Node27&#45;&gt;Node20</title>
<path fill="none" stroke="midnightblue" d="M1100.32,-448.05C1102.48,-431.07 1107.2,-408.45 1117.5,-391 1143.86,-346.37 1272.25,-245.27 1311.25,-215.13"/>
<polygon fill="midnightblue" stroke="midnightblue" points="1096.81,-447.97 1099.24,-458.29 1103.77,-448.71 1096.81,-447.97"/>
</g>
<!-- Node27&#45;&gt;Node22 -->
<g id="edge51" class="edge">
<title>Node27&#45;&gt;Node22</title>
<path fill="none" stroke="midnightblue" d="M1035.15,-464.03C941.1,-451.45 765.71,-427.99 673.2,-415.62"/>
<polygon fill="midnightblue" stroke="midnightblue" points="1034.72,-467.5 1045.1,-465.36 1035.65,-460.56 1034.72,-467.5"/>
</g>
<!-- Node27&#45;&gt;Node23 -->
<g id="edge52" class="edge">
<title>Node27&#45;&gt;Node23</title>
<path fill="none" stroke="midnightblue" d="M1161.45,-459.26C1215.65,-447.86 1293.36,-431.51 1346.88,-420.25"/>
<polygon fill="midnightblue" stroke="midnightblue" points="1160.68,-455.84 1151.62,-461.33 1162.13,-462.69 1160.68,-455.84"/>
</g>
<!-- Node27&#45;&gt;Node24 -->
<g id="edge53" class="edge">
<title>Node27&#45;&gt;Node24</title>
<path fill="none" stroke="midnightblue" d="M1130.98,-453.31C1151.93,-440.93 1178.16,-425.43 1194.1,-416.01"/>
<polygon fill="midnightblue" stroke="midnightblue" points="1129.2,-450.3 1122.37,-458.4 1132.76,-456.32 1129.2,-450.3"/>
</g>
<!-- Node28 -->
<g id="node28" class="node">
<title>Node28</title>
<g id="a_node28"><a xlink:href="short__form__expander_8hpp_source.html" target="_top" xlink:title=" ">
<polygon fill="none" stroke="black" points="977,-324.5 977,-354.5 1104,-354.5 1104,-324.5 977,-324.5"/>
<text text-anchor="start" x="985" y="-342.5" font-family="Helvetica,sans-Serif" font-size="10.00">arg_router/policy/short</text>
<text text-anchor="middle" x="1040.5" y="-331.5" font-family="Helvetica,sans-Serif" font-size="10.00">_form_expander.hpp</text>
</a>
</g>
</g>
<!-- Node27&#45;&gt;Node28 -->
<g id="edge54" class="edge">
<title>Node27&#45;&gt;Node28</title>
<path fill="none" stroke="midnightblue" d="M1088.23,-449.12C1076.17,-421.68 1056.58,-377.09 1046.66,-354.52"/>
<polygon fill="midnightblue" stroke="midnightblue" points="1085.07,-450.63 1092.29,-458.37 1091.47,-447.81 1085.07,-450.63"/>
</g>
<!-- Node27&#45;&gt;Node29 -->
<g id="edge58" class="edge">
<title>Node27&#45;&gt;Node29</title>
<path fill="none" stroke="midnightblue" d="M1161.97,-465.29C1237.4,-456.44 1366.95,-440.32 1477.5,-422 1480.18,-421.56 1482.91,-421.09 1485.66,-420.6"/>
<polygon fill="midnightblue" stroke="midnightblue" points="1161.22,-461.86 1151.7,-466.49 1162.04,-468.81 1161.22,-461.86"/>
</g>
<!-- Node28&#45;&gt;Node6 -->
<g id="edge57" class="edge">
<title>Node28&#45;&gt;Node6</title>
<path fill="none" stroke="midnightblue" d="M1114.29,-331.12C1141.88,-324.36 1170.6,-311.67 1187.5,-288 1212.81,-252.55 1216.38,-222.61 1187.5,-190 1165.91,-165.62 970.56,-150.6 855.74,-143.8"/>
<polygon fill="midnightblue" stroke="midnightblue" points="1113.21,-327.78 1104.2,-333.35 1114.72,-334.61 1113.21,-327.78"/>
</g>
<!-- Node28&#45;&gt;Node9 -->
<g id="edge55" class="edge">
<title>Node28&#45;&gt;Node9</title>
<path fill="none" stroke="midnightblue" d="M966.83,-331.8C883.25,-323.69 743.04,-308.52 623.5,-288 620.65,-287.51 617.74,-286.98 614.8,-286.42"/>
<polygon fill="midnightblue" stroke="midnightblue" points="966.7,-335.31 976.99,-332.78 967.37,-328.34 966.7,-335.31"/>
</g>
<!-- Node28&#45;&gt;Node10 -->
<g id="edge56" class="edge">
<title>Node28&#45;&gt;Node10</title>
<path fill="none" stroke="midnightblue" d="M966.88,-324.94C896.73,-312.03 793.25,-292.97 733.91,-282.04"/>
<polygon fill="midnightblue" stroke="midnightblue" points="966.51,-328.44 976.98,-326.8 967.78,-321.55 966.51,-328.44"/>
</g>
<!-- Node29&#45;&gt;Node7 -->
<g id="edge59" class="edge">
<title>Node29&#45;&gt;Node7</title>
<path fill="none" stroke="midnightblue" d="M1551.09,-380.99C1551.68,-354.49 1552.5,-311 1552.5,-273.5 1552.5,-273.5 1552.5,-273.5 1552.5,-137.5 1552.5,-85.18 1501.57,-38.47 1478.1,-19.72"/>
<polygon fill="midnightblue" stroke="midnightblue" points="1547.59,-381.16 1550.86,-391.24 1554.59,-381.32 1547.59,-381.16"/>
</g>
<!-- Node30&#45;&gt;Node7 -->
<g id="edge62" class="edge">
<title>Node30&#45;&gt;Node7</title>
<path fill="none" stroke="midnightblue" d="M1609.37,-454.99C1622.34,-430.28 1643.5,-383.39 1643.5,-340.5 1643.5,-340.5 1643.5,-340.5 1643.5,-137.5 1643.5,-69.14 1555.02,-34.21 1503.17,-19.61"/>
<polygon fill="midnightblue" stroke="midnightblue" points="1606.24,-453.41 1604.55,-463.87 1612.39,-456.75 1606.24,-453.41"/>
</g>
<!-- Node31&#45;&gt;Node7 -->
<g id="edge64" class="edge">
<title>Node31&#45;&gt;Node7</title>
<path fill="none" stroke="midnightblue" d="M1717.67,-115.04C1704.18,-96.4 1682.58,-70.66 1657.5,-56 1620.89,-34.59 1574.71,-23.36 1536.93,-17.47"/>
<polygon fill="midnightblue" stroke="midnightblue" points="1714.84,-117.11 1723.45,-123.29 1720.58,-113.09 1714.84,-117.11"/>
</g>
<!-- Node32&#45;&gt;Node11 -->
<g id="edge66" class="edge">
<title>Node32&#45;&gt;Node11</title>
<path fill="none" stroke="midnightblue" d="M88.35,-317C99.3,-305.13 112.3,-291.05 120.47,-282.19"/>
<polygon fill="midnightblue" stroke="midnightblue" points="85.73,-314.67 81.52,-324.4 90.87,-319.42 85.73,-314.67"/>
</g>
<!-- Node33 -->
<g id="node33" class="node">
<title>Node33</title>
<g id="a_node33"><a xlink:href="colour__help__formatter_8hpp_source.html" target="_top" xlink:title=" ">
<polygon fill="none" stroke="black" points="237.5,-56.5 237.5,-86.5 369.5,-86.5 369.5,-56.5 237.5,-56.5"/>
<text text-anchor="start" x="245.5" y="-74.5" font-family="Helvetica,sans-Serif" font-size="10.00">arg_router/policy/colour</text>
<text text-anchor="middle" x="303.5" y="-63.5" font-family="Helvetica,sans-Serif" font-size="10.00">_help_formatter.hpp</text>
</a>
</g>
</g>
<!-- Node32&#45;&gt;Node33 -->
<g id="edge67" class="edge">
<title>Node32&#45;&gt;Node33</title>
<path fill="none" stroke="midnightblue" d="M57.65,-314.8C51.62,-298.22 46.59,-275.79 53.5,-257 67,-220.31 80.76,-215.38 110.5,-190 163.02,-145.19 234.55,-106.45 274.12,-86.62"/>
<polygon fill="midnightblue" stroke="midnightblue" points="54.48,-316.29 61.44,-324.27 60.98,-313.69 54.48,-316.29"/>
</g>
<!-- Node33&#45;&gt;Node7 -->
<g id="edge68" class="edge">
<title>Node33&#45;&gt;Node7</title>
<path fill="none" stroke="midnightblue" d="M379.93,-66.59C592.95,-55.69 1191.09,-25.09 1396.33,-14.59"/>
<polygon fill="midnightblue" stroke="midnightblue" points="379.59,-63.1 369.78,-67.11 379.95,-70.09 379.59,-63.1"/>
</g>
<!-- Node34&#45;&gt;Node5 -->
<g id="edge70" class="edge">
<title>Node34&#45;&gt;Node5</title>
<path fill="none" stroke="midnightblue" d="M257.13,-314.25C256.95,-303.02 256.76,-290.38 256.63,-282.19"/>
<polygon fill="midnightblue" stroke="midnightblue" points="253.63,-314.45 257.28,-324.4 260.63,-314.34 253.63,-314.45"/>
</g>
<!-- Node34&#45;&gt;Node6 -->
<g id="edge74" class="edge">
<title>Node34&#45;&gt;Node6</title>
<path fill="none" stroke="midnightblue" d="M183.8,-328.75C135.43,-320.67 78.45,-307.34 63.5,-288 55.07,-277.1 55.5,-268.21 63.5,-257 135.04,-156.78 517.72,-141.25 689.24,-139.4"/>
<polygon fill="midnightblue" stroke="midnightblue" points="183.54,-332.25 193.97,-330.4 184.66,-325.34 183.54,-332.25"/>
</g>
<!-- Node34&#45;&gt;Node9 -->
<g id="edge71" class="edge">
<title>Node34&#45;&gt;Node9</title>
<path fill="none" stroke="midnightblue" d="M331.14,-322.91C377.71,-313.02 439.16,-299.88 493.5,-288 496.44,-287.36 499.45,-286.7 502.49,-286.03"/>
<polygon fill="midnightblue" stroke="midnightblue" points="330.19,-319.54 321.14,-325.04 331.65,-326.38 330.19,-319.54"/>
</g>
<!-- Node34&#45;&gt;Node10 -->
<g id="edge72" class="edge">
<title>Node34&#45;&gt;Node10</title>
<path fill="none" stroke="midnightblue" d="M331.39,-328.65C429.98,-315.46 595.46,-293.1 623.5,-288 632.92,-286.29 643.04,-284.14 652.4,-282.02"/>
<polygon fill="midnightblue" stroke="midnightblue" points="330.63,-325.22 321.18,-330.02 331.56,-332.16 330.63,-325.22"/>
</g>
<!-- Node34&#45;&gt;Node11 -->
<g id="edge73" class="edge">
<title>Node34&#45;&gt;Node11</title>
<path fill="none" stroke="midnightblue" d="M220.39,-319.8C195.66,-307.34 164.33,-291.56 145.38,-282.01"/>
<polygon fill="midnightblue" stroke="midnightblue" points="219,-323.02 229.51,-324.4 222.15,-316.77 219,-323.02"/>
</g>
<!-- Node35&#45;&gt;Node5 -->
<g id="edge78" class="edge">
<title>Node35&#45;&gt;Node5</title>
<path fill="none" stroke="midnightblue" d="M387.16,-320.95C352.39,-308.32 307.03,-291.85 279.93,-282.01"/>
<polygon fill="midnightblue" stroke="midnightblue" points="386.07,-324.27 396.66,-324.4 388.45,-317.69 386.07,-324.27"/>
</g>
<!-- Node35&#45;&gt;Node9 -->
<g id="edge79" class="edge">
<title>Node35&#45;&gt;Node9</title>
<path fill="none" stroke="midnightblue" d="M471.05,-319.71C490.45,-309.46 514.06,-296.98 531.86,-287.58"/>
<polygon fill="midnightblue" stroke="midnightblue" points="469.4,-316.63 462.19,-324.4 472.67,-322.82 469.4,-316.63"/>
</g>
<!-- Node35&#45;&gt;Node10 -->
<g id="edge80" class="edge">
<title>Node35&#45;&gt;Node10</title>
<path fill="none" stroke="midnightblue" d="M499.82,-321.91C549.17,-309.18 615.28,-292.13 654.44,-282.03"/>
<polygon fill="midnightblue" stroke="midnightblue" points="498.68,-318.59 489.87,-324.48 500.43,-325.37 498.68,-318.59"/>
</g>
<!-- Node35&#45;&gt;Node11 -->
<g id="edge81" class="edge">
<title>Node35&#45;&gt;Node11</title>
<path fill="none" stroke="midnightblue" d="M367.2,-324.51C318.69,-314.51 252.05,-300.64 193.5,-288 184.68,-286.1 175.21,-284.01 166.29,-282.02"/>
<polygon fill="midnightblue" stroke="midnightblue" points="366.76,-327.99 377.26,-326.58 368.18,-321.14 366.76,-327.99"/>
</g>
<!-- Node35&#45;&gt;Node12 -->
<g id="edge82" class="edge">
<title>Node35&#45;&gt;Node12</title>
<path fill="none" stroke="midnightblue" d="M390.13,-319.49C377.25,-311.72 364.76,-301.36 357.5,-288 350.92,-275.9 348.89,-267.75 357.5,-257 377.99,-231.43 464.01,-217.95 523.8,-211.53"/>
<polygon fill="midnightblue" stroke="midnightblue" points="388.61,-322.65 399.05,-324.46 392.02,-316.54 388.61,-322.65"/>
</g>
<!-- Node35&#45;&gt;Node16 -->
<g id="edge83" class="edge">
<title>Node35&#45;&gt;Node16</title>
<path fill="none" stroke="midnightblue" d="M431.79,-314.4C430.4,-305.37 428.87,-295.41 427.67,-287.58"/>
<polygon fill="midnightblue" stroke="midnightblue" points="428.35,-315.04 433.33,-324.4 435.27,-313.98 428.35,-315.04"/>
</g>
</g>
</svg>
