<?xml version="1.0" encoding="UTF-8" standalone="no"?>
<!DOCTYPE svg PUBLIC "-//W3C//DTD SVG 1.1//EN"
 "http://www.w3.org/Graphics/SVG/1.1/DTD/svg11.dtd">
<!-- Generated by graphviz version 2.43.0 (0)
 -->
<!-- Title: arg_router/utility/compile_time_string.hpp Pages: 1 -->
<!--zoomable 475 -->
<svg id="main" version="1.1" xmlns="http://www.w3.org/2000/svg" xmlns:xlink="http://www.w3.org/1999/xlink" xml:space="preserve" onload="init(evt)">
<style type="text/css"><![CDATA[
.edge:hover path { stroke: red; }
.edge:hover polygon { stroke: red; fill: red; }
]]></style>
<script type="text/javascript"><![CDATA[
var edges = document.getElementsByTagName('g');
if (edges && edges.length) {
  for (var i=0;i<edges.length;i++) {
    if (edges[i].id.substr(0,4)=='edge') {
      edges[i].setAttribute('class','edge');
    }
  }
}
]]></script>
        <defs>
                <circle id="rim" cx="0" cy="0" r="7"/>
                <circle id="rim2" cx="0" cy="0" r="3.5"/>
                <g id="zoomPlus">
                        <use xlink:href="#rim" fill="#404040">
                                <set attributeName="fill" to="#808080" begin="zoomplus.mouseover" end="zoomplus.mouseout"/>
                        </use>
                        <path d="M-4,0h8M0,-4v8" fill="none" stroke="white" stroke-width="1.5" pointer-events="none"/>
                </g>
                <g id="zoomMin">
                        <use xlink:href="#rim" fill="#404040">
                                <set attributeName="fill" to="#808080" begin="zoomminus.mouseover" end="zoomminus.mouseout"/>
                        </use>
                        <path d="M-4,0h8" fill="none" stroke="white" stroke-width="1.5" pointer-events="none"/>
                </g>
                <g id="dirArrow">
                        <path fill="none" stroke="white" stroke-width="1.5" d="M0,-3.0v7 M-2.5,-0.5L0,-3.0L2.5,-0.5"/>
                </g>
               <g id="resetDef">
                       <use xlink:href="#rim2" fill="#404040">
                               <set attributeName="fill" to="#808080" begin="reset.mouseover" end="reset.mouseout"/>
                       </use>
               </g>
        </defs>

<script type="text/javascript">
var viewWidth = 980;
var viewHeight = 475;
var sectionId = 'dynsection-0';
</script>
<script xlink:href="svgpan.js"/>
<svg id="graph" class="graph">
<g id="viewport">
<title>arg_router/utility/compile_time_string.hpp</title>
<polygon fill="white" stroke="transparent" points="-4,4 -4,-471 976,-471 976,4 -4,4"/>
<!-- Node1 -->
<g id="node1" class="node">
<title>Node1</title>
<g id="a_node1"><a xlink:title=" ">
<polygon fill="#bfbfbf" stroke="black" points="372.5,-436.5 372.5,-466.5 512.5,-466.5 512.5,-436.5 372.5,-436.5"/>
<text text-anchor="start" x="380.5" y="-454.5" font-family="Helvetica,sans-Serif" font-size="10.00">arg_router/utility</text>
<text text-anchor="middle" x="442.5" y="-443.5" font-family="Helvetica,sans-Serif" font-size="10.00">/compile_time_string.hpp</text>
</a>
</g>
</g>
<!-- Node2 -->
<g id="node2" class="node">
<title>Node2</title>
<g id="a_node2"><a xlink:href="math_8hpp_source.html" target="_top" xlink:title=" ">
<polygon fill="white" stroke="black" points="28.5,-375 28.5,-394 144.5,-394 144.5,-375 28.5,-375"/>
<text text-anchor="middle" x="86.5" y="-382" font-family="Helvetica,sans-Serif" font-size="10.00">arg_router/math.hpp</text>
</a>
</g>
</g>
<!-- Node1&#45;&gt;Node2 -->
<g id="edge1" class="edge">
<title>Node1&#45;&gt;Node2</title>
<path fill="none" stroke="midnightblue" d="M372.17,-437.66C305.08,-425.41 205.31,-407.19 143.17,-395.85"/>
<polygon fill="midnightblue" stroke="midnightblue" points="143.63,-392.37 133.16,-394.02 142.37,-399.26 143.63,-392.37"/>
</g>
<!-- Node4 -->
<g id="node4" class="node">
<title>Node4</title>
<g id="a_node4"><a xlink:href="traits_8hpp_source.html" target="_top" xlink:title=" ">
<polygon fill="white" stroke="black" points="253.5,-375 253.5,-394 369.5,-394 369.5,-375 253.5,-375"/>
<text text-anchor="middle" x="311.5" y="-382" font-family="Helvetica,sans-Serif" font-size="10.00">arg_router/traits.hpp</text>
</a>
</g>
</g>
<!-- Node1&#45;&gt;Node4 -->
<g id="edge3" class="edge">
<title>Node1&#45;&gt;Node4</title>
<path fill="none" stroke="midnightblue" d="M414.07,-436.4C391.39,-425.14 359.87,-409.5 337.78,-398.54"/>
<polygon fill="midnightblue" stroke="midnightblue" points="339.16,-395.32 328.64,-394.01 336.05,-401.59 339.16,-395.32"/>
</g>
<!-- Node22 -->
<g id="node22" class="node">
<title>Node22</title>
<g id="a_node22"><a xlink:title=" ">
<polygon fill="white" stroke="#bfbfbf" points="87.5,-308 87.5,-327 233.5,-327 233.5,-308 87.5,-308"/>
<text text-anchor="middle" x="160.5" y="-315" font-family="Helvetica,sans-Serif" font-size="10.00">boost/mp11/algorithm.hpp</text>
</a>
</g>
</g>
<!-- Node1&#45;&gt;Node22 -->
<g id="edge30" class="edge">
<title>Node1&#45;&gt;Node22</title>
<path fill="none" stroke="midnightblue" d="M372.29,-441.71C332.86,-434.59 283.82,-421.99 244.5,-400 214.8,-383.39 188.01,-353.63 173.03,-335.04"/>
<polygon fill="midnightblue" stroke="midnightblue" points="175.77,-332.85 166.84,-327.14 170.26,-337.17 175.77,-332.85"/>
</g>
<!-- Node27 -->
<g id="node27" class="node">
<title>Node27</title>
<g id="a_node27"><a xlink:title=" ">
<polygon fill="white" stroke="#bfbfbf" points="387.5,-369.5 387.5,-399.5 497.5,-399.5 497.5,-369.5 387.5,-369.5"/>
<text text-anchor="start" x="395.5" y="-387.5" font-family="Helvetica,sans-Serif" font-size="10.00">boost/preprocessor</text>
<text text-anchor="middle" x="442.5" y="-376.5" font-family="Helvetica,sans-Serif" font-size="10.00">/config/limits.hpp</text>
</a>
</g>
</g>
<!-- Node1&#45;&gt;Node27 -->
<g id="edge31" class="edge">
<title>Node1&#45;&gt;Node27</title>
<path fill="none" stroke="midnightblue" d="M442.5,-436.4C442.5,-428.64 442.5,-418.81 442.5,-409.86"/>
<polygon fill="midnightblue" stroke="midnightblue" points="446,-409.58 442.5,-399.58 439,-409.58 446,-409.58"/>
</g>
<!-- Node28 -->
<g id="node28" class="node">
<title>Node28</title>
<g id="a_node28"><a xlink:title=" ">
<polygon fill="white" stroke="#bfbfbf" points="516,-369.5 516,-399.5 665,-399.5 665,-369.5 516,-369.5"/>
<text text-anchor="start" x="524" y="-387.5" font-family="Helvetica,sans-Serif" font-size="10.00">boost/preprocessor</text>
<text text-anchor="middle" x="590.5" y="-376.5" font-family="Helvetica,sans-Serif" font-size="10.00">/punctuation/comma_if.hpp</text>
</a>
</g>
</g>
<!-- Node1&#45;&gt;Node28 -->
<g id="edge32" class="edge">
<title>Node1&#45;&gt;Node28</title>
<path fill="none" stroke="midnightblue" d="M474.61,-436.4C496.43,-426.81 525.49,-414.05 549.06,-403.7"/>
<polygon fill="midnightblue" stroke="midnightblue" points="550.7,-406.8 558.45,-399.58 547.89,-400.39 550.7,-406.8"/>
</g>
<!-- Node29 -->
<g id="node29" class="node">
<title>Node29</title>
<g id="a_node29"><a xlink:title=" ">
<polygon fill="white" stroke="#bfbfbf" points="683.5,-369.5 683.5,-399.5 805.5,-399.5 805.5,-369.5 683.5,-369.5"/>
<text text-anchor="start" x="691.5" y="-387.5" font-family="Helvetica,sans-Serif" font-size="10.00">boost/preprocessor</text>
<text text-anchor="middle" x="744.5" y="-376.5" font-family="Helvetica,sans-Serif" font-size="10.00">/repetition/repeat.hpp</text>
</a>
</g>
</g>
<!-- Node1&#45;&gt;Node29 -->
<g id="edge33" class="edge">
<title>Node1&#45;&gt;Node29</title>
<path fill="none" stroke="midnightblue" d="M507.66,-436.48C556.51,-425.96 623.3,-411.59 673.51,-400.78"/>
<polygon fill="midnightblue" stroke="midnightblue" points="674.28,-404.19 683.32,-398.67 672.81,-397.35 674.28,-404.19"/>
</g>
<!-- Node30 -->
<g id="node30" class="node">
<title>Node30</title>
<g id="a_node30"><a xlink:title=" ">
<polygon fill="white" stroke="#bfbfbf" points="823.5,-375 823.5,-394 865.5,-394 865.5,-375 823.5,-375"/>
<text text-anchor="middle" x="844.5" y="-382" font-family="Helvetica,sans-Serif" font-size="10.00">array</text>
</a>
</g>
</g>
<!-- Node1&#45;&gt;Node30 -->
<g id="edge34" class="edge">
<title>Node1&#45;&gt;Node30</title>
<path fill="none" stroke="midnightblue" d="M512.79,-447.54C588.65,-442.85 712.31,-430.78 814.5,-400 816.18,-399.5 817.87,-398.91 819.57,-398.26"/>
<polygon fill="midnightblue" stroke="midnightblue" points="821.23,-401.35 829,-394.14 818.43,-394.94 821.23,-401.35"/>
</g>
<!-- Node3 -->
<g id="node3" class="node">
<title>Node3</title>
<g id="a_node3"><a xlink:title=" ">
<polygon fill="white" stroke="#bfbfbf" points="0,-308 0,-327 69,-327 69,-308 0,-308"/>
<text text-anchor="middle" x="34.5" y="-315" font-family="Helvetica,sans-Serif" font-size="10.00">type_traits</text>
</a>
</g>
</g>
<!-- Node2&#45;&gt;Node3 -->
<g id="edge2" class="edge">
<title>Node2&#45;&gt;Node3</title>
<path fill="none" stroke="midnightblue" d="M79.49,-374.73C71.38,-364.6 57.85,-347.69 47.74,-335.06"/>
<polygon fill="midnightblue" stroke="midnightblue" points="50.38,-332.75 41.4,-327.13 44.92,-337.12 50.38,-332.75"/>
</g>
<!-- Node4&#45;&gt;Node3 -->
<g id="edge29" class="edge">
<title>Node4&#45;&gt;Node3</title>
<path fill="none" stroke="midnightblue" d="M265.18,-374.95C217.91,-365.87 142.6,-350.46 78.5,-333 75.32,-332.13 72.03,-331.17 68.74,-330.17"/>
<polygon fill="midnightblue" stroke="midnightblue" points="69.62,-326.78 59.03,-327.09 67.5,-333.45 69.62,-326.78"/>
</g>
<!-- Node5 -->
<g id="node5" class="node">
<title>Node5</title>
<g id="a_node5"><a xlink:href="parse__target_8hpp_source.html" target="_top" xlink:title=" ">
<polygon fill="white" stroke="black" points="688.5,-302.5 688.5,-332.5 794.5,-332.5 794.5,-302.5 688.5,-302.5"/>
<text text-anchor="start" x="696.5" y="-320.5" font-family="Helvetica,sans-Serif" font-size="10.00">arg_router/parsing</text>
<text text-anchor="middle" x="741.5" y="-309.5" font-family="Helvetica,sans-Serif" font-size="10.00">/parse_target.hpp</text>
</a>
</g>
</g>
<!-- Node4&#45;&gt;Node5 -->
<g id="edge4" class="edge">
<title>Node4&#45;&gt;Node5</title>
<path fill="none" stroke="midnightblue" d="M347.89,-374.97C357.79,-372.83 368.52,-370.67 378.5,-369 508.13,-347.27 545.02,-355.92 678.29,-333.08"/>
<polygon fill="midnightblue" stroke="midnightblue" points="679.23,-336.47 688.48,-331.31 678.03,-329.58 679.23,-336.47"/>
</g>
<!-- Node4&#45;&gt;Node22 -->
<g id="edge24" class="edge">
<title>Node4&#45;&gt;Node22</title>
<path fill="none" stroke="midnightblue" d="M291.45,-374.87C265.5,-363.7 220.08,-344.15 190.14,-331.26"/>
<polygon fill="midnightblue" stroke="midnightblue" points="191.2,-327.91 180.63,-327.17 188.44,-334.34 191.2,-327.91"/>
</g>
<!-- Node23 -->
<g id="node23" class="node">
<title>Node23</title>
<g id="a_node23"><a xlink:title=" ">
<polygon fill="white" stroke="#bfbfbf" points="252,-308 252,-327 371,-327 371,-308 252,-308"/>
<text text-anchor="middle" x="311.5" y="-315" font-family="Helvetica,sans-Serif" font-size="10.00">boost/mp11/bind.hpp</text>
</a>
</g>
</g>
<!-- Node4&#45;&gt;Node23 -->
<g id="edge25" class="edge">
<title>Node4&#45;&gt;Node23</title>
<path fill="none" stroke="midnightblue" d="M311.5,-374.73C311.5,-365.18 311.5,-349.62 311.5,-337.28"/>
<polygon fill="midnightblue" stroke="midnightblue" points="315,-337.13 311.5,-327.13 308,-337.13 315,-337.13"/>
</g>
<!-- Node24 -->
<g id="node24" class="node">
<title>Node24</title>
<g id="a_node24"><a xlink:title=" ">
<polygon fill="white" stroke="#bfbfbf" points="389,-308 389,-327 514,-327 514,-308 389,-308"/>
<text text-anchor="middle" x="451.5" y="-315" font-family="Helvetica,sans-Serif" font-size="10.00">boost/mp11/utility.hpp</text>
</a>
</g>
</g>
<!-- Node4&#45;&gt;Node24 -->
<g id="edge26" class="edge">
<title>Node4&#45;&gt;Node24</title>
<path fill="none" stroke="midnightblue" d="M330.09,-374.87C354.04,-363.75 395.89,-344.32 423.65,-331.43"/>
<polygon fill="midnightblue" stroke="midnightblue" points="425.24,-334.55 432.83,-327.17 422.29,-328.2 425.24,-334.55"/>
</g>
<!-- Node25 -->
<g id="node25" class="node">
<title>Node25</title>
<g id="a_node25"><a xlink:title=" ">
<polygon fill="white" stroke="#bfbfbf" points="532.5,-308 532.5,-327 596.5,-327 596.5,-308 532.5,-308"/>
<text text-anchor="middle" x="564.5" y="-315" font-family="Helvetica,sans-Serif" font-size="10.00">algorithm</text>
</a>
</g>
</g>
<!-- Node4&#45;&gt;Node25 -->
<g id="edge27" class="edge">
<title>Node4&#45;&gt;Node25</title>
<path fill="none" stroke="midnightblue" d="M349.36,-374.91C400.88,-363.13 490.32,-342.38 522.5,-333 525.44,-332.14 528.48,-331.2 531.52,-330.22"/>
<polygon fill="midnightblue" stroke="midnightblue" points="532.7,-333.52 541.08,-327.04 530.49,-326.88 532.7,-333.52"/>
</g>
<!-- Node26 -->
<g id="node26" class="node">
<title>Node26</title>
<g id="a_node26"><a xlink:title=" ">
<polygon fill="white" stroke="#bfbfbf" points="614.5,-308 614.5,-327 670.5,-327 670.5,-308 614.5,-308"/>
<text text-anchor="middle" x="642.5" y="-315" font-family="Helvetica,sans-Serif" font-size="10.00">optional</text>
</a>
</g>
</g>
<!-- Node4&#45;&gt;Node26 -->
<g id="edge28" class="edge">
<title>Node4&#45;&gt;Node26</title>
<path fill="none" stroke="midnightblue" d="M349.34,-374.92C358.84,-372.88 369.02,-370.78 378.5,-369 478.9,-350.19 506.93,-359.79 605.5,-333 608.09,-332.29 610.76,-331.47 613.41,-330.57"/>
<polygon fill="midnightblue" stroke="midnightblue" points="614.61,-333.86 622.8,-327.13 612.2,-327.29 614.61,-333.86"/>
</g>
<!-- Node6 -->
<g id="node6" class="node">
<title>Node6</title>
<g id="a_node6"><a xlink:href="token__type_8hpp_source.html" target="_top" xlink:title=" ">
<polygon fill="white" stroke="black" points="481.5,-235.5 481.5,-265.5 587.5,-265.5 587.5,-235.5 481.5,-235.5"/>
<text text-anchor="start" x="489.5" y="-253.5" font-family="Helvetica,sans-Serif" font-size="10.00">arg_router/parsing</text>
<text text-anchor="middle" x="534.5" y="-242.5" font-family="Helvetica,sans-Serif" font-size="10.00">/token_type.hpp</text>
</a>
</g>
</g>
<!-- Node5&#45;&gt;Node6 -->
<g id="edge5" class="edge">
<title>Node5&#45;&gt;Node6</title>
<path fill="none" stroke="midnightblue" d="M696.84,-302.48C665.25,-292.56 622.72,-279.2 589.11,-268.65"/>
<polygon fill="midnightblue" stroke="midnightblue" points="590.03,-265.27 579.44,-265.61 587.93,-271.95 590.03,-265.27"/>
</g>
<!-- Node16 -->
<g id="node16" class="node">
<title>Node16</title>
<g id="a_node16"><a xlink:href="tree__node__fwd_8hpp_source.html" target="_top" xlink:title=" ">
<polygon fill="white" stroke="black" points="770,-235.5 770,-265.5 889,-265.5 889,-235.5 770,-235.5"/>
<text text-anchor="start" x="778" y="-253.5" font-family="Helvetica,sans-Serif" font-size="10.00">arg_router/tree_node</text>
<text text-anchor="middle" x="829.5" y="-242.5" font-family="Helvetica,sans-Serif" font-size="10.00">_fwd.hpp</text>
</a>
</g>
</g>
<!-- Node5&#45;&gt;Node16 -->
<g id="edge16" class="edge">
<title>Node5&#45;&gt;Node16</title>
<path fill="none" stroke="midnightblue" d="M760.59,-302.4C772.82,-293.37 788.87,-281.51 802.4,-271.52"/>
<polygon fill="midnightblue" stroke="midnightblue" points="804.48,-274.33 810.44,-265.58 800.32,-268.7 804.48,-274.33"/>
</g>
<!-- Node18 -->
<g id="node18" class="node">
<title>Node18</title>
<g id="a_node18"><a xlink:href="unsafe__any_8hpp_source.html" target="_top" xlink:title=" ">
<polygon fill="white" stroke="black" points="615.5,-235.5 615.5,-265.5 713.5,-265.5 713.5,-235.5 615.5,-235.5"/>
<text text-anchor="start" x="623.5" y="-253.5" font-family="Helvetica,sans-Serif" font-size="10.00">arg_router/utility</text>
<text text-anchor="middle" x="664.5" y="-242.5" font-family="Helvetica,sans-Serif" font-size="10.00">/unsafe_any.hpp</text>
</a>
</g>
</g>
<!-- Node5&#45;&gt;Node18 -->
<g id="edge18" class="edge">
<title>Node5&#45;&gt;Node18</title>
<path fill="none" stroke="midnightblue" d="M724.79,-302.4C714.3,-293.54 700.58,-281.96 688.89,-272.09"/>
<polygon fill="midnightblue" stroke="midnightblue" points="691.07,-269.35 681.18,-265.58 686.56,-274.7 691.07,-269.35"/>
</g>
<!-- Node20 -->
<g id="node20" class="node">
<title>Node20</title>
<g id="a_node20"><a xlink:title=" ">
<polygon fill="white" stroke="#bfbfbf" points="709,-174 709,-193 774,-193 774,-174 709,-174"/>
<text text-anchor="middle" x="741.5" y="-181" font-family="Helvetica,sans-Serif" font-size="10.00">functional</text>
</a>
</g>
</g>
<!-- Node5&#45;&gt;Node20 -->
<g id="edge22" class="edge">
<title>Node5&#45;&gt;Node20</title>
<path fill="none" stroke="midnightblue" d="M741.5,-302.37C741.5,-278.5 741.5,-230.18 741.5,-203.41"/>
<polygon fill="midnightblue" stroke="midnightblue" points="745,-203.1 741.5,-193.1 738,-203.1 745,-203.1"/>
</g>
<!-- Node21 -->
<g id="node21" class="node">
<title>Node21</title>
<g id="a_node21"><a xlink:title=" ">
<polygon fill="white" stroke="#bfbfbf" points="907,-241 907,-260 972,-260 972,-241 907,-241"/>
<text text-anchor="middle" x="939.5" y="-248" font-family="Helvetica,sans-Serif" font-size="10.00">typeindex</text>
</a>
</g>
</g>
<!-- Node5&#45;&gt;Node21 -->
<g id="edge23" class="edge">
<title>Node5&#45;&gt;Node21</title>
<path fill="none" stroke="midnightblue" d="M785.62,-302.47C816.9,-292.46 859.84,-278.6 897.5,-266 900.09,-265.14 902.76,-264.23 905.44,-263.32"/>
<polygon fill="midnightblue" stroke="midnightblue" points="906.77,-266.56 915.1,-260.01 904.5,-259.94 906.77,-266.56"/>
</g>
<!-- Node7 -->
<g id="node7" class="node">
<title>Node7</title>
<g id="a_node7"><a xlink:href="string__view__ops_8hpp_source.html" target="_top" xlink:title=" ">
<polygon fill="white" stroke="black" points="443,-168.5 443,-198.5 562,-198.5 562,-168.5 443,-168.5"/>
<text text-anchor="start" x="451" y="-186.5" font-family="Helvetica,sans-Serif" font-size="10.00">arg_router/utility</text>
<text text-anchor="middle" x="502.5" y="-175.5" font-family="Helvetica,sans-Serif" font-size="10.00">/string_view_ops.hpp</text>
</a>
</g>
</g>
<!-- Node6&#45;&gt;Node7 -->
<g id="edge6" class="edge">
<title>Node6&#45;&gt;Node7</title>
<path fill="none" stroke="midnightblue" d="M527.56,-235.4C523.57,-227.3 518.47,-216.94 513.91,-207.69"/>
<polygon fill="midnightblue" stroke="midnightblue" points="516.99,-206 509.43,-198.58 510.71,-209.09 516.99,-206"/>
</g>
<!-- Node8 -->
<g id="node8" class="node">
<title>Node8</title>
<g id="a_node8"><a xlink:href="basic__types_8hpp_source.html" target="_top" xlink:title=" ">
<polygon fill="white" stroke="black" points="428,-112.5 428,-131.5 577,-131.5 577,-112.5 428,-112.5"/>
<text text-anchor="middle" x="502.5" y="-119.5" font-family="Helvetica,sans-Serif" font-size="10.00">arg_router/basic_types.hpp</text>
</a>
</g>
</g>
<!-- Node7&#45;&gt;Node8 -->
<g id="edge7" class="edge">
<title>Node7&#45;&gt;Node8</title>
<path fill="none" stroke="midnightblue" d="M502.5,-168.4C502.5,-160.47 502.5,-150.46 502.5,-141.86"/>
<polygon fill="midnightblue" stroke="midnightblue" points="506,-141.66 502.5,-131.66 499,-141.66 506,-141.66"/>
</g>
<!-- Node12 -->
<g id="node12" class="node">
<title>Node12</title>
<g id="a_node12"><a xlink:title=" ">
<polygon fill="white" stroke="#bfbfbf" points="444,-0.5 444,-19.5 517,-19.5 517,-0.5 444,-0.5"/>
<text text-anchor="middle" x="480.5" y="-7.5" font-family="Helvetica,sans-Serif" font-size="10.00">string_view</text>
</a>
</g>
</g>
<!-- Node7&#45;&gt;Node12 -->
<g id="edge15" class="edge">
<title>Node7&#45;&gt;Node12</title>
<path fill="none" stroke="midnightblue" d="M469.13,-168.46C435.37,-152.06 385.76,-121.26 368.5,-76 356.34,-44.13 397.94,-27.2 433.85,-18.7"/>
<polygon fill="midnightblue" stroke="midnightblue" points="434.76,-22.09 443.77,-16.52 433.25,-15.25 434.76,-22.09"/>
</g>
<!-- Node9 -->
<g id="node9" class="node">
<title>Node9</title>
<g id="a_node9"><a xlink:href="config_8hpp_source.html" target="_top" xlink:title=" ">
<polygon fill="white" stroke="black" points="632.5,-56.5 632.5,-75.5 752.5,-75.5 752.5,-56.5 632.5,-56.5"/>
<text text-anchor="middle" x="692.5" y="-63.5" font-family="Helvetica,sans-Serif" font-size="10.00">arg_router/config.hpp</text>
</a>
</g>
</g>
<!-- Node8&#45;&gt;Node9 -->
<g id="edge8" class="edge">
<title>Node8&#45;&gt;Node9</title>
<path fill="none" stroke="midnightblue" d="M532.61,-112.44C565.13,-103.2 617.08,-88.44 652.89,-78.26"/>
<polygon fill="midnightblue" stroke="midnightblue" points="653.87,-81.62 662.53,-75.52 651.96,-74.88 653.87,-81.62"/>
</g>
<!-- Node13 -->
<g id="node13" class="node">
<title>Node13</title>
<g id="a_node13"><a xlink:title=" ">
<polygon fill="white" stroke="#bfbfbf" points="558.5,-56.5 558.5,-75.5 614.5,-75.5 614.5,-56.5 558.5,-56.5"/>
<text text-anchor="middle" x="586.5" y="-63.5" font-family="Helvetica,sans-Serif" font-size="10.00">sstream</text>
</a>
</g>
</g>
<!-- Node8&#45;&gt;Node13 -->
<g id="edge12" class="edge">
<title>Node8&#45;&gt;Node13</title>
<path fill="none" stroke="midnightblue" d="M516,-112.32C529.1,-103.9 549.21,-90.97 564.61,-81.07"/>
<polygon fill="midnightblue" stroke="midnightblue" points="566.52,-84.01 573.04,-75.65 562.73,-78.12 566.52,-84.01"/>
</g>
<!-- Node14 -->
<g id="node14" class="node">
<title>Node14</title>
<g id="a_node14"><a xlink:title=" ">
<polygon fill="white" stroke="#bfbfbf" points="378,-56.5 378,-75.5 425,-75.5 425,-56.5 378,-56.5"/>
<text text-anchor="middle" x="401.5" y="-63.5" font-family="Helvetica,sans-Serif" font-size="10.00">vector</text>
</a>
</g>
</g>
<!-- Node8&#45;&gt;Node14 -->
<g id="edge13" class="edge">
<title>Node8&#45;&gt;Node14</title>
<path fill="none" stroke="midnightblue" d="M486.27,-112.32C470.15,-103.7 445.2,-90.36 426.54,-80.39"/>
<polygon fill="midnightblue" stroke="midnightblue" points="428.16,-77.28 417.69,-75.65 424.86,-83.46 428.16,-77.28"/>
</g>
<!-- Node15 -->
<g id="node15" class="node">
<title>Node15</title>
<g id="a_node15"><a xlink:title=" ">
<polygon fill="white" stroke="#bfbfbf" points="443,-56.5 443,-75.5 540,-75.5 540,-56.5 443,-56.5"/>
<text text-anchor="middle" x="491.5" y="-63.5" font-family="Helvetica,sans-Serif" font-size="10.00">nonstd/span.hpp</text>
</a>
</g>
</g>
<!-- Node8&#45;&gt;Node15 -->
<g id="edge14" class="edge">
<title>Node8&#45;&gt;Node15</title>
<path fill="none" stroke="midnightblue" d="M500.68,-112.08C499.23,-104.93 497.13,-94.64 495.31,-85.69"/>
<polygon fill="midnightblue" stroke="midnightblue" points="498.71,-84.85 493.28,-75.75 491.85,-86.25 498.71,-84.85"/>
</g>
<!-- Node10 -->
<g id="node10" class="node">
<title>Node10</title>
<g id="a_node10"><a xlink:title=" ">
<polygon fill="white" stroke="#bfbfbf" points="629,-0.5 629,-19.5 682,-19.5 682,-0.5 629,-0.5"/>
<text text-anchor="middle" x="655.5" y="-7.5" font-family="Helvetica,sans-Serif" font-size="10.00">cstddef</text>
</a>
</g>
</g>
<!-- Node9&#45;&gt;Node10 -->
<g id="edge9" class="edge">
<title>Node9&#45;&gt;Node10</title>
<path fill="none" stroke="midnightblue" d="M686.39,-56.08C681.22,-48.53 673.65,-37.49 667.31,-28.23"/>
<polygon fill="midnightblue" stroke="midnightblue" points="670.04,-26.02 661.5,-19.75 664.26,-29.98 670.04,-26.02"/>
</g>
<!-- Node11 -->
<g id="node11" class="node">
<title>Node11</title>
<g id="a_node11"><a xlink:title=" ">
<polygon fill="white" stroke="#bfbfbf" points="700.5,-0.5 700.5,-19.5 758.5,-19.5 758.5,-0.5 700.5,-0.5"/>
<text text-anchor="middle" x="729.5" y="-7.5" font-family="Helvetica,sans-Serif" font-size="10.00">memory</text>
</a>
</g>
</g>
<!-- Node9&#45;&gt;Node11 -->
<g id="edge10" class="edge">
<title>Node9&#45;&gt;Node11</title>
<path fill="none" stroke="midnightblue" d="M698.61,-56.08C703.78,-48.53 711.35,-37.49 717.69,-28.23"/>
<polygon fill="midnightblue" stroke="midnightblue" points="720.74,-29.98 723.5,-19.75 714.96,-26.02 720.74,-29.98"/>
</g>
<!-- Node9&#45;&gt;Node12 -->
<g id="edge11" class="edge">
<title>Node9&#45;&gt;Node12</title>
<path fill="none" stroke="midnightblue" d="M658.91,-56.44C622.31,-47.12 563.66,-32.18 523.67,-22"/>
<polygon fill="midnightblue" stroke="midnightblue" points="524.49,-18.59 513.93,-19.52 522.76,-25.38 524.49,-18.59"/>
</g>
<!-- Node17 -->
<g id="node17" class="node">
<title>Node17</title>
<g id="a_node17"><a xlink:title=" ">
<polygon fill="white" stroke="#bfbfbf" points="807,-174 807,-193 852,-193 852,-174 807,-174"/>
<text text-anchor="middle" x="829.5" y="-181" font-family="Helvetica,sans-Serif" font-size="10.00">utility</text>
</a>
</g>
</g>
<!-- Node16&#45;&gt;Node17 -->
<g id="edge17" class="edge">
<title>Node16&#45;&gt;Node17</title>
<path fill="none" stroke="midnightblue" d="M829.5,-235.4C829.5,-226.06 829.5,-213.71 829.5,-203.52"/>
<polygon fill="midnightblue" stroke="midnightblue" points="833,-203.19 829.5,-193.19 826,-203.19 833,-203.19"/>
</g>
<!-- Node18&#45;&gt;Node9 -->
<g id="edge19" class="edge">
<title>Node18&#45;&gt;Node9</title>
<path fill="none" stroke="midnightblue" d="M666.65,-235.48C671.62,-203.1 683.9,-123.04 689.56,-86.16"/>
<polygon fill="midnightblue" stroke="midnightblue" points="693.09,-86.23 691.15,-75.82 686.17,-85.17 693.09,-86.23"/>
</g>
<!-- Node19 -->
<g id="node19" class="node">
<title>Node19</title>
<g id="a_node19"><a xlink:title=" ">
<polygon fill="white" stroke="#bfbfbf" points="602.5,-174 602.5,-193 652.5,-193 652.5,-174 602.5,-174"/>
<text text-anchor="middle" x="627.5" y="-181" font-family="Helvetica,sans-Serif" font-size="10.00">cstring</text>
</a>
</g>
</g>
<!-- Node18&#45;&gt;Node19 -->
<g id="edge20" class="edge">
<title>Node18&#45;&gt;Node19</title>
<path fill="none" stroke="midnightblue" d="M656.47,-235.4C650.87,-225.56 643.37,-212.38 637.4,-201.89"/>
<polygon fill="midnightblue" stroke="midnightblue" points="640.44,-200.15 632.45,-193.19 634.35,-203.62 640.44,-200.15"/>
</g>
<!-- Node18&#45;&gt;Node20 -->
<g id="edge21" class="edge">
<title>Node18&#45;&gt;Node20</title>
<path fill="none" stroke="midnightblue" d="M681.21,-235.4C693.69,-224.86 710.73,-210.48 723.51,-199.69"/>
<polygon fill="midnightblue" stroke="midnightblue" points="725.82,-202.32 731.2,-193.19 721.3,-196.97 725.82,-202.32"/>
</g>
</g>
</svg>
        <g id="navigator" transform="translate(0 0)" fill="#404254">
                <rect fill="#f2f5e9" fill-opacity="0.5" stroke="#606060" stroke-width=".5" x="0" y="0" width="60" height="60"/>
                <use id="zoomplus" xlink:href="#zoomPlus" x="17" y="9" onmousedown="handleZoom(evt,'in')"/>
                <use id="zoomminus" xlink:href="#zoomMin" x="42" y="9" onmousedown="handleZoom(evt,'out')"/>
                <use id="reset" xlink:href="#resetDef" x="30" y="36" onmousedown="handleReset()"/>
                <g id="arrowUp" xlink:href="#dirArrow" transform="translate(30 24)" onmousedown="handlePan(0,-1)">
                  <use xlink:href="#rim" fill="#404040">
                        <set attributeName="fill" to="#808080" begin="arrowUp.mouseover" end="arrowUp.mouseout"/>
                  </use>
                  <path fill="none" stroke="white" stroke-width="1.5" d="M0,-3.0v7 M-2.5,-0.5L0,-3.0L2.5,-0.5"/>
                </g>
                <g id="arrowRight" xlink:href="#dirArrow" transform="rotate(90) translate(36 -43)" onmousedown="handlePan(1,0)">
                  <use xlink:href="#rim" fill="#404040">
                        <set attributeName="fill" to="#808080" begin="arrowRight.mouseover" end="arrowRight.mouseout"/>
                  </use>
                  <path fill="none" stroke="white" stroke-width="1.5" d="M0,-3.0v7 M-2.5,-0.5L0,-3.0L2.5,-0.5"/>
                </g>
                <g id="arrowDown" xlink:href="#dirArrow" transform="rotate(180) translate(-30 -48)" onmousedown="handlePan(0,1)">
                  <use xlink:href="#rim" fill="#404040">
                        <set attributeName="fill" to="#808080" begin="arrowDown.mouseover" end="arrowDown.mouseout"/>
                  </use>
                  <path fill="none" stroke="white" stroke-width="1.5" d="M0,-3.0v7 M-2.5,-0.5L0,-3.0L2.5,-0.5"/>
                </g>
                <g id="arrowLeft" xlink:href="#dirArrow" transform="rotate(270) translate(-36 17)" onmousedown="handlePan(-1,0)">
                  <use xlink:href="#rim" fill="#404040">
                        <set attributeName="fill" to="#808080" begin="arrowLeft.mouseover" end="arrowLeft.mouseout"/>
                  </use>
                  <path fill="none" stroke="white" stroke-width="1.5" d="M0,-3.0v7 M-2.5,-0.5L0,-3.0L2.5,-0.5"/>
                </g>
        </g>
        <svg viewBox="0 0 15 15" width="100%" height="30px" preserveAspectRatio="xMaxYMin meet">
         <g id="arrow_out" transform="scale(0.3 0.3)">
          <a xlink:href="compile__time__string_8hpp__incl_org.svg" target="_base">
           <rect id="button" ry="5" rx="5" y="6" x="6" height="38" width="38"
                fill="#f2f5e9" fill-opacity="0.5" stroke="#606060" stroke-width="1.0"/>
           <path id="arrow"
             d="M 11.500037,31.436501 C 11.940474,20.09759 22.043105,11.32322 32.158766,21.979434 L 37.068811,17.246167 C 37.068811,17.246167 37.088388,32 37.088388,32 L 22.160133,31.978069 C 22.160133,31.978069 26.997745,27.140456 26.997745,27.140456 C 18.528582,18.264221 13.291696,25.230495 11.500037,31.436501 z"
             style="fill:#404040;"/>
          </a>
         </g>
        </svg>
</svg>
