<?xml version="1.0" encoding="UTF-8" standalone="no"?>
<!DOCTYPE svg PUBLIC "-//W3C//DTD SVG 1.1//EN"
 "http://www.w3.org/Graphics/SVG/1.1/DTD/svg11.dtd">
<!-- Generated by graphviz version 2.43.0 (0)
 -->
<!-- Title: arg_router/utility/compile_time_string.hpp Pages: 1 -->
<!--zoomable 620 -->
<svg id="main" version="1.1" xmlns="http://www.w3.org/2000/svg" xmlns:xlink="http://www.w3.org/1999/xlink" xml:space="preserve" onload="init(evt)">
<style type="text/css"><![CDATA[
.edge:hover path { stroke: red; }
.edge:hover polygon { stroke: red; fill: red; }
]]></style>
<script type="text/javascript"><![CDATA[
var edges = document.getElementsByTagName('g');
if (edges && edges.length) {
  for (var i=0;i<edges.length;i++) {
    if (edges[i].id.substr(0,4)=='edge') {
      edges[i].setAttribute('class','edge');
    }
  }
}
]]></script>
        <defs>
                <circle id="rim" cx="0" cy="0" r="7"/>
                <circle id="rim2" cx="0" cy="0" r="3.5"/>
                <g id="zoomPlus">
                        <use xlink:href="#rim" fill="#404040">
                                <set attributeName="fill" to="#808080" begin="zoomplus.mouseover" end="zoomplus.mouseout"/>
                        </use>
                        <path d="M-4,0h8M0,-4v8" fill="none" stroke="white" stroke-width="1.5" pointer-events="none"/>
                </g>
                <g id="zoomMin">
                        <use xlink:href="#rim" fill="#404040">
                                <set attributeName="fill" to="#808080" begin="zoomminus.mouseover" end="zoomminus.mouseout"/>
                        </use>
                        <path d="M-4,0h8" fill="none" stroke="white" stroke-width="1.5" pointer-events="none"/>
                </g>
                <g id="dirArrow">
                        <path fill="none" stroke="white" stroke-width="1.5" d="M0,-3.0v7 M-2.5,-0.5L0,-3.0L2.5,-0.5"/>
                </g>
               <g id="resetDef">
                       <use xlink:href="#rim2" fill="#404040">
                               <set attributeName="fill" to="#808080" begin="reset.mouseover" end="reset.mouseout"/>
                       </use>
               </g>
        </defs>

<script type="text/javascript">
var viewWidth = 1503;
var viewHeight = 620;
var sectionId = 'dynsection-0';
</script>
<script xlink:href="svgpan.js"/>
<svg id="graph" class="graph">
<g id="viewport">
<title>arg_router/utility/compile_time_string.hpp</title>
<!-- Node1 -->
<g id="node1" class="node">
<title>Node1</title>
<g id="a_node1"><a xlink:title=" ">
<polygon fill="#bfbfbf" stroke="black" points="342,-581.5 342,-611.5 482,-611.5 482,-581.5 342,-581.5"/>
<text text-anchor="start" x="350" y="-599.5" font-family="Helvetica,sans-Serif" font-size="10.00">arg_router/utility</text>
<text text-anchor="middle" x="412" y="-588.5" font-family="Helvetica,sans-Serif" font-size="10.00">/compile_time_string.hpp</text>
</a>
</g>
</g>
<!-- Node2 -->
<g id="node2" class="node">
<title>Node2</title>
<g id="a_node2"><a xlink:href="config_8hpp.html" target="_top" xlink:title=" ">
<polygon fill="none" stroke="black" points="1023,-268.5 1023,-287.5 1143,-287.5 1143,-268.5 1023,-268.5"/>
<text text-anchor="middle" x="1083" y="-275.5" font-family="Helvetica,sans-Serif" font-size="10.00">arg_router/config.hpp</text>
</a>
</g>
</g>
<!-- Node1&#45;&gt;Node2 -->
<g id="edge1" class="edge">
<title>Node1&#45;&gt;Node2</title>
<path fill="none" stroke="midnightblue" d="M482.01,-596.13C651.87,-595.77 1072,-582.84 1072,-463.5 1072,-463.5 1072,-463.5 1072,-394.5 1072,-360.21 1076.86,-320.45 1080.12,-297.66"/>
<polygon fill="midnightblue" stroke="midnightblue" points="1083.6,-298.07 1081.61,-287.67 1076.68,-297.04 1083.6,-298.07"/>
</g>
<!-- Node6 -->
<g id="node6" class="node">
<title>Node6</title>
<g id="a_node6"><a xlink:title=" ">
<polygon fill="none" stroke="#bfbfbf" points="206,-0.5 206,-19.5 248,-19.5 248,-0.5 206,-0.5"/>
<text text-anchor="middle" x="227" y="-7.5" font-family="Helvetica,sans-Serif" font-size="10.00">array</text>
</a>
</g>
</g>
<!-- Node1&#45;&gt;Node6 -->
<g id="edge21" class="edge">
<title>Node1&#45;&gt;Node6</title>
<path fill="none" stroke="midnightblue" d="M341.7,-594.15C276.91,-590.61 179.37,-579.35 102,-545 48.96,-521.45 0,-521.53 0,-463.5 0,-463.5 0,-463.5 0,-143 0,-53.58 133.27,-23.69 195.58,-14.61"/>
<polygon fill="midnightblue" stroke="midnightblue" points="196.21,-18.05 205.64,-13.23 195.26,-11.12 196.21,-18.05"/>
</g>
<!-- Node15 -->
<g id="node15" class="node">
<title>Node15</title>
<g id="a_node15"><a xlink:href="math_8hpp_source.html" target="_top" xlink:title=" ">
<polygon fill="none" stroke="black" points="111,-520 111,-539 227,-539 227,-520 111,-520"/>
<text text-anchor="middle" x="169" y="-527" font-family="Helvetica,sans-Serif" font-size="10.00">arg_router/math.hpp</text>
</a>
</g>
</g>
<!-- Node1&#45;&gt;Node15 -->
<g id="edge19" class="edge">
<title>Node1&#45;&gt;Node15</title>
<path fill="none" stroke="midnightblue" d="M359.57,-581.48C314.97,-569.55 251.78,-552.64 210.6,-541.63"/>
<polygon fill="midnightblue" stroke="midnightblue" points="211.45,-538.23 200.88,-539.03 209.64,-544.99 211.45,-538.23"/>
</g>
<!-- Node17 -->
<g id="node17" class="node">
<title>Node17</title>
<g id="a_node17"><a xlink:href="traits_8hpp_source.html" target="_top" xlink:title=" ">
<polygon fill="none" stroke="black" points="429,-520 429,-539 545,-539 545,-520 429,-520"/>
<text text-anchor="middle" x="487" y="-527" font-family="Helvetica,sans-Serif" font-size="10.00">arg_router/traits.hpp</text>
</a>
</g>
</g>
<!-- Node1&#45;&gt;Node17 -->
<g id="edge22" class="edge">
<title>Node1&#45;&gt;Node17</title>
<path fill="none" stroke="midnightblue" d="M428.27,-581.4C440.32,-570.96 456.71,-556.75 469.12,-546"/>
<polygon fill="midnightblue" stroke="midnightblue" points="471.7,-548.39 476.97,-539.19 467.12,-543.1 471.7,-548.39"/>
</g>
<!-- Node25 -->
<g id="node25" class="node">
<title>Node25</title>
<g id="a_node25"><a xlink:title=" ">
<polygon fill="none" stroke="#bfbfbf" points="116,-453 116,-472 262,-472 262,-453 116,-453"/>
<text text-anchor="middle" x="189" y="-460" font-family="Helvetica,sans-Serif" font-size="10.00">boost/mp11/algorithm.hpp</text>
</a>
</g>
</g>
<!-- Node1&#45;&gt;Node25 -->
<g id="edge41" class="edge">
<title>Node1&#45;&gt;Node25</title>
<path fill="none" stroke="midnightblue" d="M388.14,-581.37C345.1,-555.9 255,-502.57 212.35,-477.32"/>
<polygon fill="midnightblue" stroke="midnightblue" points="213.91,-474.18 203.52,-472.1 210.35,-480.2 213.91,-474.18"/>
</g>
<!-- Node31 -->
<g id="node31" class="node">
<title>Node31</title>
<g id="a_node31"><a xlink:title=" ">
<polygon fill="none" stroke="#bfbfbf" points="1100.5,-514.5 1100.5,-544.5 1219.5,-544.5 1219.5,-514.5 1100.5,-514.5"/>
<text text-anchor="start" x="1108.5" y="-532.5" font-family="Helvetica,sans-Serif" font-size="10.00">boost/preprocessor</text>
<text text-anchor="middle" x="1160" y="-521.5" font-family="Helvetica,sans-Serif" font-size="10.00">/repetition/enum.hpp</text>
</a>
</g>
</g>
<!-- Node1&#45;&gt;Node31 -->
<g id="edge42" class="edge">
<title>Node1&#45;&gt;Node31</title>
<path fill="none" stroke="midnightblue" d="M482.15,-592.99C604.98,-587.98 866.8,-574.58 1086,-545 1087.46,-544.8 1088.93,-544.6 1090.42,-544.38"/>
<polygon fill="midnightblue" stroke="midnightblue" points="1090.99,-547.83 1100.33,-542.82 1089.91,-540.92 1090.99,-547.83"/>
</g>
<!-- Node3 -->
<g id="node3" class="node">
<title>Node3</title>
<g id="a_node3"><a xlink:href="utf8_8hpp_source.html" target="_top" xlink:title=" ">
<polygon fill="none" stroke="black" points="1040,-201.5 1040,-231.5 1138,-231.5 1138,-201.5 1040,-201.5"/>
<text text-anchor="start" x="1048" y="-219.5" font-family="Helvetica,sans-Serif" font-size="10.00">arg_router/utility</text>
<text text-anchor="middle" x="1089" y="-208.5" font-family="Helvetica,sans-Serif" font-size="10.00">/utf8.hpp</text>
</a>
</g>
</g>
<!-- Node2&#45;&gt;Node3 -->
<g id="edge2" class="edge">
<title>Node2&#45;&gt;Node3</title>
<path fill="none" stroke="midnightblue" d="M1083.86,-268.48C1084.57,-261.47 1085.6,-251.19 1086.56,-241.7"/>
<polygon fill="midnightblue" stroke="midnightblue" points="1090.06,-241.82 1087.59,-231.52 1083.1,-241.12 1090.06,-241.82"/>
</g>
<!-- Node4 -->
<g id="node4" class="node">
<title>Node4</title>
<g id="a_node4"><a xlink:href="double__width_8hpp_source.html" target="_top" xlink:title=" ">
<polygon fill="none" stroke="black" points="1301,-129 1301,-159 1429,-159 1429,-129 1301,-129"/>
<text text-anchor="start" x="1309" y="-147" font-family="Helvetica,sans-Serif" font-size="10.00">arg_router/utility</text>
<text text-anchor="middle" x="1365" y="-136" font-family="Helvetica,sans-Serif" font-size="10.00">/utf8/double_width.hpp</text>
</a>
</g>
</g>
<!-- Node3&#45;&gt;Node4 -->
<g id="edge3" class="edge">
<title>Node3&#45;&gt;Node4</title>
<path fill="none" stroke="midnightblue" d="M1138.31,-203.58C1179.47,-193.54 1239.65,-178.68 1292,-165 1296.08,-163.93 1300.28,-162.82 1304.51,-161.69"/>
<polygon fill="midnightblue" stroke="midnightblue" points="1305.64,-165.01 1314.38,-159.03 1303.82,-158.25 1305.64,-165.01"/>
</g>
<!-- Node9 -->
<g id="node9" class="node">
<title>Node9</title>
<g id="a_node9"><a xlink:title=" ">
<polygon fill="none" stroke="#bfbfbf" points="1420.5,-0.5 1420.5,-19.5 1493.5,-19.5 1493.5,-0.5 1420.5,-0.5"/>
<text text-anchor="middle" x="1457" y="-7.5" font-family="Helvetica,sans-Serif" font-size="10.00">string_view</text>
</a>
</g>
</g>
<!-- Node3&#45;&gt;Node9 -->
<g id="edge18" class="edge">
<title>Node3&#45;&gt;Node9</title>
<path fill="none" stroke="midnightblue" d="M1138.18,-215.45C1224.32,-214.26 1397.25,-206.61 1438,-165 1473.58,-128.67 1467.02,-62.2 1461.12,-29.78"/>
<polygon fill="midnightblue" stroke="midnightblue" points="1464.53,-28.96 1459.13,-19.84 1457.66,-30.33 1464.53,-28.96"/>
</g>
<!-- Node10 -->
<g id="node10" class="node">
<title>Node10</title>
<g id="a_node10"><a xlink:href="grapheme__cluster__break_8hpp_source.html" target="_top" xlink:title=" ">
<polygon fill="none" stroke="black" points="749,-123.5 749,-164.5 879,-164.5 879,-123.5 749,-123.5"/>
<text text-anchor="start" x="757" y="-152.5" font-family="Helvetica,sans-Serif" font-size="10.00">arg_router/utility</text>
<text text-anchor="start" x="757" y="-141.5" font-family="Helvetica,sans-Serif" font-size="10.00">/utf8/grapheme_cluster</text>
<text text-anchor="middle" x="814" y="-130.5" font-family="Helvetica,sans-Serif" font-size="10.00">_break.hpp</text>
</a>
</g>
</g>
<!-- Node3&#45;&gt;Node10 -->
<g id="edge9" class="edge">
<title>Node3&#45;&gt;Node10</title>
<path fill="none" stroke="midnightblue" d="M1039.79,-203.4C1001.28,-193.87 946.14,-180.09 889.24,-165.31"/>
<polygon fill="midnightblue" stroke="midnightblue" points="889.91,-161.86 879.35,-162.73 888.15,-168.64 889.91,-161.86"/>
</g>
<!-- Node12 -->
<g id="node12" class="node">
<title>Node12</title>
<g id="a_node12"><a xlink:href="line__break_8hpp_source.html" target="_top" xlink:title=" ">
<polygon fill="none" stroke="black" points="897,-129 897,-159 1011,-159 1011,-129 897,-129"/>
<text text-anchor="start" x="905" y="-147" font-family="Helvetica,sans-Serif" font-size="10.00">arg_router/utility</text>
<text text-anchor="middle" x="954" y="-136" font-family="Helvetica,sans-Serif" font-size="10.00">/utf8/line_break.hpp</text>
</a>
</g>
</g>
<!-- Node3&#45;&gt;Node12 -->
<g id="edge12" class="edge">
<title>Node3&#45;&gt;Node12</title>
<path fill="none" stroke="midnightblue" d="M1062.01,-201.4C1041.31,-190.6 1012.56,-175.58 989.92,-163.76"/>
<polygon fill="midnightblue" stroke="midnightblue" points="991.43,-160.6 980.95,-159.07 988.19,-166.8 991.43,-160.6"/>
</g>
<!-- Node13 -->
<g id="node13" class="node">
<title>Node13</title>
<g id="a_node13"><a xlink:href="whitespace_8hpp_source.html" target="_top" xlink:title=" ">
<polygon fill="none" stroke="black" points="1029.5,-129 1029.5,-159 1148.5,-159 1148.5,-129 1029.5,-129"/>
<text text-anchor="start" x="1037.5" y="-147" font-family="Helvetica,sans-Serif" font-size="10.00">arg_router/utility</text>
<text text-anchor="middle" x="1089" y="-136" font-family="Helvetica,sans-Serif" font-size="10.00">/utf8/whitespace.hpp</text>
</a>
</g>
</g>
<!-- Node3&#45;&gt;Node13 -->
<g id="edge14" class="edge">
<title>Node3&#45;&gt;Node13</title>
<path fill="none" stroke="midnightblue" d="M1089,-201.23C1089,-192.16 1089,-180.16 1089,-169.58"/>
<polygon fill="midnightblue" stroke="midnightblue" points="1092.5,-169.25 1089,-159.25 1085.5,-169.25 1092.5,-169.25"/>
</g>
<!-- Node14 -->
<g id="node14" class="node">
<title>Node14</title>
<g id="a_node14"><a xlink:href="zero__width_8hpp_source.html" target="_top" xlink:title=" ">
<polygon fill="none" stroke="black" points="1167,-129 1167,-159 1283,-159 1283,-129 1167,-129"/>
<text text-anchor="start" x="1175" y="-147" font-family="Helvetica,sans-Serif" font-size="10.00">arg_router/utility</text>
<text text-anchor="middle" x="1225" y="-136" font-family="Helvetica,sans-Serif" font-size="10.00">/utf8/zero_width.hpp</text>
</a>
</g>
</g>
<!-- Node3&#45;&gt;Node14 -->
<g id="edge16" class="edge">
<title>Node3&#45;&gt;Node14</title>
<path fill="none" stroke="midnightblue" d="M1116.19,-201.4C1137.04,-190.6 1166.01,-175.58 1188.81,-163.76"/>
<polygon fill="midnightblue" stroke="midnightblue" points="1190.59,-166.78 1197.85,-159.07 1187.36,-160.57 1190.59,-166.78"/>
</g>
<!-- Node5 -->
<g id="node5" class="node">
<title>Node5</title>
<g id="a_node5"><a xlink:href="code__point_8hpp_source.html" target="_top" xlink:title=" ">
<polygon fill="none" stroke="black" points="964,-56.5 964,-86.5 1080,-86.5 1080,-56.5 964,-56.5"/>
<text text-anchor="start" x="972" y="-74.5" font-family="Helvetica,sans-Serif" font-size="10.00">arg_router/utility</text>
<text text-anchor="middle" x="1022" y="-63.5" font-family="Helvetica,sans-Serif" font-size="10.00">/utf8/code_point.hpp</text>
</a>
</g>
</g>
<!-- Node4&#45;&gt;Node5 -->
<g id="edge4" class="edge">
<title>Node4&#45;&gt;Node5</title>
<path fill="none" stroke="midnightblue" d="M1316.06,-128.99C1308.05,-126.87 1299.81,-124.8 1292,-123 1223.75,-107.3 1144.95,-92.99 1090.16,-83.65"/>
<polygon fill="midnightblue" stroke="midnightblue" points="1090.67,-80.18 1080.22,-81.96 1089.5,-87.08 1090.67,-80.18"/>
</g>
<!-- Node5&#45;&gt;Node6 -->
<g id="edge5" class="edge">
<title>Node5&#45;&gt;Node6</title>
<path fill="none" stroke="midnightblue" d="M963.86,-66.15C806.97,-54.41 378.67,-22.35 258.64,-13.37"/>
<polygon fill="midnightblue" stroke="midnightblue" points="258.55,-9.85 248.32,-12.6 258.03,-16.83 258.55,-9.85"/>
</g>
<!-- Node7 -->
<g id="node7" class="node">
<title>Node7</title>
<g id="a_node7"><a xlink:title=" ">
<polygon fill="none" stroke="#bfbfbf" points="997,-0.5 997,-19.5 1047,-19.5 1047,-0.5 997,-0.5"/>
<text text-anchor="middle" x="1022" y="-7.5" font-family="Helvetica,sans-Serif" font-size="10.00">cstdint</text>
</a>
</g>
</g>
<!-- Node5&#45;&gt;Node7 -->
<g id="edge6" class="edge">
<title>Node5&#45;&gt;Node7</title>
<path fill="none" stroke="midnightblue" d="M1022,-56.4C1022,-48.47 1022,-38.46 1022,-29.86"/>
<polygon fill="midnightblue" stroke="midnightblue" points="1025.5,-29.66 1022,-19.66 1018.5,-29.66 1025.5,-29.66"/>
</g>
<!-- Node8 -->
<g id="node8" class="node">
<title>Node8</title>
<g id="a_node8"><a xlink:title=" ">
<polygon fill="none" stroke="#bfbfbf" points="704,-0.5 704,-19.5 760,-19.5 760,-0.5 704,-0.5"/>
<text text-anchor="middle" x="732" y="-7.5" font-family="Helvetica,sans-Serif" font-size="10.00">optional</text>
</a>
</g>
</g>
<!-- Node5&#45;&gt;Node8 -->
<g id="edge7" class="edge">
<title>Node5&#45;&gt;Node8</title>
<path fill="none" stroke="midnightblue" d="M963.66,-58.53C906.07,-46.71 819.65,-28.98 770.26,-18.85"/>
<polygon fill="midnightblue" stroke="midnightblue" points="770.81,-15.39 760.31,-16.81 769.4,-22.25 770.81,-15.39"/>
</g>
<!-- Node5&#45;&gt;Node9 -->
<g id="edge8" class="edge">
<title>Node5&#45;&gt;Node9</title>
<path fill="none" stroke="midnightblue" d="M1080.21,-62.54C1167.4,-50.61 1330.17,-28.35 1410.17,-17.41"/>
<polygon fill="midnightblue" stroke="midnightblue" points="1411,-20.82 1420.43,-16 1410.05,-13.89 1411,-20.82"/>
</g>
<!-- Node10&#45;&gt;Node5 -->
<g id="edge10" class="edge">
<title>Node10&#45;&gt;Node5</title>
<path fill="none" stroke="midnightblue" d="M871.66,-123.46C902.66,-112.95 940.57,-100.1 970.56,-89.93"/>
<polygon fill="midnightblue" stroke="midnightblue" points="972.06,-93.12 980.41,-86.6 969.82,-86.49 972.06,-93.12"/>
</g>
<!-- Node11 -->
<g id="node11" class="node">
<title>Node11</title>
<g id="a_node11"><a xlink:title=" ">
<polygon fill="none" stroke="#bfbfbf" points="735.5,-62 735.5,-81 800.5,-81 800.5,-62 735.5,-62"/>
<text text-anchor="middle" x="768" y="-69" font-family="Helvetica,sans-Serif" font-size="10.00">functional</text>
</a>
</g>
</g>
<!-- Node10&#45;&gt;Node11 -->
<g id="edge11" class="edge">
<title>Node10&#45;&gt;Node11</title>
<path fill="none" stroke="midnightblue" d="M801.19,-123.36C794.27,-112.76 785.8,-99.79 779.16,-89.6"/>
<polygon fill="midnightblue" stroke="midnightblue" points="782.05,-87.64 773.66,-81.17 776.19,-91.46 782.05,-87.64"/>
</g>
<!-- Node12&#45;&gt;Node5 -->
<g id="edge13" class="edge">
<title>Node12&#45;&gt;Node5</title>
<path fill="none" stroke="midnightblue" d="M967.76,-128.73C977.35,-118.8 990.31,-105.36 1001.15,-94.11"/>
<polygon fill="midnightblue" stroke="midnightblue" points="1003.84,-96.37 1008.26,-86.75 998.8,-91.51 1003.84,-96.37"/>
</g>
<!-- Node13&#45;&gt;Node5 -->
<g id="edge15" class="edge">
<title>Node13&#45;&gt;Node5</title>
<path fill="none" stroke="midnightblue" d="M1075.44,-128.73C1066,-118.8 1053.23,-105.36 1042.54,-94.11"/>
<polygon fill="midnightblue" stroke="midnightblue" points="1044.96,-91.58 1035.54,-86.75 1039.89,-96.41 1044.96,-91.58"/>
</g>
<!-- Node14&#45;&gt;Node5 -->
<g id="edge17" class="edge">
<title>Node14&#45;&gt;Node5</title>
<path fill="none" stroke="midnightblue" d="M1184.41,-128.9C1152.04,-117.66 1106.57,-101.87 1071.97,-89.86"/>
<polygon fill="midnightblue" stroke="midnightblue" points="1073.12,-86.55 1062.52,-86.57 1070.82,-93.16 1073.12,-86.55"/>
</g>
<!-- Node16 -->
<g id="node16" class="node">
<title>Node16</title>
<g id="a_node16"><a xlink:title=" ">
<polygon fill="none" stroke="#bfbfbf" points="28.5,-453 28.5,-472 97.5,-472 97.5,-453 28.5,-453"/>
<text text-anchor="middle" x="63" y="-460" font-family="Helvetica,sans-Serif" font-size="10.00">type_traits</text>
</a>
</g>
</g>
<!-- Node15&#45;&gt;Node16 -->
<g id="edge20" class="edge">
<title>Node15&#45;&gt;Node16</title>
<path fill="none" stroke="midnightblue" d="M154.7,-519.73C136.98,-508.87 106.57,-490.22 85.66,-477.39"/>
<polygon fill="midnightblue" stroke="midnightblue" points="87.42,-474.37 77.07,-472.13 83.76,-480.34 87.42,-474.37"/>
</g>
<!-- Node17&#45;&gt;Node8 -->
<g id="edge37" class="edge">
<title>Node17&#45;&gt;Node8</title>
<path fill="none" stroke="midnightblue" d="M487,-519.85C487,-498.76 487,-443.02 487,-396.5 487,-396.5 487,-396.5 487,-143 487,-50.17 625.01,-22.33 693.87,-14.21"/>
<polygon fill="midnightblue" stroke="midnightblue" points="694.34,-17.68 703.9,-13.11 693.57,-10.73 694.34,-17.68"/>
</g>
<!-- Node17&#45;&gt;Node11 -->
<g id="edge36" class="edge">
<title>Node17&#45;&gt;Node11</title>
<path fill="none" stroke="midnightblue" d="M545.13,-527.99C628.06,-525.89 773.98,-516.64 807,-478 815.95,-467.53 809.05,-460.62 807,-447 795.99,-373.88 774.29,-360.13 758,-288 745.83,-234.11 744.01,-220.1 740,-165 738.64,-146.38 735.33,-141.07 740,-123 743.09,-111.06 749.67,-98.94 755.68,-89.56"/>
<polygon fill="midnightblue" stroke="midnightblue" points="758.63,-91.45 761.35,-81.21 752.84,-87.52 758.63,-91.45"/>
</g>
<!-- Node17&#45;&gt;Node16 -->
<g id="edge40" class="edge">
<title>Node17&#45;&gt;Node16</title>
<path fill="none" stroke="midnightblue" d="M428.78,-524.15C353.7,-517.78 219.39,-503.75 107,-478 103.52,-477.2 99.93,-476.25 96.37,-475.21"/>
<polygon fill="midnightblue" stroke="midnightblue" points="97.11,-471.78 86.52,-472.15 95.03,-478.46 97.11,-471.78"/>
</g>
<!-- Node18 -->
<g id="node18" class="node">
<title>Node18</title>
<g id="a_node18"><a xlink:href="tree__node__fwd_8hpp_source.html" target="_top" xlink:title=" ">
<polygon fill="none" stroke="black" points="855.5,-447.5 855.5,-477.5 974.5,-477.5 974.5,-447.5 855.5,-447.5"/>
<text text-anchor="start" x="863.5" y="-465.5" font-family="Helvetica,sans-Serif" font-size="10.00">arg_router/tree_node</text>
<text text-anchor="middle" x="915" y="-454.5" font-family="Helvetica,sans-Serif" font-size="10.00">_fwd.hpp</text>
</a>
</g>
</g>
<!-- Node17&#45;&gt;Node18 -->
<g id="edge23" class="edge">
<title>Node17&#45;&gt;Node18</title>
<path fill="none" stroke="midnightblue" d="M545.09,-521.15C615.34,-512.05 737.09,-495.58 841,-478 842.45,-477.75 843.92,-477.5 845.4,-477.24"/>
<polygon fill="midnightblue" stroke="midnightblue" points="846.05,-480.68 855.27,-475.48 844.81,-473.79 846.05,-480.68"/>
</g>
<!-- Node17&#45;&gt;Node25 -->
<g id="edge32" class="edge">
<title>Node17&#45;&gt;Node25</title>
<path fill="none" stroke="midnightblue" d="M447.74,-519.94C393.8,-508.17 296.82,-487.02 238.14,-474.22"/>
<polygon fill="midnightblue" stroke="midnightblue" points="238.87,-470.8 228.35,-472.08 237.38,-477.63 238.87,-470.8"/>
</g>
<!-- Node26 -->
<g id="node26" class="node">
<title>Node26</title>
<g id="a_node26"><a xlink:title=" ">
<polygon fill="none" stroke="#bfbfbf" points="339.5,-453 339.5,-472 458.5,-472 458.5,-453 339.5,-453"/>
<text text-anchor="middle" x="399" y="-460" font-family="Helvetica,sans-Serif" font-size="10.00">boost/mp11/bind.hpp</text>
</a>
</g>
</g>
<!-- Node17&#45;&gt;Node26 -->
<g id="edge33" class="edge">
<title>Node17&#45;&gt;Node26</title>
<path fill="none" stroke="midnightblue" d="M475.13,-519.73C460.75,-509.11 436.3,-491.05 418.99,-478.26"/>
<polygon fill="midnightblue" stroke="midnightblue" points="420.8,-475.25 410.68,-472.13 416.64,-480.88 420.8,-475.25"/>
</g>
<!-- Node27 -->
<g id="node27" class="node">
<title>Node27</title>
<g id="a_node27"><a xlink:title=" ">
<polygon fill="none" stroke="#bfbfbf" points="515.5,-453 515.5,-472 640.5,-472 640.5,-453 515.5,-453"/>
<text text-anchor="middle" x="578" y="-460" font-family="Helvetica,sans-Serif" font-size="10.00">boost/mp11/utility.hpp</text>
</a>
</g>
</g>
<!-- Node17&#45;&gt;Node27 -->
<g id="edge34" class="edge">
<title>Node17&#45;&gt;Node27</title>
<path fill="none" stroke="midnightblue" d="M499.27,-519.73C514.15,-509.11 539.43,-491.05 557.33,-478.26"/>
<polygon fill="midnightblue" stroke="midnightblue" points="559.82,-480.79 565.92,-472.13 555.75,-475.09 559.82,-480.79"/>
</g>
<!-- Node28 -->
<g id="node28" class="node">
<title>Node28</title>
<g id="a_node28"><a xlink:title=" ">
<polygon fill="none" stroke="#bfbfbf" points="659,-453 659,-472 723,-472 723,-453 659,-453"/>
<text text-anchor="middle" x="691" y="-460" font-family="Helvetica,sans-Serif" font-size="10.00">algorithm</text>
</a>
</g>
</g>
<!-- Node17&#45;&gt;Node28 -->
<g id="edge35" class="edge">
<title>Node17&#45;&gt;Node28</title>
<path fill="none" stroke="midnightblue" d="M515.18,-520C547.56,-510.16 602.26,-493.35 649,-478 651.59,-477.15 654.27,-476.26 656.95,-475.35"/>
<polygon fill="midnightblue" stroke="midnightblue" points="658.28,-478.6 666.61,-472.06 656.02,-471.97 658.28,-478.6"/>
</g>
<!-- Node29 -->
<g id="node29" class="node">
<title>Node29</title>
<g id="a_node29"><a xlink:title=" ">
<polygon fill="none" stroke="#bfbfbf" points="741.5,-453 741.5,-472 798.5,-472 798.5,-453 741.5,-453"/>
<text text-anchor="middle" x="770" y="-460" font-family="Helvetica,sans-Serif" font-size="10.00">ostream</text>
</a>
</g>
</g>
<!-- Node17&#45;&gt;Node29 -->
<g id="edge38" class="edge">
<title>Node17&#45;&gt;Node29</title>
<path fill="none" stroke="midnightblue" d="M541.14,-519.93C591.2,-511.39 667.38,-496.86 732,-478 734.58,-477.25 737.23,-476.4 739.88,-475.5"/>
<polygon fill="midnightblue" stroke="midnightblue" points="741.09,-478.78 749.3,-472.09 738.71,-472.2 741.09,-478.78"/>
</g>
<!-- Node30 -->
<g id="node30" class="node">
<title>Node30</title>
<g id="a_node30"><a xlink:title=" ">
<polygon fill="none" stroke="#bfbfbf" points="280.5,-453 280.5,-472 321.5,-472 321.5,-453 280.5,-453"/>
<text text-anchor="middle" x="301" y="-460" font-family="Helvetica,sans-Serif" font-size="10.00">tuple</text>
</a>
</g>
</g>
<!-- Node17&#45;&gt;Node30 -->
<g id="edge39" class="edge">
<title>Node17&#45;&gt;Node30</title>
<path fill="none" stroke="midnightblue" d="M455.82,-519.99C423.77,-510.9 372.68,-495.42 330,-478 328.8,-477.51 327.58,-476.99 326.35,-476.45"/>
<polygon fill="midnightblue" stroke="midnightblue" points="327.6,-473.17 317.06,-472.07 324.61,-479.5 327.6,-473.17"/>
</g>
<!-- Node19 -->
<g id="node19" class="node">
<title>Node19</title>
<g id="a_node19"><a xlink:href="dynamic__string__view_8hpp_source.html" target="_top" xlink:title=" ">
<polygon fill="none" stroke="black" points="899.5,-380.5 899.5,-410.5 1042.5,-410.5 1042.5,-380.5 899.5,-380.5"/>
<text text-anchor="start" x="907.5" y="-398.5" font-family="Helvetica,sans-Serif" font-size="10.00">arg_router/utility</text>
<text text-anchor="middle" x="971" y="-387.5" font-family="Helvetica,sans-Serif" font-size="10.00">/dynamic_string_view.hpp</text>
</a>
</g>
</g>
<!-- Node18&#45;&gt;Node19 -->
<g id="edge24" class="edge">
<title>Node18&#45;&gt;Node19</title>
<path fill="none" stroke="midnightblue" d="M927.15,-447.4C934.49,-438.88 943.99,-427.85 952.28,-418.23"/>
<polygon fill="midnightblue" stroke="midnightblue" points="955,-420.44 958.87,-410.58 949.69,-415.87 955,-420.44"/>
</g>
<!-- Node24 -->
<g id="node24" class="node">
<title>Node24</title>
<g id="a_node24"><a xlink:title=" ">
<polygon fill="none" stroke="#bfbfbf" points="836.5,-386 836.5,-405 881.5,-405 881.5,-386 836.5,-386"/>
<text text-anchor="middle" x="859" y="-393" font-family="Helvetica,sans-Serif" font-size="10.00">utility</text>
</a>
</g>
</g>
<!-- Node18&#45;&gt;Node24 -->
<g id="edge31" class="edge">
<title>Node18&#45;&gt;Node24</title>
<path fill="none" stroke="midnightblue" d="M902.85,-447.4C894.12,-437.26 882.32,-423.57 873.16,-412.94"/>
<polygon fill="midnightblue" stroke="midnightblue" points="875.67,-410.49 866.49,-405.19 870.37,-415.06 875.67,-410.49"/>
</g>
<!-- Node19&#45;&gt;Node9 -->
<g id="edge30" class="edge">
<title>Node19&#45;&gt;Node9</title>
<path fill="none" stroke="midnightblue" d="M1042.76,-393.52C1186.27,-389.6 1495,-370.53 1495,-279 1495,-279 1495,-279 1495,-143 1495,-103.68 1491.3,-93.34 1479,-56 1475.9,-46.6 1471.22,-36.67 1466.96,-28.54"/>
<polygon fill="midnightblue" stroke="midnightblue" points="1469.98,-26.77 1462.12,-19.66 1463.84,-30.12 1469.98,-26.77"/>
</g>
<!-- Node20 -->
<g id="node20" class="node">
<title>Node20</title>
<g id="a_node20"><a xlink:href="basic__types_8hpp_source.html" target="_top" xlink:title=" ">
<polygon fill="none" stroke="black" points="895.5,-324.5 895.5,-343.5 1044.5,-343.5 1044.5,-324.5 895.5,-324.5"/>
<text text-anchor="middle" x="970" y="-331.5" font-family="Helvetica,sans-Serif" font-size="10.00">arg_router/basic_types.hpp</text>
</a>
</g>
</g>
<!-- Node19&#45;&gt;Node20 -->
<g id="edge25" class="edge">
<title>Node19&#45;&gt;Node20</title>
<path fill="none" stroke="midnightblue" d="M970.76,-380.4C970.63,-372.47 970.46,-362.46 970.32,-353.86"/>
<polygon fill="midnightblue" stroke="midnightblue" points="973.81,-353.6 970.15,-343.66 966.81,-353.72 973.81,-353.6"/>
</g>
<!-- Node20&#45;&gt;Node2 -->
<g id="edge26" class="edge">
<title>Node20&#45;&gt;Node2</title>
<path fill="none" stroke="midnightblue" d="M987.91,-324.44C1006.25,-315.68 1035.01,-301.94 1056.09,-291.86"/>
<polygon fill="midnightblue" stroke="midnightblue" points="1057.67,-294.99 1065.18,-287.52 1054.65,-288.67 1057.67,-294.99"/>
</g>
<!-- Node21 -->
<g id="node21" class="node">
<title>Node21</title>
<g id="a_node21"><a xlink:title=" ">
<polygon fill="none" stroke="#bfbfbf" points="883,-268.5 883,-287.5 939,-287.5 939,-268.5 883,-268.5"/>
<text text-anchor="middle" x="911" y="-275.5" font-family="Helvetica,sans-Serif" font-size="10.00">sstream</text>
</a>
</g>
</g>
<!-- Node20&#45;&gt;Node21 -->
<g id="edge27" class="edge">
<title>Node20&#45;&gt;Node21</title>
<path fill="none" stroke="midnightblue" d="M960.52,-324.32C951.8,-316.34 938.66,-304.31 928.1,-294.65"/>
<polygon fill="midnightblue" stroke="midnightblue" points="930.39,-292 920.65,-287.83 925.67,-297.17 930.39,-292"/>
</g>
<!-- Node22 -->
<g id="node22" class="node">
<title>Node22</title>
<g id="a_node22"><a xlink:title=" ">
<polygon fill="none" stroke="#bfbfbf" points="957.5,-268.5 957.5,-287.5 1004.5,-287.5 1004.5,-268.5 957.5,-268.5"/>
<text text-anchor="middle" x="981" y="-275.5" font-family="Helvetica,sans-Serif" font-size="10.00">vector</text>
</a>
</g>
</g>
<!-- Node20&#45;&gt;Node22 -->
<g id="edge28" class="edge">
<title>Node20&#45;&gt;Node22</title>
<path fill="none" stroke="midnightblue" d="M971.82,-324.08C973.27,-316.93 975.37,-306.64 977.19,-297.69"/>
<polygon fill="midnightblue" stroke="midnightblue" points="980.65,-298.25 979.22,-287.75 973.79,-296.85 980.65,-298.25"/>
</g>
<!-- Node23 -->
<g id="node23" class="node">
<title>Node23</title>
<g id="a_node23"><a xlink:title=" ">
<polygon fill="none" stroke="#bfbfbf" points="767.5,-268.5 767.5,-287.5 864.5,-287.5 864.5,-268.5 767.5,-268.5"/>
<text text-anchor="middle" x="816" y="-275.5" font-family="Helvetica,sans-Serif" font-size="10.00">nonstd/span.hpp</text>
</a>
</g>
</g>
<!-- Node20&#45;&gt;Node23 -->
<g id="edge29" class="edge">
<title>Node20&#45;&gt;Node23</title>
<path fill="none" stroke="midnightblue" d="M945.6,-324.44C919.8,-315.4 878.92,-301.06 849.98,-290.92"/>
<polygon fill="midnightblue" stroke="midnightblue" points="850.88,-287.52 840.29,-287.52 848.57,-294.13 850.88,-287.52"/>
</g>
</g>
</svg>
        <g id="navigator" transform="translate(0 0)" fill="#404254">
                <rect fill="#f2f5e9" fill-opacity="0.5" stroke="#606060" stroke-width=".5" x="0" y="0" width="60" height="60"/>
                <use id="zoomplus" xlink:href="#zoomPlus" x="17" y="9" onmousedown="handleZoom(evt,'in')"/>
                <use id="zoomminus" xlink:href="#zoomMin" x="42" y="9" onmousedown="handleZoom(evt,'out')"/>
                <use id="reset" xlink:href="#resetDef" x="30" y="36" onmousedown="handleReset()"/>
                <g id="arrowUp" xlink:href="#dirArrow" transform="translate(30 24)" onmousedown="handlePan(0,-1)">
                  <use xlink:href="#rim" fill="#404040">
                        <set attributeName="fill" to="#808080" begin="arrowUp.mouseover" end="arrowUp.mouseout"/>
                  </use>
                  <path fill="none" stroke="white" stroke-width="1.5" d="M0,-3.0v7 M-2.5,-0.5L0,-3.0L2.5,-0.5"/>
                </g>
                <g id="arrowRight" xlink:href="#dirArrow" transform="rotate(90) translate(36 -43)" onmousedown="handlePan(1,0)">
                  <use xlink:href="#rim" fill="#404040">
                        <set attributeName="fill" to="#808080" begin="arrowRight.mouseover" end="arrowRight.mouseout"/>
                  </use>
                  <path fill="none" stroke="white" stroke-width="1.5" d="M0,-3.0v7 M-2.5,-0.5L0,-3.0L2.5,-0.5"/>
                </g>
                <g id="arrowDown" xlink:href="#dirArrow" transform="rotate(180) translate(-30 -48)" onmousedown="handlePan(0,1)">
                  <use xlink:href="#rim" fill="#404040">
                        <set attributeName="fill" to="#808080" begin="arrowDown.mouseover" end="arrowDown.mouseout"/>
                  </use>
                  <path fill="none" stroke="white" stroke-width="1.5" d="M0,-3.0v7 M-2.5,-0.5L0,-3.0L2.5,-0.5"/>
                </g>
                <g id="arrowLeft" xlink:href="#dirArrow" transform="rotate(270) translate(-36 17)" onmousedown="handlePan(-1,0)">
                  <use xlink:href="#rim" fill="#404040">
                        <set attributeName="fill" to="#808080" begin="arrowLeft.mouseover" end="arrowLeft.mouseout"/>
                  </use>
                  <path fill="none" stroke="white" stroke-width="1.5" d="M0,-3.0v7 M-2.5,-0.5L0,-3.0L2.5,-0.5"/>
                </g>
        </g>
        <svg viewBox="0 0 15 15" width="100%" height="30px" preserveAspectRatio="xMaxYMin meet">
         <g id="arrow_out" transform="scale(0.3 0.3)">
          <a xlink:href="compile__time__string_8hpp__incl_org.svg" target="_base">
           <rect id="button" ry="5" rx="5" y="6" x="6" height="38" width="38"
                fill="#f2f5e9" fill-opacity="0.5" stroke="#606060" stroke-width="1.0"/>
           <path id="arrow"
             d="M 11.500037,31.436501 C 11.940474,20.09759 22.043105,11.32322 32.158766,21.979434 L 37.068811,17.246167 C 37.068811,17.246167 37.088388,32 37.088388,32 L 22.160133,31.978069 C 22.160133,31.978069 26.997745,27.140456 26.997745,27.140456 C 18.528582,18.264221 13.291696,25.230495 11.500037,31.436501 z"
             style="fill:#404040;"/>
          </a>
         </g>
        </svg>
</svg>
