<?xml version="1.0" encoding="UTF-8" standalone="no"?>
<!DOCTYPE svg PUBLIC "-//W3C//DTD SVG 1.1//EN"
 "http://www.w3.org/Graphics/SVG/1.1/DTD/svg11.dtd">
<!-- Generated by graphviz version 2.43.0 (0)
 -->
<!-- Title: arg_router/utility/compile_time_string.hpp Pages: 1 -->
<svg width="1277pt" height="430pt"
 viewBox="0.00 0.00 1277.14 430.00" xmlns="http://www.w3.org/2000/svg" xmlns:xlink="http://www.w3.org/1999/xlink">
<g id="graph0" class="graph" transform="scale(1 1) rotate(0) translate(4 426)">
<title>arg_router/utility/compile_time_string.hpp</title>
<polygon fill="white" stroke="transparent" points="-4,4 -4,-426 1273.14,-426 1273.14,4 -4,4"/>
<!-- Node1 -->
<g id="node1" class="node">
<title>Node1</title>
<g id="a_node1"><a xlink:title=" ">
<polygon fill="#bfbfbf" stroke="black" points="553.91,-391.5 553.91,-421.5 693.91,-421.5 693.91,-391.5 553.91,-391.5"/>
<text text-anchor="start" x="561.91" y="-409.5" font-family="Helvetica,sans-Serif" font-size="10.00">arg_router/utility</text>
<text text-anchor="middle" x="623.91" y="-398.5" font-family="Helvetica,sans-Serif" font-size="10.00">/compile_time_string.hpp</text>
</a>
</g>
</g>
<!-- Node2 -->
<g id="node2" class="node">
<title>Node2</title>
<g id="a_node2"><a xlink:href="short__name_8hpp_source.html" target="_top" xlink:title=" ">
<polygon fill="white" stroke="black" points="961.41,-324.5 961.41,-354.5 1088.41,-354.5 1088.41,-324.5 961.41,-324.5"/>
<text text-anchor="start" x="969.41" y="-342.5" font-family="Helvetica,sans-Serif" font-size="10.00">arg_router/policy/short</text>
<text text-anchor="middle" x="1024.91" y="-331.5" font-family="Helvetica,sans-Serif" font-size="10.00">_name.hpp</text>
</a>
</g>
</g>
<!-- Node1&#45;&gt;Node2 -->
<g id="edge1" class="edge">
<title>Node1&#45;&gt;Node2</title>
<path fill="none" stroke="midnightblue" d="M704.18,-392.49C779.82,-380.23 891.65,-362.1 961.3,-350.81"/>
<polygon fill="midnightblue" stroke="midnightblue" points="703.53,-389.05 694.22,-394.1 704.65,-395.96 703.53,-389.05"/>
</g>
<!-- Node6 -->
<g id="node6" class="node">
<title>Node6</title>
<g id="a_node6"><a xlink:href="value__separator_8hpp_source.html" target="_top" xlink:title=" ">
<polygon fill="white" stroke="black" points="41.41,-123.5 41.41,-153.5 170.41,-153.5 170.41,-123.5 41.41,-123.5"/>
<text text-anchor="start" x="49.41" y="-141.5" font-family="Helvetica,sans-Serif" font-size="10.00">arg_router/policy/value</text>
<text text-anchor="middle" x="105.91" y="-130.5" font-family="Helvetica,sans-Serif" font-size="10.00">_separator.hpp</text>
</a>
</g>
</g>
<!-- Node1&#45;&gt;Node6 -->
<g id="edge6" class="edge">
<title>Node1&#45;&gt;Node6</title>
<path fill="none" stroke="midnightblue" d="M543.83,-402.12C394.92,-393.98 84.58,-367.64 18.91,-288 -8.79,-254.39 -2.82,-227.75 18.91,-190 28.59,-173.2 46.23,-161.48 63.11,-153.58"/>
<polygon fill="midnightblue" stroke="midnightblue" points="543.66,-405.62 553.83,-402.65 544.03,-398.63 543.66,-405.62"/>
</g>
<!-- Node7 -->
<g id="node7" class="node">
<title>Node7</title>
<g id="a_node7"><a xlink:href="tree__node_8hpp_source.html" target="_top" xlink:title=" ">
<polygon fill="white" stroke="black" points="553.91,-330 553.91,-349 693.91,-349 693.91,-330 553.91,-330"/>
<text text-anchor="middle" x="623.91" y="-337" font-family="Helvetica,sans-Serif" font-size="10.00">arg_router/tree_node.hpp</text>
</a>
</g>
</g>
<!-- Node1&#45;&gt;Node7 -->
<g id="edge8" class="edge">
<title>Node1&#45;&gt;Node7</title>
<path fill="none" stroke="midnightblue" d="M623.91,-381.25C623.91,-370.02 623.91,-357.38 623.91,-349.19"/>
<polygon fill="midnightblue" stroke="midnightblue" points="620.41,-381.4 623.91,-391.4 627.41,-381.4 620.41,-381.4"/>
</g>
<!-- Node3 -->
<g id="node3" class="node">
<title>Node3</title>
<g id="a_node3"><a xlink:href="validator_8hpp_source.html" target="_top" xlink:title=" ">
<polygon fill="white" stroke="black" points="407.91,-129 407.91,-148 573.91,-148 573.91,-129 407.91,-129"/>
<text text-anchor="middle" x="490.91" y="-136" font-family="Helvetica,sans-Serif" font-size="10.00">arg_router/policy/validator.hpp</text>
</a>
</g>
</g>
<!-- Node2&#45;&gt;Node3 -->
<g id="edge2" class="edge">
<title>Node2&#45;&gt;Node3</title>
<path fill="none" stroke="midnightblue" d="M1095.41,-321.84C1182.34,-298.21 1311.99,-250.98 1254.91,-190 1209.18,-141.14 762.65,-137.9 574.18,-138.74"/>
<polygon fill="midnightblue" stroke="midnightblue" points="1094.32,-318.51 1085.56,-324.47 1096.13,-325.27 1094.32,-318.51"/>
</g>
<!-- Node4 -->
<g id="node4" class="node">
<title>Node4</title>
<g id="a_node4"><a xlink:href="arg__router_8hpp_source.html" target="_top" xlink:title=" ">
<polygon fill="white" stroke="black" points="319.91,-0.5 319.91,-19.5 459.91,-19.5 459.91,-0.5 319.91,-0.5"/>
<text text-anchor="middle" x="389.91" y="-7.5" font-family="Helvetica,sans-Serif" font-size="10.00">arg_router/arg_router.hpp</text>
</a>
</g>
</g>
<!-- Node3&#45;&gt;Node4 -->
<g id="edge3" class="edge">
<title>Node3&#45;&gt;Node4</title>
<path fill="none" stroke="midnightblue" d="M490.78,-118.68C489.75,-100.88 485.74,-74.23 471.91,-56 458.47,-38.28 435.93,-26.63 417.88,-19.64"/>
<polygon fill="midnightblue" stroke="midnightblue" points="487.29,-119.05 491.11,-128.93 494.29,-118.83 487.29,-119.05"/>
</g>
<!-- Node5 -->
<g id="node5" class="node">
<title>Node5</title>
<g id="a_node5"><a xlink:href="validator__rule__utilities_8hpp_source.html" target="_top" xlink:title=" ">
<polygon fill="white" stroke="black" points="316.91,-56.5 316.91,-86.5 462.91,-86.5 462.91,-56.5 316.91,-56.5"/>
<text text-anchor="start" x="324.91" y="-74.5" font-family="Helvetica,sans-Serif" font-size="10.00">arg_router/policy/validator</text>
<text text-anchor="middle" x="389.91" y="-63.5" font-family="Helvetica,sans-Serif" font-size="10.00">_rule_utilities.hpp</text>
</a>
</g>
</g>
<!-- Node3&#45;&gt;Node5 -->
<g id="edge4" class="edge">
<title>Node3&#45;&gt;Node5</title>
<path fill="none" stroke="midnightblue" d="M468.62,-123.15C451.72,-112.27 428.61,-97.4 411.81,-86.59"/>
<polygon fill="midnightblue" stroke="midnightblue" points="466.99,-126.27 477.29,-128.73 470.78,-120.38 466.99,-126.27"/>
</g>
<!-- Node5&#45;&gt;Node4 -->
<g id="edge5" class="edge">
<title>Node5&#45;&gt;Node4</title>
<path fill="none" stroke="midnightblue" d="M389.91,-46.29C389.91,-36.86 389.91,-26.65 389.91,-19.66"/>
<polygon fill="midnightblue" stroke="midnightblue" points="386.41,-46.4 389.91,-56.4 393.41,-46.4 386.41,-46.4"/>
</g>
<!-- Node6&#45;&gt;Node4 -->
<g id="edge7" class="edge">
<title>Node6&#45;&gt;Node4</title>
<path fill="none" stroke="midnightblue" d="M146.89,-119.25C209.04,-91.57 324.75,-40.03 370.54,-19.63"/>
<polygon fill="midnightblue" stroke="midnightblue" points="145.1,-116.21 137.39,-123.48 147.95,-122.61 145.1,-116.21"/>
</g>
<!-- Node8 -->
<g id="node8" class="node">
<title>Node8</title>
<g id="a_node8"><a xlink:href="arg_8hpp_source.html" target="_top" xlink:title=" ">
<polygon fill="white" stroke="black" points="1008.41,-196 1008.41,-215 1115.41,-215 1115.41,-196 1008.41,-196"/>
<text text-anchor="middle" x="1061.91" y="-203" font-family="Helvetica,sans-Serif" font-size="10.00">arg_router/arg.hpp</text>
</a>
</g>
</g>
<!-- Node7&#45;&gt;Node8 -->
<g id="edge9" class="edge">
<title>Node7&#45;&gt;Node8</title>
<path fill="none" stroke="midnightblue" d="M680.75,-328.01C726.37,-319.03 791.85,-304.9 847.91,-288 921,-265.97 1004.83,-231.14 1042.18,-215.1"/>
<polygon fill="midnightblue" stroke="midnightblue" points="679.89,-324.61 670.75,-329.96 681.23,-331.48 679.89,-324.61"/>
</g>
<!-- Node9 -->
<g id="node9" class="node">
<title>Node9</title>
<g id="a_node9"><a xlink:href="counting__flag_8hpp_source.html" target="_top" xlink:title=" ">
<polygon fill="white" stroke="black" points="1133.91,-190.5 1133.91,-220.5 1245.91,-220.5 1245.91,-190.5 1133.91,-190.5"/>
<text text-anchor="start" x="1141.91" y="-208.5" font-family="Helvetica,sans-Serif" font-size="10.00">arg_router/counting</text>
<text text-anchor="middle" x="1189.91" y="-197.5" font-family="Helvetica,sans-Serif" font-size="10.00">_flag.hpp</text>
</a>
</g>
</g>
<!-- Node7&#45;&gt;Node9 -->
<g id="edge11" class="edge">
<title>Node7&#45;&gt;Node9</title>
<path fill="none" stroke="midnightblue" d="M691.28,-328.42C748.66,-319.37 833.13,-304.91 905.91,-288 991.85,-268.03 1090.51,-238.1 1146.01,-220.62"/>
<polygon fill="midnightblue" stroke="midnightblue" points="690.58,-324.99 681.25,-330 691.67,-331.91 690.58,-324.99"/>
</g>
<!-- Node10 -->
<g id="node10" class="node">
<title>Node10</title>
<g id="a_node10"><a xlink:href="detail_8hpp_source.html" target="_top" xlink:title=" ">
<polygon fill="white" stroke="black" points="28.41,-257.5 28.41,-287.5 157.41,-287.5 157.41,-257.5 28.41,-257.5"/>
<text text-anchor="start" x="36.41" y="-275.5" font-family="Helvetica,sans-Serif" font-size="10.00">arg_router/dependency</text>
<text text-anchor="middle" x="92.91" y="-264.5" font-family="Helvetica,sans-Serif" font-size="10.00">/detail.hpp</text>
</a>
</g>
</g>
<!-- Node7&#45;&gt;Node10 -->
<g id="edge13" class="edge">
<title>Node7&#45;&gt;Node10</title>
<path fill="none" stroke="midnightblue" d="M543.8,-331.78C452.16,-323.6 297.75,-308.32 165.91,-288 163.23,-287.59 160.5,-287.14 157.74,-286.68"/>
<polygon fill="midnightblue" stroke="midnightblue" points="543.56,-335.27 553.83,-332.67 544.18,-328.3 543.56,-335.27"/>
</g>
<!-- Node13 -->
<g id="node13" class="node">
<title>Node13</title>
<g id="a_node13"><a xlink:href="flag_8hpp_source.html" target="_top" xlink:title=" ">
<polygon fill="white" stroke="black" points="175.41,-263 175.41,-282 284.41,-282 284.41,-263 175.41,-263"/>
<text text-anchor="middle" x="229.91" y="-270" font-family="Helvetica,sans-Serif" font-size="10.00">arg_router/flag.hpp</text>
</a>
</g>
</g>
<!-- Node7&#45;&gt;Node13 -->
<g id="edge18" class="edge">
<title>Node7&#45;&gt;Node13</title>
<path fill="none" stroke="midnightblue" d="M549.13,-328.6C482.08,-319.35 381.12,-304.53 293.91,-288 284.62,-286.24 274.63,-284.1 265.37,-282"/>
<polygon fill="midnightblue" stroke="midnightblue" points="548.8,-332.09 559.18,-329.98 549.75,-325.15 548.8,-332.09"/>
</g>
<!-- Node14 -->
<g id="node14" class="node">
<title>Node14</title>
<g id="a_node14"><a xlink:href="help_8hpp_source.html" target="_top" xlink:title=" ">
<polygon fill="white" stroke="black" points="302.91,-263 302.91,-282 414.91,-282 414.91,-263 302.91,-263"/>
<text text-anchor="middle" x="358.91" y="-270" font-family="Helvetica,sans-Serif" font-size="10.00">arg_router/help.hpp</text>
</a>
</g>
</g>
<!-- Node7&#45;&gt;Node14 -->
<g id="edge20" class="edge">
<title>Node7&#45;&gt;Node14</title>
<path fill="none" stroke="midnightblue" d="M579,-327.48C526.73,-314.66 441.51,-293.76 393.91,-282.08"/>
<polygon fill="midnightblue" stroke="midnightblue" points="578.45,-330.95 589,-329.94 580.12,-324.15 578.45,-330.95"/>
</g>
<!-- Node15 -->
<g id="node15" class="node">
<title>Node15</title>
<g id="a_node15"><a xlink:href="mode_8hpp_source.html" target="_top" xlink:title=" ">
<polygon fill="white" stroke="black" points="475.41,-196 475.41,-215 594.41,-215 594.41,-196 475.41,-196"/>
<text text-anchor="middle" x="534.91" y="-203" font-family="Helvetica,sans-Serif" font-size="10.00">arg_router/mode.hpp</text>
</a>
</g>
</g>
<!-- Node7&#45;&gt;Node15 -->
<g id="edge22" class="edge">
<title>Node7&#45;&gt;Node15</title>
<path fill="none" stroke="midnightblue" d="M648.33,-324.5C673.09,-308.46 705.47,-281.28 687.91,-257 674.93,-239.04 619.37,-223.96 578.94,-215.08"/>
<polygon fill="midnightblue" stroke="midnightblue" points="646.31,-321.63 639.65,-329.87 650,-327.58 646.31,-321.63"/>
</g>
<!-- Node16 -->
<g id="node16" class="node">
<title>Node16</title>
<g id="a_node16"><a xlink:href="positional__arg_8hpp_source.html" target="_top" xlink:title=" ">
<polygon fill="white" stroke="black" points="432.91,-257.5 432.91,-287.5 550.91,-287.5 550.91,-257.5 432.91,-257.5"/>
<text text-anchor="start" x="440.91" y="-275.5" font-family="Helvetica,sans-Serif" font-size="10.00">arg_router/positional</text>
<text text-anchor="middle" x="491.91" y="-264.5" font-family="Helvetica,sans-Serif" font-size="10.00">_arg.hpp</text>
</a>
</g>
</g>
<!-- Node7&#45;&gt;Node16 -->
<g id="edge24" class="edge">
<title>Node7&#45;&gt;Node16</title>
<path fill="none" stroke="midnightblue" d="M597.19,-325.34C574.97,-314.4 543.42,-298.86 520.65,-287.65"/>
<polygon fill="midnightblue" stroke="midnightblue" points="595.87,-328.59 606.39,-329.87 598.96,-322.31 595.87,-328.59"/>
</g>
<!-- Node17 -->
<g id="node17" class="node">
<title>Node17</title>
<g id="a_node17"><a xlink:href="root_8hpp_source.html" target="_top" xlink:title=" ">
<polygon fill="white" stroke="black" points="568.91,-263 568.91,-282 678.91,-282 678.91,-263 568.91,-263"/>
<text text-anchor="middle" x="623.91" y="-270" font-family="Helvetica,sans-Serif" font-size="10.00">arg_router/root.hpp</text>
</a>
</g>
</g>
<!-- Node7&#45;&gt;Node17 -->
<g id="edge26" class="edge">
<title>Node7&#45;&gt;Node17</title>
<path fill="none" stroke="midnightblue" d="M623.91,-319.54C623.91,-307.17 623.91,-291.62 623.91,-282.13"/>
<polygon fill="midnightblue" stroke="midnightblue" points="620.41,-319.73 623.91,-329.73 627.41,-319.73 620.41,-319.73"/>
</g>
<!-- Node18 -->
<g id="node18" class="node">
<title>Node18</title>
<g id="a_node18"><a xlink:href="tree__recursor_8hpp_source.html" target="_top" xlink:title=" ">
<polygon fill="white" stroke="black" points="734.91,-257.5 734.91,-287.5 838.91,-287.5 838.91,-257.5 734.91,-257.5"/>
<text text-anchor="start" x="742.91" y="-275.5" font-family="Helvetica,sans-Serif" font-size="10.00">arg_router/utility</text>
<text text-anchor="middle" x="786.91" y="-264.5" font-family="Helvetica,sans-Serif" font-size="10.00">/tree_recursor.hpp</text>
</a>
</g>
</g>
<!-- Node7&#45;&gt;Node18 -->
<g id="edge28" class="edge">
<title>Node7&#45;&gt;Node18</title>
<path fill="none" stroke="midnightblue" d="M655.11,-326.06C682.73,-315.05 722.99,-298.99 751.74,-287.53"/>
<polygon fill="midnightblue" stroke="midnightblue" points="653.55,-322.91 645.56,-329.87 656.14,-329.42 653.55,-322.91"/>
</g>
<!-- Node8&#45;&gt;Node3 -->
<g id="edge10" class="edge">
<title>Node8&#45;&gt;Node3</title>
<path fill="none" stroke="midnightblue" d="M1019.07,-193.71C1012.67,-192.33 1006.14,-191.03 999.91,-190 850.98,-165.31 675.39,-151.14 574.23,-144.41"/>
<polygon fill="midnightblue" stroke="midnightblue" points="1018.41,-197.15 1028.93,-195.94 1019.95,-190.32 1018.41,-197.15"/>
</g>
<!-- Node9&#45;&gt;Node3 -->
<g id="edge12" class="edge">
<title>Node9&#45;&gt;Node3</title>
<path fill="none" stroke="midnightblue" d="M1123.71,-189.96C921.31,-160.05 693.79,-147.43 574.16,-142.42"/>
<polygon fill="midnightblue" stroke="midnightblue" points="1123.23,-193.42 1133.63,-191.44 1124.26,-186.5 1123.23,-193.42"/>
</g>
<!-- Node11 -->
<g id="node11" class="node">
<title>Node11</title>
<g id="a_node11"><a xlink:href="alias__group_8hpp_source.html" target="_top" xlink:title=" ">
<polygon fill="white" stroke="black" points="28.41,-190.5 28.41,-220.5 157.41,-220.5 157.41,-190.5 28.41,-190.5"/>
<text text-anchor="start" x="36.41" y="-208.5" font-family="Helvetica,sans-Serif" font-size="10.00">arg_router/dependency</text>
<text text-anchor="middle" x="92.91" y="-197.5" font-family="Helvetica,sans-Serif" font-size="10.00">/alias_group.hpp</text>
</a>
</g>
</g>
<!-- Node10&#45;&gt;Node11 -->
<g id="edge14" class="edge">
<title>Node10&#45;&gt;Node11</title>
<path fill="none" stroke="midnightblue" d="M92.91,-247.11C92.91,-238.15 92.91,-228.32 92.91,-220.58"/>
<polygon fill="midnightblue" stroke="midnightblue" points="89.41,-247.4 92.91,-257.4 96.41,-247.4 89.41,-247.4"/>
</g>
<!-- Node12 -->
<g id="node12" class="node">
<title>Node12</title>
<g id="a_node12"><a xlink:href="one__of_8hpp_source.html" target="_top" xlink:title=" ">
<polygon fill="white" stroke="black" points="175.41,-190.5 175.41,-220.5 304.41,-220.5 304.41,-190.5 175.41,-190.5"/>
<text text-anchor="start" x="183.41" y="-208.5" font-family="Helvetica,sans-Serif" font-size="10.00">arg_router/dependency</text>
<text text-anchor="middle" x="239.91" y="-197.5" font-family="Helvetica,sans-Serif" font-size="10.00">/one_of.hpp</text>
</a>
</g>
</g>
<!-- Node10&#45;&gt;Node12 -->
<g id="edge16" class="edge">
<title>Node10&#45;&gt;Node12</title>
<path fill="none" stroke="midnightblue" d="M134.14,-253.27C157.56,-242.92 186.42,-230.15 208.08,-220.58"/>
<polygon fill="midnightblue" stroke="midnightblue" points="132.54,-250.15 124.81,-257.4 135.37,-256.55 132.54,-250.15"/>
</g>
<!-- Node11&#45;&gt;Node3 -->
<g id="edge15" class="edge">
<title>Node11&#45;&gt;Node3</title>
<path fill="none" stroke="midnightblue" d="M167.8,-189.7C265.37,-172.59 368.07,-157.18 431.19,-148.01"/>
<polygon fill="midnightblue" stroke="midnightblue" points="167.01,-186.29 157.77,-191.47 168.22,-193.18 167.01,-186.29"/>
</g>
<!-- Node12&#45;&gt;Node3 -->
<g id="edge17" class="edge">
<title>Node12&#45;&gt;Node3</title>
<path fill="none" stroke="midnightblue" d="M303.98,-187.91C353.13,-175.18 418.98,-158.13 457.98,-148.03"/>
<polygon fill="midnightblue" stroke="midnightblue" points="302.87,-184.58 294.07,-190.48 304.63,-191.36 302.87,-184.58"/>
</g>
<!-- Node13&#45;&gt;Node3 -->
<g id="edge19" class="edge">
<title>Node13&#45;&gt;Node3</title>
<path fill="none" stroke="midnightblue" d="M256.21,-258.2C309.68,-231.16 429.75,-170.43 474.07,-148.02"/>
<polygon fill="midnightblue" stroke="midnightblue" points="254.38,-255.2 247.04,-262.84 257.54,-261.45 254.38,-255.2"/>
</g>
<!-- Node14&#45;&gt;Node3 -->
<g id="edge21" class="edge">
<title>Node14&#45;&gt;Node3</title>
<path fill="none" stroke="midnightblue" d="M370.91,-254.38C383.39,-237.18 403.99,-210.35 424.91,-190 441.77,-173.6 463.92,-157.61 477.79,-148.16"/>
<polygon fill="midnightblue" stroke="midnightblue" points="367.83,-252.68 364.87,-262.85 373.53,-256.75 367.83,-252.68"/>
</g>
<!-- Node15&#45;&gt;Node3 -->
<g id="edge23" class="edge">
<title>Node15&#45;&gt;Node3</title>
<path fill="none" stroke="midnightblue" d="M523.34,-187.4C514.79,-174.77 503.51,-158.1 496.75,-148.13"/>
<polygon fill="midnightblue" stroke="midnightblue" points="520.48,-189.41 528.98,-195.73 526.27,-185.49 520.48,-189.41"/>
</g>
<!-- Node16&#45;&gt;Node3 -->
<g id="edge25" class="edge">
<title>Node16&#45;&gt;Node3</title>
<path fill="none" stroke="midnightblue" d="M458.74,-251.41C448.51,-243.35 438.47,-233.08 432.91,-221 427.15,-208.48 427.21,-202.54 432.91,-190 441.49,-171.17 460.94,-156.63 474.96,-148.08"/>
<polygon fill="midnightblue" stroke="midnightblue" points="456.78,-254.3 466.91,-257.39 460.91,-248.66 456.78,-254.3"/>
</g>
<!-- Node17&#45;&gt;Node3 -->
<g id="edge27" class="edge">
<title>Node17&#45;&gt;Node3</title>
<path fill="none" stroke="midnightblue" d="M580.51,-260.43C536.19,-248.7 472.9,-230.57 465.91,-221 449.24,-198.17 471.36,-164.04 483.67,-148.18"/>
<polygon fill="midnightblue" stroke="midnightblue" points="579.65,-263.83 590.21,-262.98 581.42,-257.06 579.65,-263.83"/>
</g>
<!-- Node18&#45;&gt;Node3 -->
<g id="edge34" class="edge">
<title>Node18&#45;&gt;Node3</title>
<path fill="none" stroke="midnightblue" d="M724.89,-254.95C698.45,-246.63 667.8,-235.25 641.91,-221 622.52,-210.32 621.82,-201.53 602.91,-190 573.96,-172.34 537.77,-157.14 514.5,-148.15"/>
<polygon fill="midnightblue" stroke="midnightblue" points="724.21,-258.4 734.79,-257.99 726.26,-251.71 724.21,-258.4"/>
</g>
<!-- Node18&#45;&gt;Node15 -->
<g id="edge29" class="edge">
<title>Node18&#45;&gt;Node15</title>
<path fill="none" stroke="midnightblue" d="M724.74,-255.46C675.27,-242.7 607.95,-225.34 568.2,-215.09"/>
<polygon fill="midnightblue" stroke="midnightblue" points="724.14,-258.92 734.7,-258.03 725.89,-252.15 724.14,-258.92"/>
</g>
<!-- Node19 -->
<g id="node19" class="node">
<title>Node19</title>
<g id="a_node19"><a xlink:href="alias_8hpp_source.html" target="_top" xlink:title=" ">
<polygon fill="white" stroke="black" points="650.91,-196 650.91,-215 796.91,-215 796.91,-196 650.91,-196"/>
<text text-anchor="middle" x="723.91" y="-203" font-family="Helvetica,sans-Serif" font-size="10.00">arg_router/policy/alias.hpp</text>
</a>
</g>
</g>
<!-- Node18&#45;&gt;Node19 -->
<g id="edge30" class="edge">
<title>Node18&#45;&gt;Node19</title>
<path fill="none" stroke="midnightblue" d="M766.07,-250C754.57,-238.13 740.93,-224.05 732.34,-215.19"/>
<polygon fill="midnightblue" stroke="midnightblue" points="763.77,-252.65 773.24,-257.4 768.8,-247.78 763.77,-252.65"/>
</g>
<!-- Node20 -->
<g id="node20" class="node">
<title>Node20</title>
<g id="a_node20"><a xlink:href="dependent_8hpp_source.html" target="_top" xlink:title=" ">
<polygon fill="white" stroke="black" points="815.41,-196 815.41,-215 990.41,-215 990.41,-196 815.41,-196"/>
<text text-anchor="middle" x="902.91" y="-203" font-family="Helvetica,sans-Serif" font-size="10.00">arg_router/policy/dependent.hpp</text>
</a>
</g>
</g>
<!-- Node18&#45;&gt;Node20 -->
<g id="edge32" class="edge">
<title>Node18&#45;&gt;Node20</title>
<path fill="none" stroke="midnightblue" d="M820.87,-252.47C843.01,-240.06 870.84,-224.47 887.73,-215.01"/>
<polygon fill="midnightblue" stroke="midnightblue" points="819.1,-249.45 812.08,-257.4 822.52,-255.56 819.1,-249.45"/>
</g>
<!-- Node19&#45;&gt;Node3 -->
<g id="edge31" class="edge">
<title>Node19&#45;&gt;Node3</title>
<path fill="none" stroke="midnightblue" d="M683.31,-193.17C637.23,-180.32 563.12,-159.64 521.61,-148.06"/>
<polygon fill="midnightblue" stroke="midnightblue" points="682.4,-196.55 692.97,-195.87 684.28,-189.81 682.4,-196.55"/>
</g>
<!-- Node20&#45;&gt;Node3 -->
<g id="edge33" class="edge">
<title>Node20&#45;&gt;Node3</title>
<path fill="none" stroke="midnightblue" d="M838.58,-194.35C757.79,-181.6 620.63,-159.96 544.99,-148.03"/>
<polygon fill="midnightblue" stroke="midnightblue" points="838.21,-197.83 848.63,-195.94 839.3,-190.92 838.21,-197.83"/>
</g>
</g>
</svg>
