<?xml version="1.0" encoding="UTF-8" standalone="no"?>
<!DOCTYPE svg PUBLIC "-//W3C//DTD SVG 1.1//EN"
 "http://www.w3.org/Graphics/SVG/1.1/DTD/svg11.dtd">
<!-- Generated by graphviz version 2.43.0 (0)
 -->
<!-- Title: arg_router/utility/compile_time_string.hpp Pages: 1 -->
<svg width="1853pt" height="687pt"
 viewBox="0.00 0.00 1852.50 687.00" xmlns="http://www.w3.org/2000/svg" xmlns:xlink="http://www.w3.org/1999/xlink">
<g id="graph0" class="graph" transform="scale(1 1) rotate(0) translate(4 683)">
<title>arg_router/utility/compile_time_string.hpp</title>
<!-- Node1 -->
<g id="node1" class="node">
<title>Node1</title>
<g id="a_node1"><a xlink:title=" ">
<polygon fill="#bfbfbf" stroke="black" points="1319.5,-648.5 1319.5,-678.5 1459.5,-678.5 1459.5,-648.5 1319.5,-648.5"/>
<text text-anchor="start" x="1327.5" y="-666.5" font-family="Helvetica,sans-Serif" font-size="10.00">arg_router/utility</text>
<text text-anchor="middle" x="1389.5" y="-655.5" font-family="Helvetica,sans-Serif" font-size="10.00">/compile_time_string.hpp</text>
</a>
</g>
</g>
<!-- Node2 -->
<g id="node2" class="node">
<title>Node2</title>
<g id="a_node2"><a xlink:href="exception_8hpp_source.html" target="_top" xlink:title=" ">
<polygon fill="none" stroke="black" points="537,-592.5 537,-611.5 676,-611.5 676,-592.5 537,-592.5"/>
<text text-anchor="middle" x="606.5" y="-599.5" font-family="Helvetica,sans-Serif" font-size="10.00">arg_router/exception.hpp</text>
</a>
</g>
</g>
<!-- Node1&#45;&gt;Node2 -->
<g id="edge1" class="edge">
<title>Node1&#45;&gt;Node2</title>
<path fill="none" stroke="midnightblue" d="M1309,-656.38C1155.06,-644.68 821.35,-619.33 676.24,-608.3"/>
<polygon fill="midnightblue" stroke="midnightblue" points="1309.09,-659.9 1319.32,-657.17 1309.62,-652.92 1309.09,-659.9"/>
</g>
<!-- Node4 -->
<g id="node4" class="node">
<title>Node4</title>
<g id="a_node4"><a xlink:href="tree__node_8hpp_source.html" target="_top" xlink:title=" ">
<polygon fill="none" stroke="black" points="862.5,-330 862.5,-349 1002.5,-349 1002.5,-330 862.5,-330"/>
<text text-anchor="middle" x="932.5" y="-337" font-family="Helvetica,sans-Serif" font-size="10.00">arg_router/tree_node.hpp</text>
</a>
</g>
</g>
<!-- Node1&#45;&gt;Node4 -->
<g id="edge76" class="edge">
<title>Node1&#45;&gt;Node4</title>
<path fill="none" stroke="midnightblue" d="M1309.21,-656.35C1184.77,-644.58 959.5,-613.35 959.5,-541.5 959.5,-541.5 959.5,-541.5 959.5,-472.5 959.5,-425.02 942.52,-369.84 935.49,-349.02"/>
<polygon fill="midnightblue" stroke="midnightblue" points="1309.18,-659.86 1319.46,-657.3 1309.82,-652.89 1309.18,-659.86"/>
</g>
<!-- Node29 -->
<g id="node29" class="node">
<title>Node29</title>
<g id="a_node29"><a xlink:href="value__separator_8hpp_source.html" target="_top" xlink:title=" ">
<polygon fill="none" stroke="black" points="1437,-391.5 1437,-421.5 1566,-421.5 1566,-391.5 1437,-391.5"/>
<text text-anchor="start" x="1445" y="-409.5" font-family="Helvetica,sans-Serif" font-size="10.00">arg_router/policy/value</text>
<text text-anchor="middle" x="1501.5" y="-398.5" font-family="Helvetica,sans-Serif" font-size="10.00">_separator.hpp</text>
</a>
</g>
</g>
<!-- Node1&#45;&gt;Node29 -->
<g id="edge75" class="edge">
<title>Node1&#45;&gt;Node29</title>
<path fill="none" stroke="midnightblue" d="M1405.6,-640.09C1411.35,-631.54 1417.61,-621.55 1422.5,-612 1457.66,-543.42 1486.63,-455.38 1497.2,-421.57"/>
<polygon fill="midnightblue" stroke="midnightblue" points="1402.66,-638.18 1399.87,-648.4 1408.42,-642.15 1402.66,-638.18"/>
</g>
<!-- Node30 -->
<g id="node30" class="node">
<title>Node30</title>
<g id="a_node30"><a xlink:href="literals_8hpp_source.html" target="_top" xlink:title=" ">
<polygon fill="none" stroke="black" points="1580,-464 1580,-483 1705,-483 1705,-464 1580,-464"/>
<text text-anchor="middle" x="1642.5" y="-471" font-family="Helvetica,sans-Serif" font-size="10.00">arg_router/literals.hpp</text>
</a>
</g>
</g>
<!-- Node1&#45;&gt;Node30 -->
<g id="edge61" class="edge">
<title>Node1&#45;&gt;Node30</title>
<path fill="none" stroke="midnightblue" d="M1431.52,-644.02C1449.66,-635.31 1470.74,-624.16 1488.5,-612 1549.72,-570.09 1612.63,-506.06 1634.46,-483.08"/>
<polygon fill="midnightblue" stroke="midnightblue" points="1429.9,-640.92 1422.34,-648.35 1432.88,-647.25 1429.9,-640.92"/>
</g>
<!-- Node31 -->
<g id="node31" class="node">
<title>Node31</title>
<g id="a_node31"><a xlink:href="string__selector_8hpp.html" target="_top" xlink:title=" ">
<polygon fill="none" stroke="black" points="1722.5,-123.5 1722.5,-153.5 1844.5,-153.5 1844.5,-123.5 1722.5,-123.5"/>
<text text-anchor="start" x="1730.5" y="-141.5" font-family="Helvetica,sans-Serif" font-size="10.00">arg_router/multi_lang</text>
<text text-anchor="middle" x="1783.5" y="-130.5" font-family="Helvetica,sans-Serif" font-size="10.00">/string_selector.hpp</text>
</a>
</g>
</g>
<!-- Node1&#45;&gt;Node31 -->
<g id="edge63" class="edge">
<title>Node1&#45;&gt;Node31</title>
<path fill="none" stroke="midnightblue" d="M1469.51,-652.56C1577.75,-636.83 1757.5,-601.66 1757.5,-541.5 1757.5,-541.5 1757.5,-541.5 1757.5,-271.5 1757.5,-227.82 1771.37,-177.52 1778.85,-153.58"/>
<polygon fill="midnightblue" stroke="midnightblue" points="1468.99,-649.1 1459.58,-653.98 1469.98,-656.03 1468.99,-649.1"/>
</g>
<!-- Node32 -->
<g id="node32" class="node">
<title>Node32</title>
<g id="a_node32"><a xlink:href="default__help__formatter_8hpp_source.html" target="_top" xlink:title=" ">
<polygon fill="none" stroke="black" points="1491,-324.5 1491,-354.5 1628,-354.5 1628,-324.5 1491,-324.5"/>
<text text-anchor="start" x="1499" y="-342.5" font-family="Helvetica,sans-Serif" font-size="10.00">arg_router/policy/default</text>
<text text-anchor="middle" x="1559.5" y="-331.5" font-family="Helvetica,sans-Serif" font-size="10.00">_help_formatter.hpp</text>
</a>
</g>
</g>
<!-- Node1&#45;&gt;Node32 -->
<g id="edge65" class="edge">
<title>Node1&#45;&gt;Node32</title>
<path fill="none" stroke="midnightblue" d="M1395.48,-638.7C1401.05,-614.42 1408.5,-575.58 1408.5,-541.5 1408.5,-541.5 1408.5,-541.5 1408.5,-472.5 1408.5,-435.2 1403.86,-419 1428.5,-391 1444.6,-372.7 1468.12,-361 1490.79,-353.52"/>
<polygon fill="midnightblue" stroke="midnightblue" points="1392.07,-637.92 1393.16,-648.45 1398.88,-639.54 1392.07,-637.92"/>
</g>
<!-- Node34 -->
<g id="node34" class="node">
<title>Node34</title>
<g id="a_node34"><a xlink:href="short__name_8hpp_source.html" target="_top" xlink:title=" ">
<polygon fill="none" stroke="black" points="1307,-324.5 1307,-354.5 1434,-354.5 1434,-324.5 1307,-324.5"/>
<text text-anchor="start" x="1315" y="-342.5" font-family="Helvetica,sans-Serif" font-size="10.00">arg_router/policy/short</text>
<text text-anchor="middle" x="1370.5" y="-331.5" font-family="Helvetica,sans-Serif" font-size="10.00">_name.hpp</text>
</a>
</g>
</g>
<!-- Node1&#45;&gt;Node34 -->
<g id="edge69" class="edge">
<title>Node1&#45;&gt;Node34</title>
<path fill="none" stroke="midnightblue" d="M1383.52,-638.7C1377.95,-614.42 1370.5,-575.58 1370.5,-541.5 1370.5,-541.5 1370.5,-541.5 1370.5,-472.5 1370.5,-429.65 1370.5,-378.97 1370.5,-354.76"/>
<polygon fill="midnightblue" stroke="midnightblue" points="1380.12,-639.54 1385.84,-648.45 1386.93,-637.92 1380.12,-639.54"/>
</g>
<!-- Node35 -->
<g id="node35" class="node">
<title>Node35</title>
<g id="a_node35"><a xlink:href="string__to__policy_8hpp_source.html" target="_top" xlink:title=" ">
<polygon fill="none" stroke="black" points="1134.5,-324.5 1134.5,-354.5 1250.5,-354.5 1250.5,-324.5 1134.5,-324.5"/>
<text text-anchor="start" x="1142.5" y="-342.5" font-family="Helvetica,sans-Serif" font-size="10.00">arg_router/utility</text>
<text text-anchor="middle" x="1192.5" y="-331.5" font-family="Helvetica,sans-Serif" font-size="10.00">/string_to_policy.hpp</text>
</a>
</g>
</g>
<!-- Node1&#45;&gt;Node35 -->
<g id="edge77" class="edge">
<title>Node1&#45;&gt;Node35</title>
<path fill="none" stroke="midnightblue" d="M1347.34,-643.73C1310.38,-624.07 1262.5,-589.37 1262.5,-541.5 1262.5,-541.5 1262.5,-541.5 1262.5,-472.5 1262.5,-424.77 1226.34,-377.46 1206,-354.62"/>
<polygon fill="midnightblue" stroke="midnightblue" points="1345.97,-646.96 1356.46,-648.4 1349.16,-640.73 1345.97,-646.96"/>
</g>
<!-- Node3 -->
<g id="node3" class="node">
<title>Node3</title>
<g id="a_node3"><a xlink:href="global__parser_8hpp_source.html" target="_top" xlink:title=" ">
<polygon fill="none" stroke="black" points="777.5,-458.5 777.5,-488.5 883.5,-488.5 883.5,-458.5 777.5,-458.5"/>
<text text-anchor="start" x="785.5" y="-476.5" font-family="Helvetica,sans-Serif" font-size="10.00">arg_router/parsing</text>
<text text-anchor="middle" x="830.5" y="-465.5" font-family="Helvetica,sans-Serif" font-size="10.00">/global_parser.hpp</text>
</a>
</g>
</g>
<!-- Node2&#45;&gt;Node3 -->
<g id="edge2" class="edge">
<title>Node2&#45;&gt;Node3</title>
<path fill="none" stroke="midnightblue" d="M663.3,-590.08C690.98,-583.11 723.93,-572.25 750.5,-556 779.93,-538 806.31,-506.82 820.19,-488.69"/>
<polygon fill="midnightblue" stroke="midnightblue" points="662.27,-586.73 653.37,-592.48 663.91,-593.54 662.27,-586.73"/>
</g>
<!-- Node21 -->
<g id="node21" class="node">
<title>Node21</title>
<g id="a_node21"><a xlink:href="exception__translator_8hpp_source.html" target="_top" xlink:title=" ">
<polygon fill="none" stroke="black" points="460.5,-525.5 460.5,-555.5 610.5,-555.5 610.5,-525.5 460.5,-525.5"/>
<text text-anchor="start" x="468.5" y="-543.5" font-family="Helvetica,sans-Serif" font-size="10.00">arg_router/policy/exception</text>
<text text-anchor="middle" x="535.5" y="-532.5" font-family="Helvetica,sans-Serif" font-size="10.00">_translator.hpp</text>
</a>
</g>
</g>
<!-- Node2&#45;&gt;Node21 -->
<g id="edge33" class="edge">
<title>Node2&#45;&gt;Node21</title>
<path fill="none" stroke="midnightblue" d="M588.51,-585.92C577.36,-576.58 563.14,-564.66 552.23,-555.52"/>
<polygon fill="midnightblue" stroke="midnightblue" points="586.41,-588.73 596.33,-592.48 590.91,-583.37 586.41,-588.73"/>
</g>
<!-- Node22 -->
<g id="node22" class="node">
<title>Node22</title>
<g id="a_node22"><a xlink:href="min__max__count_8hpp_source.html" target="_top" xlink:title=" ">
<polygon fill="none" stroke="black" points="989,-391.5 989,-421.5 1110,-421.5 1110,-391.5 989,-391.5"/>
<text text-anchor="start" x="997" y="-409.5" font-family="Helvetica,sans-Serif" font-size="10.00">arg_router/policy/min</text>
<text text-anchor="middle" x="1049.5" y="-398.5" font-family="Helvetica,sans-Serif" font-size="10.00">_max_count.hpp</text>
</a>
</g>
</g>
<!-- Node2&#45;&gt;Node22 -->
<g id="edge35" class="edge">
<title>Node2&#45;&gt;Node22</title>
<path fill="none" stroke="midnightblue" d="M663.87,-590.37C699.11,-582.88 744.76,-571.43 783.5,-556 880.05,-517.54 985.1,-450.63 1028.72,-421.6"/>
<polygon fill="midnightblue" stroke="midnightblue" points="662.84,-587.01 653.76,-592.48 664.26,-593.87 662.84,-587.01"/>
</g>
<!-- Node23 -->
<g id="node23" class="node">
<title>Node23</title>
<g id="a_node23"><a xlink:href="min__max__value_8hpp_source.html" target="_top" xlink:title=" ">
<polygon fill="none" stroke="black" points="0,-391.5 0,-421.5 121,-421.5 121,-391.5 0,-391.5"/>
<text text-anchor="start" x="8" y="-409.5" font-family="Helvetica,sans-Serif" font-size="10.00">arg_router/policy/min</text>
<text text-anchor="middle" x="60.5" y="-398.5" font-family="Helvetica,sans-Serif" font-size="10.00">_max_value.hpp</text>
</a>
</g>
</g>
<!-- Node2&#45;&gt;Node23 -->
<g id="edge42" class="edge">
<title>Node2&#45;&gt;Node23</title>
<path fill="none" stroke="midnightblue" d="M526.82,-597.14C431.81,-591.58 279.32,-579.3 227.5,-556 157.08,-524.34 95.23,-452.17 71.18,-421.6"/>
<polygon fill="midnightblue" stroke="midnightblue" points="526.79,-600.65 536.97,-597.73 527.19,-593.66 526.79,-600.65"/>
</g>
<!-- Node24 -->
<g id="node24" class="node">
<title>Node24</title>
<g id="a_node24"><a xlink:href="required_8hpp_source.html" target="_top" xlink:title=" ">
<polygon fill="none" stroke="black" points="139.5,-397 139.5,-416 303.5,-416 303.5,-397 139.5,-397"/>
<text text-anchor="middle" x="221.5" y="-404" font-family="Helvetica,sans-Serif" font-size="10.00">arg_router/policy/required.hpp</text>
</a>
</g>
</g>
<!-- Node2&#45;&gt;Node24 -->
<g id="edge44" class="edge">
<title>Node2&#45;&gt;Node24</title>
<path fill="none" stroke="midnightblue" d="M526.52,-601.35C434.24,-600.01 290.21,-591.97 251.5,-556 210.85,-518.22 216.83,-441.84 220.19,-416.15"/>
<polygon fill="midnightblue" stroke="midnightblue" points="526.63,-604.85 536.68,-601.47 526.72,-597.85 526.63,-604.85"/>
</g>
<!-- Node25 -->
<g id="node25" class="node">
<title>Node25</title>
<g id="a_node25"><a xlink:href="router_8hpp_source.html" target="_top" xlink:title=" ">
<polygon fill="none" stroke="black" points="260.5,-531 260.5,-550 412.5,-550 412.5,-531 260.5,-531"/>
<text text-anchor="middle" x="336.5" y="-538" font-family="Helvetica,sans-Serif" font-size="10.00">arg_router/policy/router.hpp</text>
</a>
</g>
</g>
<!-- Node2&#45;&gt;Node25 -->
<g id="edge46" class="edge">
<title>Node2&#45;&gt;Node25</title>
<path fill="none" stroke="midnightblue" d="M557.76,-590.26C505.38,-578.72 423.2,-560.61 375.11,-550.01"/>
<polygon fill="midnightblue" stroke="midnightblue" points="557.3,-593.74 567.82,-592.48 558.8,-586.9 557.3,-593.74"/>
</g>
<!-- Node26 -->
<g id="node26" class="node">
<title>Node26</title>
<g id="a_node26"><a xlink:href="result_8hpp_source.html" target="_top" xlink:title=" ">
<polygon fill="none" stroke="black" points="643.5,-525.5 643.5,-555.5 741.5,-555.5 741.5,-525.5 643.5,-525.5"/>
<text text-anchor="start" x="651.5" y="-543.5" font-family="Helvetica,sans-Serif" font-size="10.00">arg_router/utility</text>
<text text-anchor="middle" x="692.5" y="-532.5" font-family="Helvetica,sans-Serif" font-size="10.00">/result.hpp</text>
</a>
</g>
</g>
<!-- Node2&#45;&gt;Node26 -->
<g id="edge48" class="edge">
<title>Node2&#45;&gt;Node26</title>
<path fill="none" stroke="midnightblue" d="M627.11,-586.74C640.78,-577.28 658.63,-564.93 672.23,-555.52"/>
<polygon fill="midnightblue" stroke="midnightblue" points="625.05,-583.91 618.82,-592.48 629.04,-589.66 625.05,-583.91"/>
</g>
<!-- Node3&#45;&gt;Node4 -->
<g id="edge3" class="edge">
<title>Node3&#45;&gt;Node4</title>
<path fill="none" stroke="midnightblue" d="M847.69,-450.26C870.64,-420.56 910.21,-369.35 925.86,-349.1"/>
<polygon fill="midnightblue" stroke="midnightblue" points="844.76,-448.32 841.42,-458.37 850.3,-452.6 844.76,-448.32"/>
</g>
<!-- Node5 -->
<g id="node5" class="node">
<title>Node5</title>
<g id="a_node5"><a xlink:href="arg_8hpp_source.html" target="_top" xlink:title=" ">
<polygon fill="none" stroke="black" points="1315,-263 1315,-282 1422,-282 1422,-263 1315,-263"/>
<text text-anchor="middle" x="1368.5" y="-270" font-family="Helvetica,sans-Serif" font-size="10.00">arg_router/arg.hpp</text>
</a>
</g>
</g>
<!-- Node4&#45;&gt;Node5 -->
<g id="edge4" class="edge">
<title>Node4&#45;&gt;Node5</title>
<path fill="none" stroke="midnightblue" d="M999.94,-328.45C1086.58,-315.53 1235.23,-293.37 1314.69,-281.52"/>
<polygon fill="midnightblue" stroke="midnightblue" points="999.32,-325 989.95,-329.94 1000.35,-331.92 999.32,-325"/>
</g>
<!-- Node9 -->
<g id="node9" class="node">
<title>Node9</title>
<g id="a_node9"><a xlink:href="counting__flag_8hpp_source.html" target="_top" xlink:title=" ">
<polygon fill="none" stroke="black" points="1018.5,-257.5 1018.5,-287.5 1130.5,-287.5 1130.5,-257.5 1018.5,-257.5"/>
<text text-anchor="start" x="1026.5" y="-275.5" font-family="Helvetica,sans-Serif" font-size="10.00">arg_router/counting</text>
<text text-anchor="middle" x="1074.5" y="-264.5" font-family="Helvetica,sans-Serif" font-size="10.00">_flag.hpp</text>
</a>
</g>
</g>
<!-- Node4&#45;&gt;Node9 -->
<g id="edge9" class="edge">
<title>Node4&#45;&gt;Node9</title>
<path fill="none" stroke="midnightblue" d="M960.64,-325.62C984.66,-314.63 1019.14,-298.84 1043.85,-287.53"/>
<polygon fill="midnightblue" stroke="midnightblue" points="958.99,-322.52 951.36,-329.87 961.91,-328.89 958.99,-322.52"/>
</g>
<!-- Node10 -->
<g id="node10" class="node">
<title>Node10</title>
<g id="a_node10"><a xlink:href="detail_8hpp_source.html" target="_top" xlink:title=" ">
<polygon fill="none" stroke="black" points="447,-257.5 447,-287.5 576,-287.5 576,-257.5 447,-257.5"/>
<text text-anchor="start" x="455" y="-275.5" font-family="Helvetica,sans-Serif" font-size="10.00">arg_router/dependency</text>
<text text-anchor="middle" x="511.5" y="-264.5" font-family="Helvetica,sans-Serif" font-size="10.00">/detail.hpp</text>
</a>
</g>
</g>
<!-- Node4&#45;&gt;Node10 -->
<g id="edge11" class="edge">
<title>Node4&#45;&gt;Node10</title>
<path fill="none" stroke="midnightblue" d="M861.52,-328.59C775.92,-316.56 637.09,-296.8 585.5,-288 582.4,-287.47 579.24,-286.91 576.04,-286.34"/>
<polygon fill="midnightblue" stroke="midnightblue" points="861.04,-332.06 871.43,-329.98 862.01,-325.12 861.04,-332.06"/>
</g>
<!-- Node13 -->
<g id="node13" class="node">
<title>Node13</title>
<g id="a_node13"><a xlink:href="flag_8hpp_source.html" target="_top" xlink:title=" ">
<polygon fill="none" stroke="black" points="1149,-263 1149,-282 1258,-282 1258,-263 1149,-263"/>
<text text-anchor="middle" x="1203.5" y="-270" font-family="Helvetica,sans-Serif" font-size="10.00">arg_router/flag.hpp</text>
</a>
</g>
</g>
<!-- Node4&#45;&gt;Node13 -->
<g id="edge16" class="edge">
<title>Node4&#45;&gt;Node13</title>
<path fill="none" stroke="midnightblue" d="M978.09,-327.56C1031.52,-314.75 1118.93,-293.78 1167.71,-282.08"/>
<polygon fill="midnightblue" stroke="midnightblue" points="977.12,-324.2 968.21,-329.94 978.75,-331.01 977.12,-324.2"/>
</g>
<!-- Node14 -->
<g id="node14" class="node">
<title>Node14</title>
<g id="a_node14"><a xlink:href="help_8hpp_source.html" target="_top" xlink:title=" ">
<polygon fill="none" stroke="black" points="1440.5,-263 1440.5,-282 1552.5,-282 1552.5,-263 1440.5,-263"/>
<text text-anchor="middle" x="1496.5" y="-270" font-family="Helvetica,sans-Serif" font-size="10.00">arg_router/help.hpp</text>
</a>
</g>
</g>
<!-- Node4&#45;&gt;Node14 -->
<g id="edge18" class="edge">
<title>Node4&#45;&gt;Node14</title>
<path fill="none" stroke="midnightblue" d="M1013.02,-331.52C1133.02,-320.93 1353.09,-300.67 1431.5,-288 1441.43,-286.4 1452.12,-284.21 1461.9,-282.02"/>
<polygon fill="midnightblue" stroke="midnightblue" points="1012.44,-328.06 1002.78,-332.43 1013.05,-335.03 1012.44,-328.06"/>
</g>
<!-- Node15 -->
<g id="node15" class="node">
<title>Node15</title>
<g id="a_node15"><a xlink:href="mode_8hpp_source.html" target="_top" xlink:title=" ">
<polygon fill="none" stroke="black" points="987,-196 987,-215 1106,-215 1106,-196 987,-196"/>
<text text-anchor="middle" x="1046.5" y="-203" font-family="Helvetica,sans-Serif" font-size="10.00">arg_router/mode.hpp</text>
</a>
</g>
</g>
<!-- Node4&#45;&gt;Node15 -->
<g id="edge20" class="edge">
<title>Node4&#45;&gt;Node15</title>
<path fill="none" stroke="midnightblue" d="M909.6,-324.17C886.33,-307.81 856.03,-280.3 873.5,-257 881.74,-246.02 959.98,-226.36 1008.38,-215.08"/>
<polygon fill="midnightblue" stroke="midnightblue" points="907.8,-327.19 918.05,-329.87 911.71,-321.38 907.8,-327.19"/>
</g>
<!-- Node16 -->
<g id="node16" class="node">
<title>Node16</title>
<g id="a_node16"><a xlink:href="positional__arg_8hpp_source.html" target="_top" xlink:title=" ">
<polygon fill="none" stroke="black" points="882.5,-257.5 882.5,-287.5 1000.5,-287.5 1000.5,-257.5 882.5,-257.5"/>
<text text-anchor="start" x="890.5" y="-275.5" font-family="Helvetica,sans-Serif" font-size="10.00">arg_router/positional</text>
<text text-anchor="middle" x="941.5" y="-264.5" font-family="Helvetica,sans-Serif" font-size="10.00">_arg.hpp</text>
</a>
</g>
</g>
<!-- Node4&#45;&gt;Node16 -->
<g id="edge22" class="edge">
<title>Node4&#45;&gt;Node16</title>
<path fill="none" stroke="midnightblue" d="M935.1,-319.74C936.52,-309.49 938.25,-297 939.55,-287.59"/>
<polygon fill="midnightblue" stroke="midnightblue" points="931.62,-319.35 933.71,-329.73 938.55,-320.31 931.62,-319.35"/>
</g>
<!-- Node17 -->
<g id="node17" class="node">
<title>Node17</title>
<g id="a_node17"><a xlink:href="root_8hpp_source.html" target="_top" xlink:title=" ">
<polygon fill="none" stroke="black" points="716.5,-263 716.5,-282 826.5,-282 826.5,-263 716.5,-263"/>
<text text-anchor="middle" x="771.5" y="-270" font-family="Helvetica,sans-Serif" font-size="10.00">arg_router/root.hpp</text>
</a>
</g>
</g>
<!-- Node4&#45;&gt;Node17 -->
<g id="edge24" class="edge">
<title>Node4&#45;&gt;Node17</title>
<path fill="none" stroke="midnightblue" d="M901.8,-326.1C869.83,-313.2 820.61,-293.33 792.71,-282.06"/>
<polygon fill="midnightblue" stroke="midnightblue" points="900.54,-329.37 911.12,-329.87 903.16,-322.88 900.54,-329.37"/>
</g>
<!-- Node18 -->
<g id="node18" class="node">
<title>Node18</title>
<g id="a_node18"><a xlink:href="tree__recursor_8hpp_source.html" target="_top" xlink:title=" ">
<polygon fill="none" stroke="black" points="594.5,-257.5 594.5,-287.5 698.5,-287.5 698.5,-257.5 594.5,-257.5"/>
<text text-anchor="start" x="602.5" y="-275.5" font-family="Helvetica,sans-Serif" font-size="10.00">arg_router/utility</text>
<text text-anchor="middle" x="646.5" y="-264.5" font-family="Helvetica,sans-Serif" font-size="10.00">/tree_recursor.hpp</text>
</a>
</g>
</g>
<!-- Node4&#45;&gt;Node18 -->
<g id="edge26" class="edge">
<title>Node4&#45;&gt;Node18</title>
<path fill="none" stroke="midnightblue" d="M883.94,-327.79C838.34,-317.68 768.24,-302.04 707.5,-288 704.64,-287.34 701.7,-286.65 698.73,-285.96"/>
<polygon fill="midnightblue" stroke="midnightblue" points="883.33,-331.24 893.85,-329.98 884.84,-324.4 883.33,-331.24"/>
</g>
<!-- Node6 -->
<g id="node6" class="node">
<title>Node6</title>
<g id="a_node6"><a xlink:href="validator_8hpp_source.html" target="_top" xlink:title=" ">
<polygon fill="none" stroke="black" points="963.5,-129 963.5,-148 1129.5,-148 1129.5,-129 963.5,-129"/>
<text text-anchor="middle" x="1046.5" y="-136" font-family="Helvetica,sans-Serif" font-size="10.00">arg_router/policy/validator.hpp</text>
</a>
</g>
</g>
<!-- Node5&#45;&gt;Node6 -->
<g id="edge5" class="edge">
<title>Node5&#45;&gt;Node6</title>
<path fill="none" stroke="midnightblue" d="M1341.65,-258.27C1307.1,-241.46 1245.01,-211.98 1190.5,-190 1150.21,-173.75 1102.44,-157.59 1073.31,-148.08"/>
<polygon fill="midnightblue" stroke="midnightblue" points="1340.53,-261.61 1351.05,-262.86 1343.6,-255.32 1340.53,-261.61"/>
</g>
<!-- Node7 -->
<g id="node7" class="node">
<title>Node7</title>
<g id="a_node7"><a xlink:href="arg__router_8hpp_source.html" target="_top" xlink:title=" ">
<polygon fill="none" stroke="black" points="1385.5,-0.5 1385.5,-19.5 1525.5,-19.5 1525.5,-0.5 1385.5,-0.5"/>
<text text-anchor="middle" x="1455.5" y="-7.5" font-family="Helvetica,sans-Serif" font-size="10.00">arg_router/arg_router.hpp</text>
</a>
</g>
</g>
<!-- Node6&#45;&gt;Node7 -->
<g id="edge6" class="edge">
<title>Node6&#45;&gt;Node7</title>
<path fill="none" stroke="midnightblue" d="M1065.87,-123.02C1091.73,-104.43 1139.62,-72.63 1185.5,-56 1250.95,-32.28 1329.91,-20.97 1385.49,-15.63"/>
<polygon fill="midnightblue" stroke="midnightblue" points="1063.7,-120.27 1057.68,-128.99 1067.82,-125.92 1063.7,-120.27"/>
</g>
<!-- Node8 -->
<g id="node8" class="node">
<title>Node8</title>
<g id="a_node8"><a xlink:href="validator__rule__utilities_8hpp_source.html" target="_top" xlink:title=" ">
<polygon fill="none" stroke="black" points="1194.5,-56.5 1194.5,-86.5 1340.5,-86.5 1340.5,-56.5 1194.5,-56.5"/>
<text text-anchor="start" x="1202.5" y="-74.5" font-family="Helvetica,sans-Serif" font-size="10.00">arg_router/policy/validator</text>
<text text-anchor="middle" x="1267.5" y="-63.5" font-family="Helvetica,sans-Serif" font-size="10.00">_rule_utilities.hpp</text>
</a>
</g>
</g>
<!-- Node6&#45;&gt;Node8 -->
<g id="edge7" class="edge">
<title>Node6&#45;&gt;Node8</title>
<path fill="none" stroke="midnightblue" d="M1085.88,-125.92C1123.36,-114.9 1179.8,-98.29 1219.8,-86.53"/>
<polygon fill="midnightblue" stroke="midnightblue" points="1084.45,-122.69 1075.85,-128.87 1086.43,-129.4 1084.45,-122.69"/>
</g>
<!-- Node8&#45;&gt;Node7 -->
<g id="edge8" class="edge">
<title>Node8&#45;&gt;Node7</title>
<path fill="none" stroke="midnightblue" d="M1321.66,-53.36C1356.63,-42.29 1400.63,-28.37 1428.42,-19.57"/>
<polygon fill="midnightblue" stroke="midnightblue" points="1320.53,-50.05 1312.05,-56.4 1322.64,-56.72 1320.53,-50.05"/>
</g>
<!-- Node9&#45;&gt;Node6 -->
<g id="edge10" class="edge">
<title>Node9&#45;&gt;Node6</title>
<path fill="none" stroke="midnightblue" d="M1117.32,-252.19C1129.64,-244.38 1141.6,-234.06 1148.5,-221 1154.94,-208.82 1155.77,-201.71 1148.5,-190 1134.8,-167.92 1108.26,-155.2 1085.69,-148.05"/>
<polygon fill="midnightblue" stroke="midnightblue" points="1115.21,-249.37 1108.35,-257.44 1118.75,-255.41 1115.21,-249.37"/>
</g>
<!-- Node11 -->
<g id="node11" class="node">
<title>Node11</title>
<g id="a_node11"><a xlink:href="alias__group_8hpp_source.html" target="_top" xlink:title=" ">
<polygon fill="none" stroke="black" points="599,-190.5 599,-220.5 728,-220.5 728,-190.5 599,-190.5"/>
<text text-anchor="start" x="607" y="-208.5" font-family="Helvetica,sans-Serif" font-size="10.00">arg_router/dependency</text>
<text text-anchor="middle" x="663.5" y="-197.5" font-family="Helvetica,sans-Serif" font-size="10.00">/alias_group.hpp</text>
</a>
</g>
</g>
<!-- Node10&#45;&gt;Node11 -->
<g id="edge12" class="edge">
<title>Node10&#45;&gt;Node11</title>
<path fill="none" stroke="midnightblue" d="M553.81,-253.41C578.08,-243.03 608.09,-230.2 630.58,-220.58"/>
<polygon fill="midnightblue" stroke="midnightblue" points="552.3,-250.25 544.48,-257.4 555.05,-256.68 552.3,-250.25"/>
</g>
<!-- Node12 -->
<g id="node12" class="node">
<title>Node12</title>
<g id="a_node12"><a xlink:href="one__of_8hpp_source.html" target="_top" xlink:title=" ">
<polygon fill="none" stroke="black" points="452,-190.5 452,-220.5 581,-220.5 581,-190.5 452,-190.5"/>
<text text-anchor="start" x="460" y="-208.5" font-family="Helvetica,sans-Serif" font-size="10.00">arg_router/dependency</text>
<text text-anchor="middle" x="516.5" y="-197.5" font-family="Helvetica,sans-Serif" font-size="10.00">/one_of.hpp</text>
</a>
</g>
</g>
<!-- Node10&#45;&gt;Node12 -->
<g id="edge14" class="edge">
<title>Node10&#45;&gt;Node12</title>
<path fill="none" stroke="midnightblue" d="M513.35,-247.4C514.05,-238.37 514.81,-228.41 515.42,-220.58"/>
<polygon fill="midnightblue" stroke="midnightblue" points="509.86,-247.16 512.58,-257.4 516.84,-247.69 509.86,-247.16"/>
</g>
<!-- Node11&#45;&gt;Node6 -->
<g id="edge13" class="edge">
<title>Node11&#45;&gt;Node6</title>
<path fill="none" stroke="midnightblue" d="M738.08,-190.78C739.57,-190.51 741.04,-190.26 742.5,-190 830.38,-174.64 932.76,-157.86 993.46,-148.03"/>
<polygon fill="midnightblue" stroke="midnightblue" points="737.39,-187.34 728.15,-192.54 738.61,-194.24 737.39,-187.34"/>
</g>
<!-- Node12&#45;&gt;Node6 -->
<g id="edge15" class="edge">
<title>Node12&#45;&gt;Node6</title>
<path fill="none" stroke="midnightblue" d="M591.47,-189.77C726.86,-169.21 873.67,-154.59 963.24,-146.53"/>
<polygon fill="midnightblue" stroke="midnightblue" points="590.68,-186.35 581.33,-191.32 591.74,-193.27 590.68,-186.35"/>
</g>
<!-- Node13&#45;&gt;Node6 -->
<g id="edge17" class="edge">
<title>Node13&#45;&gt;Node6</title>
<path fill="none" stroke="midnightblue" d="M1199.03,-252.95C1193.79,-234.76 1183.44,-207.32 1165.5,-190 1143.14,-168.41 1110.14,-155.4 1084.56,-148"/>
<polygon fill="midnightblue" stroke="midnightblue" points="1195.66,-253.9 1201.61,-262.67 1202.43,-252.11 1195.66,-253.9"/>
</g>
<!-- Node14&#45;&gt;Node6 -->
<g id="edge19" class="edge">
<title>Node14&#45;&gt;Node6</title>
<path fill="none" stroke="midnightblue" d="M1461.55,-259.79C1412.27,-243.42 1319.43,-213.11 1239.5,-190 1184.44,-174.08 1119.9,-157.64 1081.16,-148"/>
<polygon fill="midnightblue" stroke="midnightblue" points="1460.5,-263.13 1471.1,-262.97 1462.71,-256.49 1460.5,-263.13"/>
</g>
<!-- Node15&#45;&gt;Node6 -->
<g id="edge21" class="edge">
<title>Node15&#45;&gt;Node6</title>
<path fill="none" stroke="midnightblue" d="M1046.5,-185.54C1046.5,-173.17 1046.5,-157.62 1046.5,-148.13"/>
<polygon fill="midnightblue" stroke="midnightblue" points="1043,-185.73 1046.5,-195.73 1050,-185.73 1043,-185.73"/>
</g>
<!-- Node16&#45;&gt;Node6 -->
<g id="edge23" class="edge">
<title>Node16&#45;&gt;Node6</title>
<path fill="none" stroke="midnightblue" d="M1010.72,-255.46C1055.97,-244.28 1107.88,-229.83 1114.5,-221 1122.77,-209.98 1120.69,-202.31 1114.5,-190 1104.52,-170.16 1082.66,-156.16 1066.4,-148.01"/>
<polygon fill="midnightblue" stroke="midnightblue" points="1009.77,-252.09 1000.89,-257.86 1011.44,-258.89 1009.77,-252.09"/>
</g>
<!-- Node17&#45;&gt;Node6 -->
<g id="edge25" class="edge">
<title>Node17&#45;&gt;Node6</title>
<path fill="none" stroke="midnightblue" d="M827.03,-260.6C860.83,-252.58 904.15,-239.77 939.5,-221 958.75,-210.78 960.26,-203.33 977.5,-190 997.11,-174.84 1020.5,-157.97 1034.39,-148.07"/>
<polygon fill="midnightblue" stroke="midnightblue" points="825.83,-257.28 816.87,-262.93 827.4,-264.1 825.83,-257.28"/>
</g>
<!-- Node18&#45;&gt;Node6 -->
<g id="edge32" class="edge">
<title>Node18&#45;&gt;Node6</title>
<path fill="none" stroke="midnightblue" d="M683.24,-252.61C699.88,-243.63 719.56,-232.38 736.5,-221 754.88,-208.65 755.35,-199.19 775.5,-190 834.94,-162.89 908.04,-150.33 963.33,-144.52"/>
<polygon fill="midnightblue" stroke="midnightblue" points="681.53,-249.56 674.36,-257.36 684.83,-255.74 681.53,-249.56"/>
</g>
<!-- Node18&#45;&gt;Node15 -->
<g id="edge27" class="edge">
<title>Node18&#45;&gt;Node15</title>
<path fill="none" stroke="midnightblue" d="M708.61,-256.91C774.24,-244.85 908.48,-225.71 986.79,-214.77"/>
<polygon fill="midnightblue" stroke="midnightblue" points="707.86,-253.49 698.68,-258.79 709.16,-260.37 707.86,-253.49"/>
</g>
<!-- Node19 -->
<g id="node19" class="node">
<title>Node19</title>
<g id="a_node19"><a xlink:href="alias_8hpp_source.html" target="_top" xlink:title=" ">
<polygon fill="none" stroke="black" points="784.5,-196 784.5,-215 930.5,-215 930.5,-196 784.5,-196"/>
<text text-anchor="middle" x="857.5" y="-203" font-family="Helvetica,sans-Serif" font-size="10.00">arg_router/policy/alias.hpp</text>
</a>
</g>
</g>
<!-- Node18&#45;&gt;Node19 -->
<g id="edge28" class="edge">
<title>Node18&#45;&gt;Node19</title>
<path fill="none" stroke="midnightblue" d="M701.65,-254.51C742.83,-241.83 797.38,-225.02 829.81,-215.03"/>
<polygon fill="midnightblue" stroke="midnightblue" points="700.55,-251.19 692.02,-257.48 702.61,-257.88 700.55,-251.19"/>
</g>
<!-- Node20 -->
<g id="node20" class="node">
<title>Node20</title>
<g id="a_node20"><a xlink:href="dependent_8hpp_source.html" target="_top" xlink:title=" ">
<polygon fill="none" stroke="black" points="220,-196 220,-215 395,-215 395,-196 220,-196"/>
<text text-anchor="middle" x="307.5" y="-203" font-family="Helvetica,sans-Serif" font-size="10.00">arg_router/policy/dependent.hpp</text>
</a>
</g>
</g>
<!-- Node18&#45;&gt;Node20 -->
<g id="edge30" class="edge">
<title>Node18&#45;&gt;Node20</title>
<path fill="none" stroke="midnightblue" d="M584.8,-257.06C584.7,-257.04 584.6,-257.02 584.5,-257 505.89,-240.65 414.13,-224.49 358.45,-215.01"/>
<polygon fill="midnightblue" stroke="midnightblue" points="583.93,-260.46 594.45,-259.13 585.4,-253.61 583.93,-260.46"/>
</g>
<!-- Node19&#45;&gt;Node6 -->
<g id="edge29" class="edge">
<title>Node19&#45;&gt;Node6</title>
<path fill="none" stroke="midnightblue" d="M892.1,-192.6C929.57,-179.71 988.43,-159.47 1021.6,-148.06"/>
<polygon fill="midnightblue" stroke="midnightblue" points="890.92,-189.31 882.6,-195.87 893.19,-195.93 890.92,-189.31"/>
</g>
<!-- Node20&#45;&gt;Node7 -->
<g id="edge31" class="edge">
<title>Node20&#45;&gt;Node7</title>
<path fill="none" stroke="midnightblue" d="M360.02,-193.97C488.88,-168.34 831.15,-101.47 1118.5,-56 1210.47,-41.45 1317.06,-27.74 1385.33,-19.37"/>
<polygon fill="midnightblue" stroke="midnightblue" points="359.15,-190.58 350.02,-195.96 360.51,-197.44 359.15,-190.58"/>
</g>
<!-- Node21&#45;&gt;Node17 -->
<g id="edge34" class="edge">
<title>Node21&#45;&gt;Node17</title>
<path fill="none" stroke="midnightblue" d="M546.18,-516.19C566.68,-473.53 615.18,-381.96 678.5,-324 699.37,-304.9 728.79,-290.5 748.91,-282.06"/>
<polygon fill="midnightblue" stroke="midnightblue" points="542.91,-514.93 541.8,-525.47 549.24,-517.92 542.91,-514.93"/>
</g>
<!-- Node22&#45;&gt;Node4 -->
<g id="edge41" class="edge">
<title>Node22&#45;&gt;Node4</title>
<path fill="none" stroke="midnightblue" d="M1015.25,-386.47C992.92,-374.06 964.85,-358.47 947.81,-349.01"/>
<polygon fill="midnightblue" stroke="midnightblue" points="1013.67,-389.6 1024.11,-391.4 1017.07,-383.48 1013.67,-389.6"/>
</g>
<!-- Node22&#45;&gt;Node5 -->
<g id="edge36" class="edge">
<title>Node22&#45;&gt;Node5</title>
<path fill="none" stroke="midnightblue" d="M1120.23,-396.59C1162.29,-389.35 1215.8,-376.66 1259.5,-355 1279.03,-345.32 1280.17,-337.21 1297.5,-324 1317.59,-308.69 1341.68,-291.86 1356.01,-282.01"/>
<polygon fill="midnightblue" stroke="midnightblue" points="1119.64,-393.14 1110.34,-398.22 1120.78,-400.04 1119.64,-393.14"/>
</g>
<!-- Node22&#45;&gt;Node9 -->
<g id="edge37" class="edge">
<title>Node22&#45;&gt;Node9</title>
<path fill="none" stroke="midnightblue" d="M1054.07,-381.39C1059.27,-353.9 1067.61,-309.89 1071.84,-287.52"/>
<polygon fill="midnightblue" stroke="midnightblue" points="1050.6,-380.9 1052.18,-391.37 1057.48,-382.2 1050.6,-380.9"/>
</g>
<!-- Node22&#45;&gt;Node13 -->
<g id="edge38" class="edge">
<title>Node22&#45;&gt;Node13</title>
<path fill="none" stroke="midnightblue" d="M1067.52,-383.37C1082.15,-366.13 1103.84,-342.15 1125.5,-324 1145.53,-307.22 1171.45,-291.45 1187.78,-282.14"/>
<polygon fill="midnightblue" stroke="midnightblue" points="1064.67,-381.32 1060.93,-391.24 1070.03,-385.82 1064.67,-381.32"/>
</g>
<!-- Node22&#45;&gt;Node14 -->
<g id="edge39" class="edge">
<title>Node22&#45;&gt;Node14</title>
<path fill="none" stroke="midnightblue" d="M1120.54,-403.46C1219.12,-399.46 1391.19,-387.86 1443.5,-355 1471.37,-337.49 1487.53,-299.37 1493.65,-282.2"/>
<polygon fill="midnightblue" stroke="midnightblue" points="1120.22,-399.97 1110.36,-403.86 1120.49,-406.97 1120.22,-399.97"/>
</g>
<!-- Node22&#45;&gt;Node16 -->
<g id="edge40" class="edge">
<title>Node22&#45;&gt;Node16</title>
<path fill="none" stroke="midnightblue" d="M1041.96,-381.43C1035.72,-364.16 1025.59,-341.04 1011.5,-324 999.27,-309.22 981.77,-296.59 967.33,-287.66"/>
<polygon fill="midnightblue" stroke="midnightblue" points="1038.79,-382.99 1045.34,-391.32 1045.42,-380.72 1038.79,-382.99"/>
</g>
<!-- Node23&#45;&gt;Node7 -->
<g id="edge43" class="edge">
<title>Node23&#45;&gt;Node7</title>
<path fill="none" stroke="midnightblue" d="M65.48,-381.46C70.49,-355.1 77.5,-311.48 77.5,-273.5 77.5,-273.5 77.5,-273.5 77.5,-137.5 77.5,-71.13 1104.46,-25.08 1385.27,-13.73"/>
<polygon fill="midnightblue" stroke="midnightblue" points="62.03,-380.83 63.54,-391.32 68.9,-382.18 62.03,-380.83"/>
</g>
<!-- Node24&#45;&gt;Node6 -->
<g id="edge45" class="edge">
<title>Node24&#45;&gt;Node6</title>
<path fill="none" stroke="midnightblue" d="M209.31,-388.16C182.46,-347.66 124.61,-246.05 177.5,-190 204.22,-161.68 751.29,-146.23 963.44,-141.28"/>
<polygon fill="midnightblue" stroke="midnightblue" points="206.58,-390.37 215.1,-396.67 212.37,-386.43 206.58,-390.37"/>
</g>
<!-- Node25&#45;&gt;Node6 -->
<g id="edge47" class="edge">
<title>Node25&#45;&gt;Node6</title>
<path fill="none" stroke="midnightblue" d="M335.73,-520.61C334.06,-491.83 328.81,-435.63 312.5,-391 278.12,-296.91 141.83,-262.94 210.5,-190 236.04,-162.87 756.76,-146.81 963.22,-141.48"/>
<polygon fill="midnightblue" stroke="midnightblue" points="332.25,-521.03 336.24,-530.84 339.24,-520.68 332.25,-521.03"/>
</g>
<!-- Node27 -->
<g id="node27" class="node">
<title>Node27</title>
<g id="a_node27"><a xlink:href="parsing_8hpp_source.html" target="_top" xlink:title=" ">
<polygon fill="none" stroke="black" points="649.5,-458.5 649.5,-488.5 755.5,-488.5 755.5,-458.5 649.5,-458.5"/>
<text text-anchor="start" x="657.5" y="-476.5" font-family="Helvetica,sans-Serif" font-size="10.00">arg_router/parsing</text>
<text text-anchor="middle" x="702.5" y="-465.5" font-family="Helvetica,sans-Serif" font-size="10.00">/parsing.hpp</text>
</a>
</g>
</g>
<!-- Node26&#45;&gt;Node27 -->
<g id="edge49" class="edge">
<title>Node26&#45;&gt;Node27</title>
<path fill="none" stroke="midnightblue" d="M696.21,-515.4C697.6,-506.37 699.13,-496.41 700.33,-488.58"/>
<polygon fill="midnightblue" stroke="midnightblue" points="692.73,-514.98 694.67,-525.4 699.65,-516.04 692.73,-514.98"/>
</g>
<!-- Node27&#45;&gt;Node4 -->
<g id="edge60" class="edge">
<title>Node27&#45;&gt;Node4</title>
<path fill="none" stroke="midnightblue" d="M736.06,-453.24C786.81,-424.11 881.03,-370.04 917.52,-349.1"/>
<polygon fill="midnightblue" stroke="midnightblue" points="734.04,-450.36 727.11,-458.37 737.53,-456.43 734.04,-450.36"/>
</g>
<!-- Node27&#45;&gt;Node20 -->
<g id="edge50" class="edge">
<title>Node27&#45;&gt;Node20</title>
<path fill="none" stroke="midnightblue" d="M672.29,-452.62C621.26,-418.98 514.82,-348.58 425.5,-288 386.76,-261.72 341.28,-230.09 319.85,-215.13"/>
<polygon fill="midnightblue" stroke="midnightblue" points="670.59,-455.69 680.87,-458.27 674.44,-449.84 670.59,-455.69"/>
</g>
<!-- Node27&#45;&gt;Node22 -->
<g id="edge51" class="edge">
<title>Node27&#45;&gt;Node22</title>
<path fill="none" stroke="midnightblue" d="M765.76,-458.55C766.68,-458.36 767.59,-458.18 768.5,-458 844.21,-442.89 931.8,-427.47 988.8,-417.71"/>
<polygon fill="midnightblue" stroke="midnightblue" points="764.86,-455.16 755.78,-460.61 766.28,-462.02 764.86,-455.16"/>
</g>
<!-- Node27&#45;&gt;Node23 -->
<g id="edge52" class="edge">
<title>Node27&#45;&gt;Node23</title>
<path fill="none" stroke="midnightblue" d="M639.24,-469.32C533.48,-463.47 314.24,-449.05 130.5,-422 127.43,-421.55 124.29,-421.05 121.13,-420.51"/>
<polygon fill="midnightblue" stroke="midnightblue" points="639.25,-472.83 649.42,-469.88 639.63,-465.84 639.25,-472.83"/>
</g>
<!-- Node27&#45;&gt;Node24 -->
<g id="edge53" class="edge">
<title>Node27&#45;&gt;Node24</title>
<path fill="none" stroke="midnightblue" d="M639.15,-463.94C546.91,-451.47 376.62,-428.46 284.55,-416.02"/>
<polygon fill="midnightblue" stroke="midnightblue" points="638.81,-467.42 649.19,-465.3 639.75,-460.49 638.81,-467.42"/>
</g>
<!-- Node28 -->
<g id="node28" class="node">
<title>Node28</title>
<g id="a_node28"><a xlink:href="short__form__expander_8hpp_source.html" target="_top" xlink:title=" ">
<polygon fill="none" stroke="black" points="688,-324.5 688,-354.5 815,-354.5 815,-324.5 688,-324.5"/>
<text text-anchor="start" x="696" y="-342.5" font-family="Helvetica,sans-Serif" font-size="10.00">arg_router/policy/short</text>
<text text-anchor="middle" x="751.5" y="-331.5" font-family="Helvetica,sans-Serif" font-size="10.00">_form_expander.hpp</text>
</a>
</g>
</g>
<!-- Node27&#45;&gt;Node28 -->
<g id="edge54" class="edge">
<title>Node27&#45;&gt;Node28</title>
<path fill="none" stroke="midnightblue" d="M711.31,-448.75C721.51,-421.29 737.96,-376.99 746.29,-354.52"/>
<polygon fill="midnightblue" stroke="midnightblue" points="707.94,-447.78 707.74,-458.37 714.51,-450.22 707.94,-447.78"/>
</g>
<!-- Node27&#45;&gt;Node29 -->
<g id="edge58" class="edge">
<title>Node27&#45;&gt;Node29</title>
<path fill="none" stroke="midnightblue" d="M765.74,-458.41C766.66,-458.27 767.59,-458.13 768.5,-458 1013.77,-422.8 1308.86,-411.95 1436.94,-408.75"/>
<polygon fill="midnightblue" stroke="midnightblue" points="764.97,-454.99 755.69,-460.11 766.13,-461.89 764.97,-454.99"/>
</g>
<!-- Node28&#45;&gt;Node6 -->
<g id="edge57" class="edge">
<title>Node28&#45;&gt;Node6</title>
<path fill="none" stroke="midnightblue" d="M677.77,-337.27C594.84,-334.14 467.75,-323.5 437.5,-288 425.03,-273.36 423.17,-209.51 442.5,-190 478.4,-153.78 806.34,-143.45 963.4,-140.58"/>
<polygon fill="midnightblue" stroke="midnightblue" points="677.79,-340.77 687.9,-337.62 678.03,-333.78 677.79,-340.77"/>
</g>
<!-- Node28&#45;&gt;Node9 -->
<g id="edge55" class="edge">
<title>Node28&#45;&gt;Node9</title>
<path fill="none" stroke="midnightblue" d="M825.28,-324.59C876.93,-314.72 947.52,-300.98 1009.5,-288 1012.33,-287.41 1015.23,-286.79 1018.15,-286.17"/>
<polygon fill="midnightblue" stroke="midnightblue" points="824.38,-321.2 815.21,-326.51 825.69,-328.08 824.38,-321.2"/>
</g>
<!-- Node28&#45;&gt;Node13 -->
<g id="edge56" class="edge">
<title>Node28&#45;&gt;Node13</title>
<path fill="none" stroke="midnightblue" d="M825.05,-327.9C834.62,-326.56 844.29,-325.23 853.5,-324 980.48,-306.98 1013.32,-310.18 1139.5,-288 1149.04,-286.32 1159.3,-284.16 1168.75,-282.02"/>
<polygon fill="midnightblue" stroke="midnightblue" points="824.55,-324.44 815.14,-329.29 825.53,-331.37 824.55,-324.44"/>
</g>
<!-- Node29&#45;&gt;Node7 -->
<g id="edge59" class="edge">
<title>Node29&#45;&gt;Node7</title>
<path fill="none" stroke="midnightblue" d="M1575.87,-392.2C1598.49,-384.74 1621.55,-373.11 1637.5,-355 1662.08,-327.09 1656.5,-310.69 1656.5,-273.5 1656.5,-273.5 1656.5,-273.5 1656.5,-137.5 1656.5,-65.76 1563.64,-33.1 1504.16,-19.54"/>
<polygon fill="midnightblue" stroke="midnightblue" points="1574.77,-388.87 1566.23,-395.15 1576.82,-395.57 1574.77,-388.87"/>
</g>
<!-- Node30&#45;&gt;Node7 -->
<g id="edge62" class="edge">
<title>Node30&#45;&gt;Node7</title>
<path fill="none" stroke="midnightblue" d="M1653.96,-455.55C1669.27,-431.21 1694.5,-384.42 1694.5,-340.5 1694.5,-340.5 1694.5,-340.5 1694.5,-137.5 1694.5,-60.39 1596.12,-30.15 1525.59,-18.39"/>
<polygon fill="midnightblue" stroke="midnightblue" points="1650.98,-453.71 1648.47,-464 1656.85,-457.52 1650.98,-453.71"/>
</g>
<!-- Node31&#45;&gt;Node7 -->
<g id="edge64" class="edge">
<title>Node31&#45;&gt;Node7</title>
<path fill="none" stroke="midnightblue" d="M1769.1,-115.01C1755.75,-96.13 1734.12,-70.04 1708.5,-56 1651.97,-25.01 1578.65,-14.67 1525.5,-11.54"/>
<polygon fill="midnightblue" stroke="midnightblue" points="1766.27,-117.08 1774.8,-123.36 1772.05,-113.13 1766.27,-117.08"/>
</g>
<!-- Node32&#45;&gt;Node14 -->
<g id="edge66" class="edge">
<title>Node32&#45;&gt;Node14</title>
<path fill="none" stroke="midnightblue" d="M1538.66,-317C1527.16,-305.13 1513.51,-291.05 1504.93,-282.19"/>
<polygon fill="midnightblue" stroke="midnightblue" points="1536.36,-319.65 1545.83,-324.4 1541.38,-314.78 1536.36,-319.65"/>
</g>
<!-- Node33 -->
<g id="node33" class="node">
<title>Node33</title>
<g id="a_node33"><a xlink:href="colour__help__formatter_8hpp_source.html" target="_top" xlink:title=" ">
<polygon fill="none" stroke="black" points="1448.5,-56.5 1448.5,-86.5 1580.5,-86.5 1580.5,-56.5 1448.5,-56.5"/>
<text text-anchor="start" x="1456.5" y="-74.5" font-family="Helvetica,sans-Serif" font-size="10.00">arg_router/policy/colour</text>
<text text-anchor="middle" x="1514.5" y="-63.5" font-family="Helvetica,sans-Serif" font-size="10.00">_help_formatter.hpp</text>
</a>
</g>
</g>
<!-- Node32&#45;&gt;Node33 -->
<g id="edge67" class="edge">
<title>Node32&#45;&gt;Node33</title>
<path fill="none" stroke="midnightblue" d="M1570.39,-314.88C1573.68,-306.57 1576.86,-297.04 1578.5,-288 1580.97,-274.44 1580.79,-270.59 1578.5,-257 1567.4,-191.14 1535.48,-117.39 1521.36,-86.89"/>
<polygon fill="midnightblue" stroke="midnightblue" points="1567.08,-313.74 1566.41,-324.31 1573.53,-316.46 1567.08,-313.74"/>
</g>
<!-- Node33&#45;&gt;Node7 -->
<g id="edge68" class="edge">
<title>Node33&#45;&gt;Node7</title>
<path fill="none" stroke="midnightblue" d="M1493.18,-49C1483.13,-38.86 1471.69,-27.33 1464.09,-19.66"/>
<polygon fill="midnightblue" stroke="midnightblue" points="1490.99,-51.76 1500.52,-56.4 1495.96,-46.83 1490.99,-51.76"/>
</g>
<!-- Node34&#45;&gt;Node5 -->
<g id="edge70" class="edge">
<title>Node34&#45;&gt;Node5</title>
<path fill="none" stroke="midnightblue" d="M1369.75,-314.25C1369.41,-303.02 1369.02,-290.38 1368.77,-282.19"/>
<polygon fill="midnightblue" stroke="midnightblue" points="1366.26,-314.51 1370.07,-324.4 1373.26,-314.29 1366.26,-314.51"/>
</g>
<!-- Node34&#45;&gt;Node6 -->
<g id="edge74" class="edge">
<title>Node34&#45;&gt;Node6</title>
<path fill="none" stroke="midnightblue" d="M1444.02,-328.43C1491.44,-320.26 1546.9,-306.97 1561.5,-288 1569.91,-277.08 1569.93,-267.9 1561.5,-257 1509.35,-189.58 1261.43,-158.12 1129.52,-145.94"/>
<polygon fill="midnightblue" stroke="midnightblue" points="1443.33,-325 1434.04,-330.1 1444.48,-331.9 1443.33,-325"/>
</g>
<!-- Node34&#45;&gt;Node9 -->
<g id="edge71" class="edge">
<title>Node34&#45;&gt;Node9</title>
<path fill="none" stroke="midnightblue" d="M1296.71,-322.45C1251.35,-312.57 1192.05,-299.6 1139.5,-288 1136.56,-287.35 1133.55,-286.69 1130.52,-286.01"/>
<polygon fill="midnightblue" stroke="midnightblue" points="1296.24,-325.93 1306.75,-324.64 1297.73,-319.09 1296.24,-325.93"/>
</g>
<!-- Node34&#45;&gt;Node13 -->
<g id="edge72" class="edge">
<title>Node34&#45;&gt;Node13</title>
<path fill="none" stroke="midnightblue" d="M1324.57,-320.62C1292.24,-308.04 1250.43,-291.77 1225.36,-282.01"/>
<polygon fill="midnightblue" stroke="midnightblue" points="1323.67,-324.03 1334.26,-324.4 1326.21,-317.51 1323.67,-324.03"/>
</g>
<!-- Node34&#45;&gt;Node14 -->
<g id="edge73" class="edge">
<title>Node34&#45;&gt;Node14</title>
<path fill="none" stroke="midnightblue" d="M1406.74,-319.8C1430.9,-307.34 1461.5,-291.56 1480.01,-282.01"/>
<polygon fill="midnightblue" stroke="midnightblue" points="1405.12,-316.7 1397.84,-324.4 1408.33,-322.92 1405.12,-316.7"/>
</g>
<!-- Node35&#45;&gt;Node5 -->
<g id="edge78" class="edge">
<title>Node35&#45;&gt;Node5</title>
<path fill="none" stroke="midnightblue" d="M1240.47,-320.78C1274.6,-308.18 1318.93,-291.81 1345.47,-282.01"/>
<polygon fill="midnightblue" stroke="midnightblue" points="1238.86,-317.65 1230.69,-324.4 1241.28,-324.21 1238.86,-317.65"/>
</g>
<!-- Node35&#45;&gt;Node9 -->
<g id="edge79" class="edge">
<title>Node35&#45;&gt;Node9</title>
<path fill="none" stroke="midnightblue" d="M1157.89,-319.44C1139.38,-309.24 1116.98,-296.9 1100.05,-287.58"/>
<polygon fill="midnightblue" stroke="midnightblue" points="1156.45,-322.64 1166.9,-324.4 1159.83,-316.51 1156.45,-322.64"/>
</g>
<!-- Node35&#45;&gt;Node13 -->
<g id="edge80" class="edge">
<title>Node35&#45;&gt;Node13</title>
<path fill="none" stroke="midnightblue" d="M1196.6,-314.25C1198.5,-303.02 1200.64,-290.38 1202.03,-282.19"/>
<polygon fill="midnightblue" stroke="midnightblue" points="1193.1,-313.95 1194.89,-324.4 1200.01,-315.12 1193.1,-313.95"/>
</g>
<!-- Node35&#45;&gt;Node14 -->
<g id="edge81" class="edge">
<title>Node35&#45;&gt;Node14</title>
<path fill="none" stroke="midnightblue" d="M1260.91,-324.26C1308.72,-314.25 1374.04,-300.48 1431.5,-288 1440.31,-286.09 1449.79,-283.99 1458.71,-282.01"/>
<polygon fill="midnightblue" stroke="midnightblue" points="1260.05,-320.86 1250.98,-326.33 1261.49,-327.71 1260.05,-320.86"/>
</g>
<!-- Node35&#45;&gt;Node15 -->
<g id="edge82" class="edge">
<title>Node35&#45;&gt;Node15</title>
<path fill="none" stroke="midnightblue" d="M1235.32,-319.19C1247.64,-311.38 1259.6,-301.06 1266.5,-288 1272.94,-275.82 1275.08,-267.78 1266.5,-257 1246.79,-232.25 1164.39,-218.63 1106.24,-211.95"/>
<polygon fill="midnightblue" stroke="midnightblue" points="1233.21,-316.37 1226.35,-324.44 1236.75,-322.41 1233.21,-316.37"/>
</g>
<!-- Node35&#45;&gt;Node16 -->
<g id="edge83" class="edge">
<title>Node35&#45;&gt;Node16</title>
<path fill="none" stroke="midnightblue" d="M1128.46,-321.92C1087.5,-311.31 1034.94,-297.7 995.99,-287.61"/>
<polygon fill="midnightblue" stroke="midnightblue" points="1127.79,-325.36 1138.35,-324.48 1129.54,-318.58 1127.79,-325.36"/>
</g>
</g>
</svg>
