<?xml version="1.0" encoding="UTF-8" standalone="no"?>
<!DOCTYPE svg PUBLIC "-//W3C//DTD SVG 1.1//EN"
 "http://www.w3.org/Graphics/SVG/1.1/DTD/svg11.dtd">
<!-- Generated by graphviz version 2.43.0 (0)
 -->
<!-- Title: arg_router/utility/compile_time_string.hpp Pages: 1 -->
<svg width="943pt" height="397pt"
 viewBox="0.00 0.00 943.00 397.00" xmlns="http://www.w3.org/2000/svg" xmlns:xlink="http://www.w3.org/1999/xlink">
<g id="graph0" class="graph" transform="scale(1 1) rotate(0) translate(4 393)">
<title>arg_router/utility/compile_time_string.hpp</title>
<polygon fill="white" stroke="transparent" points="-4,4 -4,-393 939,-393 939,4 -4,4"/>
<!-- Node1 -->
<g id="node1" class="node">
<title>Node1</title>
<g id="a_node1"><a xlink:title=" ">
<polygon fill="#bfbfbf" stroke="black" points="372.5,-358.5 372.5,-388.5 512.5,-388.5 512.5,-358.5 372.5,-358.5"/>
<text text-anchor="start" x="380.5" y="-376.5" font-family="Helvetica,sans-Serif" font-size="10.00">arg_router/utility</text>
<text text-anchor="middle" x="442.5" y="-365.5" font-family="Helvetica,sans-Serif" font-size="10.00">/compile_time_string.hpp</text>
</a>
</g>
</g>
<!-- Node2 -->
<g id="node2" class="node">
<title>Node2</title>
<g id="a_node2"><a xlink:href="math_8hpp_source.html" target="_top" xlink:title=" ">
<polygon fill="white" stroke="black" points="28.5,-297 28.5,-316 144.5,-316 144.5,-297 28.5,-297"/>
<text text-anchor="middle" x="86.5" y="-304" font-family="Helvetica,sans-Serif" font-size="10.00">arg_router/math.hpp</text>
</a>
</g>
</g>
<!-- Node1&#45;&gt;Node2 -->
<g id="edge1" class="edge">
<title>Node1&#45;&gt;Node2</title>
<path fill="none" stroke="midnightblue" d="M372.17,-359.66C305.08,-347.41 205.31,-329.19 143.17,-317.85"/>
<polygon fill="midnightblue" stroke="midnightblue" points="143.63,-314.37 133.16,-316.02 142.37,-321.26 143.63,-314.37"/>
</g>
<!-- Node4 -->
<g id="node4" class="node">
<title>Node4</title>
<g id="a_node4"><a xlink:href="traits_8hpp_source.html" target="_top" xlink:title=" ">
<polygon fill="white" stroke="black" points="253.5,-297 253.5,-316 369.5,-316 369.5,-297 253.5,-297"/>
<text text-anchor="middle" x="311.5" y="-304" font-family="Helvetica,sans-Serif" font-size="10.00">arg_router/traits.hpp</text>
</a>
</g>
</g>
<!-- Node1&#45;&gt;Node4 -->
<g id="edge3" class="edge">
<title>Node1&#45;&gt;Node4</title>
<path fill="none" stroke="midnightblue" d="M414.07,-358.4C391.39,-347.14 359.87,-331.5 337.78,-320.54"/>
<polygon fill="midnightblue" stroke="midnightblue" points="339.16,-317.32 328.64,-316.01 336.05,-323.59 339.16,-317.32"/>
</g>
<!-- Node14 -->
<g id="node14" class="node">
<title>Node14</title>
<g id="a_node14"><a xlink:title=" ">
<polygon fill="white" stroke="#bfbfbf" points="87.5,-235.5 87.5,-254.5 233.5,-254.5 233.5,-235.5 87.5,-235.5"/>
<text text-anchor="middle" x="160.5" y="-242.5" font-family="Helvetica,sans-Serif" font-size="10.00">boost/mp11/algorithm.hpp</text>
</a>
</g>
</g>
<!-- Node1&#45;&gt;Node14 -->
<g id="edge19" class="edge">
<title>Node1&#45;&gt;Node14</title>
<path fill="none" stroke="midnightblue" d="M372.11,-363.1C332.85,-355.8 284.04,-343.22 244.5,-322 215.91,-306.65 189.28,-279.52 173.96,-262.17"/>
<polygon fill="midnightblue" stroke="midnightblue" points="176.56,-259.83 167.39,-254.53 171.26,-264.39 176.56,-259.83"/>
</g>
<!-- Node19 -->
<g id="node19" class="node">
<title>Node19</title>
<g id="a_node19"><a xlink:title=" ">
<polygon fill="white" stroke="#bfbfbf" points="387.5,-291.5 387.5,-321.5 497.5,-321.5 497.5,-291.5 387.5,-291.5"/>
<text text-anchor="start" x="395.5" y="-309.5" font-family="Helvetica,sans-Serif" font-size="10.00">boost/preprocessor</text>
<text text-anchor="middle" x="442.5" y="-298.5" font-family="Helvetica,sans-Serif" font-size="10.00">/config/limits.hpp</text>
</a>
</g>
</g>
<!-- Node1&#45;&gt;Node19 -->
<g id="edge20" class="edge">
<title>Node1&#45;&gt;Node19</title>
<path fill="none" stroke="midnightblue" d="M442.5,-358.4C442.5,-350.64 442.5,-340.81 442.5,-331.86"/>
<polygon fill="midnightblue" stroke="midnightblue" points="446,-331.58 442.5,-321.58 439,-331.58 446,-331.58"/>
</g>
<!-- Node20 -->
<g id="node20" class="node">
<title>Node20</title>
<g id="a_node20"><a xlink:title=" ">
<polygon fill="white" stroke="#bfbfbf" points="516,-291.5 516,-321.5 665,-321.5 665,-291.5 516,-291.5"/>
<text text-anchor="start" x="524" y="-309.5" font-family="Helvetica,sans-Serif" font-size="10.00">boost/preprocessor</text>
<text text-anchor="middle" x="590.5" y="-298.5" font-family="Helvetica,sans-Serif" font-size="10.00">/punctuation/comma_if.hpp</text>
</a>
</g>
</g>
<!-- Node1&#45;&gt;Node20 -->
<g id="edge21" class="edge">
<title>Node1&#45;&gt;Node20</title>
<path fill="none" stroke="midnightblue" d="M474.61,-358.4C496.43,-348.81 525.49,-336.05 549.06,-325.7"/>
<polygon fill="midnightblue" stroke="midnightblue" points="550.7,-328.8 558.45,-321.58 547.89,-322.39 550.7,-328.8"/>
</g>
<!-- Node21 -->
<g id="node21" class="node">
<title>Node21</title>
<g id="a_node21"><a xlink:title=" ">
<polygon fill="white" stroke="#bfbfbf" points="683.5,-291.5 683.5,-321.5 805.5,-321.5 805.5,-291.5 683.5,-291.5"/>
<text text-anchor="start" x="691.5" y="-309.5" font-family="Helvetica,sans-Serif" font-size="10.00">boost/preprocessor</text>
<text text-anchor="middle" x="744.5" y="-298.5" font-family="Helvetica,sans-Serif" font-size="10.00">/repetition/repeat.hpp</text>
</a>
</g>
</g>
<!-- Node1&#45;&gt;Node21 -->
<g id="edge22" class="edge">
<title>Node1&#45;&gt;Node21</title>
<path fill="none" stroke="midnightblue" d="M507.66,-358.48C556.51,-347.96 623.3,-333.59 673.51,-322.78"/>
<polygon fill="midnightblue" stroke="midnightblue" points="674.28,-326.19 683.32,-320.67 672.81,-319.35 674.28,-326.19"/>
</g>
<!-- Node22 -->
<g id="node22" class="node">
<title>Node22</title>
<g id="a_node22"><a xlink:title=" ">
<polygon fill="white" stroke="#bfbfbf" points="823.5,-297 823.5,-316 865.5,-316 865.5,-297 823.5,-297"/>
<text text-anchor="middle" x="844.5" y="-304" font-family="Helvetica,sans-Serif" font-size="10.00">array</text>
</a>
</g>
</g>
<!-- Node1&#45;&gt;Node22 -->
<g id="edge23" class="edge">
<title>Node1&#45;&gt;Node22</title>
<path fill="none" stroke="midnightblue" d="M512.79,-369.54C588.65,-364.85 712.31,-352.78 814.5,-322 816.18,-321.5 817.87,-320.91 819.57,-320.26"/>
<polygon fill="midnightblue" stroke="midnightblue" points="821.23,-323.35 829,-316.14 818.43,-316.94 821.23,-323.35"/>
</g>
<!-- Node3 -->
<g id="node3" class="node">
<title>Node3</title>
<g id="a_node3"><a xlink:title=" ">
<polygon fill="white" stroke="#bfbfbf" points="0,-235.5 0,-254.5 69,-254.5 69,-235.5 0,-235.5"/>
<text text-anchor="middle" x="34.5" y="-242.5" font-family="Helvetica,sans-Serif" font-size="10.00">type_traits</text>
</a>
</g>
</g>
<!-- Node2&#45;&gt;Node3 -->
<g id="edge2" class="edge">
<title>Node2&#45;&gt;Node3</title>
<path fill="none" stroke="midnightblue" d="M79.05,-296.98C71.17,-287.96 58.56,-273.52 48.76,-262.31"/>
<polygon fill="midnightblue" stroke="midnightblue" points="51.15,-259.74 41.94,-254.51 45.88,-264.34 51.15,-259.74"/>
</g>
<!-- Node4&#45;&gt;Node3 -->
<g id="edge18" class="edge">
<title>Node4&#45;&gt;Node3</title>
<path fill="none" stroke="midnightblue" d="M271.81,-296.98C220.8,-286.02 132.46,-267.04 79.15,-255.59"/>
<polygon fill="midnightblue" stroke="midnightblue" points="79.81,-252.15 69.3,-253.47 78.34,-259 79.81,-252.15"/>
</g>
<!-- Node5 -->
<g id="node5" class="node">
<title>Node5</title>
<g id="a_node5"><a xlink:href="token__type_8hpp_source.html" target="_top" xlink:title=" ">
<polygon fill="white" stroke="black" points="689,-235.5 689,-254.5 834,-254.5 834,-235.5 689,-235.5"/>
<text text-anchor="middle" x="761.5" y="-242.5" font-family="Helvetica,sans-Serif" font-size="10.00">arg_router/token_type.hpp</text>
</a>
</g>
</g>
<!-- Node4&#45;&gt;Node5 -->
<g id="edge4" class="edge">
<title>Node4&#45;&gt;Node5</title>
<path fill="none" stroke="midnightblue" d="M347.89,-296.96C357.78,-294.82 368.52,-292.66 378.5,-291 407.34,-286.2 575.15,-267 678.85,-255.28"/>
<polygon fill="midnightblue" stroke="midnightblue" points="679.44,-258.74 688.99,-254.14 678.66,-251.78 679.44,-258.74"/>
</g>
<!-- Node4&#45;&gt;Node14 -->
<g id="edge13" class="edge">
<title>Node4&#45;&gt;Node14</title>
<path fill="none" stroke="midnightblue" d="M289.87,-296.98C264.08,-286.81 220.79,-269.76 191.46,-258.2"/>
<polygon fill="midnightblue" stroke="midnightblue" points="192.68,-254.92 182.09,-254.51 190.12,-261.43 192.68,-254.92"/>
</g>
<!-- Node15 -->
<g id="node15" class="node">
<title>Node15</title>
<g id="a_node15"><a xlink:title=" ">
<polygon fill="white" stroke="#bfbfbf" points="252,-235.5 252,-254.5 371,-254.5 371,-235.5 252,-235.5"/>
<text text-anchor="middle" x="311.5" y="-242.5" font-family="Helvetica,sans-Serif" font-size="10.00">boost/mp11/bind.hpp</text>
</a>
</g>
</g>
<!-- Node4&#45;&gt;Node15 -->
<g id="edge14" class="edge">
<title>Node4&#45;&gt;Node15</title>
<path fill="none" stroke="midnightblue" d="M311.5,-296.98C311.5,-288.58 311.5,-275.48 311.5,-264.66"/>
<polygon fill="midnightblue" stroke="midnightblue" points="315,-264.51 311.5,-254.51 308,-264.51 315,-264.51"/>
</g>
<!-- Node16 -->
<g id="node16" class="node">
<title>Node16</title>
<g id="a_node16"><a xlink:title=" ">
<polygon fill="white" stroke="#bfbfbf" points="389,-235.5 389,-254.5 514,-254.5 514,-235.5 389,-235.5"/>
<text text-anchor="middle" x="451.5" y="-242.5" font-family="Helvetica,sans-Serif" font-size="10.00">boost/mp11/utility.hpp</text>
</a>
</g>
</g>
<!-- Node4&#45;&gt;Node16 -->
<g id="edge15" class="edge">
<title>Node4&#45;&gt;Node16</title>
<path fill="none" stroke="midnightblue" d="M331.56,-296.98C355.26,-286.9 394.91,-270.05 422.08,-258.5"/>
<polygon fill="midnightblue" stroke="midnightblue" points="423.64,-261.64 431.48,-254.51 420.91,-255.2 423.64,-261.64"/>
</g>
<!-- Node17 -->
<g id="node17" class="node">
<title>Node17</title>
<g id="a_node17"><a xlink:title=" ">
<polygon fill="white" stroke="#bfbfbf" points="532.5,-235.5 532.5,-254.5 596.5,-254.5 596.5,-235.5 532.5,-235.5"/>
<text text-anchor="middle" x="564.5" y="-242.5" font-family="Helvetica,sans-Serif" font-size="10.00">algorithm</text>
</a>
</g>
</g>
<!-- Node4&#45;&gt;Node17 -->
<g id="edge16" class="edge">
<title>Node4&#45;&gt;Node17</title>
<path fill="none" stroke="midnightblue" d="M347.75,-296.98C393.93,-286.12 473.58,-267.38 522.4,-255.9"/>
<polygon fill="midnightblue" stroke="midnightblue" points="523.39,-259.26 532.32,-253.57 521.79,-252.45 523.39,-259.26"/>
</g>
<!-- Node18 -->
<g id="node18" class="node">
<title>Node18</title>
<g id="a_node18"><a xlink:title=" ">
<polygon fill="white" stroke="#bfbfbf" points="614.5,-235.5 614.5,-254.5 670.5,-254.5 670.5,-235.5 614.5,-235.5"/>
<text text-anchor="middle" x="642.5" y="-242.5" font-family="Helvetica,sans-Serif" font-size="10.00">optional</text>
</a>
</g>
</g>
<!-- Node4&#45;&gt;Node18 -->
<g id="edge17" class="edge">
<title>Node4&#45;&gt;Node18</title>
<path fill="none" stroke="midnightblue" d="M349.34,-296.92C358.84,-294.88 369.02,-292.78 378.5,-291 475.77,-272.78 503.62,-274.93 604.3,-255.11"/>
<polygon fill="midnightblue" stroke="midnightblue" points="605.15,-258.5 614.27,-253.12 603.78,-251.64 605.15,-258.5"/>
</g>
<!-- Node6 -->
<g id="node6" class="node">
<title>Node6</title>
<g id="a_node6"><a xlink:href="string__view__ops_8hpp_source.html" target="_top" xlink:title=" ">
<polygon fill="white" stroke="black" points="702,-168.5 702,-198.5 821,-198.5 821,-168.5 702,-168.5"/>
<text text-anchor="start" x="710" y="-186.5" font-family="Helvetica,sans-Serif" font-size="10.00">arg_router/utility</text>
<text text-anchor="middle" x="761.5" y="-175.5" font-family="Helvetica,sans-Serif" font-size="10.00">/string_view_ops.hpp</text>
</a>
</g>
</g>
<!-- Node5&#45;&gt;Node6 -->
<g id="edge5" class="edge">
<title>Node5&#45;&gt;Node6</title>
<path fill="none" stroke="midnightblue" d="M761.5,-235.48C761.5,-228.47 761.5,-218.19 761.5,-208.7"/>
<polygon fill="midnightblue" stroke="midnightblue" points="765,-208.52 761.5,-198.52 758,-208.52 765,-208.52"/>
</g>
<!-- Node7 -->
<g id="node7" class="node">
<title>Node7</title>
<g id="a_node7"><a xlink:href="basic__types_8hpp_source.html" target="_top" xlink:title=" ">
<polygon fill="white" stroke="black" points="687,-112.5 687,-131.5 836,-131.5 836,-112.5 687,-112.5"/>
<text text-anchor="middle" x="761.5" y="-119.5" font-family="Helvetica,sans-Serif" font-size="10.00">arg_router/basic_types.hpp</text>
</a>
</g>
</g>
<!-- Node6&#45;&gt;Node7 -->
<g id="edge6" class="edge">
<title>Node6&#45;&gt;Node7</title>
<path fill="none" stroke="midnightblue" d="M761.5,-168.4C761.5,-160.47 761.5,-150.46 761.5,-141.86"/>
<polygon fill="midnightblue" stroke="midnightblue" points="765,-141.66 761.5,-131.66 758,-141.66 765,-141.66"/>
</g>
<!-- Node8 -->
<g id="node8" class="node">
<title>Node8</title>
<g id="a_node8"><a xlink:href="config_8hpp_source.html" target="_top" xlink:title=" ">
<polygon fill="white" stroke="black" points="560.5,-56.5 560.5,-75.5 680.5,-75.5 680.5,-56.5 560.5,-56.5"/>
<text text-anchor="middle" x="620.5" y="-63.5" font-family="Helvetica,sans-Serif" font-size="10.00">arg_router/config.hpp</text>
</a>
</g>
</g>
<!-- Node7&#45;&gt;Node8 -->
<g id="edge7" class="edge">
<title>Node7&#45;&gt;Node8</title>
<path fill="none" stroke="midnightblue" d="M739.16,-112.44C715.75,-103.48 678.76,-89.31 652.31,-79.18"/>
<polygon fill="midnightblue" stroke="midnightblue" points="653.33,-75.82 642.74,-75.52 650.82,-82.36 653.33,-75.82"/>
</g>
<!-- Node11 -->
<g id="node11" class="node">
<title>Node11</title>
<g id="a_node11"><a xlink:title=" ">
<polygon fill="white" stroke="#bfbfbf" points="698.5,-56.5 698.5,-75.5 754.5,-75.5 754.5,-56.5 698.5,-56.5"/>
<text text-anchor="middle" x="726.5" y="-63.5" font-family="Helvetica,sans-Serif" font-size="10.00">sstream</text>
</a>
</g>
</g>
<!-- Node7&#45;&gt;Node11 -->
<g id="edge10" class="edge">
<title>Node7&#45;&gt;Node11</title>
<path fill="none" stroke="midnightblue" d="M755.72,-112.08C750.83,-104.53 743.67,-93.49 737.67,-84.23"/>
<polygon fill="midnightblue" stroke="midnightblue" points="740.55,-82.24 732.17,-75.75 734.67,-86.05 740.55,-82.24"/>
</g>
<!-- Node12 -->
<g id="node12" class="node">
<title>Node12</title>
<g id="a_node12"><a xlink:title=" ">
<polygon fill="white" stroke="#bfbfbf" points="773,-56.5 773,-75.5 820,-75.5 820,-56.5 773,-56.5"/>
<text text-anchor="middle" x="796.5" y="-63.5" font-family="Helvetica,sans-Serif" font-size="10.00">vector</text>
</a>
</g>
</g>
<!-- Node7&#45;&gt;Node12 -->
<g id="edge11" class="edge">
<title>Node7&#45;&gt;Node12</title>
<path fill="none" stroke="midnightblue" d="M767.28,-112.08C772.17,-104.53 779.33,-93.49 785.33,-84.23"/>
<polygon fill="midnightblue" stroke="midnightblue" points="788.33,-86.05 790.83,-75.75 782.45,-82.24 788.33,-86.05"/>
</g>
<!-- Node13 -->
<g id="node13" class="node">
<title>Node13</title>
<g id="a_node13"><a xlink:title=" ">
<polygon fill="white" stroke="#bfbfbf" points="838,-56.5 838,-75.5 935,-75.5 935,-56.5 838,-56.5"/>
<text text-anchor="middle" x="886.5" y="-63.5" font-family="Helvetica,sans-Serif" font-size="10.00">nonstd/span.hpp</text>
</a>
</g>
</g>
<!-- Node7&#45;&gt;Node13 -->
<g id="edge12" class="edge">
<title>Node7&#45;&gt;Node13</title>
<path fill="none" stroke="midnightblue" d="M781.31,-112.44C801.79,-103.6 833.98,-89.69 857.36,-79.59"/>
<polygon fill="midnightblue" stroke="midnightblue" points="858.99,-82.7 866.79,-75.52 856.22,-76.27 858.99,-82.7"/>
</g>
<!-- Node9 -->
<g id="node9" class="node">
<title>Node9</title>
<g id="a_node9"><a xlink:title=" ">
<polygon fill="white" stroke="#bfbfbf" points="554,-0.5 554,-19.5 607,-19.5 607,-0.5 554,-0.5"/>
<text text-anchor="middle" x="580.5" y="-7.5" font-family="Helvetica,sans-Serif" font-size="10.00">cstddef</text>
</a>
</g>
</g>
<!-- Node8&#45;&gt;Node9 -->
<g id="edge8" class="edge">
<title>Node8&#45;&gt;Node9</title>
<path fill="none" stroke="midnightblue" d="M613.89,-56.08C608.24,-48.46 599.96,-37.26 593.05,-27.94"/>
<polygon fill="midnightblue" stroke="midnightblue" points="595.75,-25.7 586.98,-19.75 590.12,-29.87 595.75,-25.7"/>
</g>
<!-- Node10 -->
<g id="node10" class="node">
<title>Node10</title>
<g id="a_node10"><a xlink:title=" ">
<polygon fill="white" stroke="#bfbfbf" points="625,-0.5 625,-19.5 698,-19.5 698,-0.5 625,-0.5"/>
<text text-anchor="middle" x="661.5" y="-7.5" font-family="Helvetica,sans-Serif" font-size="10.00">string_view</text>
</a>
</g>
</g>
<!-- Node8&#45;&gt;Node10 -->
<g id="edge9" class="edge">
<title>Node8&#45;&gt;Node10</title>
<path fill="none" stroke="midnightblue" d="M627.27,-56.08C633.06,-48.46 641.56,-37.26 648.64,-27.94"/>
<polygon fill="midnightblue" stroke="midnightblue" points="651.6,-29.83 654.86,-19.75 646.02,-25.6 651.6,-29.83"/>
</g>
</g>
</svg>
