<?xml version="1.0" encoding="UTF-8" standalone="no"?>
<!DOCTYPE svg PUBLIC "-//W3C//DTD SVG 1.1//EN"
 "http://www.w3.org/Graphics/SVG/1.1/DTD/svg11.dtd">
<!-- Generated by graphviz version 2.43.0 (0)
 -->
<!-- Title: arg_router/utility/compile_time_string.hpp Pages: 1 -->
<svg width="1717pt" height="698pt"
 viewBox="0.00 0.00 1717.39 698.00" xmlns="http://www.w3.org/2000/svg" xmlns:xlink="http://www.w3.org/1999/xlink">
<g id="graph0" class="graph" transform="scale(1 1) rotate(0) translate(4 694)">
<title>arg_router/utility/compile_time_string.hpp</title>
<!-- Node1 -->
<g id="node1" class="node">
<title>Node1</title>
<g id="a_node1"><a xlink:title=" ">
<polygon fill="#bfbfbf" stroke="black" points="1303.39,-659.5 1303.39,-689.5 1443.39,-689.5 1443.39,-659.5 1303.39,-659.5"/>
<text text-anchor="start" x="1311.39" y="-677.5" font-family="Helvetica,sans-Serif" font-size="10.00">arg_router/utility</text>
<text text-anchor="middle" x="1373.39" y="-666.5" font-family="Helvetica,sans-Serif" font-size="10.00">/compile_time_string.hpp</text>
</a>
</g>
</g>
<!-- Node2 -->
<g id="node2" class="node">
<title>Node2</title>
<g id="a_node2"><a xlink:href="exception_8hpp_source.html" target="_top" xlink:title=" ">
<polygon fill="none" stroke="black" points="944.89,-598 944.89,-617 1083.89,-617 1083.89,-598 944.89,-598"/>
<text text-anchor="middle" x="1014.39" y="-605" font-family="Helvetica,sans-Serif" font-size="10.00">arg_router/exception.hpp</text>
</a>
</g>
</g>
<!-- Node1&#45;&gt;Node2 -->
<g id="edge1" class="edge">
<title>Node1&#45;&gt;Node2</title>
<path fill="none" stroke="midnightblue" d="M1293.48,-659.03C1222.22,-646.13 1120.34,-627.68 1061.41,-617.01"/>
<polygon fill="midnightblue" stroke="midnightblue" points="1292.86,-662.48 1303.32,-660.81 1294.1,-655.59 1292.86,-662.48"/>
</g>
<!-- Node4 -->
<g id="node4" class="node">
<title>Node4</title>
<g id="a_node4"><a xlink:href="tree__node_8hpp_source.html" target="_top" xlink:title=" ">
<polygon fill="none" stroke="black" points="564.39,-330 564.39,-349 704.39,-349 704.39,-330 564.39,-330"/>
<text text-anchor="middle" x="634.39" y="-337" font-family="Helvetica,sans-Serif" font-size="10.00">arg_router/tree_node.hpp</text>
</a>
</g>
</g>
<!-- Node1&#45;&gt;Node4 -->
<g id="edge72" class="edge">
<title>Node1&#45;&gt;Node4</title>
<path fill="none" stroke="midnightblue" d="M1293.21,-668.06C1096.39,-653.64 605.39,-610.73 605.39,-541.5 605.39,-541.5 605.39,-541.5 605.39,-472.5 605.39,-424.87 623.63,-369.78 631.18,-349.01"/>
<polygon fill="midnightblue" stroke="midnightblue" points="1292.97,-671.55 1303.2,-668.79 1293.48,-664.57 1292.97,-671.55"/>
</g>
<!-- Node29 -->
<g id="node29" class="node">
<title>Node29</title>
<g id="a_node29"><a xlink:href="value__separator_8hpp_source.html" target="_top" xlink:title=" ">
<polygon fill="none" stroke="black" points="1401.89,-391.5 1401.89,-421.5 1530.89,-421.5 1530.89,-391.5 1401.89,-391.5"/>
<text text-anchor="start" x="1409.89" y="-409.5" font-family="Helvetica,sans-Serif" font-size="10.00">arg_router/policy/value</text>
<text text-anchor="middle" x="1466.39" y="-398.5" font-family="Helvetica,sans-Serif" font-size="10.00">_separator.hpp</text>
</a>
</g>
</g>
<!-- Node1&#45;&gt;Node29 -->
<g id="edge71" class="edge">
<title>Node1&#45;&gt;Node29</title>
<path fill="none" stroke="midnightblue" d="M1414.33,-654.08C1426.65,-646.19 1438.88,-635.85 1446.39,-623 1485.37,-556.34 1474.66,-457.84 1468.91,-421.57"/>
<polygon fill="midnightblue" stroke="midnightblue" points="1412.2,-651.28 1405.41,-659.4 1415.79,-657.29 1412.2,-651.28"/>
</g>
<!-- Node30 -->
<g id="node30" class="node">
<title>Node30</title>
<g id="a_node30"><a xlink:href="literals_8hpp_source.html" target="_top" xlink:title=" ">
<polygon fill="none" stroke="black" points="1494.89,-464 1494.89,-483 1619.89,-483 1619.89,-464 1494.89,-464"/>
<text text-anchor="middle" x="1557.39" y="-471" font-family="Helvetica,sans-Serif" font-size="10.00">arg_router/literals.hpp</text>
</a>
</g>
</g>
<!-- Node1&#45;&gt;Node30 -->
<g id="edge61" class="edge">
<title>Node1&#45;&gt;Node30</title>
<path fill="none" stroke="midnightblue" d="M1427.8,-655.55C1445.78,-647.66 1464.88,-636.96 1479.39,-623 1523.47,-580.61 1547.72,-507.84 1555.01,-483.05"/>
<polygon fill="midnightblue" stroke="midnightblue" points="1426.41,-652.33 1418.53,-659.42 1429.11,-658.79 1426.41,-652.33"/>
</g>
<!-- Node31 -->
<g id="node31" class="node">
<title>Node31</title>
<g id="a_node31"><a xlink:href="string__selector_8hpp.html" target="_top" xlink:title=" ">
<polygon fill="none" stroke="black" points="1587.39,-123.5 1587.39,-153.5 1709.39,-153.5 1709.39,-123.5 1587.39,-123.5"/>
<text text-anchor="start" x="1595.39" y="-141.5" font-family="Helvetica,sans-Serif" font-size="10.00">arg_router/multi_lang</text>
<text text-anchor="middle" x="1648.39" y="-130.5" font-family="Helvetica,sans-Serif" font-size="10.00">/string_selector.hpp</text>
</a>
</g>
</g>
<!-- Node1&#45;&gt;Node31 -->
<g id="edge63" class="edge">
<title>Node1&#45;&gt;Node31</title>
<path fill="none" stroke="midnightblue" d="M1453.72,-668.35C1534.89,-658.27 1648.39,-628.6 1648.39,-541.5 1648.39,-541.5 1648.39,-541.5 1648.39,-271.5 1648.39,-228.65 1648.39,-177.97 1648.39,-153.76"/>
<polygon fill="midnightblue" stroke="midnightblue" points="1453.03,-664.9 1443.5,-669.54 1453.84,-671.86 1453.03,-664.9"/>
</g>
<!-- Node32 -->
<g id="node32" class="node">
<title>Node32</title>
<g id="a_node32"><a xlink:href="default__help__formatter_8hpp_source.html" target="_top" xlink:title=" ">
<polygon fill="none" stroke="black" points="0.89,-324.5 0.89,-354.5 137.89,-354.5 137.89,-324.5 0.89,-324.5"/>
<text text-anchor="start" x="8.89" y="-342.5" font-family="Helvetica,sans-Serif" font-size="10.00">arg_router/policy/default</text>
<text text-anchor="middle" x="69.39" y="-331.5" font-family="Helvetica,sans-Serif" font-size="10.00">_help_formatter.hpp</text>
</a>
</g>
</g>
<!-- Node1&#45;&gt;Node32 -->
<g id="edge65" class="edge">
<title>Node1&#45;&gt;Node32</title>
<path fill="none" stroke="midnightblue" d="M1293.04,-671.87C1046.65,-665.83 318.39,-639.65 318.39,-541.5 318.39,-541.5 318.39,-541.5 318.39,-472.5 318.39,-390.55 211.79,-359.33 138.09,-347.54"/>
<polygon fill="midnightblue" stroke="midnightblue" points="1293.27,-675.38 1303.35,-672.12 1293.44,-668.38 1293.27,-675.38"/>
</g>
<!-- Node34 -->
<g id="node34" class="node">
<title>Node34</title>
<g id="a_node34"><a xlink:href="short__name_8hpp_source.html" target="_top" xlink:title=" ">
<polygon fill="none" stroke="black" points="1309.89,-592.5 1309.89,-622.5 1436.89,-622.5 1436.89,-592.5 1309.89,-592.5"/>
<text text-anchor="start" x="1317.89" y="-610.5" font-family="Helvetica,sans-Serif" font-size="10.00">arg_router/policy/short</text>
<text text-anchor="middle" x="1373.39" y="-599.5" font-family="Helvetica,sans-Serif" font-size="10.00">_name.hpp</text>
</a>
</g>
</g>
<!-- Node1&#45;&gt;Node34 -->
<g id="edge69" class="edge">
<title>Node1&#45;&gt;Node34</title>
<path fill="none" stroke="midnightblue" d="M1373.39,-649.11C1373.39,-640.15 1373.39,-630.32 1373.39,-622.58"/>
<polygon fill="midnightblue" stroke="midnightblue" points="1369.89,-649.4 1373.39,-659.4 1376.89,-649.4 1369.89,-649.4"/>
</g>
<!-- Node3 -->
<g id="node3" class="node">
<title>Node3</title>
<g id="a_node3"><a xlink:href="global__parser_8hpp_source.html" target="_top" xlink:title=" ">
<polygon fill="none" stroke="black" points="634.39,-458.5 634.39,-488.5 740.39,-488.5 740.39,-458.5 634.39,-458.5"/>
<text text-anchor="start" x="642.39" y="-476.5" font-family="Helvetica,sans-Serif" font-size="10.00">arg_router/parsing</text>
<text text-anchor="middle" x="687.39" y="-465.5" font-family="Helvetica,sans-Serif" font-size="10.00">/global_parser.hpp</text>
</a>
</g>
</g>
<!-- Node2&#45;&gt;Node3 -->
<g id="edge2" class="edge">
<title>Node2&#45;&gt;Node3</title>
<path fill="none" stroke="midnightblue" d="M934.56,-604.7C880.68,-600.32 809.76,-588.15 755.39,-556 727.48,-539.49 705.8,-507.16 694.99,-488.57"/>
<polygon fill="midnightblue" stroke="midnightblue" points="934.53,-608.21 944.76,-605.45 935.05,-601.23 934.53,-608.21"/>
</g>
<!-- Node21 -->
<g id="node21" class="node">
<title>Node21</title>
<g id="a_node21"><a xlink:href="exception__translator_8hpp_source.html" target="_top" xlink:title=" ">
<polygon fill="none" stroke="black" points="797.39,-525.5 797.39,-555.5 947.39,-555.5 947.39,-525.5 797.39,-525.5"/>
<text text-anchor="start" x="805.39" y="-543.5" font-family="Helvetica,sans-Serif" font-size="10.00">arg_router/policy/exception</text>
<text text-anchor="middle" x="872.39" y="-532.5" font-family="Helvetica,sans-Serif" font-size="10.00">_translator.hpp</text>
</a>
</g>
</g>
<!-- Node2&#45;&gt;Node21 -->
<g id="edge33" class="edge">
<title>Node2&#45;&gt;Node21</title>
<path fill="none" stroke="midnightblue" d="M986.26,-593.62C962.24,-582.63 927.75,-566.84 903.04,-555.53"/>
<polygon fill="midnightblue" stroke="midnightblue" points="984.99,-596.89 995.54,-597.87 987.9,-590.52 984.99,-596.89"/>
</g>
<!-- Node22 -->
<g id="node22" class="node">
<title>Node22</title>
<g id="a_node22"><a xlink:href="min__max__count_8hpp_source.html" target="_top" xlink:title=" ">
<polygon fill="none" stroke="black" points="709.89,-391.5 709.89,-421.5 830.89,-421.5 830.89,-391.5 709.89,-391.5"/>
<text text-anchor="start" x="717.89" y="-409.5" font-family="Helvetica,sans-Serif" font-size="10.00">arg_router/policy/min</text>
<text text-anchor="middle" x="770.39" y="-398.5" font-family="Helvetica,sans-Serif" font-size="10.00">_max_count.hpp</text>
</a>
</g>
</g>
<!-- Node2&#45;&gt;Node22 -->
<g id="edge35" class="edge">
<title>Node2&#45;&gt;Node22</title>
<path fill="none" stroke="midnightblue" d="M934.58,-598.41C877.67,-590.9 807.93,-577.58 788.39,-556 754.23,-518.27 761.83,-451.26 767.27,-421.93"/>
<polygon fill="midnightblue" stroke="midnightblue" points="934.31,-601.9 944.67,-599.7 935.2,-594.96 934.31,-601.9"/>
</g>
<!-- Node23 -->
<g id="node23" class="node">
<title>Node23</title>
<g id="a_node23"><a xlink:href="min__max__value_8hpp_source.html" target="_top" xlink:title=" ">
<polygon fill="none" stroke="black" points="1223.89,-391.5 1223.89,-421.5 1344.89,-421.5 1344.89,-391.5 1223.89,-391.5"/>
<text text-anchor="start" x="1231.89" y="-409.5" font-family="Helvetica,sans-Serif" font-size="10.00">arg_router/policy/min</text>
<text text-anchor="middle" x="1284.39" y="-398.5" font-family="Helvetica,sans-Serif" font-size="10.00">_max_value.hpp</text>
</a>
</g>
</g>
<!-- Node2&#45;&gt;Node23 -->
<g id="edge42" class="edge">
<title>Node2&#45;&gt;Node23</title>
<path fill="none" stroke="midnightblue" d="M1094.11,-602.14C1163.54,-596.5 1256.69,-583.85 1280.39,-556 1313.15,-517.5 1298.09,-450.91 1289.23,-421.8"/>
<polygon fill="midnightblue" stroke="midnightblue" points="1093.75,-598.66 1084.05,-602.92 1094.29,-605.64 1093.75,-598.66"/>
</g>
<!-- Node24 -->
<g id="node24" class="node">
<title>Node24</title>
<g id="a_node24"><a xlink:href="required_8hpp_source.html" target="_top" xlink:title=" ">
<polygon fill="none" stroke="black" points="893.39,-397 893.39,-416 1057.39,-416 1057.39,-397 893.39,-397"/>
<text text-anchor="middle" x="975.39" y="-404" font-family="Helvetica,sans-Serif" font-size="10.00">arg_router/policy/required.hpp</text>
</a>
</g>
</g>
<!-- Node2&#45;&gt;Node24 -->
<g id="edge44" class="edge">
<title>Node2&#45;&gt;Node24</title>
<path fill="none" stroke="midnightblue" d="M1006.04,-588.61C1001.93,-579.11 997.26,-567.13 994.39,-556 980.97,-503.9 976.83,-438.96 975.74,-416.01"/>
<polygon fill="midnightblue" stroke="midnightblue" points="1002.87,-590.1 1010.16,-597.78 1009.26,-587.23 1002.87,-590.1"/>
</g>
<!-- Node25 -->
<g id="node25" class="node">
<title>Node25</title>
<g id="a_node25"><a xlink:href="router_8hpp_source.html" target="_top" xlink:title=" ">
<polygon fill="none" stroke="black" points="1119.39,-531 1119.39,-550 1271.39,-550 1271.39,-531 1119.39,-531"/>
<text text-anchor="middle" x="1195.39" y="-538" font-family="Helvetica,sans-Serif" font-size="10.00">arg_router/policy/router.hpp</text>
</a>
</g>
</g>
<!-- Node2&#45;&gt;Node25 -->
<g id="edge46" class="edge">
<title>Node2&#45;&gt;Node25</title>
<path fill="none" stroke="midnightblue" d="M1047.99,-594.44C1083.89,-581.54 1139.91,-561.42 1171.55,-550.06"/>
<polygon fill="midnightblue" stroke="midnightblue" points="1046.66,-591.19 1038.43,-597.87 1049.02,-597.78 1046.66,-591.19"/>
</g>
<!-- Node26 -->
<g id="node26" class="node">
<title>Node26</title>
<g id="a_node26"><a xlink:href="result_8hpp_source.html" target="_top" xlink:title=" ">
<polygon fill="none" stroke="black" points="1003.39,-525.5 1003.39,-555.5 1101.39,-555.5 1101.39,-525.5 1003.39,-525.5"/>
<text text-anchor="start" x="1011.39" y="-543.5" font-family="Helvetica,sans-Serif" font-size="10.00">arg_router/utility</text>
<text text-anchor="middle" x="1052.39" y="-532.5" font-family="Helvetica,sans-Serif" font-size="10.00">/result.hpp</text>
</a>
</g>
</g>
<!-- Node2&#45;&gt;Node26 -->
<g id="edge48" class="edge">
<title>Node2&#45;&gt;Node26</title>
<path fill="none" stroke="midnightblue" d="M1024.6,-589.03C1030.73,-578.56 1038.42,-565.4 1044.16,-555.59"/>
<polygon fill="midnightblue" stroke="midnightblue" points="1021.54,-587.33 1019.52,-597.73 1027.59,-590.87 1021.54,-587.33"/>
</g>
<!-- Node3&#45;&gt;Node4 -->
<g id="edge3" class="edge">
<title>Node3&#45;&gt;Node4</title>
<path fill="none" stroke="midnightblue" d="M677.84,-448.71C665.84,-418.81 645.83,-369 637.84,-349.1"/>
<polygon fill="midnightblue" stroke="midnightblue" points="674.75,-450.4 681.72,-458.37 681.24,-447.79 674.75,-450.4"/>
</g>
<!-- Node5 -->
<g id="node5" class="node">
<title>Node5</title>
<g id="a_node5"><a xlink:href="arg_8hpp_source.html" target="_top" xlink:title=" ">
<polygon fill="none" stroke="black" points="451.89,-263 451.89,-282 558.89,-282 558.89,-263 451.89,-263"/>
<text text-anchor="middle" x="505.39" y="-270" font-family="Helvetica,sans-Serif" font-size="10.00">arg_router/arg.hpp</text>
</a>
</g>
</g>
<!-- Node4&#45;&gt;Node5 -->
<g id="edge4" class="edge">
<title>Node4&#45;&gt;Node5</title>
<path fill="none" stroke="midnightblue" d="M608.14,-325.27C582.59,-312.4 544.51,-293.21 522.59,-282.17"/>
<polygon fill="midnightblue" stroke="midnightblue" points="606.76,-328.49 617.26,-329.87 609.91,-322.24 606.76,-328.49"/>
</g>
<!-- Node9 -->
<g id="node9" class="node">
<title>Node9</title>
<g id="a_node9"><a xlink:href="counting__flag_8hpp_source.html" target="_top" xlink:title=" ">
<polygon fill="none" stroke="black" points="841.39,-257.5 841.39,-287.5 953.39,-287.5 953.39,-257.5 841.39,-257.5"/>
<text text-anchor="start" x="849.39" y="-275.5" font-family="Helvetica,sans-Serif" font-size="10.00">arg_router/counting</text>
<text text-anchor="middle" x="897.39" y="-264.5" font-family="Helvetica,sans-Serif" font-size="10.00">_flag.hpp</text>
</a>
</g>
</g>
<!-- Node4&#45;&gt;Node9 -->
<g id="edge9" class="edge">
<title>Node4&#45;&gt;Node9</title>
<path fill="none" stroke="midnightblue" d="M679.02,-327.47C723.7,-316.43 792.58,-299.4 841.01,-287.44"/>
<polygon fill="midnightblue" stroke="midnightblue" points="677.91,-324.14 669.05,-329.94 679.59,-330.93 677.91,-324.14"/>
</g>
<!-- Node10 -->
<g id="node10" class="node">
<title>Node10</title>
<g id="a_node10"><a xlink:href="detail_8hpp_source.html" target="_top" xlink:title=" ">
<polygon fill="none" stroke="black" points="143.89,-257.5 143.89,-287.5 272.89,-287.5 272.89,-257.5 143.89,-257.5"/>
<text text-anchor="start" x="151.89" y="-275.5" font-family="Helvetica,sans-Serif" font-size="10.00">arg_router/dependency</text>
<text text-anchor="middle" x="208.39" y="-264.5" font-family="Helvetica,sans-Serif" font-size="10.00">/detail.hpp</text>
</a>
</g>
</g>
<!-- Node4&#45;&gt;Node10 -->
<g id="edge11" class="edge">
<title>Node4&#45;&gt;Node10</title>
<path fill="none" stroke="midnightblue" d="M560.88,-328.6C490.55,-318.95 381.58,-303.49 287.39,-288 282.71,-287.23 277.89,-286.41 273.03,-285.56"/>
<polygon fill="midnightblue" stroke="midnightblue" points="560.58,-332.1 570.96,-329.99 561.53,-325.16 560.58,-332.1"/>
</g>
<!-- Node13 -->
<g id="node13" class="node">
<title>Node13</title>
<g id="a_node13"><a xlink:href="flag_8hpp_source.html" target="_top" xlink:title=" ">
<polygon fill="none" stroke="black" points="971.89,-263 971.89,-282 1080.89,-282 1080.89,-263 971.89,-263"/>
<text text-anchor="middle" x="1026.39" y="-270" font-family="Helvetica,sans-Serif" font-size="10.00">arg_router/flag.hpp</text>
</a>
</g>
</g>
<!-- Node4&#45;&gt;Node13 -->
<g id="edge16" class="edge">
<title>Node4&#45;&gt;Node13</title>
<path fill="none" stroke="midnightblue" d="M708.41,-328.61C775.05,-319.35 875.58,-304.5 962.39,-288 971.57,-286.26 981.43,-284.14 990.6,-282.07"/>
<polygon fill="midnightblue" stroke="midnightblue" points="707.84,-325.16 698.42,-329.99 708.8,-332.09 707.84,-325.16"/>
</g>
<!-- Node14 -->
<g id="node14" class="node">
<title>Node14</title>
<g id="a_node14"><a xlink:href="help_8hpp_source.html" target="_top" xlink:title=" ">
<polygon fill="none" stroke="black" points="13.39,-263 13.39,-282 125.39,-282 125.39,-263 13.39,-263"/>
<text text-anchor="middle" x="69.39" y="-270" font-family="Helvetica,sans-Serif" font-size="10.00">arg_router/help.hpp</text>
</a>
</g>
</g>
<!-- Node4&#45;&gt;Node14 -->
<g id="edge18" class="edge">
<title>Node4&#45;&gt;Node14</title>
<path fill="none" stroke="midnightblue" d="M553.84,-333.32C454.7,-326.27 281.43,-311.74 134.39,-288 124.46,-286.4 113.77,-284.21 103.99,-282.02"/>
<polygon fill="midnightblue" stroke="midnightblue" points="553.86,-336.83 564.08,-334.04 554.35,-329.85 553.86,-336.83"/>
</g>
<!-- Node15 -->
<g id="node15" class="node">
<title>Node15</title>
<g id="a_node15"><a xlink:href="mode_8hpp_source.html" target="_top" xlink:title=" ">
<polygon fill="none" stroke="black" points="402.89,-196 402.89,-215 521.89,-215 521.89,-196 402.89,-196"/>
<text text-anchor="middle" x="462.39" y="-203" font-family="Helvetica,sans-Serif" font-size="10.00">arg_router/mode.hpp</text>
</a>
</g>
</g>
<!-- Node4&#45;&gt;Node15 -->
<g id="edge20" class="edge">
<title>Node4&#45;&gt;Node15</title>
<path fill="none" stroke="midnightblue" d="M554.22,-337.01C471.3,-333.58 349.87,-322.6 320.39,-288 311.46,-277.51 312.45,-268.26 320.39,-257 332.58,-239.74 385.9,-224.16 423.61,-215.01"/>
<polygon fill="midnightblue" stroke="midnightblue" points="554.25,-340.52 564.38,-337.41 554.52,-333.52 554.25,-340.52"/>
</g>
<!-- Node16 -->
<g id="node16" class="node">
<title>Node16</title>
<g id="a_node16"><a xlink:href="positional__arg_8hpp_source.html" target="_top" xlink:title=" ">
<polygon fill="none" stroke="black" points="577.39,-257.5 577.39,-287.5 695.39,-287.5 695.39,-257.5 577.39,-257.5"/>
<text text-anchor="start" x="585.39" y="-275.5" font-family="Helvetica,sans-Serif" font-size="10.00">arg_router/positional</text>
<text text-anchor="middle" x="636.39" y="-264.5" font-family="Helvetica,sans-Serif" font-size="10.00">_arg.hpp</text>
</a>
</g>
</g>
<!-- Node4&#45;&gt;Node16 -->
<g id="edge22" class="edge">
<title>Node4&#45;&gt;Node16</title>
<path fill="none" stroke="midnightblue" d="M634.98,-319.41C635.29,-309.22 635.67,-296.9 635.96,-287.59"/>
<polygon fill="midnightblue" stroke="midnightblue" points="631.47,-319.63 634.66,-329.73 638.47,-319.85 631.47,-319.63"/>
</g>
<!-- Node17 -->
<g id="node17" class="node">
<title>Node17</title>
<g id="a_node17"><a xlink:href="root_8hpp_source.html" target="_top" xlink:title=" ">
<polygon fill="none" stroke="black" points="713.39,-263 713.39,-282 823.39,-282 823.39,-263 713.39,-263"/>
<text text-anchor="middle" x="768.39" y="-270" font-family="Helvetica,sans-Serif" font-size="10.00">arg_router/root.hpp</text>
</a>
</g>
</g>
<!-- Node4&#45;&gt;Node17 -->
<g id="edge24" class="edge">
<title>Node4&#45;&gt;Node17</title>
<path fill="none" stroke="midnightblue" d="M661.31,-325.44C687.85,-312.57 727.66,-293.26 750.52,-282.17"/>
<polygon fill="midnightblue" stroke="midnightblue" points="659.66,-322.35 652.19,-329.87 662.71,-328.65 659.66,-322.35"/>
</g>
<!-- Node18 -->
<g id="node18" class="node">
<title>Node18</title>
<g id="a_node18"><a xlink:href="tree__recursor_8hpp_source.html" target="_top" xlink:title=" ">
<polygon fill="none" stroke="black" points="329.39,-257.5 329.39,-287.5 433.39,-287.5 433.39,-257.5 329.39,-257.5"/>
<text text-anchor="start" x="337.39" y="-275.5" font-family="Helvetica,sans-Serif" font-size="10.00">arg_router/utility</text>
<text text-anchor="middle" x="381.39" y="-264.5" font-family="Helvetica,sans-Serif" font-size="10.00">/tree_recursor.hpp</text>
</a>
</g>
</g>
<!-- Node4&#45;&gt;Node18 -->
<g id="edge26" class="edge">
<title>Node4&#45;&gt;Node18</title>
<path fill="none" stroke="midnightblue" d="M591.33,-327.44C547.76,-316.24 480.35,-298.92 433.73,-286.95"/>
<polygon fill="midnightblue" stroke="midnightblue" points="590.5,-330.84 601.06,-329.94 592.24,-324.06 590.5,-330.84"/>
</g>
<!-- Node6 -->
<g id="node6" class="node">
<title>Node6</title>
<g id="a_node6"><a xlink:href="validator_8hpp_source.html" target="_top" xlink:title=" ">
<polygon fill="none" stroke="black" points="745.39,-129 745.39,-148 911.39,-148 911.39,-129 745.39,-129"/>
<text text-anchor="middle" x="828.39" y="-136" font-family="Helvetica,sans-Serif" font-size="10.00">arg_router/policy/validator.hpp</text>
</a>
</g>
</g>
<!-- Node5&#45;&gt;Node6 -->
<g id="edge5" class="edge">
<title>Node5&#45;&gt;Node6</title>
<path fill="none" stroke="midnightblue" d="M551.91,-260.73C557.46,-259.46 563.05,-258.2 568.39,-257 641.63,-240.58 666.97,-255.96 733.39,-221 751.2,-211.63 751.25,-203.25 766.39,-190 783.74,-174.82 804.66,-158.1 817.22,-148.21"/>
<polygon fill="midnightblue" stroke="midnightblue" points="550.99,-257.35 542.02,-263 552.55,-264.17 550.99,-257.35"/>
</g>
<!-- Node7 -->
<g id="node7" class="node">
<title>Node7</title>
<g id="a_node7"><a xlink:href="arg__router_8hpp_source.html" target="_top" xlink:title=" ">
<polygon fill="none" stroke="black" points="1248.39,-0.5 1248.39,-19.5 1388.39,-19.5 1388.39,-0.5 1248.39,-0.5"/>
<text text-anchor="middle" x="1318.39" y="-7.5" font-family="Helvetica,sans-Serif" font-size="10.00">arg_router/arg_router.hpp</text>
</a>
</g>
</g>
<!-- Node6&#45;&gt;Node7 -->
<g id="edge6" class="edge">
<title>Node6&#45;&gt;Node7</title>
<path fill="none" stroke="midnightblue" d="M855.86,-124.75C895.55,-106.83 971.6,-74.34 1039.39,-56 1109.25,-37.1 1191.23,-25.04 1248.17,-18.21"/>
<polygon fill="midnightblue" stroke="midnightblue" points="854.24,-121.65 846.59,-128.98 857.14,-128.02 854.24,-121.65"/>
</g>
<!-- Node8 -->
<g id="node8" class="node">
<title>Node8</title>
<g id="a_node8"><a xlink:href="validator__rule__utilities_8hpp_source.html" target="_top" xlink:title=" ">
<polygon fill="none" stroke="black" points="1048.39,-56.5 1048.39,-86.5 1194.39,-86.5 1194.39,-56.5 1048.39,-56.5"/>
<text text-anchor="start" x="1056.39" y="-74.5" font-family="Helvetica,sans-Serif" font-size="10.00">arg_router/policy/validator</text>
<text text-anchor="middle" x="1121.39" y="-63.5" font-family="Helvetica,sans-Serif" font-size="10.00">_rule_utilities.hpp</text>
</a>
</g>
</g>
<!-- Node6&#45;&gt;Node8 -->
<g id="edge7" class="edge">
<title>Node6&#45;&gt;Node8</title>
<path fill="none" stroke="midnightblue" d="M876.83,-126.75C926.39,-115.76 1003.63,-98.63 1058.02,-86.56"/>
<polygon fill="midnightblue" stroke="midnightblue" points="876,-123.35 867,-128.94 877.52,-130.19 876,-123.35"/>
</g>
<!-- Node8&#45;&gt;Node7 -->
<g id="edge8" class="edge">
<title>Node8&#45;&gt;Node7</title>
<path fill="none" stroke="midnightblue" d="M1177.67,-53.5C1214.39,-42.41 1260.77,-28.4 1290.01,-19.57"/>
<polygon fill="midnightblue" stroke="midnightblue" points="1176.64,-50.16 1168.08,-56.4 1178.66,-56.86 1176.64,-50.16"/>
</g>
<!-- Node9&#45;&gt;Node6 -->
<g id="edge10" class="edge">
<title>Node9&#45;&gt;Node6</title>
<path fill="none" stroke="midnightblue" d="M885.36,-248.49C869.78,-218.68 843.38,-168.17 832.89,-148.1"/>
<polygon fill="midnightblue" stroke="midnightblue" points="882.27,-250.13 890.01,-257.37 888.48,-246.89 882.27,-250.13"/>
</g>
<!-- Node11 -->
<g id="node11" class="node">
<title>Node11</title>
<g id="a_node11"><a xlink:href="alias__group_8hpp_source.html" target="_top" xlink:title=" ">
<polygon fill="none" stroke="black" points="108.89,-190.5 108.89,-220.5 237.89,-220.5 237.89,-190.5 108.89,-190.5"/>
<text text-anchor="start" x="116.89" y="-208.5" font-family="Helvetica,sans-Serif" font-size="10.00">arg_router/dependency</text>
<text text-anchor="middle" x="173.39" y="-197.5" font-family="Helvetica,sans-Serif" font-size="10.00">/alias_group.hpp</text>
</a>
</g>
</g>
<!-- Node10&#45;&gt;Node11 -->
<g id="edge12" class="edge">
<title>Node10&#45;&gt;Node11</title>
<path fill="none" stroke="midnightblue" d="M196.05,-248.58C191.02,-239.24 185.37,-228.75 180.97,-220.58"/>
<polygon fill="midnightblue" stroke="midnightblue" points="192.98,-250.25 200.8,-257.4 199.14,-246.93 192.98,-250.25"/>
</g>
<!-- Node12 -->
<g id="node12" class="node">
<title>Node12</title>
<g id="a_node12"><a xlink:href="one__of_8hpp_source.html" target="_top" xlink:title=" ">
<polygon fill="none" stroke="black" points="255.89,-190.5 255.89,-220.5 384.89,-220.5 384.89,-190.5 255.89,-190.5"/>
<text text-anchor="start" x="263.89" y="-208.5" font-family="Helvetica,sans-Serif" font-size="10.00">arg_router/dependency</text>
<text text-anchor="middle" x="320.39" y="-197.5" font-family="Helvetica,sans-Serif" font-size="10.00">/one_of.hpp</text>
</a>
</g>
</g>
<!-- Node10&#45;&gt;Node12 -->
<g id="edge14" class="edge">
<title>Node10&#45;&gt;Node12</title>
<path fill="none" stroke="midnightblue" d="M241.48,-252.3C259.01,-242.12 280.15,-229.85 296.14,-220.58"/>
<polygon fill="midnightblue" stroke="midnightblue" points="239.59,-249.35 232.69,-257.4 243.1,-255.4 239.59,-249.35"/>
</g>
<!-- Node11&#45;&gt;Node6 -->
<g id="edge13" class="edge">
<title>Node11&#45;&gt;Node6</title>
<path fill="none" stroke="midnightblue" d="M248.25,-189.82C430.63,-164.34 633.98,-150.3 745.18,-143.85"/>
<polygon fill="midnightblue" stroke="midnightblue" points="247.62,-186.38 238.21,-191.24 248.6,-193.31 247.62,-186.38"/>
</g>
<!-- Node12&#45;&gt;Node6 -->
<g id="edge15" class="edge">
<title>Node12&#45;&gt;Node6</title>
<path fill="none" stroke="midnightblue" d="M395.15,-189.79C522.44,-170.09 659.61,-155.48 745.13,-147.15"/>
<polygon fill="midnightblue" stroke="midnightblue" points="394.56,-186.34 385.22,-191.34 395.64,-193.26 394.56,-186.34"/>
</g>
<!-- Node13&#45;&gt;Node6 -->
<g id="edge17" class="edge">
<title>Node13&#45;&gt;Node6</title>
<path fill="none" stroke="midnightblue" d="M1004.9,-257.17C963.62,-229.65 874.37,-170.15 841.17,-148.02"/>
<polygon fill="midnightblue" stroke="midnightblue" points="1003.14,-260.2 1013.4,-262.84 1007.02,-254.38 1003.14,-260.2"/>
</g>
<!-- Node14&#45;&gt;Node6 -->
<g id="edge19" class="edge">
<title>Node14&#45;&gt;Node6</title>
<path fill="none" stroke="midnightblue" d="M70.64,-252.62C73.01,-233.49 79.82,-204.68 99.39,-190 150.04,-152.01 564.98,-142.56 745.27,-140.24"/>
<polygon fill="midnightblue" stroke="midnightblue" points="67.13,-252.55 69.68,-262.83 74.1,-253.2 67.13,-252.55"/>
</g>
<!-- Node15&#45;&gt;Node6 -->
<g id="edge21" class="edge">
<title>Node15&#45;&gt;Node6</title>
<path fill="none" stroke="midnightblue" d="M515.29,-193.99C522.38,-192.62 529.56,-191.26 536.39,-190 620.63,-174.46 718.81,-157.78 777.17,-148"/>
<polygon fill="midnightblue" stroke="midnightblue" points="514.16,-190.64 505.01,-195.98 515.5,-197.51 514.16,-190.64"/>
</g>
<!-- Node16&#45;&gt;Node6 -->
<g id="edge23" class="edge">
<title>Node16&#45;&gt;Node6</title>
<path fill="none" stroke="midnightblue" d="M701.3,-254.16C723.32,-246.31 747.19,-235.46 766.39,-221 793.66,-200.47 814.9,-164.89 823.82,-148.38"/>
<polygon fill="midnightblue" stroke="midnightblue" points="699.99,-250.91 691.66,-257.45 702.26,-257.53 699.99,-250.91"/>
</g>
<!-- Node17&#45;&gt;Node6 -->
<g id="edge25" class="edge">
<title>Node17&#45;&gt;Node6</title>
<path fill="none" stroke="midnightblue" d="M782.3,-255C789.7,-245.54 798.48,-233.16 804.39,-221 816.53,-196.06 823.78,-163.8 826.78,-148.42"/>
<polygon fill="midnightblue" stroke="midnightblue" points="779.58,-252.8 776.01,-262.77 785.02,-257.2 779.58,-252.8"/>
</g>
<!-- Node18&#45;&gt;Node6 -->
<g id="edge32" class="edge">
<title>Node18&#45;&gt;Node6</title>
<path fill="none" stroke="midnightblue" d="M443.48,-255.69C471.03,-247.37 503.27,-235.79 530.39,-221 549.83,-210.4 549.29,-199.27 569.39,-190 624.93,-164.39 692.98,-151.76 745.38,-145.53"/>
<polygon fill="midnightblue" stroke="midnightblue" points="442.17,-252.42 433.57,-258.6 444.15,-259.14 442.17,-252.42"/>
</g>
<!-- Node18&#45;&gt;Node15 -->
<g id="edge27" class="edge">
<title>Node18&#45;&gt;Node15</title>
<path fill="none" stroke="midnightblue" d="M406.93,-251.01C421.97,-238.94 440.21,-224.3 451.56,-215.19"/>
<polygon fill="midnightblue" stroke="midnightblue" points="404.58,-248.41 398.97,-257.4 408.96,-253.87 404.58,-248.41"/>
</g>
<!-- Node19 -->
<g id="node19" class="node">
<title>Node19</title>
<g id="a_node19"><a xlink:href="alias_8hpp_source.html" target="_top" xlink:title=" ">
<polygon fill="none" stroke="black" points="578.39,-196 578.39,-215 724.39,-215 724.39,-196 578.39,-196"/>
<text text-anchor="middle" x="651.39" y="-203" font-family="Helvetica,sans-Serif" font-size="10.00">arg_router/policy/alias.hpp</text>
</a>
</g>
</g>
<!-- Node18&#45;&gt;Node19 -->
<g id="edge28" class="edge">
<title>Node18&#45;&gt;Node19</title>
<path fill="none" stroke="midnightblue" d="M443.49,-256.55C496.9,-243.69 572.06,-225.6 615.85,-215.06"/>
<polygon fill="midnightblue" stroke="midnightblue" points="442.35,-253.22 433.45,-258.97 443.99,-260.03 442.35,-253.22"/>
</g>
<!-- Node20 -->
<g id="node20" class="node">
<title>Node20</title>
<g id="a_node20"><a xlink:href="dependent_8hpp_source.html" target="_top" xlink:title=" ">
<polygon fill="none" stroke="black" points="1095.89,-196 1095.89,-215 1270.89,-215 1270.89,-196 1095.89,-196"/>
<text text-anchor="middle" x="1183.39" y="-203" font-family="Helvetica,sans-Serif" font-size="10.00">arg_router/policy/dependent.hpp</text>
</a>
</g>
</g>
<!-- Node18&#45;&gt;Node20 -->
<g id="edge30" class="edge">
<title>Node18&#45;&gt;Node20</title>
<path fill="none" stroke="midnightblue" d="M443.52,-257C684.26,-221.14 958.28,-210.86 1095.62,-207.8"/>
<polygon fill="midnightblue" stroke="midnightblue" points="442.89,-253.56 433.52,-258.51 443.93,-260.48 442.89,-253.56"/>
</g>
<!-- Node19&#45;&gt;Node6 -->
<g id="edge29" class="edge">
<title>Node19&#45;&gt;Node6</title>
<path fill="none" stroke="midnightblue" d="M684.69,-192.27C719.82,-179.37 774.27,-159.38 805.07,-148.06"/>
<polygon fill="midnightblue" stroke="midnightblue" points="683.08,-189.14 674.9,-195.87 685.49,-195.71 683.08,-189.14"/>
</g>
<!-- Node20&#45;&gt;Node7 -->
<g id="edge31" class="edge">
<title>Node20&#45;&gt;Node7</title>
<path fill="none" stroke="midnightblue" d="M1195.2,-187.58C1222.88,-147.9 1291.22,-49.95 1312.18,-19.91"/>
<polygon fill="midnightblue" stroke="midnightblue" points="1192.22,-185.73 1189.37,-195.94 1197.96,-189.74 1192.22,-185.73"/>
</g>
<!-- Node21&#45;&gt;Node17 -->
<g id="edge34" class="edge">
<title>Node21&#45;&gt;Node17</title>
<path fill="none" stroke="midnightblue" d="M869.7,-515.1C865.81,-485.06 857.16,-432.86 840.39,-391 822.78,-347.03 789.34,-300.79 775.09,-282.09"/>
<polygon fill="midnightblue" stroke="midnightblue" points="866.23,-515.61 870.92,-525.11 873.18,-514.76 866.23,-515.61"/>
</g>
<!-- Node22&#45;&gt;Node4 -->
<g id="edge41" class="edge">
<title>Node22&#45;&gt;Node4</title>
<path fill="none" stroke="midnightblue" d="M731.62,-386.97C705.49,-374.48 672.26,-358.6 652.19,-349.01"/>
<polygon fill="midnightblue" stroke="midnightblue" points="730.35,-390.24 740.88,-391.4 733.37,-383.93 730.35,-390.24"/>
</g>
<!-- Node22&#45;&gt;Node5 -->
<g id="edge36" class="edge">
<title>Node22&#45;&gt;Node5</title>
<path fill="none" stroke="midnightblue" d="M759.98,-382.3C750.46,-363.75 734.64,-338.51 713.39,-324 709.82,-321.56 601.06,-295.87 542.27,-282.1"/>
<polygon fill="midnightblue" stroke="midnightblue" points="756.84,-383.86 764.38,-391.3 763.13,-380.78 756.84,-383.86"/>
</g>
<!-- Node22&#45;&gt;Node9 -->
<g id="edge37" class="edge">
<title>Node22&#45;&gt;Node9</title>
<path fill="none" stroke="midnightblue" d="M791.18,-383.9C817.39,-356.65 861.72,-310.58 883.9,-287.52"/>
<polygon fill="midnightblue" stroke="midnightblue" points="788.39,-381.74 783.98,-391.37 793.44,-386.59 788.39,-381.74"/>
</g>
<!-- Node22&#45;&gt;Node13 -->
<g id="edge38" class="edge">
<title>Node22&#45;&gt;Node13</title>
<path fill="none" stroke="midnightblue" d="M806.7,-386.78C862.93,-357.79 968.85,-303.17 1009.72,-282.1"/>
<polygon fill="midnightblue" stroke="midnightblue" points="805.07,-383.68 797.79,-391.37 808.28,-389.9 805.07,-383.68"/>
</g>
<!-- Node22&#45;&gt;Node14 -->
<g id="edge39" class="edge">
<title>Node22&#45;&gt;Node14</title>
<path fill="none" stroke="midnightblue" d="M699.79,-393.33C582.25,-372.88 339.12,-329.73 134.39,-288 125.33,-286.15 115.58,-284.04 106.47,-282.02"/>
<polygon fill="midnightblue" stroke="midnightblue" points="699.29,-396.8 709.74,-395.06 700.49,-389.9 699.29,-396.8"/>
</g>
<!-- Node22&#45;&gt;Node16 -->
<g id="edge40" class="edge">
<title>Node22&#45;&gt;Node16</title>
<path fill="none" stroke="midnightblue" d="M768.57,-381.3C766.09,-363.6 760.22,-339.98 746.39,-324 731.61,-306.92 709.85,-295.28 689.57,-287.52"/>
<polygon fill="midnightblue" stroke="midnightblue" points="765.12,-381.9 769.73,-391.44 772.07,-381.11 765.12,-381.9"/>
</g>
<!-- Node23&#45;&gt;Node7 -->
<g id="edge43" class="edge">
<title>Node23&#45;&gt;Node7</title>
<path fill="none" stroke="midnightblue" d="M1302.58,-382.87C1329.13,-347.47 1375.39,-275.84 1375.39,-206.5 1375.39,-206.5 1375.39,-206.5 1375.39,-137.5 1375.39,-89.32 1340.6,-39.21 1325.38,-19.6"/>
<polygon fill="midnightblue" stroke="midnightblue" points="1299.6,-381 1296.29,-391.07 1305.15,-385.26 1299.6,-381"/>
</g>
<!-- Node24&#45;&gt;Node6 -->
<g id="edge45" class="edge">
<title>Node24&#45;&gt;Node6</title>
<path fill="none" stroke="midnightblue" d="M1062.52,-394.06C1085.34,-386.66 1107.44,-374.59 1121.39,-355 1135.38,-335.36 1114.37,-269.84 1106.39,-257 1063.88,-188.57 972.15,-159.95 905.67,-148.01"/>
<polygon fill="midnightblue" stroke="midnightblue" points="1061.31,-390.77 1052.72,-396.96 1063.3,-397.48 1061.31,-390.77"/>
</g>
<!-- Node25&#45;&gt;Node6 -->
<g id="edge47" class="edge">
<title>Node25&#45;&gt;Node6</title>
<path fill="none" stroke="midnightblue" d="M1196.51,-520.92C1198.53,-492.54 1203.7,-436.86 1215.39,-391 1238.58,-300.02 1342.99,-259.98 1280.39,-190 1256.29,-163.06 1035.38,-148.82 911.56,-142.9"/>
<polygon fill="midnightblue" stroke="midnightblue" points="1193.01,-520.79 1195.85,-531 1200,-521.25 1193.01,-520.79"/>
</g>
<!-- Node27 -->
<g id="node27" class="node">
<title>Node27</title>
<g id="a_node27"><a xlink:href="parsing_8hpp_source.html" target="_top" xlink:title=" ">
<polygon fill="none" stroke="black" points="1017.39,-458.5 1017.39,-488.5 1123.39,-488.5 1123.39,-458.5 1017.39,-458.5"/>
<text text-anchor="start" x="1025.39" y="-476.5" font-family="Helvetica,sans-Serif" font-size="10.00">arg_router/parsing</text>
<text text-anchor="middle" x="1070.39" y="-465.5" font-family="Helvetica,sans-Serif" font-size="10.00">/parsing.hpp</text>
</a>
</g>
</g>
<!-- Node26&#45;&gt;Node27 -->
<g id="edge49" class="edge">
<title>Node26&#45;&gt;Node27</title>
<path fill="none" stroke="midnightblue" d="M1058.98,-515.7C1061.51,-506.59 1064.3,-496.49 1066.49,-488.58"/>
<polygon fill="midnightblue" stroke="midnightblue" points="1055.59,-514.82 1056.3,-525.4 1062.34,-516.69 1055.59,-514.82"/>
</g>
<!-- Node27&#45;&gt;Node4 -->
<g id="edge60" class="edge">
<title>Node27&#45;&gt;Node4</title>
<path fill="none" stroke="midnightblue" d="M1007.13,-469.39C915.83,-463.97 752.49,-450.54 701.39,-422 685.4,-413.07 653.5,-368.35 640.31,-349.21"/>
<polygon fill="midnightblue" stroke="midnightblue" points="1007.16,-472.89 1017.35,-469.98 1007.57,-465.91 1007.16,-472.89"/>
</g>
<!-- Node27&#45;&gt;Node20 -->
<g id="edge50" class="edge">
<title>Node27&#45;&gt;Node20</title>
<path fill="none" stroke="midnightblue" d="M1092.66,-451.02C1114.01,-429.03 1145.28,-392.79 1161.39,-355 1182.55,-305.37 1183.88,-238.91 1183.61,-215.28"/>
<polygon fill="midnightblue" stroke="midnightblue" points="1090.12,-448.62 1085.57,-458.19 1095.09,-453.54 1090.12,-448.62"/>
</g>
<!-- Node27&#45;&gt;Node22 -->
<g id="edge51" class="edge">
<title>Node27&#45;&gt;Node22</title>
<path fill="none" stroke="midnightblue" d="M1007.01,-458.77C955.08,-447.51 882.07,-431.7 830.92,-420.61"/>
<polygon fill="midnightblue" stroke="midnightblue" points="1006.59,-462.26 1017.1,-460.95 1008.07,-455.42 1006.59,-462.26"/>
</g>
<!-- Node27&#45;&gt;Node23 -->
<g id="edge52" class="edge">
<title>Node27&#45;&gt;Node23</title>
<path fill="none" stroke="midnightblue" d="M1126.55,-455.44C1161.23,-444.91 1205.21,-431.55 1237.93,-421.61"/>
<polygon fill="midnightblue" stroke="midnightblue" points="1125.11,-452.22 1116.56,-458.48 1127.15,-458.92 1125.11,-452.22"/>
</g>
<!-- Node27&#45;&gt;Node24 -->
<g id="edge53" class="edge">
<title>Node27&#45;&gt;Node24</title>
<path fill="none" stroke="midnightblue" d="M1041.37,-452.64C1023.44,-440.37 1001.35,-425.26 987.83,-416.01"/>
<polygon fill="midnightblue" stroke="midnightblue" points="1039.55,-455.64 1049.78,-458.4 1043.5,-449.86 1039.55,-455.64"/>
</g>
<!-- Node28 -->
<g id="node28" class="node">
<title>Node28</title>
<g id="a_node28"><a xlink:href="short__form__expander_8hpp_source.html" target="_top" xlink:title=" ">
<polygon fill="none" stroke="black" points="984.89,-324.5 984.89,-354.5 1111.89,-354.5 1111.89,-324.5 984.89,-324.5"/>
<text text-anchor="start" x="992.89" y="-342.5" font-family="Helvetica,sans-Serif" font-size="10.00">arg_router/policy/short</text>
<text text-anchor="middle" x="1048.39" y="-331.5" font-family="Helvetica,sans-Serif" font-size="10.00">_form_expander.hpp</text>
</a>
</g>
</g>
<!-- Node27&#45;&gt;Node28 -->
<g id="edge54" class="edge">
<title>Node27&#45;&gt;Node28</title>
<path fill="none" stroke="midnightblue" d="M1071.05,-447.91C1071.03,-431.62 1070.13,-409.85 1066.39,-391 1063.89,-378.4 1058.86,-364.71 1054.75,-354.77"/>
<polygon fill="midnightblue" stroke="midnightblue" points="1067.55,-448.18 1070.95,-458.21 1074.55,-448.25 1067.55,-448.18"/>
</g>
<!-- Node27&#45;&gt;Node29 -->
<g id="edge58" class="edge">
<title>Node27&#45;&gt;Node29</title>
<path fill="none" stroke="midnightblue" d="M1133.85,-462.08C1207.32,-450.02 1327.71,-430.26 1401.71,-418.12"/>
<polygon fill="midnightblue" stroke="midnightblue" points="1133.1,-458.66 1123.8,-463.73 1134.23,-465.57 1133.1,-458.66"/>
</g>
<!-- Node28&#45;&gt;Node6 -->
<g id="edge57" class="edge">
<title>Node28&#45;&gt;Node6</title>
<path fill="none" stroke="midnightblue" d="M1071.8,-317.29C1087.46,-300.46 1103.06,-276.59 1090.39,-257 1063.39,-215.25 919.36,-167.21 857.1,-148.04"/>
<polygon fill="midnightblue" stroke="midnightblue" points="1069.24,-314.91 1064.71,-324.49 1074.22,-319.82 1069.24,-314.91"/>
</g>
<!-- Node28&#45;&gt;Node9 -->
<g id="edge55" class="edge">
<title>Node28&#45;&gt;Node9</title>
<path fill="none" stroke="midnightblue" d="M1006.36,-320.41C982.25,-310.03 952.44,-297.2 930.09,-287.58"/>
<polygon fill="midnightblue" stroke="midnightblue" points="1005.06,-323.66 1015.63,-324.4 1007.83,-317.23 1005.06,-323.66"/>
</g>
<!-- Node28&#45;&gt;Node13 -->
<g id="edge56" class="edge">
<title>Node28&#45;&gt;Node13</title>
<path fill="none" stroke="midnightblue" d="M1040.3,-314.6C1036.47,-303.28 1032.13,-290.46 1029.34,-282.19"/>
<polygon fill="midnightblue" stroke="midnightblue" points="1037.1,-316.05 1043.62,-324.4 1043.73,-313.8 1037.1,-316.05"/>
</g>
<!-- Node29&#45;&gt;Node7 -->
<g id="edge59" class="edge">
<title>Node29&#45;&gt;Node7</title>
<path fill="none" stroke="midnightblue" d="M1458.78,-381.62C1451.11,-355.39 1440.39,-311.89 1440.39,-273.5 1440.39,-273.5 1440.39,-273.5 1440.39,-137.5 1440.39,-78.61 1371.05,-36.62 1336.92,-19.51"/>
<polygon fill="midnightblue" stroke="midnightblue" points="1455.5,-382.86 1461.74,-391.42 1462.2,-380.84 1455.5,-382.86"/>
</g>
<!-- Node30&#45;&gt;Node7 -->
<g id="edge62" class="edge">
<title>Node30&#45;&gt;Node7</title>
<path fill="none" stroke="midnightblue" d="M1557.86,-453.72C1558.45,-428.12 1559.39,-380.85 1559.39,-340.5 1559.39,-340.5 1559.39,-340.5 1559.39,-137.5 1559.39,-59.65 1459.58,-29.61 1388.42,-18.09"/>
<polygon fill="midnightblue" stroke="midnightblue" points="1554.35,-453.77 1557.61,-463.85 1561.35,-453.94 1554.35,-453.77"/>
</g>
<!-- Node31&#45;&gt;Node7 -->
<g id="edge64" class="edge">
<title>Node31&#45;&gt;Node7</title>
<path fill="none" stroke="midnightblue" d="M1633.99,-115C1620.65,-96.11 1599.02,-70.03 1573.39,-56 1516.31,-24.76 1442.25,-14.46 1388.67,-11.41"/>
<polygon fill="midnightblue" stroke="midnightblue" points="1631.17,-117.07 1639.69,-123.36 1636.95,-113.12 1631.17,-117.07"/>
</g>
<!-- Node32&#45;&gt;Node14 -->
<g id="edge66" class="edge">
<title>Node32&#45;&gt;Node14</title>
<path fill="none" stroke="midnightblue" d="M69.39,-314.25C69.39,-303.02 69.39,-290.38 69.39,-282.19"/>
<polygon fill="midnightblue" stroke="midnightblue" points="65.89,-314.4 69.39,-324.4 72.89,-314.4 65.89,-314.4"/>
</g>
<!-- Node33 -->
<g id="node33" class="node">
<title>Node33</title>
<g id="a_node33"><a xlink:href="colour__help__formatter_8hpp_source.html" target="_top" xlink:title=" ">
<polygon fill="none" stroke="black" points="179.39,-56.5 179.39,-86.5 311.39,-86.5 311.39,-56.5 179.39,-56.5"/>
<text text-anchor="start" x="187.39" y="-74.5" font-family="Helvetica,sans-Serif" font-size="10.00">arg_router/policy/colour</text>
<text text-anchor="middle" x="245.39" y="-63.5" font-family="Helvetica,sans-Serif" font-size="10.00">_help_formatter.hpp</text>
</a>
</g>
</g>
<!-- Node32&#45;&gt;Node33 -->
<g id="edge67" class="edge">
<title>Node32&#45;&gt;Node33</title>
<path fill="none" stroke="midnightblue" d="M32.44,-318.72C21.34,-310.76 10.5,-300.48 4.39,-288 -1.66,-275.62 -1.06,-269.65 4.39,-257 43,-167.49 151.66,-111 208.97,-86.55"/>
<polygon fill="midnightblue" stroke="midnightblue" points="30.64,-321.72 40.91,-324.35 34.52,-315.9 30.64,-321.72"/>
</g>
<!-- Node33&#45;&gt;Node7 -->
<g id="edge68" class="edge">
<title>Node33&#45;&gt;Node7</title>
<path fill="none" stroke="midnightblue" d="M321.81,-66.26C521.39,-55.2 1056.15,-25.54 1248.37,-14.88"/>
<polygon fill="midnightblue" stroke="midnightblue" points="321.49,-62.77 311.7,-66.82 321.88,-69.76 321.49,-62.77"/>
</g>
<!-- Node34&#45;&gt;Node6 -->
<g id="edge70" class="edge">
<title>Node34&#45;&gt;Node6</title>
<path fill="none" stroke="midnightblue" d="M1373.39,-581.99C1373.39,-555.49 1373.39,-512 1373.39,-474.5 1373.39,-474.5 1373.39,-474.5 1373.39,-405.5 1373.39,-304.66 1380.85,-253.36 1302.39,-190 1272.67,-166 1039.29,-150.35 911.45,-143.49"/>
<polygon fill="midnightblue" stroke="midnightblue" points="1369.89,-582.24 1373.39,-592.24 1376.89,-582.24 1369.89,-582.24"/>
</g>
</g>
</svg>
