<?xml version="1.0" encoding="UTF-8" standalone="no"?>
<!DOCTYPE svg PUBLIC "-//W3C//DTD SVG 1.1//EN"
 "http://www.w3.org/Graphics/SVG/1.1/DTD/svg11.dtd">
<!-- Generated by graphviz version 2.43.0 (0)
 -->
<!-- Title: arg_router/utility/compile_time_string.hpp Pages: 1 -->
<!--zoomable 363 -->
<svg id="main" version="1.1" xmlns="http://www.w3.org/2000/svg" xmlns:xlink="http://www.w3.org/1999/xlink" xml:space="preserve" onload="init(evt)">
<style type="text/css"><![CDATA[
.edge:hover path { stroke: red; }
.edge:hover polygon { stroke: red; fill: red; }
]]></style>
<script type="text/javascript"><![CDATA[
var edges = document.getElementsByTagName('g');
if (edges && edges.length) {
  for (var i=0;i<edges.length;i++) {
    if (edges[i].id.substr(0,4)=='edge') {
      edges[i].setAttribute('class','edge');
    }
  }
}
]]></script>
        <defs>
                <circle id="rim" cx="0" cy="0" r="7"/>
                <circle id="rim2" cx="0" cy="0" r="3.5"/>
                <g id="zoomPlus">
                        <use xlink:href="#rim" fill="#404040">
                                <set attributeName="fill" to="#808080" begin="zoomplus.mouseover" end="zoomplus.mouseout"/>
                        </use>
                        <path d="M-4,0h8M0,-4v8" fill="none" stroke="white" stroke-width="1.5" pointer-events="none"/>
                </g>
                <g id="zoomMin">
                        <use xlink:href="#rim" fill="#404040">
                                <set attributeName="fill" to="#808080" begin="zoomminus.mouseover" end="zoomminus.mouseout"/>
                        </use>
                        <path d="M-4,0h8" fill="none" stroke="white" stroke-width="1.5" pointer-events="none"/>
                </g>
                <g id="dirArrow">
                        <path fill="none" stroke="white" stroke-width="1.5" d="M0,-3.0v7 M-2.5,-0.5L0,-3.0L2.5,-0.5"/>
                </g>
               <g id="resetDef">
                       <use xlink:href="#rim2" fill="#404040">
                               <set attributeName="fill" to="#808080" begin="reset.mouseover" end="reset.mouseout"/>
                       </use>
               </g>
        </defs>

<script type="text/javascript">
var viewWidth = 1278;
var viewHeight = 363;
var sectionId = 'dynsection-1';
</script>
<script xlink:href="svgpan.js"/>
<svg id="graph" class="graph">
<g id="viewport">
<title>arg_router/utility/compile_time_string.hpp</title>
<polygon fill="white" stroke="transparent" points="-4,4 -4,-359 1274.46,-359 1274.46,4 -4,4"/>
<!-- Node1 -->
<g id="node1" class="node">
<title>Node1</title>
<g id="a_node1"><a xlink:title=" ">
<polygon fill="#bfbfbf" stroke="black" points="555.23,-324.5 555.23,-354.5 695.23,-354.5 695.23,-324.5 555.23,-324.5"/>
<text text-anchor="start" x="563.23" y="-342.5" font-family="Helvetica,sans-Serif" font-size="10.00">arg_router/utility</text>
<text text-anchor="middle" x="625.23" y="-331.5" font-family="Helvetica,sans-Serif" font-size="10.00">/compile_time_string.hpp</text>
</a>
</g>
</g>
<!-- Node2 -->
<g id="node2" class="node">
<title>Node2</title>
<g id="a_node2"><a xlink:href="short__name_8hpp_source.html" target="_top" xlink:title=" ">
<polygon fill="white" stroke="black" points="962.73,-257.5 962.73,-287.5 1089.73,-287.5 1089.73,-257.5 962.73,-257.5"/>
<text text-anchor="start" x="970.73" y="-275.5" font-family="Helvetica,sans-Serif" font-size="10.00">arg_router/policy/short</text>
<text text-anchor="middle" x="1026.23" y="-264.5" font-family="Helvetica,sans-Serif" font-size="10.00">_name.hpp</text>
</a>
</g>
</g>
<!-- Node1&#45;&gt;Node2 -->
<g id="edge1" class="edge">
<title>Node1&#45;&gt;Node2</title>
<path fill="none" stroke="midnightblue" d="M705.5,-325.49C781.13,-313.23 892.97,-295.1 962.62,-283.81"/>
<polygon fill="midnightblue" stroke="midnightblue" points="704.84,-322.05 695.53,-327.1 705.96,-328.96 704.84,-322.05"/>
</g>
<!-- Node5 -->
<g id="node5" class="node">
<title>Node5</title>
<g id="a_node5"><a xlink:href="value__separator_8hpp_source.html" target="_top" xlink:title=" ">
<polygon fill="white" stroke="black" points="121.73,-56.5 121.73,-86.5 250.73,-86.5 250.73,-56.5 121.73,-56.5"/>
<text text-anchor="start" x="129.73" y="-74.5" font-family="Helvetica,sans-Serif" font-size="10.00">arg_router/policy/value</text>
<text text-anchor="middle" x="186.23" y="-63.5" font-family="Helvetica,sans-Serif" font-size="10.00">_separator.hpp</text>
</a>
</g>
</g>
<!-- Node1&#45;&gt;Node5 -->
<g id="edge4" class="edge">
<title>Node1&#45;&gt;Node5</title>
<path fill="none" stroke="midnightblue" d="M545.14,-335.12C396.23,-326.98 85.89,-300.64 20.23,-221 -7.48,-187.39 -5.71,-157.99 20.23,-123 43.45,-91.66 85.66,-79.1 121.7,-74.35"/>
<polygon fill="midnightblue" stroke="midnightblue" points="544.97,-338.62 555.14,-335.65 545.34,-331.63 544.97,-338.62"/>
</g>
<!-- Node6 -->
<g id="node6" class="node">
<title>Node6</title>
<g id="a_node6"><a xlink:href="tree__node_8hpp_source.html" target="_top" xlink:title=" ">
<polygon fill="white" stroke="black" points="555.23,-263 555.23,-282 695.23,-282 695.23,-263 555.23,-263"/>
<text text-anchor="middle" x="625.23" y="-270" font-family="Helvetica,sans-Serif" font-size="10.00">arg_router/tree_node.hpp</text>
</a>
</g>
</g>
<!-- Node1&#45;&gt;Node6 -->
<g id="edge6" class="edge">
<title>Node1&#45;&gt;Node6</title>
<path fill="none" stroke="midnightblue" d="M625.23,-314.25C625.23,-303.02 625.23,-290.38 625.23,-282.19"/>
<polygon fill="midnightblue" stroke="midnightblue" points="621.73,-314.4 625.23,-324.4 628.73,-314.4 621.73,-314.4"/>
</g>
<!-- Node3 -->
<g id="node3" class="node">
<title>Node3</title>
<g id="a_node3"><a xlink:href="validator_8hpp_source.html" target="_top" xlink:title=" ">
<polygon fill="white" stroke="black" points="409.23,-62 409.23,-81 575.23,-81 575.23,-62 409.23,-62"/>
<text text-anchor="middle" x="492.23" y="-69" font-family="Helvetica,sans-Serif" font-size="10.00">arg_router/policy/validator.hpp</text>
</a>
</g>
</g>
<!-- Node2&#45;&gt;Node3 -->
<g id="edge2" class="edge">
<title>Node2&#45;&gt;Node3</title>
<path fill="none" stroke="midnightblue" d="M1096.72,-254.84C1183.65,-231.21 1313.31,-183.98 1256.23,-123 1210.49,-74.14 763.97,-70.9 575.49,-71.74"/>
<polygon fill="midnightblue" stroke="midnightblue" points="1095.64,-251.51 1086.88,-257.47 1097.44,-258.27 1095.64,-251.51"/>
</g>
<!-- Node4 -->
<g id="node4" class="node">
<title>Node4</title>
<g id="a_node4"><a xlink:href="arg__router_8hpp_source.html" target="_top" xlink:title=" ">
<polygon fill="white" stroke="black" points="199.23,-0.5 199.23,-19.5 339.23,-19.5 339.23,-0.5 199.23,-0.5"/>
<text text-anchor="middle" x="269.23" y="-7.5" font-family="Helvetica,sans-Serif" font-size="10.00">arg_router/arg_router.hpp</text>
</a>
</g>
</g>
<!-- Node3&#45;&gt;Node4 -->
<g id="edge3" class="edge">
<title>Node3&#45;&gt;Node4</title>
<path fill="none" stroke="midnightblue" d="M450.61,-59.4C407.3,-47.84 340.42,-30 301.12,-19.51"/>
<polygon fill="midnightblue" stroke="midnightblue" points="449.71,-62.78 460.28,-61.98 451.52,-56.02 449.71,-62.78"/>
</g>
<!-- Node5&#45;&gt;Node4 -->
<g id="edge5" class="edge">
<title>Node5&#45;&gt;Node4</title>
<path fill="none" stroke="midnightblue" d="M214.15,-50.48C228.77,-40 245.92,-27.71 257.15,-19.66"/>
<polygon fill="midnightblue" stroke="midnightblue" points="211.98,-47.73 205.9,-56.4 216.06,-53.42 211.98,-47.73"/>
</g>
<!-- Node7 -->
<g id="node7" class="node">
<title>Node7</title>
<g id="a_node7"><a xlink:href="arg_8hpp_source.html" target="_top" xlink:title=" ">
<polygon fill="white" stroke="black" points="1009.73,-129 1009.73,-148 1116.73,-148 1116.73,-129 1009.73,-129"/>
<text text-anchor="middle" x="1063.23" y="-136" font-family="Helvetica,sans-Serif" font-size="10.00">arg_router/arg.hpp</text>
</a>
</g>
</g>
<!-- Node6&#45;&gt;Node7 -->
<g id="edge7" class="edge">
<title>Node6&#45;&gt;Node7</title>
<path fill="none" stroke="midnightblue" d="M682.06,-261.01C727.69,-252.03 793.16,-237.9 849.23,-221 922.31,-198.97 1006.14,-164.14 1043.49,-148.1"/>
<polygon fill="midnightblue" stroke="midnightblue" points="681.21,-257.61 672.06,-262.96 682.54,-264.48 681.21,-257.61"/>
</g>
<!-- Node8 -->
<g id="node8" class="node">
<title>Node8</title>
<g id="a_node8"><a xlink:href="counting__flag_8hpp_source.html" target="_top" xlink:title=" ">
<polygon fill="white" stroke="black" points="1135.23,-123.5 1135.23,-153.5 1247.23,-153.5 1247.23,-123.5 1135.23,-123.5"/>
<text text-anchor="start" x="1143.23" y="-141.5" font-family="Helvetica,sans-Serif" font-size="10.00">arg_router/counting</text>
<text text-anchor="middle" x="1191.23" y="-130.5" font-family="Helvetica,sans-Serif" font-size="10.00">_flag.hpp</text>
</a>
</g>
</g>
<!-- Node6&#45;&gt;Node8 -->
<g id="edge9" class="edge">
<title>Node6&#45;&gt;Node8</title>
<path fill="none" stroke="midnightblue" d="M692.59,-261.42C749.97,-252.37 834.44,-237.91 907.23,-221 993.16,-201.03 1091.83,-171.1 1147.32,-153.62"/>
<polygon fill="midnightblue" stroke="midnightblue" points="691.9,-257.99 682.56,-263 692.98,-264.91 691.9,-257.99"/>
</g>
<!-- Node9 -->
<g id="node9" class="node">
<title>Node9</title>
<g id="a_node9"><a xlink:href="detail_8hpp_source.html" target="_top" xlink:title=" ">
<polygon fill="white" stroke="black" points="29.73,-190.5 29.73,-220.5 158.73,-220.5 158.73,-190.5 29.73,-190.5"/>
<text text-anchor="start" x="37.73" y="-208.5" font-family="Helvetica,sans-Serif" font-size="10.00">arg_router/dependency</text>
<text text-anchor="middle" x="94.23" y="-197.5" font-family="Helvetica,sans-Serif" font-size="10.00">/detail.hpp</text>
</a>
</g>
</g>
<!-- Node6&#45;&gt;Node9 -->
<g id="edge11" class="edge">
<title>Node6&#45;&gt;Node9</title>
<path fill="none" stroke="midnightblue" d="M545.11,-264.78C453.47,-256.6 299.06,-241.32 167.23,-221 164.54,-220.59 161.81,-220.14 159.05,-219.68"/>
<polygon fill="midnightblue" stroke="midnightblue" points="544.88,-268.27 555.15,-265.67 545.49,-261.3 544.88,-268.27"/>
</g>
<!-- Node12 -->
<g id="node12" class="node">
<title>Node12</title>
<g id="a_node12"><a xlink:href="flag_8hpp_source.html" target="_top" xlink:title=" ">
<polygon fill="white" stroke="black" points="176.73,-196 176.73,-215 285.73,-215 285.73,-196 176.73,-196"/>
<text text-anchor="middle" x="231.23" y="-203" font-family="Helvetica,sans-Serif" font-size="10.00">arg_router/flag.hpp</text>
</a>
</g>
</g>
<!-- Node6&#45;&gt;Node12 -->
<g id="edge16" class="edge">
<title>Node6&#45;&gt;Node12</title>
<path fill="none" stroke="midnightblue" d="M550.44,-261.6C483.39,-252.35 382.43,-237.53 295.23,-221 285.94,-219.24 275.94,-217.1 266.68,-215"/>
<polygon fill="midnightblue" stroke="midnightblue" points="550.11,-265.09 560.5,-262.98 551.07,-258.15 550.11,-265.09"/>
</g>
<!-- Node13 -->
<g id="node13" class="node">
<title>Node13</title>
<g id="a_node13"><a xlink:href="help_8hpp_source.html" target="_top" xlink:title=" ">
<polygon fill="white" stroke="black" points="304.23,-196 304.23,-215 416.23,-215 416.23,-196 304.23,-196"/>
<text text-anchor="middle" x="360.23" y="-203" font-family="Helvetica,sans-Serif" font-size="10.00">arg_router/help.hpp</text>
</a>
</g>
</g>
<!-- Node6&#45;&gt;Node13 -->
<g id="edge18" class="edge">
<title>Node6&#45;&gt;Node13</title>
<path fill="none" stroke="midnightblue" d="M580.31,-260.48C528.04,-247.66 442.83,-226.76 395.22,-215.08"/>
<polygon fill="midnightblue" stroke="midnightblue" points="579.76,-263.95 590.31,-262.94 581.43,-257.15 579.76,-263.95"/>
</g>
<!-- Node14 -->
<g id="node14" class="node">
<title>Node14</title>
<g id="a_node14"><a xlink:href="mode_8hpp_source.html" target="_top" xlink:title=" ">
<polygon fill="white" stroke="black" points="476.73,-129 476.73,-148 595.73,-148 595.73,-129 476.73,-129"/>
<text text-anchor="middle" x="536.23" y="-136" font-family="Helvetica,sans-Serif" font-size="10.00">arg_router/mode.hpp</text>
</a>
</g>
</g>
<!-- Node6&#45;&gt;Node14 -->
<g id="edge20" class="edge">
<title>Node6&#45;&gt;Node14</title>
<path fill="none" stroke="midnightblue" d="M649.64,-257.5C674.41,-241.46 706.78,-214.28 689.23,-190 676.24,-172.04 620.68,-156.96 580.25,-148.08"/>
<polygon fill="midnightblue" stroke="midnightblue" points="647.62,-254.63 640.96,-262.87 651.31,-260.58 647.62,-254.63"/>
</g>
<!-- Node15 -->
<g id="node15" class="node">
<title>Node15</title>
<g id="a_node15"><a xlink:href="positional__arg_8hpp_source.html" target="_top" xlink:title=" ">
<polygon fill="white" stroke="black" points="434.23,-190.5 434.23,-220.5 552.23,-220.5 552.23,-190.5 434.23,-190.5"/>
<text text-anchor="start" x="442.23" y="-208.5" font-family="Helvetica,sans-Serif" font-size="10.00">arg_router/positional</text>
<text text-anchor="middle" x="493.23" y="-197.5" font-family="Helvetica,sans-Serif" font-size="10.00">_arg.hpp</text>
</a>
</g>
</g>
<!-- Node6&#45;&gt;Node15 -->
<g id="edge22" class="edge">
<title>Node6&#45;&gt;Node15</title>
<path fill="none" stroke="midnightblue" d="M598.5,-258.34C576.28,-247.4 544.73,-231.86 521.96,-220.65"/>
<polygon fill="midnightblue" stroke="midnightblue" points="597.18,-261.59 607.7,-262.87 600.27,-255.31 597.18,-261.59"/>
</g>
<!-- Node16 -->
<g id="node16" class="node">
<title>Node16</title>
<g id="a_node16"><a xlink:href="root_8hpp_source.html" target="_top" xlink:title=" ">
<polygon fill="white" stroke="black" points="570.23,-196 570.23,-215 680.23,-215 680.23,-196 570.23,-196"/>
<text text-anchor="middle" x="625.23" y="-203" font-family="Helvetica,sans-Serif" font-size="10.00">arg_router/root.hpp</text>
</a>
</g>
</g>
<!-- Node6&#45;&gt;Node16 -->
<g id="edge24" class="edge">
<title>Node6&#45;&gt;Node16</title>
<path fill="none" stroke="midnightblue" d="M625.23,-252.54C625.23,-240.17 625.23,-224.62 625.23,-215.13"/>
<polygon fill="midnightblue" stroke="midnightblue" points="621.73,-252.73 625.23,-262.73 628.73,-252.73 621.73,-252.73"/>
</g>
<!-- Node17 -->
<g id="node17" class="node">
<title>Node17</title>
<g id="a_node17"><a xlink:href="tree__recursor_8hpp_source.html" target="_top" xlink:title=" ">
<polygon fill="white" stroke="black" points="736.23,-190.5 736.23,-220.5 840.23,-220.5 840.23,-190.5 736.23,-190.5"/>
<text text-anchor="start" x="744.23" y="-208.5" font-family="Helvetica,sans-Serif" font-size="10.00">arg_router/utility</text>
<text text-anchor="middle" x="788.23" y="-197.5" font-family="Helvetica,sans-Serif" font-size="10.00">/tree_recursor.hpp</text>
</a>
</g>
</g>
<!-- Node6&#45;&gt;Node17 -->
<g id="edge26" class="edge">
<title>Node6&#45;&gt;Node17</title>
<path fill="none" stroke="midnightblue" d="M656.43,-259.06C684.04,-248.05 724.3,-231.99 753.05,-220.53"/>
<polygon fill="midnightblue" stroke="midnightblue" points="654.86,-255.91 646.87,-262.87 657.46,-262.42 654.86,-255.91"/>
</g>
<!-- Node7&#45;&gt;Node3 -->
<g id="edge8" class="edge">
<title>Node7&#45;&gt;Node3</title>
<path fill="none" stroke="midnightblue" d="M1020.38,-126.71C1013.99,-125.33 1007.45,-124.03 1001.23,-123 852.3,-98.31 676.71,-84.14 575.54,-77.41"/>
<polygon fill="midnightblue" stroke="midnightblue" points="1019.72,-130.15 1030.25,-128.94 1021.26,-123.32 1019.72,-130.15"/>
</g>
<!-- Node8&#45;&gt;Node3 -->
<g id="edge10" class="edge">
<title>Node8&#45;&gt;Node3</title>
<path fill="none" stroke="midnightblue" d="M1125.02,-122.96C922.62,-93.05 695.11,-80.43 575.48,-75.42"/>
<polygon fill="midnightblue" stroke="midnightblue" points="1124.54,-126.42 1134.95,-124.44 1125.57,-119.5 1124.54,-126.42"/>
</g>
<!-- Node10 -->
<g id="node10" class="node">
<title>Node10</title>
<g id="a_node10"><a xlink:href="alias__group_8hpp_source.html" target="_top" xlink:title=" ">
<polygon fill="white" stroke="black" points="29.73,-123.5 29.73,-153.5 158.73,-153.5 158.73,-123.5 29.73,-123.5"/>
<text text-anchor="start" x="37.73" y="-141.5" font-family="Helvetica,sans-Serif" font-size="10.00">arg_router/dependency</text>
<text text-anchor="middle" x="94.23" y="-130.5" font-family="Helvetica,sans-Serif" font-size="10.00">/alias_group.hpp</text>
</a>
</g>
</g>
<!-- Node9&#45;&gt;Node10 -->
<g id="edge12" class="edge">
<title>Node9&#45;&gt;Node10</title>
<path fill="none" stroke="midnightblue" d="M94.23,-180.11C94.23,-171.15 94.23,-161.32 94.23,-153.58"/>
<polygon fill="midnightblue" stroke="midnightblue" points="90.73,-180.4 94.23,-190.4 97.73,-180.4 90.73,-180.4"/>
</g>
<!-- Node11 -->
<g id="node11" class="node">
<title>Node11</title>
<g id="a_node11"><a xlink:href="one__of_8hpp_source.html" target="_top" xlink:title=" ">
<polygon fill="white" stroke="black" points="176.73,-123.5 176.73,-153.5 305.73,-153.5 305.73,-123.5 176.73,-123.5"/>
<text text-anchor="start" x="184.73" y="-141.5" font-family="Helvetica,sans-Serif" font-size="10.00">arg_router/dependency</text>
<text text-anchor="middle" x="241.23" y="-130.5" font-family="Helvetica,sans-Serif" font-size="10.00">/one_of.hpp</text>
</a>
</g>
</g>
<!-- Node9&#45;&gt;Node11 -->
<g id="edge14" class="edge">
<title>Node9&#45;&gt;Node11</title>
<path fill="none" stroke="midnightblue" d="M135.46,-186.27C158.87,-175.92 187.73,-163.15 209.39,-153.58"/>
<polygon fill="midnightblue" stroke="midnightblue" points="133.85,-183.15 126.12,-190.4 136.68,-189.55 133.85,-183.15"/>
</g>
<!-- Node10&#45;&gt;Node3 -->
<g id="edge13" class="edge">
<title>Node10&#45;&gt;Node3</title>
<path fill="none" stroke="midnightblue" d="M169.11,-122.7C266.68,-105.59 369.38,-90.18 432.5,-81.01"/>
<polygon fill="midnightblue" stroke="midnightblue" points="168.32,-119.29 159.08,-124.47 169.53,-126.18 168.32,-119.29"/>
</g>
<!-- Node11&#45;&gt;Node3 -->
<g id="edge15" class="edge">
<title>Node11&#45;&gt;Node3</title>
<path fill="none" stroke="midnightblue" d="M305.29,-120.91C354.44,-108.18 420.3,-91.13 459.29,-81.03"/>
<polygon fill="midnightblue" stroke="midnightblue" points="304.18,-117.58 295.38,-123.48 305.94,-124.36 304.18,-117.58"/>
</g>
<!-- Node12&#45;&gt;Node3 -->
<g id="edge17" class="edge">
<title>Node12&#45;&gt;Node3</title>
<path fill="none" stroke="midnightblue" d="M257.53,-191.2C311,-164.16 431.06,-103.43 475.38,-81.02"/>
<polygon fill="midnightblue" stroke="midnightblue" points="255.69,-188.2 248.35,-195.84 258.85,-194.45 255.69,-188.2"/>
</g>
<!-- Node13&#45;&gt;Node3 -->
<g id="edge19" class="edge">
<title>Node13&#45;&gt;Node3</title>
<path fill="none" stroke="midnightblue" d="M372.23,-187.38C384.7,-170.18 405.3,-143.35 426.23,-123 443.08,-106.6 465.23,-90.61 479.1,-81.16"/>
<polygon fill="midnightblue" stroke="midnightblue" points="369.14,-185.68 366.18,-195.85 374.84,-189.75 369.14,-185.68"/>
</g>
<!-- Node14&#45;&gt;Node3 -->
<g id="edge21" class="edge">
<title>Node14&#45;&gt;Node3</title>
<path fill="none" stroke="midnightblue" d="M524.65,-120.4C516.1,-107.77 504.82,-91.1 498.07,-81.13"/>
<polygon fill="midnightblue" stroke="midnightblue" points="521.79,-122.41 530.29,-128.73 527.58,-118.49 521.79,-122.41"/>
</g>
<!-- Node15&#45;&gt;Node3 -->
<g id="edge23" class="edge">
<title>Node15&#45;&gt;Node3</title>
<path fill="none" stroke="midnightblue" d="M460.06,-184.41C449.82,-176.35 439.79,-166.08 434.23,-154 428.46,-141.48 428.52,-135.54 434.23,-123 442.8,-104.17 462.25,-89.63 476.27,-81.08"/>
<polygon fill="midnightblue" stroke="midnightblue" points="458.09,-187.3 468.23,-190.39 462.22,-181.66 458.09,-187.3"/>
</g>
<!-- Node16&#45;&gt;Node3 -->
<g id="edge25" class="edge">
<title>Node16&#45;&gt;Node3</title>
<path fill="none" stroke="midnightblue" d="M581.82,-193.43C537.5,-181.7 474.21,-163.57 467.23,-154 450.56,-131.17 472.68,-97.04 484.98,-81.18"/>
<polygon fill="midnightblue" stroke="midnightblue" points="580.96,-196.83 591.52,-195.98 582.74,-190.06 580.96,-196.83"/>
</g>
<!-- Node17&#45;&gt;Node3 -->
<g id="edge32" class="edge">
<title>Node17&#45;&gt;Node3</title>
<path fill="none" stroke="midnightblue" d="M726.2,-187.95C699.76,-179.63 669.11,-168.25 643.23,-154 623.83,-143.32 623.13,-134.53 604.23,-123 575.27,-105.34 539.08,-90.14 515.81,-81.15"/>
<polygon fill="midnightblue" stroke="midnightblue" points="725.52,-191.4 736.11,-190.99 727.57,-184.71 725.52,-191.4"/>
</g>
<!-- Node17&#45;&gt;Node14 -->
<g id="edge27" class="edge">
<title>Node17&#45;&gt;Node14</title>
<path fill="none" stroke="midnightblue" d="M726.05,-188.46C676.58,-175.7 609.26,-158.34 569.51,-148.09"/>
<polygon fill="midnightblue" stroke="midnightblue" points="725.45,-191.92 736.01,-191.03 727.2,-185.15 725.45,-191.92"/>
</g>
<!-- Node18 -->
<g id="node18" class="node">
<title>Node18</title>
<g id="a_node18"><a xlink:href="alias_8hpp_source.html" target="_top" xlink:title=" ">
<polygon fill="white" stroke="black" points="652.23,-129 652.23,-148 798.23,-148 798.23,-129 652.23,-129"/>
<text text-anchor="middle" x="725.23" y="-136" font-family="Helvetica,sans-Serif" font-size="10.00">arg_router/policy/alias.hpp</text>
</a>
</g>
</g>
<!-- Node17&#45;&gt;Node18 -->
<g id="edge28" class="edge">
<title>Node17&#45;&gt;Node18</title>
<path fill="none" stroke="midnightblue" d="M767.38,-183C755.88,-171.13 742.24,-157.05 733.65,-148.19"/>
<polygon fill="midnightblue" stroke="midnightblue" points="765.08,-185.65 774.56,-190.4 770.11,-180.78 765.08,-185.65"/>
</g>
<!-- Node19 -->
<g id="node19" class="node">
<title>Node19</title>
<g id="a_node19"><a xlink:href="dependent_8hpp_source.html" target="_top" xlink:title=" ">
<polygon fill="white" stroke="black" points="816.73,-129 816.73,-148 991.73,-148 991.73,-129 816.73,-129"/>
<text text-anchor="middle" x="904.23" y="-136" font-family="Helvetica,sans-Serif" font-size="10.00">arg_router/policy/dependent.hpp</text>
</a>
</g>
</g>
<!-- Node17&#45;&gt;Node19 -->
<g id="edge30" class="edge">
<title>Node17&#45;&gt;Node19</title>
<path fill="none" stroke="midnightblue" d="M822.18,-185.47C844.33,-173.06 872.15,-157.47 889.04,-148.01"/>
<polygon fill="midnightblue" stroke="midnightblue" points="820.41,-182.45 813.4,-190.4 823.83,-188.56 820.41,-182.45"/>
</g>
<!-- Node18&#45;&gt;Node3 -->
<g id="edge29" class="edge">
<title>Node18&#45;&gt;Node3</title>
<path fill="none" stroke="midnightblue" d="M684.62,-126.17C638.54,-113.32 564.43,-92.64 522.92,-81.06"/>
<polygon fill="midnightblue" stroke="midnightblue" points="683.71,-129.55 694.29,-128.87 685.59,-122.81 683.71,-129.55"/>
</g>
<!-- Node19&#45;&gt;Node3 -->
<g id="edge31" class="edge">
<title>Node19&#45;&gt;Node3</title>
<path fill="none" stroke="midnightblue" d="M839.89,-127.35C759.1,-114.6 621.94,-92.96 546.3,-81.03"/>
<polygon fill="midnightblue" stroke="midnightblue" points="839.52,-130.83 849.94,-128.94 840.61,-123.92 839.52,-130.83"/>
</g>
</g>
</svg>
        <g id="navigator" transform="translate(0 0)" fill="#404254">
                <rect fill="#f2f5e9" fill-opacity="0.5" stroke="#606060" stroke-width=".5" x="0" y="0" width="60" height="60"/>
                <use id="zoomplus" xlink:href="#zoomPlus" x="17" y="9" onmousedown="handleZoom(evt,'in')"/>
                <use id="zoomminus" xlink:href="#zoomMin" x="42" y="9" onmousedown="handleZoom(evt,'out')"/>
                <use id="reset" xlink:href="#resetDef" x="30" y="36" onmousedown="handleReset()"/>
                <g id="arrowUp" xlink:href="#dirArrow" transform="translate(30 24)" onmousedown="handlePan(0,-1)">
                  <use xlink:href="#rim" fill="#404040">
                        <set attributeName="fill" to="#808080" begin="arrowUp.mouseover" end="arrowUp.mouseout"/>
                  </use>
                  <path fill="none" stroke="white" stroke-width="1.5" d="M0,-3.0v7 M-2.5,-0.5L0,-3.0L2.5,-0.5"/>
                </g>
                <g id="arrowRight" xlink:href="#dirArrow" transform="rotate(90) translate(36 -43)" onmousedown="handlePan(1,0)">
                  <use xlink:href="#rim" fill="#404040">
                        <set attributeName="fill" to="#808080" begin="arrowRight.mouseover" end="arrowRight.mouseout"/>
                  </use>
                  <path fill="none" stroke="white" stroke-width="1.5" d="M0,-3.0v7 M-2.5,-0.5L0,-3.0L2.5,-0.5"/>
                </g>
                <g id="arrowDown" xlink:href="#dirArrow" transform="rotate(180) translate(-30 -48)" onmousedown="handlePan(0,1)">
                  <use xlink:href="#rim" fill="#404040">
                        <set attributeName="fill" to="#808080" begin="arrowDown.mouseover" end="arrowDown.mouseout"/>
                  </use>
                  <path fill="none" stroke="white" stroke-width="1.5" d="M0,-3.0v7 M-2.5,-0.5L0,-3.0L2.5,-0.5"/>
                </g>
                <g id="arrowLeft" xlink:href="#dirArrow" transform="rotate(270) translate(-36 17)" onmousedown="handlePan(-1,0)">
                  <use xlink:href="#rim" fill="#404040">
                        <set attributeName="fill" to="#808080" begin="arrowLeft.mouseover" end="arrowLeft.mouseout"/>
                  </use>
                  <path fill="none" stroke="white" stroke-width="1.5" d="M0,-3.0v7 M-2.5,-0.5L0,-3.0L2.5,-0.5"/>
                </g>
        </g>
        <svg viewBox="0 0 15 15" width="100%" height="30px" preserveAspectRatio="xMaxYMin meet">
         <g id="arrow_out" transform="scale(0.3 0.3)">
          <a xlink:href="compile__time__string_8hpp__dep__incl_org.svg" target="_base">
           <rect id="button" ry="5" rx="5" y="6" x="6" height="38" width="38"
                fill="#f2f5e9" fill-opacity="0.5" stroke="#606060" stroke-width="1.0"/>
           <path id="arrow"
             d="M 11.500037,31.436501 C 11.940474,20.09759 22.043105,11.32322 32.158766,21.979434 L 37.068811,17.246167 C 37.068811,17.246167 37.088388,32 37.088388,32 L 22.160133,31.978069 C 22.160133,31.978069 26.997745,27.140456 26.997745,27.140456 C 18.528582,18.264221 13.291696,25.230495 11.500037,31.436501 z"
             style="fill:#404040;"/>
          </a>
         </g>
        </svg>
</svg>
