<?xml version="1.0" encoding="UTF-8" standalone="no"?>
<!DOCTYPE svg PUBLIC "-//W3C//DTD SVG 1.1//EN"
 "http://www.w3.org/Graphics/SVG/1.1/DTD/svg11.dtd">
<!-- Generated by graphviz version 2.43.0 (0)
 -->
<!-- Title: arg_router/utility/compile_time_string.hpp Pages: 1 -->
<svg width="1740pt" height="687pt"
 viewBox="0.00 0.00 1739.50 687.00" xmlns="http://www.w3.org/2000/svg" xmlns:xlink="http://www.w3.org/1999/xlink">
<g id="graph0" class="graph" transform="scale(1 1) rotate(0) translate(4 683)">
<title>arg_router/utility/compile_time_string.hpp</title>
<!-- Node1 -->
<g id="node1" class="node">
<title>Node1</title>
<g id="a_node1"><a xlink:title=" ">
<polygon fill="#bfbfbf" stroke="black" points="766.5,-648.5 766.5,-678.5 906.5,-678.5 906.5,-648.5 766.5,-648.5"/>
<text text-anchor="start" x="774.5" y="-666.5" font-family="Helvetica,sans-Serif" font-size="10.00">arg_router/utility</text>
<text text-anchor="middle" x="836.5" y="-655.5" font-family="Helvetica,sans-Serif" font-size="10.00">/compile_time_string.hpp</text>
</a>
</g>
</g>
<!-- Node2 -->
<g id="node2" class="node">
<title>Node2</title>
<g id="a_node2"><a xlink:href="exception_8hpp_source.html" target="_top" xlink:title=" ">
<polygon fill="none" stroke="black" points="817,-592.5 817,-611.5 956,-611.5 956,-592.5 817,-592.5"/>
<text text-anchor="middle" x="886.5" y="-599.5" font-family="Helvetica,sans-Serif" font-size="10.00">arg_router/exception.hpp</text>
</a>
</g>
</g>
<!-- Node1&#45;&gt;Node2 -->
<g id="edge1" class="edge">
<title>Node1&#45;&gt;Node2</title>
<path fill="none" stroke="midnightblue" d="M854.82,-640.7C863.28,-630.64 872.84,-619.26 879.22,-611.66"/>
<polygon fill="midnightblue" stroke="midnightblue" points="852.1,-638.49 848.35,-648.4 857.46,-643 852.1,-638.49"/>
</g>
<!-- Node4 -->
<g id="node4" class="node">
<title>Node4</title>
<g id="a_node4"><a xlink:href="tree__node_8hpp_source.html" target="_top" xlink:title=" ">
<polygon fill="none" stroke="black" points="697.5,-330 697.5,-349 837.5,-349 837.5,-330 697.5,-330"/>
<text text-anchor="middle" x="767.5" y="-337" font-family="Helvetica,sans-Serif" font-size="10.00">arg_router/tree_node.hpp</text>
</a>
</g>
</g>
<!-- Node1&#45;&gt;Node4 -->
<g id="edge76" class="edge">
<title>Node1&#45;&gt;Node4</title>
<path fill="none" stroke="midnightblue" d="M804.96,-642.68C775.65,-621.55 736.5,-585.16 736.5,-541.5 736.5,-541.5 736.5,-541.5 736.5,-472.5 736.5,-424.95 755.8,-370.25 763.94,-349.29"/>
<polygon fill="midnightblue" stroke="midnightblue" points="803.1,-645.65 813.31,-648.49 807.1,-639.9 803.1,-645.65"/>
</g>
<!-- Node29 -->
<g id="node29" class="node">
<title>Node29</title>
<g id="a_node29"><a xlink:href="value__separator_8hpp_source.html" target="_top" xlink:title=" ">
<polygon fill="none" stroke="black" points="1424,-391.5 1424,-421.5 1553,-421.5 1553,-391.5 1424,-391.5"/>
<text text-anchor="start" x="1432" y="-409.5" font-family="Helvetica,sans-Serif" font-size="10.00">arg_router/policy/value</text>
<text text-anchor="middle" x="1488.5" y="-398.5" font-family="Helvetica,sans-Serif" font-size="10.00">_separator.hpp</text>
</a>
</g>
</g>
<!-- Node1&#45;&gt;Node29 -->
<g id="edge75" class="edge">
<title>Node1&#45;&gt;Node29</title>
<path fill="none" stroke="midnightblue" d="M907.54,-646.11C982.11,-627.91 1102.09,-595.79 1201.5,-556 1303.33,-515.25 1417.01,-450.13 1465.05,-421.63"/>
<polygon fill="midnightblue" stroke="midnightblue" points="906.67,-642.72 897.78,-648.48 908.32,-649.52 906.67,-642.72"/>
</g>
<!-- Node30 -->
<g id="node30" class="node">
<title>Node30</title>
<g id="a_node30"><a xlink:href="literals_8hpp_source.html" target="_top" xlink:title=" ">
<polygon fill="none" stroke="black" points="1459,-464 1459,-483 1584,-483 1584,-464 1459,-464"/>
<text text-anchor="middle" x="1521.5" y="-471" font-family="Helvetica,sans-Serif" font-size="10.00">arg_router/literals.hpp</text>
</a>
</g>
</g>
<!-- Node1&#45;&gt;Node30 -->
<g id="edge61" class="edge">
<title>Node1&#45;&gt;Node30</title>
<path fill="none" stroke="midnightblue" d="M917.2,-661.51C1047.89,-658.82 1299.31,-648.88 1379.5,-612 1444.97,-581.89 1498.58,-508.65 1515.74,-483.31"/>
<polygon fill="midnightblue" stroke="midnightblue" points="916.78,-658.02 906.85,-661.71 916.92,-665.01 916.78,-658.02"/>
</g>
<!-- Node31 -->
<g id="node31" class="node">
<title>Node31</title>
<g id="a_node31"><a xlink:href="string__selector_8hpp.html" target="_top" xlink:title=" ">
<polygon fill="none" stroke="black" points="1609.5,-123.5 1609.5,-153.5 1731.5,-153.5 1731.5,-123.5 1609.5,-123.5"/>
<text text-anchor="start" x="1617.5" y="-141.5" font-family="Helvetica,sans-Serif" font-size="10.00">arg_router/multi_lang</text>
<text text-anchor="middle" x="1670.5" y="-130.5" font-family="Helvetica,sans-Serif" font-size="10.00">/string_selector.hpp</text>
</a>
</g>
</g>
<!-- Node1&#45;&gt;Node31 -->
<g id="edge63" class="edge">
<title>Node1&#45;&gt;Node31</title>
<path fill="none" stroke="midnightblue" d="M916.86,-658.82C1121.19,-648.39 1644.5,-614.56 1644.5,-541.5 1644.5,-541.5 1644.5,-541.5 1644.5,-271.5 1644.5,-227.82 1658.37,-177.52 1665.85,-153.58"/>
<polygon fill="midnightblue" stroke="midnightblue" points="916.6,-655.33 906.79,-659.33 916.95,-662.32 916.6,-655.33"/>
</g>
<!-- Node32 -->
<g id="node32" class="node">
<title>Node32</title>
<g id="a_node32"><a xlink:href="default__help__formatter_8hpp_source.html" target="_top" xlink:title=" ">
<polygon fill="none" stroke="black" points="0,-324.5 0,-354.5 137,-354.5 137,-324.5 0,-324.5"/>
<text text-anchor="start" x="8" y="-342.5" font-family="Helvetica,sans-Serif" font-size="10.00">arg_router/policy/default</text>
<text text-anchor="middle" x="68.5" y="-331.5" font-family="Helvetica,sans-Serif" font-size="10.00">_help_formatter.hpp</text>
</a>
</g>
</g>
<!-- Node1&#45;&gt;Node32 -->
<g id="edge65" class="edge">
<title>Node1&#45;&gt;Node32</title>
<path fill="none" stroke="midnightblue" d="M756.42,-657.67C565.33,-645.09 98.5,-607.59 98.5,-541.5 98.5,-541.5 98.5,-541.5 98.5,-472.5 98.5,-428.55 82.49,-378.38 73.86,-354.52"/>
<polygon fill="midnightblue" stroke="midnightblue" points="756.2,-661.17 766.41,-658.33 756.65,-654.18 756.2,-661.17"/>
</g>
<!-- Node34 -->
<g id="node34" class="node">
<title>Node34</title>
<g id="a_node34"><a xlink:href="short__name_8hpp_source.html" target="_top" xlink:title=" ">
<polygon fill="none" stroke="black" points="249,-324.5 249,-354.5 376,-354.5 376,-324.5 249,-324.5"/>
<text text-anchor="start" x="257" y="-342.5" font-family="Helvetica,sans-Serif" font-size="10.00">arg_router/policy/short</text>
<text text-anchor="middle" x="312.5" y="-331.5" font-family="Helvetica,sans-Serif" font-size="10.00">_name.hpp</text>
</a>
</g>
</g>
<!-- Node1&#45;&gt;Node34 -->
<g id="edge69" class="edge">
<title>Node1&#45;&gt;Node34</title>
<path fill="none" stroke="midnightblue" d="M756.17,-655.44C585.75,-639.38 203.5,-597.15 203.5,-541.5 203.5,-541.5 203.5,-541.5 203.5,-472.5 203.5,-419.15 257.09,-375.72 289.12,-354.53"/>
<polygon fill="midnightblue" stroke="midnightblue" points="756.06,-658.94 766.34,-656.39 756.71,-651.97 756.06,-658.94"/>
</g>
<!-- Node35 -->
<g id="node35" class="node">
<title>Node35</title>
<g id="a_node35"><a xlink:href="string__to__policy_8hpp_source.html" target="_top" xlink:title=" ">
<polygon fill="none" stroke="black" points="441.5,-324.5 441.5,-354.5 557.5,-354.5 557.5,-324.5 441.5,-324.5"/>
<text text-anchor="start" x="449.5" y="-342.5" font-family="Helvetica,sans-Serif" font-size="10.00">arg_router/utility</text>
<text text-anchor="middle" x="499.5" y="-331.5" font-family="Helvetica,sans-Serif" font-size="10.00">/string_to_policy.hpp</text>
</a>
</g>
</g>
<!-- Node1&#45;&gt;Node35 -->
<g id="edge77" class="edge">
<title>Node1&#45;&gt;Node35</title>
<path fill="none" stroke="midnightblue" d="M756.18,-647.06C665.81,-627.34 531.5,-589.89 531.5,-541.5 531.5,-541.5 531.5,-541.5 531.5,-472.5 531.5,-428.64 514.61,-378.83 505.37,-354.87"/>
<polygon fill="midnightblue" stroke="midnightblue" points="755.63,-650.52 766.14,-649.2 757.1,-643.68 755.63,-650.52"/>
</g>
<!-- Node3 -->
<g id="node3" class="node">
<title>Node3</title>
<g id="a_node3"><a xlink:href="global__parser_8hpp_source.html" target="_top" xlink:title=" ">
<polygon fill="none" stroke="black" points="802.5,-458.5 802.5,-488.5 908.5,-488.5 908.5,-458.5 802.5,-458.5"/>
<text text-anchor="start" x="810.5" y="-476.5" font-family="Helvetica,sans-Serif" font-size="10.00">arg_router/parsing</text>
<text text-anchor="middle" x="855.5" y="-465.5" font-family="Helvetica,sans-Serif" font-size="10.00">/global_parser.hpp</text>
</a>
</g>
</g>
<!-- Node2&#45;&gt;Node3 -->
<g id="edge2" class="edge">
<title>Node2&#45;&gt;Node3</title>
<path fill="none" stroke="midnightblue" d="M870.32,-584.96C863.4,-576.98 856.1,-566.75 852.5,-556 844.94,-533.45 848.59,-505.4 852,-488.78"/>
<polygon fill="midnightblue" stroke="midnightblue" points="867.85,-587.44 877.21,-592.39 872.98,-582.68 867.85,-587.44"/>
</g>
<!-- Node21 -->
<g id="node21" class="node">
<title>Node21</title>
<g id="a_node21"><a xlink:href="exception__translator_8hpp_source.html" target="_top" xlink:title=" ">
<polygon fill="none" stroke="black" points="861.5,-525.5 861.5,-555.5 1011.5,-555.5 1011.5,-525.5 861.5,-525.5"/>
<text text-anchor="start" x="869.5" y="-543.5" font-family="Helvetica,sans-Serif" font-size="10.00">arg_router/policy/exception</text>
<text text-anchor="middle" x="936.5" y="-532.5" font-family="Helvetica,sans-Serif" font-size="10.00">_translator.hpp</text>
</a>
</g>
</g>
<!-- Node2&#45;&gt;Node21 -->
<g id="edge33" class="edge">
<title>Node2&#45;&gt;Node21</title>
<path fill="none" stroke="midnightblue" d="M900.1,-584.81C907.8,-575.65 917.34,-564.3 924.72,-555.52"/>
<polygon fill="midnightblue" stroke="midnightblue" points="897.42,-582.57 893.66,-592.48 902.78,-587.07 897.42,-582.57"/>
</g>
<!-- Node22 -->
<g id="node22" class="node">
<title>Node22</title>
<g id="a_node22"><a xlink:href="min__max__value_8hpp_source.html" target="_top" xlink:title=" ">
<polygon fill="none" stroke="black" points="1285,-391.5 1285,-421.5 1406,-421.5 1406,-391.5 1285,-391.5"/>
<text text-anchor="start" x="1293" y="-409.5" font-family="Helvetica,sans-Serif" font-size="10.00">arg_router/policy/min</text>
<text text-anchor="middle" x="1345.5" y="-398.5" font-family="Helvetica,sans-Serif" font-size="10.00">_max_value.hpp</text>
</a>
</g>
</g>
<!-- Node2&#45;&gt;Node22 -->
<g id="edge35" class="edge">
<title>Node2&#45;&gt;Node22</title>
<path fill="none" stroke="midnightblue" d="M966.6,-598.69C1023.19,-594.53 1099.66,-583.66 1161.5,-556 1235.69,-522.81 1305.19,-452.13 1332.87,-421.8"/>
<polygon fill="midnightblue" stroke="midnightblue" points="966.01,-595.22 956.27,-599.4 966.48,-602.21 966.01,-595.22"/>
</g>
<!-- Node23 -->
<g id="node23" class="node">
<title>Node23</title>
<g id="a_node23"><a xlink:href="min__max__count_8hpp_source.html" target="_top" xlink:title=" ">
<polygon fill="none" stroke="black" points="581,-391.5 581,-421.5 702,-421.5 702,-391.5 581,-391.5"/>
<text text-anchor="start" x="589" y="-409.5" font-family="Helvetica,sans-Serif" font-size="10.00">arg_router/policy/min</text>
<text text-anchor="middle" x="641.5" y="-398.5" font-family="Helvetica,sans-Serif" font-size="10.00">_max_count.hpp</text>
</a>
</g>
</g>
<!-- Node2&#45;&gt;Node23 -->
<g id="edge37" class="edge">
<title>Node2&#45;&gt;Node23</title>
<path fill="none" stroke="midnightblue" d="M867.71,-586.16C821.79,-549.89 704.36,-457.15 659.39,-421.63"/>
<polygon fill="midnightblue" stroke="midnightblue" points="865.64,-588.98 875.66,-592.44 869.98,-583.49 865.64,-588.98"/>
</g>
<!-- Node24 -->
<g id="node24" class="node">
<title>Node24</title>
<g id="a_node24"><a xlink:href="required_8hpp_source.html" target="_top" xlink:title=" ">
<polygon fill="none" stroke="black" points="1102.5,-397 1102.5,-416 1266.5,-416 1266.5,-397 1102.5,-397"/>
<text text-anchor="middle" x="1184.5" y="-404" font-family="Helvetica,sans-Serif" font-size="10.00">arg_router/policy/required.hpp</text>
</a>
</g>
</g>
<!-- Node2&#45;&gt;Node24 -->
<g id="edge44" class="edge">
<title>Node2&#45;&gt;Node24</title>
<path fill="none" stroke="midnightblue" d="M966.21,-595.49C1029.55,-589.54 1111.52,-577.83 1136.5,-556 1179.55,-518.38 1184.24,-441.89 1184.56,-416.17"/>
<polygon fill="midnightblue" stroke="midnightblue" points="965.86,-592.01 956.22,-596.4 966.49,-598.98 965.86,-592.01"/>
</g>
<!-- Node25 -->
<g id="node25" class="node">
<title>Node25</title>
<g id="a_node25"><a xlink:href="router_8hpp_source.html" target="_top" xlink:title=" ">
<polygon fill="none" stroke="black" points="286.5,-531 286.5,-550 438.5,-550 438.5,-531 286.5,-531"/>
<text text-anchor="middle" x="362.5" y="-538" font-family="Helvetica,sans-Serif" font-size="10.00">arg_router/policy/router.hpp</text>
</a>
</g>
</g>
<!-- Node2&#45;&gt;Node25 -->
<g id="edge46" class="edge">
<title>Node2&#45;&gt;Node25</title>
<path fill="none" stroke="midnightblue" d="M806.84,-591.95C706.53,-580.56 535.49,-561.14 437.46,-550.01"/>
<polygon fill="midnightblue" stroke="midnightblue" points="806.59,-595.45 816.92,-593.1 807.38,-588.49 806.59,-595.45"/>
</g>
<!-- Node26 -->
<g id="node26" class="node">
<title>Node26</title>
<g id="a_node26"><a xlink:href="result_8hpp_source.html" target="_top" xlink:title=" ">
<polygon fill="none" stroke="black" points="1029.5,-525.5 1029.5,-555.5 1127.5,-555.5 1127.5,-525.5 1029.5,-525.5"/>
<text text-anchor="start" x="1037.5" y="-543.5" font-family="Helvetica,sans-Serif" font-size="10.00">arg_router/utility</text>
<text text-anchor="middle" x="1078.5" y="-532.5" font-family="Helvetica,sans-Serif" font-size="10.00">/result.hpp</text>
</a>
</g>
</g>
<!-- Node2&#45;&gt;Node26 -->
<g id="edge48" class="edge">
<title>Node2&#45;&gt;Node26</title>
<path fill="none" stroke="midnightblue" d="M923.66,-589.48C954.97,-579.78 999.86,-565.87 1033.25,-555.52"/>
<polygon fill="midnightblue" stroke="midnightblue" points="922.52,-586.17 914.01,-592.48 924.6,-592.86 922.52,-586.17"/>
</g>
<!-- Node3&#45;&gt;Node4 -->
<g id="edge3" class="edge">
<title>Node3&#45;&gt;Node4</title>
<path fill="none" stroke="midnightblue" d="M840.42,-449.87C820.58,-420.12 786.67,-369.26 773.23,-349.1"/>
<polygon fill="midnightblue" stroke="midnightblue" points="837.62,-451.99 846.08,-458.37 843.45,-448.11 837.62,-451.99"/>
</g>
<!-- Node5 -->
<g id="node5" class="node">
<title>Node5</title>
<g id="a_node5"><a xlink:href="arg_8hpp_source.html" target="_top" xlink:title=" ">
<polygon fill="none" stroke="black" points="277,-263 277,-282 384,-282 384,-263 277,-263"/>
<text text-anchor="middle" x="330.5" y="-270" font-family="Helvetica,sans-Serif" font-size="10.00">arg_router/arg.hpp</text>
</a>
</g>
</g>
<!-- Node4&#45;&gt;Node5 -->
<g id="edge4" class="edge">
<title>Node4&#45;&gt;Node5</title>
<path fill="none" stroke="midnightblue" d="M699.89,-328.44C612.93,-315.51 463.65,-293.3 384.09,-281.47"/>
<polygon fill="midnightblue" stroke="midnightblue" points="699.51,-331.93 709.92,-329.94 700.54,-325 699.51,-331.93"/>
</g>
<!-- Node9 -->
<g id="node9" class="node">
<title>Node9</title>
<g id="a_node9"><a xlink:href="counting__flag_8hpp_source.html" target="_top" xlink:title=" ">
<polygon fill="none" stroke="black" points="704.5,-257.5 704.5,-287.5 816.5,-287.5 816.5,-257.5 704.5,-257.5"/>
<text text-anchor="start" x="712.5" y="-275.5" font-family="Helvetica,sans-Serif" font-size="10.00">arg_router/counting</text>
<text text-anchor="middle" x="760.5" y="-264.5" font-family="Helvetica,sans-Serif" font-size="10.00">_flag.hpp</text>
</a>
</g>
</g>
<!-- Node4&#45;&gt;Node9 -->
<g id="edge9" class="edge">
<title>Node4&#45;&gt;Node9</title>
<path fill="none" stroke="midnightblue" d="M765.48,-319.74C764.38,-309.49 763.03,-297 762.02,-287.59"/>
<polygon fill="midnightblue" stroke="midnightblue" points="762.01,-320.17 766.56,-329.73 768.97,-319.42 762.01,-320.17"/>
</g>
<!-- Node10 -->
<g id="node10" class="node">
<title>Node10</title>
<g id="a_node10"><a xlink:href="detail_8hpp_source.html" target="_top" xlink:title=" ">
<polygon fill="none" stroke="black" points="835,-257.5 835,-287.5 964,-287.5 964,-257.5 835,-257.5"/>
<text text-anchor="start" x="843" y="-275.5" font-family="Helvetica,sans-Serif" font-size="10.00">arg_router/dependency</text>
<text text-anchor="middle" x="899.5" y="-264.5" font-family="Helvetica,sans-Serif" font-size="10.00">/detail.hpp</text>
</a>
</g>
</g>
<!-- Node4&#45;&gt;Node10 -->
<g id="edge11" class="edge">
<title>Node4&#45;&gt;Node10</title>
<path fill="none" stroke="midnightblue" d="M794.22,-325.34C816.44,-314.4 848,-298.86 870.76,-287.65"/>
<polygon fill="midnightblue" stroke="midnightblue" points="792.45,-322.31 785.03,-329.87 795.55,-328.59 792.45,-322.31"/>
</g>
<!-- Node13 -->
<g id="node13" class="node">
<title>Node13</title>
<g id="a_node13"><a xlink:href="flag_8hpp_source.html" target="_top" xlink:title=" ">
<polygon fill="none" stroke="black" points="577,-263 577,-282 686,-282 686,-263 577,-263"/>
<text text-anchor="middle" x="631.5" y="-270" font-family="Helvetica,sans-Serif" font-size="10.00">arg_router/flag.hpp</text>
</a>
</g>
</g>
<!-- Node4&#45;&gt;Node13 -->
<g id="edge16" class="edge">
<title>Node4&#45;&gt;Node13</title>
<path fill="none" stroke="midnightblue" d="M740.18,-325.44C713.24,-312.57 672.84,-293.26 649.63,-282.17"/>
<polygon fill="midnightblue" stroke="midnightblue" points="738.91,-328.71 749.44,-329.87 741.93,-322.4 738.91,-328.71"/>
</g>
<!-- Node14 -->
<g id="node14" class="node">
<title>Node14</title>
<g id="a_node14"><a xlink:href="help_8hpp_source.html" target="_top" xlink:title=" ">
<polygon fill="none" stroke="black" points="146.5,-263 146.5,-282 258.5,-282 258.5,-263 146.5,-263"/>
<text text-anchor="middle" x="202.5" y="-270" font-family="Helvetica,sans-Serif" font-size="10.00">arg_router/help.hpp</text>
</a>
</g>
</g>
<!-- Node4&#45;&gt;Node14 -->
<g id="edge18" class="edge">
<title>Node4&#45;&gt;Node14</title>
<path fill="none" stroke="midnightblue" d="M686.94,-333.32C587.81,-326.27 414.53,-311.74 267.5,-288 257.57,-286.4 246.88,-284.21 237.1,-282.02"/>
<polygon fill="midnightblue" stroke="midnightblue" points="686.96,-336.83 697.19,-334.04 687.46,-329.85 686.96,-336.83"/>
</g>
<!-- Node15 -->
<g id="node15" class="node">
<title>Node15</title>
<g id="a_node15"><a xlink:href="mode_8hpp_source.html" target="_top" xlink:title=" ">
<polygon fill="none" stroke="black" points="848,-196 848,-215 967,-215 967,-196 848,-196"/>
<text text-anchor="middle" x="907.5" y="-203" font-family="Helvetica,sans-Serif" font-size="10.00">arg_router/mode.hpp</text>
</a>
</g>
</g>
<!-- Node4&#45;&gt;Node15 -->
<g id="edge20" class="edge">
<title>Node4&#45;&gt;Node15</title>
<path fill="none" stroke="midnightblue" d="M847.63,-329.07C898.54,-321.25 957.73,-308.1 973.5,-288 994.51,-261.21 949.61,-230.07 923.88,-215.23"/>
<polygon fill="midnightblue" stroke="midnightblue" points="846.95,-325.63 837.58,-330.57 847.98,-332.56 846.95,-325.63"/>
</g>
<!-- Node16 -->
<g id="node16" class="node">
<title>Node16</title>
<g id="a_node16"><a xlink:href="positional__arg_8hpp_source.html" target="_top" xlink:title=" ">
<polygon fill="none" stroke="black" points="440.5,-257.5 440.5,-287.5 558.5,-287.5 558.5,-257.5 440.5,-257.5"/>
<text text-anchor="start" x="448.5" y="-275.5" font-family="Helvetica,sans-Serif" font-size="10.00">arg_router/positional</text>
<text text-anchor="middle" x="499.5" y="-264.5" font-family="Helvetica,sans-Serif" font-size="10.00">_arg.hpp</text>
</a>
</g>
</g>
<!-- Node4&#45;&gt;Node16 -->
<g id="edge22" class="edge">
<title>Node4&#45;&gt;Node16</title>
<path fill="none" stroke="midnightblue" d="M722.34,-327.55C676.98,-316.55 606.91,-299.55 557.47,-287.56"/>
<polygon fill="midnightblue" stroke="midnightblue" points="721.64,-330.98 732.19,-329.94 723.29,-324.18 721.64,-330.98"/>
</g>
<!-- Node17 -->
<g id="node17" class="node">
<title>Node17</title>
<g id="a_node17"><a xlink:href="root_8hpp_source.html" target="_top" xlink:title=" ">
<polygon fill="none" stroke="black" points="1142.5,-263 1142.5,-282 1252.5,-282 1252.5,-263 1142.5,-263"/>
<text text-anchor="middle" x="1197.5" y="-270" font-family="Helvetica,sans-Serif" font-size="10.00">arg_router/root.hpp</text>
</a>
</g>
</g>
<!-- Node4&#45;&gt;Node17 -->
<g id="edge24" class="edge">
<title>Node4&#45;&gt;Node17</title>
<path fill="none" stroke="midnightblue" d="M847.83,-329.42C922.2,-320.55 1035.71,-305.79 1133.5,-288 1142.92,-286.29 1153.04,-284.14 1162.4,-282.02"/>
<polygon fill="midnightblue" stroke="midnightblue" points="847.13,-325.98 837.61,-330.64 847.95,-332.93 847.13,-325.98"/>
</g>
<!-- Node18 -->
<g id="node18" class="node">
<title>Node18</title>
<g id="a_node18"><a xlink:href="tree__recursor_8hpp_source.html" target="_top" xlink:title=" ">
<polygon fill="none" stroke="black" points="1020.5,-257.5 1020.5,-287.5 1124.5,-287.5 1124.5,-257.5 1020.5,-257.5"/>
<text text-anchor="start" x="1028.5" y="-275.5" font-family="Helvetica,sans-Serif" font-size="10.00">arg_router/utility</text>
<text text-anchor="middle" x="1072.5" y="-264.5" font-family="Helvetica,sans-Serif" font-size="10.00">/tree_recursor.hpp</text>
</a>
</g>
</g>
<!-- Node4&#45;&gt;Node18 -->
<g id="edge26" class="edge">
<title>Node4&#45;&gt;Node18</title>
<path fill="none" stroke="midnightblue" d="M818.46,-327.86C866.86,-317.72 941.67,-301.97 1006.5,-288 1010.97,-287.04 1015.61,-286.03 1020.27,-285.02"/>
<polygon fill="midnightblue" stroke="midnightblue" points="817.61,-324.46 808.54,-329.93 819.05,-331.31 817.61,-324.46"/>
</g>
<!-- Node6 -->
<g id="node6" class="node">
<title>Node6</title>
<g id="a_node6"><a xlink:href="validator_8hpp_source.html" target="_top" xlink:title=" ">
<polygon fill="none" stroke="black" points="682.5,-129 682.5,-148 848.5,-148 848.5,-129 682.5,-129"/>
<text text-anchor="middle" x="765.5" y="-136" font-family="Helvetica,sans-Serif" font-size="10.00">arg_router/policy/validator.hpp</text>
</a>
</g>
</g>
<!-- Node5&#45;&gt;Node6 -->
<g id="edge5" class="edge">
<title>Node5&#45;&gt;Node6</title>
<path fill="none" stroke="midnightblue" d="M354.03,-258.08C386.62,-240.05 447.77,-208.18 503.5,-190 567.36,-169.17 642.93,-155.73 696.46,-148"/>
<polygon fill="midnightblue" stroke="midnightblue" points="352.27,-255.06 345.25,-262.99 355.69,-261.17 352.27,-255.06"/>
</g>
<!-- Node7 -->
<g id="node7" class="node">
<title>Node7</title>
<g id="a_node7"><a xlink:href="arg__router_8hpp_source.html" target="_top" xlink:title=" ">
<polygon fill="none" stroke="black" points="1358.5,-0.5 1358.5,-19.5 1498.5,-19.5 1498.5,-0.5 1358.5,-0.5"/>
<text text-anchor="middle" x="1428.5" y="-7.5" font-family="Helvetica,sans-Serif" font-size="10.00">arg_router/arg_router.hpp</text>
</a>
</g>
</g>
<!-- Node6&#45;&gt;Node7 -->
<g id="edge6" class="edge">
<title>Node6&#45;&gt;Node7</title>
<path fill="none" stroke="midnightblue" d="M806.23,-126.21C869.15,-109.08 993.96,-76.39 1101.5,-56 1189.47,-39.32 1291.87,-26.24 1358.32,-18.58"/>
<polygon fill="midnightblue" stroke="midnightblue" points="805.03,-122.9 796.31,-128.92 806.88,-129.66 805.03,-122.9"/>
</g>
<!-- Node8 -->
<g id="node8" class="node">
<title>Node8</title>
<g id="a_node8"><a xlink:href="validator__rule__utilities_8hpp_source.html" target="_top" xlink:title=" ">
<polygon fill="none" stroke="black" points="1110.5,-56.5 1110.5,-86.5 1256.5,-86.5 1256.5,-56.5 1110.5,-56.5"/>
<text text-anchor="start" x="1118.5" y="-74.5" font-family="Helvetica,sans-Serif" font-size="10.00">arg_router/policy/validator</text>
<text text-anchor="middle" x="1183.5" y="-63.5" font-family="Helvetica,sans-Serif" font-size="10.00">_rule_utilities.hpp</text>
</a>
</g>
</g>
<!-- Node6&#45;&gt;Node8 -->
<g id="edge7" class="edge">
<title>Node6&#45;&gt;Node8</title>
<path fill="none" stroke="midnightblue" d="M830.48,-127.4C906.27,-115.61 1031.24,-96.18 1110.37,-83.87"/>
<polygon fill="midnightblue" stroke="midnightblue" points="829.92,-123.94 820.58,-128.94 831,-130.86 829.92,-123.94"/>
</g>
<!-- Node8&#45;&gt;Node7 -->
<g id="edge8" class="edge">
<title>Node8&#45;&gt;Node7</title>
<path fill="none" stroke="midnightblue" d="M1251.18,-54.06C1297.31,-42.86 1356.5,-28.49 1393.47,-19.51"/>
<polygon fill="midnightblue" stroke="midnightblue" points="1250.14,-50.71 1241.25,-56.47 1251.79,-57.52 1250.14,-50.71"/>
</g>
<!-- Node9&#45;&gt;Node6 -->
<g id="edge10" class="edge">
<title>Node9&#45;&gt;Node6</title>
<path fill="none" stroke="midnightblue" d="M694.55,-256.59C631.47,-242.25 545.71,-222.52 544.5,-221 535.94,-210.21 535.91,-200.77 544.5,-190 561.8,-168.3 627.08,-155.19 682.25,-147.78"/>
<polygon fill="midnightblue" stroke="midnightblue" points="693.93,-260.04 704.46,-258.84 695.48,-253.21 693.93,-260.04"/>
</g>
<!-- Node11 -->
<g id="node11" class="node">
<title>Node11</title>
<g id="a_node11"><a xlink:href="alias__group_8hpp_source.html" target="_top" xlink:title=" ">
<polygon fill="none" stroke="black" points="701,-190.5 701,-220.5 830,-220.5 830,-190.5 701,-190.5"/>
<text text-anchor="start" x="709" y="-208.5" font-family="Helvetica,sans-Serif" font-size="10.00">arg_router/dependency</text>
<text text-anchor="middle" x="765.5" y="-197.5" font-family="Helvetica,sans-Serif" font-size="10.00">/alias_group.hpp</text>
</a>
</g>
</g>
<!-- Node10&#45;&gt;Node11 -->
<g id="edge12" class="edge">
<title>Node10&#45;&gt;Node11</title>
<path fill="none" stroke="midnightblue" d="M861.35,-252.99C840.11,-242.69 814.09,-230.07 794.52,-220.58"/>
<polygon fill="midnightblue" stroke="midnightblue" points="859.9,-256.18 870.42,-257.4 862.95,-249.88 859.9,-256.18"/>
</g>
<!-- Node12 -->
<g id="node12" class="node">
<title>Node12</title>
<g id="a_node12"><a xlink:href="one__of_8hpp_source.html" target="_top" xlink:title=" ">
<polygon fill="none" stroke="black" points="554,-190.5 554,-220.5 683,-220.5 683,-190.5 554,-190.5"/>
<text text-anchor="start" x="562" y="-208.5" font-family="Helvetica,sans-Serif" font-size="10.00">arg_router/dependency</text>
<text text-anchor="middle" x="618.5" y="-197.5" font-family="Helvetica,sans-Serif" font-size="10.00">/one_of.hpp</text>
</a>
</g>
</g>
<!-- Node10&#45;&gt;Node12 -->
<g id="edge14" class="edge">
<title>Node10&#45;&gt;Node12</title>
<path fill="none" stroke="midnightblue" d="M828.97,-255.19C782.95,-244.54 723.48,-230.78 679.5,-220.61"/>
<polygon fill="midnightblue" stroke="midnightblue" points="828.34,-258.63 838.87,-257.48 829.92,-251.81 828.34,-258.63"/>
</g>
<!-- Node11&#45;&gt;Node6 -->
<g id="edge13" class="edge">
<title>Node11&#45;&gt;Node6</title>
<path fill="none" stroke="midnightblue" d="M765.5,-180.25C765.5,-169.02 765.5,-156.38 765.5,-148.19"/>
<polygon fill="midnightblue" stroke="midnightblue" points="762,-180.4 765.5,-190.4 769,-180.4 762,-180.4"/>
</g>
<!-- Node12&#45;&gt;Node6 -->
<g id="edge15" class="edge">
<title>Node12&#45;&gt;Node6</title>
<path fill="none" stroke="midnightblue" d="M659.67,-186.3C688.02,-173.76 724.38,-157.68 746.26,-148.01"/>
<polygon fill="midnightblue" stroke="midnightblue" points="658.13,-183.15 650.4,-190.4 660.96,-189.55 658.13,-183.15"/>
</g>
<!-- Node13&#45;&gt;Node6 -->
<g id="edge17" class="edge">
<title>Node13&#45;&gt;Node6</title>
<path fill="none" stroke="midnightblue" d="M585.76,-259.33C566.42,-251.68 545.79,-239.61 534.5,-221 527.35,-209.22 525.86,-200.73 534.5,-190 553.07,-166.94 624.05,-153.83 682.49,-146.78"/>
<polygon fill="midnightblue" stroke="midnightblue" points="584.81,-262.71 595.4,-262.84 587.2,-256.13 584.81,-262.71"/>
</g>
<!-- Node14&#45;&gt;Node6 -->
<g id="edge19" class="edge">
<title>Node14&#45;&gt;Node6</title>
<path fill="none" stroke="midnightblue" d="M231.19,-258.94C273.25,-241.02 354.46,-208.27 426.5,-190 512.44,-168.2 613.18,-154.67 682.38,-147.17"/>
<polygon fill="midnightblue" stroke="midnightblue" points="229.67,-255.79 221.86,-262.95 232.43,-262.22 229.67,-255.79"/>
</g>
<!-- Node15&#45;&gt;Node6 -->
<g id="edge21" class="edge">
<title>Node15&#45;&gt;Node6</title>
<path fill="none" stroke="midnightblue" d="M879.35,-191.61C851.22,-178.74 808.77,-159.31 784.43,-148.17"/>
<polygon fill="midnightblue" stroke="midnightblue" points="878.09,-194.89 888.64,-195.87 881.01,-188.52 878.09,-194.89"/>
</g>
<!-- Node16&#45;&gt;Node6 -->
<g id="edge23" class="edge">
<title>Node16&#45;&gt;Node6</title>
<path fill="none" stroke="midnightblue" d="M500.85,-247.45C503.19,-229.1 509.38,-204.56 525.5,-190 548.45,-169.27 622.62,-155.81 682.49,-148.04"/>
<polygon fill="midnightblue" stroke="midnightblue" points="497.36,-247.12 499.87,-257.42 504.33,-247.81 497.36,-247.12"/>
</g>
<!-- Node17&#45;&gt;Node6 -->
<g id="edge25" class="edge">
<title>Node17&#45;&gt;Node6</title>
<path fill="none" stroke="midnightblue" d="M1193.77,-252.97C1188.9,-233.91 1178.39,-204.96 1157.5,-190 1109.52,-155.65 949.06,-144.66 848.92,-141.15"/>
<polygon fill="midnightblue" stroke="midnightblue" points="1190.39,-253.9 1196.03,-262.87 1197.22,-252.34 1190.39,-253.9"/>
</g>
<!-- Node18&#45;&gt;Node6 -->
<g id="edge32" class="edge">
<title>Node18&#45;&gt;Node6</title>
<path fill="none" stroke="midnightblue" d="M1107.04,-251.95C1132.12,-235.3 1158.73,-210.85 1140.5,-190 1121.58,-168.36 953.29,-152.71 848.69,-144.97"/>
<polygon fill="midnightblue" stroke="midnightblue" points="1104.87,-249.18 1098.31,-257.49 1108.62,-255.09 1104.87,-249.18"/>
</g>
<!-- Node18&#45;&gt;Node15 -->
<g id="edge27" class="edge">
<title>Node18&#45;&gt;Node15</title>
<path fill="none" stroke="midnightblue" d="M1027.12,-253.62C995.18,-241.04 953.87,-224.77 929.09,-215.01"/>
<polygon fill="midnightblue" stroke="midnightblue" points="1026.11,-256.99 1036.7,-257.4 1028.68,-250.47 1026.11,-256.99"/>
</g>
<!-- Node19 -->
<g id="node19" class="node">
<title>Node19</title>
<g id="a_node19"><a xlink:href="alias_8hpp_source.html" target="_top" xlink:title=" ">
<polygon fill="none" stroke="black" points="985.5,-196 985.5,-215 1131.5,-215 1131.5,-196 985.5,-196"/>
<text text-anchor="middle" x="1058.5" y="-203" font-family="Helvetica,sans-Serif" font-size="10.00">arg_router/policy/alias.hpp</text>
</a>
</g>
</g>
<!-- Node18&#45;&gt;Node19 -->
<g id="edge28" class="edge">
<title>Node18&#45;&gt;Node19</title>
<path fill="none" stroke="midnightblue" d="M1067.35,-247.6C1064.91,-236.28 1062.15,-223.46 1060.37,-215.19"/>
<polygon fill="midnightblue" stroke="midnightblue" points="1063.94,-248.36 1069.46,-257.4 1070.78,-246.88 1063.94,-248.36"/>
</g>
<!-- Node20 -->
<g id="node20" class="node">
<title>Node20</title>
<g id="a_node20"><a xlink:href="dependent_8hpp_source.html" target="_top" xlink:title=" ">
<polygon fill="none" stroke="black" points="1264,-196 1264,-215 1439,-215 1439,-196 1264,-196"/>
<text text-anchor="middle" x="1351.5" y="-203" font-family="Helvetica,sans-Serif" font-size="10.00">arg_router/policy/dependent.hpp</text>
</a>
</g>
</g>
<!-- Node18&#45;&gt;Node20 -->
<g id="edge30" class="edge">
<title>Node18&#45;&gt;Node20</title>
<path fill="none" stroke="midnightblue" d="M1134.49,-256.77C1203.63,-240.57 1273.02,-224.55 1314.46,-215.01"/>
<polygon fill="midnightblue" stroke="midnightblue" points="1133.68,-253.37 1124.74,-259.06 1135.27,-260.19 1133.68,-253.37"/>
</g>
<!-- Node19&#45;&gt;Node6 -->
<g id="edge29" class="edge">
<title>Node19&#45;&gt;Node6</title>
<path fill="none" stroke="midnightblue" d="M1009.92,-193.72C952.23,-180.92 857.16,-159.83 804.19,-148.08"/>
<polygon fill="midnightblue" stroke="midnightblue" points="1009.37,-197.19 1019.89,-195.94 1010.89,-190.35 1009.37,-197.19"/>
</g>
<!-- Node20&#45;&gt;Node7 -->
<g id="edge31" class="edge">
<title>Node20&#45;&gt;Node7</title>
<path fill="none" stroke="midnightblue" d="M1358.64,-186.57C1374.68,-146.26 1413.1,-49.7 1424.96,-19.91"/>
<polygon fill="midnightblue" stroke="midnightblue" points="1355.35,-185.35 1354.91,-195.94 1361.86,-187.94 1355.35,-185.35"/>
</g>
<!-- Node21&#45;&gt;Node17 -->
<g id="edge34" class="edge">
<title>Node21&#45;&gt;Node17</title>
<path fill="none" stroke="midnightblue" d="M931.31,-515.34C923.36,-471.19 913.8,-377.15 962.5,-324 1014.97,-266.73 1057.62,-304.58 1133.5,-288 1142.18,-286.1 1151.51,-284.02 1160.3,-282.03"/>
<polygon fill="midnightblue" stroke="midnightblue" points="927.93,-516.28 933.26,-525.43 934.8,-514.95 927.93,-516.28"/>
</g>
<!-- Node22&#45;&gt;Node7 -->
<g id="edge36" class="edge">
<title>Node22&#45;&gt;Node7</title>
<path fill="none" stroke="midnightblue" d="M1397.38,-387.51C1444.11,-367.61 1505.5,-330.6 1505.5,-273.5 1505.5,-273.5 1505.5,-273.5 1505.5,-137.5 1505.5,-86.59 1459.44,-38.76 1438.57,-19.7"/>
<polygon fill="midnightblue" stroke="midnightblue" points="1395.88,-384.34 1387.96,-391.38 1398.54,-390.82 1395.88,-384.34"/>
</g>
<!-- Node23&#45;&gt;Node4 -->
<g id="edge43" class="edge">
<title>Node23&#45;&gt;Node4</title>
<path fill="none" stroke="midnightblue" d="M677.74,-386.8C701.9,-374.34 732.5,-358.56 751.01,-349.01"/>
<polygon fill="midnightblue" stroke="midnightblue" points="676.12,-383.7 668.84,-391.4 679.33,-389.92 676.12,-383.7"/>
</g>
<!-- Node23&#45;&gt;Node5 -->
<g id="edge38" class="edge">
<title>Node23&#45;&gt;Node5</title>
<path fill="none" stroke="midnightblue" d="M570.48,-396.25C528.75,-388.91 475.85,-376.24 432.5,-355 393.01,-335.65 354.8,-298.82 338.6,-282.12"/>
<polygon fill="midnightblue" stroke="midnightblue" points="570.12,-399.74 580.56,-397.95 571.28,-392.83 570.12,-399.74"/>
</g>
<!-- Node23&#45;&gt;Node9 -->
<g id="edge39" class="edge">
<title>Node23&#45;&gt;Node9</title>
<path fill="none" stroke="midnightblue" d="M651.68,-381.93C659.92,-364.62 672.74,-341.22 688.5,-324 701.9,-309.36 720.26,-296.56 735.08,-287.52"/>
<polygon fill="midnightblue" stroke="midnightblue" points="648.36,-380.78 647.37,-391.33 654.72,-383.7 648.36,-380.78"/>
</g>
<!-- Node23&#45;&gt;Node13 -->
<g id="edge40" class="edge">
<title>Node23&#45;&gt;Node13</title>
<path fill="none" stroke="midnightblue" d="M639.67,-381.32C637.4,-351.38 633.65,-301.91 632.15,-282.1"/>
<polygon fill="midnightblue" stroke="midnightblue" points="636.18,-381.67 640.43,-391.37 643.16,-381.14 636.18,-381.67"/>
</g>
<!-- Node23&#45;&gt;Node14 -->
<g id="edge41" class="edge">
<title>Node23&#45;&gt;Node14</title>
<path fill="none" stroke="midnightblue" d="M570.65,-404.74C469.6,-402.32 290.63,-392.66 239.5,-355 215.1,-337.03 206.4,-299.15 203.65,-282.12"/>
<polygon fill="midnightblue" stroke="midnightblue" points="570.7,-408.24 580.78,-404.96 570.86,-401.24 570.7,-408.24"/>
</g>
<!-- Node23&#45;&gt;Node16 -->
<g id="edge42" class="edge">
<title>Node23&#45;&gt;Node16</title>
<path fill="none" stroke="midnightblue" d="M623.15,-383.46C608.54,-366.46 587.19,-342.76 566.5,-324 551.82,-310.7 533.83,-297.27 520.19,-287.62"/>
<polygon fill="midnightblue" stroke="midnightblue" points="620.6,-385.87 629.74,-391.22 625.93,-381.34 620.6,-385.87"/>
</g>
<!-- Node24&#45;&gt;Node6 -->
<g id="edge45" class="edge">
<title>Node24&#45;&gt;Node6</title>
<path fill="none" stroke="midnightblue" d="M1221.82,-393.75C1312.48,-363.45 1530.97,-278.79 1448.5,-190 1408.45,-146.88 1021.78,-140.25 848.62,-139.46"/>
<polygon fill="midnightblue" stroke="midnightblue" points="1220.59,-390.47 1212.19,-396.93 1222.78,-397.12 1220.59,-390.47"/>
</g>
<!-- Node25&#45;&gt;Node6 -->
<g id="edge47" class="edge">
<title>Node25&#45;&gt;Node6</title>
<path fill="none" stroke="midnightblue" d="M345.17,-524.21C294.67,-479.21 149.72,-346.67 126.5,-288 121.43,-275.19 121.58,-269.87 126.5,-257 140.77,-219.66 150.75,-207.88 186.5,-190 271.28,-147.6 543.46,-140.24 682.33,-139.32"/>
<polygon fill="midnightblue" stroke="midnightblue" points="342.89,-526.87 352.69,-530.89 347.54,-521.63 342.89,-526.87"/>
</g>
<!-- Node27 -->
<g id="node27" class="node">
<title>Node27</title>
<g id="a_node27"><a xlink:href="parsing_8hpp_source.html" target="_top" xlink:title=" ">
<polygon fill="none" stroke="black" points="1021.5,-458.5 1021.5,-488.5 1127.5,-488.5 1127.5,-458.5 1021.5,-458.5"/>
<text text-anchor="start" x="1029.5" y="-476.5" font-family="Helvetica,sans-Serif" font-size="10.00">arg_router/parsing</text>
<text text-anchor="middle" x="1074.5" y="-465.5" font-family="Helvetica,sans-Serif" font-size="10.00">/parsing.hpp</text>
</a>
</g>
</g>
<!-- Node26&#45;&gt;Node27 -->
<g id="edge49" class="edge">
<title>Node26&#45;&gt;Node27</title>
<path fill="none" stroke="midnightblue" d="M1077.02,-515.4C1076.46,-506.37 1075.85,-496.41 1075.37,-488.58"/>
<polygon fill="midnightblue" stroke="midnightblue" points="1073.52,-515.63 1077.63,-525.4 1080.51,-515.2 1073.52,-515.63"/>
</g>
<!-- Node27&#45;&gt;Node4 -->
<g id="edge60" class="edge">
<title>Node27&#45;&gt;Node4</title>
<path fill="none" stroke="midnightblue" d="M1032.52,-454.45C965.52,-425.64 836.97,-370.37 787.54,-349.12"/>
<polygon fill="midnightblue" stroke="midnightblue" points="1031.37,-457.76 1041.94,-458.5 1034.13,-451.33 1031.37,-457.76"/>
</g>
<!-- Node27&#45;&gt;Node20 -->
<g id="edge50" class="edge">
<title>Node27&#45;&gt;Node20</title>
<path fill="none" stroke="midnightblue" d="M1075.06,-448.38C1076.58,-430.9 1081.06,-407.54 1093.5,-391 1149.83,-316.1 1204.16,-346.34 1277.5,-288 1306.07,-265.28 1333.2,-231.09 1345.14,-215.2"/>
<polygon fill="midnightblue" stroke="midnightblue" points="1071.56,-448.19 1074.44,-458.39 1078.55,-448.62 1071.56,-448.19"/>
</g>
<!-- Node27&#45;&gt;Node22 -->
<g id="edge51" class="edge">
<title>Node27&#45;&gt;Node22</title>
<path fill="none" stroke="midnightblue" d="M1137.66,-457.35C1182.68,-446.55 1242.78,-432.14 1286.76,-421.59"/>
<polygon fill="midnightblue" stroke="midnightblue" points="1136.63,-454 1127.72,-459.74 1138.26,-460.81 1136.63,-454"/>
</g>
<!-- Node27&#45;&gt;Node23 -->
<g id="edge52" class="edge">
<title>Node27&#45;&gt;Node23</title>
<path fill="none" stroke="midnightblue" d="M1011.37,-463.02C928.51,-450.59 784.05,-428.9 702.35,-416.63"/>
<polygon fill="midnightblue" stroke="midnightblue" points="1011,-466.51 1021.41,-464.53 1012.04,-459.58 1011,-466.51"/>
</g>
<!-- Node27&#45;&gt;Node24 -->
<g id="edge53" class="edge">
<title>Node27&#45;&gt;Node24</title>
<path fill="none" stroke="midnightblue" d="M1106.98,-453.31C1127.93,-440.93 1154.16,-425.43 1170.1,-416.01"/>
<polygon fill="midnightblue" stroke="midnightblue" points="1105.2,-450.3 1098.37,-458.4 1108.76,-456.32 1105.2,-450.3"/>
</g>
<!-- Node28 -->
<g id="node28" class="node">
<title>Node28</title>
<g id="a_node28"><a xlink:href="short__form__expander_8hpp_source.html" target="_top" xlink:title=" ">
<polygon fill="none" stroke="black" points="971,-324.5 971,-354.5 1098,-354.5 1098,-324.5 971,-324.5"/>
<text text-anchor="start" x="979" y="-342.5" font-family="Helvetica,sans-Serif" font-size="10.00">arg_router/policy/short</text>
<text text-anchor="middle" x="1034.5" y="-331.5" font-family="Helvetica,sans-Serif" font-size="10.00">_form_expander.hpp</text>
</a>
</g>
</g>
<!-- Node27&#45;&gt;Node28 -->
<g id="edge54" class="edge">
<title>Node27&#45;&gt;Node28</title>
<path fill="none" stroke="midnightblue" d="M1067.3,-448.75C1058.98,-421.29 1045.56,-376.99 1038.75,-354.52"/>
<polygon fill="midnightblue" stroke="midnightblue" points="1063.97,-449.82 1070.22,-458.37 1070.67,-447.79 1063.97,-449.82"/>
</g>
<!-- Node27&#45;&gt;Node29 -->
<g id="edge58" class="edge">
<title>Node27&#45;&gt;Node29</title>
<path fill="none" stroke="midnightblue" d="M1138,-464.05C1206.59,-454.69 1319.03,-438.71 1415.5,-422 1418.17,-421.54 1420.9,-421.05 1423.65,-420.55"/>
<polygon fill="midnightblue" stroke="midnightblue" points="1137.23,-460.62 1127.79,-465.43 1138.17,-467.55 1137.23,-460.62"/>
</g>
<!-- Node28&#45;&gt;Node6 -->
<g id="edge57" class="edge">
<title>Node28&#45;&gt;Node6</title>
<path fill="none" stroke="midnightblue" d="M1108.1,-331.99C1166.87,-325.08 1242.43,-311.78 1261.5,-288 1270.12,-277.25 1267.25,-269.52 1261.5,-257 1242.43,-215.47 1225.32,-208.42 1183.5,-190 1125.3,-164.36 953.11,-150.25 848.77,-143.83"/>
<polygon fill="midnightblue" stroke="midnightblue" points="1107.62,-328.52 1098.08,-333.12 1108.41,-335.47 1107.62,-328.52"/>
</g>
<!-- Node28&#45;&gt;Node9 -->
<g id="edge55" class="edge">
<title>Node28&#45;&gt;Node9</title>
<path fill="none" stroke="midnightblue" d="M965.49,-322.13C919.49,-311.22 859.8,-297.06 816.7,-286.83"/>
<polygon fill="midnightblue" stroke="midnightblue" points="964.85,-325.57 975.38,-324.48 966.46,-318.76 964.85,-325.57"/>
</g>
<!-- Node28&#45;&gt;Node13 -->
<g id="edge56" class="edge">
<title>Node28&#45;&gt;Node13</title>
<path fill="none" stroke="midnightblue" d="M960.54,-329.11C891.68,-319.98 786.31,-305.03 695.5,-288 686.21,-286.26 676.21,-284.12 666.95,-282.03"/>
<polygon fill="midnightblue" stroke="midnightblue" points="960.47,-332.63 970.85,-330.47 961.39,-325.69 960.47,-332.63"/>
</g>
<!-- Node29&#45;&gt;Node7 -->
<g id="edge59" class="edge">
<title>Node29&#45;&gt;Node7</title>
<path fill="none" stroke="midnightblue" d="M1504.48,-382.74C1520.72,-357.34 1543.5,-314.41 1543.5,-273.5 1543.5,-273.5 1543.5,-273.5 1543.5,-137.5 1543.5,-99.74 1543.8,-84.91 1519.5,-56 1504.3,-37.92 1480.08,-26.44 1460.45,-19.6"/>
<polygon fill="midnightblue" stroke="midnightblue" points="1501.43,-381 1498.85,-391.27 1507.28,-384.85 1501.43,-381"/>
</g>
<!-- Node30&#45;&gt;Node7 -->
<g id="edge62" class="edge">
<title>Node30&#45;&gt;Node7</title>
<path fill="none" stroke="midnightblue" d="M1537.78,-456.39C1546.32,-447.07 1556.28,-434.71 1562.5,-422 1578.86,-388.6 1581.5,-377.69 1581.5,-340.5 1581.5,-340.5 1581.5,-340.5 1581.5,-137.5 1581.5,-97.34 1571.88,-83.38 1542.5,-56 1522.58,-37.43 1494.08,-26.18 1470.56,-19.57"/>
<polygon fill="midnightblue" stroke="midnightblue" points="1535.15,-454.07 1530.77,-463.72 1540.21,-458.91 1535.15,-454.07"/>
</g>
<!-- Node31&#45;&gt;Node7 -->
<g id="edge64" class="edge">
<title>Node31&#45;&gt;Node7</title>
<path fill="none" stroke="midnightblue" d="M1655.55,-115.24C1641.98,-96.73 1620.34,-71.06 1595.5,-56 1564.3,-37.08 1525.1,-25.99 1492.52,-19.55"/>
<polygon fill="midnightblue" stroke="midnightblue" points="1652.72,-117.3 1661.37,-123.43 1658.43,-113.25 1652.72,-117.3"/>
</g>
<!-- Node32&#45;&gt;Node14 -->
<g id="edge66" class="edge">
<title>Node32&#45;&gt;Node14</title>
<path fill="none" stroke="midnightblue" d="M106.71,-319.97C132.45,-307.48 165.19,-291.6 184.96,-282.01"/>
<polygon fill="midnightblue" stroke="midnightblue" points="105.05,-316.88 97.58,-324.4 108.1,-323.18 105.05,-316.88"/>
</g>
<!-- Node33 -->
<g id="node33" class="node">
<title>Node33</title>
<g id="a_node33"><a xlink:href="colour__help__formatter_8hpp_source.html" target="_top" xlink:title=" ">
<polygon fill="none" stroke="black" points="108.5,-56.5 108.5,-86.5 240.5,-86.5 240.5,-56.5 108.5,-56.5"/>
<text text-anchor="start" x="116.5" y="-74.5" font-family="Helvetica,sans-Serif" font-size="10.00">arg_router/policy/colour</text>
<text text-anchor="middle" x="174.5" y="-63.5" font-family="Helvetica,sans-Serif" font-size="10.00">_help_formatter.hpp</text>
</a>
</g>
</g>
<!-- Node32&#45;&gt;Node33 -->
<g id="edge67" class="edge">
<title>Node32&#45;&gt;Node33</title>
<path fill="none" stroke="midnightblue" d="M62.78,-314.32C56.83,-284.08 50.41,-231.29 66.5,-190 84.11,-144.82 128.11,-106.5 154.19,-86.78"/>
<polygon fill="midnightblue" stroke="midnightblue" points="59.42,-315.31 64.91,-324.37 66.26,-313.86 59.42,-315.31"/>
</g>
<!-- Node33&#45;&gt;Node7 -->
<g id="edge68" class="edge">
<title>Node33&#45;&gt;Node7</title>
<path fill="none" stroke="midnightblue" d="M250.69,-66.88C476.54,-56.17 1140.19,-24.68 1358.21,-14.34"/>
<polygon fill="midnightblue" stroke="midnightblue" points="250.42,-63.39 240.59,-67.36 250.75,-70.39 250.42,-63.39"/>
</g>
<!-- Node34&#45;&gt;Node5 -->
<g id="edge70" class="edge">
<title>Node34&#45;&gt;Node5</title>
<path fill="none" stroke="midnightblue" d="M319.12,-314.6C322.25,-303.28 325.8,-290.46 328.09,-282.19"/>
<polygon fill="midnightblue" stroke="midnightblue" points="315.7,-313.82 316.41,-324.4 322.45,-315.69 315.7,-313.82"/>
</g>
<!-- Node34&#45;&gt;Node6 -->
<g id="edge74" class="edge">
<title>Node34&#45;&gt;Node6</title>
<path fill="none" stroke="midnightblue" d="M238.92,-330.34C178.46,-320.46 107.31,-299.52 137.5,-257 199.6,-169.56 526.21,-147.18 682.29,-141.46"/>
<polygon fill="midnightblue" stroke="midnightblue" points="238.48,-333.82 248.89,-331.89 239.55,-326.9 238.48,-333.82"/>
</g>
<!-- Node34&#45;&gt;Node9 -->
<g id="edge71" class="edge">
<title>Node34&#45;&gt;Node9</title>
<path fill="none" stroke="midnightblue" d="M386.3,-329.5C480.16,-317.92 636.97,-298.1 694.5,-288 697.74,-287.43 701.05,-286.81 704.39,-286.17"/>
<polygon fill="midnightblue" stroke="midnightblue" points="385.79,-326.04 376.3,-330.73 386.65,-332.98 385.79,-326.04"/>
</g>
<!-- Node34&#45;&gt;Node13 -->
<g id="edge72" class="edge">
<title>Node34&#45;&gt;Node13</title>
<path fill="none" stroke="midnightblue" d="M386.21,-324.46C437.19,-314.61 506.56,-300.94 567.5,-288 576.3,-286.13 585.77,-284.04 594.65,-282.03"/>
<polygon fill="midnightblue" stroke="midnightblue" points="385.42,-321.04 376.26,-326.37 386.74,-327.92 385.42,-321.04"/>
</g>
<!-- Node34&#45;&gt;Node14 -->
<g id="edge73" class="edge">
<title>Node34&#45;&gt;Node14</title>
<path fill="none" stroke="midnightblue" d="M280.02,-319.31C259.07,-306.93 232.84,-291.43 216.9,-282.01"/>
<polygon fill="midnightblue" stroke="midnightblue" points="278.24,-322.32 288.63,-324.4 281.8,-316.3 278.24,-322.32"/>
</g>
<!-- Node35&#45;&gt;Node5 -->
<g id="edge78" class="edge">
<title>Node35&#45;&gt;Node5</title>
<path fill="none" stroke="midnightblue" d="M453.44,-320.78C420.67,-308.18 378.1,-291.81 352.62,-282.01"/>
<polygon fill="midnightblue" stroke="midnightblue" points="452.24,-324.07 462.83,-324.4 454.75,-317.54 452.24,-324.07"/>
</g>
<!-- Node35&#45;&gt;Node9 -->
<g id="edge79" class="edge">
<title>Node35&#45;&gt;Node9</title>
<path fill="none" stroke="midnightblue" d="M565.58,-322.04C608.4,-311.38 663.58,-297.64 704.29,-287.5"/>
<polygon fill="midnightblue" stroke="midnightblue" points="564.67,-318.66 555.81,-324.48 566.36,-325.46 564.67,-318.66"/>
</g>
<!-- Node35&#45;&gt;Node13 -->
<g id="edge80" class="edge">
<title>Node35&#45;&gt;Node13</title>
<path fill="none" stroke="midnightblue" d="M537.14,-319.97C562.49,-307.48 594.75,-291.6 614.22,-282.01"/>
<polygon fill="midnightblue" stroke="midnightblue" points="535.57,-316.84 528.14,-324.4 538.66,-323.12 535.57,-316.84"/>
</g>
<!-- Node35&#45;&gt;Node14 -->
<g id="edge81" class="edge">
<title>Node35&#45;&gt;Node14</title>
<path fill="none" stroke="midnightblue" d="M431.41,-323.78C385.17,-313.75 322.63,-300.15 267.5,-288 258.81,-286.08 249.46,-284.01 240.64,-282.04"/>
<polygon fill="midnightblue" stroke="midnightblue" points="430.81,-327.23 441.32,-325.92 432.29,-320.38 430.81,-327.23"/>
</g>
<!-- Node35&#45;&gt;Node15 -->
<g id="edge82" class="edge">
<title>Node35&#45;&gt;Node15</title>
<path fill="none" stroke="midnightblue" d="M465.05,-318.95C439.72,-302.17 412.72,-277.51 431.5,-257 462.23,-223.44 794.5,-227.76 839.5,-221 849.89,-219.44 861.07,-217.27 871.3,-215.08"/>
<polygon fill="midnightblue" stroke="midnightblue" points="463.19,-321.92 473.51,-324.32 466.94,-316.01 463.19,-321.92"/>
</g>
<!-- Node35&#45;&gt;Node16 -->
<g id="edge83" class="edge">
<title>Node35&#45;&gt;Node16</title>
<path fill="none" stroke="midnightblue" d="M499.5,-314.11C499.5,-305.15 499.5,-295.32 499.5,-287.58"/>
<polygon fill="midnightblue" stroke="midnightblue" points="496,-314.4 499.5,-324.4 503,-314.4 496,-314.4"/>
</g>
</g>
</svg>
