<?xml version="1.0" encoding="UTF-8" standalone="no"?>
<!DOCTYPE svg PUBLIC "-//W3C//DTD SVG 1.1//EN"
 "http://www.w3.org/Graphics/SVG/1.1/DTD/svg11.dtd">
<!-- Generated by graphviz version 2.43.0 (0)
 -->
<!-- Title: arg_router/utility/compile_time_string.hpp Pages: 1 -->
<svg width="1458pt" height="430pt"
 viewBox="0.00 0.00 1458.17 430.00" xmlns="http://www.w3.org/2000/svg" xmlns:xlink="http://www.w3.org/1999/xlink">
<g id="graph0" class="graph" transform="scale(1 1) rotate(0) translate(4 426)">
<title>arg_router/utility/compile_time_string.hpp</title>
<polygon fill="white" stroke="transparent" points="-4,4 -4,-426 1454.17,-426 1454.17,4 -4,4"/>
<!-- Node1 -->
<g id="node1" class="node">
<title>Node1</title>
<g id="a_node1"><a xlink:title=" ">
<polygon fill="#bfbfbf" stroke="black" points="189,-391.5 189,-421.5 329,-421.5 329,-391.5 189,-391.5"/>
<text text-anchor="start" x="197" y="-409.5" font-family="Helvetica,sans-Serif" font-size="10.00">arg_router/utility</text>
<text text-anchor="middle" x="259" y="-398.5" font-family="Helvetica,sans-Serif" font-size="10.00">/compile_time_string.hpp</text>
</a>
</g>
</g>
<!-- Node2 -->
<g id="node2" class="node">
<title>Node2</title>
<g id="a_node2"><a xlink:href="string__selector_8hpp.html" target="_top" xlink:title=" ">
<polygon fill="white" stroke="black" points="0,-123.5 0,-153.5 122,-153.5 122,-123.5 0,-123.5"/>
<text text-anchor="start" x="8" y="-141.5" font-family="Helvetica,sans-Serif" font-size="10.00">arg_router/multi_lang</text>
<text text-anchor="middle" x="61" y="-130.5" font-family="Helvetica,sans-Serif" font-size="10.00">/string_selector.hpp</text>
</a>
</g>
</g>
<!-- Node1&#45;&gt;Node2 -->
<g id="edge1" class="edge">
<title>Node1&#45;&gt;Node2</title>
<path fill="none" stroke="midnightblue" d="M187.73,-387.89C168.91,-380.36 149.98,-369.77 136,-355 79.62,-295.45 65.38,-191.31 61.99,-153.62"/>
<polygon fill="midnightblue" stroke="midnightblue" points="186.64,-391.22 197.23,-391.45 189.09,-384.66 186.64,-391.22"/>
</g>
<!-- Node4 -->
<g id="node4" class="node">
<title>Node4</title>
<g id="a_node4"><a xlink:href="default__help__formatter_8hpp_source.html" target="_top" xlink:title=" ">
<polygon fill="white" stroke="black" points="190.5,-324.5 190.5,-354.5 327.5,-354.5 327.5,-324.5 190.5,-324.5"/>
<text text-anchor="start" x="198.5" y="-342.5" font-family="Helvetica,sans-Serif" font-size="10.00">arg_router/policy/default</text>
<text text-anchor="middle" x="259" y="-331.5" font-family="Helvetica,sans-Serif" font-size="10.00">_help_formatter.hpp</text>
</a>
</g>
</g>
<!-- Node1&#45;&gt;Node4 -->
<g id="edge3" class="edge">
<title>Node1&#45;&gt;Node4</title>
<path fill="none" stroke="midnightblue" d="M259,-381.11C259,-372.15 259,-362.32 259,-354.58"/>
<polygon fill="midnightblue" stroke="midnightblue" points="255.5,-381.4 259,-391.4 262.5,-381.4 255.5,-381.4"/>
</g>
<!-- Node9 -->
<g id="node9" class="node">
<title>Node9</title>
<g id="a_node9"><a xlink:href="short__name_8hpp_source.html" target="_top" xlink:title=" ">
<polygon fill="white" stroke="black" points="1180.5,-324.5 1180.5,-354.5 1307.5,-354.5 1307.5,-324.5 1180.5,-324.5"/>
<text text-anchor="start" x="1188.5" y="-342.5" font-family="Helvetica,sans-Serif" font-size="10.00">arg_router/policy/short</text>
<text text-anchor="middle" x="1244" y="-331.5" font-family="Helvetica,sans-Serif" font-size="10.00">_name.hpp</text>
</a>
</g>
</g>
<!-- Node1&#45;&gt;Node9 -->
<g id="edge11" class="edge">
<title>Node1&#45;&gt;Node9</title>
<path fill="none" stroke="midnightblue" d="M339.29,-400.2C530.12,-387.61 1007.75,-356.09 1180.44,-344.69"/>
<polygon fill="midnightblue" stroke="midnightblue" points="338.8,-396.73 329.05,-400.88 339.26,-403.71 338.8,-396.73"/>
</g>
<!-- Node10 -->
<g id="node10" class="node">
<title>Node10</title>
<g id="a_node10"><a xlink:href="value__separator_8hpp_source.html" target="_top" xlink:title=" ">
<polygon fill="white" stroke="black" points="89.5,-56.5 89.5,-86.5 218.5,-86.5 218.5,-56.5 89.5,-56.5"/>
<text text-anchor="start" x="97.5" y="-74.5" font-family="Helvetica,sans-Serif" font-size="10.00">arg_router/policy/value</text>
<text text-anchor="middle" x="154" y="-63.5" font-family="Helvetica,sans-Serif" font-size="10.00">_separator.hpp</text>
</a>
</g>
</g>
<!-- Node1&#45;&gt;Node10 -->
<g id="edge13" class="edge">
<title>Node1&#45;&gt;Node10</title>
<path fill="none" stroke="midnightblue" d="M219.98,-386.34C206.52,-378.19 192.25,-367.62 182,-355 157.46,-324.8 150,-312.41 150,-273.5 150,-273.5 150,-273.5 150,-204.5 150,-161.63 152.13,-110.96 153.28,-86.75"/>
<polygon fill="midnightblue" stroke="midnightblue" points="218.25,-389.38 228.67,-391.34 221.75,-383.31 218.25,-389.38"/>
</g>
<!-- Node11 -->
<g id="node11" class="node">
<title>Node11</title>
<g id="a_node11"><a xlink:href="tree__node_8hpp_source.html" target="_top" xlink:title=" ">
<polygon fill="white" stroke="black" points="741,-330 741,-349 881,-349 881,-330 741,-330"/>
<text text-anchor="middle" x="811" y="-337" font-family="Helvetica,sans-Serif" font-size="10.00">arg_router/tree_node.hpp</text>
</a>
</g>
</g>
<!-- Node1&#45;&gt;Node11 -->
<g id="edge15" class="edge">
<title>Node1&#45;&gt;Node11</title>
<path fill="none" stroke="midnightblue" d="M339.4,-396.03C447.57,-383.3 638.22,-360.84 740.87,-348.76"/>
<polygon fill="midnightblue" stroke="midnightblue" points="338.71,-392.59 329.19,-397.23 339.53,-399.54 338.71,-392.59"/>
</g>
<!-- Node3 -->
<g id="node3" class="node">
<title>Node3</title>
<g id="a_node3"><a xlink:href="arg__router_8hpp_source.html" target="_top" xlink:title=" ">
<polygon fill="white" stroke="black" points="177,-0.5 177,-19.5 317,-19.5 317,-0.5 177,-0.5"/>
<text text-anchor="middle" x="247" y="-7.5" font-family="Helvetica,sans-Serif" font-size="10.00">arg_router/arg_router.hpp</text>
</a>
</g>
</g>
<!-- Node2&#45;&gt;Node3 -->
<g id="edge2" class="edge">
<title>Node2&#45;&gt;Node3</title>
<path fill="none" stroke="midnightblue" d="M60.37,-113.28C61.22,-95.21 65.38,-71.13 80,-56 105.04,-30.09 143.3,-18.58 176.88,-13.67"/>
<polygon fill="midnightblue" stroke="midnightblue" points="56.86,-113.31 60.19,-123.37 63.86,-113.43 56.86,-113.31"/>
</g>
<!-- Node5 -->
<g id="node5" class="node">
<title>Node5</title>
<g id="a_node5"><a xlink:href="help_8hpp_source.html" target="_top" xlink:title=" ">
<polygon fill="white" stroke="black" points="216,-263 216,-282 328,-282 328,-263 216,-263"/>
<text text-anchor="middle" x="272" y="-270" font-family="Helvetica,sans-Serif" font-size="10.00">arg_router/help.hpp</text>
</a>
</g>
</g>
<!-- Node4&#45;&gt;Node5 -->
<g id="edge4" class="edge">
<title>Node4&#45;&gt;Node5</title>
<path fill="none" stroke="midnightblue" d="M263.85,-314.25C266.1,-303.02 268.62,-290.38 270.26,-282.19"/>
<polygon fill="midnightblue" stroke="midnightblue" points="260.35,-313.9 261.82,-324.4 267.21,-315.28 260.35,-313.9"/>
</g>
<!-- Node8 -->
<g id="node8" class="node">
<title>Node8</title>
<g id="a_node8"><a xlink:href="colour__help__formatter_8hpp_source.html" target="_top" xlink:title=" ">
<polygon fill="white" stroke="black" points="180,-123.5 180,-153.5 312,-153.5 312,-123.5 180,-123.5"/>
<text text-anchor="start" x="188" y="-141.5" font-family="Helvetica,sans-Serif" font-size="10.00">arg_router/policy/colour</text>
<text text-anchor="middle" x="246" y="-130.5" font-family="Helvetica,sans-Serif" font-size="10.00">_help_formatter.hpp</text>
</a>
</g>
</g>
<!-- Node4&#45;&gt;Node8 -->
<g id="edge9" class="edge">
<title>Node4&#45;&gt;Node8</title>
<path fill="none" stroke="midnightblue" d="M229.79,-317.76C220.73,-309.63 211.85,-299.48 207,-288 187.07,-240.86 218.97,-180.9 236.17,-153.86"/>
<polygon fill="midnightblue" stroke="midnightblue" points="227.79,-320.65 237.7,-324.38 232.28,-315.28 227.79,-320.65"/>
</g>
<!-- Node6 -->
<g id="node6" class="node">
<title>Node6</title>
<g id="a_node6"><a xlink:href="validator_8hpp_source.html" target="_top" xlink:title=" ">
<polygon fill="white" stroke="black" points="665,-129 665,-148 831,-148 831,-129 665,-129"/>
<text text-anchor="middle" x="748" y="-136" font-family="Helvetica,sans-Serif" font-size="10.00">arg_router/policy/validator.hpp</text>
</a>
</g>
</g>
<!-- Node5&#45;&gt;Node6 -->
<g id="edge5" class="edge">
<title>Node5&#45;&gt;Node6</title>
<path fill="none" stroke="midnightblue" d="M264.8,-253.27C258.89,-234.93 253.72,-206.98 269,-190 294.94,-161.18 534.79,-147.61 664.93,-142.32"/>
<polygon fill="midnightblue" stroke="midnightblue" points="261.55,-254.58 268.22,-262.81 268.14,-252.22 261.55,-254.58"/>
</g>
<!-- Node6&#45;&gt;Node3 -->
<g id="edge6" class="edge">
<title>Node6&#45;&gt;Node3</title>
<path fill="none" stroke="midnightblue" d="M716.85,-125.36C671.04,-107.9 582.56,-75.65 505,-56 439.99,-39.53 364.24,-27.1 311.72,-19.52"/>
<polygon fill="midnightblue" stroke="midnightblue" points="715.63,-128.64 726.22,-128.95 718.13,-122.11 715.63,-128.64"/>
</g>
<!-- Node7 -->
<g id="node7" class="node">
<title>Node7</title>
<g id="a_node7"><a xlink:href="validator__rule__utilities_8hpp_source.html" target="_top" xlink:title=" ">
<polygon fill="white" stroke="black" points="350,-56.5 350,-86.5 496,-86.5 496,-56.5 350,-56.5"/>
<text text-anchor="start" x="358" y="-74.5" font-family="Helvetica,sans-Serif" font-size="10.00">arg_router/policy/validator</text>
<text text-anchor="middle" x="423" y="-63.5" font-family="Helvetica,sans-Serif" font-size="10.00">_rule_utilities.hpp</text>
</a>
</g>
</g>
<!-- Node6&#45;&gt;Node7 -->
<g id="edge7" class="edge">
<title>Node6&#45;&gt;Node7</title>
<path fill="none" stroke="midnightblue" d="M695.3,-126.96C640.38,-115.98 554,-98.7 493.3,-86.56"/>
<polygon fill="midnightblue" stroke="midnightblue" points="694.69,-130.41 705.18,-128.94 696.06,-123.54 694.69,-130.41"/>
</g>
<!-- Node7&#45;&gt;Node3 -->
<g id="edge8" class="edge">
<title>Node7&#45;&gt;Node3</title>
<path fill="none" stroke="midnightblue" d="M371.46,-53.08C338.86,-42.05 298.15,-28.29 272.35,-19.57"/>
<polygon fill="midnightblue" stroke="midnightblue" points="370.7,-56.51 381.29,-56.4 372.94,-49.88 370.7,-56.51"/>
</g>
<!-- Node8&#45;&gt;Node3 -->
<g id="edge10" class="edge">
<title>Node8&#45;&gt;Node3</title>
<path fill="none" stroke="midnightblue" d="M246.19,-113.14C246.42,-84.62 246.78,-38.86 246.93,-19.79"/>
<polygon fill="midnightblue" stroke="midnightblue" points="242.69,-113.45 246.11,-123.48 249.69,-113.51 242.69,-113.45"/>
</g>
<!-- Node9&#45;&gt;Node6 -->
<g id="edge12" class="edge">
<title>Node9&#45;&gt;Node6</title>
<path fill="none" stroke="midnightblue" d="M1317.78,-329.29C1367.76,-321.37 1427.44,-308 1443,-288 1470.03,-253.25 1408.63,-194.06 1402,-190 1354.41,-160.86 996.33,-146.74 831.09,-141.72"/>
<polygon fill="midnightblue" stroke="midnightblue" points="1316.96,-325.88 1307.61,-330.85 1318.02,-332.8 1316.96,-325.88"/>
</g>
<!-- Node10&#45;&gt;Node3 -->
<g id="edge14" class="edge">
<title>Node10&#45;&gt;Node3</title>
<path fill="none" stroke="midnightblue" d="M184.83,-50.78C201.31,-40.23 220.77,-27.78 233.47,-19.66"/>
<polygon fill="midnightblue" stroke="midnightblue" points="182.58,-48.06 176.04,-56.4 186.35,-53.96 182.58,-48.06"/>
</g>
<!-- Node11&#45;&gt;Node5 -->
<g id="edge27" class="edge">
<title>Node11&#45;&gt;Node5</title>
<path fill="none" stroke="midnightblue" d="M730.72,-328.82C620.28,-315.5 424.25,-291.86 328.2,-280.28"/>
<polygon fill="midnightblue" stroke="midnightblue" points="730.46,-332.31 740.81,-330.04 731.3,-325.36 730.46,-332.31"/>
</g>
<!-- Node12 -->
<g id="node12" class="node">
<title>Node12</title>
<g id="a_node12"><a xlink:href="arg_8hpp_source.html" target="_top" xlink:title=" ">
<polygon fill="white" stroke="black" points="825.5,-196 825.5,-215 932.5,-215 932.5,-196 825.5,-196"/>
<text text-anchor="middle" x="879" y="-203" font-family="Helvetica,sans-Serif" font-size="10.00">arg_router/arg.hpp</text>
</a>
</g>
</g>
<!-- Node11&#45;&gt;Node12 -->
<g id="edge16" class="edge">
<title>Node11&#45;&gt;Node12</title>
<path fill="none" stroke="midnightblue" d="M820.06,-320.92C834.85,-292.2 863.64,-236.32 874.61,-215.02"/>
<polygon fill="midnightblue" stroke="midnightblue" points="816.93,-319.35 815.46,-329.84 823.15,-322.55 816.93,-319.35"/>
</g>
<!-- Node13 -->
<g id="node13" class="node">
<title>Node13</title>
<g id="a_node13"><a xlink:href="counting__flag_8hpp_source.html" target="_top" xlink:title=" ">
<polygon fill="white" stroke="black" points="951,-190.5 951,-220.5 1063,-220.5 1063,-190.5 951,-190.5"/>
<text text-anchor="start" x="959" y="-208.5" font-family="Helvetica,sans-Serif" font-size="10.00">arg_router/counting</text>
<text text-anchor="middle" x="1007" y="-197.5" font-family="Helvetica,sans-Serif" font-size="10.00">_flag.hpp</text>
</a>
</g>
</g>
<!-- Node11&#45;&gt;Node13 -->
<g id="edge18" class="edge">
<title>Node11&#45;&gt;Node13</title>
<path fill="none" stroke="midnightblue" d="M832.59,-323.96C870.53,-298.41 948.67,-245.79 986.11,-220.57"/>
<polygon fill="midnightblue" stroke="midnightblue" points="830.2,-321.35 823.86,-329.84 834.11,-327.16 830.2,-321.35"/>
</g>
<!-- Node14 -->
<g id="node14" class="node">
<title>Node14</title>
<g id="a_node14"><a xlink:href="detail_8hpp_source.html" target="_top" xlink:title=" ">
<polygon fill="white" stroke="black" points="1041.5,-257.5 1041.5,-287.5 1170.5,-287.5 1170.5,-257.5 1041.5,-257.5"/>
<text text-anchor="start" x="1049.5" y="-275.5" font-family="Helvetica,sans-Serif" font-size="10.00">arg_router/dependency</text>
<text text-anchor="middle" x="1106" y="-264.5" font-family="Helvetica,sans-Serif" font-size="10.00">/detail.hpp</text>
</a>
</g>
</g>
<!-- Node11&#45;&gt;Node14 -->
<g id="edge20" class="edge">
<title>Node11&#45;&gt;Node14</title>
<path fill="none" stroke="midnightblue" d="M859.77,-327.75C909.66,-316.76 987.43,-299.63 1042.19,-287.56"/>
<polygon fill="midnightblue" stroke="midnightblue" points="858.88,-324.37 849.87,-329.94 860.39,-331.2 858.88,-324.37"/>
</g>
<!-- Node17 -->
<g id="node17" class="node">
<title>Node17</title>
<g id="a_node17"><a xlink:href="flag_8hpp_source.html" target="_top" xlink:title=" ">
<polygon fill="white" stroke="black" points="1188.5,-263 1188.5,-282 1297.5,-282 1297.5,-263 1188.5,-263"/>
<text text-anchor="middle" x="1243" y="-270" font-family="Helvetica,sans-Serif" font-size="10.00">arg_router/flag.hpp</text>
</a>
</g>
</g>
<!-- Node11&#45;&gt;Node17 -->
<g id="edge25" class="edge">
<title>Node11&#45;&gt;Node17</title>
<path fill="none" stroke="midnightblue" d="M891.32,-329.63C966.29,-320.84 1081.14,-306.1 1180,-288 1189.27,-286.3 1199.24,-284.16 1208.46,-282.04"/>
<polygon fill="midnightblue" stroke="midnightblue" points="890.54,-326.19 881.01,-330.83 891.35,-333.15 890.54,-326.19"/>
</g>
<!-- Node18 -->
<g id="node18" class="node">
<title>Node18</title>
<g id="a_node18"><a xlink:href="mode_8hpp_source.html" target="_top" xlink:title=" ">
<polygon fill="white" stroke="black" points="688.5,-196 688.5,-215 807.5,-215 807.5,-196 688.5,-196"/>
<text text-anchor="middle" x="748" y="-203" font-family="Helvetica,sans-Serif" font-size="10.00">arg_router/mode.hpp</text>
</a>
</g>
</g>
<!-- Node11&#45;&gt;Node18 -->
<g id="edge28" class="edge">
<title>Node11&#45;&gt;Node18</title>
<path fill="none" stroke="midnightblue" d="M802.43,-320.54C788.67,-291.72 762.19,-236.22 752.07,-215.02"/>
<polygon fill="midnightblue" stroke="midnightblue" points="799.4,-322.32 806.87,-329.84 805.72,-319.31 799.4,-322.32"/>
</g>
<!-- Node19 -->
<g id="node19" class="node">
<title>Node19</title>
<g id="a_node19"><a xlink:href="positional__arg_8hpp_source.html" target="_top" xlink:title=" ">
<polygon fill="white" stroke="black" points="1316,-257.5 1316,-287.5 1434,-287.5 1434,-257.5 1316,-257.5"/>
<text text-anchor="start" x="1324" y="-275.5" font-family="Helvetica,sans-Serif" font-size="10.00">arg_router/positional</text>
<text text-anchor="middle" x="1375" y="-264.5" font-family="Helvetica,sans-Serif" font-size="10.00">_arg.hpp</text>
</a>
</g>
</g>
<!-- Node11&#45;&gt;Node19 -->
<g id="edge30" class="edge">
<title>Node11&#45;&gt;Node19</title>
<path fill="none" stroke="midnightblue" d="M891.29,-333.02C989.67,-325.69 1161.24,-310.89 1307,-288 1309.86,-287.55 1312.78,-287.06 1315.73,-286.53"/>
<polygon fill="midnightblue" stroke="midnightblue" points="890.84,-329.54 881.13,-333.77 891.36,-336.53 890.84,-329.54"/>
</g>
<!-- Node20 -->
<g id="node20" class="node">
<title>Node20</title>
<g id="a_node20"><a xlink:href="root_8hpp_source.html" target="_top" xlink:title=" ">
<polygon fill="white" stroke="black" points="413,-263 413,-282 523,-282 523,-263 413,-263"/>
<text text-anchor="middle" x="468" y="-270" font-family="Helvetica,sans-Serif" font-size="10.00">arg_router/root.hpp</text>
</a>
</g>
</g>
<!-- Node11&#45;&gt;Node20 -->
<g id="edge32" class="edge">
<title>Node11&#45;&gt;Node20</title>
<path fill="none" stroke="midnightblue" d="M755.79,-328.04C688.33,-315.25 575.48,-293.87 513.02,-282.03"/>
<polygon fill="midnightblue" stroke="midnightblue" points="755.33,-331.51 765.81,-329.94 756.63,-324.63 755.33,-331.51"/>
</g>
<!-- Node21 -->
<g id="node21" class="node">
<title>Node21</title>
<g id="a_node21"><a xlink:href="tree__recursor_8hpp_source.html" target="_top" xlink:title=" ">
<polygon fill="white" stroke="black" points="608,-257.5 608,-287.5 712,-287.5 712,-257.5 608,-257.5"/>
<text text-anchor="start" x="616" y="-275.5" font-family="Helvetica,sans-Serif" font-size="10.00">arg_router/utility</text>
<text text-anchor="middle" x="660" y="-264.5" font-family="Helvetica,sans-Serif" font-size="10.00">/tree_recursor.hpp</text>
</a>
</g>
</g>
<!-- Node11&#45;&gt;Node21 -->
<g id="edge34" class="edge">
<title>Node11&#45;&gt;Node21</title>
<path fill="none" stroke="midnightblue" d="M781.76,-325.91C756.19,-314.91 719.1,-298.94 692.59,-287.53"/>
<polygon fill="midnightblue" stroke="midnightblue" points="780.38,-329.13 790.95,-329.87 783.15,-322.7 780.38,-329.13"/>
</g>
<!-- Node12&#45;&gt;Node6 -->
<g id="edge17" class="edge">
<title>Node12&#45;&gt;Node6</title>
<path fill="none" stroke="midnightblue" d="M852.34,-191.27C826.4,-178.4 787.72,-159.21 765.47,-148.17"/>
<polygon fill="midnightblue" stroke="midnightblue" points="851.09,-194.56 861.6,-195.87 854.2,-188.29 851.09,-194.56"/>
</g>
<!-- Node13&#45;&gt;Node6 -->
<g id="edge19" class="edge">
<title>Node13&#45;&gt;Node6</title>
<path fill="none" stroke="midnightblue" d="M941.21,-187.99C890.46,-175.25 822.31,-158.15 781.98,-148.03"/>
<polygon fill="midnightblue" stroke="midnightblue" points="940.57,-191.44 951.12,-190.48 942.27,-184.65 940.57,-191.44"/>
</g>
<!-- Node15 -->
<g id="node15" class="node">
<title>Node15</title>
<g id="a_node15"><a xlink:href="alias__group_8hpp_source.html" target="_top" xlink:title=" ">
<polygon fill="white" stroke="black" points="1081.5,-190.5 1081.5,-220.5 1210.5,-220.5 1210.5,-190.5 1081.5,-190.5"/>
<text text-anchor="start" x="1089.5" y="-208.5" font-family="Helvetica,sans-Serif" font-size="10.00">arg_router/dependency</text>
<text text-anchor="middle" x="1146" y="-197.5" font-family="Helvetica,sans-Serif" font-size="10.00">/alias_group.hpp</text>
</a>
</g>
</g>
<!-- Node14&#45;&gt;Node15 -->
<g id="edge21" class="edge">
<title>Node14&#45;&gt;Node15</title>
<path fill="none" stroke="midnightblue" d="M1119.93,-248.87C1125.72,-239.46 1132.26,-228.83 1137.34,-220.58"/>
<polygon fill="midnightblue" stroke="midnightblue" points="1116.94,-247.05 1114.68,-257.4 1122.9,-250.71 1116.94,-247.05"/>
</g>
<!-- Node16 -->
<g id="node16" class="node">
<title>Node16</title>
<g id="a_node16"><a xlink:href="one__of_8hpp_source.html" target="_top" xlink:title=" ">
<polygon fill="white" stroke="black" points="1228.5,-190.5 1228.5,-220.5 1357.5,-220.5 1357.5,-190.5 1228.5,-190.5"/>
<text text-anchor="start" x="1236.5" y="-208.5" font-family="Helvetica,sans-Serif" font-size="10.00">arg_router/dependency</text>
<text text-anchor="middle" x="1293" y="-197.5" font-family="Helvetica,sans-Serif" font-size="10.00">/one_of.hpp</text>
</a>
</g>
</g>
<!-- Node14&#45;&gt;Node16 -->
<g id="edge23" class="edge">
<title>Node14&#45;&gt;Node16</title>
<path fill="none" stroke="midnightblue" d="M1156.08,-254.09C1186.27,-243.6 1224.22,-230.41 1252.5,-220.58"/>
<polygon fill="midnightblue" stroke="midnightblue" points="1154.87,-250.81 1146.58,-257.4 1157.17,-257.42 1154.87,-250.81"/>
</g>
<!-- Node15&#45;&gt;Node6 -->
<g id="edge22" class="edge">
<title>Node15&#45;&gt;Node6</title>
<path fill="none" stroke="midnightblue" d="M1071.31,-189.92C972.68,-172.71 870.13,-157.24 807.24,-148.03"/>
<polygon fill="midnightblue" stroke="midnightblue" points="1071,-193.42 1081.45,-191.7 1072.21,-186.52 1071,-193.42"/>
</g>
<!-- Node16&#45;&gt;Node6 -->
<g id="edge24" class="edge">
<title>Node16&#45;&gt;Node6</title>
<path fill="none" stroke="midnightblue" d="M1218.05,-189.78C1077.16,-168.64 923.75,-154.03 831.42,-146.15"/>
<polygon fill="midnightblue" stroke="midnightblue" points="1217.76,-193.27 1228.17,-191.31 1218.81,-186.35 1217.76,-193.27"/>
</g>
<!-- Node17&#45;&gt;Node6 -->
<g id="edge26" class="edge">
<title>Node17&#45;&gt;Node6</title>
<path fill="none" stroke="midnightblue" d="M1288.41,-260.18C1334.77,-246.57 1396.1,-221.57 1367,-190 1331.42,-151.4 991.74,-142.3 831.24,-140.16"/>
<polygon fill="midnightblue" stroke="midnightblue" points="1287.45,-256.82 1278.78,-262.91 1289.36,-263.55 1287.45,-256.82"/>
</g>
<!-- Node18&#45;&gt;Node6 -->
<g id="edge29" class="edge">
<title>Node18&#45;&gt;Node6</title>
<path fill="none" stroke="midnightblue" d="M748,-185.54C748,-173.17 748,-157.62 748,-148.13"/>
<polygon fill="midnightblue" stroke="midnightblue" points="744.5,-185.73 748,-195.73 751.5,-185.73 744.5,-185.73"/>
</g>
<!-- Node19&#45;&gt;Node6 -->
<g id="edge31" class="edge">
<title>Node19&#45;&gt;Node6</title>
<path fill="none" stroke="midnightblue" d="M1386.25,-248.05C1393.14,-229.9 1398.18,-205.35 1384,-190 1347.24,-150.21 995.28,-141.74 831.3,-139.96"/>
<polygon fill="midnightblue" stroke="midnightblue" points="1382.98,-246.8 1382.35,-257.37 1389.44,-249.5 1382.98,-246.8"/>
</g>
<!-- Node20&#45;&gt;Node6 -->
<g id="edge33" class="edge">
<title>Node20&#45;&gt;Node6</title>
<path fill="none" stroke="midnightblue" d="M402.48,-264.64C334.69,-255.06 243.82,-233.67 283,-190 307.98,-162.16 537.88,-148.23 664.78,-142.62"/>
<polygon fill="midnightblue" stroke="midnightblue" points="402.34,-268.16 412.72,-266.03 403.27,-261.22 402.34,-268.16"/>
</g>
<!-- Node21&#45;&gt;Node6 -->
<g id="edge40" class="edge">
<title>Node21&#45;&gt;Node6</title>
<path fill="none" stroke="midnightblue" d="M661.63,-247.03C663.77,-229.86 668.69,-207.02 680,-190 692.61,-171.01 714.88,-156.51 730.49,-148.01"/>
<polygon fill="midnightblue" stroke="midnightblue" points="658.11,-247.07 660.59,-257.38 665.08,-247.78 658.11,-247.07"/>
</g>
<!-- Node21&#45;&gt;Node18 -->
<g id="edge35" class="edge">
<title>Node21&#45;&gt;Node18</title>
<path fill="none" stroke="midnightblue" d="M687.34,-251.31C703.86,-239.1 724.07,-224.18 736.48,-215.01"/>
<polygon fill="midnightblue" stroke="midnightblue" points="685.06,-248.64 679.09,-257.4 689.22,-254.27 685.06,-248.64"/>
</g>
<!-- Node22 -->
<g id="node22" class="node">
<title>Node22</title>
<g id="a_node22"><a xlink:href="alias_8hpp_source.html" target="_top" xlink:title=" ">
<polygon fill="white" stroke="black" points="292,-196 292,-215 438,-215 438,-196 292,-196"/>
<text text-anchor="middle" x="365" y="-203" font-family="Helvetica,sans-Serif" font-size="10.00">arg_router/policy/alias.hpp</text>
</a>
</g>
</g>
<!-- Node21&#45;&gt;Node22 -->
<g id="edge36" class="edge">
<title>Node21&#45;&gt;Node22</title>
<path fill="none" stroke="midnightblue" d="M598.06,-257.85C539.46,-244.94 453.33,-225.96 403.84,-215.06"/>
<polygon fill="midnightblue" stroke="midnightblue" points="597.42,-261.3 607.94,-260.03 598.93,-254.46 597.42,-261.3"/>
</g>
<!-- Node23 -->
<g id="node23" class="node">
<title>Node23</title>
<g id="a_node23"><a xlink:href="dependent_8hpp_source.html" target="_top" xlink:title=" ">
<polygon fill="white" stroke="black" points="456.5,-196 456.5,-215 631.5,-215 631.5,-196 456.5,-196"/>
<text text-anchor="middle" x="544" y="-203" font-family="Helvetica,sans-Serif" font-size="10.00">arg_router/policy/dependent.hpp</text>
</a>
</g>
</g>
<!-- Node21&#45;&gt;Node23 -->
<g id="edge38" class="edge">
<title>Node21&#45;&gt;Node23</title>
<path fill="none" stroke="midnightblue" d="M626.04,-252.47C603.9,-240.06 576.07,-224.47 559.18,-215.01"/>
<polygon fill="midnightblue" stroke="midnightblue" points="624.4,-255.56 634.83,-257.4 627.82,-249.45 624.4,-255.56"/>
</g>
<!-- Node22&#45;&gt;Node6 -->
<g id="edge37" class="edge">
<title>Node22&#45;&gt;Node6</title>
<path fill="none" stroke="midnightblue" d="M423.6,-194.22C431.8,-192.79 440.11,-191.35 448,-190 535.32,-175.02 637.02,-157.99 696.76,-148.03"/>
<polygon fill="midnightblue" stroke="midnightblue" points="422.96,-190.77 413.71,-195.94 424.16,-197.67 422.96,-190.77"/>
</g>
<!-- Node23&#45;&gt;Node6 -->
<g id="edge39" class="edge">
<title>Node23&#45;&gt;Node6</title>
<path fill="none" stroke="midnightblue" d="M580.83,-192.77C621.25,-179.89 685.16,-159.52 721.12,-148.06"/>
<polygon fill="midnightblue" stroke="midnightblue" points="579.56,-189.5 571.09,-195.87 581.68,-196.17 579.56,-189.5"/>
</g>
</g>
</svg>
