<?xml version="1.0" encoding="UTF-8" standalone="no"?>
<!DOCTYPE svg PUBLIC "-//W3C//DTD SVG 1.1//EN"
 "http://www.w3.org/Graphics/SVG/1.1/DTD/svg11.dtd">
<!-- Generated by graphviz version 2.43.0 (0)
 -->
<!-- Title: arg_router/utility/compile_time_string.hpp Pages: 1 -->
<!--zoomable 698 -->
<svg id="main" version="1.1" xmlns="http://www.w3.org/2000/svg" xmlns:xlink="http://www.w3.org/1999/xlink" xml:space="preserve" onload="init(evt)">
<style type="text/css"><![CDATA[
.edge:hover path { stroke: red; }
.edge:hover polygon { stroke: red; fill: red; }
]]></style>
<script type="text/javascript"><![CDATA[
var edges = document.getElementsByTagName('g');
if (edges && edges.length) {
  for (var i=0;i<edges.length;i++) {
    if (edges[i].id.substr(0,4)=='edge') {
      edges[i].setAttribute('class','edge');
    }
  }
}
]]></script>
        <defs>
                <circle id="rim" cx="0" cy="0" r="7"/>
                <circle id="rim2" cx="0" cy="0" r="3.5"/>
                <g id="zoomPlus">
                        <use xlink:href="#rim" fill="#404040">
                                <set attributeName="fill" to="#808080" begin="zoomplus.mouseover" end="zoomplus.mouseout"/>
                        </use>
                        <path d="M-4,0h8M0,-4v8" fill="none" stroke="white" stroke-width="1.5" pointer-events="none"/>
                </g>
                <g id="zoomMin">
                        <use xlink:href="#rim" fill="#404040">
                                <set attributeName="fill" to="#808080" begin="zoomminus.mouseover" end="zoomminus.mouseout"/>
                        </use>
                        <path d="M-4,0h8" fill="none" stroke="white" stroke-width="1.5" pointer-events="none"/>
                </g>
                <g id="dirArrow">
                        <path fill="none" stroke="white" stroke-width="1.5" d="M0,-3.0v7 M-2.5,-0.5L0,-3.0L2.5,-0.5"/>
                </g>
               <g id="resetDef">
                       <use xlink:href="#rim2" fill="#404040">
                               <set attributeName="fill" to="#808080" begin="reset.mouseover" end="reset.mouseout"/>
                       </use>
               </g>
        </defs>

<script type="text/javascript">
var viewWidth = 1041;
var viewHeight = 698;
var sectionId = 'dynsection-0';
</script>
<script xlink:href="svgpan.js"/>
<svg id="graph" class="graph">
<g id="viewport">
<title>arg_router/utility/compile_time_string.hpp</title>
<!-- Node1 -->
<g id="node1" class="node">
<title>Node1</title>
<g id="a_node1"><a xlink:title=" ">
<polygon fill="#bfbfbf" stroke="black" points="321,-659.5 321,-689.5 461,-689.5 461,-659.5 321,-659.5"/>
<text text-anchor="start" x="329" y="-677.5" font-family="Helvetica,sans-Serif" font-size="10.00">arg_router/utility</text>
<text text-anchor="middle" x="391" y="-666.5" font-family="Helvetica,sans-Serif" font-size="10.00">/compile_time_string.hpp</text>
</a>
</g>
</g>
<!-- Node2 -->
<g id="node2" class="node">
<title>Node2</title>
<g id="a_node2"><a xlink:href="config_8hpp.html" target="_top" xlink:title=" ">
<polygon fill="none" stroke="black" points="328,-268.5 328,-287.5 448,-287.5 448,-268.5 328,-268.5"/>
<text text-anchor="middle" x="388" y="-275.5" font-family="Helvetica,sans-Serif" font-size="10.00">arg_router/config.hpp</text>
</a>
</g>
</g>
<!-- Node1&#45;&gt;Node2 -->
<g id="edge1" class="edge">
<title>Node1&#45;&gt;Node2</title>
<path fill="none" stroke="midnightblue" d="M320.93,-663.72C296.58,-656.58 271.71,-644.26 257,-623 232.22,-587.18 246.45,-567.26 257,-525 280.34,-431.52 346.63,-334.63 374.93,-296.19"/>
<polygon fill="midnightblue" stroke="midnightblue" points="378.08,-297.82 381.26,-287.71 372.47,-293.63 378.08,-297.82"/>
</g>
<!-- Node6 -->
<g id="node6" class="node">
<title>Node6</title>
<g id="a_node6"><a xlink:title=" ">
<polygon fill="none" stroke="#bfbfbf" points="11,-0.5 11,-19.5 53,-19.5 53,-0.5 11,-0.5"/>
<text text-anchor="middle" x="32" y="-7.5" font-family="Helvetica,sans-Serif" font-size="10.00">array</text>
</a>
</g>
</g>
<!-- Node1&#45;&gt;Node6 -->
<g id="edge21" class="edge">
<title>Node1&#45;&gt;Node6</title>
<path fill="none" stroke="midnightblue" d="M320.65,-664.43C208.07,-647.94 0,-608.4 0,-541.5 0,-541.5 0,-541.5 0,-143 0,-101.32 15.25,-54.27 24.7,-29.14"/>
<polygon fill="midnightblue" stroke="midnightblue" points="27.97,-30.37 28.33,-19.78 21.45,-27.84 27.97,-30.37"/>
</g>
<!-- Node15 -->
<g id="node15" class="node">
<title>Node15</title>
<g id="a_node15"><a xlink:href="math_8hpp_source.html" target="_top" xlink:title=" ">
<polygon fill="none" stroke="black" points="266,-598 266,-617 382,-617 382,-598 266,-598"/>
<text text-anchor="middle" x="324" y="-605" font-family="Helvetica,sans-Serif" font-size="10.00">arg_router/math.hpp</text>
</a>
</g>
</g>
<!-- Node1&#45;&gt;Node15 -->
<g id="edge19" class="edge">
<title>Node1&#45;&gt;Node15</title>
<path fill="none" stroke="midnightblue" d="M376.46,-659.4C365.81,-649.06 351.34,-635.02 340.3,-624.31"/>
<polygon fill="midnightblue" stroke="midnightblue" points="342.58,-621.65 332.96,-617.19 337.7,-626.67 342.58,-621.65"/>
</g>
<!-- Node17 -->
<g id="node17" class="node">
<title>Node17</title>
<g id="a_node17"><a xlink:href="traits_8hpp_source.html" target="_top" xlink:title=" ">
<polygon fill="none" stroke="black" points="400,-598 400,-617 516,-617 516,-598 400,-598"/>
<text text-anchor="middle" x="458" y="-605" font-family="Helvetica,sans-Serif" font-size="10.00">arg_router/traits.hpp</text>
</a>
</g>
</g>
<!-- Node1&#45;&gt;Node17 -->
<g id="edge22" class="edge">
<title>Node1&#45;&gt;Node17</title>
<path fill="none" stroke="midnightblue" d="M405.54,-659.4C416.19,-649.06 430.66,-635.02 441.7,-624.31"/>
<polygon fill="midnightblue" stroke="midnightblue" points="444.3,-626.67 449.04,-617.19 439.42,-621.65 444.3,-626.67"/>
</g>
<!-- Node30 -->
<g id="node30" class="node">
<title>Node30</title>
<g id="a_node30"><a xlink:title=" ">
<polygon fill="none" stroke="#bfbfbf" points="879,-531 879,-550 1025,-550 1025,-531 879,-531"/>
<text text-anchor="middle" x="952" y="-538" font-family="Helvetica,sans-Serif" font-size="10.00">boost/mp11/algorithm.hpp</text>
</a>
</g>
</g>
<!-- Node1&#45;&gt;Node30 -->
<g id="edge47" class="edge">
<title>Node1&#45;&gt;Node30</title>
<path fill="none" stroke="midnightblue" d="M439.12,-659.41C465.39,-650.73 497.97,-638.33 525,-623 544.26,-612.07 543.56,-600.51 564,-592 690.43,-539.39 734.52,-575.93 870,-556 878.63,-554.73 887.74,-553.26 896.63,-551.74"/>
<polygon fill="midnightblue" stroke="midnightblue" points="897.28,-555.18 906.53,-550.02 896.08,-548.28 897.28,-555.18"/>
</g>
<!-- Node34 -->
<g id="node34" class="node">
<title>Node34</title>
<g id="a_node34"><a xlink:title=" ">
<polygon fill="none" stroke="#bfbfbf" points="572.5,-592.5 572.5,-622.5 691.5,-622.5 691.5,-592.5 572.5,-592.5"/>
<text text-anchor="start" x="580.5" y="-610.5" font-family="Helvetica,sans-Serif" font-size="10.00">boost/preprocessor</text>
<text text-anchor="middle" x="632" y="-599.5" font-family="Helvetica,sans-Serif" font-size="10.00">/repetition/enum.hpp</text>
</a>
</g>
</g>
<!-- Node1&#45;&gt;Node34 -->
<g id="edge48" class="edge">
<title>Node1&#45;&gt;Node34</title>
<path fill="none" stroke="midnightblue" d="M443,-659.48C480.25,-649.43 530.57,-635.86 569.93,-625.24"/>
<polygon fill="midnightblue" stroke="midnightblue" points="570.94,-628.59 579.68,-622.61 569.11,-621.84 570.94,-628.59"/>
</g>
<!-- Node3 -->
<g id="node3" class="node">
<title>Node3</title>
<g id="a_node3"><a xlink:href="utf8_8hpp_source.html" target="_top" xlink:title=" ">
<polygon fill="none" stroke="black" points="345,-201.5 345,-231.5 443,-231.5 443,-201.5 345,-201.5"/>
<text text-anchor="start" x="353" y="-219.5" font-family="Helvetica,sans-Serif" font-size="10.00">arg_router/utility</text>
<text text-anchor="middle" x="394" y="-208.5" font-family="Helvetica,sans-Serif" font-size="10.00">/utf8.hpp</text>
</a>
</g>
</g>
<!-- Node2&#45;&gt;Node3 -->
<g id="edge2" class="edge">
<title>Node2&#45;&gt;Node3</title>
<path fill="none" stroke="midnightblue" d="M388.86,-268.48C389.57,-261.47 390.6,-251.19 391.56,-241.7"/>
<polygon fill="midnightblue" stroke="midnightblue" points="395.06,-241.82 392.59,-231.52 388.1,-241.12 395.06,-241.82"/>
</g>
<!-- Node4 -->
<g id="node4" class="node">
<title>Node4</title>
<g id="a_node4"><a xlink:href="double__width_8hpp_source.html" target="_top" xlink:title=" ">
<polygon fill="none" stroke="black" points="470,-129 470,-159 598,-159 598,-129 470,-129"/>
<text text-anchor="start" x="478" y="-147" font-family="Helvetica,sans-Serif" font-size="10.00">arg_router/utility</text>
<text text-anchor="middle" x="534" y="-136" font-family="Helvetica,sans-Serif" font-size="10.00">/utf8/double_width.hpp</text>
</a>
</g>
</g>
<!-- Node3&#45;&gt;Node4 -->
<g id="edge3" class="edge">
<title>Node3&#45;&gt;Node4</title>
<path fill="none" stroke="midnightblue" d="M421.99,-201.4C443.55,-190.55 473.54,-175.45 497.06,-163.6"/>
<polygon fill="midnightblue" stroke="midnightblue" points="498.7,-166.7 506.05,-159.07 495.55,-160.44 498.7,-166.7"/>
</g>
<!-- Node9 -->
<g id="node9" class="node">
<title>Node9</title>
<g id="a_node9"><a xlink:title=" ">
<polygon fill="none" stroke="#bfbfbf" points="682.5,-0.5 682.5,-19.5 755.5,-19.5 755.5,-0.5 682.5,-0.5"/>
<text text-anchor="middle" x="719" y="-7.5" font-family="Helvetica,sans-Serif" font-size="10.00">string_view</text>
</a>
</g>
</g>
<!-- Node3&#45;&gt;Node9 -->
<g id="edge18" class="edge">
<title>Node3&#45;&gt;Node9</title>
<path fill="none" stroke="midnightblue" d="M443.08,-213.48C488.91,-209.5 557.49,-197.96 607,-165 620.83,-155.8 681.97,-66.14 707.62,-28.01"/>
<polygon fill="midnightblue" stroke="midnightblue" points="710.65,-29.77 713.32,-19.51 704.84,-25.87 710.65,-29.77"/>
</g>
<!-- Node10 -->
<g id="node10" class="node">
<title>Node10</title>
<g id="a_node10"><a xlink:href="grapheme__cluster__break_8hpp_source.html" target="_top" xlink:title=" ">
<polygon fill="none" stroke="black" points="654,-123.5 654,-164.5 784,-164.5 784,-123.5 654,-123.5"/>
<text text-anchor="start" x="662" y="-152.5" font-family="Helvetica,sans-Serif" font-size="10.00">arg_router/utility</text>
<text text-anchor="start" x="662" y="-141.5" font-family="Helvetica,sans-Serif" font-size="10.00">/utf8/grapheme_cluster</text>
<text text-anchor="middle" x="719" y="-130.5" font-family="Helvetica,sans-Serif" font-size="10.00">_break.hpp</text>
</a>
</g>
</g>
<!-- Node3&#45;&gt;Node10 -->
<g id="edge9" class="edge">
<title>Node3&#45;&gt;Node10</title>
<path fill="none" stroke="midnightblue" d="M443.15,-206.09C492.91,-196.41 572,-180.58 640,-165 641.28,-164.71 642.57,-164.41 643.87,-164.11"/>
<polygon fill="midnightblue" stroke="midnightblue" points="645.04,-167.43 653.96,-161.72 643.42,-160.62 645.04,-167.43"/>
</g>
<!-- Node12 -->
<g id="node12" class="node">
<title>Node12</title>
<g id="a_node12"><a xlink:href="line__break_8hpp_source.html" target="_top" xlink:title=" ">
<polygon fill="none" stroke="black" points="66,-129 66,-159 180,-159 180,-129 66,-129"/>
<text text-anchor="start" x="74" y="-147" font-family="Helvetica,sans-Serif" font-size="10.00">arg_router/utility</text>
<text text-anchor="middle" x="123" y="-136" font-family="Helvetica,sans-Serif" font-size="10.00">/utf8/line_break.hpp</text>
</a>
</g>
</g>
<!-- Node3&#45;&gt;Node12 -->
<g id="edge12" class="edge">
<title>Node3&#45;&gt;Node12</title>
<path fill="none" stroke="midnightblue" d="M344.94,-204.18C303.29,-194.39 242.02,-179.55 189,-165 185.44,-164.02 181.79,-162.99 178.1,-161.93"/>
<polygon fill="midnightblue" stroke="midnightblue" points="178.93,-158.53 168.35,-159.09 176.97,-165.25 178.93,-158.53"/>
</g>
<!-- Node13 -->
<g id="node13" class="node">
<title>Node13</title>
<g id="a_node13"><a xlink:href="whitespace_8hpp_source.html" target="_top" xlink:title=" ">
<polygon fill="none" stroke="black" points="198.5,-129 198.5,-159 317.5,-159 317.5,-129 198.5,-129"/>
<text text-anchor="start" x="206.5" y="-147" font-family="Helvetica,sans-Serif" font-size="10.00">arg_router/utility</text>
<text text-anchor="middle" x="258" y="-136" font-family="Helvetica,sans-Serif" font-size="10.00">/utf8/whitespace.hpp</text>
</a>
</g>
</g>
<!-- Node3&#45;&gt;Node13 -->
<g id="edge14" class="edge">
<title>Node3&#45;&gt;Node13</title>
<path fill="none" stroke="midnightblue" d="M366.81,-201.4C345.96,-190.6 316.99,-175.58 294.19,-163.76"/>
<polygon fill="midnightblue" stroke="midnightblue" points="295.64,-160.57 285.15,-159.07 292.41,-166.78 295.64,-160.57"/>
</g>
<!-- Node14 -->
<g id="node14" class="node">
<title>Node14</title>
<g id="a_node14"><a xlink:href="zero__width_8hpp_source.html" target="_top" xlink:title=" ">
<polygon fill="none" stroke="black" points="336,-129 336,-159 452,-159 452,-129 336,-129"/>
<text text-anchor="start" x="344" y="-147" font-family="Helvetica,sans-Serif" font-size="10.00">arg_router/utility</text>
<text text-anchor="middle" x="394" y="-136" font-family="Helvetica,sans-Serif" font-size="10.00">/utf8/zero_width.hpp</text>
</a>
</g>
</g>
<!-- Node3&#45;&gt;Node14 -->
<g id="edge16" class="edge">
<title>Node3&#45;&gt;Node14</title>
<path fill="none" stroke="midnightblue" d="M394,-201.23C394,-192.16 394,-180.16 394,-169.58"/>
<polygon fill="midnightblue" stroke="midnightblue" points="397.5,-169.25 394,-159.25 390.5,-169.25 397.5,-169.25"/>
</g>
<!-- Node5 -->
<g id="node5" class="node">
<title>Node5</title>
<g id="a_node5"><a xlink:href="code__point_8hpp_source.html" target="_top" xlink:title=" ">
<polygon fill="none" stroke="black" points="304,-56.5 304,-86.5 420,-86.5 420,-56.5 304,-56.5"/>
<text text-anchor="start" x="312" y="-74.5" font-family="Helvetica,sans-Serif" font-size="10.00">arg_router/utility</text>
<text text-anchor="middle" x="362" y="-63.5" font-family="Helvetica,sans-Serif" font-size="10.00">/utf8/code_point.hpp</text>
</a>
</g>
</g>
<!-- Node4&#45;&gt;Node5 -->
<g id="edge4" class="edge">
<title>Node4&#45;&gt;Node5</title>
<path fill="none" stroke="midnightblue" d="M499.61,-128.9C472.65,-117.86 434.97,-102.41 405.85,-90.47"/>
<polygon fill="midnightblue" stroke="midnightblue" points="406.91,-87.13 396.33,-86.57 404.26,-93.6 406.91,-87.13"/>
</g>
<!-- Node5&#45;&gt;Node6 -->
<g id="edge5" class="edge">
<title>Node5&#45;&gt;Node6</title>
<path fill="none" stroke="midnightblue" d="M303.76,-60C233.54,-47.34 118.09,-26.52 63.06,-16.6"/>
<polygon fill="midnightblue" stroke="midnightblue" points="63.66,-13.15 53.2,-14.82 62.42,-20.04 63.66,-13.15"/>
</g>
<!-- Node7 -->
<g id="node7" class="node">
<title>Node7</title>
<g id="a_node7"><a xlink:title=" ">
<polygon fill="none" stroke="#bfbfbf" points="337,-0.5 337,-19.5 387,-19.5 387,-0.5 337,-0.5"/>
<text text-anchor="middle" x="362" y="-7.5" font-family="Helvetica,sans-Serif" font-size="10.00">cstdint</text>
</a>
</g>
</g>
<!-- Node5&#45;&gt;Node7 -->
<g id="edge6" class="edge">
<title>Node5&#45;&gt;Node7</title>
<path fill="none" stroke="midnightblue" d="M362,-56.4C362,-48.47 362,-38.46 362,-29.86"/>
<polygon fill="midnightblue" stroke="midnightblue" points="365.5,-29.66 362,-19.66 358.5,-29.66 365.5,-29.66"/>
</g>
<!-- Node8 -->
<g id="node8" class="node">
<title>Node8</title>
<g id="a_node8"><a xlink:title=" ">
<polygon fill="none" stroke="#bfbfbf" points="199,-0.5 199,-19.5 255,-19.5 255,-0.5 199,-0.5"/>
<text text-anchor="middle" x="227" y="-7.5" font-family="Helvetica,sans-Serif" font-size="10.00">optional</text>
</a>
</g>
</g>
<!-- Node5&#45;&gt;Node8 -->
<g id="edge7" class="edge">
<title>Node5&#45;&gt;Node8</title>
<path fill="none" stroke="midnightblue" d="M330.01,-56.4C307.56,-46.51 277.79,-33.38 256.02,-23.79"/>
<polygon fill="midnightblue" stroke="midnightblue" points="257.21,-20.49 246.64,-19.66 254.38,-26.89 257.21,-20.49"/>
</g>
<!-- Node5&#45;&gt;Node9 -->
<g id="edge8" class="edge">
<title>Node5&#45;&gt;Node9</title>
<path fill="none" stroke="midnightblue" d="M420.15,-60.81C490.48,-49.09 607.47,-29.59 672.24,-18.79"/>
<polygon fill="midnightblue" stroke="midnightblue" points="672.89,-22.23 682.17,-17.14 671.74,-15.33 672.89,-22.23"/>
</g>
<!-- Node10&#45;&gt;Node5 -->
<g id="edge10" class="edge">
<title>Node10&#45;&gt;Node5</title>
<path fill="none" stroke="midnightblue" d="M653.94,-130.15C590.56,-117.64 494.6,-98.69 430.18,-85.96"/>
<polygon fill="midnightblue" stroke="midnightblue" points="430.61,-82.48 420.12,-83.98 429.25,-89.35 430.61,-82.48"/>
</g>
<!-- Node11 -->
<g id="node11" class="node">
<title>Node11</title>
<g id="a_node11"><a xlink:title=" ">
<polygon fill="none" stroke="#bfbfbf" points="840.5,-62 840.5,-81 905.5,-81 905.5,-62 840.5,-62"/>
<text text-anchor="middle" x="873" y="-69" font-family="Helvetica,sans-Serif" font-size="10.00">functional</text>
</a>
</g>
</g>
<!-- Node10&#45;&gt;Node11 -->
<g id="edge11" class="edge">
<title>Node10&#45;&gt;Node11</title>
<path fill="none" stroke="midnightblue" d="M761.9,-123.36C788.37,-111.24 821.59,-96.03 844.78,-85.42"/>
<polygon fill="midnightblue" stroke="midnightblue" points="846.42,-88.52 854.05,-81.17 843.5,-82.15 846.42,-88.52"/>
</g>
<!-- Node12&#45;&gt;Node5 -->
<g id="edge13" class="edge">
<title>Node12&#45;&gt;Node5</title>
<path fill="none" stroke="midnightblue" d="M169.14,-128.95C175.8,-126.94 182.57,-124.91 189,-123 227.21,-111.63 270.25,-99.07 303.83,-89.32"/>
<polygon fill="midnightblue" stroke="midnightblue" points="304.86,-92.66 313.49,-86.52 302.91,-85.94 304.86,-92.66"/>
</g>
<!-- Node13&#45;&gt;Node5 -->
<g id="edge15" class="edge">
<title>Node13&#45;&gt;Node5</title>
<path fill="none" stroke="midnightblue" d="M279.05,-128.73C294.51,-118.25 315.72,-103.87 332.82,-92.28"/>
<polygon fill="midnightblue" stroke="midnightblue" points="335.03,-95.01 341.34,-86.5 331.1,-89.22 335.03,-95.01"/>
</g>
<!-- Node14&#45;&gt;Node5 -->
<g id="edge17" class="edge">
<title>Node14&#45;&gt;Node5</title>
<path fill="none" stroke="midnightblue" d="M387.52,-128.73C383.27,-119.37 377.61,-106.9 372.7,-96.08"/>
<polygon fill="midnightblue" stroke="midnightblue" points="375.79,-94.4 368.47,-86.75 369.41,-97.3 375.79,-94.4"/>
</g>
<!-- Node16 -->
<g id="node16" class="node">
<title>Node16</title>
<g id="a_node16"><a xlink:title=" ">
<polygon fill="none" stroke="#bfbfbf" points="266.5,-531 266.5,-550 335.5,-550 335.5,-531 266.5,-531"/>
<text text-anchor="middle" x="301" y="-538" font-family="Helvetica,sans-Serif" font-size="10.00">type_traits</text>
</a>
</g>
</g>
<!-- Node15&#45;&gt;Node16 -->
<g id="edge20" class="edge">
<title>Node15&#45;&gt;Node16</title>
<path fill="none" stroke="midnightblue" d="M320.9,-597.73C317.48,-588.09 311.9,-572.3 307.51,-559.91"/>
<polygon fill="midnightblue" stroke="midnightblue" points="310.69,-558.39 304.05,-550.13 304.09,-560.72 310.69,-558.39"/>
</g>
<!-- Node17&#45;&gt;Node8 -->
<g id="edge45" class="edge">
<title>Node17&#45;&gt;Node8</title>
<path fill="none" stroke="midnightblue" d="M445,-597.97C430.09,-588.12 405,-571.28 384,-556 365.81,-542.77 362.23,-538.17 344,-525 187.7,-412.12 38,-410.31 38,-217.5 38,-217.5 38,-217.5 38,-143 38,-70.09 133.7,-34.11 188.9,-19.41"/>
<polygon fill="midnightblue" stroke="midnightblue" points="189.88,-22.78 198.7,-16.91 188.15,-15.99 189.88,-22.78"/>
</g>
<!-- Node17&#45;&gt;Node16 -->
<g id="edge46" class="edge">
<title>Node17&#45;&gt;Node16</title>
<path fill="none" stroke="midnightblue" d="M437.15,-597.87C410.06,-586.65 362.54,-566.98 331.42,-554.09"/>
<polygon fill="midnightblue" stroke="midnightblue" points="332.51,-550.76 321.93,-550.17 329.84,-557.23 332.51,-550.76"/>
</g>
<!-- Node18 -->
<g id="node18" class="node">
<title>Node18</title>
<g id="a_node18"><a xlink:href="parse__target_8hpp_source.html" target="_top" xlink:title=" ">
<polygon fill="none" stroke="black" points="755,-525.5 755,-555.5 861,-555.5 861,-525.5 755,-525.5"/>
<text text-anchor="start" x="763" y="-543.5" font-family="Helvetica,sans-Serif" font-size="10.00">arg_router/parsing</text>
<text text-anchor="middle" x="808" y="-532.5" font-family="Helvetica,sans-Serif" font-size="10.00">/parse_target.hpp</text>
</a>
</g>
</g>
<!-- Node17&#45;&gt;Node18 -->
<g id="edge23" class="edge">
<title>Node17&#45;&gt;Node18</title>
<path fill="none" stroke="midnightblue" d="M499.08,-597.98C509.17,-595.95 519.97,-593.85 530,-592 622.63,-574.96 648.89,-575.07 745.1,-556.1"/>
<polygon fill="midnightblue" stroke="midnightblue" points="745.82,-559.53 754.95,-554.14 744.46,-552.66 745.82,-559.53"/>
</g>
<!-- Node17&#45;&gt;Node30 -->
<g id="edge41" class="edge">
<title>Node17&#45;&gt;Node30</title>
<path fill="none" stroke="midnightblue" d="M497.12,-597.93C507.75,-595.79 519.29,-593.64 530,-592 680.2,-568.98 719.54,-577.24 870,-556 878.74,-554.77 887.97,-553.3 896.96,-551.77"/>
<polygon fill="midnightblue" stroke="midnightblue" points="897.72,-555.2 906.98,-550.04 896.53,-548.3 897.72,-555.2"/>
</g>
<!-- Node31 -->
<g id="node31" class="node">
<title>Node31</title>
<g id="a_node31"><a xlink:title=" ">
<polygon fill="none" stroke="#bfbfbf" points="392.5,-531 392.5,-550 511.5,-550 511.5,-531 392.5,-531"/>
<text text-anchor="middle" x="452" y="-538" font-family="Helvetica,sans-Serif" font-size="10.00">boost/mp11/bind.hpp</text>
</a>
</g>
</g>
<!-- Node17&#45;&gt;Node31 -->
<g id="edge42" class="edge">
<title>Node17&#45;&gt;Node31</title>
<path fill="none" stroke="midnightblue" d="M457.19,-597.73C456.31,-588.18 454.87,-572.62 453.73,-560.28"/>
<polygon fill="midnightblue" stroke="midnightblue" points="457.2,-559.76 452.8,-550.13 450.23,-560.41 457.2,-559.76"/>
</g>
<!-- Node32 -->
<g id="node32" class="node">
<title>Node32</title>
<g id="a_node32"><a xlink:title=" ">
<polygon fill="none" stroke="#bfbfbf" points="529.5,-531 529.5,-550 654.5,-550 654.5,-531 529.5,-531"/>
<text text-anchor="middle" x="592" y="-538" font-family="Helvetica,sans-Serif" font-size="10.00">boost/mp11/utility.hpp</text>
</a>
</g>
</g>
<!-- Node17&#45;&gt;Node32 -->
<g id="edge43" class="edge">
<title>Node17&#45;&gt;Node32</title>
<path fill="none" stroke="midnightblue" d="M475.79,-597.87C498.62,-586.8 538.43,-567.49 565,-554.6"/>
<polygon fill="midnightblue" stroke="midnightblue" points="566.66,-557.68 574.13,-550.17 563.61,-551.38 566.66,-557.68"/>
</g>
<!-- Node33 -->
<g id="node33" class="node">
<title>Node33</title>
<g id="a_node33"><a xlink:title=" ">
<polygon fill="none" stroke="#bfbfbf" points="673,-531 673,-550 737,-550 737,-531 673,-531"/>
<text text-anchor="middle" x="705" y="-538" font-family="Helvetica,sans-Serif" font-size="10.00">algorithm</text>
</a>
</g>
</g>
<!-- Node17&#45;&gt;Node33 -->
<g id="edge44" class="edge">
<title>Node17&#45;&gt;Node33</title>
<path fill="none" stroke="midnightblue" d="M497.81,-597.98C539.53,-588.76 606.84,-573.07 664,-556 666.78,-555.17 669.65,-554.26 672.52,-553.32"/>
<polygon fill="midnightblue" stroke="midnightblue" points="673.81,-556.58 682.15,-550.04 671.55,-549.95 673.81,-556.58"/>
</g>
<!-- Node18&#45;&gt;Node11 -->
<g id="edge40" class="edge">
<title>Node18&#45;&gt;Node11</title>
<path fill="none" stroke="midnightblue" d="M815.7,-525.32C827.83,-501.64 850,-452.23 850,-407.5 850,-407.5 850,-407.5 850,-215.5 850,-170.4 861.29,-118.29 868.05,-91.14"/>
<polygon fill="midnightblue" stroke="midnightblue" points="871.53,-91.68 870.63,-81.13 864.75,-89.94 871.53,-91.68"/>
</g>
<!-- Node19 -->
<g id="node19" class="node">
<title>Node19</title>
<g id="a_node19"><a xlink:href="token__type_8hpp_source.html" target="_top" xlink:title=" ">
<polygon fill="none" stroke="black" points="716,-458.5 716,-488.5 822,-488.5 822,-458.5 716,-458.5"/>
<text text-anchor="start" x="724" y="-476.5" font-family="Helvetica,sans-Serif" font-size="10.00">arg_router/parsing</text>
<text text-anchor="middle" x="769" y="-465.5" font-family="Helvetica,sans-Serif" font-size="10.00">/token_type.hpp</text>
</a>
</g>
</g>
<!-- Node18&#45;&gt;Node19 -->
<g id="edge24" class="edge">
<title>Node18&#45;&gt;Node19</title>
<path fill="none" stroke="midnightblue" d="M799.54,-525.4C794.63,-517.22 788.34,-506.73 782.74,-497.39"/>
<polygon fill="midnightblue" stroke="midnightblue" points="785.59,-495.35 777.45,-488.58 779.59,-498.95 785.59,-495.35"/>
</g>
<!-- Node25 -->
<g id="node25" class="node">
<title>Node25</title>
<g id="a_node25"><a xlink:href="tree__node__fwd_8hpp_source.html" target="_top" xlink:title=" ">
<polygon fill="none" stroke="black" points="578.5,-458.5 578.5,-488.5 697.5,-488.5 697.5,-458.5 578.5,-458.5"/>
<text text-anchor="start" x="586.5" y="-476.5" font-family="Helvetica,sans-Serif" font-size="10.00">arg_router/tree_node</text>
<text text-anchor="middle" x="638" y="-465.5" font-family="Helvetica,sans-Serif" font-size="10.00">_fwd.hpp</text>
</a>
</g>
</g>
<!-- Node18&#45;&gt;Node25 -->
<g id="edge32" class="edge">
<title>Node18&#45;&gt;Node25</title>
<path fill="none" stroke="midnightblue" d="M771.11,-525.4C745.61,-515.64 711.48,-502.59 684.17,-492.15"/>
<polygon fill="midnightblue" stroke="midnightblue" points="685.41,-488.88 674.82,-488.58 682.91,-495.42 685.41,-488.88"/>
</g>
<!-- Node27 -->
<g id="node27" class="node">
<title>Node27</title>
<g id="a_node27"><a xlink:href="type__hash_8hpp_source.html" target="_top" xlink:title=" ">
<polygon fill="none" stroke="black" points="935,-201.5 935,-231.5 1033,-231.5 1033,-201.5 935,-201.5"/>
<text text-anchor="start" x="943" y="-219.5" font-family="Helvetica,sans-Serif" font-size="10.00">arg_router/utility</text>
<text text-anchor="middle" x="984" y="-208.5" font-family="Helvetica,sans-Serif" font-size="10.00">/type_hash.hpp</text>
</a>
</g>
</g>
<!-- Node18&#45;&gt;Node27 -->
<g id="edge34" class="edge">
<title>Node18&#45;&gt;Node27</title>
<path fill="none" stroke="midnightblue" d="M840.37,-525.47C896.03,-500.31 1004,-446.47 1004,-407.5 1004,-407.5 1004,-407.5 1004,-338.5 1004,-304.37 996.16,-265.55 990.3,-241.29"/>
<polygon fill="midnightblue" stroke="midnightblue" points="993.68,-240.38 987.86,-231.53 986.89,-242.08 993.68,-240.38"/>
</g>
<!-- Node28 -->
<g id="node28" class="node">
<title>Node28</title>
<g id="a_node28"><a xlink:href="unsafe__any_8hpp_source.html" target="_top" xlink:title=" ">
<polygon fill="none" stroke="black" points="878,-324.5 878,-354.5 976,-354.5 976,-324.5 878,-324.5"/>
<text text-anchor="start" x="886" y="-342.5" font-family="Helvetica,sans-Serif" font-size="10.00">arg_router/utility</text>
<text text-anchor="middle" x="927" y="-331.5" font-family="Helvetica,sans-Serif" font-size="10.00">/unsafe_any.hpp</text>
</a>
</g>
</g>
<!-- Node18&#45;&gt;Node28 -->
<g id="edge36" class="edge">
<title>Node18&#45;&gt;Node28</title>
<path fill="none" stroke="midnightblue" d="M827.63,-525.34C839.4,-516.06 853.97,-503.07 864,-489 892.2,-449.42 911.12,-395.26 920.38,-364.48"/>
<polygon fill="midnightblue" stroke="midnightblue" points="923.81,-365.21 923.25,-354.63 917.09,-363.25 923.81,-365.21"/>
</g>
<!-- Node20 -->
<g id="node20" class="node">
<title>Node20</title>
<g id="a_node20"><a xlink:href="string__view__ops_8hpp_source.html" target="_top" xlink:title=" ">
<polygon fill="none" stroke="black" points="702.5,-391.5 702.5,-421.5 821.5,-421.5 821.5,-391.5 702.5,-391.5"/>
<text text-anchor="start" x="710.5" y="-409.5" font-family="Helvetica,sans-Serif" font-size="10.00">arg_router/utility</text>
<text text-anchor="middle" x="762" y="-398.5" font-family="Helvetica,sans-Serif" font-size="10.00">/string_view_ops.hpp</text>
</a>
</g>
</g>
<!-- Node19&#45;&gt;Node20 -->
<g id="edge25" class="edge">
<title>Node19&#45;&gt;Node20</title>
<path fill="none" stroke="midnightblue" d="M767.48,-458.4C766.64,-450.56 765.56,-440.6 764.59,-431.57"/>
<polygon fill="midnightblue" stroke="midnightblue" points="768.07,-431.14 763.52,-421.58 761.11,-431.89 768.07,-431.14"/>
</g>
<!-- Node20&#45;&gt;Node9 -->
<g id="edge31" class="edge">
<title>Node20&#45;&gt;Node9</title>
<path fill="none" stroke="midnightblue" d="M771.64,-391.42C786.17,-368.79 812,-322.45 812,-279 812,-279 812,-279 812,-143 812,-92.91 766.7,-48.45 739.33,-26.15"/>
<polygon fill="midnightblue" stroke="midnightblue" points="741.18,-23.15 731.16,-19.71 736.85,-28.65 741.18,-23.15"/>
</g>
<!-- Node21 -->
<g id="node21" class="node">
<title>Node21</title>
<g id="a_node21"><a xlink:href="basic__types_8hpp_source.html" target="_top" xlink:title=" ">
<polygon fill="none" stroke="black" points="100.5,-330 100.5,-349 249.5,-349 249.5,-330 100.5,-330"/>
<text text-anchor="middle" x="175" y="-337" font-family="Helvetica,sans-Serif" font-size="10.00">arg_router/basic_types.hpp</text>
</a>
</g>
</g>
<!-- Node20&#45;&gt;Node21 -->
<g id="edge26" class="edge">
<title>Node20&#45;&gt;Node21</title>
<path fill="none" stroke="midnightblue" d="M702.19,-395.59C691.48,-393.95 680.42,-392.35 670,-391 526.45,-372.38 358.74,-356.5 260,-347.75"/>
<polygon fill="midnightblue" stroke="midnightblue" points="260.05,-344.24 249.78,-346.85 259.44,-351.21 260.05,-344.24"/>
</g>
<!-- Node21&#45;&gt;Node2 -->
<g id="edge27" class="edge">
<title>Node21&#45;&gt;Node2</title>
<path fill="none" stroke="midnightblue" d="M205.52,-329.98C242.92,-319.53 306.43,-301.79 347.79,-290.23"/>
<polygon fill="midnightblue" stroke="midnightblue" points="348.85,-293.57 357.54,-287.51 346.97,-286.83 348.85,-293.57"/>
</g>
<!-- Node22 -->
<g id="node22" class="node">
<title>Node22</title>
<g id="a_node22"><a xlink:title=" ">
<polygon fill="none" stroke="#bfbfbf" points="182,-268.5 182,-287.5 238,-287.5 238,-268.5 182,-268.5"/>
<text text-anchor="middle" x="210" y="-275.5" font-family="Helvetica,sans-Serif" font-size="10.00">sstream</text>
</a>
</g>
</g>
<!-- Node21&#45;&gt;Node22 -->
<g id="edge28" class="edge">
<title>Node21&#45;&gt;Node22</title>
<path fill="none" stroke="midnightblue" d="M180.01,-329.98C185.16,-321.23 193.31,-307.37 199.82,-296.31"/>
<polygon fill="midnightblue" stroke="midnightblue" points="202.94,-297.9 204.99,-287.51 196.91,-294.35 202.94,-297.9"/>
</g>
<!-- Node23 -->
<g id="node23" class="node">
<title>Node23</title>
<g id="a_node23"><a xlink:title=" ">
<polygon fill="none" stroke="#bfbfbf" points="256.5,-268.5 256.5,-287.5 303.5,-287.5 303.5,-268.5 256.5,-268.5"/>
<text text-anchor="middle" x="280" y="-275.5" font-family="Helvetica,sans-Serif" font-size="10.00">vector</text>
</a>
</g>
</g>
<!-- Node21&#45;&gt;Node23 -->
<g id="edge29" class="edge">
<title>Node21&#45;&gt;Node23</title>
<path fill="none" stroke="midnightblue" d="M190.04,-329.98C207.28,-320.21 235.74,-304.08 256.03,-292.58"/>
<polygon fill="midnightblue" stroke="midnightblue" points="258.01,-295.48 264.98,-287.51 254.56,-289.39 258.01,-295.48"/>
</g>
<!-- Node24 -->
<g id="node24" class="node">
<title>Node24</title>
<g id="a_node24"><a xlink:title=" ">
<polygon fill="none" stroke="#bfbfbf" points="66.5,-268.5 66.5,-287.5 163.5,-287.5 163.5,-268.5 66.5,-268.5"/>
<text text-anchor="middle" x="115" y="-275.5" font-family="Helvetica,sans-Serif" font-size="10.00">nonstd/span.hpp</text>
</a>
</g>
</g>
<!-- Node21&#45;&gt;Node24 -->
<g id="edge30" class="edge">
<title>Node21&#45;&gt;Node24</title>
<path fill="none" stroke="midnightblue" d="M166.4,-329.98C157.14,-320.78 142.18,-305.96 130.79,-294.66"/>
<polygon fill="midnightblue" stroke="midnightblue" points="133.15,-292.07 123.58,-287.51 128.22,-297.04 133.15,-292.07"/>
</g>
<!-- Node26 -->
<g id="node26" class="node">
<title>Node26</title>
<g id="a_node26"><a xlink:title=" ">
<polygon fill="none" stroke="#bfbfbf" points="615.5,-397 615.5,-416 660.5,-416 660.5,-397 615.5,-397"/>
<text text-anchor="middle" x="638" y="-404" font-family="Helvetica,sans-Serif" font-size="10.00">utility</text>
</a>
</g>
</g>
<!-- Node25&#45;&gt;Node26 -->
<g id="edge33" class="edge">
<title>Node25&#45;&gt;Node26</title>
<path fill="none" stroke="midnightblue" d="M638,-458.4C638,-449.06 638,-436.71 638,-426.52"/>
<polygon fill="midnightblue" stroke="midnightblue" points="641.5,-426.19 638,-416.19 634.5,-426.19 641.5,-426.19"/>
</g>
<!-- Node27&#45;&gt;Node9 -->
<g id="edge35" class="edge">
<title>Node27&#45;&gt;Node9</title>
<path fill="none" stroke="midnightblue" d="M982.2,-201.48C977.41,-170.24 961.38,-94.6 915,-56 892.66,-37.4 816.44,-23.96 765.9,-16.83"/>
<polygon fill="midnightblue" stroke="midnightblue" points="766.23,-13.35 755.85,-15.45 765.28,-20.28 766.23,-13.35"/>
</g>
<!-- Node28&#45;&gt;Node2 -->
<g id="edge37" class="edge">
<title>Node28&#45;&gt;Node2</title>
<path fill="none" stroke="midnightblue" d="M877.74,-333.06C781.72,-322.46 569.26,-299.01 458.41,-286.77"/>
<polygon fill="midnightblue" stroke="midnightblue" points="458.65,-283.28 448.33,-285.66 457.88,-290.24 458.65,-283.28"/>
</g>
<!-- Node28&#45;&gt;Node11 -->
<g id="edge39" class="edge">
<title>Node28&#45;&gt;Node11</title>
<path fill="none" stroke="midnightblue" d="M920.36,-324.2C915.97,-314.25 910.43,-300.55 907,-288 887.54,-216.81 878.01,-129.15 874.56,-91.33"/>
<polygon fill="midnightblue" stroke="midnightblue" points="878.04,-90.93 873.68,-81.27 871.07,-91.53 878.04,-90.93"/>
</g>
<!-- Node29 -->
<g id="node29" class="node">
<title>Node29</title>
<g id="a_node29"><a xlink:title=" ">
<polygon fill="none" stroke="#bfbfbf" points="916,-268.5 916,-287.5 966,-287.5 966,-268.5 916,-268.5"/>
<text text-anchor="middle" x="941" y="-275.5" font-family="Helvetica,sans-Serif" font-size="10.00">cstring</text>
</a>
</g>
</g>
<!-- Node28&#45;&gt;Node29 -->
<g id="edge38" class="edge">
<title>Node28&#45;&gt;Node29</title>
<path fill="none" stroke="midnightblue" d="M930.32,-324.4C932.21,-316.38 934.59,-306.23 936.63,-297.57"/>
<polygon fill="midnightblue" stroke="midnightblue" points="940.08,-298.19 938.96,-287.66 933.27,-296.59 940.08,-298.19"/>
</g>
</g>
</svg>
        <g id="navigator" transform="translate(0 0)" fill="#404254">
                <rect fill="#f2f5e9" fill-opacity="0.5" stroke="#606060" stroke-width=".5" x="0" y="0" width="60" height="60"/>
                <use id="zoomplus" xlink:href="#zoomPlus" x="17" y="9" onmousedown="handleZoom(evt,'in')"/>
                <use id="zoomminus" xlink:href="#zoomMin" x="42" y="9" onmousedown="handleZoom(evt,'out')"/>
                <use id="reset" xlink:href="#resetDef" x="30" y="36" onmousedown="handleReset()"/>
                <g id="arrowUp" xlink:href="#dirArrow" transform="translate(30 24)" onmousedown="handlePan(0,-1)">
                  <use xlink:href="#rim" fill="#404040">
                        <set attributeName="fill" to="#808080" begin="arrowUp.mouseover" end="arrowUp.mouseout"/>
                  </use>
                  <path fill="none" stroke="white" stroke-width="1.5" d="M0,-3.0v7 M-2.5,-0.5L0,-3.0L2.5,-0.5"/>
                </g>
                <g id="arrowRight" xlink:href="#dirArrow" transform="rotate(90) translate(36 -43)" onmousedown="handlePan(1,0)">
                  <use xlink:href="#rim" fill="#404040">
                        <set attributeName="fill" to="#808080" begin="arrowRight.mouseover" end="arrowRight.mouseout"/>
                  </use>
                  <path fill="none" stroke="white" stroke-width="1.5" d="M0,-3.0v7 M-2.5,-0.5L0,-3.0L2.5,-0.5"/>
                </g>
                <g id="arrowDown" xlink:href="#dirArrow" transform="rotate(180) translate(-30 -48)" onmousedown="handlePan(0,1)">
                  <use xlink:href="#rim" fill="#404040">
                        <set attributeName="fill" to="#808080" begin="arrowDown.mouseover" end="arrowDown.mouseout"/>
                  </use>
                  <path fill="none" stroke="white" stroke-width="1.5" d="M0,-3.0v7 M-2.5,-0.5L0,-3.0L2.5,-0.5"/>
                </g>
                <g id="arrowLeft" xlink:href="#dirArrow" transform="rotate(270) translate(-36 17)" onmousedown="handlePan(-1,0)">
                  <use xlink:href="#rim" fill="#404040">
                        <set attributeName="fill" to="#808080" begin="arrowLeft.mouseover" end="arrowLeft.mouseout"/>
                  </use>
                  <path fill="none" stroke="white" stroke-width="1.5" d="M0,-3.0v7 M-2.5,-0.5L0,-3.0L2.5,-0.5"/>
                </g>
        </g>
        <svg viewBox="0 0 15 15" width="100%" height="30px" preserveAspectRatio="xMaxYMin meet">
         <g id="arrow_out" transform="scale(0.3 0.3)">
          <a xlink:href="compile__time__string_8hpp__incl_org.svg" target="_base">
           <rect id="button" ry="5" rx="5" y="6" x="6" height="38" width="38"
                fill="#f2f5e9" fill-opacity="0.5" stroke="#606060" stroke-width="1.0"/>
           <path id="arrow"
             d="M 11.500037,31.436501 C 11.940474,20.09759 22.043105,11.32322 32.158766,21.979434 L 37.068811,17.246167 C 37.068811,17.246167 37.088388,32 37.088388,32 L 22.160133,31.978069 C 22.160133,31.978069 26.997745,27.140456 26.997745,27.140456 C 18.528582,18.264221 13.291696,25.230495 11.500037,31.436501 z"
             style="fill:#404040;"/>
          </a>
         </g>
        </svg>
</svg>
