<?xml version="1.0" encoding="UTF-8" standalone="no"?>
<!DOCTYPE svg PUBLIC "-//W3C//DTD SVG 1.1//EN"
 "http://www.w3.org/Graphics/SVG/1.1/DTD/svg11.dtd">
<!-- Generated by graphviz version 2.43.0 (0)
 -->
<!-- Title: arg_router/config.hpp Pages: 1 -->
<svg width="709pt" height="296pt"
 viewBox="0.00 0.00 708.62 296.00" xmlns="http://www.w3.org/2000/svg" xmlns:xlink="http://www.w3.org/1999/xlink">
<g id="graph0" class="graph" transform="scale(1 1) rotate(0) translate(4 292)">
<title>arg_router/config.hpp</title>
<!-- Node1 -->
<g id="node1" class="node">
<title>Node1</title>
<g id="a_node1"><a xlink:title=" ">
<polygon fill="#bfbfbf" stroke="black" points="344.5,-268.5 344.5,-287.5 464.5,-287.5 464.5,-268.5 344.5,-268.5"/>
<text text-anchor="middle" x="404.5" y="-275.5" font-family="Helvetica,sans-Serif" font-size="10.00">arg_router/config.hpp</text>
</a>
</g>
</g>
<!-- Node2 -->
<g id="node2" class="node">
<title>Node2</title>
<g id="a_node2"><a xlink:href="utf8_8hpp_source.html" target="_top" xlink:title=" ">
<polygon fill="none" stroke="black" points="355.5,-201.5 355.5,-231.5 453.5,-231.5 453.5,-201.5 355.5,-201.5"/>
<text text-anchor="start" x="363.5" y="-219.5" font-family="Helvetica,sans-Serif" font-size="10.00">arg_router/utility</text>
<text text-anchor="middle" x="404.5" y="-208.5" font-family="Helvetica,sans-Serif" font-size="10.00">/utf8.hpp</text>
</a>
</g>
</g>
<!-- Node1&#45;&gt;Node2 -->
<g id="edge1" class="edge">
<title>Node1&#45;&gt;Node2</title>
<path fill="none" stroke="midnightblue" d="M404.5,-268.48C404.5,-261.47 404.5,-251.19 404.5,-241.7"/>
<polygon fill="midnightblue" stroke="midnightblue" points="408,-241.52 404.5,-231.52 401,-241.52 408,-241.52"/>
</g>
<!-- Node3 -->
<g id="node3" class="node">
<title>Node3</title>
<g id="a_node3"><a xlink:href="double__width_8hpp_source.html" target="_top" xlink:title=" ">
<polygon fill="none" stroke="black" points="271.5,-129 271.5,-159 399.5,-159 399.5,-129 271.5,-129"/>
<text text-anchor="start" x="279.5" y="-147" font-family="Helvetica,sans-Serif" font-size="10.00">arg_router/utility</text>
<text text-anchor="middle" x="335.5" y="-136" font-family="Helvetica,sans-Serif" font-size="10.00">/utf8/double_width.hpp</text>
</a>
</g>
</g>
<!-- Node2&#45;&gt;Node3 -->
<g id="edge2" class="edge">
<title>Node2&#45;&gt;Node3</title>
<path fill="none" stroke="midnightblue" d="M390.54,-201.23C380.81,-191.3 367.66,-177.86 356.65,-166.61"/>
<polygon fill="midnightblue" stroke="midnightblue" points="358.94,-163.94 349.44,-159.25 353.94,-168.84 358.94,-163.94"/>
</g>
<!-- Node8 -->
<g id="node8" class="node">
<title>Node8</title>
<g id="a_node8"><a xlink:title=" ">
<polygon fill="none" stroke="#bfbfbf" points="592,-0.5 592,-19.5 665,-19.5 665,-0.5 592,-0.5"/>
<text text-anchor="middle" x="628.5" y="-7.5" font-family="Helvetica,sans-Serif" font-size="10.00">string_view</text>
</a>
</g>
</g>
<!-- Node2&#45;&gt;Node8 -->
<g id="edge17" class="edge">
<title>Node2&#45;&gt;Node8</title>
<path fill="none" stroke="midnightblue" d="M453.73,-214.08C526.95,-210.81 659.11,-200.08 688.5,-165 723.87,-122.78 672.47,-57.29 644.53,-27.17"/>
<polygon fill="midnightblue" stroke="midnightblue" points="646.8,-24.48 637.36,-19.66 641.73,-29.31 646.8,-24.48"/>
</g>
<!-- Node9 -->
<g id="node9" class="node">
<title>Node9</title>
<g id="a_node9"><a xlink:href="grapheme__cluster__break_8hpp_source.html" target="_top" xlink:title=" ">
<polygon fill="none" stroke="black" points="549.5,-123.5 549.5,-164.5 679.5,-164.5 679.5,-123.5 549.5,-123.5"/>
<text text-anchor="start" x="557.5" y="-152.5" font-family="Helvetica,sans-Serif" font-size="10.00">arg_router/utility</text>
<text text-anchor="start" x="557.5" y="-141.5" font-family="Helvetica,sans-Serif" font-size="10.00">/utf8/grapheme_cluster</text>
<text text-anchor="middle" x="614.5" y="-130.5" font-family="Helvetica,sans-Serif" font-size="10.00">_break.hpp</text>
</a>
</g>
</g>
<!-- Node2&#45;&gt;Node9 -->
<g id="edge8" class="edge">
<title>Node2&#45;&gt;Node9</title>
<path fill="none" stroke="midnightblue" d="M446.24,-201.49C474.87,-191.87 513.51,-178.9 546.54,-167.82"/>
<polygon fill="midnightblue" stroke="midnightblue" points="547.78,-171.09 556.14,-164.59 545.55,-164.46 547.78,-171.09"/>
</g>
<!-- Node11 -->
<g id="node11" class="node">
<title>Node11</title>
<g id="a_node11"><a xlink:href="line__break_8hpp_source.html" target="_top" xlink:title=" ">
<polygon fill="none" stroke="black" points="417.5,-129 417.5,-159 531.5,-159 531.5,-129 417.5,-129"/>
<text text-anchor="start" x="425.5" y="-147" font-family="Helvetica,sans-Serif" font-size="10.00">arg_router/utility</text>
<text text-anchor="middle" x="474.5" y="-136" font-family="Helvetica,sans-Serif" font-size="10.00">/utf8/line_break.hpp</text>
</a>
</g>
</g>
<!-- Node2&#45;&gt;Node11 -->
<g id="edge11" class="edge">
<title>Node2&#45;&gt;Node11</title>
<path fill="none" stroke="midnightblue" d="M418.67,-201.23C428.53,-191.3 441.87,-177.86 453.04,-166.61"/>
<polygon fill="midnightblue" stroke="midnightblue" points="455.79,-168.81 460.36,-159.25 450.83,-163.88 455.79,-168.81"/>
</g>
<!-- Node12 -->
<g id="node12" class="node">
<title>Node12</title>
<g id="a_node12"><a xlink:href="whitespace_8hpp_source.html" target="_top" xlink:title=" ">
<polygon fill="none" stroke="black" points="0,-129 0,-159 119,-159 119,-129 0,-129"/>
<text text-anchor="start" x="8" y="-147" font-family="Helvetica,sans-Serif" font-size="10.00">arg_router/utility</text>
<text text-anchor="middle" x="59.5" y="-136" font-family="Helvetica,sans-Serif" font-size="10.00">/utf8/whitespace.hpp</text>
</a>
</g>
</g>
<!-- Node2&#45;&gt;Node12 -->
<g id="edge13" class="edge">
<title>Node2&#45;&gt;Node12</title>
<path fill="none" stroke="midnightblue" d="M355.33,-208.04C299.89,-199.28 207.2,-183.56 128.5,-165 124.22,-163.99 119.81,-162.88 115.38,-161.71"/>
<polygon fill="midnightblue" stroke="midnightblue" points="116.29,-158.33 105.72,-159.1 114.46,-165.09 116.29,-158.33"/>
</g>
<!-- Node13 -->
<g id="node13" class="node">
<title>Node13</title>
<g id="a_node13"><a xlink:href="zero__width_8hpp_source.html" target="_top" xlink:title=" ">
<polygon fill="none" stroke="black" points="137.5,-129 137.5,-159 253.5,-159 253.5,-129 137.5,-129"/>
<text text-anchor="start" x="145.5" y="-147" font-family="Helvetica,sans-Serif" font-size="10.00">arg_router/utility</text>
<text text-anchor="middle" x="195.5" y="-136" font-family="Helvetica,sans-Serif" font-size="10.00">/utf8/zero_width.hpp</text>
</a>
</g>
</g>
<!-- Node2&#45;&gt;Node13 -->
<g id="edge15" class="edge">
<title>Node2&#45;&gt;Node13</title>
<path fill="none" stroke="midnightblue" d="M362.96,-201.49C329.66,-190.26 282.77,-174.44 247.07,-162.4"/>
<polygon fill="midnightblue" stroke="midnightblue" points="247.91,-158.99 237.32,-159.11 245.68,-165.62 247.91,-158.99"/>
</g>
<!-- Node4 -->
<g id="node4" class="node">
<title>Node4</title>
<g id="a_node4"><a xlink:href="code__point_8hpp_source.html" target="_top" xlink:title=" ">
<polygon fill="none" stroke="black" points="347.5,-56.5 347.5,-86.5 463.5,-86.5 463.5,-56.5 347.5,-56.5"/>
<text text-anchor="start" x="355.5" y="-74.5" font-family="Helvetica,sans-Serif" font-size="10.00">arg_router/utility</text>
<text text-anchor="middle" x="405.5" y="-63.5" font-family="Helvetica,sans-Serif" font-size="10.00">/utf8/code_point.hpp</text>
</a>
</g>
</g>
<!-- Node3&#45;&gt;Node4 -->
<g id="edge3" class="edge">
<title>Node3&#45;&gt;Node4</title>
<path fill="none" stroke="midnightblue" d="M349.67,-128.73C359.53,-118.8 372.87,-105.36 384.04,-94.11"/>
<polygon fill="midnightblue" stroke="midnightblue" points="386.79,-96.31 391.36,-86.75 381.83,-91.38 386.79,-96.31"/>
</g>
<!-- Node5 -->
<g id="node5" class="node">
<title>Node5</title>
<g id="a_node5"><a xlink:title=" ">
<polygon fill="none" stroke="#bfbfbf" points="451.5,-0.5 451.5,-19.5 493.5,-19.5 493.5,-0.5 451.5,-0.5"/>
<text text-anchor="middle" x="472.5" y="-7.5" font-family="Helvetica,sans-Serif" font-size="10.00">array</text>
</a>
</g>
</g>
<!-- Node4&#45;&gt;Node5 -->
<g id="edge4" class="edge">
<title>Node4&#45;&gt;Node5</title>
<path fill="none" stroke="midnightblue" d="M421.38,-56.4C431.52,-47.4 444.66,-35.72 455.09,-26.47"/>
<polygon fill="midnightblue" stroke="midnightblue" points="457.6,-28.92 462.75,-19.66 452.95,-23.68 457.6,-28.92"/>
</g>
<!-- Node6 -->
<g id="node6" class="node">
<title>Node6</title>
<g id="a_node6"><a xlink:title=" ">
<polygon fill="none" stroke="#bfbfbf" points="309.5,-0.5 309.5,-19.5 359.5,-19.5 359.5,-0.5 309.5,-0.5"/>
<text text-anchor="middle" x="334.5" y="-7.5" font-family="Helvetica,sans-Serif" font-size="10.00">cstdint</text>
</a>
</g>
</g>
<!-- Node4&#45;&gt;Node6 -->
<g id="edge5" class="edge">
<title>Node4&#45;&gt;Node6</title>
<path fill="none" stroke="midnightblue" d="M388.67,-56.4C377.83,-47.31 363.72,-35.49 352.63,-26.19"/>
<polygon fill="midnightblue" stroke="midnightblue" points="354.74,-23.4 344.83,-19.66 350.25,-28.76 354.74,-23.4"/>
</g>
<!-- Node7 -->
<g id="node7" class="node">
<title>Node7</title>
<g id="a_node7"><a xlink:title=" ">
<polygon fill="none" stroke="#bfbfbf" points="377.5,-0.5 377.5,-19.5 433.5,-19.5 433.5,-0.5 377.5,-0.5"/>
<text text-anchor="middle" x="405.5" y="-7.5" font-family="Helvetica,sans-Serif" font-size="10.00">optional</text>
</a>
</g>
</g>
<!-- Node4&#45;&gt;Node7 -->
<g id="edge6" class="edge">
<title>Node4&#45;&gt;Node7</title>
<path fill="none" stroke="midnightblue" d="M405.5,-56.4C405.5,-48.47 405.5,-38.46 405.5,-29.86"/>
<polygon fill="midnightblue" stroke="midnightblue" points="409,-29.66 405.5,-19.66 402,-29.66 409,-29.66"/>
</g>
<!-- Node4&#45;&gt;Node8 -->
<g id="edge7" class="edge">
<title>Node4&#45;&gt;Node8</title>
<path fill="none" stroke="midnightblue" d="M458.07,-56.47C497.38,-45.99 550.41,-31.84 586.82,-22.12"/>
<polygon fill="midnightblue" stroke="midnightblue" points="587.86,-25.47 596.62,-19.51 586.05,-18.7 587.86,-25.47"/>
</g>
<!-- Node9&#45;&gt;Node4 -->
<g id="edge9" class="edge">
<title>Node9&#45;&gt;Node4</title>
<path fill="none" stroke="midnightblue" d="M556.56,-123.46C525.27,-112.9 486.99,-99.99 456.79,-89.8"/>
<polygon fill="midnightblue" stroke="midnightblue" points="457.88,-86.48 447.29,-86.6 455.65,-93.11 457.88,-86.48"/>
</g>
<!-- Node10 -->
<g id="node10" class="node">
<title>Node10</title>
<g id="a_node10"><a xlink:title=" ">
<polygon fill="none" stroke="#bfbfbf" points="582,-62 582,-81 647,-81 647,-62 582,-62"/>
<text text-anchor="middle" x="614.5" y="-69" font-family="Helvetica,sans-Serif" font-size="10.00">functional</text>
</a>
</g>
</g>
<!-- Node9&#45;&gt;Node10 -->
<g id="edge10" class="edge">
<title>Node9&#45;&gt;Node10</title>
<path fill="none" stroke="midnightblue" d="M614.5,-123.36C614.5,-113.3 614.5,-101.1 614.5,-91.18"/>
<polygon fill="midnightblue" stroke="midnightblue" points="618,-91.17 614.5,-81.17 611,-91.17 618,-91.17"/>
</g>
<!-- Node11&#45;&gt;Node4 -->
<g id="edge12" class="edge">
<title>Node11&#45;&gt;Node4</title>
<path fill="none" stroke="midnightblue" d="M460.54,-128.73C450.81,-118.8 437.66,-105.36 426.65,-94.11"/>
<polygon fill="midnightblue" stroke="midnightblue" points="428.94,-91.44 419.44,-86.75 423.94,-96.34 428.94,-91.44"/>
</g>
<!-- Node12&#45;&gt;Node4 -->
<g id="edge14" class="edge">
<title>Node12&#45;&gt;Node4</title>
<path fill="none" stroke="midnightblue" d="M105.72,-128.9C113.3,-126.79 121.09,-124.74 128.5,-123 199.05,-106.39 280.8,-92.08 337.11,-82.98"/>
<polygon fill="midnightblue" stroke="midnightblue" points="338,-86.38 347.32,-81.34 336.89,-79.47 338,-86.38"/>
</g>
<!-- Node13&#45;&gt;Node4 -->
<g id="edge16" class="edge">
<title>Node13&#45;&gt;Node4</title>
<path fill="none" stroke="midnightblue" d="M237.24,-128.99C270.7,-117.76 317.81,-101.94 353.68,-89.9"/>
<polygon fill="midnightblue" stroke="midnightblue" points="355.11,-93.11 363.48,-86.61 352.89,-86.47 355.11,-93.11"/>
</g>
</g>
</svg>
