<?xml version="1.0" encoding="UTF-8" standalone="no"?>
<!DOCTYPE svg PUBLIC "-//W3C//DTD SVG 1.1//EN"
 "http://www.w3.org/Graphics/SVG/1.1/DTD/svg11.dtd">
<!-- Generated by graphviz version 2.43.0 (0)
 -->
<!-- Title: arg_router Pages: 1 -->
<svg width="274pt" height="220pt"
 viewBox="0.00 0.00 274.00 220.00" xmlns="http://www.w3.org/2000/svg" xmlns:xlink="http://www.w3.org/1999/xlink">
<g id="graph0" class="graph" transform="scale(1 1) rotate(0) translate(4 216)">
<title>arg_router</title>
<g id="clust1" class="cluster">
<title>clusterdir_529fe8366846da263013841a2c49df49</title>
<g id="a_clust1"><a xlink:href="dir_529fe8366846da263013841a2c49df49.html" target="_top">
<polygon fill="#eeeeff" stroke="black" points="8,-8 8,-204 258,-204 258,-8 8,-8"/>
</a>
</g>
</g>
<!-- dir_529fe8366846da263013841a2c49df49 -->
<g id="node1" class="node">
<title>dir_529fe8366846da263013841a2c49df49</title>
<text text-anchor="middle" x="216" y="-175.5" font-family="Helvetica,sans-Serif" font-size="10.00">arg_router</text>
</g>
<!-- dir_0881c44fc01920ad4b8f5241bef071dc -->
<g id="node3" class="node">
<title>dir_0881c44fc01920ad4b8f5241bef071dc</title>
<g id="a_node3"><a xlink:href="dir_0881c44fc01920ad4b8f5241bef071dc.html" target="_top" xlink:title="multi_lang">
<polygon fill="white" stroke="black" points="213,-124 145,-124 145,-88 213,-88 213,-124"/>
<text text-anchor="middle" x="179" y="-103.5" font-family="Helvetica,sans-Serif" font-size="10.00">multi_lang</text>
</a>
</g>
</g>
<!-- dir_529fe8366846da263013841a2c49df49&#45;&gt;dir_0881c44fc01920ad4b8f5241bef071dc -->
<g id="edge3" class="edge">
<title>dir_529fe8366846da263013841a2c49df49&#45;&gt;dir_0881c44fc01920ad4b8f5241bef071dc</title>
<path fill="none" stroke="black" d="M206.85,-159.7C202.6,-151.64 197.44,-141.89 192.73,-132.98"/>
<polygon fill="black" stroke="black" points="195.81,-131.31 188.04,-124.1 189.62,-134.58 195.81,-131.31"/>
<g id="a_edge3&#45;headlabel"><a xlink:href="dir_000002_000004.html" target="_top" xlink:title="1">
<text text-anchor="middle" x="200" y="-130.66" font-family="Helvetica,sans-Serif" font-size="10.00">1</text>
</a>
</g>
</g>
<!-- dir_1370dad44ad30ac57f5bfd8a083e9764 -->
<g id="node6" class="node">
<title>dir_1370dad44ad30ac57f5bfd8a083e9764</title>
<g id="a_node6"><a xlink:href="dir_1370dad44ad30ac57f5bfd8a083e9764.html" target="_top" xlink:title="utility">
<polygon fill="white" stroke="red" points="206,-52 152,-52 152,-16 206,-16 206,-52"/>
<text text-anchor="middle" x="179" y="-31.5" font-family="Helvetica,sans-Serif" font-size="10.00">utility</text>
</a>
</g>
</g>
<!-- dir_529fe8366846da263013841a2c49df49&#45;&gt;dir_1370dad44ad30ac57f5bfd8a083e9764 -->
<g id="edge4" class="edge">
<title>dir_529fe8366846da263013841a2c49df49&#45;&gt;dir_1370dad44ad30ac57f5bfd8a083e9764</title>
<path fill="none" stroke="black" d="M221.14,-159.72C225.7,-141.37 230.44,-111.79 222,-88 218.34,-77.68 211.71,-67.9 204.74,-59.61"/>
<polygon fill="black" stroke="black" points="207.33,-57.26 198.04,-52.16 202.13,-61.94 207.33,-57.26"/>
<g id="a_edge4&#45;headlabel"><a xlink:href="dir_000002_000007.html" target="_top" xlink:title="6">
<text text-anchor="middle" x="211.84" y="-55.53" font-family="Helvetica,sans-Serif" font-size="10.00">6</text>
</a>
</g>
</g>
<!-- dir_f392fbd6be4b9d84711e309f6449cc6b -->
<g id="node2" class="node">
<title>dir_f392fbd6be4b9d84711e309f6449cc6b</title>
<g id="a_node2"><a xlink:href="dir_f392fbd6be4b9d84711e309f6449cc6b.html" target="_top" xlink:title="dependency">
<polygon fill="white" stroke="black" points="164,-196 88,-196 88,-160 164,-160 164,-196"/>
<text text-anchor="middle" x="126" y="-175.5" font-family="Helvetica,sans-Serif" font-size="10.00">dependency</text>
</a>
</g>
</g>
<!-- dir_0881c44fc01920ad4b8f5241bef071dc&#45;&gt;dir_1370dad44ad30ac57f5bfd8a083e9764 -->
<g id="edge1" class="edge">
<title>dir_0881c44fc01920ad4b8f5241bef071dc&#45;&gt;dir_1370dad44ad30ac57f5bfd8a083e9764</title>
<path fill="none" stroke="black" d="M179,-87.7C179,-79.98 179,-70.71 179,-62.11"/>
<polygon fill="black" stroke="black" points="182.5,-62.1 179,-52.1 175.5,-62.1 182.5,-62.1"/>
<g id="a_edge1&#45;headlabel"><a xlink:href="dir_000004_000007.html" target="_top" xlink:title="1">
<text text-anchor="middle" x="185.34" y="-63.2" font-family="Helvetica,sans-Serif" font-size="10.00">1</text>
</a>
</g>
</g>
<!-- dir_3fe754cb77252ba7bc5ec607900495ba -->
<g id="node4" class="node">
<title>dir_3fe754cb77252ba7bc5ec607900495ba</title>
<g id="a_node4"><a xlink:href="dir_3fe754cb77252ba7bc5ec607900495ba.html" target="_top" xlink:title="parsing">
<polygon fill="white" stroke="black" points="70,-196 16,-196 16,-160 70,-160 70,-196"/>
<text text-anchor="middle" x="43" y="-175.5" font-family="Helvetica,sans-Serif" font-size="10.00">parsing</text>
</a>
</g>
</g>
<!-- dir_7c27150ab8b360196a0390f4861c07a9 -->
<g id="node5" class="node">
<title>dir_7c27150ab8b360196a0390f4861c07a9</title>
<g id="a_node5"><a xlink:href="dir_7c27150ab8b360196a0390f4861c07a9.html" target="_top" xlink:title="policy">
<polygon fill="white" stroke="black" points="127,-124 73,-124 73,-88 127,-88 127,-124"/>
<text text-anchor="middle" x="100" y="-103.5" font-family="Helvetica,sans-Serif" font-size="10.00">policy</text>
</a>
</g>
</g>
<!-- dir_7c27150ab8b360196a0390f4861c07a9&#45;&gt;dir_1370dad44ad30ac57f5bfd8a083e9764 -->
<g id="edge2" class="edge">
<title>dir_7c27150ab8b360196a0390f4861c07a9&#45;&gt;dir_1370dad44ad30ac57f5bfd8a083e9764</title>
<path fill="none" stroke="black" d="M119.53,-87.7C129.38,-78.97 141.49,-68.24 152.2,-58.75"/>
<polygon fill="black" stroke="black" points="154.53,-61.36 159.7,-52.1 149.89,-56.12 154.53,-61.36"/>
<g id="a_edge2&#45;headlabel"><a xlink:href="dir_000006_000007.html" target="_top" xlink:title="3">
<text text-anchor="middle" x="153.73" y="-63.36" font-family="Helvetica,sans-Serif" font-size="10.00">3</text>
</a>
</g>
</g>
</g>
</svg>
