<?xml version="1.0" encoding="UTF-8" standalone="no"?>
<!DOCTYPE svg PUBLIC "-//W3C//DTD SVG 1.1//EN"
 "http://www.w3.org/Graphics/SVG/1.1/DTD/svg11.dtd">
<!-- Generated by graphviz version 2.43.0 (0)
 -->
<!-- Title: arg_router Pages: 1 -->
<svg width="274pt" height="148pt"
 viewBox="0.00 0.00 274.00 148.00" xmlns="http://www.w3.org/2000/svg" xmlns:xlink="http://www.w3.org/1999/xlink">
<g id="graph0" class="graph" transform="scale(1 1) rotate(0) translate(4 144)">
<title>arg_router</title>
<polygon fill="white" stroke="transparent" points="-4,4 -4,-144 270,-144 270,4 -4,4"/>
<g id="clust1" class="cluster">
<title>clusterdir_529fe8366846da263013841a2c49df49</title>
<g id="a_clust1"><a xlink:href="dir_529fe8366846da263013841a2c49df49.html" target="_top">
<polygon fill="#eeeeff" stroke="black" points="8,-8 8,-132 258,-132 258,-8 8,-8"/>
</a>
</g>
</g>
<!-- dir_529fe8366846da263013841a2c49df49 -->
<g id="node1" class="node">
<title>dir_529fe8366846da263013841a2c49df49</title>
<text text-anchor="middle" x="216" y="-103.5" font-family="Helvetica,sans-Serif" font-size="10.00">arg_router</text>
</g>
<!-- dir_1370dad44ad30ac57f5bfd8a083e9764 -->
<g id="node4" class="node">
<title>dir_1370dad44ad30ac57f5bfd8a083e9764</title>
<g id="a_node4"><a xlink:href="dir_1370dad44ad30ac57f5bfd8a083e9764.html" target="_top" xlink:title="utility">
<polygon fill="white" stroke="black" points="243,-52 189,-52 189,-16 243,-16 243,-52"/>
<text text-anchor="middle" x="216" y="-31.5" font-family="Helvetica,sans-Serif" font-size="10.00">utility</text>
</a>
</g>
</g>
<!-- dir_529fe8366846da263013841a2c49df49&#45;&gt;dir_1370dad44ad30ac57f5bfd8a083e9764 -->
<g id="edge1" class="edge">
<title>dir_529fe8366846da263013841a2c49df49&#45;&gt;dir_1370dad44ad30ac57f5bfd8a083e9764</title>
<path fill="none" stroke="black" d="M216,-87.7C216,-79.98 216,-70.71 216,-62.11"/>
<polygon fill="black" stroke="black" points="219.5,-62.1 216,-52.1 212.5,-62.1 219.5,-62.1"/>
<g id="a_edge1&#45;headlabel"><a xlink:href="dir_000002_000005.html" target="_top" xlink:title="1">
<text text-anchor="middle" x="222.34" y="-63.2" font-family="Helvetica,sans-Serif" font-size="10.00">1</text>
</a>
</g>
</g>
<!-- dir_f392fbd6be4b9d84711e309f6449cc6b -->
<g id="node2" class="node">
<title>dir_f392fbd6be4b9d84711e309f6449cc6b</title>
<g id="a_node2"><a xlink:href="dir_f392fbd6be4b9d84711e309f6449cc6b.html" target="_top" xlink:title="dependency">
<polygon fill="white" stroke="black" points="164,-124 88,-124 88,-88 164,-88 164,-124"/>
<text text-anchor="middle" x="126" y="-103.5" font-family="Helvetica,sans-Serif" font-size="10.00">dependency</text>
</a>
</g>
</g>
<!-- dir_7c27150ab8b360196a0390f4861c07a9 -->
<g id="node3" class="node">
<title>dir_7c27150ab8b360196a0390f4861c07a9</title>
<g id="a_node3"><a xlink:href="dir_7c27150ab8b360196a0390f4861c07a9.html" target="_top" xlink:title="policy">
<polygon fill="white" stroke="black" points="70,-124 16,-124 16,-88 70,-88 70,-124"/>
<text text-anchor="middle" x="43" y="-103.5" font-family="Helvetica,sans-Serif" font-size="10.00">policy</text>
</a>
</g>
</g>
</g>
</svg>
