<?xml version="1.0" encoding="UTF-8" standalone="no"?>
<!DOCTYPE svg PUBLIC "-//W3C//DTD SVG 1.1//EN"
 "http://www.w3.org/Graphics/SVG/1.1/DTD/svg11.dtd">
<!-- Generated by graphviz version 2.43.0 (0)
 -->
<!-- Title: arg_router Pages: 1 -->
<svg width="346pt" height="148pt"
 viewBox="0.00 0.00 346.00 148.00" xmlns="http://www.w3.org/2000/svg" xmlns:xlink="http://www.w3.org/1999/xlink">
<g id="graph0" class="graph" transform="scale(1 1) rotate(0) translate(4 144)">
<title>arg_router</title>
<polygon fill="white" stroke="transparent" points="-4,4 -4,-144 342,-144 342,4 -4,4"/>
<g id="clust1" class="cluster">
<title>clusterdir_529fe8366846da263013841a2c49df49</title>
<g id="a_clust1"><a xlink:href="dir_529fe8366846da263013841a2c49df49.html" target="_top">
<polygon fill="#eeeeff" stroke="black" points="8,-8 8,-132 330,-132 330,-8 8,-8"/>
</a>
</g>
</g>
<!-- dir_529fe8366846da263013841a2c49df49 -->
<g id="node1" class="node">
<title>dir_529fe8366846da263013841a2c49df49</title>
<text text-anchor="middle" x="288" y="-103.5" font-family="Helvetica,sans-Serif" font-size="10.00">arg_router</text>
</g>
<!-- dir_1370dad44ad30ac57f5bfd8a083e9764 -->
<g id="node5" class="node">
<title>dir_1370dad44ad30ac57f5bfd8a083e9764</title>
<g id="a_node5"><a xlink:href="dir_1370dad44ad30ac57f5bfd8a083e9764.html" target="_top" xlink:title="utility">
<polygon fill="white" stroke="black" points="315,-52 261,-52 261,-16 315,-16 315,-52"/>
<text text-anchor="middle" x="288" y="-31.5" font-family="Helvetica,sans-Serif" font-size="10.00">utility</text>
</a>
</g>
</g>
<!-- dir_529fe8366846da263013841a2c49df49&#45;&gt;dir_1370dad44ad30ac57f5bfd8a083e9764 -->
<g id="edge1" class="edge">
<title>dir_529fe8366846da263013841a2c49df49&#45;&gt;dir_1370dad44ad30ac57f5bfd8a083e9764</title>
<path fill="none" stroke="black" d="M288,-87.7C288,-79.98 288,-70.71 288,-62.11"/>
<polygon fill="black" stroke="black" points="291.5,-62.1 288,-52.1 284.5,-62.1 291.5,-62.1"/>
<g id="a_edge1&#45;headlabel"><a xlink:href="dir_000002_000006.html" target="_top" xlink:title="1">
<text text-anchor="middle" x="294.34" y="-63.2" font-family="Helvetica,sans-Serif" font-size="10.00">1</text>
</a>
</g>
</g>
<!-- dir_f392fbd6be4b9d84711e309f6449cc6b -->
<g id="node2" class="node">
<title>dir_f392fbd6be4b9d84711e309f6449cc6b</title>
<g id="a_node2"><a xlink:href="dir_f392fbd6be4b9d84711e309f6449cc6b.html" target="_top" xlink:title="dependency">
<polygon fill="white" stroke="black" points="236,-124 160,-124 160,-88 236,-88 236,-124"/>
<text text-anchor="middle" x="198" y="-103.5" font-family="Helvetica,sans-Serif" font-size="10.00">dependency</text>
</a>
</g>
</g>
<!-- dir_3fe754cb77252ba7bc5ec607900495ba -->
<g id="node3" class="node">
<title>dir_3fe754cb77252ba7bc5ec607900495ba</title>
<g id="a_node3"><a xlink:href="dir_3fe754cb77252ba7bc5ec607900495ba.html" target="_top" xlink:title="parsing">
<polygon fill="white" stroke="black" points="142,-124 88,-124 88,-88 142,-88 142,-124"/>
<text text-anchor="middle" x="115" y="-103.5" font-family="Helvetica,sans-Serif" font-size="10.00">parsing</text>
</a>
</g>
</g>
<!-- dir_7c27150ab8b360196a0390f4861c07a9 -->
<g id="node4" class="node">
<title>dir_7c27150ab8b360196a0390f4861c07a9</title>
<g id="a_node4"><a xlink:href="dir_7c27150ab8b360196a0390f4861c07a9.html" target="_top" xlink:title="policy">
<polygon fill="white" stroke="black" points="70,-124 16,-124 16,-88 70,-88 70,-124"/>
<text text-anchor="middle" x="43" y="-103.5" font-family="Helvetica,sans-Serif" font-size="10.00">policy</text>
</a>
</g>
</g>
</g>
</svg>
