<?xml version="1.0" encoding="UTF-8" standalone="no"?>
<!DOCTYPE svg PUBLIC "-//W3C//DTD SVG 1.1//EN"
 "http://www.w3.org/Graphics/SVG/1.1/DTD/svg11.dtd">
<!-- Generated by graphviz version 2.43.0 (0)
 -->
<!-- Title: Graphical Class Hierarchy Pages: 1 -->
<svg width="550pt" height="750pt"
 viewBox="0.00 0.00 550.00 750.00" xmlns="http://www.w3.org/2000/svg" xmlns:xlink="http://www.w3.org/1999/xlink">
<g id="graph0" class="graph" transform="scale(1 1) rotate(0) translate(4 746)">
<title>Graphical Class Hierarchy</title>
<polygon fill="white" stroke="transparent" points="-4,4 -4,-746 546,-746 546,4 -4,4"/>
<!-- Node0 -->
<g id="node1" class="node">
<title>Node0</title>
<g id="a_node1"><a xlink:href="classarg__router_1_1traits_1_1unpack__and__derive.html" target="_top" xlink:title=" ">
<polygon fill="white" stroke="black" points="0,-367 0,-430 138,-430 138,-367 0,-367"/>
<text text-anchor="start" x="8" y="-418" font-family="Helvetica,sans-Serif" font-size="10.00">arg_router::traits</text>
<text text-anchor="start" x="8" y="-407" font-family="Helvetica,sans-Serif" font-size="10.00">::unpack_and_derive</text>
<text text-anchor="start" x="8" y="-396" font-family="Helvetica,sans-Serif" font-size="10.00">&lt; boost::mp11::mp_filter</text>
<text text-anchor="start" x="8" y="-385" font-family="Helvetica,sans-Serif" font-size="10.00">&lt; policy::is_policy, std</text>
<text text-anchor="middle" x="69" y="-374" font-family="Helvetica,sans-Serif" font-size="10.00">::tuple&lt; Params... &gt; &gt; &gt;</text>
</a>
</g>
</g>
<!-- Node1 -->
<g id="node2" class="node">
<title>Node1</title>
<g id="a_node2"><a xlink:href="classarg__router_1_1tree__node.html" target="_top" xlink:title=" ">
<polygon fill="white" stroke="black" points="218.5,-711.5 218.5,-741.5 340.5,-741.5 340.5,-711.5 218.5,-711.5"/>
<text text-anchor="start" x="226.5" y="-729.5" font-family="Helvetica,sans-Serif" font-size="10.00">arg_router::tree_node</text>
<text text-anchor="middle" x="279.5" y="-718.5" font-family="Helvetica,sans-Serif" font-size="10.00">&lt; Params &gt;</text>
</a>
</g>
</g>
<!-- Node0&#45;&gt;Node1 -->
<g id="edge1" class="edge">
<title>Node0&#45;&gt;Node1</title>
<path fill="none" stroke="midnightblue" d="M71.9,-440.14C77.25,-505.94 97.5,-633.56 174,-702.5 186.17,-713.47 202.32,-719.73 218.28,-723.23"/>
<polygon fill="midnightblue" stroke="midnightblue" points="75.39,-439.85 71.17,-430.13 68.41,-440.36 75.39,-439.85"/>
</g>
<!-- Node2 -->
<g id="node3" class="node">
<title>Node2</title>
<g id="a_node3"><a xlink:href="classarg__router_1_1tree__node.html" target="_top" xlink:title=" ">
<polygon fill="white" stroke="black" points="218.5,-662.5 218.5,-692.5 340.5,-692.5 340.5,-662.5 218.5,-662.5"/>
<text text-anchor="start" x="226.5" y="-680.5" font-family="Helvetica,sans-Serif" font-size="10.00">arg_router::tree_node</text>
<text text-anchor="middle" x="279.5" y="-669.5" font-family="Helvetica,sans-Serif" font-size="10.00">&lt; Params... &gt;</text>
</a>
</g>
</g>
<!-- Node0&#45;&gt;Node2 -->
<g id="edge2" class="edge">
<title>Node0&#45;&gt;Node2</title>
<path fill="none" stroke="midnightblue" d="M75.11,-440.26C84.36,-497.25 109.36,-598.54 174,-653.5 186.41,-664.05 202.54,-670.19 218.41,-673.71"/>
<polygon fill="midnightblue" stroke="midnightblue" points="78.53,-439.51 73.56,-430.16 71.62,-440.58 78.53,-439.51"/>
</g>
<!-- Node4 -->
<g id="node5" class="node">
<title>Node4</title>
<g id="a_node5"><a xlink:href="classarg__router_1_1tree__node.html" target="_top" xlink:title=" ">
<polygon fill="white" stroke="black" points="218.5,-613.5 218.5,-643.5 340.5,-643.5 340.5,-613.5 218.5,-613.5"/>
<text text-anchor="start" x="226.5" y="-631.5" font-family="Helvetica,sans-Serif" font-size="10.00">arg_router::tree_node</text>
<text text-anchor="middle" x="279.5" y="-620.5" font-family="Helvetica,sans-Serif" font-size="10.00">&lt; Policies... &gt;</text>
</a>
</g>
</g>
<!-- Node0&#45;&gt;Node4 -->
<g id="edge4" class="edge">
<title>Node0&#45;&gt;Node4</title>
<path fill="none" stroke="midnightblue" d="M79.83,-440.05C93.13,-486.93 121.46,-562.04 174,-603.5 186.67,-613.5 202.7,-619.59 218.39,-623.28"/>
<polygon fill="midnightblue" stroke="midnightblue" points="83.16,-438.93 77.15,-430.21 76.4,-440.78 83.16,-438.93"/>
</g>
<!-- Node6 -->
<g id="node7" class="node">
<title>Node6</title>
<g id="a_node7"><a xlink:href="classarg__router_1_1tree__node.html" target="_top" xlink:title=" ">
<polygon fill="white" stroke="black" points="215,-553 215,-594 344,-594 344,-553 215,-553"/>
<text text-anchor="start" x="223" y="-582" font-family="Helvetica,sans-Serif" font-size="10.00">arg_router::tree_node</text>
<text text-anchor="start" x="223" y="-571" font-family="Helvetica,sans-Serif" font-size="10.00">&lt; policy::default_value</text>
<text text-anchor="middle" x="279.5" y="-560" font-family="Helvetica,sans-Serif" font-size="10.00">&lt; bool &gt;, Policies... &gt;</text>
</a>
</g>
</g>
<!-- Node0&#45;&gt;Node6 -->
<g id="edge6" class="edge">
<title>Node0&#45;&gt;Node6</title>
<path fill="none" stroke="midnightblue" d="M89.1,-439.15C106.67,-472.25 135.8,-517.73 174,-544.5 186.1,-552.98 200.61,-558.99 214.91,-563.24"/>
<polygon fill="midnightblue" stroke="midnightblue" points="92.15,-437.44 84.45,-430.17 85.94,-440.66 92.15,-437.44"/>
</g>
<!-- Node8 -->
<g id="node9" class="node">
<title>Node8</title>
<g id="a_node9"><a xlink:href="classarg__router_1_1tree__node.html" target="_top" xlink:title=" ">
<polygon fill="white" stroke="black" points="174,-460.5 174,-534.5 385,-534.5 385,-460.5 174,-460.5"/>
<text text-anchor="start" x="182" y="-522.5" font-family="Helvetica,sans-Serif" font-size="10.00">arg_router::tree_node</text>
<text text-anchor="start" x="182" y="-511.5" font-family="Helvetica,sans-Serif" font-size="10.00">&lt; policy::display_name</text>
<text text-anchor="start" x="182" y="-500.5" font-family="Helvetica,sans-Serif" font-size="10.00">_t&lt; generate_string_of</text>
<text text-anchor="start" x="182" y="-489.5" font-family="Helvetica,sans-Serif" font-size="10.00">_child_names&lt; ParentDocName,</text>
<text text-anchor="start" x="182" y="-478.5" font-family="Helvetica,sans-Serif" font-size="10.00"> std::decay_t&lt; Params &gt;...</text>
<text text-anchor="middle" x="279.5" y="-467.5" font-family="Helvetica,sans-Serif" font-size="10.00"> &gt;::type &gt;, std::decay_t&lt; Params &gt;... &gt;</text>
</a>
</g>
</g>
<!-- Node0&#45;&gt;Node8 -->
<g id="edge8" class="edge">
<title>Node0&#45;&gt;Node8</title>
<path fill="none" stroke="midnightblue" d="M141.31,-434.64C152.22,-440.03 163.39,-445.46 174,-450.5 180.92,-453.78 188.12,-457.14 195.36,-460.48"/>
<polygon fill="midnightblue" stroke="midnightblue" points="142.73,-431.43 132.22,-430.13 139.62,-437.71 142.73,-431.43"/>
</g>
<!-- Node9 -->
<g id="node10" class="node">
<title>Node9</title>
<g id="a_node10"><a xlink:href="classarg__router_1_1tree__node.html" target="_top" xlink:title=" ">
<polygon fill="white" stroke="black" points="202,-356 202,-441 357,-441 357,-356 202,-356"/>
<text text-anchor="start" x="210" y="-429" font-family="Helvetica,sans-Serif" font-size="10.00">arg_router::tree_node</text>
<text text-anchor="start" x="210" y="-418" font-family="Helvetica,sans-Serif" font-size="10.00">&lt; policy::display_name</text>
<text text-anchor="start" x="210" y="-407" font-family="Helvetica,sans-Serif" font-size="10.00">_t&lt; generate_string_of</text>
<text text-anchor="start" x="210" y="-396" font-family="Helvetica,sans-Serif" font-size="10.00">_child_names&lt; S_(&quot;Alias</text>
<text text-anchor="start" x="210" y="-385" font-family="Helvetica,sans-Serif" font-size="10.00"> Group: &quot;), std::decay_t</text>
<text text-anchor="start" x="210" y="-374" font-family="Helvetica,sans-Serif" font-size="10.00">&lt; Params &gt;... &gt;::type &gt;, std</text>
<text text-anchor="middle" x="279.5" y="-363" font-family="Helvetica,sans-Serif" font-size="10.00">::decay_t&lt; Params &gt;... &gt;</text>
</a>
</g>
</g>
<!-- Node0&#45;&gt;Node9 -->
<g id="edge9" class="edge">
<title>Node0&#45;&gt;Node9</title>
<path fill="none" stroke="midnightblue" d="M148.42,-398.5C165.88,-398.5 184.38,-398.5 201.77,-398.5"/>
<polygon fill="midnightblue" stroke="midnightblue" points="148.27,-395 138.27,-398.5 148.27,-402 148.27,-395"/>
</g>
<!-- Node10 -->
<g id="node11" class="node">
<title>Node10</title>
<g id="a_node11"><a xlink:href="classarg__router_1_1tree__node.html" target="_top" xlink:title=" ">
<polygon fill="white" stroke="black" points="206.5,-252 206.5,-337 352.5,-337 352.5,-252 206.5,-252"/>
<text text-anchor="start" x="214.5" y="-325" font-family="Helvetica,sans-Serif" font-size="10.00">arg_router::tree_node</text>
<text text-anchor="start" x="214.5" y="-314" font-family="Helvetica,sans-Serif" font-size="10.00">&lt; policy::display_name</text>
<text text-anchor="start" x="214.5" y="-303" font-family="Helvetica,sans-Serif" font-size="10.00">_t&lt; generate_string_of</text>
<text text-anchor="start" x="214.5" y="-292" font-family="Helvetica,sans-Serif" font-size="10.00">_child_names&lt; S_(&quot;One of</text>
<text text-anchor="start" x="214.5" y="-281" font-family="Helvetica,sans-Serif" font-size="10.00">: &quot;), std::decay_t&lt; Params</text>
<text text-anchor="start" x="214.5" y="-270" font-family="Helvetica,sans-Serif" font-size="10.00"> &gt;... &gt;::type &gt;, std::decay</text>
<text text-anchor="middle" x="279.5" y="-259" font-family="Helvetica,sans-Serif" font-size="10.00">_t&lt; Params &gt;... &gt;</text>
</a>
</g>
</g>
<!-- Node0&#45;&gt;Node10 -->
<g id="edge10" class="edge">
<title>Node0&#45;&gt;Node10</title>
<path fill="none" stroke="midnightblue" d="M141.93,-362.51C152.68,-357.14 163.63,-351.67 174,-346.5 184.43,-341.3 195.44,-335.81 206.25,-330.43"/>
<polygon fill="midnightblue" stroke="midnightblue" points="140.34,-359.39 132.96,-367 143.47,-365.66 140.34,-359.39"/>
</g>
<!-- Node11 -->
<g id="node12" class="node">
<title>Node11</title>
<g id="a_node12"><a xlink:href="classarg__router_1_1tree__node.html" target="_top" xlink:title=" ">
<polygon fill="white" stroke="black" points="195.5,-192 195.5,-233 363.5,-233 363.5,-192 195.5,-192"/>
<text text-anchor="start" x="203.5" y="-221" font-family="Helvetica,sans-Serif" font-size="10.00">arg_router::tree_node</text>
<text text-anchor="start" x="203.5" y="-210" font-family="Helvetica,sans-Serif" font-size="10.00">&lt; policy::multi_stage</text>
<text text-anchor="middle" x="279.5" y="-199" font-family="Helvetica,sans-Serif" font-size="10.00">_value&lt; T, bool &gt;, Policies... &gt;</text>
</a>
</g>
</g>
<!-- Node0&#45;&gt;Node11 -->
<g id="edge11" class="edge">
<title>Node0&#45;&gt;Node11</title>
<path fill="none" stroke="midnightblue" d="M87.18,-357.86C104.21,-322.37 133.59,-272.03 174,-242.5 180.55,-237.71 187.85,-233.68 195.46,-230.3"/>
<polygon fill="midnightblue" stroke="midnightblue" points="83.97,-356.45 82.91,-366.99 90.32,-359.42 83.97,-356.45"/>
</g>
<!-- Node13 -->
<g id="node14" class="node">
<title>Node13</title>
<g id="a_node14"><a xlink:href="classarg__router_1_1tree__node.html" target="_top" xlink:title=" ">
<polygon fill="white" stroke="black" points="209.5,-132 209.5,-173 349.5,-173 349.5,-132 209.5,-132"/>
<text text-anchor="start" x="217.5" y="-161" font-family="Helvetica,sans-Serif" font-size="10.00">arg_router::tree_node</text>
<text text-anchor="start" x="217.5" y="-150" font-family="Helvetica,sans-Serif" font-size="10.00">&lt; policy::no_result_value</text>
<text text-anchor="middle" x="279.5" y="-139" font-family="Helvetica,sans-Serif" font-size="10.00">&lt;&gt;, Params... &gt;</text>
</a>
</g>
</g>
<!-- Node0&#45;&gt;Node13 -->
<g id="edge13" class="edge">
<title>Node0&#45;&gt;Node13</title>
<path fill="none" stroke="midnightblue" d="M79.14,-356.72C91.99,-307.88 120.1,-227.98 174,-182.5 184.17,-173.92 196.66,-167.79 209.43,-163.41"/>
<polygon fill="midnightblue" stroke="midnightblue" points="75.69,-356.09 76.63,-366.64 82.48,-357.81 75.69,-356.09"/>
</g>
<!-- Node15 -->
<g id="node16" class="node">
<title>Node15</title>
<g id="a_node16"><a xlink:href="classarg__router_1_1tree__node.html" target="_top" xlink:title=" ">
<polygon fill="white" stroke="black" points="209.5,-72 209.5,-113 349.5,-113 349.5,-72 209.5,-72"/>
<text text-anchor="start" x="217.5" y="-101" font-family="Helvetica,sans-Serif" font-size="10.00">arg_router::tree_node</text>
<text text-anchor="start" x="217.5" y="-90" font-family="Helvetica,sans-Serif" font-size="10.00">&lt; policy::no_result_value</text>
<text text-anchor="middle" x="279.5" y="-79" font-family="Helvetica,sans-Serif" font-size="10.00">&lt;&gt;, Policies... &gt;</text>
</a>
</g>
</g>
<!-- Node0&#45;&gt;Node15 -->
<g id="edge15" class="edge">
<title>Node0&#45;&gt;Node15</title>
<path fill="none" stroke="midnightblue" d="M74.07,-357.05C82.21,-296.74 106.04,-185.18 174,-122.5 183.92,-113.35 196.45,-106.97 209.36,-102.53"/>
<polygon fill="midnightblue" stroke="midnightblue" points="70.59,-356.62 72.8,-366.98 77.54,-357.5 70.59,-356.62"/>
</g>
<!-- Node17 -->
<g id="node18" class="node">
<title>Node17</title>
<g id="a_node18"><a xlink:href="classarg__router_1_1tree__node.html" target="_top" xlink:title=" ">
<polygon fill="white" stroke="black" points="209.5,-0.5 209.5,-52.5 349.5,-52.5 349.5,-0.5 209.5,-0.5"/>
<text text-anchor="start" x="217.5" y="-40.5" font-family="Helvetica,sans-Serif" font-size="10.00">arg_router::tree_node</text>
<text text-anchor="start" x="217.5" y="-29.5" font-family="Helvetica,sans-Serif" font-size="10.00">&lt; std::decay_t&lt; decltype</text>
<text text-anchor="start" x="217.5" y="-18.5" font-family="Helvetica,sans-Serif" font-size="10.00">(policy::fixed_count&lt; 1</text>
<text text-anchor="middle" x="279.5" y="-7.5" font-family="Helvetica,sans-Serif" font-size="10.00"> &gt;)&gt;, Policies... &gt;</text>
</a>
</g>
</g>
<!-- Node0&#45;&gt;Node17 -->
<g id="edge17" class="edge">
<title>Node0&#45;&gt;Node17</title>
<path fill="none" stroke="midnightblue" d="M71.25,-356.73C75.6,-286.57 94.38,-144.68 174,-62.5 183.68,-52.51 196.26,-45.29 209.32,-40.07"/>
<polygon fill="midnightblue" stroke="midnightblue" points="67.74,-356.78 70.69,-366.95 74.73,-357.16 67.74,-356.78"/>
</g>
<!-- Node3 -->
<g id="node4" class="node">
<title>Node3</title>
<g id="a_node4"><a xlink:href="classarg__router_1_1root__t.html" target="_top" xlink:title=" ">
<polygon fill="white" stroke="black" points="431,-662.5 431,-692.5 532,-692.5 532,-662.5 431,-662.5"/>
<text text-anchor="start" x="439" y="-680.5" font-family="Helvetica,sans-Serif" font-size="10.00">arg_router::root_t</text>
<text text-anchor="middle" x="481.5" y="-669.5" font-family="Helvetica,sans-Serif" font-size="10.00">&lt; Params &gt;</text>
</a>
</g>
</g>
<!-- Node2&#45;&gt;Node3 -->
<g id="edge3" class="edge">
<title>Node2&#45;&gt;Node3</title>
<path fill="none" stroke="midnightblue" d="M350.51,-677.5C377.05,-677.5 406.7,-677.5 430.97,-677.5"/>
<polygon fill="midnightblue" stroke="midnightblue" points="350.51,-674 340.51,-677.5 350.51,-681 350.51,-674"/>
</g>
<!-- Node5 -->
<g id="node6" class="node">
<title>Node5</title>
<g id="a_node6"><a xlink:href="classarg__router_1_1positional__arg__t.html" target="_top" xlink:title=" ">
<polygon fill="white" stroke="black" points="421,-613.5 421,-643.5 542,-643.5 542,-613.5 421,-613.5"/>
<text text-anchor="start" x="429" y="-631.5" font-family="Helvetica,sans-Serif" font-size="10.00">arg_router::positional</text>
<text text-anchor="middle" x="481.5" y="-620.5" font-family="Helvetica,sans-Serif" font-size="10.00">_arg_t&lt; T, Policies &gt;</text>
</a>
</g>
</g>
<!-- Node4&#45;&gt;Node5 -->
<g id="edge5" class="edge">
<title>Node4&#45;&gt;Node5</title>
<path fill="none" stroke="midnightblue" d="M350.53,-628.5C373.49,-628.5 398.77,-628.5 420.88,-628.5"/>
<polygon fill="midnightblue" stroke="midnightblue" points="350.51,-625 340.51,-628.5 350.51,-632 350.51,-625"/>
</g>
<!-- Node7 -->
<g id="node8" class="node">
<title>Node7</title>
<g id="a_node8"><a xlink:href="classarg__router_1_1flag__t.html" target="_top" xlink:title=" ">
<polygon fill="white" stroke="black" points="431.5,-558.5 431.5,-588.5 531.5,-588.5 531.5,-558.5 431.5,-558.5"/>
<text text-anchor="start" x="439.5" y="-576.5" font-family="Helvetica,sans-Serif" font-size="10.00">arg_router::flag_t</text>
<text text-anchor="middle" x="481.5" y="-565.5" font-family="Helvetica,sans-Serif" font-size="10.00">&lt; Policies &gt;</text>
</a>
</g>
</g>
<!-- Node6&#45;&gt;Node7 -->
<g id="edge7" class="edge">
<title>Node6&#45;&gt;Node7</title>
<path fill="none" stroke="midnightblue" d="M354.16,-573.5C379.9,-573.5 408.14,-573.5 431.39,-573.5"/>
<polygon fill="midnightblue" stroke="midnightblue" points="354.06,-570 344.06,-573.5 354.06,-577 354.06,-570"/>
</g>
<!-- Node12 -->
<g id="node13" class="node">
<title>Node12</title>
<g id="a_node13"><a xlink:href="classarg__router_1_1counting__flag__t.html" target="_top" xlink:title=" ">
<polygon fill="white" stroke="black" points="421,-197.5 421,-227.5 542,-227.5 542,-197.5 421,-197.5"/>
<text text-anchor="start" x="429" y="-215.5" font-family="Helvetica,sans-Serif" font-size="10.00">arg_router::counting</text>
<text text-anchor="middle" x="481.5" y="-204.5" font-family="Helvetica,sans-Serif" font-size="10.00">_flag_t&lt; T, Policies &gt;</text>
</a>
</g>
</g>
<!-- Node11&#45;&gt;Node12 -->
<g id="edge12" class="edge">
<title>Node11&#45;&gt;Node12</title>
<path fill="none" stroke="midnightblue" d="M374,-212.5C389.94,-212.5 406.09,-212.5 420.84,-212.5"/>
<polygon fill="midnightblue" stroke="midnightblue" points="373.58,-209 363.58,-212.5 373.58,-216 373.58,-209"/>
</g>
<!-- Node14 -->
<g id="node15" class="node">
<title>Node14</title>
<g id="a_node15"><a xlink:href="classarg__router_1_1mode__t.html" target="_top" xlink:title=" ">
<polygon fill="white" stroke="black" points="426.5,-137.5 426.5,-167.5 536.5,-167.5 536.5,-137.5 426.5,-137.5"/>
<text text-anchor="start" x="434.5" y="-155.5" font-family="Helvetica,sans-Serif" font-size="10.00">arg_router::mode_t</text>
<text text-anchor="middle" x="481.5" y="-144.5" font-family="Helvetica,sans-Serif" font-size="10.00">&lt; Params &gt;</text>
</a>
</g>
</g>
<!-- Node13&#45;&gt;Node14 -->
<g id="edge14" class="edge">
<title>Node13&#45;&gt;Node14</title>
<path fill="none" stroke="midnightblue" d="M359.73,-152.5C382.02,-152.5 405.75,-152.5 426.22,-152.5"/>
<polygon fill="midnightblue" stroke="midnightblue" points="359.61,-149 349.61,-152.5 359.61,-156 359.61,-149"/>
</g>
<!-- Node16 -->
<g id="node17" class="node">
<title>Node16</title>
<g id="a_node17"><a xlink:href="classarg__router_1_1help__t.html" target="_top" xlink:title=" ">
<polygon fill="white" stroke="black" points="430,-77.5 430,-107.5 533,-107.5 533,-77.5 430,-77.5"/>
<text text-anchor="start" x="438" y="-95.5" font-family="Helvetica,sans-Serif" font-size="10.00">arg_router::help_t</text>
<text text-anchor="middle" x="481.5" y="-84.5" font-family="Helvetica,sans-Serif" font-size="10.00">&lt; Policies &gt;</text>
</a>
</g>
</g>
<!-- Node15&#45;&gt;Node16 -->
<g id="edge16" class="edge">
<title>Node15&#45;&gt;Node16</title>
<path fill="none" stroke="midnightblue" d="M359.92,-92.5C383.43,-92.5 408.52,-92.5 429.69,-92.5"/>
<polygon fill="midnightblue" stroke="midnightblue" points="359.61,-89 349.61,-92.5 359.61,-96 359.61,-89"/>
</g>
<!-- Node18 -->
<g id="node19" class="node">
<title>Node18</title>
<g id="a_node19"><a xlink:href="classarg__router_1_1arg__t.html" target="_top" xlink:title=" ">
<polygon fill="white" stroke="black" points="428.5,-11.5 428.5,-41.5 534.5,-41.5 534.5,-11.5 428.5,-11.5"/>
<text text-anchor="start" x="436.5" y="-29.5" font-family="Helvetica,sans-Serif" font-size="10.00">arg_router::arg_t&lt;</text>
<text text-anchor="middle" x="481.5" y="-18.5" font-family="Helvetica,sans-Serif" font-size="10.00"> T, Policies &gt;</text>
</a>
</g>
</g>
<!-- Node17&#45;&gt;Node18 -->
<g id="edge18" class="edge">
<title>Node17&#45;&gt;Node18</title>
<path fill="none" stroke="midnightblue" d="M359.74,-26.5C382.84,-26.5 407.48,-26.5 428.44,-26.5"/>
<polygon fill="midnightblue" stroke="midnightblue" points="359.61,-23 349.61,-26.5 359.61,-30 359.61,-23"/>
</g>
</g>
</svg>
