<?xml version="1.0" encoding="UTF-8" standalone="no"?>
<!DOCTYPE svg PUBLIC "-//W3C//DTD SVG 1.1//EN"
 "http://www.w3.org/Graphics/SVG/1.1/DTD/svg11.dtd">
<!-- Generated by graphviz version 2.43.0 (0)
 -->
<!-- Title: Graphical Class Hierarchy Pages: 1 -->
<svg width="538pt" height="433pt"
 viewBox="0.00 0.00 538.00 433.00" xmlns="http://www.w3.org/2000/svg" xmlns:xlink="http://www.w3.org/1999/xlink">
<g id="graph0" class="graph" transform="scale(1 1) rotate(0) translate(4 429)">
<title>Graphical Class Hierarchy</title>
<polygon fill="white" stroke="transparent" points="-4,4 -4,-429 534,-429 534,4 -4,4"/>
<!-- Node0 -->
<g id="node1" class="node">
<title>Node0</title>
<g id="a_node1"><a xlink:href="classarg__router_1_1traits_1_1unpack__and__derive.html" target="_top" xlink:title=" ">
<polygon fill="white" stroke="black" points="0,-214 0,-277 138,-277 138,-214 0,-214"/>
<text text-anchor="start" x="8" y="-265" font-family="Helvetica,sans-Serif" font-size="10.00">arg_router::traits</text>
<text text-anchor="start" x="8" y="-254" font-family="Helvetica,sans-Serif" font-size="10.00">::unpack_and_derive</text>
<text text-anchor="start" x="8" y="-243" font-family="Helvetica,sans-Serif" font-size="10.00">&lt; boost::mp11::mp_filter</text>
<text text-anchor="start" x="8" y="-232" font-family="Helvetica,sans-Serif" font-size="10.00">&lt; policy::is_policy, std</text>
<text text-anchor="middle" x="69" y="-221" font-family="Helvetica,sans-Serif" font-size="10.00">::tuple&lt; Params... &gt; &gt; &gt;</text>
</a>
</g>
</g>
<!-- Node1 -->
<g id="node2" class="node">
<title>Node1</title>
<g id="a_node2"><a xlink:href="classarg__router_1_1tree__node.html" target="_top" xlink:title=" ">
<polygon fill="white" stroke="black" points="207,-394.5 207,-424.5 329,-424.5 329,-394.5 207,-394.5"/>
<text text-anchor="start" x="215" y="-412.5" font-family="Helvetica,sans-Serif" font-size="10.00">arg_router::tree_node</text>
<text text-anchor="middle" x="268" y="-401.5" font-family="Helvetica,sans-Serif" font-size="10.00">&lt; Params &gt;</text>
</a>
</g>
</g>
<!-- Node0&#45;&gt;Node1 -->
<g id="edge1" class="edge">
<title>Node0&#45;&gt;Node1</title>
<path fill="none" stroke="midnightblue" d="M90.26,-286.23C108.09,-317.92 136.96,-360.58 174,-385.5 183.82,-392.11 195.35,-396.9 206.88,-400.37"/>
<polygon fill="midnightblue" stroke="midnightblue" points="93.18,-284.28 85.31,-277.19 87.04,-287.64 93.18,-284.28"/>
</g>
<!-- Node2 -->
<g id="node3" class="node">
<title>Node2</title>
<g id="a_node3"><a xlink:href="classarg__router_1_1tree__node.html" target="_top" xlink:title=" ">
<polygon fill="white" stroke="black" points="207,-345.5 207,-375.5 329,-375.5 329,-345.5 207,-345.5"/>
<text text-anchor="start" x="215" y="-363.5" font-family="Helvetica,sans-Serif" font-size="10.00">arg_router::tree_node</text>
<text text-anchor="middle" x="268" y="-352.5" font-family="Helvetica,sans-Serif" font-size="10.00">&lt; Params... &gt;</text>
</a>
</g>
</g>
<!-- Node0&#45;&gt;Node2 -->
<g id="edge2" class="edge">
<title>Node0&#45;&gt;Node2</title>
<path fill="none" stroke="midnightblue" d="M105.7,-284.26C124.43,-302.51 148.71,-323.15 174,-336.5 184.18,-341.87 195.62,-346.09 206.91,-349.39"/>
<polygon fill="midnightblue" stroke="midnightblue" points="108.1,-281.71 98.54,-277.14 103.16,-286.67 108.1,-281.71"/>
</g>
<!-- Node4 -->
<g id="node5" class="node">
<title>Node4</title>
<g id="a_node5"><a xlink:href="classarg__router_1_1tree__node.html" target="_top" xlink:title=" ">
<polygon fill="white" stroke="black" points="207,-296.5 207,-326.5 329,-326.5 329,-296.5 207,-296.5"/>
<text text-anchor="start" x="215" y="-314.5" font-family="Helvetica,sans-Serif" font-size="10.00">arg_router::tree_node</text>
<text text-anchor="middle" x="268" y="-303.5" font-family="Helvetica,sans-Serif" font-size="10.00">&lt; Policies... &gt;</text>
</a>
</g>
</g>
<!-- Node0&#45;&gt;Node4 -->
<g id="edge4" class="edge">
<title>Node0&#45;&gt;Node4</title>
<path fill="none" stroke="midnightblue" d="M147.66,-277.22C156.49,-280.5 165.41,-283.66 174,-286.5 184.64,-290.01 196.08,-293.4 207.17,-296.49"/>
<polygon fill="midnightblue" stroke="midnightblue" points="148.72,-273.88 138.13,-273.63 146.25,-280.43 148.72,-273.88"/>
</g>
<!-- Node6 -->
<g id="node7" class="node">
<title>Node6</title>
<g id="a_node7"><a xlink:href="classarg__router_1_1tree__node.html" target="_top" xlink:title=" ">
<polygon fill="white" stroke="black" points="191.5,-214 191.5,-277 344.5,-277 344.5,-214 191.5,-214"/>
<text text-anchor="start" x="199.5" y="-265" font-family="Helvetica,sans-Serif" font-size="10.00">arg_router::tree_node</text>
<text text-anchor="start" x="199.5" y="-254" font-family="Helvetica,sans-Serif" font-size="10.00">&lt; policy::default_value</text>
<text text-anchor="start" x="199.5" y="-243" font-family="Helvetica,sans-Serif" font-size="10.00">&lt; bool &gt;, std::decay_t</text>
<text text-anchor="start" x="199.5" y="-232" font-family="Helvetica,sans-Serif" font-size="10.00">&lt; decltype(policy::fixed</text>
<text text-anchor="middle" x="268" y="-221" font-family="Helvetica,sans-Serif" font-size="10.00">_count&lt; 0 &gt;)&gt;, Policies... &gt;</text>
</a>
</g>
</g>
<!-- Node0&#45;&gt;Node6 -->
<g id="edge6" class="edge">
<title>Node0&#45;&gt;Node6</title>
<path fill="none" stroke="midnightblue" d="M148.25,-245.5C162.38,-245.5 177.1,-245.5 191.17,-245.5"/>
<polygon fill="midnightblue" stroke="midnightblue" points="148.07,-242 138.07,-245.5 148.07,-249 148.07,-242"/>
</g>
<!-- Node8 -->
<g id="node9" class="node">
<title>Node8</title>
<g id="a_node9"><a xlink:href="classarg__router_1_1tree__node.html" target="_top" xlink:title=" ">
<polygon fill="white" stroke="black" points="174,-132 174,-195 362,-195 362,-132 174,-132"/>
<text text-anchor="start" x="182" y="-183" font-family="Helvetica,sans-Serif" font-size="10.00">arg_router::tree_node</text>
<text text-anchor="start" x="182" y="-172" font-family="Helvetica,sans-Serif" font-size="10.00">&lt; policy::display_name</text>
<text text-anchor="start" x="182" y="-161" font-family="Helvetica,sans-Serif" font-size="10.00">_t&lt; detail::one_of_generate</text>
<text text-anchor="start" x="182" y="-150" font-family="Helvetica,sans-Serif" font-size="10.00">_string_of_child_names&lt; Params...</text>
<text text-anchor="middle" x="268" y="-139" font-family="Helvetica,sans-Serif" font-size="10.00"> &gt;::type &gt;, Params... &gt;</text>
</a>
</g>
</g>
<!-- Node0&#45;&gt;Node8 -->
<g id="edge8" class="edge">
<title>Node0&#45;&gt;Node8</title>
<path fill="none" stroke="midnightblue" d="M147.42,-213.27C161.81,-207.28 176.83,-201.03 191.17,-195.06"/>
<polygon fill="midnightblue" stroke="midnightblue" points="145.96,-210.09 138.07,-217.17 148.65,-216.55 145.96,-210.09"/>
</g>
<!-- Node10 -->
<g id="node11" class="node">
<title>Node10</title>
<g id="a_node11"><a xlink:href="classarg__router_1_1tree__node.html" target="_top" xlink:title=" ">
<polygon fill="white" stroke="black" points="198,-72 198,-113 338,-113 338,-72 198,-72"/>
<text text-anchor="start" x="206" y="-101" font-family="Helvetica,sans-Serif" font-size="10.00">arg_router::tree_node</text>
<text text-anchor="start" x="206" y="-90" font-family="Helvetica,sans-Serif" font-size="10.00">&lt; policy::no_result_value</text>
<text text-anchor="middle" x="268" y="-79" font-family="Helvetica,sans-Serif" font-size="10.00">&lt;&gt;, Params... &gt;</text>
</a>
</g>
</g>
<!-- Node0&#45;&gt;Node10 -->
<g id="edge10" class="edge">
<title>Node0&#45;&gt;Node10</title>
<path fill="none" stroke="midnightblue" d="M95.1,-205.45C113.84,-178.52 141.72,-144.14 174,-122.5 181.33,-117.59 189.52,-113.43 197.91,-109.93"/>
<polygon fill="midnightblue" stroke="midnightblue" points="92.07,-203.66 89.34,-213.9 97.86,-207.61 92.07,-203.66"/>
</g>
<!-- Node12 -->
<g id="node13" class="node">
<title>Node12</title>
<g id="a_node13"><a xlink:href="classarg__router_1_1tree__node.html" target="_top" xlink:title=" ">
<polygon fill="white" stroke="black" points="198,-0.5 198,-52.5 338,-52.5 338,-0.5 198,-0.5"/>
<text text-anchor="start" x="206" y="-40.5" font-family="Helvetica,sans-Serif" font-size="10.00">arg_router::tree_node</text>
<text text-anchor="start" x="206" y="-29.5" font-family="Helvetica,sans-Serif" font-size="10.00">&lt; std::decay_t&lt; decltype</text>
<text text-anchor="start" x="206" y="-18.5" font-family="Helvetica,sans-Serif" font-size="10.00">(policy::fixed_count&lt; 1</text>
<text text-anchor="middle" x="268" y="-7.5" font-family="Helvetica,sans-Serif" font-size="10.00"> &gt;)&gt;, Policies... &gt;</text>
</a>
</g>
</g>
<!-- Node0&#45;&gt;Node12 -->
<g id="edge12" class="edge">
<title>Node0&#45;&gt;Node12</title>
<path fill="none" stroke="midnightblue" d="M83.9,-204.54C99.77,-163.47 129.42,-100.95 174,-62.5 181.08,-56.39 189.31,-51.26 197.89,-46.97"/>
<polygon fill="midnightblue" stroke="midnightblue" points="80.6,-203.39 80.35,-213.98 87.15,-205.85 80.6,-203.39"/>
</g>
<!-- Node3 -->
<g id="node4" class="node">
<title>Node3</title>
<g id="a_node4"><a xlink:href="classarg__router_1_1root__t.html" target="_top" xlink:title=" ">
<polygon fill="white" stroke="black" points="413.5,-345.5 413.5,-375.5 514.5,-375.5 514.5,-345.5 413.5,-345.5"/>
<text text-anchor="start" x="421.5" y="-363.5" font-family="Helvetica,sans-Serif" font-size="10.00">arg_router::root_t</text>
<text text-anchor="middle" x="464" y="-352.5" font-family="Helvetica,sans-Serif" font-size="10.00">&lt; Params &gt;</text>
</a>
</g>
</g>
<!-- Node2&#45;&gt;Node3 -->
<g id="edge3" class="edge">
<title>Node2&#45;&gt;Node3</title>
<path fill="none" stroke="midnightblue" d="M339.06,-360.5C363.65,-360.5 390.75,-360.5 413.32,-360.5"/>
<polygon fill="midnightblue" stroke="midnightblue" points="339.05,-357 329.05,-360.5 339.05,-364 339.05,-357"/>
</g>
<!-- Node5 -->
<g id="node6" class="node">
<title>Node5</title>
<g id="a_node6"><a xlink:href="classarg__router_1_1positional__arg__t.html" target="_top" xlink:title=" ">
<polygon fill="white" stroke="black" points="403.5,-296.5 403.5,-326.5 524.5,-326.5 524.5,-296.5 403.5,-296.5"/>
<text text-anchor="start" x="411.5" y="-314.5" font-family="Helvetica,sans-Serif" font-size="10.00">arg_router::positional</text>
<text text-anchor="middle" x="464" y="-303.5" font-family="Helvetica,sans-Serif" font-size="10.00">_arg_t&lt; T, Policies &gt;</text>
</a>
</g>
</g>
<!-- Node4&#45;&gt;Node5 -->
<g id="edge5" class="edge">
<title>Node4&#45;&gt;Node5</title>
<path fill="none" stroke="midnightblue" d="M339.19,-311.5C360.18,-311.5 382.98,-311.5 403.23,-311.5"/>
<polygon fill="midnightblue" stroke="midnightblue" points="339.05,-308 329.05,-311.5 339.05,-315 339.05,-308"/>
</g>
<!-- Node7 -->
<g id="node8" class="node">
<title>Node7</title>
<g id="a_node8"><a xlink:href="classarg__router_1_1flag__t.html" target="_top" xlink:title=" ">
<polygon fill="white" stroke="black" points="414,-230.5 414,-260.5 514,-260.5 514,-230.5 414,-230.5"/>
<text text-anchor="start" x="422" y="-248.5" font-family="Helvetica,sans-Serif" font-size="10.00">arg_router::flag_t</text>
<text text-anchor="middle" x="464" y="-237.5" font-family="Helvetica,sans-Serif" font-size="10.00">&lt; Policies &gt;</text>
</a>
</g>
</g>
<!-- Node6&#45;&gt;Node7 -->
<g id="edge7" class="edge">
<title>Node6&#45;&gt;Node7</title>
<path fill="none" stroke="midnightblue" d="M354.76,-245.5C375.01,-245.5 395.94,-245.5 413.92,-245.5"/>
<polygon fill="midnightblue" stroke="midnightblue" points="354.56,-242 344.56,-245.5 354.56,-249 354.56,-242"/>
</g>
<!-- Node9 -->
<g id="node10" class="node">
<title>Node9</title>
<g id="a_node10"><a xlink:href="classarg__router_1_1dependency_1_1one__of__t.html" target="_top" xlink:title=" ">
<polygon fill="white" stroke="black" points="398,-148.5 398,-178.5 530,-178.5 530,-148.5 398,-148.5"/>
<text text-anchor="start" x="406" y="-166.5" font-family="Helvetica,sans-Serif" font-size="10.00">arg_router::dependency</text>
<text text-anchor="middle" x="464" y="-155.5" font-family="Helvetica,sans-Serif" font-size="10.00">::one_of_t&lt; Params &gt;</text>
</a>
</g>
</g>
<!-- Node8&#45;&gt;Node9 -->
<g id="edge9" class="edge">
<title>Node8&#45;&gt;Node9</title>
<path fill="none" stroke="midnightblue" d="M372.28,-163.5C381.01,-163.5 389.67,-163.5 397.97,-163.5"/>
<polygon fill="midnightblue" stroke="midnightblue" points="372.02,-160 362.02,-163.5 372.02,-167 372.02,-160"/>
</g>
<!-- Node11 -->
<g id="node12" class="node">
<title>Node11</title>
<g id="a_node12"><a xlink:href="classarg__router_1_1mode__t.html" target="_top" xlink:title=" ">
<polygon fill="white" stroke="black" points="409,-77.5 409,-107.5 519,-107.5 519,-77.5 409,-77.5"/>
<text text-anchor="start" x="417" y="-95.5" font-family="Helvetica,sans-Serif" font-size="10.00">arg_router::mode_t</text>
<text text-anchor="middle" x="464" y="-84.5" font-family="Helvetica,sans-Serif" font-size="10.00">&lt; Params &gt;</text>
</a>
</g>
</g>
<!-- Node10&#45;&gt;Node11 -->
<g id="edge11" class="edge">
<title>Node10&#45;&gt;Node11</title>
<path fill="none" stroke="midnightblue" d="M348.39,-92.5C368.69,-92.5 390.04,-92.5 408.75,-92.5"/>
<polygon fill="midnightblue" stroke="midnightblue" points="348.22,-89 338.22,-92.5 348.22,-96 348.22,-89"/>
</g>
<!-- Node13 -->
<g id="node14" class="node">
<title>Node13</title>
<g id="a_node14"><a xlink:href="classarg__router_1_1arg__t.html" target="_top" xlink:title=" ">
<polygon fill="white" stroke="black" points="411,-11.5 411,-41.5 517,-41.5 517,-11.5 411,-11.5"/>
<text text-anchor="start" x="419" y="-29.5" font-family="Helvetica,sans-Serif" font-size="10.00">arg_router::arg_t&lt;</text>
<text text-anchor="middle" x="464" y="-18.5" font-family="Helvetica,sans-Serif" font-size="10.00"> T, Policies &gt;</text>
</a>
</g>
</g>
<!-- Node12&#45;&gt;Node13 -->
<g id="edge13" class="edge">
<title>Node12&#45;&gt;Node13</title>
<path fill="none" stroke="midnightblue" d="M348.44,-26.5C369.5,-26.5 391.7,-26.5 410.89,-26.5"/>
<polygon fill="midnightblue" stroke="midnightblue" points="348.22,-23 338.22,-26.5 348.22,-30 348.22,-23"/>
</g>
</g>
</svg>
