<?xml version="1.0" encoding="UTF-8" standalone="no"?>
<!DOCTYPE svg PUBLIC "-//W3C//DTD SVG 1.1//EN"
 "http://www.w3.org/Graphics/SVG/1.1/DTD/svg11.dtd">
<!-- Generated by graphviz version 2.43.0 (0)
 -->
<!-- Title: Graphical Class Hierarchy Pages: 1 -->
<svg width="499pt" height="137pt"
 viewBox="0.00 0.00 499.00 137.00" xmlns="http://www.w3.org/2000/svg" xmlns:xlink="http://www.w3.org/1999/xlink">
<g id="graph0" class="graph" transform="scale(1 1) rotate(0) translate(4 133)">
<title>Graphical Class Hierarchy</title>
<polygon fill="white" stroke="transparent" points="-4,4 -4,-133 495,-133 495,4 -4,4"/>
<!-- Node0 -->
<g id="node1" class="node">
<title>Node0</title>
<g id="a_node1"><a xlink:href="classarg__router_1_1traits_1_1unpack__and__derive.html" target="_top" xlink:title=" ">
<polygon fill="white" stroke="black" points="0,-33 0,-96 138,-96 138,-33 0,-33"/>
<text text-anchor="start" x="8" y="-84" font-family="Helvetica,sans-Serif" font-size="10.00">arg_router::traits</text>
<text text-anchor="start" x="8" y="-73" font-family="Helvetica,sans-Serif" font-size="10.00">::unpack_and_derive</text>
<text text-anchor="start" x="8" y="-62" font-family="Helvetica,sans-Serif" font-size="10.00">&lt; boost::mp11::mp_filter</text>
<text text-anchor="start" x="8" y="-51" font-family="Helvetica,sans-Serif" font-size="10.00">&lt; policy::is_policy, std</text>
<text text-anchor="middle" x="69" y="-40" font-family="Helvetica,sans-Serif" font-size="10.00">::tuple&lt; Params... &gt; &gt; &gt;</text>
</a>
</g>
</g>
<!-- Node1 -->
<g id="node2" class="node">
<title>Node1</title>
<g id="a_node2"><a xlink:href="classarg__router_1_1tree__node.html" target="_top" xlink:title=" ">
<polygon fill="white" stroke="black" points="174,-98.5 174,-128.5 296,-128.5 296,-98.5 174,-98.5"/>
<text text-anchor="start" x="182" y="-116.5" font-family="Helvetica,sans-Serif" font-size="10.00">arg_router::tree_node</text>
<text text-anchor="middle" x="235" y="-105.5" font-family="Helvetica,sans-Serif" font-size="10.00">&lt; Params &gt;</text>
</a>
</g>
</g>
<!-- Node0&#45;&gt;Node1 -->
<g id="edge1" class="edge">
<title>Node0&#45;&gt;Node1</title>
<path fill="none" stroke="midnightblue" d="M147.77,-87.74C159.86,-91.35 172.06,-94.99 183.34,-98.36"/>
<polygon fill="midnightblue" stroke="midnightblue" points="148.71,-84.36 138.13,-84.85 146.71,-91.07 148.71,-84.36"/>
</g>
<!-- Node2 -->
<g id="node3" class="node">
<title>Node2</title>
<g id="a_node3"><a xlink:href="classarg__router_1_1tree__node.html" target="_top" xlink:title=" ">
<polygon fill="white" stroke="black" points="174,-49.5 174,-79.5 296,-79.5 296,-49.5 174,-49.5"/>
<text text-anchor="start" x="182" y="-67.5" font-family="Helvetica,sans-Serif" font-size="10.00">arg_router::tree_node</text>
<text text-anchor="middle" x="235" y="-56.5" font-family="Helvetica,sans-Serif" font-size="10.00">&lt; Params... &gt;</text>
</a>
</g>
</g>
<!-- Node0&#45;&gt;Node2 -->
<g id="edge2" class="edge">
<title>Node0&#45;&gt;Node2</title>
<path fill="none" stroke="midnightblue" d="M148.22,-64.5C156.86,-64.5 165.56,-64.5 173.93,-64.5"/>
<polygon fill="midnightblue" stroke="midnightblue" points="148.13,-61 138.13,-64.5 148.13,-68 148.13,-61"/>
</g>
<!-- Node5 -->
<g id="node6" class="node">
<title>Node5</title>
<g id="a_node6"><a xlink:href="classarg__router_1_1tree__node.html" target="_top" xlink:title=" ">
<polygon fill="white" stroke="black" points="174,-0.5 174,-30.5 296,-30.5 296,-0.5 174,-0.5"/>
<text text-anchor="start" x="182" y="-18.5" font-family="Helvetica,sans-Serif" font-size="10.00">arg_router::tree_node</text>
<text text-anchor="middle" x="235" y="-7.5" font-family="Helvetica,sans-Serif" font-size="10.00">&lt; Policies... &gt;</text>
</a>
</g>
</g>
<!-- Node0&#45;&gt;Node5 -->
<g id="edge5" class="edge">
<title>Node0&#45;&gt;Node5</title>
<path fill="none" stroke="midnightblue" d="M147.77,-41.26C159.86,-37.65 172.06,-34.01 183.34,-30.64"/>
<polygon fill="midnightblue" stroke="midnightblue" points="146.71,-37.93 138.13,-44.15 148.71,-44.64 146.71,-37.93"/>
</g>
<!-- Node3 -->
<g id="node4" class="node">
<title>Node3</title>
<g id="a_node4"><a xlink:href="classarg__router_1_1mode.html" target="_top" xlink:title=" ">
<polygon fill="white" stroke="black" points="332,-87 332,-106 491,-106 491,-87 332,-87"/>
<text text-anchor="middle" x="411.5" y="-94" font-family="Helvetica,sans-Serif" font-size="10.00">arg_router::mode&lt; Params &gt;</text>
</a>
</g>
</g>
<!-- Node2&#45;&gt;Node3 -->
<g id="edge3" class="edge">
<title>Node2&#45;&gt;Node3</title>
<path fill="none" stroke="midnightblue" d="M306.2,-77.37C323.67,-80.58 342.08,-83.95 358.49,-86.96"/>
<polygon fill="midnightblue" stroke="midnightblue" points="306.52,-73.87 296.05,-75.51 305.26,-80.76 306.52,-73.87"/>
</g>
<!-- Node4 -->
<g id="node5" class="node">
<title>Node4</title>
<g id="a_node5"><a xlink:href="classarg__router_1_1root.html" target="_top" xlink:title=" ">
<polygon fill="white" stroke="black" points="336,-49 336,-68 487,-68 487,-49 336,-49"/>
<text text-anchor="middle" x="411.5" y="-56" font-family="Helvetica,sans-Serif" font-size="10.00">arg_router::root&lt; Params &gt;</text>
</a>
</g>
</g>
<!-- Node2&#45;&gt;Node4 -->
<g id="edge4" class="edge">
<title>Node2&#45;&gt;Node4</title>
<path fill="none" stroke="midnightblue" d="M306.12,-62.09C315.9,-61.75 325.98,-61.41 335.84,-61.07"/>
<polygon fill="midnightblue" stroke="midnightblue" points="305.93,-58.59 296.05,-62.44 306.17,-65.59 305.93,-58.59"/>
</g>
<!-- Node6 -->
<g id="node7" class="node">
<title>Node6</title>
<g id="a_node7"><a xlink:href="classarg__router_1_1flag.html" target="_top" xlink:title=" ">
<polygon fill="white" stroke="black" points="336,-6 336,-25 487,-25 487,-6 336,-6"/>
<text text-anchor="middle" x="411.5" y="-13" font-family="Helvetica,sans-Serif" font-size="10.00">arg_router::flag&lt; Policies &gt;</text>
</a>
</g>
</g>
<!-- Node5&#45;&gt;Node6 -->
<g id="edge6" class="edge">
<title>Node5&#45;&gt;Node6</title>
<path fill="none" stroke="midnightblue" d="M306.12,-15.5C315.9,-15.5 325.98,-15.5 335.84,-15.5"/>
<polygon fill="midnightblue" stroke="midnightblue" points="306.05,-12 296.05,-15.5 306.05,-19 306.05,-12"/>
</g>
</g>
</svg>
