<?xml version="1.0" encoding="UTF-8" standalone="no"?>
<!DOCTYPE svg PUBLIC "-//W3C//DTD SVG 1.1//EN"
 "http://www.w3.org/Graphics/SVG/1.1/DTD/svg11.dtd">
<!-- Generated by graphviz version 2.43.0 (0)
 -->
<!-- Title: Graphical Class Hierarchy Pages: 1 -->
<svg width="538pt" height="433pt"
 viewBox="0.00 0.00 538.00 432.50" xmlns="http://www.w3.org/2000/svg" xmlns:xlink="http://www.w3.org/1999/xlink">
<g id="graph0" class="graph" transform="scale(1 1) rotate(0) translate(4 428.5)">
<title>Graphical Class Hierarchy</title>
<polygon fill="white" stroke="transparent" points="-4,4 -4,-428.5 534,-428.5 534,4 -4,4"/>
<!-- Node0 -->
<g id="node1" class="node">
<title>Node0</title>
<g id="a_node1"><a xlink:href="classarg__router_1_1traits_1_1unpack__and__derive.html" target="_top" xlink:title=" ">
<polygon fill="white" stroke="black" points="0,-219.5 0,-282.5 138,-282.5 138,-219.5 0,-219.5"/>
<text text-anchor="start" x="8" y="-270.5" font-family="Helvetica,sans-Serif" font-size="10.00">arg_router::traits</text>
<text text-anchor="start" x="8" y="-259.5" font-family="Helvetica,sans-Serif" font-size="10.00">::unpack_and_derive</text>
<text text-anchor="start" x="8" y="-248.5" font-family="Helvetica,sans-Serif" font-size="10.00">&lt; boost::mp11::mp_filter</text>
<text text-anchor="start" x="8" y="-237.5" font-family="Helvetica,sans-Serif" font-size="10.00">&lt; policy::is_policy, std</text>
<text text-anchor="middle" x="69" y="-226.5" font-family="Helvetica,sans-Serif" font-size="10.00">::tuple&lt; Params... &gt; &gt; &gt;</text>
</a>
</g>
</g>
<!-- Node1 -->
<g id="node2" class="node">
<title>Node1</title>
<g id="a_node2"><a xlink:href="classarg__router_1_1tree__node.html" target="_top" xlink:title=" ">
<polygon fill="white" stroke="black" points="207,-394 207,-424 329,-424 329,-394 207,-394"/>
<text text-anchor="start" x="215" y="-412" font-family="Helvetica,sans-Serif" font-size="10.00">arg_router::tree_node</text>
<text text-anchor="middle" x="268" y="-401" font-family="Helvetica,sans-Serif" font-size="10.00">&lt; Params &gt;</text>
</a>
</g>
</g>
<!-- Node0&#45;&gt;Node1 -->
<g id="edge1" class="edge">
<title>Node0&#45;&gt;Node1</title>
<path fill="none" stroke="midnightblue" d="M91.75,-291.78C109.87,-321.92 138.43,-361.61 174,-385 183.89,-391.5 195.45,-396.25 206.99,-399.71"/>
<polygon fill="midnightblue" stroke="midnightblue" points="94.54,-289.62 86.46,-282.77 88.5,-293.16 94.54,-289.62"/>
</g>
<!-- Node2 -->
<g id="node3" class="node">
<title>Node2</title>
<g id="a_node3"><a xlink:href="classarg__router_1_1tree__node.html" target="_top" xlink:title=" ">
<polygon fill="white" stroke="black" points="207,-345 207,-375 329,-375 329,-345 207,-345"/>
<text text-anchor="start" x="215" y="-363" font-family="Helvetica,sans-Serif" font-size="10.00">arg_router::tree_node</text>
<text text-anchor="middle" x="268" y="-352" font-family="Helvetica,sans-Serif" font-size="10.00">&lt; Params... &gt;</text>
</a>
</g>
</g>
<!-- Node0&#45;&gt;Node2 -->
<g id="edge2" class="edge">
<title>Node0&#45;&gt;Node2</title>
<path fill="none" stroke="midnightblue" d="M108.73,-289.46C127.17,-305.9 150.34,-324.01 174,-336 184.12,-341.12 195.42,-345.22 206.56,-348.47"/>
<polygon fill="midnightblue" stroke="midnightblue" points="110.88,-286.69 101.13,-282.55 106.17,-291.87 110.88,-286.69"/>
</g>
<!-- Node4 -->
<g id="node5" class="node">
<title>Node4</title>
<g id="a_node5"><a xlink:href="classarg__router_1_1tree__node.html" target="_top" xlink:title=" ">
<polygon fill="white" stroke="black" points="207,-296 207,-326 329,-326 329,-296 207,-296"/>
<text text-anchor="start" x="215" y="-314" font-family="Helvetica,sans-Serif" font-size="10.00">arg_router::tree_node</text>
<text text-anchor="middle" x="268" y="-303" font-family="Helvetica,sans-Serif" font-size="10.00">&lt; Policies... &gt;</text>
</a>
</g>
</g>
<!-- Node0&#45;&gt;Node4 -->
<g id="edge4" class="edge">
<title>Node0&#45;&gt;Node4</title>
<path fill="none" stroke="midnightblue" d="M147.79,-278.69C156.6,-281.6 165.47,-284.43 174,-287 184.54,-290.18 195.82,-293.31 206.77,-296.21"/>
<polygon fill="midnightblue" stroke="midnightblue" points="148.87,-275.36 138.27,-275.51 146.65,-282 148.87,-275.36"/>
</g>
<!-- Node6 -->
<g id="node7" class="node">
<title>Node6</title>
<g id="a_node7"><a xlink:href="classarg__router_1_1tree__node.html" target="_top" xlink:title=" ">
<polygon fill="white" stroke="black" points="193.5,-225 193.5,-277 342.5,-277 342.5,-225 193.5,-225"/>
<text text-anchor="start" x="201.5" y="-265" font-family="Helvetica,sans-Serif" font-size="10.00">arg_router::tree_node</text>
<text text-anchor="start" x="201.5" y="-254" font-family="Helvetica,sans-Serif" font-size="10.00">&lt; policy::count_t&lt; std</text>
<text text-anchor="start" x="201.5" y="-243" font-family="Helvetica,sans-Serif" font-size="10.00">::integral_constant&lt; std</text>
<text text-anchor="middle" x="268" y="-232" font-family="Helvetica,sans-Serif" font-size="10.00">::size_t, 1 &gt; &gt;, Policies... &gt;</text>
</a>
</g>
</g>
<!-- Node0&#45;&gt;Node6 -->
<g id="edge6" class="edge">
<title>Node0&#45;&gt;Node6</title>
<path fill="none" stroke="midnightblue" d="M148.22,-251C163.05,-251 178.52,-251 193.21,-251"/>
<polygon fill="midnightblue" stroke="midnightblue" points="148.07,-247.5 138.07,-251 148.07,-254.5 148.07,-247.5"/>
</g>
<!-- Node8 -->
<g id="node9" class="node">
<title>Node8</title>
<g id="a_node9"><a xlink:href="classarg__router_1_1tree__node.html" target="_top" xlink:title=" ">
<polygon fill="white" stroke="black" points="180,-142.5 180,-205.5 356,-205.5 356,-142.5 180,-142.5"/>
<text text-anchor="start" x="188" y="-193.5" font-family="Helvetica,sans-Serif" font-size="10.00">arg_router::tree_node</text>
<text text-anchor="start" x="188" y="-182.5" font-family="Helvetica,sans-Serif" font-size="10.00">&lt; policy::default_value</text>
<text text-anchor="start" x="188" y="-171.5" font-family="Helvetica,sans-Serif" font-size="10.00">&lt; bool &gt;, policy::count</text>
<text text-anchor="start" x="188" y="-160.5" font-family="Helvetica,sans-Serif" font-size="10.00">_t&lt; std::integral_constant</text>
<text text-anchor="middle" x="268" y="-149.5" font-family="Helvetica,sans-Serif" font-size="10.00">&lt; std::size_t, 0 &gt; &gt;, Policies... &gt;</text>
</a>
</g>
</g>
<!-- Node0&#45;&gt;Node8 -->
<g id="edge8" class="edge">
<title>Node0&#45;&gt;Node8</title>
<path fill="none" stroke="midnightblue" d="M147.68,-220.64C160.4,-215.67 173.6,-210.51 186.38,-205.51"/>
<polygon fill="midnightblue" stroke="midnightblue" points="146.11,-217.49 138.07,-224.39 148.66,-224.01 146.11,-217.49"/>
</g>
<!-- Node10 -->
<g id="node11" class="node">
<title>Node10</title>
<g id="a_node11"><a xlink:href="classarg__router_1_1tree__node.html" target="_top" xlink:title=" ">
<polygon fill="white" stroke="black" points="174,-60.5 174,-123.5 362,-123.5 362,-60.5 174,-60.5"/>
<text text-anchor="start" x="182" y="-111.5" font-family="Helvetica,sans-Serif" font-size="10.00">arg_router::tree_node</text>
<text text-anchor="start" x="182" y="-100.5" font-family="Helvetica,sans-Serif" font-size="10.00">&lt; policy::display_name</text>
<text text-anchor="start" x="182" y="-89.5" font-family="Helvetica,sans-Serif" font-size="10.00">_t&lt; detail::one_of_generate</text>
<text text-anchor="start" x="182" y="-78.5" font-family="Helvetica,sans-Serif" font-size="10.00">_string_of_child_names&lt; Params...</text>
<text text-anchor="middle" x="268" y="-67.5" font-family="Helvetica,sans-Serif" font-size="10.00"> &gt;::type &gt;, Params... &gt;</text>
</a>
</g>
</g>
<!-- Node0&#45;&gt;Node10 -->
<g id="edge10" class="edge">
<title>Node0&#45;&gt;Node10</title>
<path fill="none" stroke="midnightblue" d="M98.09,-211.05C117.23,-186.08 144.4,-154.66 174,-133 178.56,-129.67 183.43,-126.52 188.46,-123.58"/>
<polygon fill="midnightblue" stroke="midnightblue" points="95.14,-209.15 91.92,-219.24 100.73,-213.36 95.14,-209.15"/>
</g>
<!-- Node12 -->
<g id="node13" class="node">
<title>Node12</title>
<g id="a_node13"><a xlink:href="classarg__router_1_1tree__node.html" target="_top" xlink:title=" ">
<polygon fill="white" stroke="black" points="198,-0.5 198,-41.5 338,-41.5 338,-0.5 198,-0.5"/>
<text text-anchor="start" x="206" y="-29.5" font-family="Helvetica,sans-Serif" font-size="10.00">arg_router::tree_node</text>
<text text-anchor="start" x="206" y="-18.5" font-family="Helvetica,sans-Serif" font-size="10.00">&lt; policy::no_result_value</text>
<text text-anchor="middle" x="268" y="-7.5" font-family="Helvetica,sans-Serif" font-size="10.00">&lt;&gt;, Params... &gt;</text>
</a>
</g>
</g>
<!-- Node0&#45;&gt;Node12 -->
<g id="edge12" class="edge">
<title>Node0&#45;&gt;Node12</title>
<path fill="none" stroke="midnightblue" d="M81.26,-209.35C95.56,-164.13 124.53,-92.8 174,-51 181,-45.09 189.18,-40.33 197.74,-36.51"/>
<polygon fill="midnightblue" stroke="midnightblue" points="77.84,-208.55 78.26,-219.14 84.54,-210.6 77.84,-208.55"/>
</g>
<!-- Node3 -->
<g id="node4" class="node">
<title>Node3</title>
<g id="a_node4"><a xlink:href="classarg__router_1_1root__t.html" target="_top" xlink:title=" ">
<polygon fill="white" stroke="black" points="413.5,-345 413.5,-375 514.5,-375 514.5,-345 413.5,-345"/>
<text text-anchor="start" x="421.5" y="-363" font-family="Helvetica,sans-Serif" font-size="10.00">arg_router::root_t</text>
<text text-anchor="middle" x="464" y="-352" font-family="Helvetica,sans-Serif" font-size="10.00">&lt; Params &gt;</text>
</a>
</g>
</g>
<!-- Node2&#45;&gt;Node3 -->
<g id="edge3" class="edge">
<title>Node2&#45;&gt;Node3</title>
<path fill="none" stroke="midnightblue" d="M339.06,-360C363.65,-360 390.75,-360 413.32,-360"/>
<polygon fill="midnightblue" stroke="midnightblue" points="339.05,-356.5 329.05,-360 339.05,-363.5 339.05,-356.5"/>
</g>
<!-- Node5 -->
<g id="node6" class="node">
<title>Node5</title>
<g id="a_node6"><a xlink:href="classarg__router_1_1positional__arg__t.html" target="_top" xlink:title=" ">
<polygon fill="white" stroke="black" points="403.5,-296 403.5,-326 524.5,-326 524.5,-296 403.5,-296"/>
<text text-anchor="start" x="411.5" y="-314" font-family="Helvetica,sans-Serif" font-size="10.00">arg_router::positional</text>
<text text-anchor="middle" x="464" y="-303" font-family="Helvetica,sans-Serif" font-size="10.00">_arg_t&lt; T, Policies &gt;</text>
</a>
</g>
</g>
<!-- Node4&#45;&gt;Node5 -->
<g id="edge5" class="edge">
<title>Node4&#45;&gt;Node5</title>
<path fill="none" stroke="midnightblue" d="M339.19,-311C360.18,-311 382.98,-311 403.23,-311"/>
<polygon fill="midnightblue" stroke="midnightblue" points="339.05,-307.5 329.05,-311 339.05,-314.5 339.05,-307.5"/>
</g>
<!-- Node7 -->
<g id="node8" class="node">
<title>Node7</title>
<g id="a_node8"><a xlink:href="classarg__router_1_1arg__t.html" target="_top" xlink:title=" ">
<polygon fill="white" stroke="black" points="411,-236 411,-266 517,-266 517,-236 411,-236"/>
<text text-anchor="start" x="419" y="-254" font-family="Helvetica,sans-Serif" font-size="10.00">arg_router::arg_t&lt;</text>
<text text-anchor="middle" x="464" y="-243" font-family="Helvetica,sans-Serif" font-size="10.00"> T, Policies &gt;</text>
</a>
</g>
</g>
<!-- Node6&#45;&gt;Node7 -->
<g id="edge7" class="edge">
<title>Node6&#45;&gt;Node7</title>
<path fill="none" stroke="midnightblue" d="M352.84,-251C372.55,-251 393,-251 410.85,-251"/>
<polygon fill="midnightblue" stroke="midnightblue" points="352.62,-247.5 342.62,-251 352.62,-254.5 352.62,-247.5"/>
</g>
<!-- Node9 -->
<g id="node10" class="node">
<title>Node9</title>
<g id="a_node10"><a xlink:href="classarg__router_1_1flag__t.html" target="_top" xlink:title=" ">
<polygon fill="white" stroke="black" points="414,-159 414,-189 514,-189 514,-159 414,-159"/>
<text text-anchor="start" x="422" y="-177" font-family="Helvetica,sans-Serif" font-size="10.00">arg_router::flag_t</text>
<text text-anchor="middle" x="464" y="-166" font-family="Helvetica,sans-Serif" font-size="10.00">&lt; Policies &gt;</text>
</a>
</g>
</g>
<!-- Node8&#45;&gt;Node9 -->
<g id="edge9" class="edge">
<title>Node8&#45;&gt;Node9</title>
<path fill="none" stroke="midnightblue" d="M366.33,-174C382.84,-174 399.34,-174 413.91,-174"/>
<polygon fill="midnightblue" stroke="midnightblue" points="366.07,-170.5 356.07,-174 366.07,-177.5 366.07,-170.5"/>
</g>
<!-- Node11 -->
<g id="node12" class="node">
<title>Node11</title>
<g id="a_node12"><a xlink:href="classarg__router_1_1dependency_1_1one__of__t.html" target="_top" xlink:title=" ">
<polygon fill="white" stroke="black" points="398,-77 398,-107 530,-107 530,-77 398,-77"/>
<text text-anchor="start" x="406" y="-95" font-family="Helvetica,sans-Serif" font-size="10.00">arg_router::dependency</text>
<text text-anchor="middle" x="464" y="-84" font-family="Helvetica,sans-Serif" font-size="10.00">::one_of_t&lt; Params &gt;</text>
</a>
</g>
</g>
<!-- Node10&#45;&gt;Node11 -->
<g id="edge11" class="edge">
<title>Node10&#45;&gt;Node11</title>
<path fill="none" stroke="midnightblue" d="M372.28,-92C381.01,-92 389.67,-92 397.97,-92"/>
<polygon fill="midnightblue" stroke="midnightblue" points="372.02,-88.5 362.02,-92 372.02,-95.5 372.02,-88.5"/>
</g>
<!-- Node13 -->
<g id="node14" class="node">
<title>Node13</title>
<g id="a_node14"><a xlink:href="classarg__router_1_1mode__t.html" target="_top" xlink:title=" ">
<polygon fill="white" stroke="black" points="409,-6 409,-36 519,-36 519,-6 409,-6"/>
<text text-anchor="start" x="417" y="-24" font-family="Helvetica,sans-Serif" font-size="10.00">arg_router::mode_t</text>
<text text-anchor="middle" x="464" y="-13" font-family="Helvetica,sans-Serif" font-size="10.00">&lt; Params &gt;</text>
</a>
</g>
</g>
<!-- Node12&#45;&gt;Node13 -->
<g id="edge13" class="edge">
<title>Node12&#45;&gt;Node13</title>
<path fill="none" stroke="midnightblue" d="M348.39,-21C368.69,-21 390.04,-21 408.75,-21"/>
<polygon fill="midnightblue" stroke="midnightblue" points="348.22,-17.5 338.22,-21 348.22,-24.5 348.22,-17.5"/>
</g>
</g>
</svg>
