<?xml version="1.0" encoding="UTF-8" standalone="no"?>
<!DOCTYPE svg PUBLIC "-//W3C//DTD SVG 1.1//EN"
 "http://www.w3.org/Graphics/SVG/1.1/DTD/svg11.dtd">
<!-- Generated by graphviz version 2.43.0 (0)
 -->
<!-- Title: Graphical Class Hierarchy Pages: 1 -->
<svg width="538pt" height="531pt"
 viewBox="0.00 0.00 538.00 531.00" xmlns="http://www.w3.org/2000/svg" xmlns:xlink="http://www.w3.org/1999/xlink">
<g id="graph0" class="graph" transform="scale(1 1) rotate(0) translate(4 527)">
<title>Graphical Class Hierarchy</title>
<polygon fill="white" stroke="transparent" points="-4,4 -4,-527 534,-527 534,4 -4,4"/>
<!-- Node0 -->
<g id="node1" class="node">
<title>Node0</title>
<g id="a_node1"><a xlink:href="classarg__router_1_1traits_1_1unpack__and__derive.html" target="_top" xlink:title=" ">
<polygon fill="white" stroke="black" points="0,-252 0,-315 138,-315 138,-252 0,-252"/>
<text text-anchor="start" x="8" y="-303" font-family="Helvetica,sans-Serif" font-size="10.00">arg_router::traits</text>
<text text-anchor="start" x="8" y="-292" font-family="Helvetica,sans-Serif" font-size="10.00">::unpack_and_derive</text>
<text text-anchor="start" x="8" y="-281" font-family="Helvetica,sans-Serif" font-size="10.00">&lt; boost::mp11::mp_filter</text>
<text text-anchor="start" x="8" y="-270" font-family="Helvetica,sans-Serif" font-size="10.00">&lt; policy::is_policy, std</text>
<text text-anchor="middle" x="69" y="-259" font-family="Helvetica,sans-Serif" font-size="10.00">::tuple&lt; Params... &gt; &gt; &gt;</text>
</a>
</g>
</g>
<!-- Node1 -->
<g id="node2" class="node">
<title>Node1</title>
<g id="a_node2"><a xlink:href="classarg__router_1_1tree__node.html" target="_top" xlink:title=" ">
<polygon fill="white" stroke="black" points="207,-492.5 207,-522.5 329,-522.5 329,-492.5 207,-492.5"/>
<text text-anchor="start" x="215" y="-510.5" font-family="Helvetica,sans-Serif" font-size="10.00">arg_router::tree_node</text>
<text text-anchor="middle" x="268" y="-499.5" font-family="Helvetica,sans-Serif" font-size="10.00">&lt; Params &gt;</text>
</a>
</g>
</g>
<!-- Node0&#45;&gt;Node1 -->
<g id="edge1" class="edge">
<title>Node0&#45;&gt;Node1</title>
<path fill="none" stroke="midnightblue" d="M80.57,-324.94C94.38,-370.61 123.03,-442.96 174,-483.5 183.53,-491.08 195.18,-496.28 206.98,-499.86"/>
<polygon fill="midnightblue" stroke="midnightblue" points="83.85,-323.68 77.69,-315.06 77.13,-325.64 83.85,-323.68"/>
</g>
<!-- Node2 -->
<g id="node3" class="node">
<title>Node2</title>
<g id="a_node3"><a xlink:href="classarg__router_1_1tree__node.html" target="_top" xlink:title=" ">
<polygon fill="white" stroke="black" points="207,-443.5 207,-473.5 329,-473.5 329,-443.5 207,-443.5"/>
<text text-anchor="start" x="215" y="-461.5" font-family="Helvetica,sans-Serif" font-size="10.00">arg_router::tree_node</text>
<text text-anchor="middle" x="268" y="-450.5" font-family="Helvetica,sans-Serif" font-size="10.00">&lt; Params... &gt;</text>
</a>
</g>
</g>
<!-- Node0&#45;&gt;Node2 -->
<g id="edge2" class="edge">
<title>Node0&#45;&gt;Node2</title>
<path fill="none" stroke="midnightblue" d="M88,-324.47C105.22,-358.91 134.41,-406.83 174,-434.5 183.7,-441.28 195.18,-446.15 206.69,-449.64"/>
<polygon fill="midnightblue" stroke="midnightblue" points="90.99,-322.6 83.47,-315.14 84.69,-325.66 90.99,-322.6"/>
</g>
<!-- Node4 -->
<g id="node5" class="node">
<title>Node4</title>
<g id="a_node5"><a xlink:href="classarg__router_1_1tree__node.html" target="_top" xlink:title=" ">
<polygon fill="white" stroke="black" points="207,-394.5 207,-424.5 329,-424.5 329,-394.5 207,-394.5"/>
<text text-anchor="start" x="215" y="-412.5" font-family="Helvetica,sans-Serif" font-size="10.00">arg_router::tree_node</text>
<text text-anchor="middle" x="268" y="-401.5" font-family="Helvetica,sans-Serif" font-size="10.00">&lt; Policies... &gt;</text>
</a>
</g>
</g>
<!-- Node0&#45;&gt;Node4 -->
<g id="edge4" class="edge">
<title>Node0&#45;&gt;Node4</title>
<path fill="none" stroke="midnightblue" d="M101.68,-322.83C120.61,-343.94 146.32,-368.78 174,-384.5 184.03,-390.2 195.41,-394.64 206.68,-398.09"/>
<polygon fill="midnightblue" stroke="midnightblue" points="104.24,-320.45 95.02,-315.24 98.99,-325.07 104.24,-320.45"/>
</g>
<!-- Node6 -->
<g id="node7" class="node">
<title>Node6</title>
<g id="a_node7"><a xlink:href="classarg__router_1_1tree__node.html" target="_top" xlink:title=" ">
<polygon fill="white" stroke="black" points="203.5,-334 203.5,-375 332.5,-375 332.5,-334 203.5,-334"/>
<text text-anchor="start" x="211.5" y="-363" font-family="Helvetica,sans-Serif" font-size="10.00">arg_router::tree_node</text>
<text text-anchor="start" x="211.5" y="-352" font-family="Helvetica,sans-Serif" font-size="10.00">&lt; policy::default_value</text>
<text text-anchor="middle" x="268" y="-341" font-family="Helvetica,sans-Serif" font-size="10.00">&lt; bool &gt;, Policies... &gt;</text>
</a>
</g>
</g>
<!-- Node0&#45;&gt;Node6 -->
<g id="edge6" class="edge">
<title>Node0&#45;&gt;Node6</title>
<path fill="none" stroke="midnightblue" d="M147.6,-314.71C156.47,-318.1 165.41,-321.43 174,-324.5 183.42,-327.87 193.44,-331.29 203.28,-334.54"/>
<polygon fill="midnightblue" stroke="midnightblue" points="148.61,-311.35 138.02,-311.03 146.09,-317.89 148.61,-311.35"/>
</g>
<!-- Node8 -->
<g id="node9" class="node">
<title>Node8</title>
<g id="a_node9"><a xlink:href="classarg__router_1_1tree__node.html" target="_top" xlink:title=" ">
<polygon fill="white" stroke="black" points="174,-252 174,-315 362,-315 362,-252 174,-252"/>
<text text-anchor="start" x="182" y="-303" font-family="Helvetica,sans-Serif" font-size="10.00">arg_router::tree_node</text>
<text text-anchor="start" x="182" y="-292" font-family="Helvetica,sans-Serif" font-size="10.00">&lt; policy::display_name</text>
<text text-anchor="start" x="182" y="-281" font-family="Helvetica,sans-Serif" font-size="10.00">_t&lt; detail::one_of_generate</text>
<text text-anchor="start" x="182" y="-270" font-family="Helvetica,sans-Serif" font-size="10.00">_string_of_child_names&lt; Params...</text>
<text text-anchor="middle" x="268" y="-259" font-family="Helvetica,sans-Serif" font-size="10.00"> &gt;::type &gt;, Params... &gt;</text>
</a>
</g>
</g>
<!-- Node0&#45;&gt;Node8 -->
<g id="edge8" class="edge">
<title>Node0&#45;&gt;Node8</title>
<path fill="none" stroke="midnightblue" d="M148.24,-283.5C156.67,-283.5 165.32,-283.5 173.9,-283.5"/>
<polygon fill="midnightblue" stroke="midnightblue" points="148.07,-280 138.07,-283.5 148.07,-287 148.07,-280"/>
</g>
<!-- Node10 -->
<g id="node11" class="node">
<title>Node10</title>
<g id="a_node11"><a xlink:href="classarg__router_1_1tree__node.html" target="_top" xlink:title=" ">
<polygon fill="white" stroke="black" points="184,-192 184,-233 352,-233 352,-192 184,-192"/>
<text text-anchor="start" x="192" y="-221" font-family="Helvetica,sans-Serif" font-size="10.00">arg_router::tree_node</text>
<text text-anchor="start" x="192" y="-210" font-family="Helvetica,sans-Serif" font-size="10.00">&lt; policy::multi_stage</text>
<text text-anchor="middle" x="268" y="-199" font-family="Helvetica,sans-Serif" font-size="10.00">_value&lt; T, bool &gt;, Policies... &gt;</text>
</a>
</g>
</g>
<!-- Node0&#45;&gt;Node10 -->
<g id="edge10" class="edge">
<title>Node0&#45;&gt;Node10</title>
<path fill="none" stroke="midnightblue" d="M147.6,-252.29C156.47,-248.9 165.41,-245.57 174,-242.5 182.86,-239.33 192.26,-236.12 201.53,-233.04"/>
<polygon fill="midnightblue" stroke="midnightblue" points="146.09,-249.11 138.02,-255.97 148.61,-255.65 146.09,-249.11"/>
</g>
<!-- Node12 -->
<g id="node13" class="node">
<title>Node12</title>
<g id="a_node13"><a xlink:href="classarg__router_1_1tree__node.html" target="_top" xlink:title=" ">
<polygon fill="white" stroke="black" points="198,-132 198,-173 338,-173 338,-132 198,-132"/>
<text text-anchor="start" x="206" y="-161" font-family="Helvetica,sans-Serif" font-size="10.00">arg_router::tree_node</text>
<text text-anchor="start" x="206" y="-150" font-family="Helvetica,sans-Serif" font-size="10.00">&lt; policy::no_result_value</text>
<text text-anchor="middle" x="268" y="-139" font-family="Helvetica,sans-Serif" font-size="10.00">&lt;&gt;, Params... &gt;</text>
</a>
</g>
</g>
<!-- Node0&#45;&gt;Node12 -->
<g id="edge12" class="edge">
<title>Node0&#45;&gt;Node12</title>
<path fill="none" stroke="midnightblue" d="M102.38,-244.25C121.38,-223.4 146.91,-198.79 174,-182.5 181.41,-178.04 189.57,-174.17 197.87,-170.82"/>
<polygon fill="midnightblue" stroke="midnightblue" points="99.75,-241.95 95.69,-251.74 104.97,-246.61 99.75,-241.95"/>
</g>
<!-- Node14 -->
<g id="node15" class="node">
<title>Node14</title>
<g id="a_node15"><a xlink:href="classarg__router_1_1tree__node.html" target="_top" xlink:title=" ">
<polygon fill="white" stroke="black" points="198,-72 198,-113 338,-113 338,-72 198,-72"/>
<text text-anchor="start" x="206" y="-101" font-family="Helvetica,sans-Serif" font-size="10.00">arg_router::tree_node</text>
<text text-anchor="start" x="206" y="-90" font-family="Helvetica,sans-Serif" font-size="10.00">&lt; policy::no_result_value</text>
<text text-anchor="middle" x="268" y="-79" font-family="Helvetica,sans-Serif" font-size="10.00">&lt;&gt;, Policies... &gt;</text>
</a>
</g>
</g>
<!-- Node0&#45;&gt;Node14 -->
<g id="edge14" class="edge">
<title>Node0&#45;&gt;Node14</title>
<path fill="none" stroke="midnightblue" d="M86.79,-242.53C103.71,-206.08 133.17,-153.84 174,-122.5 181.13,-117.03 189.3,-112.53 197.76,-108.85"/>
<polygon fill="midnightblue" stroke="midnightblue" points="83.49,-241.34 82.56,-251.9 89.87,-244.23 83.49,-241.34"/>
</g>
<!-- Node16 -->
<g id="node17" class="node">
<title>Node16</title>
<g id="a_node17"><a xlink:href="classarg__router_1_1tree__node.html" target="_top" xlink:title=" ">
<polygon fill="white" stroke="black" points="198,-0.5 198,-52.5 338,-52.5 338,-0.5 198,-0.5"/>
<text text-anchor="start" x="206" y="-40.5" font-family="Helvetica,sans-Serif" font-size="10.00">arg_router::tree_node</text>
<text text-anchor="start" x="206" y="-29.5" font-family="Helvetica,sans-Serif" font-size="10.00">&lt; std::decay_t&lt; decltype</text>
<text text-anchor="start" x="206" y="-18.5" font-family="Helvetica,sans-Serif" font-size="10.00">(policy::fixed_count&lt; 1</text>
<text text-anchor="middle" x="268" y="-7.5" font-family="Helvetica,sans-Serif" font-size="10.00"> &gt;)&gt;, Policies... &gt;</text>
</a>
</g>
</g>
<!-- Node0&#45;&gt;Node16 -->
<g id="edge16" class="edge">
<title>Node0&#45;&gt;Node16</title>
<path fill="none" stroke="midnightblue" d="M79.49,-242C92.73,-192.89 121.29,-111.62 174,-62.5 180.97,-56.01 189.23,-50.64 197.92,-46.22"/>
<polygon fill="midnightblue" stroke="midnightblue" points="76.03,-241.41 76.89,-251.97 82.8,-243.17 76.03,-241.41"/>
</g>
<!-- Node3 -->
<g id="node4" class="node">
<title>Node3</title>
<g id="a_node4"><a xlink:href="classarg__router_1_1root__t.html" target="_top" xlink:title=" ">
<polygon fill="white" stroke="black" points="413.5,-443.5 413.5,-473.5 514.5,-473.5 514.5,-443.5 413.5,-443.5"/>
<text text-anchor="start" x="421.5" y="-461.5" font-family="Helvetica,sans-Serif" font-size="10.00">arg_router::root_t</text>
<text text-anchor="middle" x="464" y="-450.5" font-family="Helvetica,sans-Serif" font-size="10.00">&lt; Params &gt;</text>
</a>
</g>
</g>
<!-- Node2&#45;&gt;Node3 -->
<g id="edge3" class="edge">
<title>Node2&#45;&gt;Node3</title>
<path fill="none" stroke="midnightblue" d="M339.06,-458.5C363.65,-458.5 390.75,-458.5 413.32,-458.5"/>
<polygon fill="midnightblue" stroke="midnightblue" points="339.05,-455 329.05,-458.5 339.05,-462 339.05,-455"/>
</g>
<!-- Node5 -->
<g id="node6" class="node">
<title>Node5</title>
<g id="a_node6"><a xlink:href="classarg__router_1_1positional__arg__t.html" target="_top" xlink:title=" ">
<polygon fill="white" stroke="black" points="403.5,-394.5 403.5,-424.5 524.5,-424.5 524.5,-394.5 403.5,-394.5"/>
<text text-anchor="start" x="411.5" y="-412.5" font-family="Helvetica,sans-Serif" font-size="10.00">arg_router::positional</text>
<text text-anchor="middle" x="464" y="-401.5" font-family="Helvetica,sans-Serif" font-size="10.00">_arg_t&lt; T, Policies &gt;</text>
</a>
</g>
</g>
<!-- Node4&#45;&gt;Node5 -->
<g id="edge5" class="edge">
<title>Node4&#45;&gt;Node5</title>
<path fill="none" stroke="midnightblue" d="M339.19,-409.5C360.18,-409.5 382.98,-409.5 403.23,-409.5"/>
<polygon fill="midnightblue" stroke="midnightblue" points="339.05,-406 329.05,-409.5 339.05,-413 339.05,-406"/>
</g>
<!-- Node7 -->
<g id="node8" class="node">
<title>Node7</title>
<g id="a_node8"><a xlink:href="classarg__router_1_1flag__t.html" target="_top" xlink:title=" ">
<polygon fill="white" stroke="black" points="414,-339.5 414,-369.5 514,-369.5 514,-339.5 414,-339.5"/>
<text text-anchor="start" x="422" y="-357.5" font-family="Helvetica,sans-Serif" font-size="10.00">arg_router::flag_t</text>
<text text-anchor="middle" x="464" y="-346.5" font-family="Helvetica,sans-Serif" font-size="10.00">&lt; Policies &gt;</text>
</a>
</g>
</g>
<!-- Node6&#45;&gt;Node7 -->
<g id="edge7" class="edge">
<title>Node6&#45;&gt;Node7</title>
<path fill="none" stroke="midnightblue" d="M342.59,-354.5C366.39,-354.5 392.2,-354.5 413.8,-354.5"/>
<polygon fill="midnightblue" stroke="midnightblue" points="342.52,-351 332.52,-354.5 342.52,-358 342.52,-351"/>
</g>
<!-- Node9 -->
<g id="node10" class="node">
<title>Node9</title>
<g id="a_node10"><a xlink:href="classarg__router_1_1dependency_1_1one__of__t.html" target="_top" xlink:title=" ">
<polygon fill="white" stroke="black" points="398,-268.5 398,-298.5 530,-298.5 530,-268.5 398,-268.5"/>
<text text-anchor="start" x="406" y="-286.5" font-family="Helvetica,sans-Serif" font-size="10.00">arg_router::dependency</text>
<text text-anchor="middle" x="464" y="-275.5" font-family="Helvetica,sans-Serif" font-size="10.00">::one_of_t&lt; Params &gt;</text>
</a>
</g>
</g>
<!-- Node8&#45;&gt;Node9 -->
<g id="edge9" class="edge">
<title>Node8&#45;&gt;Node9</title>
<path fill="none" stroke="midnightblue" d="M372.28,-283.5C381.01,-283.5 389.67,-283.5 397.97,-283.5"/>
<polygon fill="midnightblue" stroke="midnightblue" points="372.02,-280 362.02,-283.5 372.02,-287 372.02,-280"/>
</g>
<!-- Node11 -->
<g id="node12" class="node">
<title>Node11</title>
<g id="a_node12"><a xlink:href="classarg__router_1_1counting__flag__t.html" target="_top" xlink:title=" ">
<polygon fill="white" stroke="black" points="403.5,-197.5 403.5,-227.5 524.5,-227.5 524.5,-197.5 403.5,-197.5"/>
<text text-anchor="start" x="411.5" y="-215.5" font-family="Helvetica,sans-Serif" font-size="10.00">arg_router::counting</text>
<text text-anchor="middle" x="464" y="-204.5" font-family="Helvetica,sans-Serif" font-size="10.00">_flag_t&lt; T, Policies &gt;</text>
</a>
</g>
</g>
<!-- Node10&#45;&gt;Node11 -->
<g id="edge11" class="edge">
<title>Node10&#45;&gt;Node11</title>
<path fill="none" stroke="midnightblue" d="M362.29,-212.5C376.32,-212.5 390.44,-212.5 403.5,-212.5"/>
<polygon fill="midnightblue" stroke="midnightblue" points="362.12,-209 352.12,-212.5 362.12,-216 362.12,-209"/>
</g>
<!-- Node13 -->
<g id="node14" class="node">
<title>Node13</title>
<g id="a_node14"><a xlink:href="classarg__router_1_1mode__t.html" target="_top" xlink:title=" ">
<polygon fill="white" stroke="black" points="409,-137.5 409,-167.5 519,-167.5 519,-137.5 409,-137.5"/>
<text text-anchor="start" x="417" y="-155.5" font-family="Helvetica,sans-Serif" font-size="10.00">arg_router::mode_t</text>
<text text-anchor="middle" x="464" y="-144.5" font-family="Helvetica,sans-Serif" font-size="10.00">&lt; Params &gt;</text>
</a>
</g>
</g>
<!-- Node12&#45;&gt;Node13 -->
<g id="edge13" class="edge">
<title>Node12&#45;&gt;Node13</title>
<path fill="none" stroke="midnightblue" d="M348.39,-152.5C368.69,-152.5 390.04,-152.5 408.75,-152.5"/>
<polygon fill="midnightblue" stroke="midnightblue" points="348.22,-149 338.22,-152.5 348.22,-156 348.22,-149"/>
</g>
<!-- Node15 -->
<g id="node16" class="node">
<title>Node15</title>
<g id="a_node16"><a xlink:href="classarg__router_1_1help__t.html" target="_top" xlink:title=" ">
<polygon fill="white" stroke="black" points="412.5,-77.5 412.5,-107.5 515.5,-107.5 515.5,-77.5 412.5,-77.5"/>
<text text-anchor="start" x="420.5" y="-95.5" font-family="Helvetica,sans-Serif" font-size="10.00">arg_router::help_t</text>
<text text-anchor="middle" x="464" y="-84.5" font-family="Helvetica,sans-Serif" font-size="10.00">&lt; Policies &gt;</text>
</a>
</g>
</g>
<!-- Node14&#45;&gt;Node15 -->
<g id="edge15" class="edge">
<title>Node14&#45;&gt;Node15</title>
<path fill="none" stroke="midnightblue" d="M348.39,-92.5C370.02,-92.5 392.86,-92.5 412.41,-92.5"/>
<polygon fill="midnightblue" stroke="midnightblue" points="348.22,-89 338.22,-92.5 348.22,-96 348.22,-89"/>
</g>
<!-- Node17 -->
<g id="node18" class="node">
<title>Node17</title>
<g id="a_node18"><a xlink:href="classarg__router_1_1arg__t.html" target="_top" xlink:title=" ">
<polygon fill="white" stroke="black" points="411,-11.5 411,-41.5 517,-41.5 517,-11.5 411,-11.5"/>
<text text-anchor="start" x="419" y="-29.5" font-family="Helvetica,sans-Serif" font-size="10.00">arg_router::arg_t&lt;</text>
<text text-anchor="middle" x="464" y="-18.5" font-family="Helvetica,sans-Serif" font-size="10.00"> T, Policies &gt;</text>
</a>
</g>
</g>
<!-- Node16&#45;&gt;Node17 -->
<g id="edge17" class="edge">
<title>Node16&#45;&gt;Node17</title>
<path fill="none" stroke="midnightblue" d="M348.44,-26.5C369.5,-26.5 391.7,-26.5 410.89,-26.5"/>
<polygon fill="midnightblue" stroke="midnightblue" points="348.22,-23 338.22,-26.5 348.22,-30 348.22,-23"/>
</g>
</g>
</svg>
