<?xml version="1.0" encoding="UTF-8" standalone="no"?>
<!DOCTYPE svg PUBLIC "-//W3C//DTD SVG 1.1//EN"
 "http://www.w3.org/Graphics/SVG/1.1/DTD/svg11.dtd">
<!-- Generated by graphviz version 2.43.0 (0)
 -->
<!-- Title: Graphical Class Hierarchy Pages: 1 -->
<svg width="531pt" height="269pt"
 viewBox="0.00 0.00 531.00 269.00" xmlns="http://www.w3.org/2000/svg" xmlns:xlink="http://www.w3.org/1999/xlink">
<g id="graph0" class="graph" transform="scale(1 1) rotate(0) translate(4 265)">
<title>Graphical Class Hierarchy</title>
<!-- Node0 -->
<g id="node1" class="node">
<title>Node0</title>
<g id="a_node1"><a xlink:href="classarg__router_1_1traits_1_1unpack__and__derive.html" target="_top" xlink:title=" ">
<polygon fill="none" stroke="black" points="0,-60.5 0,-134.5 165,-134.5 165,-60.5 0,-60.5"/>
<text text-anchor="start" x="8" y="-122.5" font-family="Helvetica,sans-Serif" font-size="10.00">arg_router::traits</text>
<text text-anchor="start" x="8" y="-111.5" font-family="Helvetica,sans-Serif" font-size="10.00">::unpack_and_derive</text>
<text text-anchor="start" x="8" y="-100.5" font-family="Helvetica,sans-Serif" font-size="10.00">&lt; boost::mp11::mp_filter</text>
<text text-anchor="start" x="8" y="-89.5" font-family="Helvetica,sans-Serif" font-size="10.00">&lt; policy::is_policy, std</text>
<text text-anchor="start" x="8" y="-78.5" font-family="Helvetica,sans-Serif" font-size="10.00">::tuple&lt; std::decay_t&lt; Params</text>
<text text-anchor="middle" x="82.5" y="-67.5" font-family="Helvetica,sans-Serif" font-size="10.00"> &gt;... &gt; &gt; &gt;</text>
</a>
</g>
</g>
<!-- Node1 -->
<g id="node2" class="node">
<title>Node1</title>
<g id="a_node2"><a xlink:href="classarg__router_1_1tree__node.html" target="_top" xlink:title=" ">
<polygon fill="none" stroke="black" points="201,-164.5 201,-260.5 366,-260.5 366,-164.5 201,-164.5"/>
<text text-anchor="start" x="209" y="-248.5" font-family="Helvetica,sans-Serif" font-size="10.00">arg_router::tree_node</text>
<text text-anchor="start" x="209" y="-237.5" font-family="Helvetica,sans-Serif" font-size="10.00">&lt; policy::multi_stage</text>
<text text-anchor="start" x="209" y="-226.5" font-family="Helvetica,sans-Serif" font-size="10.00">_value&lt; T, bool &gt;, policy</text>
<text text-anchor="start" x="209" y="-215.5" font-family="Helvetica,sans-Serif" font-size="10.00">::min_max_count_t&lt; traits</text>
<text text-anchor="start" x="209" y="-204.5" font-family="Helvetica,sans-Serif" font-size="10.00">::integral_constant&lt; std::</text>
<text text-anchor="start" x="209" y="-193.5" font-family="Helvetica,sans-Serif" font-size="10.00">size_t{0}&gt;, traits::integral</text>
<text text-anchor="start" x="209" y="-182.5" font-family="Helvetica,sans-Serif" font-size="10.00">_constant&lt; std::size_t{0}&gt; &gt;,</text>
<text text-anchor="middle" x="283.5" y="-171.5" font-family="Helvetica,sans-Serif" font-size="10.00"> std::decay_t&lt; Policies &gt;... &gt;</text>
</a>
</g>
</g>
<!-- Node0&#45;&gt;Node1 -->
<g id="edge1" class="edge">
<title>Node0&#45;&gt;Node1</title>
<path fill="none" stroke="midnightblue" d="M156.42,-139.64C170.83,-147.97 186.04,-156.76 200.72,-165.24"/>
<polygon fill="midnightblue" stroke="midnightblue" points="157.97,-136.49 147.56,-134.52 154.47,-142.55 157.97,-136.49"/>
</g>
<!-- Node3 -->
<g id="node4" class="node">
<title>Node3</title>
<g id="a_node4"><a xlink:href="classarg__router_1_1tree__node.html" target="_top" xlink:title=" ">
<polygon fill="none" stroke="black" points="202,-49.5 202,-145.5 365,-145.5 365,-49.5 202,-49.5"/>
<text text-anchor="start" x="210" y="-133.5" font-family="Helvetica,sans-Serif" font-size="10.00">arg_router::tree_node</text>
<text text-anchor="start" x="210" y="-122.5" font-family="Helvetica,sans-Serif" font-size="10.00">&lt; policy::default_value</text>
<text text-anchor="start" x="210" y="-111.5" font-family="Helvetica,sans-Serif" font-size="10.00">&lt; bool &gt;, policy::min_max</text>
<text text-anchor="start" x="210" y="-100.5" font-family="Helvetica,sans-Serif" font-size="10.00">_count_t&lt; traits::integral</text>
<text text-anchor="start" x="210" y="-89.5" font-family="Helvetica,sans-Serif" font-size="10.00">_constant&lt; std::size_t{0}&gt;,</text>
<text text-anchor="start" x="210" y="-78.5" font-family="Helvetica,sans-Serif" font-size="10.00"> traits::integral_constant&lt;</text>
<text text-anchor="start" x="210" y="-67.5" font-family="Helvetica,sans-Serif" font-size="10.00"> std::size_t{0}&gt; &gt;, std::decay</text>
<text text-anchor="middle" x="283.5" y="-56.5" font-family="Helvetica,sans-Serif" font-size="10.00">_t&lt; Policies &gt;... &gt;</text>
</a>
</g>
</g>
<!-- Node0&#45;&gt;Node3 -->
<g id="edge3" class="edge">
<title>Node0&#45;&gt;Node3</title>
<path fill="none" stroke="midnightblue" d="M175.03,-97.5C183.95,-97.5 192.95,-97.5 201.76,-97.5"/>
<polygon fill="midnightblue" stroke="midnightblue" points="175.02,-94 165.02,-97.5 175.02,-101 175.02,-94"/>
</g>
<!-- Node5 -->
<g id="node6" class="node">
<title>Node5</title>
<g id="a_node6"><a xlink:href="classarg__router_1_1tree__node.html" target="_top" xlink:title=" ">
<polygon fill="none" stroke="black" points="222.5,-0.5 222.5,-30.5 344.5,-30.5 344.5,-0.5 222.5,-0.5"/>
<text text-anchor="start" x="230.5" y="-18.5" font-family="Helvetica,sans-Serif" font-size="10.00">arg_router::tree_node</text>
<text text-anchor="middle" x="283.5" y="-7.5" font-family="Helvetica,sans-Serif" font-size="10.00">&lt; Params &gt;</text>
</a>
</g>
</g>
<!-- Node0&#45;&gt;Node5 -->
<g id="edge5" class="edge">
<title>Node0&#45;&gt;Node5</title>
<path fill="none" stroke="midnightblue" d="M164.59,-56.17C176.66,-50.6 189.06,-45.19 201,-40.5 209.95,-36.98 219.61,-33.64 229.05,-30.6"/>
<polygon fill="midnightblue" stroke="midnightblue" points="163,-53.04 155.43,-60.45 165.97,-59.38 163,-53.04"/>
</g>
<!-- Node2 -->
<g id="node3" class="node">
<title>Node2</title>
<g id="a_node3"><a xlink:href="classarg__router_1_1counting__flag__t.html" target="_top" xlink:title=" ">
<polygon fill="none" stroke="black" points="402,-197.5 402,-227.5 523,-227.5 523,-197.5 402,-197.5"/>
<text text-anchor="start" x="410" y="-215.5" font-family="Helvetica,sans-Serif" font-size="10.00">arg_router::counting</text>
<text text-anchor="middle" x="462.5" y="-204.5" font-family="Helvetica,sans-Serif" font-size="10.00">_flag_t&lt; T, Policies &gt;</text>
</a>
</g>
</g>
<!-- Node1&#45;&gt;Node2 -->
<g id="edge2" class="edge">
<title>Node1&#45;&gt;Node2</title>
<path fill="none" stroke="midnightblue" d="M376.21,-212.5C384.9,-212.5 393.55,-212.5 401.83,-212.5"/>
<polygon fill="midnightblue" stroke="midnightblue" points="376.01,-209 366.01,-212.5 376.01,-216 376.01,-209"/>
</g>
<!-- Node4 -->
<g id="node5" class="node">
<title>Node4</title>
<g id="a_node5"><a xlink:href="classarg__router_1_1flag__t.html" target="_top" xlink:title=" ">
<polygon fill="none" stroke="black" points="412.5,-82.5 412.5,-112.5 512.5,-112.5 512.5,-82.5 412.5,-82.5"/>
<text text-anchor="start" x="420.5" y="-100.5" font-family="Helvetica,sans-Serif" font-size="10.00">arg_router::flag_t</text>
<text text-anchor="middle" x="462.5" y="-89.5" font-family="Helvetica,sans-Serif" font-size="10.00">&lt; Policies &gt;</text>
</a>
</g>
</g>
<!-- Node3&#45;&gt;Node4 -->
<g id="edge4" class="edge">
<title>Node3&#45;&gt;Node4</title>
<path fill="none" stroke="midnightblue" d="M375.41,-97.5C388.11,-97.5 400.75,-97.5 412.27,-97.5"/>
<polygon fill="midnightblue" stroke="midnightblue" points="375.23,-94 365.23,-97.5 375.23,-101 375.23,-94"/>
</g>
</g>
</svg>
