<?xml version="1.0" encoding="UTF-8" standalone="no"?>
<!DOCTYPE svg PUBLIC "-//W3C//DTD SVG 1.1//EN"
 "http://www.w3.org/Graphics/SVG/1.1/DTD/svg11.dtd">
<!-- Generated by graphviz version 2.43.0 (0)
 -->
<!-- Title: Graphical Class Hierarchy Pages: 1 -->
<svg width="577pt" height="796pt"
 viewBox="0.00 0.00 577.00 795.50" xmlns="http://www.w3.org/2000/svg" xmlns:xlink="http://www.w3.org/1999/xlink">
<g id="graph0" class="graph" transform="scale(1 1) rotate(0) translate(4 791.5)">
<title>Graphical Class Hierarchy</title>
<polygon fill="white" stroke="transparent" points="-4,4 -4,-791.5 573,-791.5 573,4 -4,4"/>
<!-- Node0 -->
<g id="node1" class="node">
<title>Node0</title>
<g id="a_node1"><a xlink:href="classarg__router_1_1traits_1_1unpack__and__derive.html" target="_top" xlink:title=" ">
<polygon fill="white" stroke="black" points="0,-302 0,-376 165,-376 165,-302 0,-302"/>
<text text-anchor="start" x="8" y="-364" font-family="Helvetica,sans-Serif" font-size="10.00">arg_router::traits</text>
<text text-anchor="start" x="8" y="-353" font-family="Helvetica,sans-Serif" font-size="10.00">::unpack_and_derive</text>
<text text-anchor="start" x="8" y="-342" font-family="Helvetica,sans-Serif" font-size="10.00">&lt; boost::mp11::mp_filter</text>
<text text-anchor="start" x="8" y="-331" font-family="Helvetica,sans-Serif" font-size="10.00">&lt; policy::is_policy, std</text>
<text text-anchor="start" x="8" y="-320" font-family="Helvetica,sans-Serif" font-size="10.00">::tuple&lt; std::decay_t&lt; Params</text>
<text text-anchor="middle" x="82.5" y="-309" font-family="Helvetica,sans-Serif" font-size="10.00"> &gt;... &gt; &gt; &gt;</text>
</a>
</g>
</g>
<!-- Node1 -->
<g id="node2" class="node">
<title>Node1</title>
<g id="a_node2"><a xlink:href="classarg__router_1_1tree__node.html" target="_top" xlink:title=" ">
<polygon fill="white" stroke="black" points="245.5,-757 245.5,-787 367.5,-787 367.5,-757 245.5,-757"/>
<text text-anchor="start" x="253.5" y="-775" font-family="Helvetica,sans-Serif" font-size="10.00">arg_router::tree_node</text>
<text text-anchor="middle" x="306.5" y="-764" font-family="Helvetica,sans-Serif" font-size="10.00">&lt; Params &gt;</text>
</a>
</g>
</g>
<!-- Node0&#45;&gt;Node1 -->
<g id="edge1" class="edge">
<title>Node0&#45;&gt;Node1</title>
<path fill="none" stroke="midnightblue" d="M82.57,-386.22C83.61,-471.44 98.67,-651.06 201,-748 213.03,-759.39 229.32,-765.77 245.46,-769.23"/>
<polygon fill="midnightblue" stroke="midnightblue" points="86.07,-386.04 82.51,-376.06 79.07,-386.09 86.07,-386.04"/>
</g>
<!-- Node2 -->
<g id="node3" class="node">
<title>Node2</title>
<g id="a_node3"><a xlink:href="classarg__router_1_1tree__node.html" target="_top" xlink:title=" ">
<polygon fill="white" stroke="black" points="242,-686 242,-738 371,-738 371,-686 242,-686"/>
<text text-anchor="start" x="250" y="-726" font-family="Helvetica,sans-Serif" font-size="10.00">arg_router::tree_node</text>
<text text-anchor="start" x="250" y="-715" font-family="Helvetica,sans-Serif" font-size="10.00">&lt; policy::default_value</text>
<text text-anchor="start" x="250" y="-704" font-family="Helvetica,sans-Serif" font-size="10.00">&lt; bool &gt;, std::decay_t</text>
<text text-anchor="middle" x="306.5" y="-693" font-family="Helvetica,sans-Serif" font-size="10.00">&lt; Policies &gt;... &gt;</text>
</a>
</g>
</g>
<!-- Node0&#45;&gt;Node2 -->
<g id="edge2" class="edge">
<title>Node0&#45;&gt;Node2</title>
<path fill="none" stroke="midnightblue" d="M86.99,-386.28C94.85,-458.7 120.15,-597.07 201,-677 212.16,-688.03 226.89,-695.59 241.76,-700.76"/>
<polygon fill="midnightblue" stroke="midnightblue" points="90.45,-385.68 85.96,-376.09 83.49,-386.39 90.45,-385.68"/>
</g>
<!-- Node4 -->
<g id="node5" class="node">
<title>Node4</title>
<g id="a_node5"><a xlink:href="classarg__router_1_1tree__node.html" target="_top" xlink:title=" ">
<polygon fill="white" stroke="black" points="201,-593 201,-667 412,-667 412,-593 201,-593"/>
<text text-anchor="start" x="209" y="-655" font-family="Helvetica,sans-Serif" font-size="10.00">arg_router::tree_node</text>
<text text-anchor="start" x="209" y="-644" font-family="Helvetica,sans-Serif" font-size="10.00">&lt; policy::display_name</text>
<text text-anchor="start" x="209" y="-633" font-family="Helvetica,sans-Serif" font-size="10.00">_t&lt; generate_string_of</text>
<text text-anchor="start" x="209" y="-622" font-family="Helvetica,sans-Serif" font-size="10.00">_child_names&lt; ParentDocName,</text>
<text text-anchor="start" x="209" y="-611" font-family="Helvetica,sans-Serif" font-size="10.00"> std::decay_t&lt; Params &gt;...</text>
<text text-anchor="middle" x="306.5" y="-600" font-family="Helvetica,sans-Serif" font-size="10.00"> &gt;::type &gt;, std::decay_t&lt; Params &gt;... &gt;</text>
</a>
</g>
</g>
<!-- Node0&#45;&gt;Node4 -->
<g id="edge4" class="edge">
<title>Node0&#45;&gt;Node4</title>
<path fill="none" stroke="midnightblue" d="M95.41,-385.64C111.3,-439.49 144.25,-527.71 201,-583 204.56,-586.47 208.43,-589.71 212.5,-592.73"/>
<polygon fill="midnightblue" stroke="midnightblue" points="98.76,-384.65 92.63,-376.01 92.03,-386.58 98.76,-384.65"/>
</g>
<!-- Node5 -->
<g id="node6" class="node">
<title>Node5</title>
<g id="a_node6"><a xlink:href="classarg__router_1_1tree__node.html" target="_top" xlink:title=" ">
<polygon fill="white" stroke="black" points="229,-488.5 229,-573.5 384,-573.5 384,-488.5 229,-488.5"/>
<text text-anchor="start" x="237" y="-561.5" font-family="Helvetica,sans-Serif" font-size="10.00">arg_router::tree_node</text>
<text text-anchor="start" x="237" y="-550.5" font-family="Helvetica,sans-Serif" font-size="10.00">&lt; policy::display_name</text>
<text text-anchor="start" x="237" y="-539.5" font-family="Helvetica,sans-Serif" font-size="10.00">_t&lt; generate_string_of</text>
<text text-anchor="start" x="237" y="-528.5" font-family="Helvetica,sans-Serif" font-size="10.00">_child_names&lt; S_(&quot;Alias</text>
<text text-anchor="start" x="237" y="-517.5" font-family="Helvetica,sans-Serif" font-size="10.00"> Group: &quot;), std::decay_t</text>
<text text-anchor="start" x="237" y="-506.5" font-family="Helvetica,sans-Serif" font-size="10.00">&lt; Params &gt;... &gt;::type &gt;, std</text>
<text text-anchor="middle" x="306.5" y="-495.5" font-family="Helvetica,sans-Serif" font-size="10.00">::decay_t&lt; Params &gt;... &gt;</text>
</a>
</g>
</g>
<!-- Node0&#45;&gt;Node5 -->
<g id="edge5" class="edge">
<title>Node0&#45;&gt;Node5</title>
<path fill="none" stroke="midnightblue" d="M114.09,-384.42C135.76,-414.09 166.94,-452.17 201,-479 209.52,-485.71 219.04,-491.88 228.77,-497.46"/>
<polygon fill="midnightblue" stroke="midnightblue" points="116.92,-382.36 108.24,-376.29 111.24,-386.45 116.92,-382.36"/>
</g>
<!-- Node6 -->
<g id="node7" class="node">
<title>Node6</title>
<g id="a_node7"><a xlink:href="classarg__router_1_1tree__node.html" target="_top" xlink:title=" ">
<polygon fill="white" stroke="black" points="233.5,-384.5 233.5,-469.5 379.5,-469.5 379.5,-384.5 233.5,-384.5"/>
<text text-anchor="start" x="241.5" y="-457.5" font-family="Helvetica,sans-Serif" font-size="10.00">arg_router::tree_node</text>
<text text-anchor="start" x="241.5" y="-446.5" font-family="Helvetica,sans-Serif" font-size="10.00">&lt; policy::display_name</text>
<text text-anchor="start" x="241.5" y="-435.5" font-family="Helvetica,sans-Serif" font-size="10.00">_t&lt; generate_string_of</text>
<text text-anchor="start" x="241.5" y="-424.5" font-family="Helvetica,sans-Serif" font-size="10.00">_child_names&lt; S_(&quot;One of</text>
<text text-anchor="start" x="241.5" y="-413.5" font-family="Helvetica,sans-Serif" font-size="10.00">: &quot;), std::decay_t&lt; Params</text>
<text text-anchor="start" x="241.5" y="-402.5" font-family="Helvetica,sans-Serif" font-size="10.00"> &gt;... &gt;::type &gt;, std::decay</text>
<text text-anchor="middle" x="306.5" y="-391.5" font-family="Helvetica,sans-Serif" font-size="10.00">_t&lt; Params &gt;... &gt;</text>
</a>
</g>
</g>
<!-- Node0&#45;&gt;Node6 -->
<g id="edge6" class="edge">
<title>Node0&#45;&gt;Node6</title>
<path fill="none" stroke="midnightblue" d="M174.75,-375.17C194.33,-382.93 214.75,-391.03 233.48,-398.45"/>
<polygon fill="midnightblue" stroke="midnightblue" points="175.8,-371.82 165.22,-371.39 173.23,-378.33 175.8,-371.82"/>
</g>
<!-- Node7 -->
<g id="node8" class="node">
<title>Node7</title>
<g id="a_node8"><a xlink:href="classarg__router_1_1tree__node.html" target="_top" xlink:title=" ">
<polygon fill="white" stroke="black" points="236,-313 236,-365 377,-365 377,-313 236,-313"/>
<text text-anchor="start" x="244" y="-353" font-family="Helvetica,sans-Serif" font-size="10.00">arg_router::tree_node</text>
<text text-anchor="start" x="244" y="-342" font-family="Helvetica,sans-Serif" font-size="10.00">&lt; policy::multi_stage</text>
<text text-anchor="start" x="244" y="-331" font-family="Helvetica,sans-Serif" font-size="10.00">_value&lt; T, bool &gt;, std</text>
<text text-anchor="middle" x="306.5" y="-320" font-family="Helvetica,sans-Serif" font-size="10.00">::decay_t&lt; Policies &gt;... &gt;</text>
</a>
</g>
</g>
<!-- Node0&#45;&gt;Node7 -->
<g id="edge7" class="edge">
<title>Node0&#45;&gt;Node7</title>
<path fill="none" stroke="midnightblue" d="M175.4,-339C195.66,-339 216.79,-339 235.99,-339"/>
<polygon fill="midnightblue" stroke="midnightblue" points="175.22,-335.5 165.22,-339 175.22,-342.5 175.22,-335.5"/>
</g>
<!-- Node9 -->
<g id="node10" class="node">
<title>Node9</title>
<g id="a_node10"><a xlink:href="classarg__router_1_1tree__node.html" target="_top" xlink:title=" ">
<polygon fill="white" stroke="black" points="218,-252.5 218,-293.5 395,-293.5 395,-252.5 218,-252.5"/>
<text text-anchor="start" x="226" y="-281.5" font-family="Helvetica,sans-Serif" font-size="10.00">arg_router::tree_node</text>
<text text-anchor="start" x="226" y="-270.5" font-family="Helvetica,sans-Serif" font-size="10.00">&lt; policy::no_result_value</text>
<text text-anchor="middle" x="306.5" y="-259.5" font-family="Helvetica,sans-Serif" font-size="10.00">&lt;&gt;, std::decay_t&lt; Params &gt;... &gt;</text>
</a>
</g>
</g>
<!-- Node0&#45;&gt;Node9 -->
<g id="edge9" class="edge">
<title>Node0&#45;&gt;Node9</title>
<path fill="none" stroke="midnightblue" d="M174.68,-311.83C183.57,-309.18 192.46,-306.54 201,-304 212.34,-300.63 224.37,-297.06 236.08,-293.58"/>
<polygon fill="midnightblue" stroke="midnightblue" points="173.62,-308.49 165.04,-314.7 175.62,-315.2 173.62,-308.49"/>
</g>
<!-- Node11 -->
<g id="node12" class="node">
<title>Node11</title>
<g id="a_node12"><a xlink:href="classarg__router_1_1tree__node.html" target="_top" xlink:title=" ">
<polygon fill="white" stroke="black" points="217,-192.5 217,-233.5 396,-233.5 396,-192.5 217,-192.5"/>
<text text-anchor="start" x="225" y="-221.5" font-family="Helvetica,sans-Serif" font-size="10.00">arg_router::tree_node</text>
<text text-anchor="start" x="225" y="-210.5" font-family="Helvetica,sans-Serif" font-size="10.00">&lt; policy::no_result_value</text>
<text text-anchor="middle" x="306.5" y="-199.5" font-family="Helvetica,sans-Serif" font-size="10.00">&lt;&gt;, std::decay_t&lt; Policies &gt;... &gt;</text>
</a>
</g>
</g>
<!-- Node0&#45;&gt;Node11 -->
<g id="edge11" class="edge">
<title>Node0&#45;&gt;Node11</title>
<path fill="none" stroke="midnightblue" d="M128.55,-294.9C149.23,-276.67 174.93,-256.65 201,-243 207.69,-239.5 214.84,-236.36 222.14,-233.55"/>
<polygon fill="midnightblue" stroke="midnightblue" points="125.98,-292.5 120.88,-301.78 130.66,-297.71 125.98,-292.5"/>
</g>
<!-- Node13 -->
<g id="node14" class="node">
<title>Node13</title>
<g id="a_node14"><a xlink:href="classarg__router_1_1tree__node.html" target="_top" xlink:title=" ">
<polygon fill="white" stroke="black" points="214,-121 214,-173 399,-173 399,-121 214,-121"/>
<text text-anchor="start" x="222" y="-161" font-family="Helvetica,sans-Serif" font-size="10.00">arg_router::tree_node</text>
<text text-anchor="start" x="222" y="-150" font-family="Helvetica,sans-Serif" font-size="10.00">&lt; std::decay_t&lt; decltype</text>
<text text-anchor="start" x="222" y="-139" font-family="Helvetica,sans-Serif" font-size="10.00">(policy::fixed_count&lt; 1</text>
<text text-anchor="middle" x="306.5" y="-128" font-family="Helvetica,sans-Serif" font-size="10.00"> &gt;)&gt;, std::decay_t&lt; Policies &gt;... &gt;</text>
</a>
</g>
</g>
<!-- Node0&#45;&gt;Node13 -->
<g id="edge13" class="edge">
<title>Node0&#45;&gt;Node13</title>
<path fill="none" stroke="midnightblue" d="M108.17,-292.78C128.8,-258.14 161.22,-211.91 201,-183 206.04,-179.33 211.49,-176.02 217.16,-173.02"/>
<polygon fill="midnightblue" stroke="midnightblue" points="104.94,-291.37 102.92,-301.77 110.99,-294.89 104.94,-291.37"/>
</g>
<!-- Node15 -->
<g id="node16" class="node">
<title>Node15</title>
<g id="a_node16"><a xlink:href="classarg__router_1_1tree__node.html" target="_top" xlink:title=" ">
<polygon fill="white" stroke="black" points="239.5,-60.5 239.5,-101.5 373.5,-101.5 373.5,-60.5 239.5,-60.5"/>
<text text-anchor="start" x="247.5" y="-89.5" font-family="Helvetica,sans-Serif" font-size="10.00">arg_router::tree_node</text>
<text text-anchor="start" x="247.5" y="-78.5" font-family="Helvetica,sans-Serif" font-size="10.00">&lt; std::decay_t&lt; Params</text>
<text text-anchor="middle" x="306.5" y="-67.5" font-family="Helvetica,sans-Serif" font-size="10.00"> &gt;... &gt;</text>
</a>
</g>
</g>
<!-- Node0&#45;&gt;Node15 -->
<g id="edge15" class="edge">
<title>Node0&#45;&gt;Node15</title>
<path fill="none" stroke="midnightblue" d="M95.82,-291.9C111.7,-240.39 144.24,-158.92 201,-112 212.01,-102.9 225.62,-96.47 239.33,-91.93"/>
<polygon fill="midnightblue" stroke="midnightblue" points="92.38,-291.2 92.87,-301.79 99.08,-293.21 92.38,-291.2"/>
</g>
<!-- Node17 -->
<g id="node18" class="node">
<title>Node17</title>
<g id="a_node18"><a xlink:href="classarg__router_1_1tree__node.html" target="_top" xlink:title=" ">
<polygon fill="white" stroke="black" points="238.5,-0.5 238.5,-41.5 374.5,-41.5 374.5,-0.5 238.5,-0.5"/>
<text text-anchor="start" x="246.5" y="-29.5" font-family="Helvetica,sans-Serif" font-size="10.00">arg_router::tree_node</text>
<text text-anchor="start" x="246.5" y="-18.5" font-family="Helvetica,sans-Serif" font-size="10.00">&lt; std::decay_t&lt; Policies</text>
<text text-anchor="middle" x="306.5" y="-7.5" font-family="Helvetica,sans-Serif" font-size="10.00"> &gt;... &gt;</text>
</a>
</g>
</g>
<!-- Node0&#45;&gt;Node17 -->
<g id="edge17" class="edge">
<title>Node0&#45;&gt;Node17</title>
<path fill="none" stroke="midnightblue" d="M89.9,-291.53C101.04,-227.65 130,-114.73 201,-51 211.53,-41.54 224.87,-35.05 238.45,-30.6"/>
<polygon fill="midnightblue" stroke="midnightblue" points="86.4,-291.28 88.21,-301.72 93.3,-292.43 86.4,-291.28"/>
</g>
<!-- Node3 -->
<g id="node4" class="node">
<title>Node3</title>
<g id="a_node4"><a xlink:href="classarg__router_1_1flag__t.html" target="_top" xlink:title=" ">
<polygon fill="white" stroke="black" points="458.5,-697 458.5,-727 558.5,-727 558.5,-697 458.5,-697"/>
<text text-anchor="start" x="466.5" y="-715" font-family="Helvetica,sans-Serif" font-size="10.00">arg_router::flag_t</text>
<text text-anchor="middle" x="508.5" y="-704" font-family="Helvetica,sans-Serif" font-size="10.00">&lt; Policies &gt;</text>
</a>
</g>
</g>
<!-- Node2&#45;&gt;Node3 -->
<g id="edge3" class="edge">
<title>Node2&#45;&gt;Node3</title>
<path fill="none" stroke="midnightblue" d="M381.16,-712C406.9,-712 435.14,-712 458.39,-712"/>
<polygon fill="midnightblue" stroke="midnightblue" points="381.06,-708.5 371.06,-712 381.06,-715.5 381.06,-708.5"/>
</g>
<!-- Node8 -->
<g id="node9" class="node">
<title>Node8</title>
<g id="a_node9"><a xlink:href="classarg__router_1_1counting__flag__t.html" target="_top" xlink:title=" ">
<polygon fill="white" stroke="black" points="448,-324 448,-354 569,-354 569,-324 448,-324"/>
<text text-anchor="start" x="456" y="-342" font-family="Helvetica,sans-Serif" font-size="10.00">arg_router::counting</text>
<text text-anchor="middle" x="508.5" y="-331" font-family="Helvetica,sans-Serif" font-size="10.00">_flag_t&lt; T, Policies &gt;</text>
</a>
</g>
</g>
<!-- Node7&#45;&gt;Node8 -->
<g id="edge8" class="edge">
<title>Node7&#45;&gt;Node8</title>
<path fill="none" stroke="midnightblue" d="M387.27,-339C407.43,-339 428.74,-339 447.72,-339"/>
<polygon fill="midnightblue" stroke="midnightblue" points="387.17,-335.5 377.17,-339 387.17,-342.5 387.17,-335.5"/>
</g>
<!-- Node10 -->
<g id="node11" class="node">
<title>Node10</title>
<g id="a_node11"><a xlink:href="classarg__router_1_1mode__t.html" target="_top" xlink:title=" ">
<polygon fill="white" stroke="black" points="453.5,-258 453.5,-288 563.5,-288 563.5,-258 453.5,-258"/>
<text text-anchor="start" x="461.5" y="-276" font-family="Helvetica,sans-Serif" font-size="10.00">arg_router::mode_t</text>
<text text-anchor="middle" x="508.5" y="-265" font-family="Helvetica,sans-Serif" font-size="10.00">&lt; Params &gt;</text>
</a>
</g>
</g>
<!-- Node9&#45;&gt;Node10 -->
<g id="edge10" class="edge">
<title>Node9&#45;&gt;Node10</title>
<path fill="none" stroke="midnightblue" d="M405.44,-273C421.89,-273 438.41,-273 453.22,-273"/>
<polygon fill="midnightblue" stroke="midnightblue" points="405.22,-269.5 395.22,-273 405.22,-276.5 405.22,-269.5"/>
</g>
<!-- Node12 -->
<g id="node13" class="node">
<title>Node12</title>
<g id="a_node13"><a xlink:href="classarg__router_1_1help__t.html" target="_top" xlink:title=" ">
<polygon fill="white" stroke="black" points="457,-198 457,-228 560,-228 560,-198 457,-198"/>
<text text-anchor="start" x="465" y="-216" font-family="Helvetica,sans-Serif" font-size="10.00">arg_router::help_t</text>
<text text-anchor="middle" x="508.5" y="-205" font-family="Helvetica,sans-Serif" font-size="10.00">&lt; Policies &gt;</text>
</a>
</g>
</g>
<!-- Node11&#45;&gt;Node12 -->
<g id="edge12" class="edge">
<title>Node11&#45;&gt;Node12</title>
<path fill="none" stroke="midnightblue" d="M406.37,-213C423.85,-213 441.38,-213 456.81,-213"/>
<polygon fill="midnightblue" stroke="midnightblue" points="406.1,-209.5 396.1,-213 406.1,-216.5 406.1,-209.5"/>
</g>
<!-- Node14 -->
<g id="node15" class="node">
<title>Node14</title>
<g id="a_node15"><a xlink:href="classarg__router_1_1arg__t.html" target="_top" xlink:title=" ">
<polygon fill="white" stroke="black" points="455.5,-132 455.5,-162 561.5,-162 561.5,-132 455.5,-132"/>
<text text-anchor="start" x="463.5" y="-150" font-family="Helvetica,sans-Serif" font-size="10.00">arg_router::arg_t&lt;</text>
<text text-anchor="middle" x="508.5" y="-139" font-family="Helvetica,sans-Serif" font-size="10.00"> T, Policies &gt;</text>
</a>
</g>
</g>
<!-- Node13&#45;&gt;Node14 -->
<g id="edge14" class="edge">
<title>Node13&#45;&gt;Node14</title>
<path fill="none" stroke="midnightblue" d="M409.46,-147C425.37,-147 441.22,-147 455.38,-147"/>
<polygon fill="midnightblue" stroke="midnightblue" points="409.01,-143.5 399.01,-147 409.01,-150.5 409.01,-143.5"/>
</g>
<!-- Node16 -->
<g id="node17" class="node">
<title>Node16</title>
<g id="a_node17"><a xlink:href="classarg__router_1_1root__t.html" target="_top" xlink:title=" ">
<polygon fill="white" stroke="black" points="458,-66 458,-96 559,-96 559,-66 458,-66"/>
<text text-anchor="start" x="466" y="-84" font-family="Helvetica,sans-Serif" font-size="10.00">arg_router::root_t</text>
<text text-anchor="middle" x="508.5" y="-73" font-family="Helvetica,sans-Serif" font-size="10.00">&lt; Params &gt;</text>
</a>
</g>
</g>
<!-- Node15&#45;&gt;Node16 -->
<g id="edge16" class="edge">
<title>Node15&#45;&gt;Node16</title>
<path fill="none" stroke="midnightblue" d="M383.66,-81C408.45,-81 435.33,-81 457.69,-81"/>
<polygon fill="midnightblue" stroke="midnightblue" points="383.54,-77.5 373.54,-81 383.54,-84.5 383.54,-77.5"/>
</g>
<!-- Node18 -->
<g id="node19" class="node">
<title>Node18</title>
<g id="a_node19"><a xlink:href="classarg__router_1_1positional__arg__t.html" target="_top" xlink:title=" ">
<polygon fill="white" stroke="black" points="448,-6 448,-36 569,-36 569,-6 448,-6"/>
<text text-anchor="start" x="456" y="-24" font-family="Helvetica,sans-Serif" font-size="10.00">arg_router::positional</text>
<text text-anchor="middle" x="508.5" y="-13" font-family="Helvetica,sans-Serif" font-size="10.00">_arg_t&lt; T, Policies &gt;</text>
</a>
</g>
</g>
<!-- Node17&#45;&gt;Node18 -->
<g id="edge18" class="edge">
<title>Node17&#45;&gt;Node18</title>
<path fill="none" stroke="midnightblue" d="M384.81,-21C405.75,-21 428.1,-21 447.91,-21"/>
<polygon fill="midnightblue" stroke="midnightblue" points="384.65,-17.5 374.65,-21 384.65,-24.5 384.65,-17.5"/>
</g>
</g>
</svg>
