<?xml version="1.0" encoding="UTF-8" standalone="no"?>
<!DOCTYPE svg PUBLIC "-//W3C//DTD SVG 1.1//EN"
 "http://www.w3.org/Graphics/SVG/1.1/DTD/svg11.dtd">
<!-- Generated by graphviz version 2.43.0 (0)
 -->
<!-- Title: Graphical Class Hierarchy Pages: 1 -->
<svg width="575pt" height="422pt"
 viewBox="0.00 0.00 575.00 422.00" xmlns="http://www.w3.org/2000/svg" xmlns:xlink="http://www.w3.org/1999/xlink">
<g id="graph0" class="graph" transform="scale(1 1) rotate(0) translate(4 418)">
<title>Graphical Class Hierarchy</title>
<!-- Node0 -->
<g id="node1" class="node">
<title>Node0</title>
<g id="a_node1"><a xlink:href="classarg__router_1_1traits_1_1unpack__and__derive.html" target="_top" xlink:title=" ">
<polygon fill="none" stroke="black" points="0,-164.5 0,-238.5 165,-238.5 165,-164.5 0,-164.5"/>
<text text-anchor="start" x="8" y="-226.5" font-family="Helvetica,sans-Serif" font-size="10.00">arg_router::traits</text>
<text text-anchor="start" x="8" y="-215.5" font-family="Helvetica,sans-Serif" font-size="10.00">::unpack_and_derive</text>
<text text-anchor="start" x="8" y="-204.5" font-family="Helvetica,sans-Serif" font-size="10.00">&lt; boost::mp11::mp_filter</text>
<text text-anchor="start" x="8" y="-193.5" font-family="Helvetica,sans-Serif" font-size="10.00">&lt; policy::is_policy, std</text>
<text text-anchor="start" x="8" y="-182.5" font-family="Helvetica,sans-Serif" font-size="10.00">::tuple&lt; std::decay_t&lt; Params</text>
<text text-anchor="middle" x="82.5" y="-171.5" font-family="Helvetica,sans-Serif" font-size="10.00"> &gt;... &gt; &gt; &gt;</text>
</a>
</g>
</g>
<!-- Node1 -->
<g id="node2" class="node">
<title>Node1</title>
<g id="a_node2"><a xlink:href="classarg__router_1_1tree__node.html" target="_top" xlink:title=" ">
<polygon fill="none" stroke="black" points="223,-317.5 223,-413.5 388,-413.5 388,-317.5 223,-317.5"/>
<text text-anchor="start" x="231" y="-401.5" font-family="Helvetica,sans-Serif" font-size="10.00">arg_router::tree_node</text>
<text text-anchor="start" x="231" y="-390.5" font-family="Helvetica,sans-Serif" font-size="10.00">&lt; policy::multi_stage</text>
<text text-anchor="start" x="231" y="-379.5" font-family="Helvetica,sans-Serif" font-size="10.00">_value&lt; T, bool &gt;, policy</text>
<text text-anchor="start" x="231" y="-368.5" font-family="Helvetica,sans-Serif" font-size="10.00">::min_max_count_t&lt; traits</text>
<text text-anchor="start" x="231" y="-357.5" font-family="Helvetica,sans-Serif" font-size="10.00">::integral_constant&lt; std::</text>
<text text-anchor="start" x="231" y="-346.5" font-family="Helvetica,sans-Serif" font-size="10.00">size_t{0}&gt;, traits::integral</text>
<text text-anchor="start" x="231" y="-335.5" font-family="Helvetica,sans-Serif" font-size="10.00">_constant&lt; std::size_t{0}&gt; &gt;,</text>
<text text-anchor="middle" x="305.5" y="-324.5" font-family="Helvetica,sans-Serif" font-size="10.00"> std::decay_t&lt; Policies &gt;... &gt;</text>
</a>
</g>
</g>
<!-- Node0&#45;&gt;Node1 -->
<g id="edge1" class="edge">
<title>Node0&#45;&gt;Node1</title>
<path fill="none" stroke="midnightblue" d="M127.59,-245.58C148.83,-265.66 175.24,-289.02 201,-307.5 207.95,-312.48 215.36,-317.38 222.91,-322.07"/>
<polygon fill="midnightblue" stroke="midnightblue" points="129.95,-242.99 120.3,-238.62 125.12,-248.06 129.95,-242.99"/>
</g>
<!-- Node3 -->
<g id="node4" class="node">
<title>Node3</title>
<g id="a_node4"><a xlink:href="classarg__router_1_1tree__node.html" target="_top" xlink:title=" ">
<polygon fill="none" stroke="black" points="217,-257 217,-298 394,-298 394,-257 217,-257"/>
<text text-anchor="start" x="225" y="-286" font-family="Helvetica,sans-Serif" font-size="10.00">arg_router::tree_node</text>
<text text-anchor="start" x="225" y="-275" font-family="Helvetica,sans-Serif" font-size="10.00">&lt; policy::no_result_value</text>
<text text-anchor="middle" x="305.5" y="-264" font-family="Helvetica,sans-Serif" font-size="10.00">&lt;&gt;, std::decay_t&lt; Params &gt;... &gt;</text>
</a>
</g>
</g>
<!-- Node0&#45;&gt;Node3 -->
<g id="edge3" class="edge">
<title>Node0&#45;&gt;Node3</title>
<path fill="none" stroke="midnightblue" d="M174.79,-239.12C183.6,-242.42 192.44,-245.6 201,-248.5 209.57,-251.41 218.61,-254.25 227.63,-256.96"/>
<polygon fill="midnightblue" stroke="midnightblue" points="175.85,-235.78 165.26,-235.5 173.37,-242.32 175.85,-235.78"/>
</g>
<!-- Node5 -->
<g id="node6" class="node">
<title>Node5</title>
<g id="a_node6"><a xlink:href="classarg__router_1_1tree__node.html" target="_top" xlink:title=" ">
<polygon fill="none" stroke="black" points="201,-164.5 201,-238.5 410,-238.5 410,-164.5 201,-164.5"/>
<text text-anchor="start" x="209" y="-226.5" font-family="Helvetica,sans-Serif" font-size="10.00">arg_router::tree_node</text>
<text text-anchor="start" x="209" y="-215.5" font-family="Helvetica,sans-Serif" font-size="10.00">&lt; policy::min_max_count</text>
<text text-anchor="start" x="209" y="-204.5" font-family="Helvetica,sans-Serif" font-size="10.00">_t&lt; traits::integral_constant</text>
<text text-anchor="start" x="209" y="-193.5" font-family="Helvetica,sans-Serif" font-size="10.00">&lt; std::size_t{1}&gt;, traits::</text>
<text text-anchor="start" x="209" y="-182.5" font-family="Helvetica,sans-Serif" font-size="10.00">integral_constant&lt; std::size</text>
<text text-anchor="middle" x="305.5" y="-171.5" font-family="Helvetica,sans-Serif" font-size="10.00">_t{1}&gt; &gt;, std::decay_t&lt; Policies &gt;... &gt;</text>
</a>
</g>
</g>
<!-- Node0&#45;&gt;Node5 -->
<g id="edge5" class="edge">
<title>Node0&#45;&gt;Node5</title>
<path fill="none" stroke="midnightblue" d="M175.29,-201.5C183.66,-201.5 192.18,-201.5 200.64,-201.5"/>
<polygon fill="midnightblue" stroke="midnightblue" points="175.16,-198 165.16,-201.5 175.16,-205 175.16,-198"/>
</g>
<!-- Node7 -->
<g id="node8" class="node">
<title>Node7</title>
<g id="a_node8"><a xlink:href="classarg__router_1_1tree__node.html" target="_top" xlink:title=" ">
<polygon fill="none" stroke="black" points="224,-49.5 224,-145.5 387,-145.5 387,-49.5 224,-49.5"/>
<text text-anchor="start" x="232" y="-133.5" font-family="Helvetica,sans-Serif" font-size="10.00">arg_router::tree_node</text>
<text text-anchor="start" x="232" y="-122.5" font-family="Helvetica,sans-Serif" font-size="10.00">&lt; policy::default_value</text>
<text text-anchor="start" x="232" y="-111.5" font-family="Helvetica,sans-Serif" font-size="10.00">&lt; bool &gt;, policy::min_max</text>
<text text-anchor="start" x="232" y="-100.5" font-family="Helvetica,sans-Serif" font-size="10.00">_count_t&lt; traits::integral</text>
<text text-anchor="start" x="232" y="-89.5" font-family="Helvetica,sans-Serif" font-size="10.00">_constant&lt; std::size_t{0}&gt;,</text>
<text text-anchor="start" x="232" y="-78.5" font-family="Helvetica,sans-Serif" font-size="10.00"> traits::integral_constant&lt;</text>
<text text-anchor="start" x="232" y="-67.5" font-family="Helvetica,sans-Serif" font-size="10.00"> std::size_t{0}&gt; &gt;, std::decay</text>
<text text-anchor="middle" x="305.5" y="-56.5" font-family="Helvetica,sans-Serif" font-size="10.00">_t&lt; Policies &gt;... &gt;</text>
</a>
</g>
</g>
<!-- Node0&#45;&gt;Node7 -->
<g id="edge7" class="edge">
<title>Node0&#45;&gt;Node7</title>
<path fill="none" stroke="midnightblue" d="M171.8,-159.95C188.98,-151.86 206.9,-143.43 223.82,-135.47"/>
<polygon fill="midnightblue" stroke="midnightblue" points="169.91,-156.97 162.35,-164.39 172.89,-163.3 169.91,-156.97"/>
</g>
<!-- Node9 -->
<g id="node10" class="node">
<title>Node9</title>
<g id="a_node10"><a xlink:href="classarg__router_1_1tree__node.html" target="_top" xlink:title=" ">
<polygon fill="none" stroke="black" points="244.5,-0.5 244.5,-30.5 366.5,-30.5 366.5,-0.5 244.5,-0.5"/>
<text text-anchor="start" x="252.5" y="-18.5" font-family="Helvetica,sans-Serif" font-size="10.00">arg_router::tree_node</text>
<text text-anchor="middle" x="305.5" y="-7.5" font-family="Helvetica,sans-Serif" font-size="10.00">&lt; Params &gt;</text>
</a>
</g>
</g>
<!-- Node0&#45;&gt;Node9 -->
<g id="edge9" class="edge">
<title>Node0&#45;&gt;Node9</title>
<path fill="none" stroke="midnightblue" d="M105.36,-155.16C125.18,-118.22 157.89,-68.09 201,-39.5 213.84,-30.99 229.31,-25.48 244.33,-21.91"/>
<polygon fill="midnightblue" stroke="midnightblue" points="102.14,-153.77 100.6,-164.25 108.34,-157.02 102.14,-153.77"/>
</g>
<!-- Node2 -->
<g id="node3" class="node">
<title>Node2</title>
<g id="a_node3"><a xlink:href="classarg__router_1_1counting__flag__t.html" target="_top" xlink:title=" ">
<polygon fill="none" stroke="black" points="446,-350.5 446,-380.5 567,-380.5 567,-350.5 446,-350.5"/>
<text text-anchor="start" x="454" y="-368.5" font-family="Helvetica,sans-Serif" font-size="10.00">arg_router::counting</text>
<text text-anchor="middle" x="506.5" y="-357.5" font-family="Helvetica,sans-Serif" font-size="10.00">_flag_t&lt; T, Policies &gt;</text>
</a>
</g>
</g>
<!-- Node1&#45;&gt;Node2 -->
<g id="edge2" class="edge">
<title>Node1&#45;&gt;Node2</title>
<path fill="none" stroke="midnightblue" d="M398.04,-365.5C414.24,-365.5 430.71,-365.5 445.74,-365.5"/>
<polygon fill="midnightblue" stroke="midnightblue" points="398.02,-362 388.02,-365.5 398.02,-369 398.02,-362"/>
</g>
<!-- Node4 -->
<g id="node5" class="node">
<title>Node4</title>
<g id="a_node5"><a xlink:href="classarg__router_1_1mode__t.html" target="_top" xlink:title=" ">
<polygon fill="none" stroke="black" points="451.5,-262.5 451.5,-292.5 561.5,-292.5 561.5,-262.5 451.5,-262.5"/>
<text text-anchor="start" x="459.5" y="-280.5" font-family="Helvetica,sans-Serif" font-size="10.00">arg_router::mode_t</text>
<text text-anchor="middle" x="506.5" y="-269.5" font-family="Helvetica,sans-Serif" font-size="10.00">&lt; Params &gt;</text>
</a>
</g>
</g>
<!-- Node3&#45;&gt;Node4 -->
<g id="edge4" class="edge">
<title>Node3&#45;&gt;Node4</title>
<path fill="none" stroke="midnightblue" d="M404.17,-277.5C420.42,-277.5 436.73,-277.5 451.38,-277.5"/>
<polygon fill="midnightblue" stroke="midnightblue" points="404.07,-274 394.07,-277.5 404.07,-281 404.07,-274"/>
</g>
<!-- Node6 -->
<g id="node7" class="node">
<title>Node6</title>
<g id="a_node7"><a xlink:href="classarg__router_1_1arg__t.html" target="_top" xlink:title=" ">
<polygon fill="none" stroke="black" points="453.5,-186.5 453.5,-216.5 559.5,-216.5 559.5,-186.5 453.5,-186.5"/>
<text text-anchor="start" x="461.5" y="-204.5" font-family="Helvetica,sans-Serif" font-size="10.00">arg_router::arg_t&lt;</text>
<text text-anchor="middle" x="506.5" y="-193.5" font-family="Helvetica,sans-Serif" font-size="10.00"> T, Policies &gt;</text>
</a>
</g>
</g>
<!-- Node5&#45;&gt;Node6 -->
<g id="edge6" class="edge">
<title>Node5&#45;&gt;Node6</title>
<path fill="none" stroke="midnightblue" d="M420.25,-201.5C431.77,-201.5 443.02,-201.5 453.38,-201.5"/>
<polygon fill="midnightblue" stroke="midnightblue" points="420.08,-198 410.08,-201.5 420.08,-205 420.08,-198"/>
</g>
<!-- Node8 -->
<g id="node9" class="node">
<title>Node8</title>
<g id="a_node9"><a xlink:href="classarg__router_1_1flag__t.html" target="_top" xlink:title=" ">
<polygon fill="none" stroke="black" points="456.5,-82.5 456.5,-112.5 556.5,-112.5 556.5,-82.5 456.5,-82.5"/>
<text text-anchor="start" x="464.5" y="-100.5" font-family="Helvetica,sans-Serif" font-size="10.00">arg_router::flag_t</text>
<text text-anchor="middle" x="506.5" y="-89.5" font-family="Helvetica,sans-Serif" font-size="10.00">&lt; Policies &gt;</text>
</a>
</g>
</g>
<!-- Node7&#45;&gt;Node8 -->
<g id="edge8" class="edge">
<title>Node7&#45;&gt;Node8</title>
<path fill="none" stroke="midnightblue" d="M397.41,-97.5C417.77,-97.5 438.6,-97.5 456.48,-97.5"/>
<polygon fill="midnightblue" stroke="midnightblue" points="397.15,-94 387.15,-97.5 397.15,-101 397.15,-94"/>
</g>
</g>
</svg>
