<?xml version="1.0" encoding="UTF-8" standalone="no"?>
<!DOCTYPE svg PUBLIC "-//W3C//DTD SVG 1.1//EN"
 "http://www.w3.org/Graphics/SVG/1.1/DTD/svg11.dtd">
<!-- Generated by graphviz version 2.43.0 (0)
 -->
<!-- Title: Graphical Class Hierarchy Pages: 1 -->
<svg width="538pt" height="471pt"
 viewBox="0.00 0.00 538.00 471.00" xmlns="http://www.w3.org/2000/svg" xmlns:xlink="http://www.w3.org/1999/xlink">
<g id="graph0" class="graph" transform="scale(1 1) rotate(0) translate(4 467)">
<title>Graphical Class Hierarchy</title>
<polygon fill="white" stroke="transparent" points="-4,4 -4,-467 534,-467 534,4 -4,4"/>
<!-- Node0 -->
<g id="node1" class="node">
<title>Node0</title>
<g id="a_node1"><a xlink:href="classarg__router_1_1traits_1_1unpack__and__derive.html" target="_top" xlink:title=" ">
<polygon fill="white" stroke="black" points="0,-227 0,-290 138,-290 138,-227 0,-227"/>
<text text-anchor="start" x="8" y="-278" font-family="Helvetica,sans-Serif" font-size="10.00">arg_router::traits</text>
<text text-anchor="start" x="8" y="-267" font-family="Helvetica,sans-Serif" font-size="10.00">::unpack_and_derive</text>
<text text-anchor="start" x="8" y="-256" font-family="Helvetica,sans-Serif" font-size="10.00">&lt; boost::mp11::mp_filter</text>
<text text-anchor="start" x="8" y="-245" font-family="Helvetica,sans-Serif" font-size="10.00">&lt; policy::is_policy, std</text>
<text text-anchor="middle" x="69" y="-234" font-family="Helvetica,sans-Serif" font-size="10.00">::tuple&lt; Params... &gt; &gt; &gt;</text>
</a>
</g>
</g>
<!-- Node1 -->
<g id="node2" class="node">
<title>Node1</title>
<g id="a_node2"><a xlink:href="classarg__router_1_1tree__node.html" target="_top" xlink:title=" ">
<polygon fill="white" stroke="black" points="207,-432.5 207,-462.5 329,-462.5 329,-432.5 207,-432.5"/>
<text text-anchor="start" x="215" y="-450.5" font-family="Helvetica,sans-Serif" font-size="10.00">arg_router::tree_node</text>
<text text-anchor="middle" x="268" y="-439.5" font-family="Helvetica,sans-Serif" font-size="10.00">&lt; Params &gt;</text>
</a>
</g>
</g>
<!-- Node0&#45;&gt;Node1 -->
<g id="edge1" class="edge">
<title>Node0&#45;&gt;Node1</title>
<path fill="none" stroke="midnightblue" d="M85.52,-299.73C101.85,-337.54 131.19,-392.26 174,-423.5 183.7,-430.58 195.3,-435.57 206.96,-439.1"/>
<polygon fill="midnightblue" stroke="midnightblue" points="88.54,-297.9 81.45,-290.03 82.09,-300.61 88.54,-297.9"/>
</g>
<!-- Node2 -->
<g id="node3" class="node">
<title>Node2</title>
<g id="a_node3"><a xlink:href="classarg__router_1_1tree__node.html" target="_top" xlink:title=" ">
<polygon fill="white" stroke="black" points="207,-383.5 207,-413.5 329,-413.5 329,-383.5 207,-383.5"/>
<text text-anchor="start" x="215" y="-401.5" font-family="Helvetica,sans-Serif" font-size="10.00">arg_router::tree_node</text>
<text text-anchor="middle" x="268" y="-390.5" font-family="Helvetica,sans-Serif" font-size="10.00">&lt; Params... &gt;</text>
</a>
</g>
</g>
<!-- Node0&#45;&gt;Node2 -->
<g id="edge2" class="edge">
<title>Node0&#45;&gt;Node2</title>
<path fill="none" stroke="midnightblue" d="M96.36,-298.41C115.13,-323.8 142.54,-355.38 174,-374.5 183.97,-380.56 195.45,-385.11 206.85,-388.5"/>
<polygon fill="midnightblue" stroke="midnightblue" points="99.03,-296.12 90.34,-290.07 93.36,-300.22 99.03,-296.12"/>
</g>
<!-- Node4 -->
<g id="node5" class="node">
<title>Node4</title>
<g id="a_node5"><a xlink:href="classarg__router_1_1tree__node.html" target="_top" xlink:title=" ">
<polygon fill="white" stroke="black" points="207,-334.5 207,-364.5 329,-364.5 329,-334.5 207,-334.5"/>
<text text-anchor="start" x="215" y="-352.5" font-family="Helvetica,sans-Serif" font-size="10.00">arg_router::tree_node</text>
<text text-anchor="middle" x="268" y="-341.5" font-family="Helvetica,sans-Serif" font-size="10.00">&lt; Policies... &gt;</text>
</a>
</g>
</g>
<!-- Node0&#45;&gt;Node4 -->
<g id="edge4" class="edge">
<title>Node0&#45;&gt;Node4</title>
<path fill="none" stroke="midnightblue" d="M121.87,-295.75C138.01,-306.14 156.24,-316.7 174,-324.5 184.26,-329.01 195.51,-332.87 206.55,-336.11"/>
<polygon fill="midnightblue" stroke="midnightblue" points="123.42,-292.58 113.14,-290.02 119.58,-298.44 123.42,-292.58"/>
</g>
<!-- Node6 -->
<g id="node7" class="node">
<title>Node6</title>
<g id="a_node7"><a xlink:href="classarg__router_1_1tree__node.html" target="_top" xlink:title=" ">
<polygon fill="white" stroke="black" points="203.5,-274 203.5,-315 332.5,-315 332.5,-274 203.5,-274"/>
<text text-anchor="start" x="211.5" y="-303" font-family="Helvetica,sans-Serif" font-size="10.00">arg_router::tree_node</text>
<text text-anchor="start" x="211.5" y="-292" font-family="Helvetica,sans-Serif" font-size="10.00">&lt; policy::default_value</text>
<text text-anchor="middle" x="268" y="-281" font-family="Helvetica,sans-Serif" font-size="10.00">&lt; bool &gt;, Policies... &gt;</text>
</a>
</g>
</g>
<!-- Node0&#45;&gt;Node6 -->
<g id="edge6" class="edge">
<title>Node0&#45;&gt;Node6</title>
<path fill="none" stroke="midnightblue" d="M148.11,-272.77C166.4,-276.12 185.66,-279.64 203.23,-282.85"/>
<polygon fill="midnightblue" stroke="midnightblue" points="148.54,-269.29 138.07,-270.94 147.28,-276.18 148.54,-269.29"/>
</g>
<!-- Node8 -->
<g id="node9" class="node">
<title>Node8</title>
<g id="a_node9"><a xlink:href="classarg__router_1_1tree__node.html" target="_top" xlink:title=" ">
<polygon fill="white" stroke="black" points="174,-192 174,-255 362,-255 362,-192 174,-192"/>
<text text-anchor="start" x="182" y="-243" font-family="Helvetica,sans-Serif" font-size="10.00">arg_router::tree_node</text>
<text text-anchor="start" x="182" y="-232" font-family="Helvetica,sans-Serif" font-size="10.00">&lt; policy::display_name</text>
<text text-anchor="start" x="182" y="-221" font-family="Helvetica,sans-Serif" font-size="10.00">_t&lt; detail::one_of_generate</text>
<text text-anchor="start" x="182" y="-210" font-family="Helvetica,sans-Serif" font-size="10.00">_string_of_child_names&lt; Params...</text>
<text text-anchor="middle" x="268" y="-199" font-family="Helvetica,sans-Serif" font-size="10.00"> &gt;::type &gt;, Params... &gt;</text>
</a>
</g>
</g>
<!-- Node0&#45;&gt;Node8 -->
<g id="edge8" class="edge">
<title>Node0&#45;&gt;Node8</title>
<path fill="none" stroke="midnightblue" d="M147.96,-244.65C156.49,-243.13 165.22,-241.58 173.9,-240.04"/>
<polygon fill="midnightblue" stroke="midnightblue" points="147.31,-241.21 138.07,-246.41 148.53,-248.1 147.31,-241.21"/>
</g>
<!-- Node10 -->
<g id="node11" class="node">
<title>Node10</title>
<g id="a_node11"><a xlink:href="classarg__router_1_1tree__node.html" target="_top" xlink:title=" ">
<polygon fill="white" stroke="black" points="184,-132 184,-173 352,-173 352,-132 184,-132"/>
<text text-anchor="start" x="192" y="-161" font-family="Helvetica,sans-Serif" font-size="10.00">arg_router::tree_node</text>
<text text-anchor="start" x="192" y="-150" font-family="Helvetica,sans-Serif" font-size="10.00">&lt; policy::multi_stage</text>
<text text-anchor="middle" x="268" y="-139" font-family="Helvetica,sans-Serif" font-size="10.00">_value&lt; T, bool &gt;, Policies... &gt;</text>
</a>
</g>
</g>
<!-- Node0&#45;&gt;Node10 -->
<g id="edge10" class="edge">
<title>Node0&#45;&gt;Node10</title>
<path fill="none" stroke="midnightblue" d="M115.43,-220.43C132.93,-207.11 153.63,-192.89 174,-182.5 180.65,-179.11 187.76,-176 194.98,-173.17"/>
<polygon fill="midnightblue" stroke="midnightblue" points="112.87,-217.99 107.11,-226.89 117.15,-223.53 112.87,-217.99"/>
</g>
<!-- Node12 -->
<g id="node13" class="node">
<title>Node12</title>
<g id="a_node13"><a xlink:href="classarg__router_1_1tree__node.html" target="_top" xlink:title=" ">
<polygon fill="white" stroke="black" points="198,-72 198,-113 338,-113 338,-72 198,-72"/>
<text text-anchor="start" x="206" y="-101" font-family="Helvetica,sans-Serif" font-size="10.00">arg_router::tree_node</text>
<text text-anchor="start" x="206" y="-90" font-family="Helvetica,sans-Serif" font-size="10.00">&lt; policy::no_result_value</text>
<text text-anchor="middle" x="268" y="-79" font-family="Helvetica,sans-Serif" font-size="10.00">&lt;&gt;, Params... &gt;</text>
</a>
</g>
</g>
<!-- Node0&#45;&gt;Node12 -->
<g id="edge12" class="edge">
<title>Node0&#45;&gt;Node12</title>
<path fill="none" stroke="midnightblue" d="M91.78,-218.1C110.04,-187.79 138.76,-147.4 174,-122.5 181.21,-117.41 189.32,-113.15 197.68,-109.59"/>
<polygon fill="midnightblue" stroke="midnightblue" points="88.74,-216.36 86.69,-226.75 94.78,-219.91 88.74,-216.36"/>
</g>
<!-- Node14 -->
<g id="node15" class="node">
<title>Node14</title>
<g id="a_node15"><a xlink:href="classarg__router_1_1tree__node.html" target="_top" xlink:title=" ">
<polygon fill="white" stroke="black" points="198,-0.5 198,-52.5 338,-52.5 338,-0.5 198,-0.5"/>
<text text-anchor="start" x="206" y="-40.5" font-family="Helvetica,sans-Serif" font-size="10.00">arg_router::tree_node</text>
<text text-anchor="start" x="206" y="-29.5" font-family="Helvetica,sans-Serif" font-size="10.00">&lt; std::decay_t&lt; decltype</text>
<text text-anchor="start" x="206" y="-18.5" font-family="Helvetica,sans-Serif" font-size="10.00">(policy::fixed_count&lt; 1</text>
<text text-anchor="middle" x="268" y="-7.5" font-family="Helvetica,sans-Serif" font-size="10.00"> &gt;)&gt;, Policies... &gt;</text>
</a>
</g>
</g>
<!-- Node0&#45;&gt;Node14 -->
<g id="edge14" class="edge">
<title>Node0&#45;&gt;Node14</title>
<path fill="none" stroke="midnightblue" d="M82.19,-217.45C97.17,-173.55 126.6,-104.59 174,-62.5 180.99,-56.29 189.17,-51.1 197.73,-46.78"/>
<polygon fill="midnightblue" stroke="midnightblue" points="78.86,-216.37 79.03,-226.96 85.5,-218.57 78.86,-216.37"/>
</g>
<!-- Node3 -->
<g id="node4" class="node">
<title>Node3</title>
<g id="a_node4"><a xlink:href="classarg__router_1_1root__t.html" target="_top" xlink:title=" ">
<polygon fill="white" stroke="black" points="413.5,-383.5 413.5,-413.5 514.5,-413.5 514.5,-383.5 413.5,-383.5"/>
<text text-anchor="start" x="421.5" y="-401.5" font-family="Helvetica,sans-Serif" font-size="10.00">arg_router::root_t</text>
<text text-anchor="middle" x="464" y="-390.5" font-family="Helvetica,sans-Serif" font-size="10.00">&lt; Params &gt;</text>
</a>
</g>
</g>
<!-- Node2&#45;&gt;Node3 -->
<g id="edge3" class="edge">
<title>Node2&#45;&gt;Node3</title>
<path fill="none" stroke="midnightblue" d="M339.06,-398.5C363.65,-398.5 390.75,-398.5 413.32,-398.5"/>
<polygon fill="midnightblue" stroke="midnightblue" points="339.05,-395 329.05,-398.5 339.05,-402 339.05,-395"/>
</g>
<!-- Node5 -->
<g id="node6" class="node">
<title>Node5</title>
<g id="a_node6"><a xlink:href="classarg__router_1_1positional__arg__t.html" target="_top" xlink:title=" ">
<polygon fill="white" stroke="black" points="403.5,-334.5 403.5,-364.5 524.5,-364.5 524.5,-334.5 403.5,-334.5"/>
<text text-anchor="start" x="411.5" y="-352.5" font-family="Helvetica,sans-Serif" font-size="10.00">arg_router::positional</text>
<text text-anchor="middle" x="464" y="-341.5" font-family="Helvetica,sans-Serif" font-size="10.00">_arg_t&lt; T, Policies &gt;</text>
</a>
</g>
</g>
<!-- Node4&#45;&gt;Node5 -->
<g id="edge5" class="edge">
<title>Node4&#45;&gt;Node5</title>
<path fill="none" stroke="midnightblue" d="M339.19,-349.5C360.18,-349.5 382.98,-349.5 403.23,-349.5"/>
<polygon fill="midnightblue" stroke="midnightblue" points="339.05,-346 329.05,-349.5 339.05,-353 339.05,-346"/>
</g>
<!-- Node7 -->
<g id="node8" class="node">
<title>Node7</title>
<g id="a_node8"><a xlink:href="classarg__router_1_1flag__t.html" target="_top" xlink:title=" ">
<polygon fill="white" stroke="black" points="414,-279.5 414,-309.5 514,-309.5 514,-279.5 414,-279.5"/>
<text text-anchor="start" x="422" y="-297.5" font-family="Helvetica,sans-Serif" font-size="10.00">arg_router::flag_t</text>
<text text-anchor="middle" x="464" y="-286.5" font-family="Helvetica,sans-Serif" font-size="10.00">&lt; Policies &gt;</text>
</a>
</g>
</g>
<!-- Node6&#45;&gt;Node7 -->
<g id="edge7" class="edge">
<title>Node6&#45;&gt;Node7</title>
<path fill="none" stroke="midnightblue" d="M342.59,-294.5C366.39,-294.5 392.2,-294.5 413.8,-294.5"/>
<polygon fill="midnightblue" stroke="midnightblue" points="342.52,-291 332.52,-294.5 342.52,-298 342.52,-291"/>
</g>
<!-- Node9 -->
<g id="node10" class="node">
<title>Node9</title>
<g id="a_node10"><a xlink:href="classarg__router_1_1dependency_1_1one__of__t.html" target="_top" xlink:title=" ">
<polygon fill="white" stroke="black" points="398,-208.5 398,-238.5 530,-238.5 530,-208.5 398,-208.5"/>
<text text-anchor="start" x="406" y="-226.5" font-family="Helvetica,sans-Serif" font-size="10.00">arg_router::dependency</text>
<text text-anchor="middle" x="464" y="-215.5" font-family="Helvetica,sans-Serif" font-size="10.00">::one_of_t&lt; Params &gt;</text>
</a>
</g>
</g>
<!-- Node8&#45;&gt;Node9 -->
<g id="edge9" class="edge">
<title>Node8&#45;&gt;Node9</title>
<path fill="none" stroke="midnightblue" d="M372.28,-223.5C381.01,-223.5 389.67,-223.5 397.97,-223.5"/>
<polygon fill="midnightblue" stroke="midnightblue" points="372.02,-220 362.02,-223.5 372.02,-227 372.02,-220"/>
</g>
<!-- Node11 -->
<g id="node12" class="node">
<title>Node11</title>
<g id="a_node12"><a xlink:href="classarg__router_1_1counting__flag__t.html" target="_top" xlink:title=" ">
<polygon fill="white" stroke="black" points="403.5,-137.5 403.5,-167.5 524.5,-167.5 524.5,-137.5 403.5,-137.5"/>
<text text-anchor="start" x="411.5" y="-155.5" font-family="Helvetica,sans-Serif" font-size="10.00">arg_router::counting</text>
<text text-anchor="middle" x="464" y="-144.5" font-family="Helvetica,sans-Serif" font-size="10.00">_flag_t&lt; T, Policies &gt;</text>
</a>
</g>
</g>
<!-- Node10&#45;&gt;Node11 -->
<g id="edge11" class="edge">
<title>Node10&#45;&gt;Node11</title>
<path fill="none" stroke="midnightblue" d="M362.29,-152.5C376.32,-152.5 390.44,-152.5 403.5,-152.5"/>
<polygon fill="midnightblue" stroke="midnightblue" points="362.12,-149 352.12,-152.5 362.12,-156 362.12,-149"/>
</g>
<!-- Node13 -->
<g id="node14" class="node">
<title>Node13</title>
<g id="a_node14"><a xlink:href="classarg__router_1_1mode__t.html" target="_top" xlink:title=" ">
<polygon fill="white" stroke="black" points="409,-77.5 409,-107.5 519,-107.5 519,-77.5 409,-77.5"/>
<text text-anchor="start" x="417" y="-95.5" font-family="Helvetica,sans-Serif" font-size="10.00">arg_router::mode_t</text>
<text text-anchor="middle" x="464" y="-84.5" font-family="Helvetica,sans-Serif" font-size="10.00">&lt; Params &gt;</text>
</a>
</g>
</g>
<!-- Node12&#45;&gt;Node13 -->
<g id="edge13" class="edge">
<title>Node12&#45;&gt;Node13</title>
<path fill="none" stroke="midnightblue" d="M348.39,-92.5C368.69,-92.5 390.04,-92.5 408.75,-92.5"/>
<polygon fill="midnightblue" stroke="midnightblue" points="348.22,-89 338.22,-92.5 348.22,-96 348.22,-89"/>
</g>
<!-- Node15 -->
<g id="node16" class="node">
<title>Node15</title>
<g id="a_node16"><a xlink:href="classarg__router_1_1arg__t.html" target="_top" xlink:title=" ">
<polygon fill="white" stroke="black" points="411,-11.5 411,-41.5 517,-41.5 517,-11.5 411,-11.5"/>
<text text-anchor="start" x="419" y="-29.5" font-family="Helvetica,sans-Serif" font-size="10.00">arg_router::arg_t&lt;</text>
<text text-anchor="middle" x="464" y="-18.5" font-family="Helvetica,sans-Serif" font-size="10.00"> T, Policies &gt;</text>
</a>
</g>
</g>
<!-- Node14&#45;&gt;Node15 -->
<g id="edge15" class="edge">
<title>Node14&#45;&gt;Node15</title>
<path fill="none" stroke="midnightblue" d="M348.44,-26.5C369.5,-26.5 391.7,-26.5 410.89,-26.5"/>
<polygon fill="midnightblue" stroke="midnightblue" points="348.22,-23 338.22,-26.5 348.22,-30 348.22,-23"/>
</g>
</g>
</svg>
