<?xml version="1.0" encoding="UTF-8" standalone="no"?>
<!DOCTYPE svg PUBLIC "-//W3C//DTD SVG 1.1//EN"
 "http://www.w3.org/Graphics/SVG/1.1/DTD/svg11.dtd">
<!-- Generated by graphviz version 2.43.0 (0)
 -->
<!-- Title: Graphical Class Hierarchy Pages: 1 -->
<svg width="567pt" height="28pt"
 viewBox="0.00 0.00 567.00 28.00" xmlns="http://www.w3.org/2000/svg" xmlns:xlink="http://www.w3.org/1999/xlink">
<g id="graph0" class="graph" transform="scale(1 1) rotate(0) translate(4 24)">
<title>Graphical Class Hierarchy</title>
<polygon fill="white" stroke="transparent" points="-4,4 -4,-24 563,-24 563,4 -4,4"/>
<!-- Node114 -->
<g id="node1" class="node">
<title>Node114</title>
<g id="a_node1"><a xlink:title="STL class.">
<polygon fill="white" stroke="#bfbfbf" points="0,-0.5 0,-19.5 86,-19.5 86,-0.5 0,-0.5"/>
<text text-anchor="middle" x="43" y="-7.5" font-family="Helvetica,sans-Serif" font-size="10.00">std::exception</text>
</a>
</g>
</g>
<!-- Node115 -->
<g id="node2" class="node">
<title>Node115</title>
<g id="a_node2"><a xlink:title="STL class.">
<polygon fill="white" stroke="#bfbfbf" points="122,-0.5 122,-19.5 211,-19.5 211,-0.5 122,-0.5"/>
<text text-anchor="middle" x="166.5" y="-7.5" font-family="Helvetica,sans-Serif" font-size="10.00">std::logic_error</text>
</a>
</g>
</g>
<!-- Node114&#45;&gt;Node115 -->
<g id="edge1" class="edge">
<title>Node114&#45;&gt;Node115</title>
<path fill="none" stroke="midnightblue" d="M96.34,-10C104.82,-10 113.52,-10 121.77,-10"/>
<polygon fill="midnightblue" stroke="midnightblue" points="96.15,-6.5 86.15,-10 96.15,-13.5 96.15,-6.5"/>
</g>
<!-- Node116 -->
<g id="node3" class="node">
<title>Node116</title>
<g id="a_node3"><a xlink:title="STL class.">
<polygon fill="white" stroke="#bfbfbf" points="247,-0.5 247,-19.5 370,-19.5 370,-0.5 247,-0.5"/>
<text text-anchor="middle" x="308.5" y="-7.5" font-family="Helvetica,sans-Serif" font-size="10.00">std::invalid_argument</text>
</a>
</g>
</g>
<!-- Node115&#45;&gt;Node116 -->
<g id="edge2" class="edge">
<title>Node115&#45;&gt;Node116</title>
<path fill="none" stroke="midnightblue" d="M221.08,-10C229.49,-10 238.22,-10 246.78,-10"/>
<polygon fill="midnightblue" stroke="midnightblue" points="221.03,-6.5 211.03,-10 221.03,-13.5 221.03,-6.5"/>
</g>
<!-- Node0 -->
<g id="node4" class="node">
<title>Node0</title>
<g id="a_node4"><a xlink:href="classarg__router_1_1parse__exception.html" target="_top" xlink:title=" ">
<polygon fill="white" stroke="black" points="406,-0.5 406,-19.5 559,-19.5 559,-0.5 406,-0.5"/>
<text text-anchor="middle" x="482.5" y="-7.5" font-family="Helvetica,sans-Serif" font-size="10.00">arg_router::parse_exception</text>
</a>
</g>
</g>
<!-- Node116&#45;&gt;Node0 -->
<g id="edge3" class="edge">
<title>Node116&#45;&gt;Node0</title>
<path fill="none" stroke="midnightblue" d="M380.27,-10C388.67,-10 397.27,-10 405.73,-10"/>
<polygon fill="midnightblue" stroke="midnightblue" points="380.14,-6.5 370.14,-10 380.14,-13.5 380.14,-6.5"/>
</g>
</g>
</svg>
