<?xml version="1.0" encoding="UTF-8" standalone="no"?>
<!DOCTYPE svg PUBLIC "-//W3C//DTD SVG 1.1//EN"
 "http://www.w3.org/Graphics/SVG/1.1/DTD/svg11.dtd">
<!-- Generated by graphviz version 2.43.0 (0)
 -->
<!-- Title: Graphical Class Hierarchy Pages: 1 -->
<svg width="515pt" height="313pt"
 viewBox="0.00 0.00 515.00 312.50" xmlns="http://www.w3.org/2000/svg" xmlns:xlink="http://www.w3.org/1999/xlink">
<g id="graph0" class="graph" transform="scale(1 1) rotate(0) translate(4 308.5)">
<title>Graphical Class Hierarchy</title>
<polygon fill="white" stroke="transparent" points="-4,4 -4,-308.5 511,-308.5 511,4 -4,4"/>
<!-- Node0 -->
<g id="node1" class="node">
<title>Node0</title>
<g id="a_node1"><a xlink:href="classarg__router_1_1traits_1_1unpack__and__derive.html" target="_top" xlink:title=" ">
<polygon fill="white" stroke="black" points="0,-142.5 0,-205.5 138,-205.5 138,-142.5 0,-142.5"/>
<text text-anchor="start" x="8" y="-193.5" font-family="Helvetica,sans-Serif" font-size="10.00">arg_router::traits</text>
<text text-anchor="start" x="8" y="-182.5" font-family="Helvetica,sans-Serif" font-size="10.00">::unpack_and_derive</text>
<text text-anchor="start" x="8" y="-171.5" font-family="Helvetica,sans-Serif" font-size="10.00">&lt; boost::mp11::mp_filter</text>
<text text-anchor="start" x="8" y="-160.5" font-family="Helvetica,sans-Serif" font-size="10.00">&lt; policy::is_policy, std</text>
<text text-anchor="middle" x="69" y="-149.5" font-family="Helvetica,sans-Serif" font-size="10.00">::tuple&lt; Params... &gt; &gt; &gt;</text>
</a>
</g>
</g>
<!-- Node1 -->
<g id="node2" class="node">
<title>Node1</title>
<g id="a_node2"><a xlink:href="classarg__router_1_1tree__node.html" target="_top" xlink:title=" ">
<polygon fill="white" stroke="black" points="201,-274 201,-304 323,-304 323,-274 201,-274"/>
<text text-anchor="start" x="209" y="-292" font-family="Helvetica,sans-Serif" font-size="10.00">arg_router::tree_node</text>
<text text-anchor="middle" x="262" y="-281" font-family="Helvetica,sans-Serif" font-size="10.00">&lt; Params &gt;</text>
</a>
</g>
</g>
<!-- Node0&#45;&gt;Node1 -->
<g id="edge1" class="edge">
<title>Node0&#45;&gt;Node1</title>
<path fill="none" stroke="midnightblue" d="M106.21,-212.98C124.91,-231.09 149.01,-251.54 174,-265 182.28,-269.46 191.45,-273.14 200.65,-276.18"/>
<polygon fill="midnightblue" stroke="midnightblue" points="108.63,-210.46 99.06,-205.92 103.71,-215.44 108.63,-210.46"/>
</g>
<!-- Node2 -->
<g id="node3" class="node">
<title>Node2</title>
<g id="a_node3"><a xlink:href="classarg__router_1_1tree__node.html" target="_top" xlink:title=" ">
<polygon fill="white" stroke="black" points="201,-225 201,-255 323,-255 323,-225 201,-225"/>
<text text-anchor="start" x="209" y="-243" font-family="Helvetica,sans-Serif" font-size="10.00">arg_router::tree_node</text>
<text text-anchor="middle" x="262" y="-232" font-family="Helvetica,sans-Serif" font-size="10.00">&lt; Params... &gt;</text>
</a>
</g>
</g>
<!-- Node0&#45;&gt;Node2 -->
<g id="edge2" class="edge">
<title>Node0&#45;&gt;Node2</title>
<path fill="none" stroke="midnightblue" d="M147.71,-205.57C156.53,-208.88 165.43,-212.09 174,-215 184.12,-218.44 195,-221.82 205.52,-224.92"/>
<polygon fill="midnightblue" stroke="midnightblue" points="148.78,-202.23 138.18,-201.96 146.29,-208.78 148.78,-202.23"/>
</g>
<!-- Node5 -->
<g id="node6" class="node">
<title>Node5</title>
<g id="a_node6"><a xlink:href="classarg__router_1_1tree__node.html" target="_top" xlink:title=" ">
<polygon fill="white" stroke="black" points="174,-142.5 174,-205.5 350,-205.5 350,-142.5 174,-142.5"/>
<text text-anchor="start" x="182" y="-193.5" font-family="Helvetica,sans-Serif" font-size="10.00">arg_router::tree_node</text>
<text text-anchor="start" x="182" y="-182.5" font-family="Helvetica,sans-Serif" font-size="10.00">&lt; policy::default_value</text>
<text text-anchor="start" x="182" y="-171.5" font-family="Helvetica,sans-Serif" font-size="10.00">&lt; bool &gt;, policy::count</text>
<text text-anchor="start" x="182" y="-160.5" font-family="Helvetica,sans-Serif" font-size="10.00">_t&lt; std::integral_constant</text>
<text text-anchor="middle" x="262" y="-149.5" font-family="Helvetica,sans-Serif" font-size="10.00">&lt; std::size_t, 0 &gt; &gt;, Policies... &gt;</text>
</a>
</g>
</g>
<!-- Node0&#45;&gt;Node5 -->
<g id="edge5" class="edge">
<title>Node0&#45;&gt;Node5</title>
<path fill="none" stroke="midnightblue" d="M148.31,-174C156.73,-174 165.34,-174 173.85,-174"/>
<polygon fill="midnightblue" stroke="midnightblue" points="148.15,-170.5 138.15,-174 148.15,-177.5 148.15,-170.5"/>
</g>
<!-- Node7 -->
<g id="node8" class="node">
<title>Node7</title>
<g id="a_node8"><a xlink:href="classarg__router_1_1tree__node.html" target="_top" xlink:title=" ">
<polygon fill="white" stroke="black" points="182.5,-82.5 182.5,-123.5 341.5,-123.5 341.5,-82.5 182.5,-82.5"/>
<text text-anchor="start" x="190.5" y="-111.5" font-family="Helvetica,sans-Serif" font-size="10.00">arg_router::tree_node</text>
<text text-anchor="start" x="190.5" y="-100.5" font-family="Helvetica,sans-Serif" font-size="10.00">&lt; policy::has_contiguous</text>
<text text-anchor="middle" x="262" y="-89.5" font-family="Helvetica,sans-Serif" font-size="10.00">_value_tokens_t, Policies... &gt;</text>
</a>
</g>
</g>
<!-- Node0&#45;&gt;Node7 -->
<g id="edge7" class="edge">
<title>Node0&#45;&gt;Node7</title>
<path fill="none" stroke="midnightblue" d="M147.66,-142.96C156.52,-139.54 165.44,-136.16 174,-133 182.39,-129.9 191.28,-126.72 200.04,-123.65"/>
<polygon fill="midnightblue" stroke="midnightblue" points="146.15,-139.79 138.09,-146.67 148.68,-146.32 146.15,-139.79"/>
</g>
<!-- Node9 -->
<g id="node10" class="node">
<title>Node9</title>
<g id="a_node10"><a xlink:href="classarg__router_1_1tree__node.html" target="_top" xlink:title=" ">
<polygon fill="white" stroke="black" points="187.5,-0.5 187.5,-63.5 336.5,-63.5 336.5,-0.5 187.5,-0.5"/>
<text text-anchor="start" x="195.5" y="-51.5" font-family="Helvetica,sans-Serif" font-size="10.00">arg_router::tree_node</text>
<text text-anchor="start" x="195.5" y="-40.5" font-family="Helvetica,sans-Serif" font-size="10.00">&lt; policy::has_value_tokens</text>
<text text-anchor="start" x="195.5" y="-29.5" font-family="Helvetica,sans-Serif" font-size="10.00">_t, policy::count_t&lt; std</text>
<text text-anchor="start" x="195.5" y="-18.5" font-family="Helvetica,sans-Serif" font-size="10.00">::integral_constant&lt; std::</text>
<text text-anchor="middle" x="262" y="-7.5" font-family="Helvetica,sans-Serif" font-size="10.00">size_t, 1 &gt; &gt;, Policies... &gt;</text>
</a>
</g>
</g>
<!-- Node0&#45;&gt;Node9 -->
<g id="edge9" class="edge">
<title>Node0&#45;&gt;Node9</title>
<path fill="none" stroke="midnightblue" d="M104.32,-134.94C123.44,-114.73 148.49,-90.66 174,-73 178.67,-69.77 183.63,-66.67 188.73,-63.73"/>
<polygon fill="midnightblue" stroke="midnightblue" points="101.55,-132.77 97.29,-142.47 106.67,-137.55 101.55,-132.77"/>
</g>
<!-- Node3 -->
<g id="node4" class="node">
<title>Node3</title>
<g id="a_node4"><a xlink:href="classarg__router_1_1mode__t.html" target="_top" xlink:title=" ">
<polygon fill="white" stroke="black" points="391.5,-265 391.5,-295 501.5,-295 501.5,-265 391.5,-265"/>
<text text-anchor="start" x="399.5" y="-283" font-family="Helvetica,sans-Serif" font-size="10.00">arg_router::mode_t</text>
<text text-anchor="middle" x="446.5" y="-272" font-family="Helvetica,sans-Serif" font-size="10.00">&lt; Params &gt;</text>
</a>
</g>
</g>
<!-- Node2&#45;&gt;Node3 -->
<g id="edge3" class="edge">
<title>Node2&#45;&gt;Node3</title>
<path fill="none" stroke="midnightblue" d="M332.98,-255.34C352.32,-259.58 373.01,-264.11 391.31,-268.12"/>
<polygon fill="midnightblue" stroke="midnightblue" points="333.53,-251.88 323.01,-253.15 332.03,-258.71 333.53,-251.88"/>
</g>
<!-- Node4 -->
<g id="node5" class="node">
<title>Node4</title>
<g id="a_node5"><a xlink:href="classarg__router_1_1root__t.html" target="_top" xlink:title=" ">
<polygon fill="white" stroke="black" points="396,-216 396,-246 497,-246 497,-216 396,-216"/>
<text text-anchor="start" x="404" y="-234" font-family="Helvetica,sans-Serif" font-size="10.00">arg_router::root_t</text>
<text text-anchor="middle" x="446.5" y="-223" font-family="Helvetica,sans-Serif" font-size="10.00">&lt; Params &gt;</text>
</a>
</g>
</g>
<!-- Node2&#45;&gt;Node4 -->
<g id="edge4" class="edge">
<title>Node2&#45;&gt;Node4</title>
<path fill="none" stroke="midnightblue" d="M333.13,-236.54C354.03,-235.51 376.5,-234.4 395.81,-233.45"/>
<polygon fill="midnightblue" stroke="midnightblue" points="332.83,-233.05 323.01,-237.04 333.17,-240.04 332.83,-233.05"/>
</g>
<!-- Node6 -->
<g id="node7" class="node">
<title>Node6</title>
<g id="a_node7"><a xlink:href="classarg__router_1_1flag__t.html" target="_top" xlink:title=" ">
<polygon fill="white" stroke="black" points="396.5,-159 396.5,-189 496.5,-189 496.5,-159 396.5,-159"/>
<text text-anchor="start" x="404.5" y="-177" font-family="Helvetica,sans-Serif" font-size="10.00">arg_router::flag_t</text>
<text text-anchor="middle" x="446.5" y="-166" font-family="Helvetica,sans-Serif" font-size="10.00">&lt; Policies &gt;</text>
</a>
</g>
</g>
<!-- Node5&#45;&gt;Node6 -->
<g id="edge6" class="edge">
<title>Node5&#45;&gt;Node6</title>
<path fill="none" stroke="midnightblue" d="M360.59,-174C372.89,-174 385.03,-174 396.12,-174"/>
<polygon fill="midnightblue" stroke="midnightblue" points="360.24,-170.5 350.24,-174 360.24,-177.5 360.24,-170.5"/>
</g>
<!-- Node8 -->
<g id="node9" class="node">
<title>Node8</title>
<g id="a_node9"><a xlink:href="classarg__router_1_1positional__arg__t.html" target="_top" xlink:title=" ">
<polygon fill="white" stroke="black" points="386,-88 386,-118 507,-118 507,-88 386,-88"/>
<text text-anchor="start" x="394" y="-106" font-family="Helvetica,sans-Serif" font-size="10.00">arg_router::positional</text>
<text text-anchor="middle" x="446.5" y="-95" font-family="Helvetica,sans-Serif" font-size="10.00">_arg_t&lt; T, Policies &gt;</text>
</a>
</g>
</g>
<!-- Node7&#45;&gt;Node8 -->
<g id="edge8" class="edge">
<title>Node7&#45;&gt;Node8</title>
<path fill="none" stroke="midnightblue" d="M351.8,-103C363.31,-103 374.87,-103 385.75,-103"/>
<polygon fill="midnightblue" stroke="midnightblue" points="351.72,-99.5 341.72,-103 351.72,-106.5 351.72,-99.5"/>
</g>
<!-- Node10 -->
<g id="node11" class="node">
<title>Node10</title>
<g id="a_node11"><a xlink:href="classarg__router_1_1arg__t.html" target="_top" xlink:title=" ">
<polygon fill="white" stroke="black" points="393.5,-17 393.5,-47 499.5,-47 499.5,-17 393.5,-17"/>
<text text-anchor="start" x="401.5" y="-35" font-family="Helvetica,sans-Serif" font-size="10.00">arg_router::arg_t&lt;</text>
<text text-anchor="middle" x="446.5" y="-24" font-family="Helvetica,sans-Serif" font-size="10.00"> T, Policies &gt;</text>
</a>
</g>
</g>
<!-- Node9&#45;&gt;Node10 -->
<g id="edge10" class="edge">
<title>Node9&#45;&gt;Node10</title>
<path fill="none" stroke="midnightblue" d="M347.02,-32C362.82,-32 378.92,-32 393.39,-32"/>
<polygon fill="midnightblue" stroke="midnightblue" points="346.7,-28.5 336.7,-32 346.7,-35.5 346.7,-28.5"/>
</g>
</g>
</svg>
