<?xml version="1.0" encoding="UTF-8" standalone="no"?>
<!DOCTYPE svg PUBLIC "-//W3C//DTD SVG 1.1//EN"
 "http://www.w3.org/Graphics/SVG/1.1/DTD/svg11.dtd">
<!-- Generated by graphviz version 2.43.0 (0)
 -->
<!-- Title: Graphical Class Hierarchy Pages: 1 -->
<svg width="545pt" height="362pt"
 viewBox="0.00 0.00 545.00 361.50" xmlns="http://www.w3.org/2000/svg" xmlns:xlink="http://www.w3.org/1999/xlink">
<g id="graph0" class="graph" transform="scale(1 1) rotate(0) translate(4 357.5)">
<title>Graphical Class Hierarchy</title>
<polygon fill="white" stroke="transparent" points="-4,4 -4,-357.5 541,-357.5 541,4 -4,4"/>
<!-- Node30 -->
<g id="node1" class="node">
<title>Node30</title>
<g id="a_node1"><a xlink:href="structarg__router_1_1policy_1_1no__result__value.html" target="_top" xlink:title=" ">
<polygon fill="white" stroke="black" points="211,-323 211,-353 313,-353 313,-323 211,-323"/>
<text text-anchor="start" x="219" y="-341" font-family="Helvetica,sans-Serif" font-size="10.00">arg_router::policy</text>
<text text-anchor="middle" x="262" y="-330" font-family="Helvetica,sans-Serif" font-size="10.00">::no_result_value</text>
</a>
</g>
</g>
<!-- Node3 -->
<g id="node2" class="node">
<title>Node3</title>
<g id="a_node2"><a xlink:href="classarg__router_1_1mode__t.html" target="_top" xlink:title=" ">
<polygon fill="white" stroke="black" points="406.5,-274 406.5,-304 516.5,-304 516.5,-274 406.5,-274"/>
<text text-anchor="start" x="414.5" y="-292" font-family="Helvetica,sans-Serif" font-size="10.00">arg_router::mode_t</text>
<text text-anchor="middle" x="461.5" y="-281" font-family="Helvetica,sans-Serif" font-size="10.00">&lt; Params &gt;</text>
</a>
</g>
</g>
<!-- Node30&#45;&gt;Node3 -->
<g id="edge1" class="edge">
<title>Node30&#45;&gt;Node3</title>
<path fill="none" stroke="midnightblue" d="M323.02,-323.11C349.54,-316.53 380.49,-308.85 406.3,-302.45"/>
<polygon fill="midnightblue" stroke="midnightblue" points="321.96,-319.77 313.09,-325.57 323.64,-326.56 321.96,-319.77"/>
</g>
<!-- Node31 -->
<g id="node3" class="node">
<title>Node31</title>
<g id="a_node3"><a xlink:href="classarg__router_1_1policy_1_1alias__t.html" target="_top" xlink:title=" ">
<polygon fill="white" stroke="black" points="386,-323 386,-353 537,-353 537,-323 386,-323"/>
<text text-anchor="start" x="394" y="-341" font-family="Helvetica,sans-Serif" font-size="10.00">arg_router::policy</text>
<text text-anchor="middle" x="461.5" y="-330" font-family="Helvetica,sans-Serif" font-size="10.00">::alias_t&lt; AliasedPolicies &gt;</text>
</a>
</g>
</g>
<!-- Node30&#45;&gt;Node31 -->
<g id="edge2" class="edge">
<title>Node30&#45;&gt;Node31</title>
<path fill="none" stroke="midnightblue" d="M323.18,-338C342.93,-338 365.13,-338 385.82,-338"/>
<polygon fill="midnightblue" stroke="midnightblue" points="323.09,-334.5 313.09,-338 323.09,-341.5 323.09,-334.5"/>
</g>
<!-- Node0 -->
<g id="node4" class="node">
<title>Node0</title>
<g id="a_node4"><a xlink:href="classarg__router_1_1traits_1_1unpack__and__derive.html" target="_top" xlink:title=" ">
<polygon fill="white" stroke="black" points="0,-142.5 0,-205.5 138,-205.5 138,-142.5 0,-142.5"/>
<text text-anchor="start" x="8" y="-193.5" font-family="Helvetica,sans-Serif" font-size="10.00">arg_router::traits</text>
<text text-anchor="start" x="8" y="-182.5" font-family="Helvetica,sans-Serif" font-size="10.00">::unpack_and_derive</text>
<text text-anchor="start" x="8" y="-171.5" font-family="Helvetica,sans-Serif" font-size="10.00">&lt; boost::mp11::mp_filter</text>
<text text-anchor="start" x="8" y="-160.5" font-family="Helvetica,sans-Serif" font-size="10.00">&lt; policy::is_policy, std</text>
<text text-anchor="middle" x="69" y="-149.5" font-family="Helvetica,sans-Serif" font-size="10.00">::tuple&lt; Params... &gt; &gt; &gt;</text>
</a>
</g>
</g>
<!-- Node1 -->
<g id="node5" class="node">
<title>Node1</title>
<g id="a_node5"><a xlink:href="classarg__router_1_1tree__node.html" target="_top" xlink:title=" ">
<polygon fill="white" stroke="black" points="201,-274 201,-304 323,-304 323,-274 201,-274"/>
<text text-anchor="start" x="209" y="-292" font-family="Helvetica,sans-Serif" font-size="10.00">arg_router::tree_node</text>
<text text-anchor="middle" x="262" y="-281" font-family="Helvetica,sans-Serif" font-size="10.00">&lt; Params &gt;</text>
</a>
</g>
</g>
<!-- Node0&#45;&gt;Node1 -->
<g id="edge3" class="edge">
<title>Node0&#45;&gt;Node1</title>
<path fill="none" stroke="midnightblue" d="M106.21,-212.98C124.91,-231.09 149.01,-251.54 174,-265 182.28,-269.46 191.45,-273.14 200.65,-276.18"/>
<polygon fill="midnightblue" stroke="midnightblue" points="108.63,-210.46 99.06,-205.92 103.71,-215.44 108.63,-210.46"/>
</g>
<!-- Node2 -->
<g id="node6" class="node">
<title>Node2</title>
<g id="a_node6"><a xlink:href="classarg__router_1_1tree__node.html" target="_top" xlink:title=" ">
<polygon fill="white" stroke="black" points="201,-225 201,-255 323,-255 323,-225 201,-225"/>
<text text-anchor="start" x="209" y="-243" font-family="Helvetica,sans-Serif" font-size="10.00">arg_router::tree_node</text>
<text text-anchor="middle" x="262" y="-232" font-family="Helvetica,sans-Serif" font-size="10.00">&lt; Params... &gt;</text>
</a>
</g>
</g>
<!-- Node0&#45;&gt;Node2 -->
<g id="edge4" class="edge">
<title>Node0&#45;&gt;Node2</title>
<path fill="none" stroke="midnightblue" d="M147.71,-205.57C156.53,-208.88 165.43,-212.09 174,-215 184.12,-218.44 195,-221.82 205.52,-224.92"/>
<polygon fill="midnightblue" stroke="midnightblue" points="148.78,-202.23 138.18,-201.96 146.29,-208.78 148.78,-202.23"/>
</g>
<!-- Node5 -->
<g id="node8" class="node">
<title>Node5</title>
<g id="a_node8"><a xlink:href="classarg__router_1_1tree__node.html" target="_top" xlink:title=" ">
<polygon fill="white" stroke="black" points="174,-142.5 174,-205.5 350,-205.5 350,-142.5 174,-142.5"/>
<text text-anchor="start" x="182" y="-193.5" font-family="Helvetica,sans-Serif" font-size="10.00">arg_router::tree_node</text>
<text text-anchor="start" x="182" y="-182.5" font-family="Helvetica,sans-Serif" font-size="10.00">&lt; policy::default_value</text>
<text text-anchor="start" x="182" y="-171.5" font-family="Helvetica,sans-Serif" font-size="10.00">&lt; bool &gt;, policy::count</text>
<text text-anchor="start" x="182" y="-160.5" font-family="Helvetica,sans-Serif" font-size="10.00">_t&lt; std::integral_constant</text>
<text text-anchor="middle" x="262" y="-149.5" font-family="Helvetica,sans-Serif" font-size="10.00">&lt; std::size_t, 0 &gt; &gt;, Policies... &gt;</text>
</a>
</g>
</g>
<!-- Node0&#45;&gt;Node5 -->
<g id="edge7" class="edge">
<title>Node0&#45;&gt;Node5</title>
<path fill="none" stroke="midnightblue" d="M148.31,-174C156.73,-174 165.34,-174 173.85,-174"/>
<polygon fill="midnightblue" stroke="midnightblue" points="148.15,-170.5 138.15,-174 148.15,-177.5 148.15,-170.5"/>
</g>
<!-- Node7 -->
<g id="node10" class="node">
<title>Node7</title>
<g id="a_node10"><a xlink:href="classarg__router_1_1tree__node.html" target="_top" xlink:title=" ">
<polygon fill="white" stroke="black" points="182.5,-82.5 182.5,-123.5 341.5,-123.5 341.5,-82.5 182.5,-82.5"/>
<text text-anchor="start" x="190.5" y="-111.5" font-family="Helvetica,sans-Serif" font-size="10.00">arg_router::tree_node</text>
<text text-anchor="start" x="190.5" y="-100.5" font-family="Helvetica,sans-Serif" font-size="10.00">&lt; policy::has_contiguous</text>
<text text-anchor="middle" x="262" y="-89.5" font-family="Helvetica,sans-Serif" font-size="10.00">_value_tokens_t, Policies... &gt;</text>
</a>
</g>
</g>
<!-- Node0&#45;&gt;Node7 -->
<g id="edge9" class="edge">
<title>Node0&#45;&gt;Node7</title>
<path fill="none" stroke="midnightblue" d="M147.66,-142.96C156.52,-139.54 165.44,-136.16 174,-133 182.39,-129.9 191.28,-126.72 200.04,-123.65"/>
<polygon fill="midnightblue" stroke="midnightblue" points="146.15,-139.79 138.09,-146.67 148.68,-146.32 146.15,-139.79"/>
</g>
<!-- Node9 -->
<g id="node12" class="node">
<title>Node9</title>
<g id="a_node12"><a xlink:href="classarg__router_1_1tree__node.html" target="_top" xlink:title=" ">
<polygon fill="white" stroke="black" points="187.5,-0.5 187.5,-63.5 336.5,-63.5 336.5,-0.5 187.5,-0.5"/>
<text text-anchor="start" x="195.5" y="-51.5" font-family="Helvetica,sans-Serif" font-size="10.00">arg_router::tree_node</text>
<text text-anchor="start" x="195.5" y="-40.5" font-family="Helvetica,sans-Serif" font-size="10.00">&lt; policy::has_value_tokens</text>
<text text-anchor="start" x="195.5" y="-29.5" font-family="Helvetica,sans-Serif" font-size="10.00">_t, policy::count_t&lt; std</text>
<text text-anchor="start" x="195.5" y="-18.5" font-family="Helvetica,sans-Serif" font-size="10.00">::integral_constant&lt; std::</text>
<text text-anchor="middle" x="262" y="-7.5" font-family="Helvetica,sans-Serif" font-size="10.00">size_t, 1 &gt; &gt;, Policies... &gt;</text>
</a>
</g>
</g>
<!-- Node0&#45;&gt;Node9 -->
<g id="edge11" class="edge">
<title>Node0&#45;&gt;Node9</title>
<path fill="none" stroke="midnightblue" d="M104.32,-134.94C123.44,-114.73 148.49,-90.66 174,-73 178.67,-69.77 183.63,-66.67 188.73,-63.73"/>
<polygon fill="midnightblue" stroke="midnightblue" points="101.55,-132.77 97.29,-142.47 106.67,-137.55 101.55,-132.77"/>
</g>
<!-- Node2&#45;&gt;Node3 -->
<g id="edge5" class="edge">
<title>Node2&#45;&gt;Node3</title>
<path fill="none" stroke="midnightblue" d="M332.89,-257.34C357.05,-263.33 383.73,-269.95 406.43,-275.59"/>
<polygon fill="midnightblue" stroke="midnightblue" points="333.61,-253.91 323.06,-254.9 331.92,-260.71 333.61,-253.91"/>
</g>
<!-- Node4 -->
<g id="node7" class="node">
<title>Node4</title>
<g id="a_node7"><a xlink:href="classarg__router_1_1root__t.html" target="_top" xlink:title=" ">
<polygon fill="white" stroke="black" points="411,-225 411,-255 512,-255 512,-225 411,-225"/>
<text text-anchor="start" x="419" y="-243" font-family="Helvetica,sans-Serif" font-size="10.00">arg_router::root_t</text>
<text text-anchor="middle" x="461.5" y="-232" font-family="Helvetica,sans-Serif" font-size="10.00">&lt; Params &gt;</text>
</a>
</g>
</g>
<!-- Node2&#45;&gt;Node4 -->
<g id="edge6" class="edge">
<title>Node2&#45;&gt;Node4</title>
<path fill="none" stroke="midnightblue" d="M333.1,-240C358.73,-240 387.18,-240 410.69,-240"/>
<polygon fill="midnightblue" stroke="midnightblue" points="333.06,-236.5 323.06,-240 333.06,-243.5 333.06,-236.5"/>
</g>
<!-- Node6 -->
<g id="node9" class="node">
<title>Node6</title>
<g id="a_node9"><a xlink:href="classarg__router_1_1flag__t.html" target="_top" xlink:title=" ">
<polygon fill="white" stroke="black" points="411.5,-159 411.5,-189 511.5,-189 511.5,-159 411.5,-159"/>
<text text-anchor="start" x="419.5" y="-177" font-family="Helvetica,sans-Serif" font-size="10.00">arg_router::flag_t</text>
<text text-anchor="middle" x="461.5" y="-166" font-family="Helvetica,sans-Serif" font-size="10.00">&lt; Policies &gt;</text>
</a>
</g>
</g>
<!-- Node5&#45;&gt;Node6 -->
<g id="edge8" class="edge">
<title>Node5&#45;&gt;Node6</title>
<path fill="none" stroke="midnightblue" d="M360.57,-174C378.21,-174 395.9,-174 411.39,-174"/>
<polygon fill="midnightblue" stroke="midnightblue" points="360.2,-170.5 350.2,-174 360.2,-177.5 360.2,-170.5"/>
</g>
<!-- Node8 -->
<g id="node11" class="node">
<title>Node8</title>
<g id="a_node11"><a xlink:href="classarg__router_1_1positional__arg__t.html" target="_top" xlink:title=" ">
<polygon fill="white" stroke="black" points="401,-88 401,-118 522,-118 522,-88 401,-88"/>
<text text-anchor="start" x="409" y="-106" font-family="Helvetica,sans-Serif" font-size="10.00">arg_router::positional</text>
<text text-anchor="middle" x="461.5" y="-95" font-family="Helvetica,sans-Serif" font-size="10.00">_arg_t&lt; T, Policies &gt;</text>
</a>
</g>
</g>
<!-- Node7&#45;&gt;Node8 -->
<g id="edge10" class="edge">
<title>Node7&#45;&gt;Node8</title>
<path fill="none" stroke="midnightblue" d="M351.86,-103C368.4,-103 385.31,-103 400.71,-103"/>
<polygon fill="midnightblue" stroke="midnightblue" points="351.62,-99.5 341.62,-103 351.62,-106.5 351.62,-99.5"/>
</g>
<!-- Node10 -->
<g id="node13" class="node">
<title>Node10</title>
<g id="a_node13"><a xlink:href="classarg__router_1_1arg__t.html" target="_top" xlink:title=" ">
<polygon fill="white" stroke="black" points="408.5,-17 408.5,-47 514.5,-47 514.5,-17 408.5,-17"/>
<text text-anchor="start" x="416.5" y="-35" font-family="Helvetica,sans-Serif" font-size="10.00">arg_router::arg_t&lt;</text>
<text text-anchor="middle" x="461.5" y="-24" font-family="Helvetica,sans-Serif" font-size="10.00"> T, Policies &gt;</text>
</a>
</g>
</g>
<!-- Node9&#45;&gt;Node10 -->
<g id="edge12" class="edge">
<title>Node9&#45;&gt;Node10</title>
<path fill="none" stroke="midnightblue" d="M346.74,-32C367.69,-32 389.57,-32 408.47,-32"/>
<polygon fill="midnightblue" stroke="midnightblue" points="346.54,-28.5 336.54,-32 346.54,-35.5 346.54,-28.5"/>
</g>
</g>
</svg>
