<?xml version="1.0" encoding="UTF-8" standalone="no"?>
<!DOCTYPE svg PUBLIC "-//W3C//DTD SVG 1.1//EN"
 "http://www.w3.org/Graphics/SVG/1.1/DTD/svg11.dtd">
<!-- Generated by graphviz version 2.43.0 (0)
 -->
<!-- Title: Graphical Class Hierarchy Pages: 1 -->
<svg width="577pt" height="720pt"
 viewBox="0.00 0.00 577.00 719.50" xmlns="http://www.w3.org/2000/svg" xmlns:xlink="http://www.w3.org/1999/xlink">
<g id="graph0" class="graph" transform="scale(1 1) rotate(0) translate(4 715.5)">
<title>Graphical Class Hierarchy</title>
<polygon fill="white" stroke="transparent" points="-4,4 -4,-715.5 573,-715.5 573,4 -4,4"/>
<!-- Node0 -->
<g id="node1" class="node">
<title>Node0</title>
<g id="a_node1"><a xlink:href="classarg__router_1_1traits_1_1unpack__and__derive.html" target="_top" xlink:title=" ">
<polygon fill="white" stroke="black" points="0,-292 0,-366 165,-366 165,-292 0,-292"/>
<text text-anchor="start" x="8" y="-354" font-family="Helvetica,sans-Serif" font-size="10.00">arg_router::traits</text>
<text text-anchor="start" x="8" y="-343" font-family="Helvetica,sans-Serif" font-size="10.00">::unpack_and_derive</text>
<text text-anchor="start" x="8" y="-332" font-family="Helvetica,sans-Serif" font-size="10.00">&lt; boost::mp11::mp_filter</text>
<text text-anchor="start" x="8" y="-321" font-family="Helvetica,sans-Serif" font-size="10.00">&lt; policy::is_policy, std</text>
<text text-anchor="start" x="8" y="-310" font-family="Helvetica,sans-Serif" font-size="10.00">::tuple&lt; std::decay_t&lt; Params</text>
<text text-anchor="middle" x="82.5" y="-299" font-family="Helvetica,sans-Serif" font-size="10.00"> &gt;... &gt; &gt; &gt;</text>
</a>
</g>
</g>
<!-- Node1 -->
<g id="node2" class="node">
<title>Node1</title>
<g id="a_node2"><a xlink:href="classarg__router_1_1tree__node.html" target="_top" xlink:title=" ">
<polygon fill="white" stroke="black" points="245.5,-681 245.5,-711 367.5,-711 367.5,-681 245.5,-681"/>
<text text-anchor="start" x="253.5" y="-699" font-family="Helvetica,sans-Serif" font-size="10.00">arg_router::tree_node</text>
<text text-anchor="middle" x="306.5" y="-688" font-family="Helvetica,sans-Serif" font-size="10.00">&lt; Params &gt;</text>
</a>
</g>
</g>
<!-- Node0&#45;&gt;Node1 -->
<g id="edge1" class="edge">
<title>Node0&#45;&gt;Node1</title>
<path fill="none" stroke="midnightblue" d="M85.68,-376.05C91.75,-450.32 114.68,-594.24 201,-672 213.17,-682.96 229.32,-689.23 245.28,-692.72"/>
<polygon fill="midnightblue" stroke="midnightblue" points="89.17,-375.76 84.93,-366.05 82.19,-376.28 89.17,-375.76"/>
</g>
<!-- Node2 -->
<g id="node3" class="node">
<title>Node2</title>
<g id="a_node3"><a xlink:href="classarg__router_1_1tree__node.html" target="_top" xlink:title=" ">
<polygon fill="white" stroke="black" points="233.5,-588 233.5,-662 379.5,-662 379.5,-588 233.5,-588"/>
<text text-anchor="start" x="241.5" y="-650" font-family="Helvetica,sans-Serif" font-size="10.00">arg_router::tree_node</text>
<text text-anchor="start" x="241.5" y="-639" font-family="Helvetica,sans-Serif" font-size="10.00">&lt; policy::default_value</text>
<text text-anchor="start" x="241.5" y="-628" font-family="Helvetica,sans-Serif" font-size="10.00">&lt; bool &gt;, std::decay_t</text>
<text text-anchor="start" x="241.5" y="-617" font-family="Helvetica,sans-Serif" font-size="10.00">&lt; decltype(policy::fixed</text>
<text text-anchor="start" x="241.5" y="-606" font-family="Helvetica,sans-Serif" font-size="10.00">_count&lt; 0 &gt;)&gt;, std::decay</text>
<text text-anchor="middle" x="306.5" y="-595" font-family="Helvetica,sans-Serif" font-size="10.00">_t&lt; Policies &gt;... &gt;</text>
</a>
</g>
</g>
<!-- Node0&#45;&gt;Node2 -->
<g id="edge2" class="edge">
<title>Node0&#45;&gt;Node2</title>
<path fill="none" stroke="midnightblue" d="M94.76,-375.94C110.19,-431.09 142.83,-522.25 201,-579 210.29,-588.07 221.67,-595.51 233.46,-601.56"/>
<polygon fill="midnightblue" stroke="midnightblue" points="98.08,-374.81 92.08,-366.08 91.33,-376.65 98.08,-374.81"/>
</g>
<!-- Node4 -->
<g id="node5" class="node">
<title>Node4</title>
<g id="a_node5"><a xlink:href="classarg__router_1_1tree__node.html" target="_top" xlink:title=" ">
<polygon fill="white" stroke="black" points="201,-495 201,-569 412,-569 412,-495 201,-495"/>
<text text-anchor="start" x="209" y="-557" font-family="Helvetica,sans-Serif" font-size="10.00">arg_router::tree_node</text>
<text text-anchor="start" x="209" y="-546" font-family="Helvetica,sans-Serif" font-size="10.00">&lt; policy::display_name</text>
<text text-anchor="start" x="209" y="-535" font-family="Helvetica,sans-Serif" font-size="10.00">_t&lt; generate_string_of</text>
<text text-anchor="start" x="209" y="-524" font-family="Helvetica,sans-Serif" font-size="10.00">_child_names&lt; ParentDocName,</text>
<text text-anchor="start" x="209" y="-513" font-family="Helvetica,sans-Serif" font-size="10.00"> std::decay_t&lt; Params &gt;...</text>
<text text-anchor="middle" x="306.5" y="-502" font-family="Helvetica,sans-Serif" font-size="10.00"> &gt;::type &gt;, std::decay_t&lt; Params &gt;... &gt;</text>
</a>
</g>
</g>
<!-- Node0&#45;&gt;Node4 -->
<g id="edge4" class="edge">
<title>Node0&#45;&gt;Node4</title>
<path fill="none" stroke="midnightblue" d="M109.33,-374.87C130.39,-408.9 162.82,-454.5 201,-485 205.35,-488.48 210,-491.75 214.83,-494.84"/>
<polygon fill="midnightblue" stroke="midnightblue" points="112.15,-372.77 103.96,-366.04 106.17,-376.4 112.15,-372.77"/>
</g>
<!-- Node5 -->
<g id="node6" class="node">
<title>Node5</title>
<g id="a_node6"><a xlink:href="classarg__router_1_1tree__node.html" target="_top" xlink:title=" ">
<polygon fill="white" stroke="black" points="229,-390.5 229,-475.5 384,-475.5 384,-390.5 229,-390.5"/>
<text text-anchor="start" x="237" y="-463.5" font-family="Helvetica,sans-Serif" font-size="10.00">arg_router::tree_node</text>
<text text-anchor="start" x="237" y="-452.5" font-family="Helvetica,sans-Serif" font-size="10.00">&lt; policy::display_name</text>
<text text-anchor="start" x="237" y="-441.5" font-family="Helvetica,sans-Serif" font-size="10.00">_t&lt; generate_string_of</text>
<text text-anchor="start" x="237" y="-430.5" font-family="Helvetica,sans-Serif" font-size="10.00">_child_names&lt; S_(&quot;Alias</text>
<text text-anchor="start" x="237" y="-419.5" font-family="Helvetica,sans-Serif" font-size="10.00"> Group: &quot;), std::decay_t</text>
<text text-anchor="start" x="237" y="-408.5" font-family="Helvetica,sans-Serif" font-size="10.00">&lt; Params &gt;... &gt;::type &gt;, std</text>
<text text-anchor="middle" x="306.5" y="-397.5" font-family="Helvetica,sans-Serif" font-size="10.00">::decay_t&lt; Params &gt;... &gt;</text>
</a>
</g>
</g>
<!-- Node0&#45;&gt;Node5 -->
<g id="edge5" class="edge">
<title>Node0&#45;&gt;Node5</title>
<path fill="none" stroke="midnightblue" d="M171.89,-370.41C190.76,-379.25 210.54,-388.52 228.93,-397.13"/>
<polygon fill="midnightblue" stroke="midnightblue" points="173.25,-367.18 162.71,-366.11 170.28,-373.52 173.25,-367.18"/>
</g>
<!-- Node6 -->
<g id="node7" class="node">
<title>Node6</title>
<g id="a_node7"><a xlink:href="classarg__router_1_1tree__node.html" target="_top" xlink:title=" ">
<polygon fill="white" stroke="black" points="233.5,-286.5 233.5,-371.5 379.5,-371.5 379.5,-286.5 233.5,-286.5"/>
<text text-anchor="start" x="241.5" y="-359.5" font-family="Helvetica,sans-Serif" font-size="10.00">arg_router::tree_node</text>
<text text-anchor="start" x="241.5" y="-348.5" font-family="Helvetica,sans-Serif" font-size="10.00">&lt; policy::display_name</text>
<text text-anchor="start" x="241.5" y="-337.5" font-family="Helvetica,sans-Serif" font-size="10.00">_t&lt; generate_string_of</text>
<text text-anchor="start" x="241.5" y="-326.5" font-family="Helvetica,sans-Serif" font-size="10.00">_child_names&lt; S_(&quot;One of</text>
<text text-anchor="start" x="241.5" y="-315.5" font-family="Helvetica,sans-Serif" font-size="10.00">: &quot;), std::decay_t&lt; Params</text>
<text text-anchor="start" x="241.5" y="-304.5" font-family="Helvetica,sans-Serif" font-size="10.00"> &gt;... &gt;::type &gt;, std::decay</text>
<text text-anchor="middle" x="306.5" y="-293.5" font-family="Helvetica,sans-Serif" font-size="10.00">_t&lt; Params &gt;... &gt;</text>
</a>
</g>
</g>
<!-- Node0&#45;&gt;Node6 -->
<g id="edge6" class="edge">
<title>Node0&#45;&gt;Node6</title>
<path fill="none" stroke="midnightblue" d="M175.28,-329C194.7,-329 214.92,-329 233.48,-329"/>
<polygon fill="midnightblue" stroke="midnightblue" points="175.22,-325.5 165.22,-329 175.22,-332.5 175.22,-325.5"/>
</g>
<!-- Node7 -->
<g id="node8" class="node">
<title>Node7</title>
<g id="a_node8"><a xlink:href="classarg__router_1_1tree__node.html" target="_top" xlink:title=" ">
<polygon fill="white" stroke="black" points="233,-193 233,-267 380,-267 380,-193 233,-193"/>
<text text-anchor="start" x="241" y="-255" font-family="Helvetica,sans-Serif" font-size="10.00">arg_router::tree_node</text>
<text text-anchor="start" x="241" y="-244" font-family="Helvetica,sans-Serif" font-size="10.00">&lt; policy::multi_stage</text>
<text text-anchor="start" x="241" y="-233" font-family="Helvetica,sans-Serif" font-size="10.00">_value&lt; T, bool &gt;, std</text>
<text text-anchor="start" x="241" y="-222" font-family="Helvetica,sans-Serif" font-size="10.00">::decay_t&lt; decltype(policy</text>
<text text-anchor="start" x="241" y="-211" font-family="Helvetica,sans-Serif" font-size="10.00">::fixed_count&lt; 0 &gt;)&gt;, std</text>
<text text-anchor="middle" x="306.5" y="-200" font-family="Helvetica,sans-Serif" font-size="10.00">::decay_t&lt; Policies &gt;... &gt;</text>
</a>
</g>
</g>
<!-- Node0&#45;&gt;Node7 -->
<g id="edge7" class="edge">
<title>Node0&#45;&gt;Node7</title>
<path fill="none" stroke="midnightblue" d="M174.38,-288.47C193.82,-279.8 214.1,-270.76 232.75,-262.44"/>
<polygon fill="midnightblue" stroke="midnightblue" points="172.93,-285.29 165.22,-292.56 175.78,-291.68 172.93,-285.29"/>
</g>
<!-- Node9 -->
<g id="node10" class="node">
<title>Node9</title>
<g id="a_node10"><a xlink:href="classarg__router_1_1tree__node.html" target="_top" xlink:title=" ">
<polygon fill="white" stroke="black" points="218,-132.5 218,-173.5 395,-173.5 395,-132.5 218,-132.5"/>
<text text-anchor="start" x="226" y="-161.5" font-family="Helvetica,sans-Serif" font-size="10.00">arg_router::tree_node</text>
<text text-anchor="start" x="226" y="-150.5" font-family="Helvetica,sans-Serif" font-size="10.00">&lt; policy::no_result_value</text>
<text text-anchor="middle" x="306.5" y="-139.5" font-family="Helvetica,sans-Serif" font-size="10.00">&lt;&gt;, std::decay_t&lt; Params &gt;... &gt;</text>
</a>
</g>
</g>
<!-- Node0&#45;&gt;Node9 -->
<g id="edge9" class="edge">
<title>Node0&#45;&gt;Node9</title>
<path fill="none" stroke="midnightblue" d="M110.24,-283.03C131.13,-250.92 162.95,-209.42 201,-184 206.9,-180.06 213.31,-176.6 219.97,-173.58"/>
<polygon fill="midnightblue" stroke="midnightblue" points="107.06,-281.5 104.64,-291.81 112.96,-285.26 107.06,-281.5"/>
</g>
<!-- Node11 -->
<g id="node12" class="node">
<title>Node11</title>
<g id="a_node12"><a xlink:href="classarg__router_1_1tree__node.html" target="_top" xlink:title=" ">
<polygon fill="white" stroke="black" points="214,-61 214,-113 399,-113 399,-61 214,-61"/>
<text text-anchor="start" x="222" y="-101" font-family="Helvetica,sans-Serif" font-size="10.00">arg_router::tree_node</text>
<text text-anchor="start" x="222" y="-90" font-family="Helvetica,sans-Serif" font-size="10.00">&lt; std::decay_t&lt; decltype</text>
<text text-anchor="start" x="222" y="-79" font-family="Helvetica,sans-Serif" font-size="10.00">(policy::fixed_count&lt; 1</text>
<text text-anchor="middle" x="306.5" y="-68" font-family="Helvetica,sans-Serif" font-size="10.00"> &gt;)&gt;, std::decay_t&lt; Policies &gt;... &gt;</text>
</a>
</g>
</g>
<!-- Node0&#45;&gt;Node11 -->
<g id="edge11" class="edge">
<title>Node0&#45;&gt;Node11</title>
<path fill="none" stroke="midnightblue" d="M99.09,-282.06C116.82,-235.5 150.1,-165.19 201,-123 205.43,-119.33 210.26,-116.02 215.33,-113.04"/>
<polygon fill="midnightblue" stroke="midnightblue" points="95.74,-281.02 95.54,-291.61 102.3,-283.46 95.74,-281.02"/>
</g>
<!-- Node13 -->
<g id="node14" class="node">
<title>Node13</title>
<g id="a_node14"><a xlink:href="classarg__router_1_1tree__node.html" target="_top" xlink:title=" ">
<polygon fill="white" stroke="black" points="239.5,-0.5 239.5,-41.5 373.5,-41.5 373.5,-0.5 239.5,-0.5"/>
<text text-anchor="start" x="247.5" y="-29.5" font-family="Helvetica,sans-Serif" font-size="10.00">arg_router::tree_node</text>
<text text-anchor="start" x="247.5" y="-18.5" font-family="Helvetica,sans-Serif" font-size="10.00">&lt; std::decay_t&lt; Params</text>
<text text-anchor="middle" x="306.5" y="-7.5" font-family="Helvetica,sans-Serif" font-size="10.00"> &gt;... &gt;</text>
</a>
</g>
</g>
<!-- Node0&#45;&gt;Node13 -->
<g id="edge13" class="edge">
<title>Node0&#45;&gt;Node13</title>
<path fill="none" stroke="midnightblue" d="M90.82,-281.9C102.86,-220.28 132.72,-112.98 201,-52 211.8,-42.36 225.47,-35.71 239.34,-31.13"/>
<polygon fill="midnightblue" stroke="midnightblue" points="87.37,-281.28 88.97,-291.75 94.25,-282.57 87.37,-281.28"/>
</g>
<!-- Node3 -->
<g id="node4" class="node">
<title>Node3</title>
<g id="a_node4"><a xlink:href="classarg__router_1_1flag__t.html" target="_top" xlink:title=" ">
<polygon fill="white" stroke="black" points="458.5,-610 458.5,-640 558.5,-640 558.5,-610 458.5,-610"/>
<text text-anchor="start" x="466.5" y="-628" font-family="Helvetica,sans-Serif" font-size="10.00">arg_router::flag_t</text>
<text text-anchor="middle" x="508.5" y="-617" font-family="Helvetica,sans-Serif" font-size="10.00">&lt; Policies &gt;</text>
</a>
</g>
</g>
<!-- Node2&#45;&gt;Node3 -->
<g id="edge3" class="edge">
<title>Node2&#45;&gt;Node3</title>
<path fill="none" stroke="midnightblue" d="M389.91,-625C413.12,-625 437.63,-625 458.24,-625"/>
<polygon fill="midnightblue" stroke="midnightblue" points="389.7,-621.5 379.7,-625 389.7,-628.5 389.7,-621.5"/>
</g>
<!-- Node8 -->
<g id="node9" class="node">
<title>Node8</title>
<g id="a_node9"><a xlink:href="classarg__router_1_1counting__flag__t.html" target="_top" xlink:title=" ">
<polygon fill="white" stroke="black" points="448,-215 448,-245 569,-245 569,-215 448,-215"/>
<text text-anchor="start" x="456" y="-233" font-family="Helvetica,sans-Serif" font-size="10.00">arg_router::counting</text>
<text text-anchor="middle" x="508.5" y="-222" font-family="Helvetica,sans-Serif" font-size="10.00">_flag_t&lt; T, Policies &gt;</text>
</a>
</g>
</g>
<!-- Node7&#45;&gt;Node8 -->
<g id="edge8" class="edge">
<title>Node7&#45;&gt;Node8</title>
<path fill="none" stroke="midnightblue" d="M390.28,-230C409.61,-230 429.82,-230 447.91,-230"/>
<polygon fill="midnightblue" stroke="midnightblue" points="390.27,-226.5 380.27,-230 390.27,-233.5 390.27,-226.5"/>
</g>
<!-- Node10 -->
<g id="node11" class="node">
<title>Node10</title>
<g id="a_node11"><a xlink:href="classarg__router_1_1mode__t.html" target="_top" xlink:title=" ">
<polygon fill="white" stroke="black" points="453.5,-138 453.5,-168 563.5,-168 563.5,-138 453.5,-138"/>
<text text-anchor="start" x="461.5" y="-156" font-family="Helvetica,sans-Serif" font-size="10.00">arg_router::mode_t</text>
<text text-anchor="middle" x="508.5" y="-145" font-family="Helvetica,sans-Serif" font-size="10.00">&lt; Params &gt;</text>
</a>
</g>
</g>
<!-- Node9&#45;&gt;Node10 -->
<g id="edge10" class="edge">
<title>Node9&#45;&gt;Node10</title>
<path fill="none" stroke="midnightblue" d="M405.44,-153C421.89,-153 438.41,-153 453.22,-153"/>
<polygon fill="midnightblue" stroke="midnightblue" points="405.22,-149.5 395.22,-153 405.22,-156.5 405.22,-149.5"/>
</g>
<!-- Node12 -->
<g id="node13" class="node">
<title>Node12</title>
<g id="a_node13"><a xlink:href="classarg__router_1_1arg__t.html" target="_top" xlink:title=" ">
<polygon fill="white" stroke="black" points="455.5,-72 455.5,-102 561.5,-102 561.5,-72 455.5,-72"/>
<text text-anchor="start" x="463.5" y="-90" font-family="Helvetica,sans-Serif" font-size="10.00">arg_router::arg_t&lt;</text>
<text text-anchor="middle" x="508.5" y="-79" font-family="Helvetica,sans-Serif" font-size="10.00"> T, Policies &gt;</text>
</a>
</g>
</g>
<!-- Node11&#45;&gt;Node12 -->
<g id="edge12" class="edge">
<title>Node11&#45;&gt;Node12</title>
<path fill="none" stroke="midnightblue" d="M409.46,-87C425.37,-87 441.22,-87 455.38,-87"/>
<polygon fill="midnightblue" stroke="midnightblue" points="409.01,-83.5 399.01,-87 409.01,-90.5 409.01,-83.5"/>
</g>
<!-- Node14 -->
<g id="node15" class="node">
<title>Node14</title>
<g id="a_node15"><a xlink:href="classarg__router_1_1root__t.html" target="_top" xlink:title=" ">
<polygon fill="white" stroke="black" points="458,-6 458,-36 559,-36 559,-6 458,-6"/>
<text text-anchor="start" x="466" y="-24" font-family="Helvetica,sans-Serif" font-size="10.00">arg_router::root_t</text>
<text text-anchor="middle" x="508.5" y="-13" font-family="Helvetica,sans-Serif" font-size="10.00">&lt; Params &gt;</text>
</a>
</g>
</g>
<!-- Node13&#45;&gt;Node14 -->
<g id="edge14" class="edge">
<title>Node13&#45;&gt;Node14</title>
<path fill="none" stroke="midnightblue" d="M383.66,-21C408.45,-21 435.33,-21 457.69,-21"/>
<polygon fill="midnightblue" stroke="midnightblue" points="383.54,-17.5 373.54,-21 383.54,-24.5 383.54,-17.5"/>
</g>
</g>
</svg>
