<?xml version="1.0" encoding="UTF-8" standalone="no"?>
<!DOCTYPE svg PUBLIC "-//W3C//DTD SVG 1.1//EN"
 "http://www.w3.org/Graphics/SVG/1.1/DTD/svg11.dtd">
<!-- Generated by graphviz version 2.43.0 (0)
 -->
<!-- Title: Graphical Class Hierarchy Pages: 1 -->
<svg width="551pt" height="357pt"
 viewBox="0.00 0.00 551.00 357.00" xmlns="http://www.w3.org/2000/svg" xmlns:xlink="http://www.w3.org/1999/xlink">
<g id="graph0" class="graph" transform="scale(1 1) rotate(0) translate(4 353)">
<title>Graphical Class Hierarchy</title>
<polygon fill="white" stroke="transparent" points="-4,4 -4,-353 547,-353 547,4 -4,4"/>
<!-- Node0 -->
<g id="node1" class="node">
<title>Node0</title>
<g id="a_node1"><a xlink:href="classarg__router_1_1traits_1_1unpack__and__derive.html" target="_top" xlink:title=" ">
<polygon fill="white" stroke="black" points="0,-104.5 0,-178.5 165,-178.5 165,-104.5 0,-104.5"/>
<text text-anchor="start" x="8" y="-166.5" font-family="Helvetica,sans-Serif" font-size="10.00">arg_router::traits</text>
<text text-anchor="start" x="8" y="-155.5" font-family="Helvetica,sans-Serif" font-size="10.00">::unpack_and_derive</text>
<text text-anchor="start" x="8" y="-144.5" font-family="Helvetica,sans-Serif" font-size="10.00">&lt; boost::mp11::mp_filter</text>
<text text-anchor="start" x="8" y="-133.5" font-family="Helvetica,sans-Serif" font-size="10.00">&lt; policy::is_policy, std</text>
<text text-anchor="start" x="8" y="-122.5" font-family="Helvetica,sans-Serif" font-size="10.00">::tuple&lt; std::decay_t&lt; Params</text>
<text text-anchor="middle" x="82.5" y="-111.5" font-family="Helvetica,sans-Serif" font-size="10.00"> &gt;... &gt; &gt; &gt;</text>
</a>
</g>
</g>
<!-- Node1 -->
<g id="node2" class="node">
<title>Node1</title>
<g id="a_node2"><a xlink:href="classarg__router_1_1tree__node.html" target="_top" xlink:title=" ">
<polygon fill="white" stroke="black" points="220.5,-274.5 220.5,-348.5 366.5,-348.5 366.5,-274.5 220.5,-274.5"/>
<text text-anchor="start" x="228.5" y="-336.5" font-family="Helvetica,sans-Serif" font-size="10.00">arg_router::tree_node</text>
<text text-anchor="start" x="228.5" y="-325.5" font-family="Helvetica,sans-Serif" font-size="10.00">&lt; policy::default_value</text>
<text text-anchor="start" x="228.5" y="-314.5" font-family="Helvetica,sans-Serif" font-size="10.00">&lt; bool &gt;, std::decay_t</text>
<text text-anchor="start" x="228.5" y="-303.5" font-family="Helvetica,sans-Serif" font-size="10.00">&lt; decltype(policy::fixed</text>
<text text-anchor="start" x="228.5" y="-292.5" font-family="Helvetica,sans-Serif" font-size="10.00">_count&lt; 0 &gt;)&gt;, std::decay</text>
<text text-anchor="middle" x="293.5" y="-281.5" font-family="Helvetica,sans-Serif" font-size="10.00">_t&lt; Policies &gt;... &gt;</text>
</a>
</g>
</g>
<!-- Node0&#45;&gt;Node1 -->
<g id="edge1" class="edge">
<title>Node0&#45;&gt;Node1</title>
<path fill="none" stroke="midnightblue" d="M119.28,-186.38C141.05,-211.74 170.47,-242.82 201,-265.5 206.99,-269.95 213.48,-274.18 220.15,-278.15"/>
<polygon fill="midnightblue" stroke="midnightblue" points="121.91,-184.07 112.78,-178.71 116.57,-188.6 121.91,-184.07"/>
</g>
<!-- Node3 -->
<g id="node4" class="node">
<title>Node3</title>
<g id="a_node4"><a xlink:href="classarg__router_1_1tree__node.html" target="_top" xlink:title=" ">
<polygon fill="white" stroke="black" points="220,-181.5 220,-255.5 367,-255.5 367,-181.5 220,-181.5"/>
<text text-anchor="start" x="228" y="-243.5" font-family="Helvetica,sans-Serif" font-size="10.00">arg_router::tree_node</text>
<text text-anchor="start" x="228" y="-232.5" font-family="Helvetica,sans-Serif" font-size="10.00">&lt; policy::multi_stage</text>
<text text-anchor="start" x="228" y="-221.5" font-family="Helvetica,sans-Serif" font-size="10.00">_value&lt; T, bool &gt;, std</text>
<text text-anchor="start" x="228" y="-210.5" font-family="Helvetica,sans-Serif" font-size="10.00">::decay_t&lt; decltype(policy</text>
<text text-anchor="start" x="228" y="-199.5" font-family="Helvetica,sans-Serif" font-size="10.00">::fixed_count&lt; 0 &gt;)&gt;, std</text>
<text text-anchor="middle" x="293.5" y="-188.5" font-family="Helvetica,sans-Serif" font-size="10.00">::decay_t&lt; Policies &gt;... &gt;</text>
</a>
</g>
</g>
<!-- Node0&#45;&gt;Node3 -->
<g id="edge3" class="edge">
<title>Node0&#45;&gt;Node3</title>
<path fill="none" stroke="midnightblue" d="M174.97,-175.2C189.93,-180.71 205.26,-186.36 219.69,-191.68"/>
<polygon fill="midnightblue" stroke="midnightblue" points="175.8,-171.77 165.2,-171.6 173.38,-178.34 175.8,-171.77"/>
</g>
<!-- Node5 -->
<g id="node6" class="node">
<title>Node5</title>
<g id="a_node6"><a xlink:href="classarg__router_1_1tree__node.html" target="_top" xlink:title=" ">
<polygon fill="white" stroke="black" points="205,-121 205,-162 382,-162 382,-121 205,-121"/>
<text text-anchor="start" x="213" y="-150" font-family="Helvetica,sans-Serif" font-size="10.00">arg_router::tree_node</text>
<text text-anchor="start" x="213" y="-139" font-family="Helvetica,sans-Serif" font-size="10.00">&lt; policy::no_result_value</text>
<text text-anchor="middle" x="293.5" y="-128" font-family="Helvetica,sans-Serif" font-size="10.00">&lt;&gt;, std::decay_t&lt; Params &gt;... &gt;</text>
</a>
</g>
</g>
<!-- Node0&#45;&gt;Node5 -->
<g id="edge5" class="edge">
<title>Node0&#45;&gt;Node5</title>
<path fill="none" stroke="midnightblue" d="M175.38,-141.5C185.22,-141.5 195.2,-141.5 204.99,-141.5"/>
<polygon fill="midnightblue" stroke="midnightblue" points="175.2,-138 165.2,-141.5 175.2,-145 175.2,-138"/>
</g>
<!-- Node7 -->
<g id="node8" class="node">
<title>Node7</title>
<g id="a_node8"><a xlink:href="classarg__router_1_1tree__node.html" target="_top" xlink:title=" ">
<polygon fill="white" stroke="black" points="201,-49.5 201,-101.5 386,-101.5 386,-49.5 201,-49.5"/>
<text text-anchor="start" x="209" y="-89.5" font-family="Helvetica,sans-Serif" font-size="10.00">arg_router::tree_node</text>
<text text-anchor="start" x="209" y="-78.5" font-family="Helvetica,sans-Serif" font-size="10.00">&lt; std::decay_t&lt; decltype</text>
<text text-anchor="start" x="209" y="-67.5" font-family="Helvetica,sans-Serif" font-size="10.00">(policy::fixed_count&lt; 1</text>
<text text-anchor="middle" x="293.5" y="-56.5" font-family="Helvetica,sans-Serif" font-size="10.00"> &gt;)&gt;, std::decay_t&lt; Policies &gt;... &gt;</text>
</a>
</g>
</g>
<!-- Node0&#45;&gt;Node7 -->
<g id="edge7" class="edge">
<title>Node0&#45;&gt;Node7</title>
<path fill="none" stroke="midnightblue" d="M174.97,-112.61C186.68,-108.92 198.61,-105.15 210.17,-101.5"/>
<polygon fill="midnightblue" stroke="midnightblue" points="173.68,-109.35 165.2,-115.7 175.79,-116.03 173.68,-109.35"/>
</g>
<!-- Node9 -->
<g id="node10" class="node">
<title>Node9</title>
<g id="a_node10"><a xlink:href="classarg__router_1_1tree__node.html" target="_top" xlink:title=" ">
<polygon fill="white" stroke="black" points="232.5,-0.5 232.5,-30.5 354.5,-30.5 354.5,-0.5 232.5,-0.5"/>
<text text-anchor="start" x="240.5" y="-18.5" font-family="Helvetica,sans-Serif" font-size="10.00">arg_router::tree_node</text>
<text text-anchor="middle" x="293.5" y="-7.5" font-family="Helvetica,sans-Serif" font-size="10.00">&lt; Params &gt;</text>
</a>
</g>
</g>
<!-- Node0&#45;&gt;Node9 -->
<g id="edge9" class="edge">
<title>Node0&#45;&gt;Node9</title>
<path fill="none" stroke="midnightblue" d="M124.74,-97.32C145.81,-77.07 172.9,-54.33 201,-39.5 210.73,-34.36 221.64,-30.27 232.43,-27.03"/>
<polygon fill="midnightblue" stroke="midnightblue" points="122.25,-94.86 117.55,-104.36 127.15,-99.86 122.25,-94.86"/>
</g>
<!-- Node2 -->
<g id="node3" class="node">
<title>Node2</title>
<g id="a_node3"><a xlink:href="classarg__router_1_1flag__t.html" target="_top" xlink:title=" ">
<polygon fill="white" stroke="black" points="432.5,-296.5 432.5,-326.5 532.5,-326.5 532.5,-296.5 432.5,-296.5"/>
<text text-anchor="start" x="440.5" y="-314.5" font-family="Helvetica,sans-Serif" font-size="10.00">arg_router::flag_t</text>
<text text-anchor="middle" x="482.5" y="-303.5" font-family="Helvetica,sans-Serif" font-size="10.00">&lt; Policies &gt;</text>
</a>
</g>
</g>
<!-- Node1&#45;&gt;Node2 -->
<g id="edge2" class="edge">
<title>Node1&#45;&gt;Node2</title>
<path fill="none" stroke="midnightblue" d="M376.69,-311.5C395.69,-311.5 415.31,-311.5 432.37,-311.5"/>
<polygon fill="midnightblue" stroke="midnightblue" points="376.53,-308 366.53,-311.5 376.53,-315 376.53,-308"/>
</g>
<!-- Node4 -->
<g id="node5" class="node">
<title>Node4</title>
<g id="a_node5"><a xlink:href="classarg__router_1_1counting__flag__t.html" target="_top" xlink:title=" ">
<polygon fill="white" stroke="black" points="422,-203.5 422,-233.5 543,-233.5 543,-203.5 422,-203.5"/>
<text text-anchor="start" x="430" y="-221.5" font-family="Helvetica,sans-Serif" font-size="10.00">arg_router::counting</text>
<text text-anchor="middle" x="482.5" y="-210.5" font-family="Helvetica,sans-Serif" font-size="10.00">_flag_t&lt; T, Policies &gt;</text>
</a>
</g>
</g>
<!-- Node3&#45;&gt;Node4 -->
<g id="edge4" class="edge">
<title>Node3&#45;&gt;Node4</title>
<path fill="none" stroke="midnightblue" d="M377.39,-218.5C392.41,-218.5 407.79,-218.5 421.98,-218.5"/>
<polygon fill="midnightblue" stroke="midnightblue" points="377.07,-215 367.07,-218.5 377.07,-222 377.07,-215"/>
</g>
<!-- Node6 -->
<g id="node7" class="node">
<title>Node6</title>
<g id="a_node7"><a xlink:href="classarg__router_1_1mode__t.html" target="_top" xlink:title=" ">
<polygon fill="white" stroke="black" points="427.5,-126.5 427.5,-156.5 537.5,-156.5 537.5,-126.5 427.5,-126.5"/>
<text text-anchor="start" x="435.5" y="-144.5" font-family="Helvetica,sans-Serif" font-size="10.00">arg_router::mode_t</text>
<text text-anchor="middle" x="482.5" y="-133.5" font-family="Helvetica,sans-Serif" font-size="10.00">&lt; Params &gt;</text>
</a>
</g>
</g>
<!-- Node5&#45;&gt;Node6 -->
<g id="edge6" class="edge">
<title>Node5&#45;&gt;Node6</title>
<path fill="none" stroke="midnightblue" d="M392.35,-141.5C404.37,-141.5 416.29,-141.5 427.32,-141.5"/>
<polygon fill="midnightblue" stroke="midnightblue" points="392.25,-138 382.25,-141.5 392.25,-145 392.25,-138"/>
</g>
<!-- Node8 -->
<g id="node9" class="node">
<title>Node8</title>
<g id="a_node9"><a xlink:href="classarg__router_1_1arg__t.html" target="_top" xlink:title=" ">
<polygon fill="white" stroke="black" points="429.5,-60.5 429.5,-90.5 535.5,-90.5 535.5,-60.5 429.5,-60.5"/>
<text text-anchor="start" x="437.5" y="-78.5" font-family="Helvetica,sans-Serif" font-size="10.00">arg_router::arg_t&lt;</text>
<text text-anchor="middle" x="482.5" y="-67.5" font-family="Helvetica,sans-Serif" font-size="10.00"> T, Policies &gt;</text>
</a>
</g>
</g>
<!-- Node7&#45;&gt;Node8 -->
<g id="edge8" class="edge">
<title>Node7&#45;&gt;Node8</title>
<path fill="none" stroke="midnightblue" d="M396.2,-75.5C407.69,-75.5 419.01,-75.5 429.46,-75.5"/>
<polygon fill="midnightblue" stroke="midnightblue" points="396.08,-72 386.08,-75.5 396.08,-79 396.08,-72"/>
</g>
</g>
</svg>
