<?xml version="1.0" encoding="UTF-8" standalone="no"?>
<!DOCTYPE svg PUBLIC "-//W3C//DTD SVG 1.1//EN"
 "http://www.w3.org/Graphics/SVG/1.1/DTD/svg11.dtd">
<!-- Generated by graphviz version 2.43.0 (0)
 -->
<!-- Title: Graphical Class Hierarchy Pages: 1 -->
<svg width="577pt" height="802pt"
 viewBox="0.00 0.00 577.00 801.50" xmlns="http://www.w3.org/2000/svg" xmlns:xlink="http://www.w3.org/1999/xlink">
<g id="graph0" class="graph" transform="scale(1 1) rotate(0) translate(4 797.5)">
<title>Graphical Class Hierarchy</title>
<polygon fill="white" stroke="transparent" points="-4,4 -4,-797.5 573,-797.5 573,4 -4,4"/>
<!-- Node0 -->
<g id="node1" class="node">
<title>Node0</title>
<g id="a_node1"><a xlink:href="classarg__router_1_1traits_1_1unpack__and__derive.html" target="_top" xlink:title=" ">
<polygon fill="white" stroke="black" points="0,-324 0,-398 165,-398 165,-324 0,-324"/>
<text text-anchor="start" x="8" y="-386" font-family="Helvetica,sans-Serif" font-size="10.00">arg_router::traits</text>
<text text-anchor="start" x="8" y="-375" font-family="Helvetica,sans-Serif" font-size="10.00">::unpack_and_derive</text>
<text text-anchor="start" x="8" y="-364" font-family="Helvetica,sans-Serif" font-size="10.00">&lt; boost::mp11::mp_filter</text>
<text text-anchor="start" x="8" y="-353" font-family="Helvetica,sans-Serif" font-size="10.00">&lt; policy::is_policy, std</text>
<text text-anchor="start" x="8" y="-342" font-family="Helvetica,sans-Serif" font-size="10.00">::tuple&lt; std::decay_t&lt; Params</text>
<text text-anchor="middle" x="82.5" y="-331" font-family="Helvetica,sans-Serif" font-size="10.00"> &gt;... &gt; &gt; &gt;</text>
</a>
</g>
</g>
<!-- Node1 -->
<g id="node2" class="node">
<title>Node1</title>
<g id="a_node2"><a xlink:href="classarg__router_1_1tree__node.html" target="_top" xlink:title=" ">
<polygon fill="white" stroke="black" points="245.5,-763 245.5,-793 367.5,-793 367.5,-763 245.5,-763"/>
<text text-anchor="start" x="253.5" y="-781" font-family="Helvetica,sans-Serif" font-size="10.00">arg_router::tree_node</text>
<text text-anchor="middle" x="306.5" y="-770" font-family="Helvetica,sans-Serif" font-size="10.00">&lt; Params &gt;</text>
</a>
</g>
</g>
<!-- Node0&#45;&gt;Node1 -->
<g id="edge1" class="edge">
<title>Node0&#45;&gt;Node1</title>
<path fill="none" stroke="midnightblue" d="M83.24,-408.23C85.48,-490.89 102.59,-661.77 201,-754 213.02,-765.27 229.22,-771.61 245.27,-775.09"/>
<polygon fill="midnightblue" stroke="midnightblue" points="86.74,-408.04 83.03,-398.12 79.74,-408.19 86.74,-408.04"/>
</g>
<!-- Node2 -->
<g id="node3" class="node">
<title>Node2</title>
<g id="a_node3"><a xlink:href="classarg__router_1_1tree__node.html" target="_top" xlink:title=" ">
<polygon fill="white" stroke="black" points="233.5,-670 233.5,-744 379.5,-744 379.5,-670 233.5,-670"/>
<text text-anchor="start" x="241.5" y="-732" font-family="Helvetica,sans-Serif" font-size="10.00">arg_router::tree_node</text>
<text text-anchor="start" x="241.5" y="-721" font-family="Helvetica,sans-Serif" font-size="10.00">&lt; policy::default_value</text>
<text text-anchor="start" x="241.5" y="-710" font-family="Helvetica,sans-Serif" font-size="10.00">&lt; bool &gt;, std::decay_t</text>
<text text-anchor="start" x="241.5" y="-699" font-family="Helvetica,sans-Serif" font-size="10.00">&lt; decltype(policy::fixed</text>
<text text-anchor="start" x="241.5" y="-688" font-family="Helvetica,sans-Serif" font-size="10.00">_count&lt; 0 &gt;)&gt;, std::decay</text>
<text text-anchor="middle" x="306.5" y="-677" font-family="Helvetica,sans-Serif" font-size="10.00">_t&lt; Policies &gt;... &gt;</text>
</a>
</g>
</g>
<!-- Node0&#45;&gt;Node2 -->
<g id="edge2" class="edge">
<title>Node0&#45;&gt;Node2</title>
<path fill="none" stroke="midnightblue" d="M90.48,-408.11C102.35,-472.83 132.26,-589.36 201,-661 210.13,-670.51 221.56,-678.19 233.49,-684.34"/>
<polygon fill="midnightblue" stroke="midnightblue" points="93.91,-407.42 88.72,-398.18 87.02,-408.64 93.91,-407.42"/>
</g>
<!-- Node4 -->
<g id="node5" class="node">
<title>Node4</title>
<g id="a_node5"><a xlink:href="classarg__router_1_1tree__node.html" target="_top" xlink:title=" ">
<polygon fill="white" stroke="black" points="201,-577 201,-651 412,-651 412,-577 201,-577"/>
<text text-anchor="start" x="209" y="-639" font-family="Helvetica,sans-Serif" font-size="10.00">arg_router::tree_node</text>
<text text-anchor="start" x="209" y="-628" font-family="Helvetica,sans-Serif" font-size="10.00">&lt; policy::display_name</text>
<text text-anchor="start" x="209" y="-617" font-family="Helvetica,sans-Serif" font-size="10.00">_t&lt; generate_string_of</text>
<text text-anchor="start" x="209" y="-606" font-family="Helvetica,sans-Serif" font-size="10.00">_child_names&lt; ParentDocName,</text>
<text text-anchor="start" x="209" y="-595" font-family="Helvetica,sans-Serif" font-size="10.00"> std::decay_t&lt; Params &gt;...</text>
<text text-anchor="middle" x="306.5" y="-584" font-family="Helvetica,sans-Serif" font-size="10.00"> &gt;::type &gt;, std::decay_t&lt; Params &gt;... &gt;</text>
</a>
</g>
</g>
<!-- Node0&#45;&gt;Node4 -->
<g id="edge4" class="edge">
<title>Node0&#45;&gt;Node4</title>
<path fill="none" stroke="midnightblue" d="M100.23,-407.8C118.68,-453.61 152.35,-522.8 201,-567 204.9,-570.55 209.12,-573.86 213.53,-576.95"/>
<polygon fill="midnightblue" stroke="midnightblue" points="103.45,-406.41 96.53,-398.39 96.94,-408.98 103.45,-406.41"/>
</g>
<!-- Node5 -->
<g id="node6" class="node">
<title>Node5</title>
<g id="a_node6"><a xlink:href="classarg__router_1_1tree__node.html" target="_top" xlink:title=" ">
<polygon fill="white" stroke="black" points="229,-472.5 229,-557.5 384,-557.5 384,-472.5 229,-472.5"/>
<text text-anchor="start" x="237" y="-545.5" font-family="Helvetica,sans-Serif" font-size="10.00">arg_router::tree_node</text>
<text text-anchor="start" x="237" y="-534.5" font-family="Helvetica,sans-Serif" font-size="10.00">&lt; policy::display_name</text>
<text text-anchor="start" x="237" y="-523.5" font-family="Helvetica,sans-Serif" font-size="10.00">_t&lt; generate_string_of</text>
<text text-anchor="start" x="237" y="-512.5" font-family="Helvetica,sans-Serif" font-size="10.00">_child_names&lt; S_(&quot;Alias</text>
<text text-anchor="start" x="237" y="-501.5" font-family="Helvetica,sans-Serif" font-size="10.00"> Group: &quot;), std::decay_t</text>
<text text-anchor="start" x="237" y="-490.5" font-family="Helvetica,sans-Serif" font-size="10.00">&lt; Params &gt;... &gt;::type &gt;, std</text>
<text text-anchor="middle" x="306.5" y="-479.5" font-family="Helvetica,sans-Serif" font-size="10.00">::decay_t&lt; Params &gt;... &gt;</text>
</a>
</g>
</g>
<!-- Node0&#45;&gt;Node5 -->
<g id="edge5" class="edge">
<title>Node0&#45;&gt;Node5</title>
<path fill="none" stroke="midnightblue" d="M128.7,-405.01C149.69,-424.16 175.58,-446.04 201,-463 209.77,-468.85 219.28,-474.47 228.88,-479.71"/>
<polygon fill="midnightblue" stroke="midnightblue" points="130.92,-402.3 121.2,-398.09 126.18,-407.45 130.92,-402.3"/>
</g>
<!-- Node6 -->
<g id="node7" class="node">
<title>Node6</title>
<g id="a_node7"><a xlink:href="classarg__router_1_1tree__node.html" target="_top" xlink:title=" ">
<polygon fill="white" stroke="black" points="233.5,-368.5 233.5,-453.5 379.5,-453.5 379.5,-368.5 233.5,-368.5"/>
<text text-anchor="start" x="241.5" y="-441.5" font-family="Helvetica,sans-Serif" font-size="10.00">arg_router::tree_node</text>
<text text-anchor="start" x="241.5" y="-430.5" font-family="Helvetica,sans-Serif" font-size="10.00">&lt; policy::display_name</text>
<text text-anchor="start" x="241.5" y="-419.5" font-family="Helvetica,sans-Serif" font-size="10.00">_t&lt; generate_string_of</text>
<text text-anchor="start" x="241.5" y="-408.5" font-family="Helvetica,sans-Serif" font-size="10.00">_child_names&lt; S_(&quot;One of</text>
<text text-anchor="start" x="241.5" y="-397.5" font-family="Helvetica,sans-Serif" font-size="10.00">: &quot;), std::decay_t&lt; Params</text>
<text text-anchor="start" x="241.5" y="-386.5" font-family="Helvetica,sans-Serif" font-size="10.00"> &gt;... &gt;::type &gt;, std::decay</text>
<text text-anchor="middle" x="306.5" y="-375.5" font-family="Helvetica,sans-Serif" font-size="10.00">_t&lt; Params &gt;... &gt;</text>
</a>
</g>
</g>
<!-- Node0&#45;&gt;Node6 -->
<g id="edge6" class="edge">
<title>Node0&#45;&gt;Node6</title>
<path fill="none" stroke="midnightblue" d="M175.02,-381.61C194.51,-386 214.83,-390.58 233.48,-394.78"/>
<polygon fill="midnightblue" stroke="midnightblue" points="175.74,-378.19 165.22,-379.41 174.21,-385.02 175.74,-378.19"/>
</g>
<!-- Node7 -->
<g id="node8" class="node">
<title>Node7</title>
<g id="a_node8"><a xlink:href="classarg__router_1_1tree__node.html" target="_top" xlink:title=" ">
<polygon fill="white" stroke="black" points="233,-275 233,-349 380,-349 380,-275 233,-275"/>
<text text-anchor="start" x="241" y="-337" font-family="Helvetica,sans-Serif" font-size="10.00">arg_router::tree_node</text>
<text text-anchor="start" x="241" y="-326" font-family="Helvetica,sans-Serif" font-size="10.00">&lt; policy::multi_stage</text>
<text text-anchor="start" x="241" y="-315" font-family="Helvetica,sans-Serif" font-size="10.00">_value&lt; T, bool &gt;, std</text>
<text text-anchor="start" x="241" y="-304" font-family="Helvetica,sans-Serif" font-size="10.00">::decay_t&lt; decltype(policy</text>
<text text-anchor="start" x="241" y="-293" font-family="Helvetica,sans-Serif" font-size="10.00">::fixed_count&lt; 0 &gt;)&gt;, std</text>
<text text-anchor="middle" x="306.5" y="-282" font-family="Helvetica,sans-Serif" font-size="10.00">::decay_t&lt; Policies &gt;... &gt;</text>
</a>
</g>
</g>
<!-- Node0&#45;&gt;Node7 -->
<g id="edge7" class="edge">
<title>Node0&#45;&gt;Node7</title>
<path fill="none" stroke="midnightblue" d="M175.17,-340.77C194.37,-336.53 214.36,-332.12 232.75,-328.06"/>
<polygon fill="midnightblue" stroke="midnightblue" points="174.23,-337.39 165.22,-342.96 175.74,-344.23 174.23,-337.39"/>
</g>
<!-- Node9 -->
<g id="node10" class="node">
<title>Node9</title>
<g id="a_node10"><a xlink:href="classarg__router_1_1tree__node.html" target="_top" xlink:title=" ">
<polygon fill="white" stroke="black" points="227,-192.5 227,-255.5 386,-255.5 386,-192.5 227,-192.5"/>
<text text-anchor="start" x="235" y="-243.5" font-family="Helvetica,sans-Serif" font-size="10.00">arg_router::tree_node</text>
<text text-anchor="start" x="235" y="-232.5" font-family="Helvetica,sans-Serif" font-size="10.00">&lt; policy::no_result_value</text>
<text text-anchor="start" x="235" y="-221.5" font-family="Helvetica,sans-Serif" font-size="10.00">&lt;&gt;, std::decay_t&lt; decltype</text>
<text text-anchor="start" x="235" y="-210.5" font-family="Helvetica,sans-Serif" font-size="10.00">(policy::min_count&lt; 0 &gt;)&gt;,</text>
<text text-anchor="middle" x="306.5" y="-199.5" font-family="Helvetica,sans-Serif" font-size="10.00"> std::decay_t&lt; Policies &gt;... &gt;</text>
</a>
</g>
</g>
<!-- Node0&#45;&gt;Node9 -->
<g id="edge9" class="edge">
<title>Node0&#45;&gt;Node9</title>
<path fill="none" stroke="midnightblue" d="M130.81,-317.36C151.35,-299.88 176.33,-280.49 201,-266 209.18,-261.2 218.01,-256.71 226.95,-252.58"/>
<polygon fill="midnightblue" stroke="midnightblue" points="128.45,-314.77 123.16,-323.95 133.02,-320.07 128.45,-314.77"/>
</g>
<!-- Node11 -->
<g id="node12" class="node">
<title>Node11</title>
<g id="a_node12"><a xlink:href="classarg__router_1_1tree__node.html" target="_top" xlink:title=" ">
<polygon fill="white" stroke="black" points="218,-132.5 218,-173.5 395,-173.5 395,-132.5 218,-132.5"/>
<text text-anchor="start" x="226" y="-161.5" font-family="Helvetica,sans-Serif" font-size="10.00">arg_router::tree_node</text>
<text text-anchor="start" x="226" y="-150.5" font-family="Helvetica,sans-Serif" font-size="10.00">&lt; policy::no_result_value</text>
<text text-anchor="middle" x="306.5" y="-139.5" font-family="Helvetica,sans-Serif" font-size="10.00">&lt;&gt;, std::decay_t&lt; Params &gt;... &gt;</text>
</a>
</g>
</g>
<!-- Node0&#45;&gt;Node11 -->
<g id="edge11" class="edge">
<title>Node0&#45;&gt;Node11</title>
<path fill="none" stroke="midnightblue" d="M102.71,-314.82C121.85,-274.32 155.04,-216.76 201,-183 206.25,-179.15 211.98,-175.78 217.97,-172.86"/>
<polygon fill="midnightblue" stroke="midnightblue" points="99.5,-313.41 98.49,-323.96 105.86,-316.35 99.5,-313.41"/>
</g>
<!-- Node13 -->
<g id="node14" class="node">
<title>Node13</title>
<g id="a_node14"><a xlink:href="classarg__router_1_1tree__node.html" target="_top" xlink:title=" ">
<polygon fill="white" stroke="black" points="214,-61 214,-113 399,-113 399,-61 214,-61"/>
<text text-anchor="start" x="222" y="-101" font-family="Helvetica,sans-Serif" font-size="10.00">arg_router::tree_node</text>
<text text-anchor="start" x="222" y="-90" font-family="Helvetica,sans-Serif" font-size="10.00">&lt; std::decay_t&lt; decltype</text>
<text text-anchor="start" x="222" y="-79" font-family="Helvetica,sans-Serif" font-size="10.00">(policy::fixed_count&lt; 1</text>
<text text-anchor="middle" x="306.5" y="-68" font-family="Helvetica,sans-Serif" font-size="10.00"> &gt;)&gt;, std::decay_t&lt; Policies &gt;... &gt;</text>
</a>
</g>
</g>
<!-- Node0&#45;&gt;Node13 -->
<g id="edge13" class="edge">
<title>Node0&#45;&gt;Node13</title>
<path fill="none" stroke="midnightblue" d="M95.1,-313.81C110.57,-260.36 143.01,-174.07 201,-123 205.18,-119.32 209.75,-116.02 214.57,-113.04"/>
<polygon fill="midnightblue" stroke="midnightblue" points="91.65,-313.14 92.31,-323.72 98.39,-315.03 91.65,-313.14"/>
</g>
<!-- Node15 -->
<g id="node16" class="node">
<title>Node15</title>
<g id="a_node16"><a xlink:href="classarg__router_1_1tree__node.html" target="_top" xlink:title=" ">
<polygon fill="white" stroke="black" points="239.5,-0.5 239.5,-41.5 373.5,-41.5 373.5,-0.5 239.5,-0.5"/>
<text text-anchor="start" x="247.5" y="-29.5" font-family="Helvetica,sans-Serif" font-size="10.00">arg_router::tree_node</text>
<text text-anchor="start" x="247.5" y="-18.5" font-family="Helvetica,sans-Serif" font-size="10.00">&lt; std::decay_t&lt; Params</text>
<text text-anchor="middle" x="306.5" y="-7.5" font-family="Helvetica,sans-Serif" font-size="10.00"> &gt;... &gt;</text>
</a>
</g>
</g>
<!-- Node0&#45;&gt;Node15 -->
<g id="edge15" class="edge">
<title>Node0&#45;&gt;Node15</title>
<path fill="none" stroke="midnightblue" d="M88.39,-314.06C97.94,-246.49 125.26,-122.26 201,-52 211.68,-42.09 225.39,-35.34 239.34,-30.74"/>
<polygon fill="midnightblue" stroke="midnightblue" points="84.92,-313.62 87.06,-324 91.86,-314.55 84.92,-313.62"/>
</g>
<!-- Node3 -->
<g id="node4" class="node">
<title>Node3</title>
<g id="a_node4"><a xlink:href="classarg__router_1_1flag__t.html" target="_top" xlink:title=" ">
<polygon fill="white" stroke="black" points="458.5,-692 458.5,-722 558.5,-722 558.5,-692 458.5,-692"/>
<text text-anchor="start" x="466.5" y="-710" font-family="Helvetica,sans-Serif" font-size="10.00">arg_router::flag_t</text>
<text text-anchor="middle" x="508.5" y="-699" font-family="Helvetica,sans-Serif" font-size="10.00">&lt; Policies &gt;</text>
</a>
</g>
</g>
<!-- Node2&#45;&gt;Node3 -->
<g id="edge3" class="edge">
<title>Node2&#45;&gt;Node3</title>
<path fill="none" stroke="midnightblue" d="M389.91,-707C413.12,-707 437.63,-707 458.24,-707"/>
<polygon fill="midnightblue" stroke="midnightblue" points="389.7,-703.5 379.7,-707 389.7,-710.5 389.7,-703.5"/>
</g>
<!-- Node8 -->
<g id="node9" class="node">
<title>Node8</title>
<g id="a_node9"><a xlink:href="classarg__router_1_1counting__flag__t.html" target="_top" xlink:title=" ">
<polygon fill="white" stroke="black" points="448,-297 448,-327 569,-327 569,-297 448,-297"/>
<text text-anchor="start" x="456" y="-315" font-family="Helvetica,sans-Serif" font-size="10.00">arg_router::counting</text>
<text text-anchor="middle" x="508.5" y="-304" font-family="Helvetica,sans-Serif" font-size="10.00">_flag_t&lt; T, Policies &gt;</text>
</a>
</g>
</g>
<!-- Node7&#45;&gt;Node8 -->
<g id="edge8" class="edge">
<title>Node7&#45;&gt;Node8</title>
<path fill="none" stroke="midnightblue" d="M390.28,-312C409.61,-312 429.82,-312 447.91,-312"/>
<polygon fill="midnightblue" stroke="midnightblue" points="390.27,-308.5 380.27,-312 390.27,-315.5 390.27,-308.5"/>
</g>
<!-- Node10 -->
<g id="node11" class="node">
<title>Node10</title>
<g id="a_node11"><a xlink:href="classarg__router_1_1help__t.html" target="_top" xlink:title=" ">
<polygon fill="white" stroke="black" points="457,-209 457,-239 560,-239 560,-209 457,-209"/>
<text text-anchor="start" x="465" y="-227" font-family="Helvetica,sans-Serif" font-size="10.00">arg_router::help_t</text>
<text text-anchor="middle" x="508.5" y="-216" font-family="Helvetica,sans-Serif" font-size="10.00">&lt; Policies &gt;</text>
</a>
</g>
</g>
<!-- Node9&#45;&gt;Node10 -->
<g id="edge10" class="edge">
<title>Node9&#45;&gt;Node10</title>
<path fill="none" stroke="midnightblue" d="M396.35,-224C417.04,-224 438.38,-224 456.76,-224"/>
<polygon fill="midnightblue" stroke="midnightblue" points="396.26,-220.5 386.26,-224 396.26,-227.5 396.26,-220.5"/>
</g>
<!-- Node12 -->
<g id="node13" class="node">
<title>Node12</title>
<g id="a_node13"><a xlink:href="classarg__router_1_1mode__t.html" target="_top" xlink:title=" ">
<polygon fill="white" stroke="black" points="453.5,-138 453.5,-168 563.5,-168 563.5,-138 453.5,-138"/>
<text text-anchor="start" x="461.5" y="-156" font-family="Helvetica,sans-Serif" font-size="10.00">arg_router::mode_t</text>
<text text-anchor="middle" x="508.5" y="-145" font-family="Helvetica,sans-Serif" font-size="10.00">&lt; Params &gt;</text>
</a>
</g>
</g>
<!-- Node11&#45;&gt;Node12 -->
<g id="edge12" class="edge">
<title>Node11&#45;&gt;Node12</title>
<path fill="none" stroke="midnightblue" d="M405.44,-153C421.89,-153 438.41,-153 453.22,-153"/>
<polygon fill="midnightblue" stroke="midnightblue" points="405.22,-149.5 395.22,-153 405.22,-156.5 405.22,-149.5"/>
</g>
<!-- Node14 -->
<g id="node15" class="node">
<title>Node14</title>
<g id="a_node15"><a xlink:href="classarg__router_1_1arg__t.html" target="_top" xlink:title=" ">
<polygon fill="white" stroke="black" points="455.5,-72 455.5,-102 561.5,-102 561.5,-72 455.5,-72"/>
<text text-anchor="start" x="463.5" y="-90" font-family="Helvetica,sans-Serif" font-size="10.00">arg_router::arg_t&lt;</text>
<text text-anchor="middle" x="508.5" y="-79" font-family="Helvetica,sans-Serif" font-size="10.00"> T, Policies &gt;</text>
</a>
</g>
</g>
<!-- Node13&#45;&gt;Node14 -->
<g id="edge14" class="edge">
<title>Node13&#45;&gt;Node14</title>
<path fill="none" stroke="midnightblue" d="M409.46,-87C425.37,-87 441.22,-87 455.38,-87"/>
<polygon fill="midnightblue" stroke="midnightblue" points="409.01,-83.5 399.01,-87 409.01,-90.5 409.01,-83.5"/>
</g>
<!-- Node16 -->
<g id="node17" class="node">
<title>Node16</title>
<g id="a_node17"><a xlink:href="classarg__router_1_1root__t.html" target="_top" xlink:title=" ">
<polygon fill="white" stroke="black" points="458,-6 458,-36 559,-36 559,-6 458,-6"/>
<text text-anchor="start" x="466" y="-24" font-family="Helvetica,sans-Serif" font-size="10.00">arg_router::root_t</text>
<text text-anchor="middle" x="508.5" y="-13" font-family="Helvetica,sans-Serif" font-size="10.00">&lt; Params &gt;</text>
</a>
</g>
</g>
<!-- Node15&#45;&gt;Node16 -->
<g id="edge16" class="edge">
<title>Node15&#45;&gt;Node16</title>
<path fill="none" stroke="midnightblue" d="M383.66,-21C408.45,-21 435.33,-21 457.69,-21"/>
<polygon fill="midnightblue" stroke="midnightblue" points="383.54,-17.5 373.54,-21 383.54,-24.5 383.54,-17.5"/>
</g>
</g>
</svg>
