<?xml version="1.0" encoding="UTF-8" standalone="no"?>
<!DOCTYPE svg PUBLIC "-//W3C//DTD SVG 1.1//EN"
 "http://www.w3.org/Graphics/SVG/1.1/DTD/svg11.dtd">
<!-- Generated by graphviz version 2.43.0 (0)
 -->
<!-- Title: Graphical Class Hierarchy Pages: 1 -->
<svg width="498pt" height="280pt"
 viewBox="0.00 0.00 498.00 279.50" xmlns="http://www.w3.org/2000/svg" xmlns:xlink="http://www.w3.org/1999/xlink">
<g id="graph0" class="graph" transform="scale(1 1) rotate(0) translate(4 275.5)">
<title>Graphical Class Hierarchy</title>
<polygon fill="white" stroke="transparent" points="-4,4 -4,-275.5 494,-275.5 494,4 -4,4"/>
<!-- Node0 -->
<g id="node1" class="node">
<title>Node0</title>
<g id="a_node1"><a xlink:href="classarg__router_1_1traits_1_1unpack__and__derive.html" target="_top" xlink:title=" ">
<polygon fill="white" stroke="black" points="0,-126.5 0,-189.5 138,-189.5 138,-126.5 0,-126.5"/>
<text text-anchor="start" x="8" y="-177.5" font-family="Helvetica,sans-Serif" font-size="10.00">arg_router::traits</text>
<text text-anchor="start" x="8" y="-166.5" font-family="Helvetica,sans-Serif" font-size="10.00">::unpack_and_derive</text>
<text text-anchor="start" x="8" y="-155.5" font-family="Helvetica,sans-Serif" font-size="10.00">&lt; boost::mp11::mp_filter</text>
<text text-anchor="start" x="8" y="-144.5" font-family="Helvetica,sans-Serif" font-size="10.00">&lt; policy::is_policy, std</text>
<text text-anchor="middle" x="69" y="-133.5" font-family="Helvetica,sans-Serif" font-size="10.00">::tuple&lt; Params... &gt; &gt; &gt;</text>
</a>
</g>
</g>
<!-- Node1 -->
<g id="node2" class="node">
<title>Node1</title>
<g id="a_node2"><a xlink:href="classarg__router_1_1tree__node.html" target="_top" xlink:title=" ">
<polygon fill="white" stroke="black" points="192.5,-241 192.5,-271 314.5,-271 314.5,-241 192.5,-241"/>
<text text-anchor="start" x="200.5" y="-259" font-family="Helvetica,sans-Serif" font-size="10.00">arg_router::tree_node</text>
<text text-anchor="middle" x="253.5" y="-248" font-family="Helvetica,sans-Serif" font-size="10.00">&lt; Params &gt;</text>
</a>
</g>
</g>
<!-- Node0&#45;&gt;Node1 -->
<g id="edge1" class="edge">
<title>Node0&#45;&gt;Node1</title>
<path fill="none" stroke="midnightblue" d="M116.36,-195.83C133.68,-208.63 154.01,-222.16 174,-232 180.78,-235.34 188.11,-238.32 195.48,-240.95"/>
<polygon fill="midnightblue" stroke="midnightblue" points="118.21,-192.84 108.11,-189.63 114,-198.44 118.21,-192.84"/>
</g>
<!-- Node2 -->
<g id="node3" class="node">
<title>Node2</title>
<g id="a_node3"><a xlink:href="classarg__router_1_1tree__node.html" target="_top" xlink:title=" ">
<polygon fill="white" stroke="black" points="192.5,-192 192.5,-222 314.5,-222 314.5,-192 192.5,-192"/>
<text text-anchor="start" x="200.5" y="-210" font-family="Helvetica,sans-Serif" font-size="10.00">arg_router::tree_node</text>
<text text-anchor="middle" x="253.5" y="-199" font-family="Helvetica,sans-Serif" font-size="10.00">&lt; Params... &gt;</text>
</a>
</g>
</g>
<!-- Node0&#45;&gt;Node2 -->
<g id="edge2" class="edge">
<title>Node0&#45;&gt;Node2</title>
<path fill="none" stroke="midnightblue" d="M148.25,-179.01C164.5,-183.37 181.32,-187.89 196.57,-191.98"/>
<polygon fill="midnightblue" stroke="midnightblue" points="148.78,-175.53 138.22,-176.32 146.97,-182.29 148.78,-175.53"/>
</g>
<!-- Node5 -->
<g id="node6" class="node">
<title>Node5</title>
<g id="a_node6"><a xlink:href="classarg__router_1_1tree__node.html" target="_top" xlink:title=" ">
<polygon fill="white" stroke="black" points="192.5,-143 192.5,-173 314.5,-173 314.5,-143 192.5,-143"/>
<text text-anchor="start" x="200.5" y="-161" font-family="Helvetica,sans-Serif" font-size="10.00">arg_router::tree_node</text>
<text text-anchor="middle" x="253.5" y="-150" font-family="Helvetica,sans-Serif" font-size="10.00">&lt; Policies... &gt;</text>
</a>
</g>
</g>
<!-- Node0&#45;&gt;Node5 -->
<g id="edge5" class="edge">
<title>Node0&#45;&gt;Node5</title>
<path fill="none" stroke="midnightblue" d="M148.35,-158C163.13,-158 178.36,-158 192.47,-158"/>
<polygon fill="midnightblue" stroke="midnightblue" points="148.22,-154.5 138.22,-158 148.22,-161.5 148.22,-154.5"/>
</g>
<!-- Node7 -->
<g id="node8" class="node">
<title>Node7</title>
<g id="a_node8"><a xlink:href="classarg__router_1_1tree__node.html" target="_top" xlink:title=" ">
<polygon fill="white" stroke="black" points="174,-82.5 174,-123.5 333,-123.5 333,-82.5 174,-82.5"/>
<text text-anchor="start" x="182" y="-111.5" font-family="Helvetica,sans-Serif" font-size="10.00">arg_router::tree_node</text>
<text text-anchor="start" x="182" y="-100.5" font-family="Helvetica,sans-Serif" font-size="10.00">&lt; policy::has_contiguous</text>
<text text-anchor="middle" x="253.5" y="-89.5" font-family="Helvetica,sans-Serif" font-size="10.00">_value_tokens_t, Policies... &gt;</text>
</a>
</g>
</g>
<!-- Node0&#45;&gt;Node7 -->
<g id="edge7" class="edge">
<title>Node0&#45;&gt;Node7</title>
<path fill="none" stroke="midnightblue" d="M147.86,-134.53C160,-130.88 172.47,-127.12 184.37,-123.53"/>
<polygon fill="midnightblue" stroke="midnightblue" points="146.78,-131.21 138.22,-137.44 148.8,-137.91 146.78,-131.21"/>
</g>
<!-- Node9 -->
<g id="node10" class="node">
<title>Node9</title>
<g id="a_node10"><a xlink:href="classarg__router_1_1tree__node.html" target="_top" xlink:title=" ">
<polygon fill="white" stroke="black" points="179,-0.5 179,-63.5 328,-63.5 328,-0.5 179,-0.5"/>
<text text-anchor="start" x="187" y="-51.5" font-family="Helvetica,sans-Serif" font-size="10.00">arg_router::tree_node</text>
<text text-anchor="start" x="187" y="-40.5" font-family="Helvetica,sans-Serif" font-size="10.00">&lt; policy::has_value_tokens</text>
<text text-anchor="start" x="187" y="-29.5" font-family="Helvetica,sans-Serif" font-size="10.00">_t, policy::count_t&lt; std</text>
<text text-anchor="start" x="187" y="-18.5" font-family="Helvetica,sans-Serif" font-size="10.00">::integral_constant&lt; std::</text>
<text text-anchor="middle" x="253.5" y="-7.5" font-family="Helvetica,sans-Serif" font-size="10.00">size_t, 1 &gt; &gt;, Policies... &gt;</text>
</a>
</g>
</g>
<!-- Node0&#45;&gt;Node9 -->
<g id="edge9" class="edge">
<title>Node0&#45;&gt;Node9</title>
<path fill="none" stroke="midnightblue" d="M113.25,-119.33C131.37,-104.02 153.07,-86.81 174,-73 178.88,-69.78 184.04,-66.62 189.28,-63.56"/>
<polygon fill="midnightblue" stroke="midnightblue" points="110.52,-117.06 105.19,-126.21 115.06,-122.38 110.52,-117.06"/>
</g>
<!-- Node3 -->
<g id="node4" class="node">
<title>Node3</title>
<g id="a_node4"><a xlink:href="classarg__router_1_1mode__t.html" target="_top" xlink:title=" ">
<polygon fill="white" stroke="black" points="374.5,-241 374.5,-271 484.5,-271 484.5,-241 374.5,-241"/>
<text text-anchor="start" x="382.5" y="-259" font-family="Helvetica,sans-Serif" font-size="10.00">arg_router::mode_t</text>
<text text-anchor="middle" x="429.5" y="-248" font-family="Helvetica,sans-Serif" font-size="10.00">&lt; Params &gt;</text>
</a>
</g>
</g>
<!-- Node2&#45;&gt;Node3 -->
<g id="edge3" class="edge">
<title>Node2&#45;&gt;Node3</title>
<path fill="none" stroke="midnightblue" d="M317.78,-224.82C336.57,-230.11 356.95,-235.85 375.05,-240.95"/>
<polygon fill="midnightblue" stroke="midnightblue" points="318.7,-221.44 308.13,-222.1 316.8,-228.18 318.7,-221.44"/>
</g>
<!-- Node4 -->
<g id="node5" class="node">
<title>Node4</title>
<g id="a_node5"><a xlink:href="classarg__router_1_1root__t.html" target="_top" xlink:title=" ">
<polygon fill="white" stroke="black" points="379,-192 379,-222 480,-222 480,-192 379,-192"/>
<text text-anchor="start" x="387" y="-210" font-family="Helvetica,sans-Serif" font-size="10.00">arg_router::root_t</text>
<text text-anchor="middle" x="429.5" y="-199" font-family="Helvetica,sans-Serif" font-size="10.00">&lt; Params &gt;</text>
</a>
</g>
</g>
<!-- Node2&#45;&gt;Node4 -->
<g id="edge4" class="edge">
<title>Node2&#45;&gt;Node4</title>
<path fill="none" stroke="midnightblue" d="M325.07,-207C343.12,-207 362.15,-207 378.89,-207"/>
<polygon fill="midnightblue" stroke="midnightblue" points="324.87,-203.5 314.87,-207 324.87,-210.5 324.87,-203.5"/>
</g>
<!-- Node6 -->
<g id="node7" class="node">
<title>Node6</title>
<g id="a_node7"><a xlink:href="classarg__router_1_1flag__t.html" target="_top" xlink:title=" ">
<polygon fill="white" stroke="black" points="379.5,-143 379.5,-173 479.5,-173 479.5,-143 379.5,-143"/>
<text text-anchor="start" x="387.5" y="-161" font-family="Helvetica,sans-Serif" font-size="10.00">arg_router::flag_t</text>
<text text-anchor="middle" x="429.5" y="-150" font-family="Helvetica,sans-Serif" font-size="10.00">&lt; Policies &gt;</text>
</a>
</g>
</g>
<!-- Node5&#45;&gt;Node6 -->
<g id="edge6" class="edge">
<title>Node5&#45;&gt;Node6</title>
<path fill="none" stroke="midnightblue" d="M324.91,-158C343.21,-158 362.52,-158 379.46,-158"/>
<polygon fill="midnightblue" stroke="midnightblue" points="324.87,-154.5 314.87,-158 324.87,-161.5 324.87,-154.5"/>
</g>
<!-- Node8 -->
<g id="node9" class="node">
<title>Node8</title>
<g id="a_node9"><a xlink:href="classarg__router_1_1positional__arg__t.html" target="_top" xlink:title=" ">
<polygon fill="white" stroke="black" points="369,-88 369,-118 490,-118 490,-88 369,-88"/>
<text text-anchor="start" x="377" y="-106" font-family="Helvetica,sans-Serif" font-size="10.00">arg_router::positional</text>
<text text-anchor="middle" x="429.5" y="-95" font-family="Helvetica,sans-Serif" font-size="10.00">_arg_t&lt; T, Policies &gt;</text>
</a>
</g>
</g>
<!-- Node7&#45;&gt;Node8 -->
<g id="edge8" class="edge">
<title>Node7&#45;&gt;Node8</title>
<path fill="none" stroke="midnightblue" d="M343.24,-103C351.88,-103 360.5,-103 368.76,-103"/>
<polygon fill="midnightblue" stroke="midnightblue" points="343.1,-99.5 333.1,-103 343.1,-106.5 343.1,-99.5"/>
</g>
<!-- Node10 -->
<g id="node11" class="node">
<title>Node10</title>
<g id="a_node11"><a xlink:href="classarg__router_1_1arg__t.html" target="_top" xlink:title=" ">
<polygon fill="white" stroke="black" points="376.5,-17 376.5,-47 482.5,-47 482.5,-17 376.5,-17"/>
<text text-anchor="start" x="384.5" y="-35" font-family="Helvetica,sans-Serif" font-size="10.00">arg_router::arg_t&lt;</text>
<text text-anchor="middle" x="429.5" y="-24" font-family="Helvetica,sans-Serif" font-size="10.00"> T, Policies &gt;</text>
</a>
</g>
</g>
<!-- Node9&#45;&gt;Node10 -->
<g id="edge10" class="edge">
<title>Node9&#45;&gt;Node10</title>
<path fill="none" stroke="midnightblue" d="M338.37,-32C351.31,-32 364.34,-32 376.32,-32"/>
<polygon fill="midnightblue" stroke="midnightblue" points="338.04,-28.5 328.04,-32 338.04,-35.5 338.04,-28.5"/>
</g>
</g>
</svg>
