<?xml version="1.0" encoding="UTF-8" standalone="no"?>
<!DOCTYPE svg PUBLIC "-//W3C//DTD SVG 1.1//EN"
 "http://www.w3.org/Graphics/SVG/1.1/DTD/svg11.dtd">
<!-- Generated by graphviz version 2.43.0 (0)
 -->
<!-- Title: Graphical Class Hierarchy Pages: 1 -->
<svg width="545pt" height="340pt"
 viewBox="0.00 0.00 545.00 339.50" xmlns="http://www.w3.org/2000/svg" xmlns:xlink="http://www.w3.org/1999/xlink">
<g id="graph0" class="graph" transform="scale(1 1) rotate(0) translate(4 335.5)">
<title>Graphical Class Hierarchy</title>
<polygon fill="white" stroke="transparent" points="-4,4 -4,-335.5 541,-335.5 541,4 -4,4"/>
<!-- Node30 -->
<g id="node1" class="node">
<title>Node30</title>
<g id="a_node1"><a xlink:href="structarg__router_1_1policy_1_1no__result__value.html" target="_top" xlink:title=" ">
<polygon fill="white" stroke="black" points="211,-301 211,-331 313,-331 313,-301 211,-301"/>
<text text-anchor="start" x="219" y="-319" font-family="Helvetica,sans-Serif" font-size="10.00">arg_router::policy</text>
<text text-anchor="middle" x="262" y="-308" font-family="Helvetica,sans-Serif" font-size="10.00">::no_result_value</text>
</a>
</g>
</g>
<!-- Node3 -->
<g id="node2" class="node">
<title>Node3</title>
<g id="a_node2"><a xlink:href="classarg__router_1_1mode__t.html" target="_top" xlink:title=" ">
<polygon fill="white" stroke="black" points="406.5,-252 406.5,-282 516.5,-282 516.5,-252 406.5,-252"/>
<text text-anchor="start" x="414.5" y="-270" font-family="Helvetica,sans-Serif" font-size="10.00">arg_router::mode_t</text>
<text text-anchor="middle" x="461.5" y="-259" font-family="Helvetica,sans-Serif" font-size="10.00">&lt; Params &gt;</text>
</a>
</g>
</g>
<!-- Node30&#45;&gt;Node3 -->
<g id="edge1" class="edge">
<title>Node30&#45;&gt;Node3</title>
<path fill="none" stroke="midnightblue" d="M323.02,-301.11C349.54,-294.53 380.49,-286.85 406.3,-280.45"/>
<polygon fill="midnightblue" stroke="midnightblue" points="321.96,-297.77 313.09,-303.57 323.64,-304.56 321.96,-297.77"/>
</g>
<!-- Node31 -->
<g id="node3" class="node">
<title>Node31</title>
<g id="a_node3"><a xlink:href="classarg__router_1_1policy_1_1alias__t.html" target="_top" xlink:title=" ">
<polygon fill="white" stroke="black" points="386,-301 386,-331 537,-331 537,-301 386,-301"/>
<text text-anchor="start" x="394" y="-319" font-family="Helvetica,sans-Serif" font-size="10.00">arg_router::policy</text>
<text text-anchor="middle" x="461.5" y="-308" font-family="Helvetica,sans-Serif" font-size="10.00">::alias_t&lt; AliasedPolicies &gt;</text>
</a>
</g>
</g>
<!-- Node30&#45;&gt;Node31 -->
<g id="edge2" class="edge">
<title>Node30&#45;&gt;Node31</title>
<path fill="none" stroke="midnightblue" d="M323.18,-316C342.93,-316 365.13,-316 385.82,-316"/>
<polygon fill="midnightblue" stroke="midnightblue" points="323.09,-312.5 313.09,-316 323.09,-319.5 323.09,-312.5"/>
</g>
<!-- Node0 -->
<g id="node4" class="node">
<title>Node0</title>
<g id="a_node4"><a xlink:href="classarg__router_1_1traits_1_1unpack__and__derive.html" target="_top" xlink:title=" ">
<polygon fill="white" stroke="black" points="0,-137.5 0,-200.5 138,-200.5 138,-137.5 0,-137.5"/>
<text text-anchor="start" x="8" y="-188.5" font-family="Helvetica,sans-Serif" font-size="10.00">arg_router::traits</text>
<text text-anchor="start" x="8" y="-177.5" font-family="Helvetica,sans-Serif" font-size="10.00">::unpack_and_derive</text>
<text text-anchor="start" x="8" y="-166.5" font-family="Helvetica,sans-Serif" font-size="10.00">&lt; boost::mp11::mp_filter</text>
<text text-anchor="start" x="8" y="-155.5" font-family="Helvetica,sans-Serif" font-size="10.00">&lt; policy::is_policy, std</text>
<text text-anchor="middle" x="69" y="-144.5" font-family="Helvetica,sans-Serif" font-size="10.00">::tuple&lt; Params... &gt; &gt; &gt;</text>
</a>
</g>
</g>
<!-- Node1 -->
<g id="node5" class="node">
<title>Node1</title>
<g id="a_node5"><a xlink:href="classarg__router_1_1tree__node.html" target="_top" xlink:title=" ">
<polygon fill="white" stroke="black" points="201,-252 201,-282 323,-282 323,-252 201,-252"/>
<text text-anchor="start" x="209" y="-270" font-family="Helvetica,sans-Serif" font-size="10.00">arg_router::tree_node</text>
<text text-anchor="middle" x="262" y="-259" font-family="Helvetica,sans-Serif" font-size="10.00">&lt; Params &gt;</text>
</a>
</g>
</g>
<!-- Node0&#45;&gt;Node1 -->
<g id="edge3" class="edge">
<title>Node0&#45;&gt;Node1</title>
<path fill="none" stroke="midnightblue" d="M115.77,-206.81C133.17,-219.74 153.71,-233.35 174,-243 182.35,-246.97 191.47,-250.38 200.57,-253.29"/>
<polygon fill="midnightblue" stroke="midnightblue" points="117.58,-203.79 107.49,-200.54 113.35,-209.37 117.58,-203.79"/>
</g>
<!-- Node2 -->
<g id="node6" class="node">
<title>Node2</title>
<g id="a_node6"><a xlink:href="classarg__router_1_1tree__node.html" target="_top" xlink:title=" ">
<polygon fill="white" stroke="black" points="201,-203 201,-233 323,-233 323,-203 201,-203"/>
<text text-anchor="start" x="209" y="-221" font-family="Helvetica,sans-Serif" font-size="10.00">arg_router::tree_node</text>
<text text-anchor="middle" x="262" y="-210" font-family="Helvetica,sans-Serif" font-size="10.00">&lt; Params... &gt;</text>
</a>
</g>
</g>
<!-- Node0&#45;&gt;Node2 -->
<g id="edge4" class="edge">
<title>Node0&#45;&gt;Node2</title>
<path fill="none" stroke="midnightblue" d="M147.86,-188.97C166.07,-193.65 185.16,-198.54 202.37,-202.96"/>
<polygon fill="midnightblue" stroke="midnightblue" points="148.7,-185.58 138.15,-186.48 146.96,-192.36 148.7,-185.58"/>
</g>
<!-- Node5 -->
<g id="node8" class="node">
<title>Node5</title>
<g id="a_node8"><a xlink:href="classarg__router_1_1tree__node.html" target="_top" xlink:title=" ">
<polygon fill="white" stroke="black" points="201,-154 201,-184 323,-184 323,-154 201,-154"/>
<text text-anchor="start" x="209" y="-172" font-family="Helvetica,sans-Serif" font-size="10.00">arg_router::tree_node</text>
<text text-anchor="middle" x="262" y="-161" font-family="Helvetica,sans-Serif" font-size="10.00">&lt; Policies... &gt;</text>
</a>
</g>
</g>
<!-- Node0&#45;&gt;Node5 -->
<g id="edge7" class="edge">
<title>Node0&#45;&gt;Node5</title>
<path fill="none" stroke="midnightblue" d="M148.35,-169C165.86,-169 184.17,-169 200.81,-169"/>
<polygon fill="midnightblue" stroke="midnightblue" points="148.15,-165.5 138.15,-169 148.15,-172.5 148.15,-165.5"/>
</g>
<!-- Node7 -->
<g id="node10" class="node">
<title>Node7</title>
<g id="a_node10"><a xlink:href="classarg__router_1_1tree__node.html" target="_top" xlink:title=" ">
<polygon fill="white" stroke="black" points="187.5,-83 187.5,-135 336.5,-135 336.5,-83 187.5,-83"/>
<text text-anchor="start" x="195.5" y="-123" font-family="Helvetica,sans-Serif" font-size="10.00">arg_router::tree_node</text>
<text text-anchor="start" x="195.5" y="-112" font-family="Helvetica,sans-Serif" font-size="10.00">&lt; policy::count_t&lt; std</text>
<text text-anchor="start" x="195.5" y="-101" font-family="Helvetica,sans-Serif" font-size="10.00">::integral_constant&lt; std</text>
<text text-anchor="middle" x="262" y="-90" font-family="Helvetica,sans-Serif" font-size="10.00">::size_t, 1 &gt; &gt;, Policies... &gt;</text>
</a>
</g>
</g>
<!-- Node0&#45;&gt;Node7 -->
<g id="edge9" class="edge">
<title>Node0&#45;&gt;Node7</title>
<path fill="none" stroke="midnightblue" d="M147.99,-144.5C161.01,-140.41 174.47,-136.18 187.38,-132.13"/>
<polygon fill="midnightblue" stroke="midnightblue" points="146.64,-141.26 138.15,-147.59 148.74,-147.93 146.64,-141.26"/>
</g>
<!-- Node9 -->
<g id="node12" class="node">
<title>Node9</title>
<g id="a_node12"><a xlink:href="classarg__router_1_1tree__node.html" target="_top" xlink:title=" ">
<polygon fill="white" stroke="black" points="174,-0.5 174,-63.5 350,-63.5 350,-0.5 174,-0.5"/>
<text text-anchor="start" x="182" y="-51.5" font-family="Helvetica,sans-Serif" font-size="10.00">arg_router::tree_node</text>
<text text-anchor="start" x="182" y="-40.5" font-family="Helvetica,sans-Serif" font-size="10.00">&lt; policy::default_value</text>
<text text-anchor="start" x="182" y="-29.5" font-family="Helvetica,sans-Serif" font-size="10.00">&lt; bool &gt;, policy::count</text>
<text text-anchor="start" x="182" y="-18.5" font-family="Helvetica,sans-Serif" font-size="10.00">_t&lt; std::integral_constant</text>
<text text-anchor="middle" x="262" y="-7.5" font-family="Helvetica,sans-Serif" font-size="10.00">&lt; std::size_t, 0 &gt; &gt;, Policies... &gt;</text>
</a>
</g>
</g>
<!-- Node0&#45;&gt;Node9 -->
<g id="edge11" class="edge">
<title>Node0&#45;&gt;Node9</title>
<path fill="none" stroke="midnightblue" d="M107.11,-130.18C126.02,-111.73 150.04,-90.21 174,-74 179.28,-70.43 184.91,-66.99 190.66,-63.73"/>
<polygon fill="midnightblue" stroke="midnightblue" points="104.51,-127.83 99.86,-137.35 109.43,-132.81 104.51,-127.83"/>
</g>
<!-- Node2&#45;&gt;Node3 -->
<g id="edge5" class="edge">
<title>Node2&#45;&gt;Node3</title>
<path fill="none" stroke="midnightblue" d="M332.89,-235.34C357.05,-241.33 383.73,-247.95 406.43,-253.59"/>
<polygon fill="midnightblue" stroke="midnightblue" points="333.61,-231.91 323.06,-232.9 331.92,-238.71 333.61,-231.91"/>
</g>
<!-- Node4 -->
<g id="node7" class="node">
<title>Node4</title>
<g id="a_node7"><a xlink:href="classarg__router_1_1root__t.html" target="_top" xlink:title=" ">
<polygon fill="white" stroke="black" points="411,-203 411,-233 512,-233 512,-203 411,-203"/>
<text text-anchor="start" x="419" y="-221" font-family="Helvetica,sans-Serif" font-size="10.00">arg_router::root_t</text>
<text text-anchor="middle" x="461.5" y="-210" font-family="Helvetica,sans-Serif" font-size="10.00">&lt; Params &gt;</text>
</a>
</g>
</g>
<!-- Node2&#45;&gt;Node4 -->
<g id="edge6" class="edge">
<title>Node2&#45;&gt;Node4</title>
<path fill="none" stroke="midnightblue" d="M333.1,-218C358.73,-218 387.18,-218 410.69,-218"/>
<polygon fill="midnightblue" stroke="midnightblue" points="333.06,-214.5 323.06,-218 333.06,-221.5 333.06,-214.5"/>
</g>
<!-- Node6 -->
<g id="node9" class="node">
<title>Node6</title>
<g id="a_node9"><a xlink:href="classarg__router_1_1positional__arg__t.html" target="_top" xlink:title=" ">
<polygon fill="white" stroke="black" points="401,-154 401,-184 522,-184 522,-154 401,-154"/>
<text text-anchor="start" x="409" y="-172" font-family="Helvetica,sans-Serif" font-size="10.00">arg_router::positional</text>
<text text-anchor="middle" x="461.5" y="-161" font-family="Helvetica,sans-Serif" font-size="10.00">_arg_t&lt; T, Policies &gt;</text>
</a>
</g>
</g>
<!-- Node5&#45;&gt;Node6 -->
<g id="edge8" class="edge">
<title>Node5&#45;&gt;Node6</title>
<path fill="none" stroke="midnightblue" d="M333.36,-169C355.39,-169 379.49,-169 400.72,-169"/>
<polygon fill="midnightblue" stroke="midnightblue" points="333.06,-165.5 323.06,-169 333.06,-172.5 333.06,-165.5"/>
</g>
<!-- Node8 -->
<g id="node11" class="node">
<title>Node8</title>
<g id="a_node11"><a xlink:href="classarg__router_1_1arg__t.html" target="_top" xlink:title=" ">
<polygon fill="white" stroke="black" points="408.5,-94 408.5,-124 514.5,-124 514.5,-94 408.5,-94"/>
<text text-anchor="start" x="416.5" y="-112" font-family="Helvetica,sans-Serif" font-size="10.00">arg_router::arg_t&lt;</text>
<text text-anchor="middle" x="461.5" y="-101" font-family="Helvetica,sans-Serif" font-size="10.00"> T, Policies &gt;</text>
</a>
</g>
</g>
<!-- Node7&#45;&gt;Node8 -->
<g id="edge10" class="edge">
<title>Node7&#45;&gt;Node8</title>
<path fill="none" stroke="midnightblue" d="M346.74,-109C367.69,-109 389.57,-109 408.47,-109"/>
<polygon fill="midnightblue" stroke="midnightblue" points="346.54,-105.5 336.54,-109 346.54,-112.5 346.54,-105.5"/>
</g>
<!-- Node10 -->
<g id="node13" class="node">
<title>Node10</title>
<g id="a_node13"><a xlink:href="classarg__router_1_1flag__t.html" target="_top" xlink:title=" ">
<polygon fill="white" stroke="black" points="411.5,-17 411.5,-47 511.5,-47 511.5,-17 411.5,-17"/>
<text text-anchor="start" x="419.5" y="-35" font-family="Helvetica,sans-Serif" font-size="10.00">arg_router::flag_t</text>
<text text-anchor="middle" x="461.5" y="-24" font-family="Helvetica,sans-Serif" font-size="10.00">&lt; Policies &gt;</text>
</a>
</g>
</g>
<!-- Node9&#45;&gt;Node10 -->
<g id="edge12" class="edge">
<title>Node9&#45;&gt;Node10</title>
<path fill="none" stroke="midnightblue" d="M360.57,-32C378.21,-32 395.9,-32 411.39,-32"/>
<polygon fill="midnightblue" stroke="midnightblue" points="360.2,-28.5 350.2,-32 360.2,-35.5 360.2,-28.5"/>
</g>
</g>
</svg>
