<?xml version="1.0" encoding="UTF-8" standalone="no"?>
<!DOCTYPE svg PUBLIC "-//W3C//DTD SVG 1.1//EN"
 "http://www.w3.org/Graphics/SVG/1.1/DTD/svg11.dtd">
<!-- Generated by graphviz version 2.43.0 (0)
 -->
<!-- Title: Graphical Class Hierarchy Pages: 1 -->
<svg width="498pt" height="291pt"
 viewBox="0.00 0.00 498.00 290.50" xmlns="http://www.w3.org/2000/svg" xmlns:xlink="http://www.w3.org/1999/xlink">
<g id="graph0" class="graph" transform="scale(1 1) rotate(0) translate(4 286.5)">
<title>Graphical Class Hierarchy</title>
<polygon fill="white" stroke="transparent" points="-4,4 -4,-286.5 494,-286.5 494,4 -4,4"/>
<!-- Node0 -->
<g id="node1" class="node">
<title>Node0</title>
<g id="a_node1"><a xlink:href="classarg__router_1_1traits_1_1unpack__and__derive.html" target="_top" xlink:title=" ">
<polygon fill="white" stroke="black" points="0,-131.5 0,-194.5 138,-194.5 138,-131.5 0,-131.5"/>
<text text-anchor="start" x="8" y="-182.5" font-family="Helvetica,sans-Serif" font-size="10.00">arg_router::traits</text>
<text text-anchor="start" x="8" y="-171.5" font-family="Helvetica,sans-Serif" font-size="10.00">::unpack_and_derive</text>
<text text-anchor="start" x="8" y="-160.5" font-family="Helvetica,sans-Serif" font-size="10.00">&lt; boost::mp11::mp_filter</text>
<text text-anchor="start" x="8" y="-149.5" font-family="Helvetica,sans-Serif" font-size="10.00">&lt; policy::is_policy, std</text>
<text text-anchor="middle" x="69" y="-138.5" font-family="Helvetica,sans-Serif" font-size="10.00">::tuple&lt; Params... &gt; &gt; &gt;</text>
</a>
</g>
</g>
<!-- Node1 -->
<g id="node2" class="node">
<title>Node1</title>
<g id="a_node2"><a xlink:href="classarg__router_1_1tree__node.html" target="_top" xlink:title=" ">
<polygon fill="white" stroke="black" points="192.5,-252 192.5,-282 314.5,-282 314.5,-252 192.5,-252"/>
<text text-anchor="start" x="200.5" y="-270" font-family="Helvetica,sans-Serif" font-size="10.00">arg_router::tree_node</text>
<text text-anchor="middle" x="253.5" y="-259" font-family="Helvetica,sans-Serif" font-size="10.00">&lt; Params &gt;</text>
</a>
</g>
</g>
<!-- Node0&#45;&gt;Node1 -->
<g id="edge1" class="edge">
<title>Node0&#45;&gt;Node1</title>
<path fill="none" stroke="midnightblue" d="M112.4,-201.18C130.4,-215.86 152.23,-231.77 174,-243 180.46,-246.33 187.46,-249.29 194.53,-251.89"/>
<polygon fill="midnightblue" stroke="midnightblue" points="114.34,-198.25 104.41,-194.55 109.87,-203.63 114.34,-198.25"/>
</g>
<!-- Node2 -->
<g id="node3" class="node">
<title>Node2</title>
<g id="a_node3"><a xlink:href="classarg__router_1_1tree__node.html" target="_top" xlink:title=" ">
<polygon fill="white" stroke="black" points="192.5,-203 192.5,-233 314.5,-233 314.5,-203 192.5,-203"/>
<text text-anchor="start" x="200.5" y="-221" font-family="Helvetica,sans-Serif" font-size="10.00">arg_router::tree_node</text>
<text text-anchor="middle" x="253.5" y="-210" font-family="Helvetica,sans-Serif" font-size="10.00">&lt; Params... &gt;</text>
</a>
</g>
</g>
<!-- Node0&#45;&gt;Node2 -->
<g id="edge2" class="edge">
<title>Node0&#45;&gt;Node2</title>
<path fill="none" stroke="midnightblue" d="M147.83,-186.46C166.38,-192.05 185.69,-197.87 202.6,-202.96"/>
<polygon fill="midnightblue" stroke="midnightblue" points="148.8,-183.09 138.22,-183.56 146.78,-189.79 148.8,-183.09"/>
</g>
<!-- Node5 -->
<g id="node6" class="node">
<title>Node5</title>
<g id="a_node6"><a xlink:href="classarg__router_1_1tree__node.html" target="_top" xlink:title=" ">
<polygon fill="white" stroke="black" points="189,-142.5 189,-183.5 318,-183.5 318,-142.5 189,-142.5"/>
<text text-anchor="start" x="197" y="-171.5" font-family="Helvetica,sans-Serif" font-size="10.00">arg_router::tree_node</text>
<text text-anchor="start" x="197" y="-160.5" font-family="Helvetica,sans-Serif" font-size="10.00">&lt; policy::default_value</text>
<text text-anchor="middle" x="253.5" y="-149.5" font-family="Helvetica,sans-Serif" font-size="10.00">&lt; bool &gt;, Policies... &gt;</text>
</a>
</g>
</g>
<!-- Node0&#45;&gt;Node5 -->
<g id="edge5" class="edge">
<title>Node0&#45;&gt;Node5</title>
<path fill="none" stroke="midnightblue" d="M148.45,-163C161.95,-163 175.84,-163 188.89,-163"/>
<polygon fill="midnightblue" stroke="midnightblue" points="148.22,-159.5 138.22,-163 148.22,-166.5 148.22,-159.5"/>
</g>
<!-- Node7 -->
<g id="node8" class="node">
<title>Node7</title>
<g id="a_node8"><a xlink:href="classarg__router_1_1tree__node.html" target="_top" xlink:title=" ">
<polygon fill="white" stroke="black" points="174,-82.5 174,-123.5 333,-123.5 333,-82.5 174,-82.5"/>
<text text-anchor="start" x="182" y="-111.5" font-family="Helvetica,sans-Serif" font-size="10.00">arg_router::tree_node</text>
<text text-anchor="start" x="182" y="-100.5" font-family="Helvetica,sans-Serif" font-size="10.00">&lt; policy::has_contiguous</text>
<text text-anchor="middle" x="253.5" y="-89.5" font-family="Helvetica,sans-Serif" font-size="10.00">_value_tokens_t, Policies... &gt;</text>
</a>
</g>
</g>
<!-- Node0&#45;&gt;Node7 -->
<g id="edge7" class="edge">
<title>Node0&#45;&gt;Node7</title>
<path fill="none" stroke="midnightblue" d="M147.89,-137.39C161.98,-132.76 176.51,-127.98 190.09,-123.52"/>
<polygon fill="midnightblue" stroke="midnightblue" points="146.62,-134.12 138.22,-140.57 148.81,-140.77 146.62,-134.12"/>
</g>
<!-- Node9 -->
<g id="node10" class="node">
<title>Node9</title>
<g id="a_node10"><a xlink:href="classarg__router_1_1tree__node.html" target="_top" xlink:title=" ">
<polygon fill="white" stroke="black" points="179,-0.5 179,-63.5 328,-63.5 328,-0.5 179,-0.5"/>
<text text-anchor="start" x="187" y="-51.5" font-family="Helvetica,sans-Serif" font-size="10.00">arg_router::tree_node</text>
<text text-anchor="start" x="187" y="-40.5" font-family="Helvetica,sans-Serif" font-size="10.00">&lt; policy::has_value_tokens</text>
<text text-anchor="start" x="187" y="-29.5" font-family="Helvetica,sans-Serif" font-size="10.00">_t, policy::count_t&lt; std</text>
<text text-anchor="start" x="187" y="-18.5" font-family="Helvetica,sans-Serif" font-size="10.00">::integral_constant&lt; std::</text>
<text text-anchor="middle" x="253.5" y="-7.5" font-family="Helvetica,sans-Serif" font-size="10.00">size_t, 1 &gt; &gt;, Policies... &gt;</text>
</a>
</g>
</g>
<!-- Node0&#45;&gt;Node9 -->
<g id="edge9" class="edge">
<title>Node0&#45;&gt;Node9</title>
<path fill="none" stroke="midnightblue" d="M110.28,-124.28C128.86,-107.45 151.72,-88.16 174,-73 178.7,-69.8 183.69,-66.67 188.77,-63.65"/>
<polygon fill="midnightblue" stroke="midnightblue" points="107.6,-121.98 102.59,-131.32 112.33,-127.15 107.6,-121.98"/>
</g>
<!-- Node3 -->
<g id="node4" class="node">
<title>Node3</title>
<g id="a_node4"><a xlink:href="classarg__router_1_1mode__t.html" target="_top" xlink:title=" ">
<polygon fill="white" stroke="black" points="374.5,-249 374.5,-279 484.5,-279 484.5,-249 374.5,-249"/>
<text text-anchor="start" x="382.5" y="-267" font-family="Helvetica,sans-Serif" font-size="10.00">arg_router::mode_t</text>
<text text-anchor="middle" x="429.5" y="-256" font-family="Helvetica,sans-Serif" font-size="10.00">&lt; Params &gt;</text>
</a>
</g>
</g>
<!-- Node2&#45;&gt;Node3 -->
<g id="edge3" class="edge">
<title>Node2&#45;&gt;Node3</title>
<path fill="none" stroke="midnightblue" d="M321.6,-235.74C339.06,-240.36 357.66,-245.27 374.35,-249.69"/>
<polygon fill="midnightblue" stroke="midnightblue" points="322.04,-232.23 311.47,-233.06 320.25,-239 322.04,-232.23"/>
</g>
<!-- Node4 -->
<g id="node5" class="node">
<title>Node4</title>
<g id="a_node5"><a xlink:href="classarg__router_1_1root__t.html" target="_top" xlink:title=" ">
<polygon fill="white" stroke="black" points="379,-200 379,-230 480,-230 480,-200 379,-200"/>
<text text-anchor="start" x="387" y="-218" font-family="Helvetica,sans-Serif" font-size="10.00">arg_router::root_t</text>
<text text-anchor="middle" x="429.5" y="-207" font-family="Helvetica,sans-Serif" font-size="10.00">&lt; Params &gt;</text>
</a>
</g>
</g>
<!-- Node2&#45;&gt;Node4 -->
<g id="edge4" class="edge">
<title>Node2&#45;&gt;Node4</title>
<path fill="none" stroke="midnightblue" d="M325.07,-216.78C343.12,-216.47 362.15,-216.14 378.89,-215.86"/>
<polygon fill="midnightblue" stroke="midnightblue" points="324.81,-213.29 314.87,-216.96 324.93,-220.29 324.81,-213.29"/>
</g>
<!-- Node6 -->
<g id="node7" class="node">
<title>Node6</title>
<g id="a_node7"><a xlink:href="classarg__router_1_1flag__t.html" target="_top" xlink:title=" ">
<polygon fill="white" stroke="black" points="379.5,-148 379.5,-178 479.5,-178 479.5,-148 379.5,-148"/>
<text text-anchor="start" x="387.5" y="-166" font-family="Helvetica,sans-Serif" font-size="10.00">arg_router::flag_t</text>
<text text-anchor="middle" x="429.5" y="-155" font-family="Helvetica,sans-Serif" font-size="10.00">&lt; Policies &gt;</text>
</a>
</g>
</g>
<!-- Node5&#45;&gt;Node6 -->
<g id="edge6" class="edge">
<title>Node5&#45;&gt;Node6</title>
<path fill="none" stroke="midnightblue" d="M328.36,-163C345.61,-163 363.56,-163 379.42,-163"/>
<polygon fill="midnightblue" stroke="midnightblue" points="328.3,-159.5 318.3,-163 328.3,-166.5 328.3,-159.5"/>
</g>
<!-- Node8 -->
<g id="node9" class="node">
<title>Node8</title>
<g id="a_node9"><a xlink:href="classarg__router_1_1positional__arg__t.html" target="_top" xlink:title=" ">
<polygon fill="white" stroke="black" points="369,-88 369,-118 490,-118 490,-88 369,-88"/>
<text text-anchor="start" x="377" y="-106" font-family="Helvetica,sans-Serif" font-size="10.00">arg_router::positional</text>
<text text-anchor="middle" x="429.5" y="-95" font-family="Helvetica,sans-Serif" font-size="10.00">_arg_t&lt; T, Policies &gt;</text>
</a>
</g>
</g>
<!-- Node7&#45;&gt;Node8 -->
<g id="edge8" class="edge">
<title>Node7&#45;&gt;Node8</title>
<path fill="none" stroke="midnightblue" d="M343.24,-103C351.88,-103 360.5,-103 368.76,-103"/>
<polygon fill="midnightblue" stroke="midnightblue" points="343.1,-99.5 333.1,-103 343.1,-106.5 343.1,-99.5"/>
</g>
<!-- Node10 -->
<g id="node11" class="node">
<title>Node10</title>
<g id="a_node11"><a xlink:href="classarg__router_1_1arg__t.html" target="_top" xlink:title=" ">
<polygon fill="white" stroke="black" points="376.5,-17 376.5,-47 482.5,-47 482.5,-17 376.5,-17"/>
<text text-anchor="start" x="384.5" y="-35" font-family="Helvetica,sans-Serif" font-size="10.00">arg_router::arg_t&lt;</text>
<text text-anchor="middle" x="429.5" y="-24" font-family="Helvetica,sans-Serif" font-size="10.00"> T, Policies &gt;</text>
</a>
</g>
</g>
<!-- Node9&#45;&gt;Node10 -->
<g id="edge10" class="edge">
<title>Node9&#45;&gt;Node10</title>
<path fill="none" stroke="midnightblue" d="M338.37,-32C351.31,-32 364.34,-32 376.32,-32"/>
<polygon fill="midnightblue" stroke="midnightblue" points="338.04,-28.5 328.04,-32 338.04,-35.5 338.04,-28.5"/>
</g>
</g>
</svg>
