<?xml version="1.0" encoding="UTF-8" standalone="no"?>
<!DOCTYPE svg PUBLIC "-//W3C//DTD SVG 1.1//EN"
 "http://www.w3.org/Graphics/SVG/1.1/DTD/svg11.dtd">
<!-- Generated by graphviz version 2.43.0 (0)
 -->
<!-- Title: arg_router/multi_lang/string_selector.hpp Pages: 1 -->
<!--zoomable 553 -->
<svg id="main" version="1.1" xmlns="http://www.w3.org/2000/svg" xmlns:xlink="http://www.w3.org/1999/xlink" xml:space="preserve" onload="init(evt)">
<style type="text/css"><![CDATA[
.edge:hover path { stroke: red; }
.edge:hover polygon { stroke: red; fill: red; }
]]></style>
<script type="text/javascript"><![CDATA[
var edges = document.getElementsByTagName('g');
if (edges && edges.length) {
  for (var i=0;i<edges.length;i++) {
    if (edges[i].id.substr(0,4)=='edge') {
      edges[i].setAttribute('class','edge');
    }
  }
}
]]></script>
        <defs>
                <circle id="rim" cx="0" cy="0" r="7"/>
                <circle id="rim2" cx="0" cy="0" r="3.5"/>
                <g id="zoomPlus">
                        <use xlink:href="#rim" fill="#404040">
                                <set attributeName="fill" to="#808080" begin="zoomplus.mouseover" end="zoomplus.mouseout"/>
                        </use>
                        <path d="M-4,0h8M0,-4v8" fill="none" stroke="white" stroke-width="1.5" pointer-events="none"/>
                </g>
                <g id="zoomMin">
                        <use xlink:href="#rim" fill="#404040">
                                <set attributeName="fill" to="#808080" begin="zoomminus.mouseover" end="zoomminus.mouseout"/>
                        </use>
                        <path d="M-4,0h8" fill="none" stroke="white" stroke-width="1.5" pointer-events="none"/>
                </g>
                <g id="dirArrow">
                        <path fill="none" stroke="white" stroke-width="1.5" d="M0,-3.0v7 M-2.5,-0.5L0,-3.0L2.5,-0.5"/>
                </g>
               <g id="resetDef">
                       <use xlink:href="#rim2" fill="#404040">
                               <set attributeName="fill" to="#808080" begin="reset.mouseover" end="reset.mouseout"/>
                       </use>
               </g>
        </defs>

<script type="text/javascript">
var viewWidth = 974;
var viewHeight = 553;
var sectionId = 'dynsection-0';
</script>
<script xlink:href="svgpan.js"/>
<svg id="graph" class="graph">
<g id="viewport">
<title>arg_router/multi_lang/string_selector.hpp</title>
<polygon fill="white" stroke="transparent" points="-4,4 -4,-549 970,-549 970,4 -4,4"/>
<!-- Node1 -->
<g id="node1" class="node">
<title>Node1</title>
<g id="a_node1"><a xlink:title=" ">
<polygon fill="#bfbfbf" stroke="black" points="321.5,-514.5 321.5,-544.5 443.5,-544.5 443.5,-514.5 321.5,-514.5"/>
<text text-anchor="start" x="329.5" y="-532.5" font-family="Helvetica,sans-Serif" font-size="10.00">arg_router/multi_lang</text>
<text text-anchor="middle" x="382.5" y="-521.5" font-family="Helvetica,sans-Serif" font-size="10.00">/string_selector.hpp</text>
</a>
</g>
</g>
<!-- Node2 -->
<g id="node2" class="node">
<title>Node2</title>
<g id="a_node2"><a xlink:href="compile__time__string_8hpp.html" target="_top" xlink:title=" ">
<polygon fill="white" stroke="black" points="241.5,-447.5 241.5,-477.5 381.5,-477.5 381.5,-447.5 241.5,-447.5"/>
<text text-anchor="start" x="249.5" y="-465.5" font-family="Helvetica,sans-Serif" font-size="10.00">arg_router/utility</text>
<text text-anchor="middle" x="311.5" y="-454.5" font-family="Helvetica,sans-Serif" font-size="10.00">/compile_time_string.hpp</text>
</a>
</g>
</g>
<!-- Node1&#45;&gt;Node2 -->
<g id="edge1" class="edge">
<title>Node1&#45;&gt;Node2</title>
<path fill="none" stroke="midnightblue" d="M367.09,-514.4C357.51,-505.62 345.01,-494.18 334.3,-484.37"/>
<polygon fill="midnightblue" stroke="midnightblue" points="336.62,-481.75 326.88,-477.58 331.89,-486.91 336.62,-481.75"/>
</g>
<!-- Node30 -->
<g id="node30" class="node">
<title>Node30</title>
<g id="a_node30"><a xlink:title=" ">
<polygon fill="white" stroke="#bfbfbf" points="399.5,-447.5 399.5,-477.5 509.5,-477.5 509.5,-447.5 399.5,-447.5"/>
<text text-anchor="start" x="407.5" y="-465.5" font-family="Helvetica,sans-Serif" font-size="10.00">boost/preprocessor</text>
<text text-anchor="middle" x="454.5" y="-454.5" font-family="Helvetica,sans-Serif" font-size="10.00">/variadic.hpp</text>
</a>
</g>
</g>
<!-- Node1&#45;&gt;Node30 -->
<g id="edge35" class="edge">
<title>Node1&#45;&gt;Node30</title>
<path fill="none" stroke="midnightblue" d="M398.12,-514.4C407.84,-505.62 420.51,-494.18 431.38,-484.37"/>
<polygon fill="midnightblue" stroke="midnightblue" points="433.83,-486.88 438.91,-477.58 429.14,-481.68 433.83,-486.88"/>
</g>
<!-- Node3 -->
<g id="node3" class="node">
<title>Node3</title>
<g id="a_node3"><a xlink:href="math_8hpp_source.html" target="_top" xlink:title=" ">
<polygon fill="white" stroke="black" points="28.5,-386 28.5,-405 144.5,-405 144.5,-386 28.5,-386"/>
<text text-anchor="middle" x="86.5" y="-393" font-family="Helvetica,sans-Serif" font-size="10.00">arg_router/math.hpp</text>
</a>
</g>
</g>
<!-- Node2&#45;&gt;Node3 -->
<g id="edge2" class="edge">
<title>Node2&#45;&gt;Node3</title>
<path fill="none" stroke="midnightblue" d="M262.96,-447.48C221.92,-435.62 163.89,-418.86 125.75,-407.84"/>
<polygon fill="midnightblue" stroke="midnightblue" points="126.6,-404.44 116.02,-405.03 124.66,-411.17 126.6,-404.44"/>
</g>
<!-- Node5 -->
<g id="node5" class="node">
<title>Node5</title>
<g id="a_node5"><a xlink:href="traits_8hpp_source.html" target="_top" xlink:title=" ">
<polygon fill="white" stroke="black" points="253.5,-386 253.5,-405 369.5,-405 369.5,-386 253.5,-386"/>
<text text-anchor="middle" x="311.5" y="-393" font-family="Helvetica,sans-Serif" font-size="10.00">arg_router/traits.hpp</text>
</a>
</g>
</g>
<!-- Node2&#45;&gt;Node5 -->
<g id="edge4" class="edge">
<title>Node2&#45;&gt;Node5</title>
<path fill="none" stroke="midnightblue" d="M311.5,-447.4C311.5,-438.06 311.5,-425.71 311.5,-415.52"/>
<polygon fill="midnightblue" stroke="midnightblue" points="315,-415.19 311.5,-405.19 308,-415.19 315,-415.19"/>
</g>
<!-- Node23 -->
<g id="node23" class="node">
<title>Node23</title>
<g id="a_node23"><a xlink:title=" ">
<polygon fill="white" stroke="#bfbfbf" points="87.5,-319 87.5,-338 233.5,-338 233.5,-319 87.5,-319"/>
<text text-anchor="middle" x="160.5" y="-326" font-family="Helvetica,sans-Serif" font-size="10.00">boost/mp11/algorithm.hpp</text>
</a>
</g>
</g>
<!-- Node2&#45;&gt;Node23 -->
<g id="edge32" class="edge">
<title>Node2&#45;&gt;Node23</title>
<path fill="none" stroke="midnightblue" d="M291.35,-447.32C277.78,-437.53 259.66,-423.98 244.5,-411 219.56,-389.65 192.65,-362.79 176.18,-345.87"/>
<polygon fill="midnightblue" stroke="midnightblue" points="178.46,-343.19 168.99,-338.44 173.42,-348.06 178.46,-343.19"/>
</g>
<!-- Node28 -->
<g id="node28" class="node">
<title>Node28</title>
<g id="a_node28"><a xlink:title=" ">
<polygon fill="white" stroke="#bfbfbf" points="388,-380.5 388,-410.5 507,-410.5 507,-380.5 388,-380.5"/>
<text text-anchor="start" x="396" y="-398.5" font-family="Helvetica,sans-Serif" font-size="10.00">boost/preprocessor</text>
<text text-anchor="middle" x="447.5" y="-387.5" font-family="Helvetica,sans-Serif" font-size="10.00">/repetition/enum.hpp</text>
</a>
</g>
</g>
<!-- Node2&#45;&gt;Node28 -->
<g id="edge33" class="edge">
<title>Node2&#45;&gt;Node28</title>
<path fill="none" stroke="midnightblue" d="M341.01,-447.4C360.88,-437.9 387.29,-425.28 408.84,-414.98"/>
<polygon fill="midnightblue" stroke="midnightblue" points="410.53,-418.05 418.05,-410.58 407.52,-411.73 410.53,-418.05"/>
</g>
<!-- Node29 -->
<g id="node29" class="node">
<title>Node29</title>
<g id="a_node29"><a xlink:title=" ">
<polygon fill="white" stroke="#bfbfbf" points="525.5,-386 525.5,-405 567.5,-405 567.5,-386 525.5,-386"/>
<text text-anchor="middle" x="546.5" y="-393" font-family="Helvetica,sans-Serif" font-size="10.00">array</text>
</a>
</g>
</g>
<!-- Node2&#45;&gt;Node29 -->
<g id="edge34" class="edge">
<title>Node2&#45;&gt;Node29</title>
<path fill="none" stroke="midnightblue" d="M381.89,-447.63C421.67,-438.91 471.99,-426.4 515.5,-411 517.12,-410.43 518.76,-409.8 520.41,-409.14"/>
<polygon fill="midnightblue" stroke="midnightblue" points="521.93,-412.29 529.69,-405.09 519.13,-405.88 521.93,-412.29"/>
</g>
<!-- Node4 -->
<g id="node4" class="node">
<title>Node4</title>
<g id="a_node4"><a xlink:title=" ">
<polygon fill="white" stroke="#bfbfbf" points="0,-319 0,-338 69,-338 69,-319 0,-319"/>
<text text-anchor="middle" x="34.5" y="-326" font-family="Helvetica,sans-Serif" font-size="10.00">type_traits</text>
</a>
</g>
</g>
<!-- Node3&#45;&gt;Node4 -->
<g id="edge3" class="edge">
<title>Node3&#45;&gt;Node4</title>
<path fill="none" stroke="midnightblue" d="M79.49,-385.73C71.38,-375.6 57.85,-358.69 47.74,-346.06"/>
<polygon fill="midnightblue" stroke="midnightblue" points="50.38,-343.75 41.4,-338.13 44.92,-348.12 50.38,-343.75"/>
</g>
<!-- Node5&#45;&gt;Node4 -->
<g id="edge31" class="edge">
<title>Node5&#45;&gt;Node4</title>
<path fill="none" stroke="midnightblue" d="M265.18,-385.95C217.91,-376.87 142.6,-361.46 78.5,-344 75.32,-343.13 72.03,-342.17 68.74,-341.17"/>
<polygon fill="midnightblue" stroke="midnightblue" points="69.62,-337.78 59.03,-338.09 67.5,-344.45 69.62,-337.78"/>
</g>
<!-- Node6 -->
<g id="node6" class="node">
<title>Node6</title>
<g id="a_node6"><a xlink:href="parse__target_8hpp_source.html" target="_top" xlink:title=" ">
<polygon fill="white" stroke="black" points="688.5,-313.5 688.5,-343.5 794.5,-343.5 794.5,-313.5 688.5,-313.5"/>
<text text-anchor="start" x="696.5" y="-331.5" font-family="Helvetica,sans-Serif" font-size="10.00">arg_router/parsing</text>
<text text-anchor="middle" x="741.5" y="-320.5" font-family="Helvetica,sans-Serif" font-size="10.00">/parse_target.hpp</text>
</a>
</g>
</g>
<!-- Node5&#45;&gt;Node6 -->
<g id="edge5" class="edge">
<title>Node5&#45;&gt;Node6</title>
<path fill="none" stroke="midnightblue" d="M347.89,-385.97C357.79,-383.83 368.52,-381.67 378.5,-380 508.13,-358.27 545.02,-366.92 678.29,-344.08"/>
<polygon fill="midnightblue" stroke="midnightblue" points="679.23,-347.47 688.48,-342.31 678.03,-340.58 679.23,-347.47"/>
</g>
<!-- Node5&#45;&gt;Node23 -->
<g id="edge26" class="edge">
<title>Node5&#45;&gt;Node23</title>
<path fill="none" stroke="midnightblue" d="M291.45,-385.87C265.5,-374.7 220.08,-355.15 190.14,-342.26"/>
<polygon fill="midnightblue" stroke="midnightblue" points="191.2,-338.91 180.63,-338.17 188.44,-345.34 191.2,-338.91"/>
</g>
<!-- Node24 -->
<g id="node24" class="node">
<title>Node24</title>
<g id="a_node24"><a xlink:title=" ">
<polygon fill="white" stroke="#bfbfbf" points="252,-319 252,-338 371,-338 371,-319 252,-319"/>
<text text-anchor="middle" x="311.5" y="-326" font-family="Helvetica,sans-Serif" font-size="10.00">boost/mp11/bind.hpp</text>
</a>
</g>
</g>
<!-- Node5&#45;&gt;Node24 -->
<g id="edge27" class="edge">
<title>Node5&#45;&gt;Node24</title>
<path fill="none" stroke="midnightblue" d="M311.5,-385.73C311.5,-376.18 311.5,-360.62 311.5,-348.28"/>
<polygon fill="midnightblue" stroke="midnightblue" points="315,-348.13 311.5,-338.13 308,-348.13 315,-348.13"/>
</g>
<!-- Node25 -->
<g id="node25" class="node">
<title>Node25</title>
<g id="a_node25"><a xlink:title=" ">
<polygon fill="white" stroke="#bfbfbf" points="389,-319 389,-338 514,-338 514,-319 389,-319"/>
<text text-anchor="middle" x="451.5" y="-326" font-family="Helvetica,sans-Serif" font-size="10.00">boost/mp11/utility.hpp</text>
</a>
</g>
</g>
<!-- Node5&#45;&gt;Node25 -->
<g id="edge28" class="edge">
<title>Node5&#45;&gt;Node25</title>
<path fill="none" stroke="midnightblue" d="M330.09,-385.87C354.04,-374.75 395.89,-355.32 423.65,-342.43"/>
<polygon fill="midnightblue" stroke="midnightblue" points="425.24,-345.55 432.83,-338.17 422.29,-339.2 425.24,-345.55"/>
</g>
<!-- Node26 -->
<g id="node26" class="node">
<title>Node26</title>
<g id="a_node26"><a xlink:title=" ">
<polygon fill="white" stroke="#bfbfbf" points="532.5,-319 532.5,-338 596.5,-338 596.5,-319 532.5,-319"/>
<text text-anchor="middle" x="564.5" y="-326" font-family="Helvetica,sans-Serif" font-size="10.00">algorithm</text>
</a>
</g>
</g>
<!-- Node5&#45;&gt;Node26 -->
<g id="edge29" class="edge">
<title>Node5&#45;&gt;Node26</title>
<path fill="none" stroke="midnightblue" d="M349.36,-385.91C400.88,-374.13 490.32,-353.38 522.5,-344 525.44,-343.14 528.48,-342.2 531.52,-341.22"/>
<polygon fill="midnightblue" stroke="midnightblue" points="532.7,-344.52 541.08,-338.04 530.49,-337.88 532.7,-344.52"/>
</g>
<!-- Node27 -->
<g id="node27" class="node">
<title>Node27</title>
<g id="a_node27"><a xlink:title=" ">
<polygon fill="white" stroke="#bfbfbf" points="614.5,-319 614.5,-338 670.5,-338 670.5,-319 614.5,-319"/>
<text text-anchor="middle" x="642.5" y="-326" font-family="Helvetica,sans-Serif" font-size="10.00">optional</text>
</a>
</g>
</g>
<!-- Node5&#45;&gt;Node27 -->
<g id="edge30" class="edge">
<title>Node5&#45;&gt;Node27</title>
<path fill="none" stroke="midnightblue" d="M349.34,-385.92C358.84,-383.88 369.02,-381.78 378.5,-380 478.9,-361.19 506.93,-370.79 605.5,-344 608.09,-343.29 610.76,-342.47 613.41,-341.57"/>
<polygon fill="midnightblue" stroke="midnightblue" points="614.61,-344.86 622.8,-338.13 612.2,-338.29 614.61,-344.86"/>
</g>
<!-- Node7 -->
<g id="node7" class="node">
<title>Node7</title>
<g id="a_node7"><a xlink:href="token__type_8hpp_source.html" target="_top" xlink:title=" ">
<polygon fill="white" stroke="black" points="506.5,-246.5 506.5,-276.5 612.5,-276.5 612.5,-246.5 506.5,-246.5"/>
<text text-anchor="start" x="514.5" y="-264.5" font-family="Helvetica,sans-Serif" font-size="10.00">arg_router/parsing</text>
<text text-anchor="middle" x="559.5" y="-253.5" font-family="Helvetica,sans-Serif" font-size="10.00">/token_type.hpp</text>
</a>
</g>
</g>
<!-- Node6&#45;&gt;Node7 -->
<g id="edge6" class="edge">
<title>Node6&#45;&gt;Node7</title>
<path fill="none" stroke="midnightblue" d="M702.01,-313.4C674.58,-303.6 637.85,-290.48 608.54,-280.02"/>
<polygon fill="midnightblue" stroke="midnightblue" points="609.51,-276.64 598.91,-276.58 607.15,-283.24 609.51,-276.64"/>
</g>
<!-- Node17 -->
<g id="node17" class="node">
<title>Node17</title>
<g id="a_node17"><a xlink:href="tree__node__fwd_8hpp_source.html" target="_top" xlink:title=" ">
<polygon fill="white" stroke="black" points="847,-246.5 847,-276.5 966,-276.5 966,-246.5 847,-246.5"/>
<text text-anchor="start" x="855" y="-264.5" font-family="Helvetica,sans-Serif" font-size="10.00">arg_router/tree_node</text>
<text text-anchor="middle" x="906.5" y="-253.5" font-family="Helvetica,sans-Serif" font-size="10.00">_fwd.hpp</text>
</a>
</g>
</g>
<!-- Node6&#45;&gt;Node17 -->
<g id="edge17" class="edge">
<title>Node6&#45;&gt;Node17</title>
<path fill="none" stroke="midnightblue" d="M777.3,-313.4C801.95,-303.69 834.89,-290.71 861.34,-280.29"/>
<polygon fill="midnightblue" stroke="midnightblue" points="862.75,-283.5 870.77,-276.58 860.18,-276.99 862.75,-283.5"/>
</g>
<!-- Node19 -->
<g id="node19" class="node">
<title>Node19</title>
<g id="a_node19"><a xlink:href="type__hash_8hpp_source.html" target="_top" xlink:title=" ">
<polygon fill="white" stroke="black" points="573.5,-112.5 573.5,-142.5 671.5,-142.5 671.5,-112.5 573.5,-112.5"/>
<text text-anchor="start" x="581.5" y="-130.5" font-family="Helvetica,sans-Serif" font-size="10.00">arg_router/utility</text>
<text text-anchor="middle" x="622.5" y="-119.5" font-family="Helvetica,sans-Serif" font-size="10.00">/type_hash.hpp</text>
</a>
</g>
</g>
<!-- Node6&#45;&gt;Node19 -->
<g id="edge19" class="edge">
<title>Node6&#45;&gt;Node19</title>
<path fill="none" stroke="midnightblue" d="M720.81,-313.3C708.64,-304.1 693.69,-291.21 683.5,-277 655.31,-237.69 637.31,-183.44 628.64,-152.56"/>
<polygon fill="midnightblue" stroke="midnightblue" points="631.95,-151.41 625.96,-142.68 625.2,-153.25 631.95,-151.41"/>
</g>
<!-- Node20 -->
<g id="node20" class="node">
<title>Node20</title>
<g id="a_node20"><a xlink:href="unsafe__any_8hpp_source.html" target="_top" xlink:title=" ">
<polygon fill="white" stroke="black" points="692.5,-246.5 692.5,-276.5 790.5,-276.5 790.5,-246.5 692.5,-246.5"/>
<text text-anchor="start" x="700.5" y="-264.5" font-family="Helvetica,sans-Serif" font-size="10.00">arg_router/utility</text>
<text text-anchor="middle" x="741.5" y="-253.5" font-family="Helvetica,sans-Serif" font-size="10.00">/unsafe_any.hpp</text>
</a>
</g>
</g>
<!-- Node6&#45;&gt;Node20 -->
<g id="edge21" class="edge">
<title>Node6&#45;&gt;Node20</title>
<path fill="none" stroke="midnightblue" d="M741.5,-313.4C741.5,-305.64 741.5,-295.81 741.5,-286.86"/>
<polygon fill="midnightblue" stroke="midnightblue" points="745,-286.58 741.5,-276.58 738,-286.58 745,-286.58"/>
</g>
<!-- Node22 -->
<g id="node22" class="node">
<title>Node22</title>
<g id="a_node22"><a xlink:title=" ">
<polygon fill="white" stroke="#bfbfbf" points="796,-185 796,-204 861,-204 861,-185 796,-185"/>
<text text-anchor="middle" x="828.5" y="-192" font-family="Helvetica,sans-Serif" font-size="10.00">functional</text>
</a>
</g>
</g>
<!-- Node6&#45;&gt;Node22 -->
<g id="edge25" class="edge">
<title>Node6&#45;&gt;Node22</title>
<path fill="none" stroke="midnightblue" d="M762.44,-313.48C774.69,-304.34 789.65,-291.45 799.5,-277 812.75,-257.55 820.64,-231.38 824.78,-214"/>
<polygon fill="midnightblue" stroke="midnightblue" points="828.24,-214.53 826.96,-204.01 821.41,-213.03 828.24,-214.53"/>
</g>
<!-- Node8 -->
<g id="node8" class="node">
<title>Node8</title>
<g id="a_node8"><a xlink:href="string__view__ops_8hpp_source.html" target="_top" xlink:title=" ">
<polygon fill="white" stroke="black" points="486,-179.5 486,-209.5 605,-209.5 605,-179.5 486,-179.5"/>
<text text-anchor="start" x="494" y="-197.5" font-family="Helvetica,sans-Serif" font-size="10.00">arg_router/utility</text>
<text text-anchor="middle" x="545.5" y="-186.5" font-family="Helvetica,sans-Serif" font-size="10.00">/string_view_ops.hpp</text>
</a>
</g>
</g>
<!-- Node7&#45;&gt;Node8 -->
<g id="edge7" class="edge">
<title>Node7&#45;&gt;Node8</title>
<path fill="none" stroke="midnightblue" d="M556.46,-246.4C554.77,-238.56 552.63,-228.6 550.68,-219.57"/>
<polygon fill="midnightblue" stroke="midnightblue" points="554.06,-218.62 548.53,-209.58 547.22,-220.09 554.06,-218.62"/>
</g>
<!-- Node9 -->
<g id="node9" class="node">
<title>Node9</title>
<g id="a_node9"><a xlink:href="basic__types_8hpp_source.html" target="_top" xlink:title=" ">
<polygon fill="white" stroke="black" points="277,-118 277,-137 426,-137 426,-118 277,-118"/>
<text text-anchor="middle" x="351.5" y="-125" font-family="Helvetica,sans-Serif" font-size="10.00">arg_router/basic_types.hpp</text>
</a>
</g>
</g>
<!-- Node8&#45;&gt;Node9 -->
<g id="edge8" class="edge">
<title>Node8&#45;&gt;Node9</title>
<path fill="none" stroke="midnightblue" d="M503.4,-179.4C468.46,-167.69 419.34,-151.23 386.52,-140.23"/>
<polygon fill="midnightblue" stroke="midnightblue" points="387.48,-136.87 376.89,-137.01 385.26,-143.5 387.48,-136.87"/>
</g>
<!-- Node13 -->
<g id="node13" class="node">
<title>Node13</title>
<g id="a_node13"><a xlink:title=" ">
<polygon fill="white" stroke="#bfbfbf" points="509,-0.5 509,-19.5 582,-19.5 582,-0.5 509,-0.5"/>
<text text-anchor="middle" x="545.5" y="-7.5" font-family="Helvetica,sans-Serif" font-size="10.00">string_view</text>
</a>
</g>
</g>
<!-- Node8&#45;&gt;Node13 -->
<g id="edge16" class="edge">
<title>Node8&#45;&gt;Node13</title>
<path fill="none" stroke="midnightblue" d="M545.5,-179.48C545.5,-147.1 545.5,-67.04 545.5,-30.16"/>
<polygon fill="midnightblue" stroke="midnightblue" points="549,-29.82 545.5,-19.82 542,-29.82 549,-29.82"/>
</g>
<!-- Node10 -->
<g id="node10" class="node">
<title>Node10</title>
<g id="a_node10"><a xlink:href="config_8hpp_source.html" target="_top" xlink:title=" ">
<polygon fill="white" stroke="black" points="397.5,-56.5 397.5,-75.5 517.5,-75.5 517.5,-56.5 397.5,-56.5"/>
<text text-anchor="middle" x="457.5" y="-63.5" font-family="Helvetica,sans-Serif" font-size="10.00">arg_router/config.hpp</text>
</a>
</g>
</g>
<!-- Node9&#45;&gt;Node10 -->
<g id="edge9" class="edge">
<title>Node9&#45;&gt;Node10</title>
<path fill="none" stroke="midnightblue" d="M366.69,-117.98C384.16,-108.17 413.08,-91.93 433.58,-80.42"/>
<polygon fill="midnightblue" stroke="midnightblue" points="435.33,-83.46 442.34,-75.51 431.91,-77.35 435.33,-83.46"/>
</g>
<!-- Node14 -->
<g id="node14" class="node">
<title>Node14</title>
<g id="a_node14"><a xlink:title=" ">
<polygon fill="white" stroke="#bfbfbf" points="323.5,-56.5 323.5,-75.5 379.5,-75.5 379.5,-56.5 323.5,-56.5"/>
<text text-anchor="middle" x="351.5" y="-63.5" font-family="Helvetica,sans-Serif" font-size="10.00">sstream</text>
</a>
</g>
</g>
<!-- Node9&#45;&gt;Node14 -->
<g id="edge13" class="edge">
<title>Node9&#45;&gt;Node14</title>
<path fill="none" stroke="midnightblue" d="M351.5,-117.98C351.5,-109.58 351.5,-96.48 351.5,-85.66"/>
<polygon fill="midnightblue" stroke="midnightblue" points="355,-85.51 351.5,-75.51 348,-85.51 355,-85.51"/>
</g>
<!-- Node15 -->
<g id="node15" class="node">
<title>Node15</title>
<g id="a_node15"><a xlink:title=" ">
<polygon fill="white" stroke="#bfbfbf" points="143,-56.5 143,-75.5 190,-75.5 190,-56.5 143,-56.5"/>
<text text-anchor="middle" x="166.5" y="-63.5" font-family="Helvetica,sans-Serif" font-size="10.00">vector</text>
</a>
</g>
</g>
<!-- Node9&#45;&gt;Node15 -->
<g id="edge14" class="edge">
<title>Node9&#45;&gt;Node15</title>
<path fill="none" stroke="midnightblue" d="M324.99,-117.98C291.93,-107.34 235.41,-89.16 199.55,-77.63"/>
<polygon fill="midnightblue" stroke="midnightblue" points="200.62,-74.3 190.03,-74.57 198.48,-80.96 200.62,-74.3"/>
</g>
<!-- Node16 -->
<g id="node16" class="node">
<title>Node16</title>
<g id="a_node16"><a xlink:title=" ">
<polygon fill="white" stroke="#bfbfbf" points="208,-56.5 208,-75.5 305,-75.5 305,-56.5 208,-56.5"/>
<text text-anchor="middle" x="256.5" y="-63.5" font-family="Helvetica,sans-Serif" font-size="10.00">nonstd/span.hpp</text>
</a>
</g>
</g>
<!-- Node9&#45;&gt;Node16 -->
<g id="edge15" class="edge">
<title>Node9&#45;&gt;Node16</title>
<path fill="none" stroke="midnightblue" d="M337.89,-117.98C322.44,-108.3 297.01,-92.37 278.68,-80.89"/>
<polygon fill="midnightblue" stroke="midnightblue" points="280.42,-77.85 270.09,-75.51 276.7,-83.78 280.42,-77.85"/>
</g>
<!-- Node11 -->
<g id="node11" class="node">
<title>Node11</title>
<g id="a_node11"><a xlink:title=" ">
<polygon fill="white" stroke="#bfbfbf" points="359,-0.5 359,-19.5 412,-19.5 412,-0.5 359,-0.5"/>
<text text-anchor="middle" x="385.5" y="-7.5" font-family="Helvetica,sans-Serif" font-size="10.00">cstddef</text>
</a>
</g>
</g>
<!-- Node10&#45;&gt;Node11 -->
<g id="edge10" class="edge">
<title>Node10&#45;&gt;Node11</title>
<path fill="none" stroke="midnightblue" d="M445.93,-56.32C435.08,-48.18 418.62,-35.84 405.62,-26.09"/>
<polygon fill="midnightblue" stroke="midnightblue" points="407.38,-23.03 397.28,-19.83 403.18,-28.63 407.38,-23.03"/>
</g>
<!-- Node12 -->
<g id="node12" class="node">
<title>Node12</title>
<g id="a_node12"><a xlink:title=" ">
<polygon fill="white" stroke="#bfbfbf" points="430.5,-0.5 430.5,-19.5 488.5,-19.5 488.5,-0.5 430.5,-0.5"/>
<text text-anchor="middle" x="459.5" y="-7.5" font-family="Helvetica,sans-Serif" font-size="10.00">memory</text>
</a>
</g>
</g>
<!-- Node10&#45;&gt;Node12 -->
<g id="edge11" class="edge">
<title>Node10&#45;&gt;Node12</title>
<path fill="none" stroke="midnightblue" d="M457.83,-56.08C458.09,-49.01 458.47,-38.86 458.8,-29.99"/>
<polygon fill="midnightblue" stroke="midnightblue" points="462.3,-29.87 459.18,-19.75 455.31,-29.61 462.3,-29.87"/>
</g>
<!-- Node10&#45;&gt;Node13 -->
<g id="edge12" class="edge">
<title>Node10&#45;&gt;Node13</title>
<path fill="none" stroke="midnightblue" d="M471.64,-56.32C485.37,-47.9 506.44,-34.97 522.56,-25.07"/>
<polygon fill="midnightblue" stroke="midnightblue" points="524.7,-27.87 531.4,-19.65 521.04,-21.9 524.7,-27.87"/>
</g>
<!-- Node18 -->
<g id="node18" class="node">
<title>Node18</title>
<g id="a_node18"><a xlink:title=" ">
<polygon fill="white" stroke="#bfbfbf" points="884,-185 884,-204 929,-204 929,-185 884,-185"/>
<text text-anchor="middle" x="906.5" y="-192" font-family="Helvetica,sans-Serif" font-size="10.00">utility</text>
</a>
</g>
</g>
<!-- Node17&#45;&gt;Node18 -->
<g id="edge18" class="edge">
<title>Node17&#45;&gt;Node18</title>
<path fill="none" stroke="midnightblue" d="M906.5,-246.4C906.5,-237.06 906.5,-224.71 906.5,-214.52"/>
<polygon fill="midnightblue" stroke="midnightblue" points="910,-214.19 906.5,-204.19 903,-214.19 910,-214.19"/>
</g>
<!-- Node19&#45;&gt;Node13 -->
<g id="edge20" class="edge">
<title>Node19&#45;&gt;Node13</title>
<path fill="none" stroke="midnightblue" d="M613.06,-112.34C598.87,-91.05 572.09,-50.89 556.86,-28.03"/>
<polygon fill="midnightblue" stroke="midnightblue" points="559.74,-26.05 551.28,-19.67 553.91,-29.93 559.74,-26.05"/>
</g>
<!-- Node20&#45;&gt;Node10 -->
<g id="edge22" class="edge">
<title>Node20&#45;&gt;Node10</title>
<path fill="none" stroke="midnightblue" d="M734.84,-246.45C730.12,-236.37 723.74,-222.43 718.5,-210 700.37,-166.95 716.23,-142.1 680.5,-112 657.67,-92.77 584.04,-80.56 527.57,-73.78"/>
<polygon fill="midnightblue" stroke="midnightblue" points="527.93,-70.3 517.59,-72.62 527.12,-77.25 527.93,-70.3"/>
</g>
<!-- Node21 -->
<g id="node21" class="node">
<title>Node21</title>
<g id="a_node21"><a xlink:title=" ">
<polygon fill="white" stroke="#bfbfbf" points="727.5,-185 727.5,-204 777.5,-204 777.5,-185 727.5,-185"/>
<text text-anchor="middle" x="752.5" y="-192" font-family="Helvetica,sans-Serif" font-size="10.00">cstring</text>
</a>
</g>
</g>
<!-- Node20&#45;&gt;Node21 -->
<g id="edge23" class="edge">
<title>Node20&#45;&gt;Node21</title>
<path fill="none" stroke="midnightblue" d="M743.89,-246.4C745.48,-236.96 747.6,-224.45 749.34,-214.19"/>
<polygon fill="midnightblue" stroke="midnightblue" points="752.81,-214.64 751.03,-204.19 745.91,-213.47 752.81,-214.64"/>
</g>
<!-- Node20&#45;&gt;Node22 -->
<g id="edge24" class="edge">
<title>Node20&#45;&gt;Node22</title>
<path fill="none" stroke="midnightblue" d="M760.38,-246.4C774.61,-235.76 794.1,-221.2 808.58,-210.38"/>
<polygon fill="midnightblue" stroke="midnightblue" points="810.95,-212.98 816.86,-204.19 806.76,-207.38 810.95,-212.98"/>
</g>
</g>
</svg>
        <g id="navigator" transform="translate(0 0)" fill="#404254">
                <rect fill="#f2f5e9" fill-opacity="0.5" stroke="#606060" stroke-width=".5" x="0" y="0" width="60" height="60"/>
                <use id="zoomplus" xlink:href="#zoomPlus" x="17" y="9" onmousedown="handleZoom(evt,'in')"/>
                <use id="zoomminus" xlink:href="#zoomMin" x="42" y="9" onmousedown="handleZoom(evt,'out')"/>
                <use id="reset" xlink:href="#resetDef" x="30" y="36" onmousedown="handleReset()"/>
                <g id="arrowUp" xlink:href="#dirArrow" transform="translate(30 24)" onmousedown="handlePan(0,-1)">
                  <use xlink:href="#rim" fill="#404040">
                        <set attributeName="fill" to="#808080" begin="arrowUp.mouseover" end="arrowUp.mouseout"/>
                  </use>
                  <path fill="none" stroke="white" stroke-width="1.5" d="M0,-3.0v7 M-2.5,-0.5L0,-3.0L2.5,-0.5"/>
                </g>
                <g id="arrowRight" xlink:href="#dirArrow" transform="rotate(90) translate(36 -43)" onmousedown="handlePan(1,0)">
                  <use xlink:href="#rim" fill="#404040">
                        <set attributeName="fill" to="#808080" begin="arrowRight.mouseover" end="arrowRight.mouseout"/>
                  </use>
                  <path fill="none" stroke="white" stroke-width="1.5" d="M0,-3.0v7 M-2.5,-0.5L0,-3.0L2.5,-0.5"/>
                </g>
                <g id="arrowDown" xlink:href="#dirArrow" transform="rotate(180) translate(-30 -48)" onmousedown="handlePan(0,1)">
                  <use xlink:href="#rim" fill="#404040">
                        <set attributeName="fill" to="#808080" begin="arrowDown.mouseover" end="arrowDown.mouseout"/>
                  </use>
                  <path fill="none" stroke="white" stroke-width="1.5" d="M0,-3.0v7 M-2.5,-0.5L0,-3.0L2.5,-0.5"/>
                </g>
                <g id="arrowLeft" xlink:href="#dirArrow" transform="rotate(270) translate(-36 17)" onmousedown="handlePan(-1,0)">
                  <use xlink:href="#rim" fill="#404040">
                        <set attributeName="fill" to="#808080" begin="arrowLeft.mouseover" end="arrowLeft.mouseout"/>
                  </use>
                  <path fill="none" stroke="white" stroke-width="1.5" d="M0,-3.0v7 M-2.5,-0.5L0,-3.0L2.5,-0.5"/>
                </g>
        </g>
        <svg viewBox="0 0 15 15" width="100%" height="30px" preserveAspectRatio="xMaxYMin meet">
         <g id="arrow_out" transform="scale(0.3 0.3)">
          <a xlink:href="string__selector_8hpp__incl_org.svg" target="_base">
           <rect id="button" ry="5" rx="5" y="6" x="6" height="38" width="38"
                fill="#f2f5e9" fill-opacity="0.5" stroke="#606060" stroke-width="1.0"/>
           <path id="arrow"
             d="M 11.500037,31.436501 C 11.940474,20.09759 22.043105,11.32322 32.158766,21.979434 L 37.068811,17.246167 C 37.068811,17.246167 37.088388,32 37.088388,32 L 22.160133,31.978069 C 22.160133,31.978069 26.997745,27.140456 26.997745,27.140456 C 18.528582,18.264221 13.291696,25.230495 11.500037,31.436501 z"
             style="fill:#404040;"/>
          </a>
         </g>
        </svg>
</svg>
